G75*
G70*
%OFA0B0*%
%FSLAX24Y24*%
%IPPOS*%
%LPD*%
%AMOC8*
5,1,8,0,0,1.08239X$1,22.5*
%
%ADD10C,0.0040*%
%ADD11C,0.0050*%
%ADD12C,0.0020*%
D10*
X012224Y023802D02*
X012224Y024163D01*
X012404Y023982D01*
X012164Y023982D01*
X012532Y023922D02*
X012532Y023862D01*
X012592Y023802D01*
X012712Y023802D01*
X012772Y023862D01*
X012900Y023802D02*
X013020Y023922D01*
X012960Y023922D02*
X013141Y023922D01*
X013141Y023802D02*
X013141Y024163D01*
X012960Y024163D01*
X012900Y024103D01*
X012900Y023982D01*
X012960Y023922D01*
X012772Y024103D02*
X012712Y024163D01*
X012592Y024163D01*
X012532Y024103D01*
X012532Y024042D01*
X012592Y023982D01*
X012532Y023922D01*
X012592Y023982D02*
X012652Y023982D01*
X011411Y024552D02*
X011411Y024732D01*
X011351Y024792D01*
X011231Y024792D01*
X011171Y024732D01*
X011171Y024552D01*
X011171Y024672D02*
X011051Y024792D01*
X011111Y024921D02*
X011051Y024981D01*
X011051Y025101D01*
X011111Y025161D01*
X011171Y025161D01*
X011231Y025101D01*
X011231Y025041D01*
X011231Y025101D02*
X011291Y025161D01*
X011351Y025161D01*
X011411Y025101D01*
X011411Y024981D01*
X011351Y024921D01*
X011351Y025289D02*
X011411Y025349D01*
X011411Y025469D01*
X011351Y025529D01*
X011291Y025529D01*
X011231Y025469D01*
X011171Y025529D01*
X011111Y025529D01*
X011051Y025469D01*
X011051Y025349D01*
X011111Y025289D01*
X011231Y025409D02*
X011231Y025469D01*
X011051Y024552D02*
X011411Y024552D01*
X012914Y025952D02*
X013154Y025952D01*
X012914Y026192D01*
X012914Y026253D01*
X012974Y026313D01*
X013094Y026313D01*
X013154Y026253D01*
X013282Y026253D02*
X013282Y026192D01*
X013342Y026132D01*
X013282Y026072D01*
X013282Y026012D01*
X013342Y025952D01*
X013462Y025952D01*
X013522Y026012D01*
X013650Y025952D02*
X013770Y026072D01*
X013710Y026072D02*
X013891Y026072D01*
X013891Y025952D02*
X013891Y026313D01*
X013710Y026313D01*
X013650Y026253D01*
X013650Y026132D01*
X013710Y026072D01*
X013522Y026253D02*
X013462Y026313D01*
X013342Y026313D01*
X013282Y026253D01*
X013342Y026132D02*
X013402Y026132D01*
X014676Y025579D02*
X014676Y025339D01*
X014676Y025459D02*
X015036Y025459D01*
X014916Y025339D01*
X014916Y025211D02*
X014856Y025151D01*
X014796Y025211D01*
X014736Y025211D01*
X014676Y025151D01*
X014676Y025031D01*
X014736Y024971D01*
X014676Y024842D02*
X014796Y024722D01*
X014796Y024782D02*
X014796Y024602D01*
X014676Y024602D02*
X015036Y024602D01*
X015036Y024782D01*
X014976Y024842D01*
X014856Y024842D01*
X014796Y024782D01*
X014976Y024971D02*
X015036Y025031D01*
X015036Y025151D01*
X014976Y025211D01*
X014916Y025211D01*
X014856Y025151D02*
X014856Y025091D01*
X018448Y032077D02*
X018508Y032137D01*
X018508Y032378D01*
X018568Y032317D02*
X018448Y032317D01*
X018696Y032317D02*
X018696Y032077D01*
X018876Y032077D01*
X018936Y032137D01*
X018936Y032317D01*
X019064Y032257D02*
X019124Y032317D01*
X019304Y032317D01*
X019304Y031957D01*
X019304Y032077D02*
X019124Y032077D01*
X019064Y032137D01*
X019064Y032257D01*
X019430Y032317D02*
X019550Y032317D01*
X019490Y032378D02*
X019490Y032137D01*
X019430Y032077D01*
X019678Y032077D02*
X019678Y032317D01*
X019678Y032077D02*
X019858Y032077D01*
X019918Y032137D01*
X019918Y032317D01*
X020046Y032257D02*
X020106Y032317D01*
X020227Y032317D01*
X020287Y032257D01*
X020287Y032137D01*
X020227Y032077D01*
X020106Y032077D01*
X020046Y032137D01*
X020046Y032257D01*
X020783Y032137D02*
X020843Y032077D01*
X020963Y032077D01*
X021023Y032137D01*
X021023Y032378D01*
X020963Y032438D01*
X020843Y032438D01*
X020783Y032378D01*
X021151Y032317D02*
X021151Y032077D01*
X021151Y032257D02*
X021392Y032257D01*
X021392Y032317D02*
X021392Y032077D01*
X021392Y032317D02*
X021271Y032438D01*
X021151Y032317D01*
X022256Y032257D02*
X022256Y032077D01*
X022256Y032257D02*
X022316Y032317D01*
X022436Y032317D01*
X022496Y032257D01*
X022622Y032317D02*
X022742Y032317D01*
X022682Y032378D02*
X022682Y032137D01*
X022622Y032077D01*
X022496Y032077D02*
X022496Y032438D01*
X022869Y032317D02*
X022929Y032317D01*
X023049Y032197D01*
X023049Y032077D02*
X023049Y032317D01*
X023177Y032257D02*
X023237Y032317D01*
X023357Y032317D01*
X023357Y032197D02*
X023177Y032197D01*
X023177Y032257D02*
X023177Y032077D01*
X023357Y032077D01*
X023417Y032137D01*
X023357Y032197D01*
X023545Y032077D02*
X023786Y032077D01*
X023786Y032438D01*
X023545Y032438D01*
X023665Y032257D02*
X023786Y032257D01*
X024497Y032257D02*
X024497Y032077D01*
X024497Y032257D02*
X024557Y032317D01*
X024737Y032317D01*
X024737Y032077D01*
X024862Y032077D02*
X024982Y032077D01*
X024922Y032077D02*
X024922Y032317D01*
X024982Y032317D01*
X024922Y032438D02*
X024922Y032498D01*
X025479Y032378D02*
X025539Y032438D01*
X025659Y032438D01*
X025719Y032378D01*
X025719Y032137D01*
X025659Y032077D01*
X025539Y032077D01*
X025479Y032137D01*
X025847Y032077D02*
X025847Y032317D01*
X025967Y032438D01*
X026087Y032317D01*
X026087Y032077D01*
X026087Y032257D02*
X025847Y032257D01*
X026584Y032077D02*
X026824Y032438D01*
X026952Y032438D02*
X026952Y032137D01*
X027012Y032077D01*
X027132Y032077D01*
X027192Y032137D01*
X027192Y032438D01*
X027320Y032317D02*
X027320Y032077D01*
X027320Y032257D02*
X027561Y032257D01*
X027561Y032317D02*
X027561Y032077D01*
X027561Y032317D02*
X027440Y032438D01*
X027320Y032317D01*
X026824Y032077D02*
X026584Y032438D01*
X029225Y032257D02*
X029225Y032077D01*
X029225Y032257D02*
X029285Y032317D01*
X029406Y032317D01*
X029466Y032257D01*
X029591Y032317D02*
X029711Y032317D01*
X029651Y032378D02*
X029651Y032137D01*
X029591Y032077D01*
X029466Y032077D02*
X029466Y032438D01*
X029838Y032317D02*
X029898Y032317D01*
X030018Y032197D01*
X030018Y032077D02*
X030018Y032317D01*
X030146Y032257D02*
X030146Y032077D01*
X030326Y032077D01*
X030386Y032137D01*
X030326Y032197D01*
X030146Y032197D01*
X030146Y032257D02*
X030206Y032317D01*
X030326Y032317D01*
X030514Y032438D02*
X030755Y032438D01*
X030755Y032077D01*
X030514Y032077D01*
X030635Y032257D02*
X030755Y032257D01*
X031985Y032317D02*
X032105Y032317D01*
X032045Y032378D02*
X032045Y032137D01*
X031985Y032077D01*
X032233Y032077D02*
X032233Y032317D01*
X032233Y032077D02*
X032413Y032077D01*
X032473Y032137D01*
X032473Y032317D01*
X032602Y032257D02*
X032602Y032137D01*
X032662Y032077D01*
X032842Y032077D01*
X032842Y031957D02*
X032842Y032317D01*
X032662Y032317D01*
X032602Y032257D01*
X032970Y032257D02*
X033030Y032317D01*
X033210Y032317D01*
X033210Y032077D01*
X033336Y032077D02*
X033456Y032077D01*
X033396Y032077D02*
X033396Y032317D01*
X033456Y032317D01*
X033396Y032438D02*
X033396Y032498D01*
X032970Y032257D02*
X032970Y032077D01*
X033952Y032137D02*
X034012Y032077D01*
X034132Y032077D01*
X034192Y032137D01*
X034192Y032378D01*
X034132Y032438D01*
X034012Y032438D01*
X033952Y032378D01*
X034320Y032317D02*
X034320Y032077D01*
X034320Y032257D02*
X034561Y032257D01*
X034561Y032317D02*
X034561Y032077D01*
X034561Y032317D02*
X034440Y032438D01*
X034320Y032317D01*
X035051Y020371D02*
X035231Y020371D01*
X035291Y020311D01*
X035291Y020191D01*
X035231Y020131D01*
X035291Y020006D02*
X035291Y019886D01*
X035351Y019946D02*
X035111Y019946D01*
X035051Y020006D01*
X035051Y020131D02*
X035411Y020131D01*
X035291Y019759D02*
X035291Y019699D01*
X035171Y019579D01*
X035051Y019579D02*
X035291Y019579D01*
X035231Y019451D02*
X035051Y019451D01*
X035051Y019270D01*
X035111Y019210D01*
X035171Y019270D01*
X035171Y019451D01*
X035231Y019451D02*
X035291Y019391D01*
X035291Y019270D01*
X035411Y019082D02*
X035411Y018842D01*
X035051Y018842D01*
X035051Y019082D01*
X035231Y018962D02*
X035231Y018842D01*
X035231Y017609D02*
X035231Y017369D01*
X035231Y015767D02*
X035231Y015527D01*
X035351Y015647D02*
X035111Y015647D01*
X034881Y011335D02*
X034701Y011335D01*
X034881Y011335D02*
X034941Y011275D01*
X034941Y011155D01*
X034881Y011095D01*
X034941Y010969D02*
X034941Y010849D01*
X035001Y010909D02*
X034761Y010909D01*
X034701Y010969D01*
X034701Y011095D02*
X035061Y011095D01*
X034941Y010722D02*
X034941Y010662D01*
X034821Y010542D01*
X034701Y010542D02*
X034941Y010542D01*
X034881Y010414D02*
X034701Y010414D01*
X034701Y010234D01*
X034761Y010174D01*
X034821Y010234D01*
X034821Y010414D01*
X034881Y010414D02*
X034941Y010354D01*
X034941Y010234D01*
X035061Y010046D02*
X035061Y009805D01*
X034701Y009805D01*
X034701Y010046D01*
X034881Y009926D02*
X034881Y009805D01*
X034881Y008941D02*
X034881Y008701D01*
X034881Y007467D02*
X034881Y007227D01*
X035001Y007347D02*
X034761Y007347D01*
D11*
X012181Y027276D02*
X011731Y027276D01*
X011881Y027276D02*
X011881Y027501D01*
X011956Y027576D01*
X012106Y027576D01*
X012181Y027501D01*
X012181Y027276D01*
X011881Y027426D02*
X011731Y027576D01*
X011806Y027736D02*
X011731Y027812D01*
X011731Y027962D01*
X011806Y028037D01*
X011881Y028037D01*
X011956Y027962D01*
X011956Y027887D01*
X011956Y027962D02*
X012031Y028037D01*
X012106Y028037D01*
X012181Y027962D01*
X012181Y027812D01*
X012106Y027736D01*
X012181Y028197D02*
X011956Y028197D01*
X012031Y028347D01*
X012031Y028422D01*
X011956Y028497D01*
X011806Y028497D01*
X011731Y028422D01*
X011731Y028272D01*
X011806Y028197D01*
X012181Y028197D02*
X012181Y028497D01*
D12*
X012325Y029621D02*
X013886Y029621D01*
X013886Y026493D01*
X012325Y026493D01*
X012325Y029621D01*
X012269Y025834D02*
X013043Y025834D01*
X013043Y024281D01*
X012269Y024281D01*
X012269Y025834D01*
X012268Y025834D02*
X011494Y025834D01*
X011494Y024281D01*
X012268Y024281D01*
X012268Y025834D01*
X013044Y025834D02*
X013818Y025834D01*
X013818Y024281D01*
X013044Y024281D01*
X013044Y025834D01*
X013819Y025834D02*
X013819Y024281D01*
X014593Y024281D01*
X014593Y025834D01*
X013819Y025834D01*
M02*
