G75*
G70*
%OFA0B0*%
%FSLAX24Y24*%
%IPPOS*%
%LPD*%
%AMOC8*
5,1,8,0,0,1.08239X$1,22.5*
%
%ADD10C,0.0039*%
%ADD11C,0.0050*%
%ADD12R,0.0149X0.0001*%
%ADD13R,0.0004X0.0001*%
%ADD14R,0.0010X0.0001*%
%ADD15R,0.0017X0.0001*%
%ADD16R,0.0023X0.0001*%
%ADD17R,0.0029X0.0001*%
%ADD18R,0.0034X0.0001*%
%ADD19R,0.0040X0.0001*%
%ADD20R,0.0043X0.0002*%
%ADD21R,0.0047X0.0001*%
%ADD22R,0.0050X0.0001*%
%ADD23R,0.0054X0.0001*%
%ADD24R,0.0059X0.0001*%
%ADD25R,0.0064X0.0001*%
%ADD26R,0.0015X0.0001*%
%ADD27R,0.0067X0.0001*%
%ADD28R,0.0020X0.0001*%
%ADD29R,0.0070X0.0001*%
%ADD30R,0.0024X0.0001*%
%ADD31R,0.0074X0.0001*%
%ADD32R,0.0027X0.0001*%
%ADD33R,0.0076X0.0001*%
%ADD34R,0.0030X0.0001*%
%ADD35R,0.0081X0.0002*%
%ADD36R,0.0036X0.0002*%
%ADD37R,0.0086X0.0001*%
%ADD38R,0.0091X0.0001*%
%ADD39R,0.0046X0.0001*%
%ADD40R,0.0094X0.0001*%
%ADD41R,0.0096X0.0001*%
%ADD42R,0.0053X0.0001*%
%ADD43R,0.0099X0.0001*%
%ADD44R,0.0056X0.0001*%
%ADD45R,0.0104X0.0001*%
%ADD46R,0.0060X0.0001*%
%ADD47R,0.0108X0.0001*%
%ADD48R,0.0112X0.0001*%
%ADD49R,0.0117X0.0001*%
%ADD50R,0.0072X0.0001*%
%ADD51R,0.0120X0.0002*%
%ADD52R,0.0075X0.0002*%
%ADD53R,0.0123X0.0001*%
%ADD54R,0.0078X0.0001*%
%ADD55R,0.0126X0.0001*%
%ADD56R,0.0081X0.0001*%
%ADD57R,0.0131X0.0001*%
%ADD58R,0.0136X0.0001*%
%ADD59R,0.0090X0.0001*%
%ADD60R,0.0139X0.0001*%
%ADD61R,0.0144X0.0001*%
%ADD62R,0.0147X0.0001*%
%ADD63R,0.0101X0.0001*%
%ADD64R,0.0150X0.0001*%
%ADD65R,0.0102X0.0001*%
%ADD66R,0.0153X0.0001*%
%ADD67R,0.0106X0.0001*%
%ADD68R,0.0158X0.0002*%
%ADD69R,0.0109X0.0002*%
%ADD70R,0.0164X0.0001*%
%ADD71R,0.0115X0.0001*%
%ADD72R,0.0168X0.0001*%
%ADD73R,0.0120X0.0001*%
%ADD74R,0.0171X0.0001*%
%ADD75R,0.0123X0.0001*%
%ADD76R,0.0172X0.0001*%
%ADD77R,0.0125X0.0001*%
%ADD78R,0.0175X0.0001*%
%ADD79R,0.0128X0.0001*%
%ADD80R,0.0180X0.0001*%
%ADD81R,0.0132X0.0001*%
%ADD82R,0.0186X0.0001*%
%ADD83R,0.0191X0.0001*%
%ADD84R,0.0141X0.0001*%
%ADD85R,0.0194X0.0001*%
%ADD86R,0.0145X0.0001*%
%ADD87R,0.0196X0.0002*%
%ADD88R,0.0149X0.0002*%
%ADD89R,0.0199X0.0001*%
%ADD90R,0.0151X0.0001*%
%ADD91R,0.0204X0.0001*%
%ADD92R,0.0153X0.0001*%
%ADD93R,0.0207X0.0001*%
%ADD94R,0.0158X0.0001*%
%ADD95R,0.0211X0.0001*%
%ADD96R,0.0162X0.0001*%
%ADD97R,0.0216X0.0001*%
%ADD98R,0.0166X0.0001*%
%ADD99R,0.0219X0.0001*%
%ADD100R,0.0007X0.0001*%
%ADD101R,0.0169X0.0001*%
%ADD102R,0.0222X0.0001*%
%ADD103R,0.0011X0.0001*%
%ADD104R,0.0224X0.0001*%
%ADD105R,0.0014X0.0001*%
%ADD106R,0.0176X0.0001*%
%ADD107R,0.0228X0.0001*%
%ADD108R,0.0018X0.0001*%
%ADD109R,0.0179X0.0001*%
%ADD110R,0.0234X0.0002*%
%ADD111R,0.0024X0.0002*%
%ADD112R,0.0183X0.0002*%
%ADD113R,0.0239X0.0001*%
%ADD114R,0.0189X0.0001*%
%ADD115R,0.0241X0.0001*%
%ADD116R,0.0033X0.0001*%
%ADD117R,0.0012X0.0001*%
%ADD118R,0.0192X0.0001*%
%ADD119R,0.0243X0.0001*%
%ADD120R,0.0038X0.0001*%
%ADD121R,0.0246X0.0001*%
%ADD122R,0.0041X0.0001*%
%ADD123R,0.0019X0.0001*%
%ADD124R,0.0196X0.0001*%
%ADD125R,0.0250X0.0001*%
%ADD126R,0.0044X0.0001*%
%ADD127R,0.0021X0.0001*%
%ADD128R,0.0201X0.0001*%
%ADD129R,0.0254X0.0001*%
%ADD130R,0.0048X0.0001*%
%ADD131R,0.0258X0.0001*%
%ADD132R,0.0054X0.0001*%
%ADD133R,0.0209X0.0001*%
%ADD134R,0.0263X0.0001*%
%ADD135R,0.0213X0.0001*%
%ADD136R,0.0267X0.0001*%
%ADD137R,0.0063X0.0001*%
%ADD138R,0.0270X0.0002*%
%ADD139R,0.0066X0.0002*%
%ADD140R,0.0045X0.0002*%
%ADD141R,0.0219X0.0002*%
%ADD142R,0.0271X0.0001*%
%ADD143R,0.0220X0.0001*%
%ADD144R,0.0274X0.0001*%
%ADD145R,0.0051X0.0001*%
%ADD146R,0.0223X0.0001*%
%ADD147R,0.0278X0.0001*%
%ADD148R,0.0282X0.0001*%
%ADD149R,0.0231X0.0001*%
%ADD150R,0.0288X0.0001*%
%ADD151R,0.0085X0.0001*%
%ADD152R,0.0236X0.0001*%
%ADD153R,0.0289X0.0001*%
%ADD154R,0.0087X0.0001*%
%ADD155R,0.0066X0.0001*%
%ADD156R,0.0292X0.0001*%
%ADD157R,0.0069X0.0001*%
%ADD158R,0.0297X0.0001*%
%ADD159R,0.0300X0.0001*%
%ADD160R,0.0075X0.0001*%
%ADD161R,0.0305X0.0002*%
%ADD162R,0.0101X0.0002*%
%ADD163R,0.0078X0.0002*%
%ADD164R,0.0251X0.0002*%
%ADD165R,0.0309X0.0001*%
%ADD166R,0.0105X0.0001*%
%ADD167R,0.0083X0.0001*%
%ADD168R,0.0255X0.0001*%
%ADD169R,0.0314X0.0001*%
%ADD170R,0.0110X0.0001*%
%ADD171R,0.0087X0.0001*%
%ADD172R,0.0316X0.0001*%
%ADD173R,0.0113X0.0001*%
%ADD174R,0.0262X0.0001*%
%ADD175R,0.0319X0.0001*%
%ADD176R,0.0114X0.0001*%
%ADD177R,0.0093X0.0001*%
%ADD178R,0.0266X0.0001*%
%ADD179R,0.0321X0.0001*%
%ADD180R,0.0096X0.0001*%
%ADD181R,0.0324X0.0001*%
%ADD182R,0.0270X0.0001*%
%ADD183R,0.0329X0.0001*%
%ADD184R,0.0124X0.0001*%
%ADD185R,0.0275X0.0001*%
%ADD186R,0.0333X0.0001*%
%ADD187R,0.0279X0.0001*%
%ADD188R,0.0336X0.0001*%
%ADD189R,0.0111X0.0001*%
%ADD190R,0.0284X0.0001*%
%ADD191R,0.0339X0.0002*%
%ADD192R,0.0134X0.0002*%
%ADD193R,0.0114X0.0002*%
%ADD194R,0.0286X0.0002*%
%ADD195R,0.0342X0.0001*%
%ADD196R,0.0116X0.0001*%
%ADD197R,0.0491X0.0001*%
%ADD198R,0.0492X0.0001*%
%ADD199R,0.0294X0.0001*%
%ADD200R,0.0495X0.0001*%
%ADD201R,0.0299X0.0001*%
%ADD202R,0.0496X0.0001*%
%ADD203R,0.0127X0.0001*%
%ADD204R,0.0301X0.0001*%
%ADD205R,0.0498X0.0001*%
%ADD206R,0.0304X0.0001*%
%ADD207R,0.0501X0.0001*%
%ADD208R,0.0134X0.0001*%
%ADD209R,0.0308X0.0001*%
%ADD210R,0.0135X0.0001*%
%ADD211R,0.0311X0.0001*%
%ADD212R,0.0504X0.0001*%
%ADD213R,0.0138X0.0001*%
%ADD214R,0.0504X0.0002*%
%ADD215R,0.0141X0.0002*%
%ADD216R,0.0318X0.0002*%
%ADD217R,0.0507X0.0001*%
%ADD218R,0.0323X0.0001*%
%ADD219R,0.0326X0.0001*%
%ADD220R,0.0508X0.0001*%
%ADD221R,0.0152X0.0001*%
%ADD222R,0.0330X0.0001*%
%ADD223R,0.0510X0.0001*%
%ADD224R,0.0494X0.0001*%
%ADD225R,0.0512X0.0001*%
%ADD226R,0.0500X0.0001*%
%ADD227R,0.0513X0.0001*%
%ADD228R,0.0501X0.0001*%
%ADD229R,0.0513X0.0002*%
%ADD230R,0.0501X0.0002*%
%ADD231R,0.0503X0.0001*%
%ADD232R,0.0504X0.0001*%
%ADD233R,0.0506X0.0001*%
%ADD234R,0.0513X0.0001*%
%ADD235R,0.0509X0.0001*%
%ADD236R,0.0511X0.0001*%
%ADD237R,0.0514X0.0001*%
%ADD238R,0.0516X0.0001*%
%ADD239R,0.0513X0.0002*%
%ADD240R,0.0519X0.0002*%
%ADD241R,0.0519X0.0001*%
%ADD242R,0.0520X0.0001*%
%ADD243R,0.0522X0.0001*%
%ADD244R,0.0507X0.0001*%
%ADD245R,0.0509X0.0002*%
%ADD246R,0.0520X0.0002*%
%ADD247R,0.0522X0.0001*%
%ADD248R,0.0505X0.0001*%
%ADD249R,0.0502X0.0001*%
%ADD250R,0.0521X0.0001*%
%ADD251R,0.0503X0.0002*%
%ADD252R,0.0519X0.0002*%
%ADD253R,0.0519X0.0001*%
%ADD254R,0.0499X0.0001*%
%ADD255R,0.0517X0.0001*%
%ADD256R,0.0495X0.0002*%
%ADD257R,0.0514X0.0002*%
%ADD258R,0.0515X0.0001*%
%ADD259R,0.0492X0.0001*%
%ADD260R,0.0490X0.0001*%
%ADD261R,0.0490X0.0002*%
%ADD262R,0.0511X0.0002*%
%ADD263R,0.0489X0.0001*%
%ADD264R,0.0489X0.0001*%
%ADD265R,0.0488X0.0001*%
%ADD266R,0.0485X0.0001*%
%ADD267R,0.0483X0.0001*%
%ADD268R,0.0483X0.0002*%
%ADD269R,0.0507X0.0002*%
%ADD270R,0.0483X0.0001*%
%ADD271R,0.0481X0.0001*%
%ADD272R,0.0480X0.0001*%
%ADD273R,0.0480X0.0002*%
%ADD274R,0.0501X0.0002*%
%ADD275R,0.0479X0.0001*%
%ADD276R,0.0477X0.0001*%
%ADD277R,0.0477X0.0001*%
%ADD278R,0.0475X0.0001*%
%ADD279R,0.0474X0.0001*%
%ADD280R,0.0472X0.0001*%
%ADD281R,0.0472X0.0002*%
%ADD282R,0.0498X0.0002*%
%ADD283R,0.0471X0.0001*%
%ADD284R,0.0473X0.0001*%
%ADD285R,0.0471X0.0001*%
%ADD286R,0.0470X0.0001*%
%ADD287R,0.0468X0.0001*%
%ADD288R,0.0469X0.0001*%
%ADD289R,0.0468X0.0002*%
%ADD290R,0.0491X0.0002*%
%ADD291R,0.0466X0.0001*%
%ADD292R,0.0465X0.0001*%
%ADD293R,0.0464X0.0001*%
%ADD294R,0.0462X0.0001*%
%ADD295R,0.0462X0.0002*%
%ADD296R,0.0489X0.0002*%
%ADD297R,0.0461X0.0001*%
%ADD298R,0.0460X0.0001*%
%ADD299R,0.0459X0.0001*%
%ADD300R,0.0484X0.0001*%
%ADD301R,0.0457X0.0001*%
%ADD302R,0.0459X0.0001*%
%ADD303R,0.0458X0.0002*%
%ADD304R,0.0484X0.0002*%
%ADD305R,0.0456X0.0001*%
%ADD306R,0.0455X0.0001*%
%ADD307R,0.0453X0.0001*%
%ADD308R,0.0451X0.0001*%
%ADD309R,0.0453X0.0001*%
%ADD310R,0.0450X0.0001*%
%ADD311R,0.0451X0.0002*%
%ADD312R,0.0478X0.0001*%
%ADD313R,0.0449X0.0001*%
%ADD314R,0.0476X0.0001*%
%ADD315R,0.0447X0.0001*%
%ADD316R,0.0474X0.0001*%
%ADD317R,0.0449X0.0002*%
%ADD318R,0.0476X0.0002*%
%ADD319R,0.0454X0.0001*%
%ADD320R,0.0469X0.0002*%
%ADD321R,0.0468X0.0001*%
%ADD322R,0.0467X0.0001*%
%ADD323R,0.0473X0.0002*%
%ADD324R,0.0468X0.0002*%
%ADD325R,0.0486X0.0002*%
%ADD326R,0.0474X0.0002*%
%ADD327R,0.0487X0.0001*%
%ADD328R,0.0497X0.0001*%
%ADD329R,0.0486X0.0001*%
%ADD330R,0.0500X0.0002*%
%ADD331R,0.0487X0.0002*%
%ADD332R,0.0498X0.0001*%
%ADD333R,0.0524X0.0002*%
%ADD334R,0.0524X0.0001*%
%ADD335R,0.0525X0.0001*%
%ADD336R,0.0528X0.0001*%
%ADD337R,0.0529X0.0001*%
%ADD338R,0.0533X0.0001*%
%ADD339R,0.0534X0.0001*%
%ADD340R,0.0523X0.0001*%
%ADD341R,0.0536X0.0001*%
%ADD342R,0.0537X0.0002*%
%ADD343R,0.0527X0.0002*%
%ADD344R,0.0537X0.0001*%
%ADD345R,0.0528X0.0001*%
%ADD346R,0.0539X0.0001*%
%ADD347R,0.0530X0.0001*%
%ADD348R,0.0540X0.0001*%
%ADD349R,0.0541X0.0001*%
%ADD350R,0.0531X0.0001*%
%ADD351R,0.0543X0.0001*%
%ADD352R,0.0544X0.0001*%
%ADD353R,0.0546X0.0002*%
%ADD354R,0.0536X0.0002*%
%ADD355R,0.0547X0.0001*%
%ADD356R,0.0551X0.0001*%
%ADD357R,0.0552X0.0001*%
%ADD358R,0.0554X0.0001*%
%ADD359R,0.0555X0.0001*%
%ADD360R,0.0555X0.0002*%
%ADD361R,0.0547X0.0002*%
%ADD362R,0.0549X0.0001*%
%ADD363R,0.0548X0.0001*%
%ADD364R,0.0538X0.0001*%
%ADD365R,0.0537X0.0001*%
%ADD366R,0.0533X0.0002*%
%ADD367R,0.0531X0.0001*%
%ADD368R,0.0526X0.0001*%
%ADD369R,0.0518X0.0001*%
%ADD370R,0.0498X0.0002*%
%ADD371R,0.0496X0.0002*%
%ADD372R,0.0486X0.0001*%
%ADD373R,0.0485X0.0002*%
%ADD374R,0.0482X0.0001*%
%ADD375R,0.0477X0.0002*%
%ADD376R,0.0530X0.0002*%
%ADD377R,0.0464X0.0002*%
%ADD378R,0.0561X0.0001*%
%ADD379R,0.0570X0.0001*%
%ADD380R,0.0576X0.0001*%
%ADD381R,0.0581X0.0001*%
%ADD382R,0.0585X0.0001*%
%ADD383R,0.0589X0.0001*%
%ADD384R,0.0600X0.0002*%
%ADD385R,0.0614X0.0001*%
%ADD386R,0.0623X0.0001*%
%ADD387R,0.0630X0.0001*%
%ADD388R,0.0633X0.0001*%
%ADD389R,0.0638X0.0001*%
%ADD390R,0.0645X0.0001*%
%ADD391R,0.0657X0.0001*%
%ADD392R,0.0556X0.0001*%
%ADD393R,0.0669X0.0001*%
%ADD394R,0.0674X0.0001*%
%ADD395R,0.0579X0.0001*%
%ADD396R,0.0676X0.0002*%
%ADD397R,0.0585X0.0002*%
%ADD398R,0.0678X0.0001*%
%ADD399R,0.0590X0.0001*%
%ADD400R,0.0679X0.0001*%
%ADD401R,0.0596X0.0001*%
%ADD402R,0.0681X0.0001*%
%ADD403R,0.0606X0.0001*%
%ADD404R,0.0620X0.0001*%
%ADD405R,0.0682X0.0001*%
%ADD406R,0.0633X0.0001*%
%ADD407R,0.0684X0.0001*%
%ADD408R,0.0639X0.0001*%
%ADD409R,0.0649X0.0001*%
%ADD410R,0.0684X0.0001*%
%ADD411R,0.0655X0.0001*%
%ADD412R,0.0683X0.0002*%
%ADD413R,0.0664X0.0002*%
%ADD414R,0.0683X0.0001*%
%ADD415R,0.0670X0.0001*%
%ADD416R,0.0671X0.0001*%
%ADD417R,0.0681X0.0001*%
%ADD418R,0.0672X0.0001*%
%ADD419R,0.0680X0.0001*%
%ADD420R,0.0675X0.0001*%
%ADD421R,0.0676X0.0001*%
%ADD422R,0.0680X0.0002*%
%ADD423R,0.0678X0.0002*%
%ADD424R,0.0678X0.0001*%
%ADD425R,0.0675X0.0002*%
%ADD426R,0.0672X0.0002*%
%ADD427R,0.0672X0.0001*%
%ADD428R,0.0671X0.0002*%
%ADD429R,0.0670X0.0002*%
%ADD430R,0.0669X0.0001*%
%ADD431R,0.0667X0.0001*%
%ADD432R,0.0669X0.0002*%
%ADD433R,0.0667X0.0002*%
%ADD434R,0.0668X0.0001*%
%ADD435R,0.0666X0.0001*%
%ADD436R,0.0668X0.0002*%
%ADD437R,0.0666X0.0002*%
%ADD438R,0.0666X0.0001*%
%ADD439R,0.0664X0.0001*%
%ADD440R,0.0663X0.0001*%
%ADD441R,0.0666X0.0002*%
%ADD442R,0.0663X0.0002*%
%ADD443R,0.0665X0.0001*%
%ADD444R,0.0674X0.0002*%
%ADD445R,0.0677X0.0001*%
%ADD446R,0.0678X0.0002*%
%ADD447R,0.0682X0.0002*%
%ADD448R,0.0686X0.0001*%
%ADD449R,0.0686X0.0002*%
%ADD450R,0.0687X0.0001*%
%ADD451R,0.0689X0.0001*%
%ADD452R,0.0653X0.0001*%
%ADD453R,0.0641X0.0001*%
%ADD454R,0.0626X0.0001*%
%ADD455R,0.0616X0.0001*%
%ADD456R,0.0687X0.0001*%
%ADD457R,0.0612X0.0001*%
%ADD458R,0.0688X0.0001*%
%ADD459R,0.0606X0.0001*%
%ADD460R,0.0601X0.0001*%
%ADD461R,0.0591X0.0002*%
%ADD462R,0.0567X0.0001*%
%ADD463R,0.0560X0.0001*%
%ADD464R,0.0659X0.0001*%
%ADD465R,0.0516X0.0001*%
%ADD466R,0.0639X0.0001*%
%ADD467R,0.0502X0.0002*%
%ADD468R,0.0633X0.0002*%
%ADD469R,0.0608X0.0001*%
%ADD470R,0.0582X0.0001*%
%ADD471R,0.0577X0.0001*%
%ADD472R,0.0569X0.0002*%
%ADD473R,0.0546X0.0001*%
%ADD474R,0.0486X0.0002*%
%ADD475R,0.0493X0.0001*%
%ADD476R,0.0516X0.0002*%
%ADD477R,0.0532X0.0001*%
%ADD478R,0.0534X0.0002*%
%ADD479R,0.0535X0.0002*%
%ADD480R,0.0543X0.0001*%
%ADD481R,0.0553X0.0001*%
%ADD482R,0.0559X0.0001*%
%ADD483R,0.0564X0.0001*%
%ADD484R,0.0564X0.0001*%
%ADD485R,0.0567X0.0001*%
%ADD486R,0.0569X0.0001*%
%ADD487R,0.0570X0.0002*%
%ADD488R,0.0571X0.0002*%
%ADD489R,0.0571X0.0001*%
%ADD490R,0.0573X0.0001*%
%ADD491R,0.0574X0.0001*%
%ADD492R,0.0576X0.0001*%
%ADD493R,0.0600X0.0001*%
%ADD494R,0.0611X0.0001*%
%ADD495R,0.0618X0.0001*%
%ADD496R,0.0621X0.0001*%
%ADD497R,0.1269X0.0001*%
%ADD498R,0.1267X0.0001*%
%ADD499R,0.1266X0.0001*%
%ADD500R,0.1266X0.0002*%
%ADD501R,0.1264X0.0001*%
%ADD502R,0.1261X0.0001*%
%ADD503R,0.1260X0.0001*%
%ADD504R,0.1259X0.0001*%
%ADD505R,0.1256X0.0001*%
%ADD506R,0.1254X0.0001*%
%ADD507R,0.1253X0.0001*%
%ADD508R,0.1251X0.0001*%
%ADD509R,0.1251X0.0002*%
%ADD510R,0.1248X0.0001*%
%ADD511R,0.1245X0.0001*%
%ADD512R,0.1244X0.0001*%
%ADD513R,0.1242X0.0001*%
%ADD514R,0.1239X0.0001*%
%ADD515R,0.1237X0.0001*%
%ADD516R,0.1236X0.0002*%
%ADD517R,0.1233X0.0001*%
%ADD518R,0.1230X0.0001*%
%ADD519R,0.1229X0.0001*%
%ADD520R,0.1227X0.0001*%
%ADD521R,0.1226X0.0001*%
%ADD522R,0.1224X0.0001*%
%ADD523R,0.1223X0.0002*%
%ADD524R,0.1219X0.0001*%
%ADD525R,0.1216X0.0001*%
%ADD526R,0.1215X0.0001*%
%ADD527R,0.1214X0.0001*%
%ADD528R,0.1212X0.0001*%
%ADD529R,0.1209X0.0001*%
%ADD530R,0.1207X0.0002*%
%ADD531R,0.1206X0.0001*%
%ADD532R,0.1204X0.0001*%
%ADD533R,0.1201X0.0001*%
%ADD534R,0.1200X0.0001*%
%ADD535R,0.1199X0.0001*%
%ADD536R,0.1196X0.0001*%
%ADD537R,0.1194X0.0001*%
%ADD538R,0.1193X0.0001*%
%ADD539R,0.1191X0.0001*%
%ADD540R,0.1191X0.0002*%
%ADD541R,0.1188X0.0001*%
%ADD542R,0.1185X0.0001*%
%ADD543R,0.1184X0.0001*%
%ADD544R,0.1181X0.0001*%
%ADD545R,0.1177X0.0001*%
%ADD546R,0.1176X0.0001*%
%ADD547R,0.1174X0.0001*%
%ADD548R,0.1173X0.0001*%
%ADD549R,0.1170X0.0002*%
%ADD550R,0.1170X0.0001*%
%ADD551R,0.1169X0.0001*%
%ADD552R,0.1166X0.0001*%
%ADD553R,0.1164X0.0001*%
%ADD554R,0.1163X0.0001*%
%ADD555R,0.1163X0.0002*%
%ADD556R,0.1167X0.0001*%
%ADD557R,0.1171X0.0001*%
%ADD558R,0.1179X0.0001*%
%ADD559R,0.1182X0.0001*%
%ADD560R,0.1182X0.0002*%
%ADD561R,0.1188X0.0001*%
%ADD562R,0.1190X0.0001*%
%ADD563R,0.1197X0.0001*%
%ADD564R,0.1204X0.0002*%
%ADD565R,0.1207X0.0001*%
%ADD566R,0.1210X0.0001*%
%ADD567R,0.1213X0.0001*%
%ADD568R,0.1217X0.0001*%
%ADD569R,0.1218X0.0001*%
%ADD570R,0.1220X0.0001*%
%ADD571R,0.1221X0.0001*%
%ADD572R,0.1223X0.0001*%
%ADD573R,0.1226X0.0002*%
%ADD574R,0.1236X0.0001*%
%ADD575R,0.1239X0.0001*%
%ADD576R,0.1240X0.0001*%
%ADD577R,0.1243X0.0001*%
%ADD578R,0.1248X0.0002*%
%ADD579R,0.1248X0.0001*%
%ADD580R,0.1251X0.0001*%
%ADD581R,0.1257X0.0001*%
%ADD582R,0.1263X0.0001*%
%ADD583R,0.1267X0.0002*%
%ADD584R,0.1270X0.0001*%
%ADD585R,0.1274X0.0001*%
%ADD586R,0.1275X0.0001*%
%ADD587R,0.1278X0.0001*%
%ADD588R,0.1280X0.0001*%
%ADD589R,0.1281X0.0001*%
%ADD590R,0.1284X0.0001*%
%ADD591R,0.1286X0.0001*%
%ADD592R,0.1289X0.0001*%
%ADD593R,0.1290X0.0002*%
%ADD594R,0.1291X0.0001*%
%ADD595R,0.1294X0.0001*%
%ADD596R,0.1296X0.0001*%
%ADD597R,0.1299X0.0001*%
%ADD598R,0.1300X0.0001*%
%ADD599R,0.1302X0.0001*%
%ADD600R,0.1304X0.0001*%
%ADD601R,0.1306X0.0001*%
%ADD602R,0.1308X0.0001*%
%ADD603R,0.1311X0.0002*%
%ADD604R,0.1313X0.0001*%
%ADD605R,0.1316X0.0001*%
%ADD606R,0.1317X0.0001*%
%ADD607R,0.1320X0.0001*%
%ADD608R,0.1323X0.0001*%
%ADD609R,0.1326X0.0001*%
%ADD610R,0.1329X0.0001*%
%ADD611R,0.1332X0.0002*%
%ADD612R,0.1335X0.0001*%
%ADD613R,0.1336X0.0001*%
%ADD614R,0.1340X0.0001*%
%ADD615R,0.1343X0.0001*%
%ADD616R,0.1346X0.0001*%
%ADD617R,0.1347X0.0001*%
%ADD618R,0.1350X0.0001*%
%ADD619R,0.1353X0.0002*%
%ADD620R,0.1356X0.0001*%
%ADD621R,0.1357X0.0001*%
%ADD622R,0.1360X0.0001*%
%ADD623R,0.1364X0.0001*%
%ADD624R,0.1365X0.0001*%
%ADD625R,0.1368X0.0001*%
%ADD626R,0.1369X0.0001*%
%ADD627R,0.1373X0.0001*%
%ADD628R,0.1374X0.0002*%
%ADD629R,0.1377X0.0001*%
%ADD630R,0.1379X0.0001*%
%ADD631R,0.1380X0.0001*%
%ADD632R,0.1383X0.0001*%
%ADD633R,0.1386X0.0001*%
%ADD634R,0.1387X0.0001*%
%ADD635R,0.1391X0.0001*%
%ADD636R,0.1394X0.0001*%
%ADD637R,0.1395X0.0002*%
%ADD638R,0.1398X0.0001*%
%ADD639R,0.1401X0.0001*%
%ADD640R,0.1403X0.0001*%
%ADD641R,0.1406X0.0001*%
%ADD642R,0.1407X0.0001*%
%ADD643R,0.1409X0.0001*%
%ADD644R,0.1411X0.0001*%
%ADD645R,0.1414X0.0001*%
%ADD646R,0.1416X0.0002*%
%ADD647R,0.1419X0.0001*%
%ADD648R,0.1421X0.0001*%
%ADD649R,0.1422X0.0001*%
%ADD650R,0.1424X0.0001*%
%ADD651R,0.1426X0.0001*%
%ADD652R,0.1428X0.0001*%
%ADD653R,0.1429X0.0002*%
%ADD654R,0.1429X0.0001*%
%ADD655R,0.1425X0.0001*%
%ADD656R,0.1421X0.0002*%
%ADD657R,0.1418X0.0001*%
%ADD658R,0.1416X0.0001*%
%ADD659R,0.1413X0.0001*%
%ADD660R,0.1410X0.0001*%
%ADD661R,0.1404X0.0001*%
%ADD662R,0.1401X0.0001*%
%ADD663R,0.0346X0.0001*%
%ADD664R,0.1044X0.0001*%
%ADD665R,0.0342X0.0002*%
%ADD666R,0.1040X0.0002*%
%ADD667R,0.0337X0.0001*%
%ADD668R,0.1034X0.0001*%
%ADD669R,0.0357X0.0001*%
%ADD670R,0.0660X0.0001*%
%ADD671R,0.0353X0.0001*%
%ADD672R,0.0327X0.0001*%
%ADD673R,0.0349X0.0001*%
%ADD674R,0.0321X0.0001*%
%ADD675R,0.0648X0.0001*%
%ADD676R,0.0344X0.0001*%
%ADD677R,0.0317X0.0001*%
%ADD678R,0.0339X0.0001*%
%ADD679R,0.0312X0.0001*%
%ADD680R,0.0631X0.0001*%
%ADD681R,0.0334X0.0001*%
%ADD682R,0.0309X0.0001*%
%ADD683R,0.0307X0.0002*%
%ADD684R,0.0623X0.0002*%
%ADD685R,0.0327X0.0002*%
%ADD686R,0.0618X0.0001*%
%ADD687R,0.0297X0.0001*%
%ADD688R,0.0607X0.0001*%
%ADD689R,0.0320X0.0001*%
%ADD690R,0.0293X0.0001*%
%ADD691R,0.0599X0.0001*%
%ADD692R,0.0313X0.0001*%
%ADD693R,0.0285X0.0001*%
%ADD694R,0.0584X0.0001*%
%ADD695R,0.0303X0.0001*%
%ADD696R,0.0281X0.0001*%
%ADD697R,0.0273X0.0002*%
%ADD698R,0.0563X0.0002*%
%ADD699R,0.0293X0.0002*%
%ADD700R,0.0264X0.0001*%
%ADD701R,0.0259X0.0001*%
%ADD702R,0.0256X0.0001*%
%ADD703R,0.0276X0.0001*%
%ADD704R,0.0252X0.0001*%
%ADD705R,0.0273X0.0001*%
%ADD706R,0.0248X0.0001*%
%ADD707R,0.0269X0.0001*%
%ADD708R,0.0245X0.0001*%
%ADD709R,0.0240X0.0001*%
%ADD710R,0.0237X0.0002*%
%ADD711R,0.0256X0.0002*%
%ADD712R,0.0234X0.0001*%
%ADD713R,0.0232X0.0001*%
%ADD714R,0.0251X0.0001*%
%ADD715R,0.0228X0.0001*%
%ADD716R,0.0246X0.0001*%
%ADD717R,0.0456X0.0001*%
%ADD718R,0.0219X0.0001*%
%ADD719R,0.0444X0.0001*%
%ADD720R,0.0237X0.0001*%
%ADD721R,0.0214X0.0001*%
%ADD722R,0.0436X0.0001*%
%ADD723R,0.0432X0.0001*%
%ADD724R,0.0231X0.0001*%
%ADD725R,0.0210X0.0001*%
%ADD726R,0.0426X0.0001*%
%ADD727R,0.0420X0.0001*%
%ADD728R,0.0226X0.0001*%
%ADD729R,0.0204X0.0002*%
%ADD730R,0.0409X0.0002*%
%ADD731R,0.0222X0.0002*%
%ADD732R,0.0391X0.0001*%
%ADD733R,0.0217X0.0001*%
%ADD734R,0.0376X0.0001*%
%ADD735R,0.0368X0.0001*%
%ADD736R,0.0189X0.0001*%
%ADD737R,0.0361X0.0001*%
%ADD738R,0.0206X0.0001*%
%ADD739R,0.0186X0.0001*%
%ADD740R,0.0356X0.0001*%
%ADD741R,0.0181X0.0001*%
%ADD742R,0.0345X0.0001*%
%ADD743R,0.0173X0.0001*%
%ADD744R,0.0331X0.0001*%
%ADD745R,0.0190X0.0001*%
%ADD746R,0.0168X0.0001*%
%ADD747R,0.0165X0.0002*%
%ADD748R,0.0162X0.0001*%
%ADD749R,0.0159X0.0001*%
%ADD750R,0.0177X0.0001*%
%ADD751R,0.0156X0.0001*%
%ADD752R,0.0324X0.0001*%
%ADD753R,0.0174X0.0001*%
%ADD754R,0.0167X0.0001*%
%ADD755R,0.0146X0.0001*%
%ADD756R,0.0163X0.0001*%
%ADD757R,0.0141X0.0001*%
%ADD758R,0.0140X0.0001*%
%ADD759R,0.0137X0.0001*%
%ADD760R,0.0133X0.0001*%
%ADD761R,0.0129X0.0002*%
%ADD762R,0.0321X0.0002*%
%ADD763R,0.0146X0.0002*%
%ADD764R,0.0119X0.0001*%
%ADD765R,0.0129X0.0001*%
%ADD766R,0.0111X0.0001*%
%ADD767R,0.0126X0.0001*%
%ADD768R,0.0318X0.0001*%
%ADD769R,0.0097X0.0001*%
%ADD770R,0.0315X0.0001*%
%ADD771R,0.0089X0.0002*%
%ADD772R,0.0315X0.0002*%
%ADD773R,0.0105X0.0002*%
%ADD774R,0.0079X0.0001*%
%ADD775R,0.0089X0.0001*%
%ADD776R,0.0069X0.0001*%
%ADD777R,0.0084X0.0001*%
%ADD778R,0.0057X0.0001*%
%ADD779R,0.0052X0.0002*%
%ADD780R,0.0311X0.0002*%
%ADD781R,0.0066X0.0002*%
%ADD782R,0.0061X0.0001*%
%ADD783R,0.0042X0.0001*%
%ADD784R,0.0055X0.0001*%
%ADD785R,0.0039X0.0001*%
%ADD786R,0.0052X0.0001*%
%ADD787R,0.0036X0.0001*%
%ADD788R,0.0049X0.0001*%
%ADD789R,0.0307X0.0001*%
%ADD790R,0.0045X0.0001*%
%ADD791R,0.0022X0.0001*%
%ADD792R,0.0035X0.0001*%
%ADD793R,0.0025X0.0002*%
%ADD794R,0.0306X0.0001*%
%ADD795R,0.0018X0.0001*%
%ADD796R,0.0008X0.0001*%
%ADD797R,0.0300X0.0002*%
%ADD798R,0.0296X0.0001*%
%ADD799R,0.0294X0.0002*%
%ADD800R,0.0294X0.0001*%
%ADD801R,0.0291X0.0001*%
%ADD802R,0.0291X0.0002*%
%ADD803R,0.0286X0.0001*%
%ADD804R,0.0281X0.0002*%
%ADD805R,0.0277X0.0001*%
%ADD806R,0.0276X0.0001*%
%ADD807R,0.0266X0.0002*%
%ADD808R,0.0264X0.0001*%
%ADD809R,0.0261X0.0001*%
%ADD810R,0.0259X0.0002*%
%ADD811R,0.0254X0.0002*%
%ADD812R,0.0248X0.0002*%
%ADD813R,0.0218X0.0002*%
%ADD814R,0.0157X0.0001*%
%ADD815C,0.0040*%
%ADD816C,0.0060*%
%ADD817C,0.0080*%
%ADD818C,0.0030*%
%ADD819R,0.2303X0.0200*%
%ADD820C,0.0020*%
%ADD821R,0.0079X0.0551*%
%ADD822R,0.0760X0.0320*%
%ADD823C,0.0100*%
%ADD824C,0.0000*%
%ADD825R,0.0551X0.0079*%
%ADD826C,0.0160*%
D10*
X005562Y005244D02*
X005562Y035165D01*
X038633Y035165D01*
X038633Y005244D01*
X005562Y005244D01*
D11*
X009642Y008946D02*
X009642Y009574D01*
X009721Y009574D01*
X009721Y010362D01*
X009642Y010362D01*
X009642Y011090D01*
X011717Y011090D01*
X011717Y010362D01*
X011638Y010362D01*
X011638Y009574D01*
X011717Y009574D01*
X011717Y008946D01*
X010877Y008946D01*
X010877Y008848D01*
X010483Y008848D01*
X010483Y008946D01*
X009642Y008946D01*
X009642Y009574D02*
X009564Y009574D01*
X009564Y010362D01*
X009642Y010362D01*
X010208Y009968D02*
X010210Y010011D01*
X010216Y010053D01*
X010226Y010095D01*
X010239Y010136D01*
X010256Y010176D01*
X010277Y010213D01*
X010301Y010249D01*
X010328Y010282D01*
X010358Y010313D01*
X010391Y010341D01*
X010426Y010366D01*
X010463Y010387D01*
X010502Y010405D01*
X010542Y010419D01*
X010584Y010430D01*
X010626Y010437D01*
X010669Y010440D01*
X010712Y010439D01*
X010755Y010434D01*
X010797Y010425D01*
X010838Y010413D01*
X010878Y010397D01*
X010916Y010377D01*
X010952Y010354D01*
X010986Y010327D01*
X011018Y010298D01*
X011046Y010266D01*
X011072Y010231D01*
X011094Y010195D01*
X011113Y010156D01*
X011128Y010116D01*
X011140Y010075D01*
X011148Y010032D01*
X011152Y009989D01*
X011152Y009947D01*
X011148Y009904D01*
X011140Y009861D01*
X011128Y009820D01*
X011113Y009780D01*
X011094Y009741D01*
X011072Y009705D01*
X011046Y009670D01*
X011018Y009638D01*
X010986Y009609D01*
X010952Y009582D01*
X010916Y009559D01*
X010878Y009539D01*
X010838Y009523D01*
X010797Y009511D01*
X010755Y009502D01*
X010712Y009497D01*
X010669Y009496D01*
X010626Y009499D01*
X010584Y009506D01*
X010542Y009517D01*
X010502Y009531D01*
X010463Y009549D01*
X010426Y009570D01*
X010391Y009595D01*
X010358Y009623D01*
X010328Y009654D01*
X010301Y009687D01*
X010277Y009723D01*
X010256Y009760D01*
X010239Y009800D01*
X010226Y009841D01*
X010216Y009883D01*
X010210Y009925D01*
X010208Y009968D01*
X010089Y009968D02*
X010091Y010016D01*
X010097Y010064D01*
X010107Y010111D01*
X010120Y010157D01*
X010138Y010202D01*
X010158Y010246D01*
X010183Y010288D01*
X010211Y010327D01*
X010241Y010364D01*
X010275Y010398D01*
X010312Y010430D01*
X010350Y010459D01*
X010391Y010484D01*
X010434Y010506D01*
X010479Y010524D01*
X010525Y010538D01*
X010572Y010549D01*
X010620Y010556D01*
X010668Y010559D01*
X010716Y010558D01*
X010764Y010553D01*
X010812Y010544D01*
X010858Y010532D01*
X010903Y010515D01*
X010947Y010495D01*
X010989Y010472D01*
X011029Y010445D01*
X011067Y010415D01*
X011102Y010382D01*
X011134Y010346D01*
X011164Y010308D01*
X011190Y010267D01*
X011212Y010224D01*
X011232Y010180D01*
X011247Y010135D01*
X011259Y010088D01*
X011267Y010040D01*
X011271Y009992D01*
X011271Y009944D01*
X011267Y009896D01*
X011259Y009848D01*
X011247Y009801D01*
X011232Y009756D01*
X011212Y009712D01*
X011190Y009669D01*
X011164Y009628D01*
X011134Y009590D01*
X011102Y009554D01*
X011067Y009521D01*
X011029Y009491D01*
X010989Y009464D01*
X010947Y009441D01*
X010903Y009421D01*
X010858Y009404D01*
X010812Y009392D01*
X010764Y009383D01*
X010716Y009378D01*
X010668Y009377D01*
X010620Y009380D01*
X010572Y009387D01*
X010525Y009398D01*
X010479Y009412D01*
X010434Y009430D01*
X010391Y009452D01*
X010350Y009477D01*
X010312Y009506D01*
X010275Y009538D01*
X010241Y009572D01*
X010211Y009609D01*
X010183Y009648D01*
X010158Y009690D01*
X010138Y009734D01*
X010120Y009779D01*
X010107Y009825D01*
X010097Y009872D01*
X010091Y009920D01*
X010089Y009968D01*
X011717Y009574D02*
X011796Y009574D01*
X011796Y010362D01*
X011717Y010362D01*
X011912Y010120D02*
X011912Y009820D01*
X011987Y009744D01*
X012137Y009744D01*
X012212Y009820D01*
X012372Y009744D02*
X012672Y009744D01*
X012522Y009744D02*
X012522Y010195D01*
X012372Y010045D01*
X012212Y010120D02*
X012137Y010195D01*
X011987Y010195D01*
X011912Y010120D01*
X012832Y010120D02*
X012832Y010045D01*
X012908Y009970D01*
X013133Y009970D01*
X013133Y010120D02*
X013058Y010195D01*
X012908Y010195D01*
X012832Y010120D01*
X012832Y009820D02*
X012908Y009744D01*
X013058Y009744D01*
X013133Y009820D01*
X013133Y010120D01*
X013501Y010362D02*
X013501Y009574D01*
X013579Y009574D01*
X013579Y008946D01*
X014420Y008946D01*
X014420Y008848D01*
X014814Y008848D01*
X014814Y008946D01*
X015654Y008946D01*
X015654Y009574D01*
X015733Y009574D01*
X015733Y010362D01*
X015654Y010362D01*
X015654Y011090D01*
X013579Y011090D01*
X013579Y010362D01*
X013501Y010362D01*
X013579Y010362D02*
X013658Y010362D01*
X013658Y009574D01*
X013579Y009574D01*
X014145Y009968D02*
X014147Y010011D01*
X014153Y010053D01*
X014163Y010095D01*
X014176Y010136D01*
X014193Y010176D01*
X014214Y010213D01*
X014238Y010249D01*
X014265Y010282D01*
X014295Y010313D01*
X014328Y010341D01*
X014363Y010366D01*
X014400Y010387D01*
X014439Y010405D01*
X014479Y010419D01*
X014521Y010430D01*
X014563Y010437D01*
X014606Y010440D01*
X014649Y010439D01*
X014692Y010434D01*
X014734Y010425D01*
X014775Y010413D01*
X014815Y010397D01*
X014853Y010377D01*
X014889Y010354D01*
X014923Y010327D01*
X014955Y010298D01*
X014983Y010266D01*
X015009Y010231D01*
X015031Y010195D01*
X015050Y010156D01*
X015065Y010116D01*
X015077Y010075D01*
X015085Y010032D01*
X015089Y009989D01*
X015089Y009947D01*
X015085Y009904D01*
X015077Y009861D01*
X015065Y009820D01*
X015050Y009780D01*
X015031Y009741D01*
X015009Y009705D01*
X014983Y009670D01*
X014955Y009638D01*
X014923Y009609D01*
X014889Y009582D01*
X014853Y009559D01*
X014815Y009539D01*
X014775Y009523D01*
X014734Y009511D01*
X014692Y009502D01*
X014649Y009497D01*
X014606Y009496D01*
X014563Y009499D01*
X014521Y009506D01*
X014479Y009517D01*
X014439Y009531D01*
X014400Y009549D01*
X014363Y009570D01*
X014328Y009595D01*
X014295Y009623D01*
X014265Y009654D01*
X014238Y009687D01*
X014214Y009723D01*
X014193Y009760D01*
X014176Y009800D01*
X014163Y009841D01*
X014153Y009883D01*
X014147Y009925D01*
X014145Y009968D01*
X014026Y009968D02*
X014028Y010016D01*
X014034Y010064D01*
X014044Y010111D01*
X014057Y010157D01*
X014075Y010202D01*
X014095Y010246D01*
X014120Y010288D01*
X014148Y010327D01*
X014178Y010364D01*
X014212Y010398D01*
X014249Y010430D01*
X014287Y010459D01*
X014328Y010484D01*
X014371Y010506D01*
X014416Y010524D01*
X014462Y010538D01*
X014509Y010549D01*
X014557Y010556D01*
X014605Y010559D01*
X014653Y010558D01*
X014701Y010553D01*
X014749Y010544D01*
X014795Y010532D01*
X014840Y010515D01*
X014884Y010495D01*
X014926Y010472D01*
X014966Y010445D01*
X015004Y010415D01*
X015039Y010382D01*
X015071Y010346D01*
X015101Y010308D01*
X015127Y010267D01*
X015149Y010224D01*
X015169Y010180D01*
X015184Y010135D01*
X015196Y010088D01*
X015204Y010040D01*
X015208Y009992D01*
X015208Y009944D01*
X015204Y009896D01*
X015196Y009848D01*
X015184Y009801D01*
X015169Y009756D01*
X015149Y009712D01*
X015127Y009669D01*
X015101Y009628D01*
X015071Y009590D01*
X015039Y009554D01*
X015004Y009521D01*
X014966Y009491D01*
X014926Y009464D01*
X014884Y009441D01*
X014840Y009421D01*
X014795Y009404D01*
X014749Y009392D01*
X014701Y009383D01*
X014653Y009378D01*
X014605Y009377D01*
X014557Y009380D01*
X014509Y009387D01*
X014462Y009398D01*
X014416Y009412D01*
X014371Y009430D01*
X014328Y009452D01*
X014287Y009477D01*
X014249Y009506D01*
X014212Y009538D01*
X014178Y009572D01*
X014148Y009609D01*
X014120Y009648D01*
X014095Y009690D01*
X014075Y009734D01*
X014057Y009779D01*
X014044Y009825D01*
X014034Y009872D01*
X014028Y009920D01*
X014026Y009968D01*
X015575Y009574D02*
X015654Y009574D01*
X015575Y009574D02*
X015575Y010362D01*
X015654Y010362D01*
X016137Y010770D02*
X016212Y010694D01*
X016362Y010694D01*
X016437Y010770D01*
X016437Y010845D01*
X016362Y010920D01*
X016212Y010920D01*
X016137Y010995D01*
X016137Y011070D01*
X016212Y011145D01*
X016362Y011145D01*
X016437Y011070D01*
X016597Y011145D02*
X016822Y011145D01*
X016897Y011070D01*
X016897Y010920D01*
X016822Y010845D01*
X016597Y010845D01*
X016597Y010694D02*
X016597Y011145D01*
X017057Y010995D02*
X017208Y011145D01*
X017208Y010694D01*
X017358Y010694D02*
X017057Y010694D01*
X016883Y007720D02*
X016733Y007720D01*
X016657Y007645D01*
X016883Y007720D02*
X016958Y007645D01*
X016958Y007570D01*
X016657Y007269D01*
X016958Y007269D01*
X016497Y007269D02*
X016197Y007269D01*
X016347Y007269D02*
X016347Y007720D01*
X016197Y007570D01*
X016037Y007645D02*
X015962Y007720D01*
X015812Y007720D01*
X015737Y007645D01*
X015737Y007345D01*
X015812Y007269D01*
X015962Y007269D01*
X016037Y007345D01*
X019777Y007270D02*
X019852Y007194D01*
X020002Y007194D01*
X020077Y007270D01*
X020077Y007570D01*
X020002Y007645D01*
X019852Y007645D01*
X019777Y007570D01*
X019777Y007270D01*
X019927Y007345D02*
X020077Y007194D01*
X020237Y007194D02*
X020537Y007194D01*
X020387Y007194D02*
X020387Y007645D01*
X020237Y007495D01*
X021287Y009944D02*
X021287Y010395D01*
X021512Y010395D01*
X021587Y010320D01*
X021587Y010170D01*
X021512Y010095D01*
X021287Y010095D01*
X021437Y010095D02*
X021587Y009944D01*
X021747Y010020D02*
X021822Y009944D01*
X021972Y009944D01*
X022047Y010020D01*
X022047Y010095D01*
X021972Y010170D01*
X021897Y010170D01*
X021972Y010170D02*
X022047Y010245D01*
X022047Y010320D01*
X021972Y010395D01*
X021822Y010395D01*
X021747Y010320D01*
X019143Y014234D02*
X019143Y014685D01*
X018917Y014460D01*
X019218Y014460D01*
X018757Y014234D02*
X018457Y014234D01*
X018607Y014234D02*
X018607Y014685D01*
X018457Y014535D01*
X018297Y014610D02*
X018222Y014685D01*
X018072Y014685D01*
X017997Y014610D01*
X017997Y014310D01*
X018072Y014234D01*
X018222Y014234D01*
X018297Y014310D01*
X018327Y015094D02*
X018177Y015245D01*
X018327Y015170D02*
X018327Y015470D01*
X018252Y015545D01*
X018102Y015545D01*
X018027Y015470D01*
X018027Y015170D01*
X018102Y015094D01*
X018252Y015094D01*
X018327Y015170D01*
X018487Y015094D02*
X018787Y015395D01*
X018787Y015470D01*
X018712Y015545D01*
X018562Y015545D01*
X018487Y015470D01*
X018487Y015094D02*
X018787Y015094D01*
X020937Y016044D02*
X020937Y016495D01*
X021162Y016495D01*
X021237Y016420D01*
X021237Y016270D01*
X021162Y016195D01*
X020937Y016195D01*
X021087Y016195D02*
X021237Y016044D01*
X021397Y016044D02*
X021697Y016044D01*
X021547Y016044D02*
X021547Y016495D01*
X021397Y016345D01*
X021857Y016420D02*
X021857Y016120D01*
X022158Y016420D01*
X022158Y016120D01*
X022083Y016044D01*
X021933Y016044D01*
X021857Y016120D01*
X021857Y016420D02*
X021933Y016495D01*
X022083Y016495D01*
X022158Y016420D01*
X022924Y016124D02*
X022924Y015674D01*
X023225Y015674D01*
X023385Y015674D02*
X023685Y015974D01*
X023685Y016049D01*
X023610Y016124D01*
X023460Y016124D01*
X023385Y016049D01*
X023385Y015674D02*
X023685Y015674D01*
X026916Y015120D02*
X026916Y014669D01*
X027141Y014669D01*
X027216Y014745D01*
X027216Y015045D01*
X027141Y015120D01*
X026916Y015120D01*
X027376Y015045D02*
X027451Y015120D01*
X027601Y015120D01*
X027677Y015045D01*
X027677Y014970D01*
X027601Y014895D01*
X027677Y014820D01*
X027677Y014745D01*
X027601Y014669D01*
X027451Y014669D01*
X027376Y014745D01*
X027526Y014895D02*
X027601Y014895D01*
X033643Y013994D02*
X033643Y013561D01*
X033643Y013994D02*
X038643Y013994D01*
X038643Y011868D01*
X038643Y010687D01*
X037973Y010687D01*
X037777Y010687D01*
X037777Y011868D01*
X037973Y011868D01*
X037973Y010687D01*
X038643Y010687D02*
X038643Y008561D01*
X033643Y008561D01*
X033643Y008994D01*
X033690Y008412D02*
X033990Y007962D01*
X034151Y007962D02*
X034451Y007962D01*
X034301Y007962D02*
X034301Y008412D01*
X034151Y008262D01*
X033990Y008412D02*
X033690Y007962D01*
X032849Y007070D02*
X032849Y006695D01*
X032774Y006619D01*
X032624Y006619D01*
X032549Y006695D01*
X032549Y007070D01*
X032389Y006995D02*
X032314Y007070D01*
X032164Y007070D01*
X032089Y006995D01*
X032089Y006920D01*
X032164Y006845D01*
X032314Y006845D01*
X032389Y006770D01*
X032389Y006695D01*
X032314Y006619D01*
X032164Y006619D01*
X032089Y006695D01*
X031929Y006845D02*
X031853Y006770D01*
X031628Y006770D01*
X031628Y006619D02*
X031628Y007070D01*
X031853Y007070D01*
X031929Y006995D01*
X031929Y006845D01*
X032010Y006420D02*
X032160Y006420D01*
X032235Y006345D01*
X031935Y006045D01*
X032010Y005969D01*
X032160Y005969D01*
X032235Y006045D01*
X032235Y006345D01*
X032396Y006270D02*
X032546Y006420D01*
X032546Y005969D01*
X032396Y005969D02*
X032696Y005969D01*
X032856Y005969D02*
X032856Y006045D01*
X033156Y006345D01*
X033156Y006420D01*
X032856Y006420D01*
X033545Y006695D02*
X033545Y006995D01*
X033470Y006920D02*
X033620Y006920D01*
X033777Y006845D02*
X033777Y006695D01*
X033852Y006619D01*
X034002Y006619D01*
X034077Y006770D02*
X033777Y006770D01*
X033777Y006845D02*
X033852Y006920D01*
X034002Y006920D01*
X034077Y006845D01*
X034077Y006770D01*
X034237Y006845D02*
X034312Y006920D01*
X034537Y006920D01*
X034698Y006920D02*
X034848Y006920D01*
X034773Y006995D02*
X034773Y006695D01*
X034848Y006619D01*
X035004Y006695D02*
X035004Y006845D01*
X035080Y006920D01*
X035230Y006920D01*
X035305Y006845D01*
X035305Y006770D01*
X035004Y006770D01*
X035004Y006695D02*
X035080Y006619D01*
X035230Y006619D01*
X035156Y006420D02*
X035306Y006420D01*
X035381Y006345D01*
X035381Y006270D01*
X035306Y006195D01*
X035381Y006120D01*
X035381Y006045D01*
X035306Y005969D01*
X035156Y005969D01*
X035081Y006045D01*
X034921Y006045D02*
X034846Y005969D01*
X034621Y005969D01*
X034621Y006420D01*
X034846Y006420D01*
X034921Y006345D01*
X034921Y006270D01*
X034846Y006195D01*
X034621Y006195D01*
X034846Y006195D02*
X034921Y006120D01*
X034921Y006045D01*
X035081Y006345D02*
X035156Y006420D01*
X035231Y006195D02*
X035306Y006195D01*
X035542Y006420D02*
X035692Y006270D01*
X035692Y006120D01*
X035542Y005969D01*
X035465Y006619D02*
X035465Y006920D01*
X035615Y006920D02*
X035690Y006920D01*
X035615Y006920D02*
X035465Y006770D01*
X034537Y006695D02*
X034462Y006770D01*
X034312Y006770D01*
X034237Y006845D01*
X034237Y006619D02*
X034462Y006619D01*
X034537Y006695D01*
X034311Y006420D02*
X034160Y006270D01*
X034002Y006270D02*
X033927Y006270D01*
X033777Y006120D01*
X033777Y006270D02*
X033777Y005969D01*
X034160Y005969D02*
X034461Y005969D01*
X034311Y005969D02*
X034311Y006420D01*
X033620Y006619D02*
X033545Y006695D01*
X032010Y006420D02*
X031935Y006345D01*
X031935Y006045D01*
X031775Y005969D02*
X031475Y005969D01*
X031775Y006270D01*
X031775Y006345D01*
X031700Y006420D01*
X031550Y006420D01*
X031475Y006345D01*
X031315Y006420D02*
X031014Y005969D01*
X030854Y005969D02*
X030554Y005969D01*
X030854Y006270D01*
X030854Y006345D01*
X030779Y006420D01*
X030629Y006420D01*
X030554Y006345D01*
X030394Y006345D02*
X030319Y006420D01*
X030169Y006420D01*
X030094Y006345D01*
X030094Y006045D01*
X030394Y006345D01*
X030394Y006045D01*
X030319Y005969D01*
X030169Y005969D01*
X030094Y006045D01*
X029937Y005969D02*
X029787Y006120D01*
X029787Y006270D01*
X029937Y006420D01*
X029787Y006619D02*
X030087Y006619D01*
X030247Y006619D02*
X030547Y006619D01*
X030707Y006619D02*
X031008Y006619D01*
X030707Y006619D02*
X030707Y006695D01*
X031008Y006995D01*
X031008Y007070D01*
X030707Y007070D01*
X030547Y007070D02*
X030247Y007070D01*
X030247Y006619D01*
X030247Y006845D02*
X030397Y006845D01*
X030087Y007070D02*
X029787Y007070D01*
X029787Y006619D01*
X029787Y006845D02*
X029937Y006845D01*
X030237Y007994D02*
X030537Y007994D01*
X030697Y007994D02*
X030997Y007994D01*
X030847Y007994D02*
X030847Y008445D01*
X030697Y008295D01*
X030237Y008445D02*
X030237Y007994D01*
X028839Y009354D02*
X028539Y009354D01*
X028839Y009655D01*
X028839Y009730D01*
X028764Y009805D01*
X028614Y009805D01*
X028539Y009730D01*
X028379Y009730D02*
X028304Y009805D01*
X028154Y009805D01*
X028079Y009730D01*
X028079Y009430D01*
X028154Y009354D01*
X028304Y009354D01*
X028379Y009430D01*
X027922Y009354D02*
X027772Y009354D01*
X027847Y009354D02*
X027847Y009805D01*
X027772Y009805D02*
X027922Y009805D01*
X034987Y014206D02*
X034987Y014656D01*
X035137Y014506D01*
X035287Y014656D01*
X035287Y014206D01*
X035447Y014281D02*
X035522Y014356D01*
X035747Y014356D01*
X035747Y014431D02*
X035747Y014206D01*
X035522Y014206D01*
X035447Y014281D01*
X035522Y014506D02*
X035672Y014506D01*
X035747Y014431D01*
X035907Y014506D02*
X036208Y014206D01*
X036368Y014206D02*
X036443Y014206D01*
X036443Y014281D01*
X036368Y014281D01*
X036368Y014206D01*
X036208Y014506D02*
X035907Y014206D01*
X035887Y014881D02*
X035662Y014881D01*
X035662Y015331D01*
X035887Y015331D01*
X035962Y015256D01*
X035962Y014956D01*
X035887Y014881D01*
X036122Y014956D02*
X036197Y014881D01*
X036347Y014881D01*
X036422Y014956D01*
X036122Y014956D02*
X036122Y015256D01*
X036197Y015331D01*
X036347Y015331D01*
X036422Y015256D01*
X036415Y015588D02*
X036715Y016039D01*
X036875Y015964D02*
X036950Y016039D01*
X037100Y016039D01*
X037175Y015964D01*
X037175Y015888D01*
X036875Y015588D01*
X037175Y015588D01*
X037118Y015406D02*
X037118Y015331D01*
X037118Y015181D02*
X037118Y014881D01*
X037043Y014881D02*
X037193Y014881D01*
X037350Y014881D02*
X037350Y015181D01*
X037575Y015181D01*
X037650Y015106D01*
X037650Y014881D01*
X037519Y014656D02*
X037519Y014431D01*
X037669Y014506D01*
X037744Y014506D01*
X037819Y014431D01*
X037819Y014281D01*
X037744Y014206D01*
X037594Y014206D01*
X037519Y014281D01*
X037359Y014281D02*
X037284Y014206D01*
X037134Y014206D01*
X037058Y014281D01*
X037058Y014431D02*
X037209Y014506D01*
X037284Y014506D01*
X037359Y014431D01*
X037359Y014281D01*
X037058Y014431D02*
X037058Y014656D01*
X037359Y014656D01*
X037519Y014656D02*
X037819Y014656D01*
X037979Y014656D02*
X037979Y014356D01*
X038129Y014206D01*
X038279Y014356D01*
X038279Y014656D01*
X037118Y015181D02*
X037043Y015181D01*
X036715Y015588D02*
X036415Y016039D01*
X035212Y016163D02*
X035212Y018329D01*
X038558Y018329D01*
X038558Y016163D01*
X038021Y016163D01*
X038021Y022463D01*
X038558Y022463D01*
X038558Y020297D01*
X035212Y020297D01*
X035212Y022463D01*
X038021Y022463D01*
X038558Y020297D02*
X038558Y018329D01*
X038287Y017481D02*
X038287Y017181D01*
X038137Y017331D02*
X038437Y017331D01*
X038021Y016163D02*
X035212Y016163D01*
X035212Y018329D02*
X035212Y020297D01*
X036517Y026099D02*
X036667Y026099D01*
X036742Y026175D01*
X036902Y026099D02*
X037202Y026099D01*
X037052Y026099D02*
X037052Y026550D01*
X036902Y026400D01*
X036742Y026475D02*
X036667Y026550D01*
X036517Y026550D01*
X036442Y026475D01*
X036442Y026175D01*
X036517Y026099D01*
X036225Y031613D02*
X036075Y031613D01*
X036000Y031688D01*
X036000Y031838D02*
X036150Y031913D01*
X036225Y031913D01*
X036300Y031838D01*
X036300Y031688D01*
X036225Y031613D01*
X036000Y031838D02*
X036000Y032064D01*
X036300Y032064D01*
X035840Y032064D02*
X035540Y031613D01*
X035368Y031570D02*
X033202Y031570D01*
X033202Y034916D01*
X035368Y034916D01*
X035368Y034379D01*
X029069Y034379D01*
X029069Y034916D01*
X031234Y034916D01*
X031234Y031570D01*
X029069Y031570D01*
X029069Y034379D01*
X028193Y034354D02*
X017957Y034354D01*
X017957Y034916D01*
X020122Y034916D01*
X020122Y031570D01*
X022090Y031570D02*
X022090Y034916D01*
X024059Y034916D01*
X024059Y031570D01*
X022090Y031570D01*
X017957Y031570D01*
X017957Y034354D01*
X017793Y033558D02*
X017343Y033558D01*
X017568Y033333D01*
X017568Y033633D01*
X017793Y033173D02*
X017343Y032873D01*
X017343Y033173D02*
X017793Y032873D01*
X020122Y034916D02*
X022090Y034916D01*
X024059Y034916D02*
X026027Y034916D01*
X026027Y031570D01*
X024059Y031570D01*
X026027Y031570D02*
X028193Y031570D01*
X028193Y034354D01*
X028193Y034916D01*
X026027Y034916D01*
X031234Y034916D02*
X033202Y034916D01*
X035368Y034379D02*
X035368Y031570D01*
X035840Y031613D02*
X035540Y032064D01*
X033202Y031570D02*
X031234Y031570D01*
X028139Y026139D02*
X027989Y026139D01*
X027914Y026064D01*
X027754Y026064D02*
X027679Y026139D01*
X027454Y026139D01*
X027454Y025688D01*
X027679Y025688D01*
X027754Y025763D01*
X027754Y026064D01*
X028139Y026139D02*
X028214Y026064D01*
X028214Y025988D01*
X027914Y025688D01*
X028214Y025688D01*
X026312Y025695D02*
X026312Y025620D01*
X026237Y025544D01*
X026087Y025544D01*
X026012Y025620D01*
X025852Y025620D02*
X025777Y025544D01*
X025627Y025544D01*
X025552Y025620D01*
X025552Y025920D01*
X025627Y025995D01*
X025777Y025995D01*
X025852Y025920D01*
X025852Y025620D01*
X025852Y025544D02*
X025702Y025695D01*
X026012Y025920D02*
X026087Y025995D01*
X026237Y025995D01*
X026312Y025920D01*
X026312Y025845D01*
X026237Y025770D01*
X026312Y025695D01*
X026237Y025770D02*
X026162Y025770D01*
X025551Y023945D02*
X025551Y023494D01*
X025401Y023494D02*
X025702Y023494D01*
X025401Y023795D02*
X025551Y023945D01*
X025091Y023945D02*
X025091Y023494D01*
X024941Y023494D02*
X025241Y023494D01*
X024941Y023795D02*
X025091Y023945D01*
X024781Y023870D02*
X024781Y023720D01*
X024706Y023645D01*
X024480Y023645D01*
X024480Y023494D02*
X024480Y023945D01*
X024706Y023945D01*
X024781Y023870D01*
X024631Y023645D02*
X024781Y023494D01*
X019014Y019139D02*
X018864Y018988D01*
X018704Y019064D02*
X018704Y018763D01*
X018629Y018688D01*
X018404Y018688D01*
X018404Y019139D01*
X018629Y019139D01*
X018704Y019064D01*
X019014Y019139D02*
X019014Y018688D01*
X018864Y018688D02*
X019164Y018688D01*
X017622Y018930D02*
X017622Y019230D01*
X017547Y019305D01*
X017397Y019305D01*
X017322Y019230D01*
X017322Y019155D01*
X017397Y019080D01*
X017622Y019080D01*
X017622Y018930D02*
X017547Y018854D01*
X017397Y018854D01*
X017322Y018930D01*
X017162Y018854D02*
X017012Y019005D01*
X017087Y019005D02*
X016862Y019005D01*
X016862Y018854D02*
X016862Y019305D01*
X017087Y019305D01*
X017162Y019230D01*
X017162Y019080D01*
X017087Y019005D01*
X017162Y021204D02*
X017012Y021355D01*
X017087Y021355D02*
X016862Y021355D01*
X016862Y021204D02*
X016862Y021655D01*
X017087Y021655D01*
X017162Y021580D01*
X017162Y021430D01*
X017087Y021355D01*
X017322Y021430D02*
X017322Y021655D01*
X017622Y021655D01*
X017547Y021505D02*
X017622Y021430D01*
X017622Y021280D01*
X017547Y021204D01*
X017397Y021204D01*
X017322Y021280D01*
X017322Y021430D02*
X017472Y021505D01*
X017547Y021505D01*
X017494Y022694D02*
X017194Y022694D01*
X017344Y022694D02*
X017344Y023145D01*
X017194Y022995D01*
X017034Y023070D02*
X016959Y023145D01*
X016809Y023145D01*
X016734Y023070D01*
X016734Y022770D01*
X016809Y022694D01*
X016959Y022694D01*
X017034Y022770D01*
X016577Y022694D02*
X016427Y022694D01*
X016502Y022694D02*
X016502Y023145D01*
X016427Y023145D02*
X016577Y023145D01*
X010462Y026619D02*
X008762Y026619D01*
X008762Y028319D01*
X010462Y028319D01*
X010462Y026619D01*
X010255Y026852D02*
X010279Y026876D01*
X010297Y026904D01*
X010308Y026936D01*
X010312Y026969D01*
X010308Y027003D01*
X010297Y027035D01*
X010279Y027063D01*
X010255Y027087D01*
X010227Y027105D01*
X010195Y027116D01*
X010162Y027119D01*
X010128Y027116D01*
X010097Y027105D01*
X010068Y027087D01*
X010044Y027063D01*
X010027Y027035D01*
X010015Y027003D01*
X010012Y026969D01*
X010015Y026936D01*
X010027Y026904D01*
X010044Y026876D01*
X010068Y026852D01*
X010097Y026834D01*
X010128Y026823D01*
X010162Y026819D01*
X010195Y026823D01*
X010227Y026834D01*
X010255Y026852D01*
X010282Y026881D02*
X010041Y026881D01*
X010018Y026929D02*
X010305Y026929D01*
X010311Y026978D02*
X010013Y026978D01*
X010024Y027026D02*
X010300Y027026D01*
X010267Y027075D02*
X010056Y027075D01*
X010103Y026832D02*
X010220Y026832D01*
X011212Y031094D02*
X011512Y031545D01*
X011672Y031320D02*
X011822Y031470D01*
X011972Y031545D01*
X011897Y031320D02*
X011672Y031320D01*
X011672Y031170D01*
X011747Y031094D01*
X011897Y031094D01*
X011972Y031170D01*
X011972Y031245D01*
X011897Y031320D01*
X011512Y031094D02*
X011212Y031545D01*
X014737Y034569D02*
X015237Y034569D01*
X014987Y034319D01*
X014737Y034569D01*
X014762Y034544D02*
X015211Y034544D01*
X015162Y034495D02*
X014811Y034495D01*
X014859Y034447D02*
X015114Y034447D01*
X015065Y034398D02*
X014908Y034398D01*
X014956Y034350D02*
X015017Y034350D01*
X010712Y016894D02*
X009212Y016894D01*
X009212Y015894D02*
X010712Y015894D01*
X010712Y014894D02*
X009212Y014894D01*
X009212Y013894D02*
X010712Y013894D01*
X012392Y014250D02*
X012467Y014174D01*
X012617Y014174D01*
X012692Y014250D01*
X012852Y014400D02*
X013077Y014625D01*
X013077Y014174D01*
X013152Y014400D02*
X012852Y014400D01*
X012692Y014550D02*
X012617Y014625D01*
X012467Y014625D01*
X012392Y014550D01*
X012392Y014250D01*
X037973Y011868D02*
X038643Y011868D01*
D12*
X026525Y028580D03*
D13*
X026236Y028009D03*
X027057Y028096D03*
X027375Y028025D03*
D14*
X026236Y028010D03*
D15*
X026236Y028012D03*
D16*
X026236Y028013D03*
D17*
X026236Y028015D03*
X026245Y029453D03*
D18*
X026236Y028016D03*
X027061Y028105D03*
D19*
X027063Y028106D03*
X026236Y028018D03*
D20*
X026236Y028019D03*
D21*
X026236Y028021D03*
D22*
X026236Y028022D03*
X027375Y028039D03*
D23*
X026237Y028024D03*
D24*
X026238Y028025D03*
X026539Y028106D03*
X027070Y028115D03*
D25*
X027072Y028117D03*
X027373Y028045D03*
X026238Y028027D03*
D26*
X027056Y028099D03*
X027375Y028027D03*
D27*
X027373Y028046D03*
X026536Y028111D03*
X026238Y028028D03*
D28*
X027375Y028028D03*
D29*
X027075Y028121D03*
X026535Y028112D03*
X026238Y028030D03*
D30*
X027375Y028030D03*
D31*
X026238Y028031D03*
D32*
X027059Y028103D03*
X027375Y028031D03*
D33*
X026533Y028114D03*
X026238Y028033D03*
D34*
X026549Y028096D03*
X027375Y028033D03*
X027338Y029458D03*
D35*
X026238Y028034D03*
D36*
X027375Y028034D03*
D37*
X027372Y028054D03*
X026239Y028036D03*
D38*
X026239Y028037D03*
X026527Y028121D03*
X027080Y028129D03*
X026248Y029428D03*
D39*
X026247Y029446D03*
X027374Y028037D03*
D40*
X027372Y028057D03*
X026525Y028123D03*
X026239Y028039D03*
X027335Y029434D03*
X026778Y029645D03*
D41*
X026240Y028040D03*
D42*
X027375Y028040D03*
D43*
X027371Y028058D03*
X027083Y028133D03*
X026240Y028042D03*
X027335Y029432D03*
D44*
X027375Y028042D03*
D45*
X026241Y028043D03*
D46*
X027374Y028043D03*
X026247Y029441D03*
D47*
X027335Y029428D03*
X027086Y028136D03*
X026240Y028045D03*
D48*
X026241Y028046D03*
D49*
X026241Y028048D03*
X026519Y028132D03*
X027089Y028142D03*
X027333Y029425D03*
D50*
X027336Y029443D03*
X027372Y028048D03*
D51*
X026241Y028049D03*
D52*
X027372Y028049D03*
D53*
X026241Y028051D03*
X026250Y029416D03*
X027333Y029423D03*
D54*
X027336Y029440D03*
X027372Y028051D03*
D55*
X026241Y028052D03*
D56*
X026531Y028115D03*
X027372Y028052D03*
X027336Y029438D03*
D57*
X027094Y028148D03*
X026242Y028054D03*
D58*
X026242Y028055D03*
X026512Y028141D03*
X027369Y028075D03*
D59*
X027371Y028055D03*
X026528Y028120D03*
D60*
X026242Y028057D03*
D61*
X026243Y028058D03*
D62*
X026243Y028060D03*
X027098Y028157D03*
D63*
X027370Y028060D03*
D64*
X026243Y028061D03*
X026252Y029405D03*
X027332Y029413D03*
D65*
X027335Y029431D03*
X026249Y029425D03*
X027371Y028061D03*
D66*
X026243Y028063D03*
D67*
X027370Y028063D03*
D68*
X026244Y028064D03*
D69*
X027370Y028064D03*
D70*
X026244Y028066D03*
D71*
X027370Y028066D03*
D72*
X026244Y028067D03*
D73*
X026519Y028133D03*
X027090Y028144D03*
X027369Y028067D03*
D74*
X026244Y028069D03*
D75*
X027369Y028069D03*
D76*
X027366Y028090D03*
X026245Y028070D03*
D77*
X027369Y028070D03*
D78*
X026245Y028072D03*
D79*
X026515Y028136D03*
X027369Y028072D03*
D80*
X026244Y028073D03*
X027330Y029401D03*
D81*
X027333Y029419D03*
X027368Y028073D03*
X026514Y028138D03*
D82*
X026246Y028075D03*
D83*
X026247Y028076D03*
X026254Y029389D03*
D84*
X027368Y028076D03*
D85*
X027364Y028099D03*
X026247Y028078D03*
X026254Y029387D03*
X026796Y029642D03*
D86*
X027097Y028156D03*
X027367Y028078D03*
D87*
X026247Y028079D03*
D88*
X027367Y028079D03*
D89*
X026247Y028081D03*
X026254Y029386D03*
D90*
X027367Y028081D03*
D91*
X027363Y028103D03*
X026247Y028082D03*
X027329Y029392D03*
D92*
X027332Y029411D03*
X027366Y028082D03*
D93*
X026247Y028084D03*
X026255Y029383D03*
D94*
X027367Y028084D03*
D95*
X026248Y028085D03*
D96*
X027366Y028085D03*
D97*
X027362Y028108D03*
X026249Y028087D03*
D98*
X027366Y028087D03*
D99*
X026249Y028088D03*
D100*
X026554Y028088D03*
D101*
X027366Y028088D03*
D102*
X026249Y028090D03*
D103*
X026554Y028090D03*
D104*
X026249Y028091D03*
X026256Y029375D03*
X026797Y029638D03*
D105*
X026554Y028091D03*
D106*
X027365Y028091D03*
D107*
X027360Y028114D03*
X026250Y028093D03*
D108*
X026552Y028093D03*
D109*
X027365Y028093D03*
X026253Y029395D03*
D110*
X026250Y028094D03*
D111*
X026550Y028094D03*
D112*
X027365Y028094D03*
X027330Y029399D03*
D113*
X027360Y028118D03*
X026251Y028096D03*
D114*
X027365Y028096D03*
D115*
X027360Y028120D03*
X026251Y028097D03*
X027325Y029375D03*
D116*
X026246Y029452D03*
X026547Y028097D03*
D117*
X027056Y028097D03*
X026246Y029456D03*
D118*
X027365Y028097D03*
D119*
X027359Y028121D03*
X026252Y028099D03*
X026796Y029630D03*
D120*
X026547Y028099D03*
D121*
X026252Y028100D03*
X027359Y028123D03*
D122*
X026547Y028100D03*
D123*
X027057Y028100D03*
D124*
X027364Y028100D03*
X027329Y029395D03*
D125*
X026253Y028102D03*
D126*
X026545Y028102D03*
X027064Y028108D03*
D127*
X027057Y028102D03*
D128*
X027363Y028102D03*
X027329Y029393D03*
D129*
X027324Y029371D03*
X026796Y029605D03*
X026796Y029606D03*
X026796Y029608D03*
X026796Y029611D03*
X026253Y028103D03*
D130*
X026544Y028103D03*
X027065Y028111D03*
X027338Y029452D03*
D131*
X027323Y029368D03*
X026796Y029597D03*
X027357Y028127D03*
X026253Y028105D03*
D132*
X026541Y028105D03*
X027068Y028114D03*
D133*
X027363Y028105D03*
X027328Y029389D03*
D134*
X026254Y028106D03*
D135*
X027362Y028106D03*
X027327Y029387D03*
X026255Y029380D03*
D136*
X026261Y029356D03*
X026795Y029576D03*
X026795Y029578D03*
X027356Y028132D03*
X026255Y028108D03*
D137*
X026538Y028108D03*
X026247Y029440D03*
D138*
X026795Y029564D03*
X026255Y028109D03*
D139*
X026537Y028109D03*
D140*
X027065Y028109D03*
D141*
X027362Y028109D03*
D142*
X026255Y028111D03*
X026795Y029554D03*
X026795Y029555D03*
X026795Y029557D03*
X026795Y029558D03*
X026795Y029560D03*
D143*
X027361Y028111D03*
D144*
X026255Y028112D03*
X026795Y029546D03*
D145*
X027066Y028112D03*
D146*
X027361Y028112D03*
D147*
X026256Y028114D03*
X026262Y029353D03*
X027321Y029360D03*
D148*
X026795Y029530D03*
X026795Y029531D03*
X026262Y029350D03*
X026256Y028115D03*
D149*
X027360Y028115D03*
D150*
X027354Y028141D03*
X026256Y028117D03*
X026262Y029347D03*
X026795Y029509D03*
X026795Y029510D03*
X026795Y029512D03*
X026795Y029513D03*
X026795Y029515D03*
X026795Y029516D03*
X026795Y029518D03*
X027320Y029356D03*
D151*
X026529Y028117D03*
D152*
X027360Y028117D03*
D153*
X027354Y028142D03*
X026257Y028118D03*
D154*
X026528Y028118D03*
D155*
X027072Y028118D03*
X026247Y029438D03*
D156*
X026257Y028120D03*
D157*
X027074Y028120D03*
D158*
X026258Y028121D03*
D159*
X026258Y028123D03*
X026793Y029473D03*
X026793Y029476D03*
X026793Y029477D03*
X027318Y029351D03*
D160*
X027336Y029441D03*
X026247Y029435D03*
X027075Y028123D03*
D161*
X026259Y028124D03*
D162*
X026524Y028124D03*
D163*
X027077Y028124D03*
D164*
X027358Y028124D03*
D165*
X026259Y028126D03*
X026795Y029449D03*
X026795Y029450D03*
X026795Y029452D03*
D166*
X026249Y029423D03*
X026522Y028126D03*
X027084Y028135D03*
D167*
X027079Y028126D03*
X026248Y029432D03*
D168*
X026796Y029603D03*
X027357Y028126D03*
D169*
X027351Y028153D03*
X026260Y028127D03*
X026794Y029432D03*
X026794Y029434D03*
X026794Y029435D03*
X026794Y029437D03*
X026794Y029438D03*
D170*
X026521Y028127D03*
D171*
X027080Y028127D03*
X026247Y029431D03*
D172*
X026793Y029426D03*
X026793Y029425D03*
X026260Y028129D03*
D173*
X026521Y028129D03*
X026250Y029420D03*
X027334Y029426D03*
D174*
X027322Y029366D03*
X026796Y029587D03*
X026796Y029588D03*
X026796Y029590D03*
X026260Y029359D03*
X027357Y028129D03*
D175*
X026260Y028130D03*
D176*
X026520Y028130D03*
D177*
X027081Y028130D03*
D178*
X027357Y028130D03*
X026795Y029581D03*
X026795Y029582D03*
X026795Y029584D03*
D179*
X026261Y028132D03*
D180*
X027081Y028132D03*
D181*
X026261Y028133D03*
D182*
X027356Y028133D03*
X026795Y029561D03*
X026795Y029563D03*
X026795Y029566D03*
X026795Y029567D03*
D183*
X026794Y029398D03*
X026262Y028135D03*
D184*
X026517Y028135D03*
X027091Y028145D03*
D185*
X027355Y028135D03*
D186*
X026262Y028136D03*
X026267Y029327D03*
D187*
X026795Y029536D03*
X026795Y029537D03*
X027354Y028136D03*
D188*
X026262Y028138D03*
X026795Y029395D03*
D189*
X027087Y028138D03*
D190*
X027354Y028138D03*
X027321Y029357D03*
X026794Y029527D03*
X026794Y029528D03*
D191*
X026262Y028139D03*
D192*
X026514Y028139D03*
D193*
X027087Y028139D03*
D194*
X027354Y028139D03*
X026794Y029519D03*
D195*
X026262Y028141D03*
D196*
X027088Y028141D03*
X026250Y029419D03*
D197*
X026353Y028582D03*
X026377Y028555D03*
X026374Y028247D03*
X026335Y028142D03*
X027207Y028316D03*
X027208Y028313D03*
X027268Y028160D03*
D198*
X027216Y028298D03*
X027215Y028301D03*
X027215Y028303D03*
X027213Y028306D03*
X027209Y028549D03*
X027207Y028925D03*
X027206Y028927D03*
X027204Y028928D03*
X026352Y028892D03*
X026378Y028553D03*
X026379Y028552D03*
X026369Y028240D03*
X026367Y028237D03*
X026366Y028234D03*
X026334Y028144D03*
D199*
X027353Y028144D03*
D200*
X027269Y028163D03*
X027218Y028295D03*
X027165Y028435D03*
X027203Y028931D03*
X026387Y028930D03*
X026381Y028549D03*
X026382Y028547D03*
X026432Y028418D03*
X026432Y028417D03*
X026364Y028231D03*
X026334Y028145D03*
D201*
X027352Y028145D03*
X026794Y029479D03*
D202*
X026389Y028933D03*
X026388Y028931D03*
X026349Y028583D03*
X026362Y028228D03*
X026362Y028226D03*
X026334Y028147D03*
X027164Y028436D03*
X027219Y028294D03*
X027220Y028292D03*
X027269Y028165D03*
X027201Y028933D03*
D203*
X027093Y028147D03*
D204*
X027350Y028147D03*
X026265Y029342D03*
D205*
X026349Y028891D03*
X026384Y028546D03*
X026361Y028225D03*
X026360Y028222D03*
X026333Y028148D03*
X027221Y028291D03*
X027222Y028288D03*
X027222Y028286D03*
X027224Y028285D03*
D206*
X027350Y028148D03*
X027318Y029348D03*
X026794Y029464D03*
X026794Y029465D03*
X026794Y029467D03*
X026265Y029341D03*
D207*
X026391Y028937D03*
X026333Y028151D03*
X026333Y028150D03*
X027231Y028271D03*
X027201Y028540D03*
D208*
X027094Y028150D03*
D209*
X027351Y028150D03*
D210*
X027095Y028151D03*
X027333Y029417D03*
D211*
X026794Y029440D03*
X026794Y029441D03*
X026794Y029443D03*
X026794Y029446D03*
X026794Y029447D03*
X027351Y028151D03*
D212*
X027234Y028265D03*
X027233Y028267D03*
X026351Y028207D03*
X026351Y028205D03*
X026349Y028204D03*
X026333Y028153D03*
X026393Y028939D03*
X026394Y028940D03*
D213*
X027095Y028153D03*
D214*
X026333Y028154D03*
D215*
X027096Y028154D03*
D216*
X027350Y028154D03*
D217*
X026348Y028201D03*
X026333Y028157D03*
X026333Y028156D03*
D218*
X027349Y028156D03*
X027316Y029342D03*
X026793Y029408D03*
X026793Y029410D03*
X026793Y029411D03*
X026793Y029413D03*
D219*
X026793Y029402D03*
X026266Y029332D03*
X027348Y028157D03*
D220*
X026334Y028159D03*
X026394Y028534D03*
D221*
X027099Y028159D03*
D222*
X027347Y028159D03*
X027315Y029338D03*
X026267Y029329D03*
D223*
X027189Y028946D03*
X027195Y028531D03*
X027165Y028453D03*
X027165Y028451D03*
X027165Y028450D03*
X027165Y028448D03*
X027245Y028247D03*
X027245Y028246D03*
X027246Y028243D03*
X026430Y028438D03*
X026394Y028532D03*
X026345Y028195D03*
X026345Y028193D03*
X026343Y028192D03*
X026343Y028190D03*
X026333Y028162D03*
X026333Y028160D03*
D224*
X026365Y028232D03*
X026367Y028235D03*
X026368Y028238D03*
X026380Y028550D03*
X027164Y028433D03*
X027207Y028546D03*
X027208Y028547D03*
X027216Y028300D03*
X027217Y028297D03*
X027268Y028162D03*
X027214Y028921D03*
X027204Y028930D03*
X026794Y029368D03*
D225*
X026334Y028166D03*
X026334Y028165D03*
X026334Y028163D03*
D226*
X026431Y028423D03*
X026431Y028426D03*
X027225Y028283D03*
X027226Y028282D03*
X027228Y028280D03*
X027228Y028279D03*
X027270Y028166D03*
D227*
X027249Y028237D03*
X027248Y028238D03*
X027188Y028948D03*
X026334Y028174D03*
X026334Y028172D03*
X026334Y028171D03*
X026334Y028168D03*
D228*
X026357Y028216D03*
X026358Y028217D03*
X026430Y028427D03*
X026430Y028429D03*
X026387Y028543D03*
X027228Y028277D03*
X027270Y028168D03*
D229*
X026334Y028169D03*
D230*
X027165Y028439D03*
X027270Y028169D03*
D231*
X027271Y028171D03*
X027198Y028937D03*
X027196Y028939D03*
X026794Y029366D03*
X026388Y028541D03*
X026389Y028540D03*
X026389Y028538D03*
X026431Y028430D03*
X026355Y028213D03*
D232*
X026354Y028211D03*
X026352Y028210D03*
X026430Y028432D03*
X026430Y028433D03*
X027165Y028441D03*
X027165Y028442D03*
X027198Y028535D03*
X027200Y028537D03*
X027270Y028172D03*
X027195Y028940D03*
D233*
X027195Y028942D03*
X027193Y028943D03*
X027225Y028916D03*
X027237Y028261D03*
X027238Y028258D03*
X027240Y028256D03*
X027271Y028174D03*
X026390Y028537D03*
D234*
X026397Y028528D03*
X026430Y028441D03*
X026340Y028186D03*
X026337Y028181D03*
X026336Y028178D03*
X026336Y028177D03*
X026336Y028175D03*
X027165Y028456D03*
X027165Y028457D03*
X026400Y028946D03*
D235*
X026398Y028945D03*
X026341Y028888D03*
X026345Y028196D03*
X027243Y028250D03*
X027243Y028252D03*
X027244Y028249D03*
X027273Y028175D03*
X027196Y028532D03*
X027265Y028606D03*
X027192Y028945D03*
D236*
X027193Y028528D03*
X027247Y028241D03*
X027247Y028240D03*
X027273Y028178D03*
X027273Y028177D03*
X026343Y028189D03*
X026341Y028187D03*
X026395Y028531D03*
D237*
X026398Y028526D03*
X026338Y028183D03*
X026337Y028180D03*
X027166Y028459D03*
X027192Y028526D03*
X027252Y028234D03*
X027253Y028231D03*
X027255Y028228D03*
X027256Y028226D03*
X027273Y028180D03*
X027185Y028951D03*
X027184Y028952D03*
X026794Y029365D03*
X026403Y028948D03*
D238*
X026405Y028951D03*
X026430Y028444D03*
X026430Y028442D03*
X027165Y028460D03*
X027252Y028232D03*
X027257Y028225D03*
X027272Y028183D03*
X027272Y028181D03*
D239*
X026430Y028439D03*
X026396Y028529D03*
X026339Y028184D03*
X027186Y028949D03*
D240*
X027272Y028184D03*
D241*
X027272Y028186D03*
X027272Y028187D03*
X026430Y028447D03*
X026430Y028448D03*
X026400Y028525D03*
D242*
X026430Y028451D03*
X026430Y028450D03*
X027166Y028463D03*
X027271Y028607D03*
X027271Y028193D03*
X027271Y028192D03*
X027271Y028190D03*
X027271Y028189D03*
D243*
X027270Y028195D03*
X027270Y028196D03*
X027270Y028198D03*
X027165Y028465D03*
X027180Y028955D03*
X026402Y028523D03*
X026430Y028453D03*
D244*
X026430Y028436D03*
X026430Y028435D03*
X026342Y028585D03*
X026346Y028198D03*
X027165Y028444D03*
X027165Y028445D03*
X027165Y028447D03*
X027197Y028534D03*
X027236Y028262D03*
X027240Y028255D03*
X027242Y028253D03*
X026396Y028943D03*
D245*
X026347Y028199D03*
D246*
X027270Y028199D03*
D247*
X027269Y028201D03*
X027269Y028202D03*
X027267Y028204D03*
X027267Y028205D03*
X027266Y028207D03*
X027264Y028208D03*
X027263Y028211D03*
X027186Y028522D03*
X027188Y028523D03*
X026409Y028955D03*
D248*
X026395Y028942D03*
X026392Y028535D03*
X026349Y028202D03*
X027235Y028264D03*
D249*
X027232Y028268D03*
X027232Y028270D03*
X027231Y028273D03*
X027201Y028538D03*
X026352Y028208D03*
D250*
X027261Y028216D03*
X027262Y028213D03*
X027264Y028210D03*
D251*
X026356Y028214D03*
D252*
X027261Y028214D03*
D253*
X027260Y028217D03*
X027260Y028219D03*
X027233Y028915D03*
X026408Y028954D03*
X026334Y028586D03*
D254*
X026391Y028936D03*
X026361Y028223D03*
X026359Y028220D03*
X026359Y028219D03*
X027229Y028276D03*
X027202Y028541D03*
X027204Y028543D03*
X027220Y028918D03*
X027199Y028936D03*
D255*
X027183Y028954D03*
X027166Y028462D03*
X027258Y028223D03*
X027259Y028222D03*
X027259Y028220D03*
X026430Y028445D03*
D256*
X026364Y028229D03*
X027257Y028604D03*
X027216Y028919D03*
D257*
X027255Y028229D03*
D258*
X027250Y028235D03*
D259*
X027165Y028430D03*
X027165Y028432D03*
X027210Y028550D03*
X026432Y028415D03*
X026370Y028241D03*
X026385Y028927D03*
D260*
X026385Y028925D03*
X026433Y028414D03*
X026371Y028243D03*
X027165Y028427D03*
X027165Y028429D03*
X027210Y028312D03*
X027210Y028310D03*
X027211Y028309D03*
X027213Y028307D03*
X027211Y028552D03*
X027213Y028553D03*
X027211Y028922D03*
X027210Y028924D03*
D261*
X026373Y028244D03*
D262*
X027166Y028454D03*
X027195Y028529D03*
X027245Y028244D03*
D263*
X027165Y028426D03*
X027213Y028555D03*
X026373Y028246D03*
D264*
X026375Y028249D03*
X026375Y028250D03*
X026376Y028253D03*
X026376Y028556D03*
X026382Y028924D03*
X027204Y028321D03*
X027206Y028318D03*
X027207Y028315D03*
D265*
X027204Y028322D03*
X027204Y028324D03*
X026377Y028255D03*
X026376Y028252D03*
X026376Y028558D03*
X026382Y028922D03*
D266*
X026379Y028918D03*
X026379Y028256D03*
X027202Y028325D03*
D267*
X027218Y028561D03*
X026379Y028258D03*
X026378Y028916D03*
D268*
X026379Y028259D03*
D269*
X027237Y028259D03*
D270*
X027201Y028327D03*
X027200Y028330D03*
X027198Y028333D03*
X027197Y028336D03*
X027195Y028337D03*
X027164Y028420D03*
X027251Y028603D03*
X026432Y028406D03*
X026432Y028405D03*
X026382Y028265D03*
X026381Y028262D03*
X026381Y028261D03*
X026372Y028564D03*
X026358Y028579D03*
X026376Y028915D03*
X026795Y029371D03*
D271*
X026371Y028565D03*
X026386Y028270D03*
X026385Y028268D03*
X026383Y028267D03*
X026382Y028264D03*
X027163Y028417D03*
X027163Y028418D03*
X027192Y028343D03*
X027193Y028342D03*
X027193Y028340D03*
X027195Y028339D03*
D272*
X027191Y028345D03*
X027191Y028346D03*
X027219Y028564D03*
X027219Y028565D03*
X026432Y028403D03*
X026432Y028402D03*
X026390Y028277D03*
X026388Y028273D03*
X026387Y028271D03*
X026370Y028567D03*
X026369Y028570D03*
X026361Y028577D03*
X026373Y028912D03*
X026375Y028913D03*
D273*
X026388Y028274D03*
X027189Y028349D03*
D274*
X027230Y028274D03*
D275*
X027190Y028348D03*
X027163Y028415D03*
X027220Y028567D03*
X027222Y028568D03*
X027222Y028570D03*
X026433Y028400D03*
X026390Y028280D03*
X026390Y028279D03*
X026389Y028276D03*
X026370Y028568D03*
X026368Y028571D03*
X026371Y028907D03*
X026373Y028909D03*
X026373Y028910D03*
D276*
X026370Y028906D03*
X026367Y028573D03*
X026433Y028399D03*
X026391Y028282D03*
X027164Y028414D03*
X027222Y028571D03*
X026795Y029372D03*
D277*
X027188Y028354D03*
X026393Y028283D03*
D278*
X026394Y028285D03*
X026364Y028895D03*
X027247Y028601D03*
D279*
X026394Y028286D03*
D280*
X026395Y028288D03*
X026397Y028291D03*
X026365Y028897D03*
X026367Y028898D03*
X027177Y028372D03*
X027177Y028370D03*
D281*
X026397Y028289D03*
D282*
X026390Y028934D03*
X027200Y028934D03*
X027221Y028289D03*
D283*
X027176Y028373D03*
X027176Y028375D03*
X027174Y028378D03*
X026435Y028393D03*
X026397Y028292D03*
D284*
X026398Y028294D03*
X027178Y028369D03*
X027225Y028576D03*
D285*
X027225Y028577D03*
X027227Y028579D03*
X027227Y028580D03*
X027243Y028600D03*
X027164Y028408D03*
X027164Y028406D03*
X026400Y028297D03*
X026399Y028295D03*
D286*
X026401Y028298D03*
X026403Y028300D03*
X027228Y028582D03*
D287*
X027228Y028583D03*
X027164Y028403D03*
X027164Y028402D03*
X027164Y028399D03*
X027170Y028385D03*
X027173Y028381D03*
X026435Y028387D03*
X026435Y028388D03*
X026435Y028390D03*
X026406Y028307D03*
X026405Y028306D03*
X026403Y028301D03*
D288*
X026404Y028303D03*
X026434Y028391D03*
X027163Y028405D03*
X027172Y028382D03*
X027175Y028376D03*
X026796Y029374D03*
D289*
X026405Y028304D03*
D290*
X027214Y028304D03*
D291*
X027171Y028384D03*
X027169Y028387D03*
X027168Y028388D03*
X027164Y028396D03*
X027164Y028397D03*
X027163Y028400D03*
X027229Y028585D03*
X027231Y028586D03*
X026407Y028310D03*
X026407Y028309D03*
D292*
X026408Y028312D03*
X026435Y028384D03*
X026435Y028385D03*
X027231Y028588D03*
X027233Y028591D03*
X027234Y028592D03*
X027236Y028594D03*
X027237Y028595D03*
X027239Y028597D03*
D293*
X026410Y028315D03*
X026409Y028313D03*
D294*
X026411Y028316D03*
X026411Y028318D03*
X026412Y028321D03*
X026435Y028382D03*
D295*
X026412Y028319D03*
D296*
X027206Y028319D03*
D297*
X026413Y028322D03*
D298*
X026415Y028324D03*
X026416Y028325D03*
D299*
X026417Y028327D03*
X026418Y028328D03*
X026418Y028330D03*
D300*
X026433Y028408D03*
X026373Y028562D03*
X026358Y028894D03*
X027199Y028331D03*
X027200Y028328D03*
D301*
X026419Y028331D03*
D302*
X026420Y028333D03*
X026435Y028381D03*
D303*
X026436Y028379D03*
X026421Y028334D03*
D304*
X027198Y028334D03*
D305*
X026423Y028337D03*
X026421Y028336D03*
D306*
X026424Y028339D03*
D307*
X026424Y028340D03*
X026424Y028342D03*
D308*
X026425Y028343D03*
X026427Y028346D03*
X026435Y028372D03*
X026435Y028373D03*
D309*
X026436Y028375D03*
X026426Y028345D03*
D310*
X026427Y028348D03*
X026429Y028351D03*
X026430Y028352D03*
X026436Y028369D03*
X026436Y028370D03*
D311*
X026428Y028349D03*
D312*
X026364Y028576D03*
X027189Y028352D03*
X027189Y028351D03*
D313*
X026435Y028363D03*
X026435Y028366D03*
X026435Y028367D03*
X026434Y028360D03*
X026434Y028358D03*
X026433Y028355D03*
X026431Y028354D03*
D314*
X026368Y028901D03*
X026370Y028903D03*
X027223Y028573D03*
X027163Y028412D03*
X027180Y028366D03*
X027183Y028361D03*
X027184Y028358D03*
X027185Y028357D03*
X027185Y028355D03*
D315*
X026435Y028361D03*
X026433Y028357D03*
D316*
X026433Y028396D03*
X026433Y028397D03*
X026367Y028900D03*
X027164Y028411D03*
X027179Y028367D03*
X027182Y028363D03*
X027183Y028360D03*
D317*
X026435Y028364D03*
D318*
X027181Y028364D03*
D319*
X026435Y028376D03*
X026435Y028378D03*
D320*
X027174Y028379D03*
D321*
X027167Y028390D03*
D322*
X027166Y028391D03*
X027166Y028393D03*
X027241Y028598D03*
D323*
X026434Y028394D03*
D324*
X027165Y028394D03*
D325*
X026432Y028409D03*
X026375Y028559D03*
D326*
X027164Y028409D03*
X027224Y028574D03*
D327*
X027165Y028423D03*
X026433Y028412D03*
X026433Y028411D03*
D328*
X026431Y028420D03*
X026431Y028421D03*
D329*
X026373Y028561D03*
X026357Y028580D03*
X027164Y028421D03*
X027215Y028556D03*
D330*
X026431Y028424D03*
D331*
X027165Y028424D03*
X026794Y029369D03*
D332*
X027165Y028438D03*
D333*
X026429Y028454D03*
D334*
X026429Y028456D03*
X026794Y029363D03*
D335*
X026330Y028588D03*
X026403Y028522D03*
X026429Y028457D03*
X027165Y028468D03*
X027185Y028520D03*
D336*
X027177Y028958D03*
X026414Y028958D03*
X026406Y028519D03*
X026429Y028460D03*
X026429Y028459D03*
D337*
X026428Y028462D03*
X026407Y028517D03*
X027175Y028960D03*
X026794Y029362D03*
D338*
X026416Y028963D03*
X026428Y028465D03*
X026428Y028463D03*
X027166Y028480D03*
X027166Y028481D03*
X027244Y028912D03*
D339*
X027165Y028483D03*
X026429Y028466D03*
D340*
X027166Y028466D03*
D341*
X027166Y028486D03*
X027282Y028612D03*
X026428Y028468D03*
X026323Y028591D03*
X026794Y029360D03*
D342*
X026429Y028469D03*
D343*
X027166Y028469D03*
D344*
X027176Y028513D03*
X026429Y028471D03*
X026414Y028513D03*
D345*
X027165Y028472D03*
X027165Y028471D03*
D346*
X027166Y028487D03*
X027169Y028966D03*
X026794Y029359D03*
X026320Y028592D03*
X026430Y028474D03*
X026430Y028472D03*
D347*
X026415Y028960D03*
X027181Y028516D03*
X027166Y028475D03*
X027166Y028474D03*
D348*
X027167Y028489D03*
X027171Y028508D03*
X026429Y028475D03*
X026418Y028508D03*
X026417Y028510D03*
X026415Y028511D03*
X026421Y028966D03*
D349*
X026320Y028883D03*
X026430Y028478D03*
X026430Y028477D03*
X027166Y028490D03*
X027170Y028507D03*
X027250Y028909D03*
X027168Y028967D03*
D350*
X027165Y028478D03*
X027165Y028477D03*
X026415Y028961D03*
X026327Y028885D03*
D351*
X026420Y028507D03*
X026429Y028481D03*
X026429Y028480D03*
D352*
X026428Y028483D03*
X027166Y028492D03*
X027166Y028493D03*
X027169Y028505D03*
X027286Y028613D03*
X027166Y028969D03*
X026794Y029357D03*
D353*
X026429Y028484D03*
D354*
X026412Y028514D03*
X027166Y028484D03*
D355*
X027166Y028495D03*
X027166Y028496D03*
X027166Y028498D03*
X027166Y028501D03*
X027168Y028504D03*
X026428Y028487D03*
X026428Y028486D03*
D356*
X026428Y028489D03*
X026428Y028490D03*
X026425Y028504D03*
X026316Y028882D03*
X026428Y028972D03*
D357*
X026795Y029356D03*
X027159Y028973D03*
X026426Y028502D03*
X026427Y028493D03*
X026427Y028492D03*
D358*
X026428Y028495D03*
X026428Y028496D03*
X026427Y028501D03*
D359*
X026427Y028498D03*
X026312Y028880D03*
D360*
X026427Y028499D03*
D361*
X027166Y028499D03*
D362*
X027167Y028502D03*
D363*
X027162Y028972D03*
X026427Y028970D03*
X026425Y028969D03*
X026316Y028594D03*
X026422Y028505D03*
D364*
X027174Y028510D03*
D365*
X027174Y028511D03*
X027248Y028910D03*
D366*
X027178Y028514D03*
D367*
X027278Y028610D03*
X027174Y028961D03*
X026409Y028516D03*
D368*
X026406Y028520D03*
X026412Y028957D03*
X027178Y028957D03*
X027239Y028913D03*
X027276Y028609D03*
X027184Y028519D03*
X027183Y028517D03*
D369*
X027190Y028525D03*
X026406Y028952D03*
D370*
X026385Y028544D03*
D371*
X027205Y028544D03*
D372*
X027216Y028558D03*
X026381Y028921D03*
D373*
X027217Y028559D03*
D374*
X027219Y028562D03*
D375*
X026366Y028574D03*
X026370Y028904D03*
D376*
X026326Y028589D03*
D377*
X027232Y028589D03*
D378*
X026307Y028595D03*
D379*
X026301Y028597D03*
X027302Y028616D03*
D380*
X026795Y029351D03*
X026298Y028876D03*
X026297Y028598D03*
D381*
X026293Y028600D03*
X026794Y029350D03*
D382*
X027279Y028900D03*
X026291Y028601D03*
D383*
X026287Y028603D03*
X026794Y029347D03*
X027283Y028898D03*
D384*
X026282Y028604D03*
D385*
X026274Y028606D03*
X026794Y029342D03*
D386*
X026269Y028607D03*
D387*
X026265Y028609D03*
X027114Y028988D03*
X027309Y028891D03*
D388*
X026262Y028610D03*
D389*
X026260Y028612D03*
D390*
X026255Y028613D03*
X027345Y028630D03*
X027320Y028886D03*
D391*
X026793Y029330D03*
X026247Y028615D03*
D392*
X027156Y028975D03*
X027259Y028906D03*
X027294Y028615D03*
D393*
X026795Y029327D03*
X026216Y028795D03*
X026216Y028793D03*
X026216Y028792D03*
X026216Y028790D03*
X026216Y028789D03*
X026216Y028787D03*
X026214Y028778D03*
X026214Y028777D03*
X026214Y028775D03*
X026214Y028700D03*
X026214Y028699D03*
X026214Y028697D03*
X026214Y028696D03*
X026214Y028693D03*
X026214Y028691D03*
X026214Y028690D03*
X026214Y028688D03*
X026214Y028687D03*
X026241Y028616D03*
D394*
X026238Y028618D03*
X026217Y028667D03*
X026217Y028669D03*
X026217Y028670D03*
X026218Y028807D03*
X026218Y028808D03*
X026239Y028858D03*
X027370Y028817D03*
X027372Y028813D03*
X027373Y028663D03*
X027373Y028661D03*
X027367Y028642D03*
X027366Y028640D03*
D395*
X027308Y028618D03*
D396*
X026234Y028619D03*
X026219Y028814D03*
D397*
X027311Y028619D03*
D398*
X027369Y028646D03*
X027369Y028648D03*
X027371Y028651D03*
X027371Y028652D03*
X027371Y028654D03*
X027363Y028841D03*
X027341Y028880D03*
X026234Y028855D03*
X026234Y028621D03*
D399*
X027315Y028621D03*
D400*
X026232Y028622D03*
X026224Y028837D03*
D401*
X027288Y028897D03*
X027318Y028622D03*
D402*
X026231Y028624D03*
X026229Y028625D03*
X026225Y028838D03*
X026229Y028847D03*
X026231Y028852D03*
X026232Y028853D03*
D403*
X027323Y028624D03*
D404*
X027331Y028625D03*
X027301Y028894D03*
D405*
X026230Y028850D03*
X026230Y028849D03*
X026229Y028846D03*
X026227Y028843D03*
X026227Y028841D03*
X026226Y028840D03*
X026229Y028627D03*
D406*
X027338Y028627D03*
D407*
X026228Y028628D03*
X026226Y028630D03*
X026226Y028631D03*
D408*
X027342Y028628D03*
D409*
X027349Y028631D03*
D410*
X027359Y028856D03*
X027345Y028877D03*
X026225Y028633D03*
D411*
X027354Y028633D03*
D412*
X026224Y028634D03*
D413*
X027360Y028634D03*
X027379Y028754D03*
X027378Y028769D03*
D414*
X027361Y028849D03*
X027361Y028850D03*
X027360Y028853D03*
X027360Y028855D03*
X026224Y028636D03*
X026223Y028637D03*
D415*
X027363Y028636D03*
X027375Y028669D03*
X027375Y028670D03*
X027375Y028672D03*
X027376Y028676D03*
X027376Y028678D03*
X027376Y028681D03*
X027376Y028682D03*
X027376Y028684D03*
X027375Y028798D03*
X027375Y028801D03*
X027375Y028802D03*
D416*
X027373Y028805D03*
X027373Y028807D03*
X027373Y028808D03*
X027364Y028637D03*
X026215Y028678D03*
X026215Y028681D03*
X026215Y028682D03*
X026215Y028684D03*
X026215Y028685D03*
X026217Y028796D03*
X026217Y028798D03*
X026217Y028801D03*
X026217Y028802D03*
D417*
X026223Y028835D03*
X026222Y028642D03*
X026222Y028640D03*
X026222Y028639D03*
X027344Y028879D03*
X027360Y028852D03*
X027362Y028847D03*
X027362Y028846D03*
D418*
X027372Y028811D03*
X027372Y028810D03*
X027374Y028667D03*
X027374Y028666D03*
X027365Y028639D03*
X026216Y028672D03*
X026216Y028673D03*
X026216Y028675D03*
X026216Y028676D03*
X026217Y028804D03*
X026217Y028805D03*
D419*
X026223Y028832D03*
X026223Y028834D03*
X026221Y028648D03*
X026221Y028646D03*
X026221Y028645D03*
X026221Y028643D03*
X027363Y028843D03*
D420*
X027366Y028835D03*
X027366Y028834D03*
X027366Y028832D03*
X027368Y028831D03*
X027368Y028828D03*
X027368Y028826D03*
X027368Y028825D03*
X027369Y028823D03*
X027369Y028822D03*
X027369Y028820D03*
X027369Y028819D03*
X027371Y028816D03*
X027338Y028882D03*
X027372Y028660D03*
X027372Y028658D03*
X027368Y028643D03*
X026219Y028661D03*
X026217Y028666D03*
X026219Y028810D03*
X026219Y028811D03*
X026220Y028816D03*
X026237Y028856D03*
D421*
X026219Y028813D03*
X026218Y028663D03*
X026219Y028660D03*
X026219Y028658D03*
X026219Y028657D03*
X027369Y028645D03*
X027372Y028655D03*
X027372Y028657D03*
X027366Y028837D03*
X027366Y028838D03*
X027364Y028840D03*
D422*
X027363Y028844D03*
X026221Y028649D03*
D423*
X027371Y028649D03*
D424*
X026220Y028651D03*
X026220Y028652D03*
X026220Y028654D03*
X026220Y028655D03*
X026222Y028825D03*
X026222Y028826D03*
X026222Y028828D03*
X026222Y028831D03*
D425*
X026217Y028664D03*
X027368Y028829D03*
D426*
X027374Y028664D03*
X026241Y028859D03*
D427*
X027375Y028675D03*
X027375Y028673D03*
D428*
X026215Y028679D03*
X026217Y028799D03*
D429*
X027375Y028799D03*
X027376Y028679D03*
D430*
X027377Y028685D03*
X027377Y028687D03*
X027377Y028688D03*
X027377Y028690D03*
X027377Y028691D03*
X027375Y028790D03*
X027375Y028792D03*
X027375Y028793D03*
X027375Y028795D03*
X027375Y028796D03*
X027374Y028804D03*
D431*
X027376Y028789D03*
X027376Y028787D03*
X027376Y028786D03*
X027376Y028783D03*
X027376Y028781D03*
X027378Y028702D03*
X027378Y028700D03*
X027378Y028699D03*
X027378Y028697D03*
X027378Y028696D03*
X027378Y028693D03*
X027334Y028883D03*
D432*
X026214Y028694D03*
D433*
X027378Y028694D03*
X027376Y028784D03*
D434*
X026244Y028861D03*
X026215Y028786D03*
X026215Y028783D03*
X026215Y028781D03*
X026215Y028780D03*
X026214Y028774D03*
X026214Y028772D03*
X026214Y028771D03*
X026214Y028768D03*
X026214Y028766D03*
X026214Y028765D03*
X026214Y028763D03*
X026214Y028711D03*
X026214Y028708D03*
X026214Y028706D03*
X026214Y028705D03*
X026214Y028703D03*
X026214Y028702D03*
D435*
X027378Y028703D03*
X027378Y028705D03*
X027378Y028706D03*
X027378Y028708D03*
X027378Y028711D03*
X027378Y028762D03*
X027378Y028763D03*
X027378Y028765D03*
X027377Y028771D03*
X027377Y028772D03*
X027377Y028774D03*
X027377Y028775D03*
X027377Y028777D03*
X027377Y028778D03*
X027377Y028780D03*
D436*
X026215Y028784D03*
X026214Y028769D03*
X026214Y028709D03*
D437*
X027378Y028709D03*
D438*
X026213Y028712D03*
X026213Y028714D03*
X026213Y028715D03*
X026213Y028717D03*
X026213Y028718D03*
X026213Y028720D03*
X026211Y028721D03*
X026211Y028723D03*
X026211Y028726D03*
X026211Y028727D03*
X026211Y028729D03*
X026211Y028730D03*
X026213Y028753D03*
X026213Y028756D03*
X026213Y028757D03*
X026213Y028759D03*
X026213Y028760D03*
X026213Y028762D03*
D439*
X026210Y028735D03*
X026210Y028733D03*
X026210Y028732D03*
X027378Y028766D03*
X027378Y028768D03*
X027379Y028760D03*
X027379Y028759D03*
X027379Y028757D03*
X027379Y028756D03*
X027379Y028753D03*
X027379Y028751D03*
X027379Y028721D03*
X027379Y028720D03*
X027379Y028718D03*
X027379Y028717D03*
X027379Y028715D03*
X027379Y028714D03*
X027379Y028712D03*
D440*
X027380Y028723D03*
X027380Y028726D03*
X027380Y028727D03*
X027380Y028729D03*
X027380Y028730D03*
X027380Y028732D03*
X027380Y028733D03*
X027380Y028735D03*
X027380Y028736D03*
X027380Y028738D03*
X027380Y028741D03*
X027380Y028742D03*
X027380Y028744D03*
X027380Y028745D03*
X027380Y028747D03*
X027380Y028748D03*
X027380Y028750D03*
X026247Y028862D03*
X026211Y028742D03*
X026211Y028741D03*
X026211Y028738D03*
X026211Y028736D03*
D441*
X026211Y028724D03*
X026213Y028754D03*
D442*
X026211Y028739D03*
X027380Y028739D03*
X027380Y028724D03*
D443*
X026212Y028744D03*
X026212Y028745D03*
X026212Y028747D03*
X026212Y028748D03*
X026212Y028750D03*
X026212Y028751D03*
D444*
X027372Y028814D03*
D445*
X026221Y028817D03*
X026221Y028819D03*
X026221Y028820D03*
X026221Y028822D03*
X026221Y028823D03*
D446*
X026222Y028829D03*
D447*
X026229Y028844D03*
D448*
X027348Y028876D03*
X027358Y028858D03*
D449*
X027358Y028859D03*
X027349Y028874D03*
D450*
X027351Y028873D03*
X027356Y028864D03*
X027357Y028861D03*
D451*
X027357Y028862D03*
X027355Y028865D03*
X027355Y028867D03*
D452*
X026794Y029332D03*
X026253Y028864D03*
D453*
X026260Y028865D03*
X026794Y029335D03*
D454*
X026794Y029338D03*
X027305Y028892D03*
X026268Y028867D03*
D455*
X026272Y028868D03*
D456*
X027353Y028871D03*
X027354Y028868D03*
D457*
X026276Y028870D03*
D458*
X027354Y028870D03*
D459*
X026279Y028871D03*
D460*
X026283Y028873D03*
D461*
X026289Y028874D03*
D462*
X026304Y028877D03*
D463*
X026310Y028879D03*
D464*
X027328Y028885D03*
D465*
X026336Y028886D03*
D466*
X027315Y028888D03*
D467*
X026346Y028889D03*
D468*
X027312Y028889D03*
D469*
X027294Y028895D03*
D470*
X027276Y028901D03*
X027140Y028984D03*
X026450Y028984D03*
D471*
X027273Y028903D03*
D472*
X027267Y028904D03*
D473*
X027254Y028907D03*
X027164Y028970D03*
D474*
X026379Y028919D03*
D475*
X026386Y028928D03*
D476*
X026403Y028949D03*
D477*
X027174Y028963D03*
D478*
X026418Y028964D03*
D479*
X027172Y028964D03*
D480*
X026423Y028967D03*
D481*
X026431Y028973D03*
D482*
X026434Y028975D03*
D483*
X026438Y028976D03*
D484*
X027150Y028976D03*
D485*
X026441Y028978D03*
D486*
X027148Y028978D03*
D487*
X026442Y028979D03*
D488*
X027147Y028979D03*
D489*
X026794Y029353D03*
X026445Y028981D03*
D490*
X027144Y028981D03*
D491*
X026446Y028982D03*
D492*
X027143Y028982D03*
D493*
X027131Y028985D03*
X026459Y028985D03*
D494*
X026466Y028987D03*
D495*
X027120Y028987D03*
D496*
X026471Y028988D03*
D497*
X026795Y028990D03*
D498*
X026794Y028991D03*
D499*
X026795Y028993D03*
X026792Y029173D03*
D500*
X026795Y028994D03*
D501*
X026794Y028996D03*
D502*
X026794Y028997D03*
X026791Y029170D03*
D503*
X026792Y029168D03*
X026793Y028999D03*
D504*
X026794Y029000D03*
X026791Y029167D03*
D505*
X026794Y029003D03*
X026794Y029002D03*
D506*
X026795Y029005D03*
X026792Y029164D03*
D507*
X026794Y029006D03*
D508*
X026795Y029008D03*
X026795Y029011D03*
D509*
X026795Y029009D03*
D510*
X026795Y029012D03*
X026795Y029014D03*
X026795Y029015D03*
D511*
X026795Y029017D03*
X026792Y029158D03*
D512*
X026794Y029018D03*
D513*
X026795Y029020D03*
D514*
X026795Y029021D03*
D515*
X026794Y029023D03*
X026791Y029152D03*
D516*
X026795Y029024D03*
D517*
X026795Y029026D03*
X026795Y029027D03*
X026792Y029149D03*
D518*
X026792Y029147D03*
X026795Y029032D03*
X026795Y029030D03*
X026795Y029029D03*
D519*
X026794Y029033D03*
X026791Y029146D03*
D520*
X026795Y029035D03*
D521*
X026794Y029036D03*
D522*
X026795Y029038D03*
D523*
X026794Y029039D03*
D524*
X026794Y029041D03*
X026794Y029042D03*
D525*
X026794Y029044D03*
D526*
X026795Y029045D03*
D527*
X026794Y029047D03*
D528*
X026795Y029048D03*
X026795Y029050D03*
D529*
X026795Y029051D03*
X026795Y029053D03*
D530*
X026794Y029054D03*
D531*
X026795Y029056D03*
D532*
X026794Y029057D03*
X026791Y029131D03*
D533*
X026791Y029128D03*
X026794Y029059D03*
D534*
X026793Y029060D03*
X026790Y029126D03*
D535*
X026791Y029125D03*
X026794Y029062D03*
D536*
X026794Y029063D03*
X026791Y029122D03*
D537*
X026795Y029065D03*
D538*
X026794Y029066D03*
X026791Y029120D03*
D539*
X026795Y029068D03*
D540*
X026795Y029069D03*
D541*
X026795Y029071D03*
X026795Y029072D03*
D542*
X026795Y029074D03*
X026790Y029116D03*
D543*
X026794Y029075D03*
D544*
X026794Y029077D03*
D545*
X026794Y029078D03*
D546*
X026795Y029080D03*
X026790Y029108D03*
D547*
X026791Y029107D03*
X026794Y029081D03*
D548*
X026795Y029083D03*
D549*
X026795Y029084D03*
D550*
X026795Y029086D03*
D551*
X026794Y029087D03*
X026794Y029089D03*
D552*
X026794Y029090D03*
X026794Y029092D03*
X026791Y029102D03*
D553*
X026790Y029101D03*
X026792Y029096D03*
X026792Y029095D03*
X026793Y029093D03*
D554*
X026791Y029098D03*
D555*
X026791Y029099D03*
D556*
X026790Y029104D03*
D557*
X026791Y029105D03*
D558*
X026790Y029110D03*
X026790Y029111D03*
D559*
X026790Y029113D03*
D560*
X026790Y029114D03*
D561*
X026790Y029117D03*
D562*
X026791Y029119D03*
D563*
X026790Y029123D03*
D564*
X026791Y029129D03*
D565*
X026791Y029132D03*
D566*
X026791Y029134D03*
D567*
X026791Y029135D03*
D568*
X026791Y029137D03*
D569*
X026790Y029138D03*
D570*
X026791Y029140D03*
D571*
X026790Y029141D03*
D572*
X026791Y029143D03*
D573*
X026791Y029144D03*
D574*
X026792Y029150D03*
D575*
X026792Y029153D03*
D576*
X026791Y029155D03*
D577*
X026791Y029156D03*
D578*
X026792Y029159D03*
D579*
X026792Y029161D03*
D580*
X026792Y029162D03*
D581*
X026792Y029165D03*
D582*
X026792Y029171D03*
D583*
X026793Y029174D03*
D584*
X026793Y029176D03*
D585*
X026793Y029177D03*
D586*
X026792Y029179D03*
D587*
X026792Y029180D03*
D588*
X026791Y029182D03*
D589*
X026792Y029183D03*
D590*
X026792Y029185D03*
D591*
X026793Y029186D03*
D592*
X026793Y029188D03*
D593*
X026793Y029189D03*
D594*
X026793Y029191D03*
D595*
X026793Y029192D03*
D596*
X026792Y029194D03*
D597*
X026792Y029195D03*
D598*
X026793Y029197D03*
D599*
X026792Y029198D03*
D600*
X026793Y029200D03*
D601*
X026793Y029201D03*
D602*
X026793Y029203D03*
D603*
X026793Y029204D03*
D604*
X026793Y029206D03*
D605*
X026793Y029207D03*
D606*
X026792Y029209D03*
D607*
X026792Y029210D03*
X026792Y029212D03*
D608*
X026792Y029213D03*
D609*
X026793Y029215D03*
D610*
X026793Y029216D03*
X026793Y029218D03*
D611*
X026793Y029219D03*
D612*
X026793Y029221D03*
D613*
X026793Y029222D03*
D614*
X026793Y029224D03*
X026793Y029225D03*
D615*
X026793Y029227D03*
D616*
X026793Y029228D03*
D617*
X026793Y029230D03*
D618*
X026793Y029231D03*
X026793Y029233D03*
D619*
X026793Y029234D03*
D620*
X026793Y029236D03*
D621*
X026793Y029237D03*
D622*
X026793Y029239D03*
X026793Y029240D03*
D623*
X026793Y029242D03*
D624*
X026793Y029243D03*
D625*
X026793Y029245D03*
D626*
X026794Y029246D03*
D627*
X026794Y029248D03*
D628*
X026793Y029249D03*
D629*
X026793Y029251D03*
D630*
X026793Y029252D03*
D631*
X026793Y029254D03*
D632*
X026793Y029255D03*
D633*
X026793Y029257D03*
D634*
X026794Y029258D03*
D635*
X026794Y029260D03*
X026794Y029261D03*
D636*
X026794Y029263D03*
D637*
X026793Y029264D03*
D638*
X026793Y029266D03*
D639*
X026793Y029267D03*
D640*
X026794Y029269D03*
D641*
X026794Y029270D03*
X026795Y029318D03*
D642*
X026795Y029272D03*
D643*
X026794Y029273D03*
X026795Y029317D03*
D644*
X026794Y029276D03*
X026794Y029275D03*
D645*
X026794Y029278D03*
D646*
X026793Y029279D03*
D647*
X026793Y029281D03*
D648*
X026794Y029282D03*
D649*
X026793Y029284D03*
X026795Y029308D03*
D650*
X026794Y029285D03*
D651*
X026794Y029287D03*
X026796Y029305D03*
D652*
X026795Y029303D03*
X026795Y029302D03*
X026795Y029293D03*
X026795Y029291D03*
X026795Y029290D03*
X026795Y029288D03*
D653*
X026796Y029294D03*
D654*
X026796Y029296D03*
X026796Y029297D03*
X026796Y029299D03*
X026796Y029300D03*
D655*
X026795Y029306D03*
D656*
X026796Y029309D03*
D657*
X026796Y029311D03*
D658*
X026795Y029312D03*
D659*
X026795Y029314D03*
D660*
X026795Y029315D03*
D661*
X026795Y029320D03*
D662*
X026795Y029321D03*
D663*
X027313Y029332D03*
X026269Y029323D03*
D664*
X026972Y029323D03*
D665*
X026268Y029324D03*
D666*
X026973Y029324D03*
D667*
X026268Y029326D03*
D668*
X026974Y029326D03*
D669*
X027311Y029327D03*
D670*
X026793Y029329D03*
D671*
X027313Y029329D03*
D672*
X027315Y029341D03*
X026793Y029401D03*
X026267Y029330D03*
D673*
X027313Y029330D03*
D674*
X026267Y029333D03*
D675*
X026793Y029333D03*
D676*
X027313Y029333D03*
D677*
X026266Y029335D03*
D678*
X027314Y029335D03*
D679*
X026265Y029336D03*
D680*
X026794Y029336D03*
D681*
X027315Y029336D03*
D682*
X027317Y029347D03*
X026265Y029338D03*
D683*
X026265Y029339D03*
X026794Y029459D03*
D684*
X026794Y029339D03*
D685*
X026793Y029399D03*
X027315Y029339D03*
D686*
X026793Y029341D03*
D687*
X026793Y029480D03*
X026793Y029482D03*
X026793Y029483D03*
X027318Y029353D03*
X026264Y029344D03*
D688*
X026794Y029344D03*
D689*
X026793Y029416D03*
X026793Y029417D03*
X026793Y029419D03*
X026793Y029420D03*
X026793Y029422D03*
X027316Y029344D03*
D690*
X026794Y029492D03*
X026794Y029494D03*
X026794Y029495D03*
X026263Y029345D03*
D691*
X026794Y029345D03*
D692*
X027316Y029345D03*
D693*
X026795Y029522D03*
X026795Y029524D03*
X026795Y029525D03*
X026262Y029348D03*
D694*
X026794Y029348D03*
D695*
X026793Y029468D03*
X026793Y029470D03*
X026793Y029471D03*
X027318Y029350D03*
D696*
X027321Y029359D03*
X026794Y029533D03*
X026262Y029351D03*
D697*
X026261Y029354D03*
X026795Y029549D03*
D698*
X026794Y029354D03*
D699*
X027319Y029354D03*
D700*
X026261Y029357D03*
D701*
X026260Y029360D03*
X026796Y029593D03*
X026796Y029596D03*
D702*
X026796Y029599D03*
X026796Y029600D03*
X026796Y029602D03*
X026260Y029362D03*
D703*
X027321Y029362D03*
D704*
X026796Y029612D03*
X026259Y029363D03*
D705*
X026795Y029548D03*
X026795Y029551D03*
X026795Y029552D03*
X027321Y029363D03*
D706*
X026796Y029626D03*
X026259Y029365D03*
D707*
X026795Y029569D03*
X026795Y029570D03*
X026795Y029572D03*
X026795Y029573D03*
X026795Y029575D03*
X027322Y029365D03*
D708*
X026259Y029366D03*
D709*
X026258Y029368D03*
X026796Y029632D03*
D710*
X026258Y029369D03*
D711*
X027324Y029369D03*
D712*
X027326Y029378D03*
X026258Y029371D03*
D713*
X026257Y029372D03*
X026796Y029635D03*
D714*
X026796Y029623D03*
X026796Y029621D03*
X026796Y029620D03*
X026796Y029618D03*
X026796Y029617D03*
X026796Y029615D03*
X026796Y029614D03*
X027324Y029372D03*
D715*
X027326Y029381D03*
X026796Y029636D03*
X026256Y029374D03*
D716*
X026796Y029627D03*
X026796Y029629D03*
X027324Y029374D03*
D717*
X026795Y029375D03*
D718*
X026256Y029377D03*
D719*
X026795Y029377D03*
D720*
X026796Y029633D03*
X027326Y029377D03*
D721*
X026255Y029378D03*
D722*
X026794Y029378D03*
D723*
X026795Y029380D03*
D724*
X027326Y029380D03*
D725*
X026798Y029641D03*
X026255Y029381D03*
D726*
X026795Y029381D03*
D727*
X026795Y029383D03*
D728*
X027327Y029383D03*
D729*
X026255Y029384D03*
D730*
X026794Y029384D03*
D731*
X027327Y029384D03*
D732*
X026795Y029386D03*
D733*
X027328Y029386D03*
D734*
X026796Y029387D03*
D735*
X026796Y029389D03*
D736*
X026253Y029390D03*
D737*
X026795Y029390D03*
D738*
X027328Y029390D03*
D739*
X027330Y029398D03*
X026253Y029392D03*
D740*
X026795Y029392D03*
D741*
X026253Y029393D03*
D742*
X026795Y029393D03*
D743*
X026253Y029396D03*
D744*
X026794Y029396D03*
D745*
X027330Y029396D03*
D746*
X026252Y029398D03*
D747*
X026252Y029399D03*
D748*
X026252Y029401D03*
D749*
X026252Y029402D03*
X027332Y029408D03*
D750*
X027330Y029402D03*
D751*
X027332Y029410D03*
X026252Y029404D03*
D752*
X026793Y029405D03*
X026793Y029404D03*
X026793Y029407D03*
D753*
X027330Y029404D03*
D754*
X027331Y029405D03*
D755*
X026251Y029407D03*
D756*
X027331Y029407D03*
D757*
X026250Y029408D03*
D758*
X026251Y029410D03*
X027333Y029416D03*
D759*
X026251Y029411D03*
D760*
X026251Y029413D03*
D761*
X026250Y029414D03*
D762*
X026792Y029414D03*
D763*
X027333Y029414D03*
D764*
X026250Y029417D03*
D765*
X027333Y029420D03*
D766*
X026249Y029422D03*
D767*
X027333Y029422D03*
D768*
X026793Y029423D03*
D769*
X026248Y029426D03*
D770*
X026793Y029428D03*
X026793Y029431D03*
D771*
X026248Y029429D03*
D772*
X026793Y029429D03*
D773*
X027335Y029429D03*
D774*
X026248Y029434D03*
D775*
X027335Y029435D03*
D776*
X026247Y029437D03*
D777*
X027336Y029437D03*
D778*
X026247Y029443D03*
D779*
X026247Y029444D03*
D780*
X026794Y029444D03*
D781*
X027336Y029444D03*
D782*
X027337Y029446D03*
D783*
X026246Y029447D03*
D784*
X027337Y029447D03*
D785*
X027338Y029455D03*
X026246Y029449D03*
D786*
X027337Y029449D03*
D787*
X026246Y029450D03*
D788*
X027337Y029450D03*
D789*
X026794Y029453D03*
X026794Y029455D03*
X026794Y029456D03*
X026794Y029458D03*
X026794Y029461D03*
D790*
X027338Y029453D03*
D791*
X027339Y029461D03*
X026245Y029455D03*
D792*
X027339Y029456D03*
D793*
X027339Y029459D03*
D794*
X026793Y029462D03*
D795*
X027339Y029462D03*
D796*
X027342Y029464D03*
D797*
X026793Y029474D03*
D798*
X026794Y029485D03*
X026794Y029486D03*
X026794Y029488D03*
D799*
X026795Y029489D03*
D800*
X026795Y029491D03*
D801*
X026795Y029497D03*
X026795Y029498D03*
X026795Y029500D03*
X026795Y029501D03*
X026795Y029503D03*
X026795Y029506D03*
X026795Y029507D03*
D802*
X026795Y029504D03*
D803*
X026794Y029521D03*
D804*
X026794Y029534D03*
D805*
X026794Y029539D03*
D806*
X026795Y029540D03*
X026795Y029542D03*
X026795Y029543D03*
X026795Y029545D03*
D807*
X026795Y029579D03*
D808*
X026795Y029585D03*
D809*
X026796Y029591D03*
D810*
X026796Y029594D03*
D811*
X026796Y029609D03*
D812*
X026796Y029624D03*
D813*
X026797Y029639D03*
D814*
X026788Y029644D03*
D815*
X023812Y030201D02*
X023571Y030201D01*
X023752Y030381D01*
X023752Y030021D01*
X023443Y030081D02*
X023443Y030321D01*
X023383Y030381D01*
X023203Y030381D01*
X023203Y030021D01*
X023383Y030021D01*
X023443Y030081D01*
X022484Y030475D02*
X022484Y030715D01*
X022243Y030475D01*
X022303Y030414D01*
X022423Y030414D01*
X022484Y030475D01*
X022484Y030715D02*
X022423Y030775D01*
X022303Y030775D01*
X022243Y030715D01*
X022243Y030475D01*
X022115Y030475D02*
X022055Y030414D01*
X021935Y030414D01*
X021875Y030475D01*
X021747Y030414D02*
X021627Y030535D01*
X021687Y030535D02*
X021507Y030535D01*
X021507Y030414D02*
X021507Y030775D01*
X021687Y030775D01*
X021747Y030715D01*
X021747Y030595D01*
X021687Y030535D01*
X021875Y030715D02*
X021935Y030775D01*
X022055Y030775D01*
X022115Y030715D01*
X022115Y030655D01*
X022055Y030595D01*
X022115Y030535D01*
X022115Y030475D01*
X022055Y030595D02*
X021995Y030595D01*
X023132Y029175D02*
X023252Y029175D01*
X023312Y029115D01*
X023312Y028875D01*
X023252Y028814D01*
X023132Y028814D01*
X023072Y028875D01*
X023072Y029115D01*
X023132Y029175D01*
X023192Y028935D02*
X023312Y028814D01*
X023440Y028995D02*
X023680Y028995D01*
X023620Y029175D02*
X023440Y028995D01*
X023620Y029175D02*
X023620Y028814D01*
X023630Y026475D02*
X023510Y026475D01*
X023450Y026415D01*
X023322Y026415D02*
X023322Y026295D01*
X023262Y026235D01*
X023082Y026235D01*
X023202Y026235D02*
X023322Y026114D01*
X023450Y026114D02*
X023690Y026355D01*
X023690Y026415D01*
X023630Y026475D01*
X023818Y026295D02*
X024059Y026295D01*
X023998Y026475D02*
X023998Y026114D01*
X023818Y026295D02*
X023998Y026475D01*
X023690Y026114D02*
X023450Y026114D01*
X023322Y026415D02*
X023262Y026475D01*
X023082Y026475D01*
X023082Y026114D01*
X017759Y030725D02*
X017698Y030664D01*
X017578Y030664D01*
X017518Y030725D01*
X017390Y030725D02*
X017330Y030664D01*
X017210Y030664D01*
X017150Y030725D01*
X017022Y030664D02*
X016902Y030785D01*
X016962Y030785D02*
X016782Y030785D01*
X016782Y030664D02*
X016782Y031025D01*
X016962Y031025D01*
X017022Y030965D01*
X017022Y030845D01*
X016962Y030785D01*
X017150Y030965D02*
X017210Y031025D01*
X017330Y031025D01*
X017390Y030965D01*
X017390Y030905D01*
X017330Y030845D01*
X017390Y030785D01*
X017390Y030725D01*
X017330Y030845D02*
X017270Y030845D01*
X017518Y030965D02*
X017578Y031025D01*
X017698Y031025D01*
X017759Y030965D01*
X017759Y030905D01*
X017698Y030845D01*
X017759Y030785D01*
X017759Y030725D01*
X017698Y030845D02*
X017638Y030845D01*
X015950Y030333D02*
X015710Y030333D01*
X015830Y030333D02*
X015830Y030693D01*
X015710Y030573D01*
X015582Y030633D02*
X015522Y030693D01*
X015342Y030693D01*
X015342Y030333D01*
X015522Y030333D01*
X015582Y030393D01*
X015582Y030633D01*
X015214Y030633D02*
X014974Y030393D01*
X014974Y030333D01*
X015214Y030333D01*
X015214Y030633D02*
X015214Y030693D01*
X014974Y030693D01*
X014908Y029856D02*
X014728Y029856D01*
X014728Y029496D01*
X014908Y029496D01*
X014968Y029556D01*
X014968Y029796D01*
X014908Y029856D01*
X015096Y029856D02*
X015096Y029676D01*
X015217Y029736D01*
X015277Y029736D01*
X015337Y029676D01*
X015337Y029556D01*
X015277Y029496D01*
X015156Y029496D01*
X015096Y029556D01*
X015096Y029856D02*
X015337Y029856D01*
X013494Y031165D02*
X013433Y031104D01*
X013313Y031104D01*
X013253Y031165D01*
X013125Y031104D02*
X012885Y031104D01*
X013125Y031345D01*
X013125Y031405D01*
X013065Y031465D01*
X012945Y031465D01*
X012885Y031405D01*
X012757Y031405D02*
X012697Y031465D01*
X012577Y031465D01*
X012517Y031405D01*
X012517Y031165D01*
X012577Y031104D01*
X012697Y031104D01*
X012757Y031165D01*
X013253Y031405D02*
X013313Y031465D01*
X013433Y031465D01*
X013494Y031405D01*
X013494Y031345D01*
X013433Y031285D01*
X013494Y031225D01*
X013494Y031165D01*
X013433Y031285D02*
X013373Y031285D01*
X011459Y029475D02*
X011338Y029415D01*
X011218Y029295D01*
X011398Y029295D01*
X011459Y029235D01*
X011459Y029175D01*
X011398Y029114D01*
X011278Y029114D01*
X011218Y029175D01*
X011218Y029295D01*
X011090Y029355D02*
X011090Y029415D01*
X011030Y029475D01*
X010910Y029475D01*
X010850Y029415D01*
X010722Y029415D02*
X010722Y029295D01*
X010662Y029235D01*
X010482Y029235D01*
X010602Y029235D02*
X010722Y029114D01*
X010850Y029114D02*
X011090Y029355D01*
X011090Y029114D02*
X010850Y029114D01*
X010722Y029415D02*
X010662Y029475D01*
X010482Y029475D01*
X010482Y029114D01*
X010013Y028825D02*
X010013Y028464D01*
X009893Y028464D02*
X010134Y028464D01*
X009893Y028705D02*
X010013Y028825D01*
X009765Y028825D02*
X009525Y028585D01*
X009585Y028645D02*
X009765Y028464D01*
X009525Y028464D02*
X009525Y028825D01*
X009397Y028765D02*
X009337Y028825D01*
X009217Y028825D01*
X009157Y028765D01*
X009157Y028525D01*
X009217Y028464D01*
X009337Y028464D01*
X009397Y028525D01*
X009397Y028765D01*
X007855Y028375D02*
X007615Y028375D01*
X007615Y028195D01*
X007735Y028255D01*
X007795Y028255D01*
X007855Y028195D01*
X007855Y028075D01*
X007795Y028014D01*
X007675Y028014D01*
X007615Y028075D01*
X007487Y028075D02*
X007487Y028315D01*
X007427Y028375D01*
X007307Y028375D01*
X007247Y028315D01*
X007247Y028075D01*
X007307Y028014D01*
X007427Y028014D01*
X007487Y028075D01*
X007487Y028014D02*
X007367Y028135D01*
X007293Y025800D02*
X007293Y025620D01*
X007413Y025680D01*
X007473Y025680D01*
X007534Y025620D01*
X007534Y025500D01*
X007473Y025439D01*
X007353Y025439D01*
X007293Y025500D01*
X007165Y025439D02*
X006925Y025439D01*
X007165Y025680D01*
X007165Y025740D01*
X007105Y025800D01*
X006985Y025800D01*
X006925Y025740D01*
X006797Y025740D02*
X006797Y025620D01*
X006737Y025560D01*
X006557Y025560D01*
X006677Y025560D02*
X006797Y025439D01*
X006557Y025439D02*
X006557Y025800D01*
X006737Y025800D01*
X006797Y025740D01*
X007293Y025800D02*
X007534Y025800D01*
X008807Y025685D02*
X008987Y025685D01*
X009047Y025745D01*
X009047Y025865D01*
X008987Y025925D01*
X008807Y025925D01*
X008807Y025564D01*
X008927Y025685D02*
X009047Y025564D01*
X009175Y025564D02*
X009415Y025805D01*
X009415Y025865D01*
X009355Y025925D01*
X009235Y025925D01*
X009175Y025865D01*
X009175Y025564D02*
X009415Y025564D01*
X009543Y025625D02*
X009543Y025685D01*
X009603Y025745D01*
X009723Y025745D01*
X009784Y025685D01*
X009784Y025625D01*
X009723Y025564D01*
X009603Y025564D01*
X009543Y025625D01*
X009603Y025745D02*
X009543Y025805D01*
X009543Y025865D01*
X009603Y025925D01*
X009723Y025925D01*
X009784Y025865D01*
X009784Y025805D01*
X009723Y025745D01*
X009255Y024425D02*
X009075Y024245D01*
X009315Y024245D01*
X009255Y024425D02*
X009255Y024064D01*
X009507Y024065D02*
X009507Y023825D01*
X009567Y023764D01*
X009687Y023764D01*
X009747Y023825D01*
X009875Y023825D02*
X009935Y023764D01*
X010055Y023764D01*
X010115Y023825D01*
X010115Y023885D01*
X010055Y023945D01*
X009995Y023945D01*
X010055Y023945D02*
X010115Y024005D01*
X010115Y024065D01*
X010055Y024125D01*
X009935Y024125D01*
X009875Y024065D01*
X009747Y024065D02*
X009687Y024125D01*
X009567Y024125D01*
X009507Y024065D01*
X008947Y024064D02*
X008827Y024185D01*
X008887Y024185D02*
X008707Y024185D01*
X008707Y024064D02*
X008707Y024425D01*
X008887Y024425D01*
X008947Y024365D01*
X008947Y024245D01*
X008887Y024185D01*
X008565Y024305D02*
X008565Y024365D01*
X008505Y024425D01*
X008385Y024425D01*
X008325Y024365D01*
X008197Y024365D02*
X008197Y024245D01*
X008137Y024185D01*
X007957Y024185D01*
X008077Y024185D02*
X008197Y024064D01*
X008325Y024064D02*
X008565Y024305D01*
X008565Y024064D02*
X008325Y024064D01*
X008197Y024365D02*
X008137Y024425D01*
X007957Y024425D01*
X007957Y024064D01*
X010632Y023200D02*
X010632Y022839D01*
X010632Y022960D02*
X010812Y022960D01*
X010872Y023020D01*
X010872Y023140D01*
X010812Y023200D01*
X010632Y023200D01*
X010752Y022960D02*
X010872Y022839D01*
X011000Y022839D02*
X011240Y022839D01*
X011120Y022839D02*
X011120Y023200D01*
X011000Y023080D01*
X011368Y023140D02*
X011428Y023200D01*
X011548Y023200D01*
X011609Y023140D01*
X011609Y023080D01*
X011368Y022839D01*
X011609Y022839D01*
X012232Y023475D02*
X012292Y023414D01*
X012412Y023414D01*
X012472Y023475D01*
X012600Y023414D02*
X012840Y023655D01*
X012840Y023715D01*
X012780Y023775D01*
X012660Y023775D01*
X012600Y023715D01*
X012472Y023715D02*
X012412Y023775D01*
X012292Y023775D01*
X012232Y023715D01*
X012232Y023475D01*
X012600Y023414D02*
X012840Y023414D01*
X012968Y023414D02*
X013209Y023414D01*
X013088Y023414D02*
X013088Y023775D01*
X012968Y023655D01*
X012240Y024350D02*
X012240Y024470D01*
X012180Y024530D01*
X012120Y024530D01*
X012000Y024470D01*
X012000Y024650D01*
X012240Y024650D01*
X012240Y024350D02*
X012180Y024289D01*
X012060Y024289D01*
X012000Y024350D01*
X011872Y024350D02*
X011812Y024289D01*
X011692Y024289D01*
X011632Y024350D01*
X011632Y024590D01*
X011692Y024650D01*
X011812Y024650D01*
X011872Y024590D01*
X011972Y026139D02*
X011852Y026260D01*
X011912Y026260D02*
X011732Y026260D01*
X011732Y026139D02*
X011732Y026500D01*
X011912Y026500D01*
X011972Y026440D01*
X011972Y026320D01*
X011912Y026260D01*
X012100Y026139D02*
X012340Y026380D01*
X012340Y026440D01*
X012280Y026500D01*
X012160Y026500D01*
X012100Y026440D01*
X012100Y026139D02*
X012340Y026139D01*
X012468Y026200D02*
X012528Y026139D01*
X012648Y026139D01*
X012709Y026200D01*
X012709Y026440D01*
X012648Y026500D01*
X012528Y026500D01*
X012468Y026440D01*
X012468Y026380D01*
X012528Y026320D01*
X012709Y026320D01*
X014831Y026400D02*
X014891Y026339D01*
X015132Y026339D01*
X015192Y026400D01*
X015192Y026520D01*
X015132Y026580D01*
X015192Y026708D02*
X014951Y026948D01*
X014891Y026948D01*
X014831Y026888D01*
X014831Y026768D01*
X014891Y026708D01*
X014891Y026580D02*
X014831Y026520D01*
X014831Y026400D01*
X015192Y026708D02*
X015192Y026948D01*
X015192Y027076D02*
X014951Y027316D01*
X014891Y027316D01*
X014831Y027256D01*
X014831Y027136D01*
X014891Y027076D01*
X015192Y027076D02*
X015192Y027316D01*
X010905Y030525D02*
X010905Y030585D01*
X010845Y030645D01*
X010665Y030645D01*
X010665Y030525D01*
X010725Y030464D01*
X010845Y030464D01*
X010905Y030525D01*
X010785Y030765D02*
X010665Y030645D01*
X010785Y030765D02*
X010905Y030825D01*
X010537Y030765D02*
X010537Y030525D01*
X010477Y030464D01*
X010357Y030464D01*
X010297Y030525D01*
X010297Y030765D01*
X010357Y030825D01*
X010477Y030825D01*
X010537Y030765D01*
X010417Y030585D02*
X010537Y030464D01*
X008517Y020423D02*
X008517Y020183D01*
X008276Y020423D01*
X008216Y020423D01*
X008156Y020363D01*
X008156Y020243D01*
X008216Y020183D01*
X008216Y020055D02*
X008156Y019995D01*
X008156Y019875D01*
X008216Y019814D01*
X008457Y019814D01*
X008517Y019875D01*
X008517Y019995D01*
X008457Y020055D01*
X008482Y019586D02*
X008542Y019526D01*
X008542Y019406D01*
X008482Y019346D01*
X008422Y019346D01*
X008362Y019406D01*
X008362Y019526D01*
X008422Y019586D01*
X008482Y019586D01*
X008362Y019526D02*
X008301Y019586D01*
X008241Y019586D01*
X008181Y019526D01*
X008181Y019406D01*
X008241Y019346D01*
X008301Y019346D01*
X008362Y019406D01*
X008362Y019218D02*
X008422Y019158D01*
X008422Y018978D01*
X008542Y018978D02*
X008181Y018978D01*
X008181Y019158D01*
X008241Y019218D01*
X008362Y019218D01*
X008422Y019098D02*
X008542Y019218D01*
X014507Y015940D02*
X014507Y015700D01*
X014567Y015639D01*
X014687Y015639D01*
X014747Y015700D01*
X014875Y015700D02*
X014875Y015639D01*
X014875Y015700D02*
X015115Y015940D01*
X015115Y016000D01*
X014875Y016000D01*
X014747Y015940D02*
X014687Y016000D01*
X014567Y016000D01*
X014507Y015940D01*
X014505Y014650D02*
X014445Y014590D01*
X014445Y014350D01*
X014505Y014289D01*
X014625Y014289D01*
X014685Y014350D01*
X014813Y014350D02*
X014873Y014289D01*
X014994Y014289D01*
X015054Y014350D01*
X015054Y014410D01*
X014994Y014470D01*
X014813Y014470D01*
X014813Y014350D01*
X014813Y014470D02*
X014933Y014590D01*
X015054Y014650D01*
X014685Y014590D02*
X014625Y014650D01*
X014505Y014650D01*
X014441Y014006D02*
X014621Y014006D01*
X014681Y013945D01*
X014681Y013705D01*
X014621Y013645D01*
X014441Y013645D01*
X014441Y014006D01*
X014313Y014006D02*
X014073Y014006D01*
X014073Y013645D01*
X014313Y013645D01*
X014193Y013825D02*
X014073Y013825D01*
X013945Y013645D02*
X013705Y013645D01*
X013705Y014006D01*
X014809Y013885D02*
X014930Y014006D01*
X014930Y013645D01*
X015050Y013645D02*
X014809Y013645D01*
X015506Y013206D02*
X015687Y013026D01*
X015687Y013266D01*
X015867Y013206D02*
X015506Y013206D01*
X015506Y012778D02*
X015867Y012778D01*
X015867Y012658D02*
X015867Y012898D01*
X015626Y012658D02*
X015506Y012778D01*
X015566Y012530D02*
X015687Y012530D01*
X015747Y012470D01*
X015747Y012289D01*
X015867Y012289D02*
X015506Y012289D01*
X015506Y012470D01*
X015566Y012530D01*
X015747Y012410D02*
X015867Y012530D01*
X014987Y011742D02*
X014987Y011382D01*
X014867Y011382D02*
X015108Y011382D01*
X014867Y011622D02*
X014987Y011742D01*
X014739Y011742D02*
X014739Y011382D01*
X014619Y011502D01*
X014499Y011382D01*
X014499Y011742D01*
X014371Y011682D02*
X014311Y011742D01*
X014191Y011742D01*
X014131Y011682D01*
X014131Y011622D01*
X014191Y011562D01*
X014311Y011562D01*
X014371Y011502D01*
X014371Y011442D01*
X014311Y011382D01*
X014191Y011382D01*
X014131Y011442D01*
X013339Y011751D02*
X013339Y011811D01*
X013279Y011871D01*
X013098Y011871D01*
X013098Y011751D01*
X013158Y011691D01*
X013279Y011691D01*
X013339Y011751D01*
X013219Y011991D02*
X013339Y012051D01*
X013219Y011991D02*
X013098Y011871D01*
X012970Y011871D02*
X012910Y011811D01*
X012730Y011811D01*
X012730Y011691D02*
X012730Y012051D01*
X012910Y012051D01*
X012970Y011991D01*
X012970Y011871D01*
X012850Y011811D02*
X012970Y011691D01*
X012589Y011982D02*
X012589Y012042D01*
X012348Y012042D01*
X012220Y011982D02*
X012160Y012042D01*
X011980Y012042D01*
X011980Y011682D01*
X011980Y011802D02*
X012160Y011802D01*
X012220Y011862D01*
X012220Y011982D01*
X012100Y011802D02*
X012220Y011682D01*
X012348Y011682D02*
X012348Y011742D01*
X012589Y011982D01*
X011158Y011669D02*
X011158Y011609D01*
X010917Y011369D01*
X011158Y011369D01*
X011158Y011669D02*
X011097Y011729D01*
X010977Y011729D01*
X010917Y011669D01*
X010789Y011729D02*
X010789Y011369D01*
X010669Y011489D01*
X010549Y011369D01*
X010549Y011729D01*
X010421Y011669D02*
X010361Y011729D01*
X010241Y011729D01*
X010181Y011669D01*
X010181Y011609D01*
X010241Y011549D01*
X010361Y011549D01*
X010421Y011489D01*
X010421Y011429D01*
X010361Y011369D01*
X010241Y011369D01*
X010181Y011429D01*
X009761Y012218D02*
X009401Y012218D01*
X009761Y012218D02*
X009761Y012459D01*
X009761Y012587D02*
X009761Y012827D01*
X009761Y012955D02*
X009761Y013135D01*
X009701Y013195D01*
X009461Y013195D01*
X009401Y013135D01*
X009401Y012955D01*
X009761Y012955D01*
X009581Y012707D02*
X009581Y012587D01*
X009401Y012587D02*
X009761Y012587D01*
X009401Y012587D02*
X009401Y012827D01*
X009461Y013323D02*
X009401Y013383D01*
X009401Y013503D01*
X009461Y013564D01*
X009521Y013564D01*
X009761Y013323D01*
X009761Y013564D01*
X016807Y014264D02*
X016807Y014625D01*
X016987Y014625D01*
X017047Y014565D01*
X017047Y014445D01*
X016987Y014385D01*
X016807Y014385D01*
X016927Y014385D02*
X017047Y014264D01*
X017175Y014264D02*
X017415Y014264D01*
X017295Y014264D02*
X017295Y014625D01*
X017175Y014505D01*
X017543Y014445D02*
X017663Y014505D01*
X017723Y014505D01*
X017784Y014445D01*
X017784Y014325D01*
X017723Y014264D01*
X017603Y014264D01*
X017543Y014325D01*
X017543Y014445D02*
X017543Y014625D01*
X017784Y014625D01*
X017723Y015639D02*
X017603Y015639D01*
X017543Y015700D01*
X017543Y015820D01*
X017723Y015820D01*
X017784Y015760D01*
X017784Y015700D01*
X017723Y015639D01*
X017543Y015820D02*
X017663Y015940D01*
X017784Y016000D01*
X017295Y016000D02*
X017295Y015639D01*
X017175Y015639D02*
X017415Y015639D01*
X017175Y015880D02*
X017295Y016000D01*
X017047Y015940D02*
X017047Y015820D01*
X016987Y015760D01*
X016807Y015760D01*
X016927Y015760D02*
X017047Y015639D01*
X016807Y015639D02*
X016807Y016000D01*
X016987Y016000D01*
X017047Y015940D01*
X025532Y016100D02*
X025592Y016039D01*
X025712Y016039D01*
X025772Y016100D01*
X025900Y016039D02*
X026140Y016039D01*
X026020Y016039D02*
X026020Y016400D01*
X025900Y016280D01*
X025772Y016340D02*
X025712Y016400D01*
X025592Y016400D01*
X025532Y016340D01*
X025532Y016100D01*
X026268Y016039D02*
X026509Y016039D01*
X026388Y016039D02*
X026388Y016400D01*
X026268Y016280D01*
X027007Y016400D02*
X027007Y016039D01*
X027007Y016160D02*
X027187Y016160D01*
X027247Y016220D01*
X027247Y016340D01*
X027187Y016400D01*
X027007Y016400D01*
X027127Y016160D02*
X027247Y016039D01*
X027375Y016039D02*
X027615Y016039D01*
X027495Y016039D02*
X027495Y016400D01*
X027375Y016280D01*
X027743Y016280D02*
X027803Y016220D01*
X027984Y016220D01*
X027984Y016100D02*
X027984Y016340D01*
X027923Y016400D01*
X027803Y016400D01*
X027743Y016340D01*
X027743Y016280D01*
X027743Y016100D02*
X027803Y016039D01*
X027923Y016039D01*
X027984Y016100D01*
X029282Y015390D02*
X029282Y015150D01*
X029342Y015089D01*
X029462Y015089D01*
X029522Y015150D01*
X029650Y015089D02*
X029890Y015089D01*
X029770Y015089D02*
X029770Y015450D01*
X029650Y015330D01*
X029522Y015390D02*
X029462Y015450D01*
X029342Y015450D01*
X029282Y015390D01*
X030018Y015390D02*
X030078Y015450D01*
X030198Y015450D01*
X030259Y015390D01*
X030259Y015330D01*
X030198Y015270D01*
X030259Y015210D01*
X030259Y015150D01*
X030198Y015089D01*
X030078Y015089D01*
X030018Y015150D01*
X030138Y015270D02*
X030198Y015270D01*
X030831Y013771D02*
X031192Y013771D01*
X031192Y013651D02*
X031192Y013891D01*
X030951Y013651D02*
X030831Y013771D01*
X030891Y013523D02*
X030831Y013463D01*
X030831Y013343D01*
X030891Y013283D01*
X030891Y013155D02*
X031012Y013155D01*
X031072Y013095D01*
X031072Y012914D01*
X031192Y012914D02*
X030831Y012914D01*
X030831Y013095D01*
X030891Y013155D01*
X031072Y013035D02*
X031192Y013155D01*
X031192Y013283D02*
X030951Y013523D01*
X030891Y013523D01*
X031192Y013523D02*
X031192Y013283D01*
X029552Y012266D02*
X029552Y012146D01*
X029492Y012086D01*
X029552Y011958D02*
X029552Y011718D01*
X029311Y011958D01*
X029251Y011958D01*
X029191Y011898D01*
X029191Y011778D01*
X029251Y011718D01*
X029251Y011590D02*
X029191Y011530D01*
X029191Y011350D01*
X029552Y011350D01*
X029432Y011350D02*
X029432Y011530D01*
X029372Y011590D01*
X029251Y011590D01*
X029432Y011470D02*
X029552Y011590D01*
X029251Y012086D02*
X029191Y012146D01*
X029191Y012266D01*
X029251Y012326D01*
X029311Y012326D01*
X029372Y012266D01*
X029432Y012326D01*
X029492Y012326D01*
X029552Y012266D01*
X029372Y012266D02*
X029372Y012206D01*
X029115Y012898D02*
X029167Y012949D01*
X029167Y013053D01*
X029115Y013105D01*
X029167Y013220D02*
X029167Y013427D01*
X029167Y013323D02*
X028856Y013323D01*
X028960Y013220D01*
X028908Y013105D02*
X028856Y013053D01*
X028856Y012949D01*
X028908Y012898D01*
X029115Y012898D01*
X029115Y013542D02*
X029063Y013542D01*
X029012Y013594D01*
X029012Y013697D01*
X029063Y013749D01*
X029115Y013749D01*
X029167Y013697D01*
X029167Y013594D01*
X029115Y013542D01*
X029012Y013594D02*
X028960Y013542D01*
X028908Y013542D01*
X028856Y013594D01*
X028856Y013697D01*
X028908Y013749D01*
X028960Y013749D01*
X029012Y013697D01*
X027415Y013645D02*
X027235Y013645D01*
X027175Y013705D01*
X027175Y013765D01*
X027235Y013825D01*
X027355Y013825D01*
X027415Y013765D01*
X027415Y013525D01*
X027355Y013464D01*
X027235Y013464D01*
X027175Y013525D01*
X027047Y013525D02*
X026987Y013464D01*
X026867Y013464D01*
X026807Y013525D01*
X026807Y013765D01*
X026867Y013825D01*
X026987Y013825D01*
X027047Y013765D01*
X026859Y011825D02*
X026618Y011825D01*
X026618Y011645D01*
X026738Y011705D01*
X026798Y011705D01*
X026859Y011645D01*
X026859Y011525D01*
X026798Y011464D01*
X026678Y011464D01*
X026618Y011525D01*
X026490Y011464D02*
X026250Y011464D01*
X026370Y011464D02*
X026370Y011825D01*
X026250Y011705D01*
X026122Y011765D02*
X026062Y011825D01*
X025942Y011825D01*
X025882Y011765D01*
X025882Y011525D01*
X025942Y011464D01*
X026062Y011464D01*
X026122Y011525D01*
X026842Y009450D02*
X026782Y009390D01*
X026782Y009150D01*
X026842Y009089D01*
X026962Y009089D01*
X027022Y009150D01*
X027150Y009089D02*
X027390Y009089D01*
X027270Y009089D02*
X027270Y009450D01*
X027150Y009330D01*
X027022Y009390D02*
X026962Y009450D01*
X026842Y009450D01*
X027518Y009390D02*
X027518Y009150D01*
X027759Y009390D01*
X027759Y009150D01*
X027698Y009089D01*
X027578Y009089D01*
X027518Y009150D01*
X027518Y009390D02*
X027578Y009450D01*
X027698Y009450D01*
X027759Y009390D01*
X029206Y009750D02*
X029266Y009689D01*
X029507Y009689D01*
X029567Y009750D01*
X029567Y009870D01*
X029507Y009930D01*
X029567Y010058D02*
X029326Y010298D01*
X029266Y010298D01*
X029206Y010238D01*
X029206Y010118D01*
X029266Y010058D01*
X029266Y009930D02*
X029206Y009870D01*
X029206Y009750D01*
X029567Y010058D02*
X029567Y010298D01*
X029507Y010426D02*
X029266Y010666D01*
X029507Y010666D01*
X029567Y010606D01*
X029567Y010486D01*
X029507Y010426D01*
X029266Y010426D01*
X029206Y010486D01*
X029206Y010606D01*
X029266Y010666D01*
X031281Y010674D02*
X031281Y010850D01*
X031340Y010908D01*
X031457Y010908D01*
X031515Y010850D01*
X031515Y010674D01*
X031632Y010674D02*
X031281Y010674D01*
X031515Y010791D02*
X031632Y010908D01*
X031632Y011034D02*
X031398Y011267D01*
X031340Y011267D01*
X031281Y011209D01*
X031281Y011092D01*
X031340Y011034D01*
X031632Y011034D02*
X031632Y011267D01*
X031573Y011393D02*
X031340Y011626D01*
X031573Y011626D01*
X031632Y011568D01*
X031632Y011451D01*
X031573Y011393D01*
X031340Y011393D01*
X031281Y011451D01*
X031281Y011568D01*
X031340Y011626D01*
X031331Y009876D02*
X031271Y009816D01*
X031271Y009696D01*
X031331Y009636D01*
X031331Y009508D02*
X031271Y009448D01*
X031271Y009328D01*
X031331Y009268D01*
X031331Y009140D02*
X031452Y009140D01*
X031512Y009080D01*
X031512Y008899D01*
X031632Y008899D02*
X031271Y008899D01*
X031271Y009080D01*
X031331Y009140D01*
X031512Y009020D02*
X031632Y009140D01*
X031632Y009268D02*
X031391Y009508D01*
X031331Y009508D01*
X031632Y009508D02*
X031632Y009268D01*
X031632Y009636D02*
X031391Y009876D01*
X031331Y009876D01*
X031632Y009876D02*
X031632Y009636D01*
X028915Y007615D02*
X028915Y007555D01*
X028855Y007495D01*
X028735Y007495D01*
X028675Y007555D01*
X028675Y007615D01*
X028735Y007675D01*
X028855Y007675D01*
X028915Y007615D01*
X028855Y007495D02*
X028915Y007435D01*
X028915Y007375D01*
X028855Y007314D01*
X028735Y007314D01*
X028675Y007375D01*
X028675Y007435D01*
X028735Y007495D01*
X028547Y007615D02*
X028487Y007675D01*
X028367Y007675D01*
X028307Y007615D01*
X028307Y007375D01*
X028367Y007314D01*
X028487Y007314D01*
X028547Y007375D01*
X026067Y007378D02*
X026067Y007618D01*
X026067Y007498D02*
X025706Y007498D01*
X025826Y007378D01*
X025766Y007250D02*
X025887Y007250D01*
X025947Y007190D01*
X025947Y007010D01*
X025947Y007130D02*
X026067Y007250D01*
X026067Y007010D02*
X025706Y007010D01*
X025706Y007190D01*
X025766Y007250D01*
X025342Y007225D02*
X025222Y007105D01*
X025222Y007165D02*
X025222Y006985D01*
X025342Y006985D02*
X024981Y006985D01*
X024981Y007165D01*
X025041Y007225D01*
X025162Y007225D01*
X025222Y007165D01*
X025342Y007353D02*
X025342Y007593D01*
X025342Y007473D02*
X024981Y007473D01*
X025101Y007353D01*
X025101Y007721D02*
X025041Y007721D01*
X024981Y007781D01*
X024981Y007901D01*
X025041Y007961D01*
X025101Y007961D01*
X025162Y007901D01*
X025162Y007781D01*
X025101Y007721D01*
X025162Y007781D02*
X025222Y007721D01*
X025282Y007721D01*
X025342Y007781D01*
X025342Y007901D01*
X025282Y007961D01*
X025222Y007961D01*
X025162Y007901D01*
X024542Y007721D02*
X024482Y007721D01*
X024241Y007961D01*
X024181Y007961D01*
X024181Y007721D01*
X024181Y007473D02*
X024542Y007473D01*
X024542Y007353D02*
X024542Y007593D01*
X024301Y007353D02*
X024181Y007473D01*
X024241Y007225D02*
X024181Y007165D01*
X024181Y007045D01*
X024241Y006985D01*
X024482Y006985D01*
X024542Y007045D01*
X024542Y007165D01*
X024482Y007225D01*
X023767Y007140D02*
X023767Y007020D01*
X023707Y006960D01*
X023466Y006960D01*
X023406Y007020D01*
X023406Y007140D01*
X023466Y007200D01*
X023526Y007328D02*
X023406Y007448D01*
X023767Y007448D01*
X023767Y007328D02*
X023767Y007568D01*
X023707Y007696D02*
X023767Y007756D01*
X023767Y007876D01*
X023707Y007936D01*
X023647Y007936D01*
X023587Y007876D01*
X023587Y007696D01*
X023707Y007696D01*
X023587Y007696D02*
X023466Y007816D01*
X023406Y007936D01*
X023707Y007200D02*
X023767Y007140D01*
X025706Y007746D02*
X025706Y007986D01*
X025766Y007986D01*
X026007Y007746D01*
X026067Y007746D01*
X032442Y016380D02*
X032682Y016380D01*
X032810Y016380D02*
X032810Y016741D01*
X033051Y016741D01*
X033179Y016741D02*
X033359Y016741D01*
X033419Y016681D01*
X033419Y016440D01*
X033359Y016380D01*
X033179Y016380D01*
X033179Y016741D01*
X032931Y016561D02*
X032810Y016561D01*
X032810Y016380D02*
X033051Y016380D01*
X033547Y016440D02*
X033607Y016380D01*
X033727Y016380D01*
X033787Y016440D01*
X033787Y016501D01*
X033727Y016561D01*
X033667Y016561D01*
X033727Y016561D02*
X033787Y016621D01*
X033787Y016681D01*
X033727Y016741D01*
X033607Y016741D01*
X033547Y016681D01*
X034107Y016750D02*
X034107Y016389D01*
X034107Y016510D02*
X034287Y016510D01*
X034347Y016570D01*
X034347Y016690D01*
X034287Y016750D01*
X034107Y016750D01*
X034227Y016510D02*
X034347Y016389D01*
X034475Y016389D02*
X034715Y016389D01*
X034595Y016389D02*
X034595Y016750D01*
X034475Y016630D01*
X034843Y016690D02*
X034903Y016750D01*
X035023Y016750D01*
X035084Y016690D01*
X035084Y016630D01*
X035023Y016570D01*
X035084Y016510D01*
X035084Y016450D01*
X035023Y016389D01*
X034903Y016389D01*
X034843Y016450D01*
X034963Y016570D02*
X035023Y016570D01*
X032442Y016741D02*
X032442Y016380D01*
X037007Y022839D02*
X037007Y023200D01*
X037187Y023200D01*
X037247Y023140D01*
X037247Y023020D01*
X037187Y022960D01*
X037007Y022960D01*
X037127Y022960D02*
X037247Y022839D01*
X037375Y022839D02*
X037615Y022839D01*
X037495Y022839D02*
X037495Y023200D01*
X037375Y023080D01*
X036940Y028789D02*
X036700Y028789D01*
X036820Y028789D02*
X036820Y029150D01*
X036700Y029030D01*
X036572Y029150D02*
X036332Y028910D01*
X036392Y028970D02*
X036572Y028789D01*
X036332Y028789D02*
X036332Y029150D01*
D816*
X035297Y025949D02*
X038177Y025949D01*
X038177Y023589D01*
X035297Y023589D01*
X035297Y025949D01*
X034887Y025944D02*
X028387Y025944D01*
X028387Y017044D01*
X034887Y017044D01*
X034887Y025944D01*
X035532Y025319D02*
X035532Y025019D01*
X035682Y025169D02*
X035382Y025169D01*
X033987Y023194D02*
X033987Y022944D01*
X031887Y022944D01*
X031887Y023444D02*
X031387Y023444D01*
X031887Y022444D01*
X031637Y022194D02*
X031637Y019594D01*
X031887Y019344D02*
X033107Y019344D01*
X031387Y019344D02*
X030157Y019344D01*
X030239Y016900D02*
X030072Y016900D01*
X029989Y016817D01*
X029989Y016483D01*
X030072Y016399D01*
X030239Y016399D01*
X030322Y016483D01*
X030322Y016817D02*
X030239Y016900D01*
X029807Y016817D02*
X029807Y016483D01*
X029723Y016399D01*
X029473Y016399D01*
X029473Y016900D01*
X029723Y016900D01*
X029807Y016817D01*
X029291Y016316D02*
X028957Y016316D01*
X028775Y016399D02*
X028525Y016650D01*
X028442Y016566D02*
X028775Y016900D01*
X028442Y016900D02*
X028442Y016399D01*
X028162Y016719D02*
X019262Y016719D01*
X019262Y023219D01*
X028162Y023219D01*
X028162Y016719D01*
X025862Y018489D02*
X025862Y019719D01*
X025612Y019969D02*
X023012Y019969D01*
X022762Y020219D02*
X021762Y019719D01*
X021762Y020219D01*
X021512Y019969D02*
X021112Y019969D01*
X022262Y019719D02*
X022262Y017619D01*
X022012Y017619D01*
X019442Y015979D02*
X019442Y015659D01*
X019202Y015229D02*
X019042Y015229D01*
X018882Y015229D01*
X018882Y015579D01*
X019172Y015350D02*
X019152Y015350D01*
X019133Y015346D01*
X019114Y015340D01*
X019096Y015330D01*
X019081Y015318D01*
X019067Y015304D01*
X019056Y015287D01*
X019048Y015269D01*
X019044Y015249D01*
X019042Y015230D01*
X018882Y016059D02*
X018882Y016409D01*
X019202Y016409D01*
X018887Y017419D02*
X018587Y017419D01*
X018737Y017644D01*
X018887Y017419D01*
X018879Y017431D02*
X018594Y017431D01*
X018633Y017489D02*
X018840Y017489D01*
X018801Y017548D02*
X018672Y017548D01*
X018711Y017606D02*
X018762Y017606D01*
X016737Y017444D02*
X016737Y019544D01*
X016735Y019567D01*
X016730Y019590D01*
X016721Y019612D01*
X016708Y019632D01*
X016693Y019650D01*
X016675Y019665D01*
X016655Y019678D01*
X016633Y019687D01*
X016610Y019692D01*
X016587Y019694D01*
X016237Y019694D01*
X016137Y019594D01*
X010837Y019594D01*
X010737Y019694D01*
X010387Y019694D01*
X010387Y019719D02*
X010737Y019719D01*
X010837Y019819D01*
X016137Y019819D01*
X016237Y019719D01*
X016587Y019719D01*
X016610Y019721D01*
X016633Y019726D01*
X016655Y019735D01*
X016675Y019748D01*
X016693Y019763D01*
X016708Y019781D01*
X016721Y019801D01*
X016730Y019823D01*
X016735Y019846D01*
X016737Y019869D01*
X016737Y021969D01*
X016735Y021992D01*
X016730Y022015D01*
X016721Y022037D01*
X016708Y022057D01*
X016693Y022075D01*
X016675Y022090D01*
X016655Y022103D01*
X016633Y022112D01*
X016610Y022117D01*
X016587Y022119D01*
X016237Y022119D01*
X016137Y022019D01*
X010837Y022019D01*
X010737Y022119D01*
X010387Y022119D01*
X010364Y022117D01*
X010341Y022112D01*
X010319Y022103D01*
X010299Y022090D01*
X010281Y022075D01*
X010266Y022057D01*
X010253Y022037D01*
X010244Y022015D01*
X010239Y021992D01*
X010237Y021969D01*
X010237Y019869D01*
X010239Y019846D01*
X010244Y019823D01*
X010253Y019801D01*
X010266Y019781D01*
X010281Y019763D01*
X010299Y019748D01*
X010319Y019735D01*
X010341Y019726D01*
X010364Y019721D01*
X010387Y019719D01*
X010387Y019694D02*
X010364Y019692D01*
X010341Y019687D01*
X010319Y019678D01*
X010299Y019665D01*
X010281Y019650D01*
X010266Y019632D01*
X010253Y019612D01*
X010244Y019590D01*
X010239Y019567D01*
X010237Y019544D01*
X010237Y017444D01*
X010239Y017421D01*
X010244Y017398D01*
X010253Y017376D01*
X010266Y017356D01*
X010281Y017338D01*
X010299Y017323D01*
X010319Y017310D01*
X010341Y017301D01*
X010364Y017296D01*
X010387Y017294D01*
X010737Y017294D01*
X010837Y017394D01*
X016137Y017394D01*
X016237Y017294D01*
X016587Y017294D01*
X016610Y017296D01*
X016633Y017301D01*
X016655Y017310D01*
X016675Y017323D01*
X016693Y017338D01*
X016708Y017356D01*
X016721Y017376D01*
X016730Y017398D01*
X016735Y017421D01*
X016737Y017444D01*
X014152Y017124D02*
X014152Y014764D01*
X011272Y014764D01*
X011272Y017124D01*
X014152Y017124D01*
X011657Y016344D02*
X011357Y016344D01*
X011507Y016494D02*
X011507Y016194D01*
X010962Y016144D02*
X010962Y016644D01*
X010712Y016894D01*
X010962Y016144D02*
X010712Y015894D01*
X010962Y015644D01*
X010962Y015144D01*
X010712Y014894D01*
X010962Y014644D01*
X010962Y014144D01*
X010712Y013894D01*
X011280Y012724D02*
X011278Y012679D01*
X011273Y012633D01*
X011265Y012589D01*
X011253Y012545D01*
X011237Y012502D01*
X011219Y012460D01*
X011197Y012420D01*
X011173Y012382D01*
X011146Y012346D01*
X011116Y012311D01*
X011083Y012280D01*
X011048Y012250D01*
X010080Y012724D02*
X010082Y012771D01*
X010088Y012819D01*
X010097Y012865D01*
X010110Y012911D01*
X010126Y012955D01*
X010147Y012999D01*
X010170Y013040D01*
X010196Y013079D01*
X010226Y013116D01*
X010259Y013151D01*
X010294Y013183D01*
X010331Y013212D01*
X010080Y012724D02*
X010082Y012678D01*
X010087Y012632D01*
X010096Y012586D01*
X010108Y012541D01*
X010124Y012498D01*
X010143Y012456D01*
X010166Y012415D01*
X010191Y012376D01*
X010219Y012340D01*
X010250Y012305D01*
X010284Y012273D01*
X010320Y012244D01*
X011280Y012724D02*
X011278Y012769D01*
X011273Y012815D01*
X011265Y012859D01*
X011253Y012903D01*
X011237Y012946D01*
X011219Y012988D01*
X011197Y013028D01*
X011173Y013066D01*
X011146Y013102D01*
X011116Y013137D01*
X011083Y013168D01*
X011048Y013198D01*
X009212Y013894D02*
X008962Y014144D01*
X008962Y014644D01*
X009212Y014894D01*
X008962Y015144D01*
X008962Y015644D01*
X009212Y015894D01*
X008962Y016144D01*
X008962Y016644D01*
X009212Y016894D01*
X015217Y012724D02*
X015215Y012679D01*
X015210Y012633D01*
X015202Y012589D01*
X015190Y012545D01*
X015174Y012502D01*
X015156Y012460D01*
X015134Y012420D01*
X015110Y012382D01*
X015083Y012346D01*
X015053Y012311D01*
X015020Y012280D01*
X014985Y012250D01*
X014017Y012724D02*
X014019Y012771D01*
X014025Y012819D01*
X014034Y012865D01*
X014047Y012911D01*
X014063Y012955D01*
X014084Y012999D01*
X014107Y013040D01*
X014133Y013079D01*
X014163Y013116D01*
X014196Y013151D01*
X014231Y013183D01*
X014268Y013212D01*
X014017Y012724D02*
X014019Y012678D01*
X014024Y012632D01*
X014033Y012586D01*
X014045Y012541D01*
X014061Y012498D01*
X014080Y012456D01*
X014103Y012415D01*
X014128Y012376D01*
X014156Y012340D01*
X014187Y012305D01*
X014221Y012273D01*
X014257Y012244D01*
X015217Y012724D02*
X015215Y012769D01*
X015210Y012815D01*
X015202Y012859D01*
X015190Y012903D01*
X015174Y012946D01*
X015156Y012988D01*
X015134Y013028D01*
X015110Y013066D01*
X015083Y013102D01*
X015053Y013137D01*
X015020Y013168D01*
X014985Y013198D01*
X016887Y014144D02*
X016887Y011344D01*
X020287Y011344D01*
X020287Y014144D01*
X016887Y014144D01*
X017287Y014044D02*
X017287Y013024D01*
X017287Y012464D02*
X017287Y011444D01*
X019887Y011444D01*
X019887Y012464D01*
X019977Y012244D02*
X020277Y012244D01*
X020127Y012094D02*
X020127Y012394D01*
X019887Y012094D02*
X019237Y011444D01*
X017837Y010298D02*
X017837Y009998D01*
X017537Y010148D02*
X017539Y010182D01*
X017545Y010216D01*
X017554Y010249D01*
X017568Y010280D01*
X017585Y010310D01*
X017605Y010338D01*
X017628Y010363D01*
X017654Y010386D01*
X017682Y010405D01*
X017712Y010421D01*
X017744Y010433D01*
X017777Y010442D01*
X017811Y010447D01*
X017846Y010448D01*
X017880Y010445D01*
X017913Y010438D01*
X017946Y010428D01*
X017977Y010413D01*
X018006Y010396D01*
X018033Y010375D01*
X018058Y010351D01*
X018080Y010324D01*
X018098Y010296D01*
X018113Y010265D01*
X018125Y010233D01*
X018133Y010199D01*
X018137Y010165D01*
X018137Y010131D01*
X018133Y010097D01*
X018125Y010063D01*
X018113Y010031D01*
X018098Y010000D01*
X018080Y009972D01*
X018058Y009945D01*
X018033Y009921D01*
X018006Y009900D01*
X017977Y009883D01*
X017946Y009868D01*
X017913Y009858D01*
X017880Y009851D01*
X017846Y009848D01*
X017811Y009849D01*
X017777Y009854D01*
X017744Y009863D01*
X017712Y009875D01*
X017682Y009891D01*
X017654Y009910D01*
X017628Y009933D01*
X017605Y009958D01*
X017585Y009986D01*
X017568Y010016D01*
X017554Y010047D01*
X017545Y010080D01*
X017539Y010114D01*
X017537Y010148D01*
X017687Y010148D02*
X017987Y010148D01*
X016944Y009344D02*
X016946Y009427D01*
X016952Y009510D01*
X016962Y009592D01*
X016977Y009674D01*
X016995Y009755D01*
X017017Y009835D01*
X017043Y009914D01*
X017073Y009992D01*
X017107Y010068D01*
X017144Y010142D01*
X017185Y010214D01*
X017229Y010285D01*
X017277Y010353D01*
X017328Y010418D01*
X017383Y010481D01*
X017440Y010541D01*
X017500Y010598D01*
X017563Y010653D01*
X017628Y010704D01*
X017696Y010752D01*
X017767Y010796D01*
X017839Y010837D01*
X017913Y010874D01*
X017989Y010908D01*
X018067Y010938D01*
X018146Y010964D01*
X018226Y010986D01*
X018307Y011004D01*
X018389Y011019D01*
X018471Y011029D01*
X018554Y011035D01*
X018637Y011037D01*
X018720Y011035D01*
X018803Y011029D01*
X018885Y011019D01*
X018967Y011004D01*
X019048Y010986D01*
X019128Y010964D01*
X019207Y010938D01*
X019285Y010908D01*
X019361Y010874D01*
X019435Y010837D01*
X019507Y010796D01*
X019578Y010752D01*
X019646Y010704D01*
X019711Y010653D01*
X019774Y010598D01*
X019834Y010541D01*
X019891Y010481D01*
X019946Y010418D01*
X019997Y010353D01*
X020045Y010285D01*
X020089Y010214D01*
X020130Y010142D01*
X020167Y010068D01*
X020201Y009992D01*
X020231Y009914D01*
X020257Y009835D01*
X020279Y009755D01*
X020297Y009674D01*
X020312Y009592D01*
X020322Y009510D01*
X020328Y009427D01*
X020330Y009344D01*
X020328Y009261D01*
X020322Y009178D01*
X020312Y009096D01*
X020297Y009014D01*
X020279Y008933D01*
X020257Y008853D01*
X020231Y008774D01*
X020201Y008696D01*
X020167Y008620D01*
X020130Y008546D01*
X020089Y008474D01*
X020045Y008403D01*
X019997Y008335D01*
X019946Y008270D01*
X019891Y008207D01*
X019834Y008147D01*
X019774Y008090D01*
X019711Y008035D01*
X019646Y007984D01*
X019578Y007936D01*
X019507Y007892D01*
X019435Y007851D01*
X019361Y007814D01*
X019285Y007780D01*
X019207Y007750D01*
X019128Y007724D01*
X019048Y007702D01*
X018967Y007684D01*
X018885Y007669D01*
X018803Y007659D01*
X018720Y007653D01*
X018637Y007651D01*
X018554Y007653D01*
X018471Y007659D01*
X018389Y007669D01*
X018307Y007684D01*
X018226Y007702D01*
X018146Y007724D01*
X018067Y007750D01*
X017989Y007780D01*
X017913Y007814D01*
X017839Y007851D01*
X017767Y007892D01*
X017696Y007936D01*
X017628Y007984D01*
X017563Y008035D01*
X017500Y008090D01*
X017440Y008147D01*
X017383Y008207D01*
X017328Y008270D01*
X017277Y008335D01*
X017229Y008403D01*
X017185Y008474D01*
X017144Y008546D01*
X017107Y008620D01*
X017073Y008696D01*
X017043Y008774D01*
X017017Y008853D01*
X016995Y008933D01*
X016977Y009014D01*
X016962Y009096D01*
X016952Y009178D01*
X016946Y009261D01*
X016944Y009344D01*
X016787Y009344D02*
X016789Y009435D01*
X016796Y009525D01*
X016807Y009615D01*
X016823Y009705D01*
X016842Y009794D01*
X016867Y009881D01*
X016895Y009967D01*
X016928Y010052D01*
X016965Y010135D01*
X017005Y010216D01*
X017050Y010295D01*
X017099Y010372D01*
X017151Y010446D01*
X017207Y010518D01*
X017266Y010586D01*
X017329Y010652D01*
X017395Y010715D01*
X017463Y010774D01*
X017535Y010830D01*
X017609Y010882D01*
X017686Y010931D01*
X017765Y010976D01*
X017846Y011016D01*
X017929Y011053D01*
X018014Y011086D01*
X018100Y011114D01*
X018187Y011139D01*
X018276Y011158D01*
X018366Y011174D01*
X018456Y011185D01*
X018546Y011192D01*
X018637Y011194D01*
X018728Y011192D01*
X018818Y011185D01*
X018908Y011174D01*
X018998Y011158D01*
X019087Y011139D01*
X019174Y011114D01*
X019260Y011086D01*
X019345Y011053D01*
X019428Y011016D01*
X019509Y010976D01*
X019588Y010931D01*
X019665Y010882D01*
X019739Y010830D01*
X019811Y010774D01*
X019879Y010715D01*
X019945Y010652D01*
X020008Y010586D01*
X020067Y010518D01*
X020123Y010446D01*
X020175Y010372D01*
X020224Y010295D01*
X020269Y010216D01*
X020309Y010135D01*
X020346Y010052D01*
X020379Y009967D01*
X020407Y009881D01*
X020432Y009794D01*
X020451Y009705D01*
X020467Y009615D01*
X020478Y009525D01*
X020485Y009435D01*
X020487Y009344D01*
X020485Y009253D01*
X020478Y009163D01*
X020467Y009073D01*
X020451Y008983D01*
X020432Y008894D01*
X020407Y008807D01*
X020379Y008721D01*
X020346Y008636D01*
X020309Y008553D01*
X020269Y008472D01*
X020224Y008393D01*
X020175Y008316D01*
X020123Y008242D01*
X020067Y008170D01*
X020008Y008102D01*
X019945Y008036D01*
X019879Y007973D01*
X019811Y007914D01*
X019739Y007858D01*
X019665Y007806D01*
X019588Y007757D01*
X019509Y007712D01*
X019428Y007672D01*
X019345Y007635D01*
X019260Y007602D01*
X019174Y007574D01*
X019087Y007549D01*
X018998Y007530D01*
X018908Y007514D01*
X018818Y007503D01*
X018728Y007496D01*
X018637Y007494D01*
X018546Y007496D01*
X018456Y007503D01*
X018366Y007514D01*
X018276Y007530D01*
X018187Y007549D01*
X018100Y007574D01*
X018014Y007602D01*
X017929Y007635D01*
X017846Y007672D01*
X017765Y007712D01*
X017686Y007757D01*
X017609Y007806D01*
X017535Y007858D01*
X017463Y007914D01*
X017395Y007973D01*
X017329Y008036D01*
X017266Y008102D01*
X017207Y008170D01*
X017151Y008242D01*
X017099Y008316D01*
X017050Y008393D01*
X017005Y008472D01*
X016965Y008553D01*
X016928Y008636D01*
X016895Y008721D01*
X016867Y008807D01*
X016842Y008894D01*
X016823Y008983D01*
X016807Y009073D01*
X016796Y009163D01*
X016789Y009253D01*
X016787Y009344D01*
X021007Y008029D02*
X021007Y007709D01*
X021247Y007279D02*
X021567Y007279D01*
X021567Y007629D01*
X021567Y008109D02*
X021567Y008459D01*
X021407Y008459D01*
X021247Y008459D01*
X021277Y008339D02*
X021297Y008339D01*
X021316Y008343D01*
X021335Y008349D01*
X021353Y008359D01*
X021368Y008371D01*
X021382Y008385D01*
X021393Y008402D01*
X021401Y008420D01*
X021405Y008440D01*
X021407Y008459D01*
X026907Y010609D02*
X026907Y011199D01*
X026928Y011201D01*
X026948Y011206D01*
X026967Y011215D01*
X026984Y011227D01*
X026999Y011242D01*
X027011Y011259D01*
X027020Y011278D01*
X027025Y011298D01*
X027027Y011319D01*
X027025Y011340D01*
X027020Y011360D01*
X027011Y011379D01*
X026999Y011396D01*
X026984Y011411D01*
X026967Y011423D01*
X026948Y011432D01*
X026928Y011437D01*
X026907Y011439D01*
X026907Y012029D01*
X027037Y011019D02*
X027287Y011019D01*
X027037Y010669D01*
X027037Y011019D01*
X027037Y010996D02*
X027270Y010996D01*
X027228Y010937D02*
X027037Y010937D01*
X027037Y010879D02*
X027186Y010879D01*
X027144Y010820D02*
X027037Y010820D01*
X027037Y010762D02*
X027102Y010762D01*
X027061Y010703D02*
X027037Y010703D01*
X028867Y010609D02*
X028867Y012029D01*
X027537Y014019D02*
X027212Y014269D01*
X027537Y014494D01*
X027537Y014019D01*
X027537Y014038D02*
X027513Y014038D01*
X027537Y014096D02*
X027437Y014096D01*
X027361Y014155D02*
X027537Y014155D01*
X027537Y014213D02*
X027285Y014213D01*
X027215Y014272D02*
X027537Y014272D01*
X027537Y014330D02*
X027299Y014330D01*
X027384Y014389D02*
X027537Y014389D01*
X027537Y014447D02*
X027468Y014447D01*
X032521Y015480D02*
X032523Y015527D01*
X032529Y015575D01*
X032538Y015621D01*
X032551Y015667D01*
X032567Y015711D01*
X032588Y015755D01*
X032611Y015796D01*
X032637Y015835D01*
X032667Y015872D01*
X032700Y015907D01*
X032735Y015939D01*
X032772Y015968D01*
X033721Y015480D02*
X033719Y015435D01*
X033714Y015389D01*
X033706Y015345D01*
X033694Y015301D01*
X033678Y015258D01*
X033660Y015216D01*
X033638Y015176D01*
X033614Y015138D01*
X033587Y015102D01*
X033557Y015067D01*
X033524Y015036D01*
X033489Y015006D01*
X033721Y015480D02*
X033719Y015525D01*
X033714Y015571D01*
X033706Y015615D01*
X033694Y015659D01*
X033678Y015702D01*
X033660Y015744D01*
X033638Y015784D01*
X033614Y015822D01*
X033587Y015858D01*
X033557Y015893D01*
X033524Y015924D01*
X033489Y015954D01*
X032521Y015480D02*
X032523Y015434D01*
X032528Y015388D01*
X032537Y015342D01*
X032549Y015297D01*
X032565Y015254D01*
X032584Y015212D01*
X032607Y015171D01*
X032632Y015132D01*
X032660Y015096D01*
X032691Y015061D01*
X032725Y015029D01*
X032761Y015000D01*
X025862Y020219D02*
X025862Y021439D01*
X022262Y022319D02*
X022262Y020219D01*
X022262Y022319D02*
X022012Y022319D01*
X022120Y023449D02*
X022203Y023533D01*
X022203Y023867D01*
X022120Y023950D01*
X021870Y023950D01*
X021870Y023449D01*
X022120Y023449D01*
X021688Y023449D02*
X021688Y023783D01*
X021521Y023950D01*
X021354Y023783D01*
X021354Y023449D01*
X021172Y023533D02*
X021172Y023867D01*
X021089Y023950D01*
X020922Y023950D01*
X020839Y023867D01*
X020839Y023533D01*
X020922Y023449D01*
X021089Y023449D01*
X021172Y023533D01*
X021354Y023700D02*
X021688Y023700D01*
X020657Y023449D02*
X020323Y023449D01*
X020323Y023950D01*
X020141Y023366D02*
X019807Y023366D01*
X019625Y023449D02*
X019375Y023700D01*
X019292Y023616D02*
X019625Y023950D01*
X019292Y023950D02*
X019292Y023449D01*
X015599Y022714D02*
X014982Y022714D01*
X014980Y022735D01*
X014975Y022755D01*
X014966Y022774D01*
X014954Y022791D01*
X014939Y022806D01*
X014922Y022818D01*
X014903Y022827D01*
X014883Y022832D01*
X014862Y022834D01*
X014841Y022832D01*
X014821Y022827D01*
X014802Y022818D01*
X014785Y022806D01*
X014770Y022791D01*
X014758Y022774D01*
X014749Y022755D01*
X014744Y022735D01*
X014742Y022714D01*
X014125Y022714D01*
X015137Y022969D02*
X015137Y023219D01*
X015487Y022969D01*
X015137Y022969D01*
X015137Y022988D02*
X015461Y022988D01*
X015379Y023047D02*
X015137Y023047D01*
X015137Y023105D02*
X015297Y023105D01*
X015215Y023164D02*
X015137Y023164D01*
X015599Y024674D02*
X014125Y024674D01*
X015562Y026319D02*
X022262Y026319D01*
X022288Y026321D01*
X022314Y026326D01*
X022339Y026334D01*
X022362Y026346D01*
X022384Y026360D01*
X022403Y026378D01*
X022421Y026397D01*
X022435Y026419D01*
X022447Y026442D01*
X022455Y026467D01*
X022460Y026493D01*
X022462Y026519D01*
X022462Y029319D01*
X022460Y029345D01*
X022455Y029371D01*
X022447Y029396D01*
X022435Y029419D01*
X022421Y029441D01*
X022403Y029460D01*
X022384Y029478D01*
X022362Y029492D01*
X022339Y029504D01*
X022314Y029512D01*
X022288Y029517D01*
X022262Y029519D01*
X015562Y029519D01*
X015536Y029517D01*
X015510Y029512D01*
X015485Y029504D01*
X015462Y029492D01*
X015440Y029478D01*
X015421Y029460D01*
X015403Y029441D01*
X015389Y029419D01*
X015377Y029396D01*
X015369Y029371D01*
X015364Y029345D01*
X015362Y029319D01*
X015362Y026519D01*
X015364Y026493D01*
X015369Y026467D01*
X015377Y026442D01*
X015389Y026419D01*
X015403Y026397D01*
X015421Y026378D01*
X015440Y026360D01*
X015462Y026346D01*
X015485Y026334D01*
X015510Y026326D01*
X015536Y026321D01*
X015562Y026319D01*
X014362Y027594D02*
X011562Y027594D01*
X011562Y030994D01*
X014362Y030994D01*
X014362Y027594D01*
X014262Y027994D02*
X014262Y030594D01*
X013242Y030594D01*
X012682Y030594D02*
X011662Y030594D01*
X011662Y027994D01*
X012682Y027994D01*
X012462Y027904D02*
X012462Y027604D01*
X012312Y027754D02*
X012612Y027754D01*
X012312Y027994D02*
X011662Y028644D01*
X013242Y027994D02*
X013612Y027994D01*
X014262Y028644D01*
X014712Y028619D02*
X014862Y028394D01*
X015012Y028619D01*
X014712Y028619D01*
X014722Y028604D02*
X015001Y028604D01*
X014962Y028546D02*
X014761Y028546D01*
X014800Y028487D02*
X014923Y028487D01*
X014884Y028429D02*
X014839Y028429D01*
X014262Y027994D02*
X013612Y027994D01*
X016512Y027919D02*
X016912Y027919D01*
X017262Y027919D02*
X021312Y027919D01*
X023347Y028254D02*
X023347Y028414D01*
X023347Y028574D01*
X023697Y028574D01*
X023467Y028285D02*
X023467Y028305D01*
X023463Y028324D01*
X023457Y028343D01*
X023447Y028361D01*
X023435Y028376D01*
X023421Y028390D01*
X023404Y028401D01*
X023386Y028409D01*
X023366Y028413D01*
X023347Y028415D01*
X023777Y028014D02*
X024097Y028014D01*
X024527Y028254D02*
X024527Y028574D01*
X024177Y028574D01*
X024087Y030119D02*
X024237Y030344D01*
X024387Y030119D01*
X024087Y030119D01*
X024090Y030125D02*
X024383Y030125D01*
X024344Y030184D02*
X024129Y030184D01*
X024168Y030242D02*
X024305Y030242D01*
X024266Y030301D02*
X024207Y030301D01*
X025997Y025399D02*
X025997Y025239D01*
X025997Y025079D01*
X026117Y025110D02*
X026117Y025130D01*
X026113Y025149D01*
X026107Y025168D01*
X026097Y025186D01*
X026085Y025201D01*
X026071Y025215D01*
X026054Y025226D01*
X026036Y025234D01*
X026016Y025238D01*
X025997Y025240D01*
X025997Y025399D02*
X026347Y025399D01*
X026827Y025399D02*
X027177Y025399D01*
X027177Y025079D01*
X026747Y024839D02*
X026427Y024839D01*
X027687Y024544D02*
X027837Y024769D01*
X027987Y024544D01*
X027687Y024544D01*
X027702Y024568D02*
X027971Y024568D01*
X027932Y024626D02*
X027741Y024626D01*
X027780Y024685D02*
X027893Y024685D01*
X027854Y024743D02*
X027819Y024743D01*
X029287Y023194D02*
X029287Y022944D01*
X031387Y022944D01*
X031637Y023694D02*
X031637Y024094D01*
X019887Y014044D02*
X017287Y014044D01*
X019237Y014044D02*
X019887Y013394D01*
X019887Y014044D01*
X019887Y013394D02*
X019887Y013024D01*
X007172Y027314D02*
X006852Y027314D01*
X006422Y027554D02*
X006422Y027714D01*
X006422Y027874D01*
X006772Y027874D01*
X006542Y027585D02*
X006542Y027605D01*
X006538Y027624D01*
X006532Y027643D01*
X006522Y027661D01*
X006510Y027676D01*
X006496Y027690D01*
X006479Y027701D01*
X006461Y027709D01*
X006441Y027713D01*
X006422Y027715D01*
X007252Y027874D02*
X007602Y027874D01*
X007602Y027554D01*
X009452Y030314D02*
X009772Y030314D01*
X010202Y030554D02*
X010202Y030874D01*
X009852Y030874D01*
X009372Y030874D02*
X009022Y030874D01*
X009022Y030714D01*
X009022Y030554D01*
X009142Y030585D02*
X009142Y030605D01*
X009138Y030624D01*
X009132Y030643D01*
X009122Y030661D01*
X009110Y030676D01*
X009096Y030690D01*
X009079Y030701D01*
X009061Y030709D01*
X009041Y030713D01*
X009022Y030715D01*
X015362Y031119D02*
X015587Y030969D01*
X015587Y031269D01*
X015362Y031119D01*
X015362Y031120D02*
X015587Y031120D01*
X015587Y031178D02*
X015450Y031178D01*
X015537Y031237D02*
X015587Y031237D01*
X015587Y031061D02*
X015449Y031061D01*
X015537Y031003D02*
X015587Y031003D01*
D817*
X016481Y032030D02*
X016481Y034609D01*
X012228Y034609D01*
X012228Y034363D02*
X012228Y034973D01*
X016924Y034973D01*
X016924Y031666D01*
X006050Y031666D01*
X006050Y034973D01*
X007649Y034973D01*
X007649Y034855D01*
X008231Y034855D01*
X008231Y034973D01*
X010745Y034973D01*
X012228Y034973D01*
X012228Y034363D02*
X010745Y034363D01*
X010745Y034973D01*
X010745Y034609D02*
X006493Y034609D01*
X006493Y032030D01*
X016481Y032030D01*
X015762Y025894D02*
X015262Y025894D01*
X015012Y025644D01*
X014762Y025894D01*
X014262Y025894D01*
X014012Y025644D01*
X013762Y025894D01*
X013262Y025894D01*
X013012Y025644D01*
X012762Y025894D01*
X012262Y025894D01*
X012012Y025644D01*
X011762Y025894D01*
X011262Y025894D01*
X011012Y025644D01*
X010762Y025894D01*
X010262Y025894D01*
X010012Y025644D01*
X010012Y025144D01*
X010262Y024894D01*
X010762Y024894D01*
X011012Y025144D01*
X011262Y024894D01*
X011762Y024894D01*
X012012Y025144D01*
X012262Y024894D01*
X012762Y024894D01*
X013012Y025144D01*
X013262Y024894D01*
X013762Y024894D01*
X014012Y025144D01*
X014262Y024894D01*
X014762Y024894D01*
X015012Y025144D01*
X015262Y024894D01*
X015762Y024894D01*
X016012Y025144D01*
X016012Y025644D01*
X015762Y025894D01*
X017012Y025644D02*
X017012Y025144D01*
X017262Y024894D01*
X017762Y024894D01*
X018012Y025144D01*
X018262Y024894D01*
X018762Y024894D01*
X019012Y025144D01*
X019262Y024894D01*
X019762Y024894D01*
X020012Y025144D01*
X020262Y024894D01*
X020762Y024894D01*
X021012Y025144D01*
X021262Y024894D01*
X021762Y024894D01*
X022012Y025144D01*
X022262Y024894D01*
X022762Y024894D01*
X023012Y025144D01*
X023262Y024894D01*
X023762Y024894D01*
X024012Y025144D01*
X024262Y024894D01*
X024762Y024894D01*
X025012Y025144D01*
X025012Y025644D01*
X024762Y025894D01*
X024262Y025894D01*
X024012Y025644D01*
X023762Y025894D01*
X023262Y025894D01*
X023012Y025644D01*
X022762Y025894D01*
X022262Y025894D01*
X022012Y025644D01*
X021762Y025894D01*
X021262Y025894D01*
X021012Y025644D01*
X020762Y025894D01*
X020262Y025894D01*
X020012Y025644D01*
X019762Y025894D01*
X019262Y025894D01*
X019012Y025644D01*
X018762Y025894D01*
X018262Y025894D01*
X018012Y025644D01*
X017762Y025894D01*
X017262Y025894D01*
X017012Y025644D01*
X024817Y026234D02*
X024817Y031154D01*
X036147Y031154D01*
X036147Y030704D01*
X036147Y029684D02*
X036147Y027704D01*
X036147Y026684D02*
X036147Y026234D01*
X024817Y026234D01*
X005920Y022220D02*
X005156Y022220D01*
X005156Y009119D01*
X005920Y009119D01*
X005920Y022220D01*
X010262Y006894D02*
X010762Y006894D01*
X011012Y006644D01*
X011262Y006894D01*
X011762Y006894D01*
X012012Y006644D01*
X012262Y006894D01*
X012762Y006894D01*
X013012Y006644D01*
X013262Y006894D01*
X013762Y006894D01*
X014012Y006644D01*
X014262Y006894D01*
X014762Y006894D01*
X015012Y006644D01*
X015262Y006894D01*
X015762Y006894D01*
X016012Y006644D01*
X016262Y006894D01*
X016762Y006894D01*
X017012Y006644D01*
X017262Y006894D01*
X017762Y006894D01*
X018012Y006644D01*
X018012Y006144D01*
X017762Y005894D01*
X017262Y005894D01*
X017012Y006144D01*
X016762Y005894D01*
X016262Y005894D01*
X016012Y006144D01*
X015762Y005894D01*
X015262Y005894D01*
X015012Y006144D01*
X014762Y005894D01*
X014262Y005894D01*
X014012Y006144D01*
X013762Y005894D01*
X013262Y005894D01*
X013012Y006144D01*
X012762Y005894D01*
X012262Y005894D01*
X012012Y006144D01*
X011762Y005894D01*
X011262Y005894D01*
X011012Y006144D01*
X010762Y005894D01*
X010262Y005894D01*
X010012Y006144D01*
X010012Y006644D01*
X010262Y006894D01*
X018612Y006644D02*
X018612Y006144D01*
X018862Y005894D01*
X019362Y005894D01*
X019612Y006144D01*
X019862Y005894D01*
X020362Y005894D01*
X020612Y006144D01*
X020862Y005894D01*
X021362Y005894D01*
X021612Y006144D01*
X021862Y005894D01*
X022362Y005894D01*
X022612Y006144D01*
X022862Y005894D01*
X023362Y005894D01*
X023612Y006144D01*
X023862Y005894D01*
X024362Y005894D01*
X024612Y006144D01*
X024862Y005894D01*
X025362Y005894D01*
X025612Y006144D01*
X025862Y005894D01*
X026362Y005894D01*
X026612Y006144D01*
X026862Y005894D01*
X027362Y005894D01*
X027612Y006144D01*
X027862Y005894D01*
X028362Y005894D01*
X028612Y006144D01*
X028612Y006644D01*
X028362Y006894D01*
X027862Y006894D01*
X027612Y006644D01*
X027362Y006894D01*
X026862Y006894D01*
X026612Y006644D01*
X026362Y006894D01*
X025862Y006894D01*
X025612Y006644D01*
X025362Y006894D01*
X024862Y006894D01*
X024612Y006644D01*
X024362Y006894D01*
X023862Y006894D01*
X023612Y006644D01*
X023362Y006894D01*
X022862Y006894D01*
X022612Y006644D01*
X022362Y006894D01*
X021862Y006894D01*
X021612Y006644D01*
X021362Y006894D01*
X020862Y006894D01*
X020612Y006644D01*
X020362Y006894D01*
X019862Y006894D01*
X019612Y006644D01*
X019362Y006894D01*
X018862Y006894D01*
X018612Y006644D01*
D818*
X007675Y008961D02*
X007675Y009095D01*
X007608Y009162D01*
X007675Y008961D02*
X007608Y008893D01*
X007541Y008893D01*
X007272Y009162D01*
X007272Y008893D01*
X006685Y009014D02*
X006282Y009014D01*
X006282Y008880D02*
X006282Y009149D01*
X006551Y009149D02*
X006685Y009014D01*
D819*
X004007Y009669D03*
X004007Y010669D03*
X004007Y011669D03*
X004007Y012669D03*
X004007Y013669D03*
X004007Y014669D03*
X004007Y015669D03*
X004007Y016669D03*
X004007Y017669D03*
X004007Y018669D03*
X004007Y019669D03*
X004007Y020669D03*
X004007Y021669D03*
D820*
X007825Y022418D02*
X007825Y023971D01*
X008599Y023971D01*
X008599Y022418D01*
X007825Y022418D01*
X008600Y022418D02*
X009374Y022418D01*
X009374Y023971D01*
X008600Y023971D01*
X008600Y022418D01*
X009375Y022415D02*
X009375Y023674D01*
X010149Y023674D01*
X010149Y022415D01*
X009375Y022415D01*
X010285Y023257D02*
X010285Y024031D01*
X011838Y024031D01*
X011838Y023257D01*
X010285Y023257D01*
X010282Y024032D02*
X010282Y024806D01*
X011542Y024806D01*
X011542Y024032D01*
X010282Y024032D01*
X008724Y024943D02*
X007950Y024943D01*
X007950Y026496D01*
X008724Y026496D01*
X008724Y024943D01*
X007763Y025882D02*
X007763Y026656D01*
X006210Y026656D01*
X006210Y025882D01*
X007763Y025882D01*
X008860Y028907D02*
X008860Y029681D01*
X010413Y029681D01*
X010413Y028907D01*
X008860Y028907D01*
X011410Y027381D02*
X012963Y027381D01*
X012963Y026607D01*
X011410Y026607D01*
X011410Y027381D01*
X012107Y023331D02*
X013367Y023331D01*
X013367Y022557D01*
X012107Y022557D01*
X012107Y023331D01*
X010163Y020481D02*
X008610Y020481D01*
X008610Y019707D01*
X010163Y019707D01*
X010163Y020481D01*
X010163Y019706D02*
X008610Y019706D01*
X008610Y018932D01*
X010163Y018932D01*
X010163Y019706D01*
X015150Y016596D02*
X015924Y016596D01*
X015924Y015043D01*
X015150Y015043D01*
X015150Y016596D01*
X015925Y016596D02*
X016699Y016596D01*
X016699Y015043D01*
X015925Y015043D01*
X015925Y016596D01*
X015924Y015046D02*
X015150Y015046D01*
X015150Y013493D01*
X015924Y013493D01*
X015924Y015046D01*
X015925Y015046D02*
X016699Y015046D01*
X016699Y013493D01*
X015925Y013493D01*
X015925Y015046D01*
X015925Y013496D02*
X016699Y013496D01*
X016699Y011943D01*
X015925Y011943D01*
X015925Y013496D01*
X013472Y013681D02*
X013472Y012128D01*
X012698Y012128D01*
X012698Y013681D01*
X013472Y013681D01*
X012556Y013681D02*
X011782Y013681D01*
X011782Y012128D01*
X012556Y012128D01*
X012556Y013681D01*
X012774Y009646D02*
X012000Y009646D01*
X012000Y008093D01*
X012774Y008093D01*
X012774Y009646D01*
X015900Y009396D02*
X015900Y007843D01*
X016674Y007843D01*
X016674Y009396D01*
X015900Y009396D01*
X020635Y009381D02*
X020635Y008607D01*
X022188Y008607D01*
X022188Y009381D01*
X020635Y009381D01*
X023175Y009621D02*
X023175Y008068D01*
X023949Y008068D01*
X023949Y009621D01*
X023175Y009621D01*
X023950Y009621D02*
X024724Y009621D01*
X024724Y008068D01*
X023950Y008068D01*
X023950Y009621D01*
X024725Y009621D02*
X025499Y009621D01*
X025499Y008068D01*
X024725Y008068D01*
X024725Y009621D01*
X025500Y009621D02*
X026274Y009621D01*
X026274Y008068D01*
X025500Y008068D01*
X025500Y009621D01*
X026025Y009990D02*
X026025Y011249D01*
X026799Y011249D01*
X026799Y009990D01*
X026025Y009990D01*
X026288Y009031D02*
X026288Y008157D01*
X028235Y008157D01*
X028235Y009031D01*
X026288Y009031D01*
X026288Y008156D02*
X026288Y007282D01*
X028235Y007282D01*
X028235Y008156D01*
X026288Y008156D01*
X028560Y007782D02*
X028560Y008556D01*
X030113Y008556D01*
X030113Y007782D01*
X028560Y007782D01*
X029635Y009007D02*
X029635Y009781D01*
X031188Y009781D01*
X031188Y009007D01*
X029635Y009007D01*
X029635Y009782D02*
X029635Y010556D01*
X031188Y010556D01*
X031188Y009782D01*
X029635Y009782D01*
X029635Y010757D02*
X029635Y011531D01*
X031188Y011531D01*
X031188Y010757D01*
X029635Y010757D01*
X029635Y011532D02*
X029635Y012306D01*
X031188Y012306D01*
X031188Y011532D01*
X029635Y011532D01*
X029999Y012618D02*
X029225Y012618D01*
X029225Y014171D01*
X029999Y014171D01*
X029999Y012618D01*
X030000Y012618D02*
X030774Y012618D01*
X030774Y014171D01*
X030000Y014171D01*
X030000Y012618D01*
X030388Y014257D02*
X028835Y014257D01*
X028835Y015031D01*
X030388Y015031D01*
X030388Y014257D01*
X028485Y015182D02*
X028485Y015956D01*
X026538Y015956D01*
X026538Y015182D01*
X028485Y015182D01*
X026749Y013796D02*
X025975Y013796D01*
X025975Y012243D01*
X026749Y012243D01*
X026749Y013796D01*
X026538Y015182D02*
X024985Y015182D01*
X024985Y015956D01*
X026538Y015956D01*
X026538Y015182D01*
X020849Y015018D02*
X020075Y015018D01*
X020075Y016571D01*
X020849Y016571D01*
X020849Y015018D01*
X025785Y023382D02*
X025785Y024156D01*
X027338Y024156D01*
X027338Y023382D01*
X025785Y023382D01*
X024613Y026557D02*
X023060Y026557D01*
X023060Y027331D01*
X024613Y027331D01*
X024613Y026557D01*
X021376Y029789D02*
X021376Y031350D01*
X018248Y031350D01*
X018248Y029789D01*
X021376Y029789D01*
X017988Y029807D02*
X017988Y030581D01*
X016435Y030581D01*
X016435Y029807D01*
X017988Y029807D01*
X034075Y016296D02*
X034849Y016296D01*
X034849Y014743D01*
X034075Y014743D01*
X034075Y016296D01*
X035285Y022657D02*
X035285Y023431D01*
X036838Y023431D01*
X036838Y022657D01*
X035285Y022657D01*
D821*
X027150Y014269D03*
X015300Y031119D03*
D822*
X017117Y020919D03*
X017117Y018494D03*
X009857Y018494D03*
X009857Y020919D03*
D823*
X009880Y012724D02*
X009882Y012670D01*
X009887Y012616D01*
X009896Y012563D01*
X009909Y012510D01*
X009925Y012459D01*
X009945Y012409D01*
X009968Y012360D01*
X009994Y012312D01*
X010023Y012267D01*
X010056Y012224D01*
X010091Y012183D01*
X010129Y012144D01*
X010169Y012108D01*
X010212Y012075D01*
X010257Y012045D01*
X010304Y012018D01*
X011077Y012029D02*
X011125Y012059D01*
X011170Y012092D01*
X011213Y012128D01*
X011254Y012166D01*
X011291Y012208D01*
X011326Y012252D01*
X011357Y012298D01*
X011386Y012347D01*
X011410Y012397D01*
X011431Y012449D01*
X011449Y012503D01*
X011462Y012557D01*
X011472Y012612D01*
X011478Y012668D01*
X011480Y012724D01*
X011478Y012777D01*
X011473Y012831D01*
X011464Y012883D01*
X011452Y012935D01*
X011436Y012986D01*
X011417Y013036D01*
X011394Y013085D01*
X011368Y013132D01*
X011340Y013177D01*
X011308Y013220D01*
X011274Y013260D01*
X011236Y013299D01*
X011197Y013335D01*
X010168Y013339D02*
X010128Y013303D01*
X010090Y013264D01*
X010055Y013223D01*
X010023Y013180D01*
X009993Y013135D01*
X009967Y013088D01*
X009945Y013039D01*
X009925Y012988D01*
X009909Y012937D01*
X009896Y012885D01*
X009887Y012831D01*
X009882Y012778D01*
X009880Y012724D01*
X015014Y012029D02*
X015062Y012059D01*
X015107Y012092D01*
X015150Y012128D01*
X015191Y012166D01*
X015228Y012208D01*
X015263Y012252D01*
X015294Y012298D01*
X015323Y012347D01*
X015347Y012397D01*
X015368Y012449D01*
X015386Y012503D01*
X015399Y012557D01*
X015409Y012612D01*
X015415Y012668D01*
X015417Y012724D01*
X014241Y012018D02*
X014194Y012045D01*
X014149Y012075D01*
X014106Y012108D01*
X014066Y012144D01*
X014028Y012183D01*
X013993Y012224D01*
X013960Y012267D01*
X013931Y012312D01*
X013905Y012360D01*
X013882Y012409D01*
X013862Y012459D01*
X013846Y012510D01*
X013833Y012563D01*
X013824Y012616D01*
X013819Y012670D01*
X013817Y012724D01*
X015134Y013335D02*
X015173Y013299D01*
X015211Y013260D01*
X015245Y013220D01*
X015277Y013177D01*
X015305Y013132D01*
X015331Y013085D01*
X015354Y013036D01*
X015373Y012986D01*
X015389Y012935D01*
X015401Y012883D01*
X015410Y012831D01*
X015415Y012777D01*
X015417Y012724D01*
X014105Y013339D02*
X014065Y013303D01*
X014027Y013264D01*
X013992Y013223D01*
X013960Y013180D01*
X013930Y013135D01*
X013904Y013088D01*
X013882Y013039D01*
X013862Y012988D01*
X013846Y012937D01*
X013833Y012885D01*
X013824Y012831D01*
X013819Y012778D01*
X013817Y012724D01*
X020826Y010874D02*
X020826Y014615D01*
X020828Y014654D01*
X020834Y014692D01*
X020843Y014729D01*
X020856Y014766D01*
X020873Y014801D01*
X020892Y014834D01*
X020915Y014865D01*
X020941Y014894D01*
X020970Y014920D01*
X021001Y014943D01*
X021034Y014962D01*
X021069Y014979D01*
X021106Y014992D01*
X021143Y015001D01*
X021181Y015007D01*
X021220Y015009D01*
X021220Y015008D02*
X021981Y015008D01*
X024593Y015008D02*
X025354Y015008D01*
X025354Y015009D02*
X025393Y015007D01*
X025431Y015001D01*
X025468Y014992D01*
X025505Y014979D01*
X025540Y014962D01*
X025573Y014943D01*
X025604Y014920D01*
X025633Y014894D01*
X025659Y014865D01*
X025682Y014834D01*
X025701Y014801D01*
X025718Y014766D01*
X025731Y014729D01*
X025740Y014692D01*
X025746Y014654D01*
X025748Y014615D01*
X025747Y014615D02*
X025747Y010874D01*
X025748Y010874D02*
X025746Y010835D01*
X025740Y010797D01*
X025731Y010760D01*
X025718Y010723D01*
X025701Y010688D01*
X025682Y010655D01*
X025659Y010624D01*
X025633Y010595D01*
X025604Y010569D01*
X025573Y010546D01*
X025540Y010527D01*
X025505Y010510D01*
X025468Y010497D01*
X025431Y010488D01*
X025393Y010482D01*
X025354Y010480D01*
X025354Y010481D02*
X024593Y010481D01*
X021981Y010481D02*
X021220Y010481D01*
X021220Y010480D02*
X021181Y010482D01*
X021143Y010488D01*
X021106Y010497D01*
X021069Y010510D01*
X021034Y010527D01*
X021001Y010546D01*
X020970Y010569D01*
X020941Y010595D01*
X020915Y010624D01*
X020892Y010655D01*
X020873Y010688D01*
X020856Y010723D01*
X020843Y010760D01*
X020834Y010797D01*
X020828Y010835D01*
X020826Y010874D01*
X021762Y019719D02*
X022262Y019719D01*
X022762Y019719D01*
X022762Y020219D01*
X022262Y020219D01*
X021762Y020219D01*
X025612Y019969D02*
X025862Y020219D01*
X025992Y020339D01*
X031387Y022444D02*
X031387Y022944D01*
X031387Y023444D01*
X031887Y023444D02*
X031887Y022944D01*
X031887Y022444D01*
X031387Y022444D01*
X031637Y019594D02*
X031887Y019344D01*
X032007Y019214D01*
X032321Y015480D02*
X032323Y015426D01*
X032328Y015372D01*
X032337Y015319D01*
X032350Y015266D01*
X032366Y015215D01*
X032386Y015165D01*
X032409Y015116D01*
X032435Y015068D01*
X032464Y015023D01*
X032497Y014980D01*
X032532Y014939D01*
X032570Y014900D01*
X032610Y014864D01*
X032653Y014831D01*
X032698Y014801D01*
X032745Y014774D01*
X033518Y014785D02*
X033566Y014815D01*
X033611Y014848D01*
X033654Y014884D01*
X033695Y014922D01*
X033732Y014964D01*
X033767Y015008D01*
X033798Y015054D01*
X033827Y015103D01*
X033851Y015153D01*
X033872Y015205D01*
X033890Y015259D01*
X033903Y015313D01*
X033913Y015368D01*
X033919Y015424D01*
X033921Y015480D01*
X033919Y015533D01*
X033914Y015587D01*
X033905Y015639D01*
X033893Y015691D01*
X033877Y015742D01*
X033858Y015792D01*
X033835Y015841D01*
X033809Y015888D01*
X033781Y015933D01*
X033749Y015976D01*
X033715Y016016D01*
X033677Y016055D01*
X033638Y016091D01*
X032609Y016095D02*
X032569Y016059D01*
X032531Y016020D01*
X032496Y015979D01*
X032464Y015936D01*
X032434Y015891D01*
X032408Y015844D01*
X032386Y015795D01*
X032366Y015744D01*
X032350Y015693D01*
X032337Y015641D01*
X032328Y015587D01*
X032323Y015534D01*
X032321Y015480D01*
D824*
X035532Y012931D02*
X035534Y012979D01*
X035540Y013027D01*
X035550Y013074D01*
X035563Y013120D01*
X035581Y013165D01*
X035601Y013209D01*
X035626Y013251D01*
X035654Y013290D01*
X035684Y013327D01*
X035718Y013361D01*
X035755Y013393D01*
X035793Y013422D01*
X035834Y013447D01*
X035877Y013469D01*
X035922Y013487D01*
X035968Y013501D01*
X036015Y013512D01*
X036063Y013519D01*
X036111Y013522D01*
X036159Y013521D01*
X036207Y013516D01*
X036255Y013507D01*
X036301Y013495D01*
X036346Y013478D01*
X036390Y013458D01*
X036432Y013435D01*
X036472Y013408D01*
X036510Y013378D01*
X036545Y013345D01*
X036577Y013309D01*
X036607Y013271D01*
X036633Y013230D01*
X036655Y013187D01*
X036675Y013143D01*
X036690Y013098D01*
X036702Y013051D01*
X036710Y013003D01*
X036714Y012955D01*
X036714Y012907D01*
X036710Y012859D01*
X036702Y012811D01*
X036690Y012764D01*
X036675Y012719D01*
X036655Y012675D01*
X036633Y012632D01*
X036607Y012591D01*
X036577Y012553D01*
X036545Y012517D01*
X036510Y012484D01*
X036472Y012454D01*
X036432Y012427D01*
X036390Y012404D01*
X036346Y012384D01*
X036301Y012367D01*
X036255Y012355D01*
X036207Y012346D01*
X036159Y012341D01*
X036111Y012340D01*
X036063Y012343D01*
X036015Y012350D01*
X035968Y012361D01*
X035922Y012375D01*
X035877Y012393D01*
X035834Y012415D01*
X035793Y012440D01*
X035755Y012469D01*
X035718Y012501D01*
X035684Y012535D01*
X035654Y012572D01*
X035626Y012611D01*
X035601Y012653D01*
X035581Y012697D01*
X035563Y012742D01*
X035550Y012788D01*
X035540Y012835D01*
X035534Y012883D01*
X035532Y012931D01*
X035532Y009624D02*
X035534Y009672D01*
X035540Y009720D01*
X035550Y009767D01*
X035563Y009813D01*
X035581Y009858D01*
X035601Y009902D01*
X035626Y009944D01*
X035654Y009983D01*
X035684Y010020D01*
X035718Y010054D01*
X035755Y010086D01*
X035793Y010115D01*
X035834Y010140D01*
X035877Y010162D01*
X035922Y010180D01*
X035968Y010194D01*
X036015Y010205D01*
X036063Y010212D01*
X036111Y010215D01*
X036159Y010214D01*
X036207Y010209D01*
X036255Y010200D01*
X036301Y010188D01*
X036346Y010171D01*
X036390Y010151D01*
X036432Y010128D01*
X036472Y010101D01*
X036510Y010071D01*
X036545Y010038D01*
X036577Y010002D01*
X036607Y009964D01*
X036633Y009923D01*
X036655Y009880D01*
X036675Y009836D01*
X036690Y009791D01*
X036702Y009744D01*
X036710Y009696D01*
X036714Y009648D01*
X036714Y009600D01*
X036710Y009552D01*
X036702Y009504D01*
X036690Y009457D01*
X036675Y009412D01*
X036655Y009368D01*
X036633Y009325D01*
X036607Y009284D01*
X036577Y009246D01*
X036545Y009210D01*
X036510Y009177D01*
X036472Y009147D01*
X036432Y009120D01*
X036390Y009097D01*
X036346Y009077D01*
X036301Y009060D01*
X036255Y009048D01*
X036207Y009039D01*
X036159Y009034D01*
X036111Y009033D01*
X036063Y009036D01*
X036015Y009043D01*
X035968Y009054D01*
X035922Y009068D01*
X035877Y009086D01*
X035834Y009108D01*
X035793Y009133D01*
X035755Y009162D01*
X035718Y009194D01*
X035684Y009228D01*
X035654Y009265D01*
X035626Y009304D01*
X035601Y009346D01*
X035581Y009390D01*
X035563Y009435D01*
X035550Y009481D01*
X035540Y009528D01*
X035534Y009576D01*
X035532Y009624D01*
D825*
X018737Y017706D03*
X027837Y024831D03*
X024237Y030406D03*
X014862Y028333D03*
D826*
X016912Y028419D02*
X016912Y027919D01*
X016912Y027419D01*
X017262Y027419D02*
X017262Y027919D01*
X017262Y028419D01*
M02*
