G75*
G70*
%OFA0B0*%
%FSLAX24Y24*%
%IPPOS*%
%LPD*%
%AMOC8*
5,1,8,0,0,1.08239X$1,22.5*
%
%ADD10OC8,0.0674*%
%ADD11OC8,0.0634*%
%ADD12OC8,0.0680*%
%ADD13C,0.0860*%
%ADD14C,0.0780*%
%ADD15OC8,0.0780*%
%ADD16C,0.1299*%
%ADD17C,0.1299*%
%ADD18C,0.1100*%
%ADD19OC8,0.0600*%
%ADD20C,0.0848*%
%ADD21R,0.0674X0.0674*%
%ADD22C,0.0674*%
%ADD23R,0.0671X0.0592*%
%ADD24R,0.1340X0.0789*%
%ADD25C,0.2365*%
%ADD26C,0.2562*%
D10*
X006481Y007307D03*
X007481Y007307D03*
X007481Y008307D03*
X006481Y008307D03*
X006481Y009307D03*
X007481Y009307D03*
X007481Y010307D03*
X006481Y010307D03*
X006481Y011307D03*
X007481Y011307D03*
X007481Y012307D03*
X006481Y012307D03*
X006481Y013307D03*
X007481Y013307D03*
X007481Y014307D03*
X006481Y014307D03*
X006481Y015307D03*
X007481Y015307D03*
X007481Y016307D03*
X006481Y016307D03*
X006481Y017307D03*
X007481Y017307D03*
X007481Y018307D03*
X006481Y018307D03*
X006481Y019307D03*
X007481Y019307D03*
D11*
X010431Y023032D03*
X011431Y023032D03*
X012431Y023032D03*
X013431Y023032D03*
X014431Y023032D03*
X015431Y023032D03*
X017431Y023032D03*
X018431Y023032D03*
X019431Y023032D03*
X020431Y023032D03*
X021431Y023032D03*
X022431Y023032D03*
X023431Y023032D03*
X024431Y023032D03*
X010381Y014032D03*
X009381Y014032D03*
X009381Y013032D03*
X010381Y013032D03*
X010381Y012032D03*
X010431Y004032D03*
X011431Y004032D03*
X012431Y004032D03*
X013431Y004032D03*
X014431Y004032D03*
X015431Y004032D03*
X016431Y004032D03*
X017431Y004032D03*
X019031Y004032D03*
X020031Y004032D03*
X021031Y004032D03*
X022031Y004032D03*
X023031Y004032D03*
X024031Y004032D03*
X025031Y004032D03*
X026031Y004032D03*
X027031Y004032D03*
X028031Y004032D03*
D12*
X017906Y015632D03*
X017906Y018057D03*
X009381Y012032D03*
X008906Y015632D03*
X008906Y018057D03*
X015881Y025557D03*
X021781Y025557D03*
D13*
X021371Y019957D02*
X020591Y019957D01*
X020571Y017607D02*
X019791Y017607D01*
X020591Y015257D02*
X021371Y015257D01*
X025391Y015257D02*
X026171Y015257D01*
X029206Y016592D02*
X029206Y017372D01*
X026171Y019957D02*
X025391Y019957D01*
X029206Y021392D02*
X029206Y022172D01*
X031556Y022192D02*
X031556Y022972D01*
X033906Y022172D02*
X033906Y021392D01*
X033906Y017372D02*
X033906Y016592D01*
D14*
X018556Y006195D03*
D15*
X018556Y007770D03*
D16*
X032577Y007262D02*
X033759Y007262D01*
X033759Y008916D02*
X032577Y008916D01*
X032577Y010569D02*
X033759Y010569D01*
D17*
X036042Y010569D03*
X036042Y007262D03*
X035516Y024844D03*
X033532Y024844D03*
X031548Y024844D03*
X031548Y027820D03*
X033532Y027820D03*
X035516Y027820D03*
D18*
X034106Y030282D02*
X034106Y031282D01*
X032137Y031282D02*
X032137Y030282D01*
X030169Y030282D02*
X030169Y031282D01*
X026931Y031282D02*
X026931Y030282D01*
X024962Y030282D02*
X024962Y031282D01*
X022994Y031282D02*
X022994Y030282D01*
X021025Y030282D02*
X021025Y031282D01*
X019057Y031282D02*
X019057Y030282D01*
X036231Y019644D02*
X037231Y019644D01*
X037231Y017676D02*
X036231Y017676D01*
X036231Y015707D02*
X037231Y015707D01*
D19*
X033040Y013618D03*
X033040Y012618D03*
X014536Y010862D03*
X014536Y009862D03*
X010599Y009862D03*
X010599Y010862D03*
D20*
X025595Y024844D03*
X025595Y027820D03*
D21*
X014906Y031457D03*
D22*
X013906Y031457D03*
X013906Y030457D03*
X014906Y030457D03*
X012906Y030457D03*
X011906Y030457D03*
X010906Y030457D03*
X010906Y031457D03*
X011906Y031457D03*
X012906Y031457D03*
X009906Y031457D03*
X008906Y031457D03*
X008906Y030457D03*
X009906Y030457D03*
X007906Y030457D03*
X007906Y031457D03*
D23*
X011881Y025431D03*
X012656Y025431D03*
X013431Y025431D03*
X014206Y025431D03*
X014206Y024683D03*
X013431Y024683D03*
X012656Y024683D03*
X011881Y024683D03*
D24*
X013106Y026955D03*
X013106Y029160D03*
D25*
X007055Y004456D03*
X007055Y027685D03*
X036977Y004456D03*
D26*
X036977Y031228D03*
M02*
