G75*
G70*
%OFA0B0*%
%FSLAX24Y24*%
%IPPOS*%
%LPD*%
%AMOC8*
5,1,8,0,0,1.08239X$1,22.5*
%
%ADD10OC8,0.0594*%
%ADD11R,0.1280X0.0300*%
%ADD12R,0.0591X0.0512*%
%ADD13R,0.0512X0.0591*%
%ADD14R,0.0394X0.0433*%
%ADD15R,0.0551X0.0551*%
%ADD16R,0.0630X0.0709*%
%ADD17R,0.0630X0.0710*%
%ADD18R,0.0140X0.0560*%
%ADD19OC8,0.0554*%
%ADD20OC8,0.0600*%
%ADD21R,0.0433X0.0394*%
%ADD22C,0.0780*%
%ADD23R,0.0610X0.0236*%
%ADD24R,0.0600X0.0220*%
%ADD25C,0.0700*%
%ADD26OC8,0.0700*%
%ADD27C,0.1181*%
%ADD28C,0.1000*%
%ADD29C,0.0083*%
%ADD30R,0.0472X0.0591*%
%ADD31R,0.0220X0.0600*%
%ADD32R,0.2165X0.1969*%
%ADD33OC8,0.0520*%
%ADD34C,0.1181*%
%ADD35C,0.0768*%
%ADD36R,0.0594X0.0594*%
%ADD37C,0.0594*%
%ADD38R,0.0500X0.0350*%
%ADD39R,0.0591X0.0472*%
%ADD40R,0.0709X0.1260*%
%ADD41R,0.0300X0.1280*%
%ADD42R,0.1130X0.0300*%
%ADD43R,0.0396X0.0396*%
%ADD44C,0.0120*%
%ADD45C,0.0100*%
%ADD46OC8,0.0396*%
%ADD47C,0.0160*%
%ADD48C,0.0240*%
%ADD49C,0.0500*%
%ADD50C,0.2165*%
%ADD51C,0.0400*%
%ADD52C,0.0140*%
%ADD53C,0.2362*%
%ADD54C,0.0760*%
%ADD55C,0.0320*%
D10*
X006562Y009669D03*
X007562Y009669D03*
X007562Y010669D03*
X006562Y010669D03*
X006562Y011669D03*
X006562Y012669D03*
X007562Y012669D03*
X007562Y011669D03*
X007562Y013669D03*
X006562Y013669D03*
X006562Y014669D03*
X007562Y014669D03*
X007562Y015669D03*
X006562Y015669D03*
X006562Y016669D03*
X007562Y016669D03*
X007562Y017669D03*
X007562Y018669D03*
X006562Y018669D03*
X006562Y017669D03*
X006562Y019669D03*
X007562Y019669D03*
X007562Y020669D03*
X006562Y020669D03*
X006562Y021669D03*
X007562Y021669D03*
D11*
X017637Y012744D03*
X019537Y012744D03*
D12*
X020462Y015420D03*
X020462Y016169D03*
X016312Y016194D03*
X015537Y016194D03*
X015537Y015445D03*
X016312Y015445D03*
X016312Y014644D03*
X015537Y014644D03*
X015537Y013895D03*
X016312Y013895D03*
X016312Y013094D03*
X016312Y012345D03*
X013085Y012531D03*
X013085Y013279D03*
X012169Y013279D03*
X012169Y012531D03*
X012387Y009244D03*
X012387Y008495D03*
X016287Y008245D03*
X016287Y008994D03*
X023562Y009219D03*
X024337Y009219D03*
X024337Y008470D03*
X023562Y008470D03*
X025112Y008470D03*
X025112Y009219D03*
X025887Y009219D03*
X025887Y008470D03*
X026362Y012645D03*
X026362Y013394D03*
X029612Y013020D03*
X030387Y013020D03*
X030387Y013769D03*
X029612Y013769D03*
X034462Y015145D03*
X034462Y015894D03*
X008987Y022820D03*
X008987Y023569D03*
X008212Y023569D03*
X008212Y022820D03*
X008337Y025345D03*
X008337Y026094D03*
D13*
X007361Y026269D03*
X006613Y026269D03*
X009263Y029294D03*
X010011Y029294D03*
X011813Y026994D03*
X012561Y026994D03*
X011436Y023644D03*
X010688Y023644D03*
X009761Y020094D03*
X009013Y020094D03*
X009013Y019319D03*
X009761Y019319D03*
X021038Y008994D03*
X021786Y008994D03*
X028963Y008169D03*
X029711Y008169D03*
X030038Y009394D03*
X030786Y009394D03*
X030786Y010169D03*
X030038Y010169D03*
X030038Y011144D03*
X030786Y011144D03*
X030786Y011919D03*
X030038Y011919D03*
X029986Y014644D03*
X029238Y014644D03*
X026136Y015569D03*
X025388Y015569D03*
X026188Y023769D03*
X026936Y023769D03*
X024211Y026944D03*
X023463Y026944D03*
X017586Y030194D03*
X016838Y030194D03*
X035688Y023044D03*
X036436Y023044D03*
D14*
X026412Y010954D03*
X026412Y010285D03*
X009762Y022710D03*
X009762Y023379D03*
D15*
X026539Y014269D03*
X028035Y014269D03*
D16*
X027813Y008594D03*
X026710Y008594D03*
X026710Y007719D03*
X027813Y007719D03*
D17*
X028072Y015569D03*
X026952Y015569D03*
D18*
X026987Y012439D03*
X027247Y012439D03*
X027507Y012439D03*
X027757Y012439D03*
X028017Y012439D03*
X028267Y012439D03*
X028527Y012439D03*
X028787Y012439D03*
X028787Y010199D03*
X028527Y010199D03*
X028267Y010199D03*
X028017Y010199D03*
X027757Y010199D03*
X027507Y010199D03*
X027247Y010199D03*
X026987Y010199D03*
D19*
X027112Y006394D03*
X028112Y006394D03*
X026112Y006394D03*
X025112Y006394D03*
X024112Y006394D03*
X023112Y006394D03*
X022112Y006394D03*
X021112Y006394D03*
X020112Y006394D03*
X019112Y006394D03*
X017512Y006394D03*
X016512Y006394D03*
X015512Y006394D03*
X014512Y006394D03*
X013512Y006394D03*
X012512Y006394D03*
X011512Y006394D03*
X010512Y006394D03*
X010462Y014394D03*
X009462Y014394D03*
X009462Y015394D03*
X010462Y015394D03*
X010462Y016394D03*
X010512Y025394D03*
X011512Y025394D03*
X012512Y025394D03*
X013512Y025394D03*
X014512Y025394D03*
X015512Y025394D03*
X017512Y025394D03*
X018512Y025394D03*
X019512Y025394D03*
X020512Y025394D03*
X021512Y025394D03*
X022512Y025394D03*
X023512Y025394D03*
X024512Y025394D03*
D20*
X021862Y027919D03*
X015962Y027919D03*
X017987Y020919D03*
X017987Y018494D03*
X009462Y016394D03*
X008987Y018494D03*
X008987Y020919D03*
D21*
X012402Y022944D03*
X013071Y022944D03*
X011246Y024419D03*
X010577Y024419D03*
D22*
X019872Y019969D02*
X020652Y019969D01*
X020672Y017619D02*
X021452Y017619D01*
X025472Y017619D02*
X026252Y017619D01*
X029287Y018954D02*
X029287Y019734D01*
X026252Y022319D02*
X025472Y022319D01*
X021452Y022319D02*
X020672Y022319D01*
X029287Y023754D02*
X029287Y024534D01*
X031637Y024554D02*
X031637Y025334D01*
X033987Y024534D02*
X033987Y023754D01*
X033987Y019734D02*
X033987Y018954D01*
D23*
X015925Y022946D03*
X015925Y023446D03*
X015925Y023946D03*
X015925Y024446D03*
X013799Y024446D03*
X013799Y023946D03*
X013799Y023446D03*
X013799Y022946D03*
D24*
X019587Y016219D03*
X019587Y015419D03*
X018737Y015819D03*
X020862Y008269D03*
X020862Y007469D03*
X021712Y007869D03*
D25*
X018637Y008557D03*
D26*
X018637Y010132D03*
D27*
X032659Y009624D02*
X033840Y009624D01*
X033840Y011278D02*
X032659Y011278D01*
X032659Y012931D02*
X033840Y012931D01*
D28*
X036287Y017344D02*
X037287Y017344D01*
X036787Y017344D02*
X036437Y017694D01*
X035462Y017694D01*
X030487Y017694D01*
X029287Y018894D01*
X029287Y019344D01*
X036287Y019313D02*
X037287Y019313D01*
X037287Y021281D02*
X036287Y021281D01*
X034187Y032644D02*
X034187Y033644D01*
X032218Y033644D02*
X032218Y032644D01*
X030250Y032644D02*
X030250Y033644D01*
X027012Y033644D02*
X027012Y032644D01*
X025043Y032644D02*
X025043Y033644D01*
X023075Y033644D02*
X023075Y032644D01*
X021106Y032644D02*
X021106Y033644D01*
X019138Y033644D02*
X019138Y032644D01*
D29*
X015737Y011994D02*
X015737Y011250D01*
X015269Y011250D01*
X015269Y011994D01*
X015737Y011994D01*
X015737Y011332D02*
X015269Y011332D01*
X015269Y011414D02*
X015737Y011414D01*
X015737Y011496D02*
X015269Y011496D01*
X015269Y011578D02*
X015737Y011578D01*
X015737Y011660D02*
X015269Y011660D01*
X015269Y011742D02*
X015737Y011742D01*
X015737Y011824D02*
X015269Y011824D01*
X015269Y011906D02*
X015737Y011906D01*
X015737Y011988D02*
X015269Y011988D01*
X013965Y011994D02*
X013965Y011250D01*
X013497Y011250D01*
X013497Y011994D01*
X013965Y011994D01*
X013965Y011332D02*
X013497Y011332D01*
X013497Y011414D02*
X013965Y011414D01*
X013965Y011496D02*
X013497Y011496D01*
X013497Y011578D02*
X013965Y011578D01*
X013965Y011660D02*
X013497Y011660D01*
X013497Y011742D02*
X013965Y011742D01*
X013965Y011824D02*
X013497Y011824D01*
X013497Y011906D02*
X013965Y011906D01*
X013965Y011988D02*
X013497Y011988D01*
X011800Y011994D02*
X011800Y011250D01*
X011332Y011250D01*
X011332Y011994D01*
X011800Y011994D01*
X011800Y011332D02*
X011332Y011332D01*
X011332Y011414D02*
X011800Y011414D01*
X011800Y011496D02*
X011332Y011496D01*
X011332Y011578D02*
X011800Y011578D01*
X011800Y011660D02*
X011332Y011660D01*
X011332Y011742D02*
X011800Y011742D01*
X011800Y011824D02*
X011332Y011824D01*
X011332Y011906D02*
X011800Y011906D01*
X011800Y011988D02*
X011332Y011988D01*
X010028Y011994D02*
X010028Y011250D01*
X009560Y011250D01*
X009560Y011994D01*
X010028Y011994D01*
X010028Y011332D02*
X009560Y011332D01*
X009560Y011414D02*
X010028Y011414D01*
X010028Y011496D02*
X009560Y011496D01*
X009560Y011578D02*
X010028Y011578D01*
X010028Y011660D02*
X009560Y011660D01*
X009560Y011742D02*
X010028Y011742D01*
X010028Y011824D02*
X009560Y011824D01*
X009560Y011906D02*
X010028Y011906D01*
X010028Y011988D02*
X009560Y011988D01*
X010028Y008687D02*
X010028Y007943D01*
X009560Y007943D01*
X009560Y008687D01*
X010028Y008687D01*
X010028Y008025D02*
X009560Y008025D01*
X009560Y008107D02*
X010028Y008107D01*
X010028Y008189D02*
X009560Y008189D01*
X009560Y008271D02*
X010028Y008271D01*
X010028Y008353D02*
X009560Y008353D01*
X009560Y008435D02*
X010028Y008435D01*
X010028Y008517D02*
X009560Y008517D01*
X009560Y008599D02*
X010028Y008599D01*
X010028Y008681D02*
X009560Y008681D01*
X010914Y008687D02*
X010914Y007943D01*
X010446Y007943D01*
X010446Y008687D01*
X010914Y008687D01*
X010914Y008025D02*
X010446Y008025D01*
X010446Y008107D02*
X010914Y008107D01*
X010914Y008189D02*
X010446Y008189D01*
X010446Y008271D02*
X010914Y008271D01*
X010914Y008353D02*
X010446Y008353D01*
X010446Y008435D02*
X010914Y008435D01*
X010914Y008517D02*
X010446Y008517D01*
X010446Y008599D02*
X010914Y008599D01*
X010914Y008681D02*
X010446Y008681D01*
X011800Y008687D02*
X011800Y007943D01*
X011332Y007943D01*
X011332Y008687D01*
X011800Y008687D01*
X011800Y008025D02*
X011332Y008025D01*
X011332Y008107D02*
X011800Y008107D01*
X011800Y008189D02*
X011332Y008189D01*
X011332Y008271D02*
X011800Y008271D01*
X011800Y008353D02*
X011332Y008353D01*
X011332Y008435D02*
X011800Y008435D01*
X011800Y008517D02*
X011332Y008517D01*
X011332Y008599D02*
X011800Y008599D01*
X011800Y008681D02*
X011332Y008681D01*
X013965Y008687D02*
X013965Y007943D01*
X013497Y007943D01*
X013497Y008687D01*
X013965Y008687D01*
X013965Y008025D02*
X013497Y008025D01*
X013497Y008107D02*
X013965Y008107D01*
X013965Y008189D02*
X013497Y008189D01*
X013497Y008271D02*
X013965Y008271D01*
X013965Y008353D02*
X013497Y008353D01*
X013497Y008435D02*
X013965Y008435D01*
X013965Y008517D02*
X013497Y008517D01*
X013497Y008599D02*
X013965Y008599D01*
X013965Y008681D02*
X013497Y008681D01*
X014851Y008687D02*
X014851Y007943D01*
X014383Y007943D01*
X014383Y008687D01*
X014851Y008687D01*
X014851Y008025D02*
X014383Y008025D01*
X014383Y008107D02*
X014851Y008107D01*
X014851Y008189D02*
X014383Y008189D01*
X014383Y008271D02*
X014851Y008271D01*
X014851Y008353D02*
X014383Y008353D01*
X014383Y008435D02*
X014851Y008435D01*
X014851Y008517D02*
X014383Y008517D01*
X014383Y008599D02*
X014851Y008599D01*
X014851Y008681D02*
X014383Y008681D01*
X015737Y008687D02*
X015737Y007943D01*
X015269Y007943D01*
X015269Y008687D01*
X015737Y008687D01*
X015737Y008025D02*
X015269Y008025D01*
X015269Y008107D02*
X015737Y008107D01*
X015737Y008189D02*
X015269Y008189D01*
X015269Y008271D02*
X015737Y008271D01*
X015737Y008353D02*
X015269Y008353D01*
X015269Y008435D02*
X015737Y008435D01*
X015737Y008517D02*
X015269Y008517D01*
X015269Y008599D02*
X015737Y008599D01*
X015737Y008681D02*
X015269Y008681D01*
D30*
X018737Y016999D03*
X018737Y018140D03*
X027837Y024124D03*
X027837Y025265D03*
X024237Y029699D03*
X024237Y030840D03*
X014862Y029040D03*
X014862Y027899D03*
D31*
X010012Y030169D03*
X009212Y030169D03*
X009612Y031019D03*
X007012Y028019D03*
X007412Y027169D03*
X006612Y027169D03*
X023537Y027869D03*
X024337Y027869D03*
X023937Y028719D03*
X026587Y025544D03*
X026987Y024694D03*
X026187Y024694D03*
D32*
X023287Y014418D03*
X023287Y011071D03*
D33*
X014617Y012224D03*
X014617Y013224D03*
X010680Y013224D03*
X010680Y012224D03*
X033121Y014980D03*
X033121Y015980D03*
D34*
X033613Y027206D03*
X031629Y027206D03*
X031629Y030183D03*
X033613Y030183D03*
X035597Y030183D03*
X035597Y027206D03*
D35*
X025676Y027206D03*
X025676Y030183D03*
D36*
X014987Y033819D03*
D37*
X013987Y033819D03*
X012987Y033819D03*
X011987Y033819D03*
X011987Y032819D03*
X012987Y032819D03*
X013987Y032819D03*
X014987Y032819D03*
X010987Y032819D03*
X009987Y032819D03*
X008987Y032819D03*
X007987Y032819D03*
X007987Y033819D03*
X008987Y033819D03*
X009987Y033819D03*
X010987Y033819D03*
D38*
X010862Y027969D03*
X010862Y026969D03*
X008362Y026969D03*
X008362Y027969D03*
D39*
X014866Y031119D03*
X016008Y031119D03*
D40*
X018709Y030569D03*
X020914Y030569D03*
D41*
X012962Y030244D03*
X012962Y028344D03*
D42*
X013492Y015944D03*
X011932Y015944D03*
X035957Y024769D03*
X037517Y024769D03*
D43*
X028487Y011819D03*
X028012Y011819D03*
X027537Y011819D03*
X027537Y011319D03*
X028012Y011319D03*
X028487Y011319D03*
X028487Y010819D03*
X028012Y010819D03*
X027537Y010819D03*
X026412Y011344D03*
X026552Y008194D03*
X026927Y008194D03*
X025137Y008044D03*
X024347Y008044D03*
X023572Y008044D03*
X017937Y012394D03*
X017937Y013044D03*
X010637Y008869D03*
D44*
X011566Y008315D02*
X012318Y008315D01*
X012387Y008495D01*
X012387Y009244D02*
X012387Y009669D01*
X013731Y008315D02*
X014617Y008315D01*
X015503Y008315D02*
X016218Y008315D01*
X016287Y008245D01*
X016287Y008994D02*
X016287Y009419D01*
X013737Y011044D02*
X013737Y011616D01*
X013731Y011622D01*
X013085Y012531D02*
X013071Y012544D01*
X012612Y012544D01*
X012183Y012544D01*
X012169Y012531D01*
X012169Y013279D02*
X010734Y013279D01*
X010680Y013224D01*
X009794Y011622D02*
X009787Y011614D01*
X009787Y011044D01*
X013085Y013279D02*
X014562Y013279D01*
X014617Y013224D01*
X026412Y011344D02*
X026412Y010954D01*
X029612Y012944D02*
X029836Y012944D01*
X029612Y013020D01*
X027837Y024124D02*
X027362Y024599D01*
X027362Y025419D01*
X027237Y025544D01*
X026587Y025544D01*
D45*
X026987Y024694D02*
X026987Y024244D01*
X026987Y023820D01*
X026936Y023769D01*
X026188Y023769D02*
X026188Y023494D01*
X027337Y022344D01*
X027337Y018894D01*
X029412Y016819D01*
X034887Y016819D01*
X035362Y016344D01*
X035362Y014444D01*
X034987Y014069D01*
X034987Y008669D01*
X032162Y005844D01*
X021662Y005844D01*
X021112Y006394D01*
X020612Y005844D02*
X010087Y005844D01*
X006987Y008944D01*
X006287Y008944D01*
X005937Y009294D01*
X005937Y025594D01*
X006613Y026269D01*
X006612Y026270D01*
X006612Y027169D01*
X007412Y027144D02*
X007412Y027169D01*
X007412Y027144D02*
X007437Y027169D01*
X007412Y027144D02*
X007412Y026694D01*
X007412Y026320D01*
X007361Y026269D01*
X008337Y026094D02*
X008337Y026944D01*
X008362Y026969D01*
X008363Y026119D02*
X008337Y026094D01*
X008363Y026119D02*
X009512Y026119D01*
X010112Y026219D02*
X014012Y026219D01*
X014512Y025394D02*
X015037Y024869D01*
X020387Y024869D01*
X022012Y023244D01*
X023512Y022394D02*
X029312Y016594D01*
X034787Y016594D01*
X035137Y016244D01*
X035137Y014544D01*
X034762Y014169D01*
X034762Y008769D01*
X032387Y006394D01*
X028112Y006394D01*
X027212Y007194D02*
X027737Y007719D01*
X027813Y007719D01*
X027312Y007711D02*
X029187Y007711D01*
X029187Y007613D02*
X027312Y007613D01*
X027312Y007514D02*
X029187Y007514D01*
X029187Y007416D02*
X027312Y007416D01*
X027312Y007369D02*
X027312Y009658D01*
X027448Y009794D01*
X027462Y009794D01*
X027462Y009808D01*
X027467Y009813D01*
X027467Y009829D01*
X027487Y009849D01*
X027487Y010194D01*
X027517Y010194D01*
X027517Y009849D01*
X027537Y009829D01*
X027537Y009794D01*
X028362Y008969D01*
X029087Y008969D01*
X029187Y008869D01*
X029187Y007369D01*
X027312Y007369D01*
X027212Y007194D02*
X026262Y007194D01*
X025887Y007569D01*
X025887Y008470D01*
X026552Y008436D02*
X026552Y008194D01*
X026552Y007878D01*
X026710Y007719D01*
X027312Y007810D02*
X029187Y007810D01*
X029187Y007908D02*
X027312Y007908D01*
X027312Y008007D02*
X029187Y008007D01*
X029187Y008105D02*
X027312Y008105D01*
X027312Y008204D02*
X029187Y008204D01*
X029187Y008302D02*
X027312Y008302D01*
X027312Y008401D02*
X029187Y008401D01*
X029187Y008499D02*
X027312Y008499D01*
X027312Y008598D02*
X029187Y008598D01*
X029187Y008696D02*
X027312Y008696D01*
X027312Y008795D02*
X029187Y008795D01*
X029163Y008893D02*
X027312Y008893D01*
X027312Y008992D02*
X028340Y008992D01*
X028241Y009090D02*
X027312Y009090D01*
X027312Y009189D02*
X028143Y009189D01*
X028044Y009287D02*
X027312Y009287D01*
X027312Y009386D02*
X027946Y009386D01*
X027847Y009484D02*
X027312Y009484D01*
X027312Y009583D02*
X027749Y009583D01*
X027650Y009681D02*
X027334Y009681D01*
X027433Y009780D02*
X027552Y009780D01*
X027517Y009878D02*
X027487Y009878D01*
X027487Y009977D02*
X027517Y009977D01*
X027517Y010075D02*
X027487Y010075D01*
X027487Y010174D02*
X027517Y010174D01*
X027247Y010199D02*
X027247Y009904D01*
X026812Y009469D01*
X026138Y009469D01*
X025887Y009219D01*
X025112Y009219D01*
X024562Y009194D02*
X024562Y009569D01*
X025562Y010569D01*
X025562Y012444D01*
X025437Y012569D01*
X019237Y012569D01*
X019237Y012144D01*
X019862Y011519D01*
X020862Y011519D01*
X023187Y009194D01*
X024562Y009194D01*
X024562Y009287D02*
X023094Y009287D01*
X022996Y009386D02*
X024562Y009386D01*
X024562Y009484D02*
X022897Y009484D01*
X022799Y009583D02*
X024575Y009583D01*
X024673Y009681D02*
X022700Y009681D01*
X022602Y009780D02*
X024772Y009780D01*
X024870Y009878D02*
X022503Y009878D01*
X022405Y009977D02*
X024969Y009977D01*
X025067Y010075D02*
X022306Y010075D01*
X022208Y010174D02*
X025166Y010174D01*
X025264Y010272D02*
X022109Y010272D01*
X022011Y010371D02*
X025363Y010371D01*
X025461Y010469D02*
X021912Y010469D01*
X021814Y010568D02*
X025560Y010568D01*
X025562Y010666D02*
X021715Y010666D01*
X021617Y010765D02*
X025562Y010765D01*
X025562Y010863D02*
X021518Y010863D01*
X021420Y010962D02*
X025562Y010962D01*
X025562Y011060D02*
X021321Y011060D01*
X021223Y011159D02*
X025562Y011159D01*
X025562Y011257D02*
X021124Y011257D01*
X021026Y011356D02*
X025562Y011356D01*
X025562Y011454D02*
X020927Y011454D01*
X021687Y012144D02*
X021862Y012319D01*
X021862Y015844D01*
X022337Y016319D01*
X030837Y016319D01*
X032176Y014980D01*
X033121Y014980D01*
X033121Y015980D02*
X034375Y015980D01*
X034462Y015894D01*
X034462Y015144D02*
X034462Y014744D01*
X031287Y014705D02*
X030392Y014705D01*
X030392Y014694D02*
X030392Y014960D01*
X030381Y014998D01*
X030362Y015032D01*
X030334Y015060D01*
X030299Y015080D01*
X030261Y015090D01*
X030036Y015090D01*
X030036Y014694D01*
X030392Y014694D01*
X030392Y014594D02*
X030036Y014594D01*
X030036Y014199D01*
X030261Y014199D01*
X030299Y014209D01*
X030334Y014229D01*
X030362Y014257D01*
X030381Y014291D01*
X030392Y014329D01*
X030392Y014594D01*
X030392Y014508D02*
X031287Y014508D01*
X031287Y014606D02*
X030036Y014606D01*
X030036Y014594D02*
X030036Y014694D01*
X029936Y014694D01*
X029936Y015090D01*
X029710Y015090D01*
X029672Y015080D01*
X029638Y015060D01*
X029626Y015048D01*
X029564Y015110D01*
X028911Y015110D01*
X028812Y015010D01*
X028812Y014530D01*
X028662Y014380D01*
X028662Y015869D01*
X030362Y015869D01*
X031287Y014944D01*
X031287Y011669D01*
X031192Y011669D01*
X031192Y011869D01*
X030836Y011869D01*
X030836Y011969D01*
X031192Y011969D01*
X031192Y012235D01*
X031181Y012273D01*
X031162Y012307D01*
X031134Y012335D01*
X031099Y012355D01*
X031061Y012365D01*
X030836Y012365D01*
X030836Y011969D01*
X030736Y011969D01*
X030736Y012365D01*
X030510Y012365D01*
X030472Y012355D01*
X030438Y012335D01*
X030426Y012323D01*
X030364Y012385D01*
X030238Y012385D01*
X030448Y012595D01*
X030752Y012595D01*
X030852Y012694D01*
X030852Y013347D01*
X030790Y013409D01*
X030802Y013420D01*
X030822Y013455D01*
X030832Y013493D01*
X030832Y013719D01*
X030437Y013719D01*
X030437Y013819D01*
X030337Y013819D01*
X030337Y014174D01*
X030072Y014174D01*
X030034Y014164D01*
X029999Y014144D01*
X029999Y014144D01*
X029999Y014144D01*
X029965Y014164D01*
X029927Y014174D01*
X029662Y014174D01*
X029662Y013819D01*
X029562Y013819D01*
X029562Y014174D01*
X029297Y014174D01*
X029259Y014164D01*
X029224Y014144D01*
X029196Y014117D01*
X029177Y014082D01*
X029166Y014044D01*
X029166Y013819D01*
X029562Y013819D01*
X029562Y013719D01*
X029166Y013719D01*
X029166Y013493D01*
X029177Y013455D01*
X029196Y013420D01*
X029208Y013409D01*
X029146Y013347D01*
X029146Y012891D01*
X029142Y012887D01*
X029142Y012801D01*
X029137Y012716D01*
X029142Y012711D01*
X029142Y011761D01*
X028692Y011311D01*
X028692Y010649D01*
X026962Y010649D01*
X026962Y011989D01*
X027897Y011989D01*
X027919Y012012D01*
X027927Y012009D01*
X028017Y012009D01*
X028106Y012009D01*
X028126Y011989D01*
X028667Y011989D01*
X028689Y012012D01*
X028697Y012009D01*
X028787Y012009D01*
X028876Y012009D01*
X028915Y012020D01*
X028949Y012039D01*
X028977Y012067D01*
X028996Y012102D01*
X029007Y012140D01*
X029007Y012439D01*
X029142Y012439D01*
X029142Y012341D02*
X029007Y012341D01*
X029007Y012439D02*
X028787Y012439D01*
X028787Y012439D01*
X028787Y012009D01*
X028787Y012439D01*
X028787Y012439D01*
X028787Y012439D01*
X029007Y012439D01*
X029007Y012739D01*
X028996Y012777D01*
X028977Y012812D01*
X028949Y012840D01*
X028915Y012859D01*
X028876Y012869D01*
X028857Y012869D01*
X028857Y013952D01*
X029084Y014179D01*
X029564Y014179D01*
X029626Y014241D01*
X029638Y014229D01*
X029672Y014209D01*
X029710Y014199D01*
X029936Y014199D01*
X029936Y014594D01*
X030036Y014594D01*
X030036Y014508D02*
X029936Y014508D01*
X029936Y014409D02*
X030036Y014409D01*
X030036Y014311D02*
X029936Y014311D01*
X029936Y014212D02*
X030036Y014212D01*
X030304Y014212D02*
X031287Y014212D01*
X031287Y014114D02*
X030804Y014114D01*
X030802Y014117D02*
X030822Y014082D01*
X030832Y014044D01*
X030832Y013819D01*
X030437Y013819D01*
X030437Y014174D01*
X030702Y014174D01*
X030740Y014164D01*
X030774Y014144D01*
X030802Y014117D01*
X030832Y014015D02*
X031287Y014015D01*
X031287Y013917D02*
X030832Y013917D01*
X030832Y013621D02*
X031287Y013621D01*
X031287Y013523D02*
X030832Y013523D01*
X030804Y013424D02*
X031287Y013424D01*
X031287Y013326D02*
X030852Y013326D01*
X030852Y013227D02*
X031287Y013227D01*
X031287Y013129D02*
X030852Y013129D01*
X030852Y013030D02*
X031287Y013030D01*
X031287Y012932D02*
X030852Y012932D01*
X030852Y012833D02*
X031287Y012833D01*
X031287Y012735D02*
X030852Y012735D01*
X030794Y012636D02*
X031287Y012636D01*
X031287Y012538D02*
X030391Y012538D01*
X030292Y012439D02*
X031287Y012439D01*
X031287Y012341D02*
X031124Y012341D01*
X031190Y012242D02*
X031287Y012242D01*
X031287Y012144D02*
X031192Y012144D01*
X031192Y012045D02*
X031287Y012045D01*
X031287Y011947D02*
X030836Y011947D01*
X030836Y012045D02*
X030736Y012045D01*
X030736Y012144D02*
X030836Y012144D01*
X030836Y012242D02*
X030736Y012242D01*
X030736Y012341D02*
X030836Y012341D01*
X030448Y012341D02*
X030408Y012341D01*
X029937Y012394D02*
X029712Y012394D01*
X029587Y012269D01*
X029587Y011594D01*
X029137Y011144D01*
X029137Y009969D01*
X028937Y009769D01*
X028612Y009769D01*
X028527Y009854D01*
X028527Y010199D01*
X028787Y010199D02*
X028787Y010394D01*
X028837Y010394D01*
X028912Y010469D01*
X028912Y011219D01*
X029362Y011669D01*
X029362Y012795D01*
X029612Y013020D01*
X029146Y013030D02*
X028857Y013030D01*
X028857Y012932D02*
X029146Y012932D01*
X029142Y012833D02*
X028955Y012833D01*
X029007Y012735D02*
X029138Y012735D01*
X029142Y012636D02*
X029007Y012636D01*
X029007Y012538D02*
X029142Y012538D01*
X029142Y012242D02*
X029007Y012242D01*
X029007Y012144D02*
X029142Y012144D01*
X029142Y012045D02*
X028954Y012045D01*
X028787Y012045D02*
X028787Y012045D01*
X028787Y012144D02*
X028787Y012144D01*
X028787Y012242D02*
X028787Y012242D01*
X028787Y012341D02*
X028787Y012341D01*
X028787Y012439D02*
X028792Y012439D01*
X028527Y012439D02*
X028527Y012759D01*
X028637Y012869D01*
X028637Y014044D01*
X029238Y014644D01*
X028812Y014606D02*
X028662Y014606D01*
X028662Y014508D02*
X028790Y014508D01*
X028691Y014409D02*
X028662Y014409D01*
X028412Y014409D02*
X027737Y014409D01*
X027737Y014311D02*
X028412Y014311D01*
X028412Y014212D02*
X027737Y014212D01*
X027737Y014114D02*
X028412Y014114D01*
X028412Y014015D02*
X027737Y014015D01*
X027737Y013917D02*
X028412Y013917D01*
X028412Y013818D02*
X027737Y013818D01*
X027737Y013720D02*
X028412Y013720D01*
X028412Y013621D02*
X027737Y013621D01*
X027737Y013523D02*
X028412Y013523D01*
X028412Y013424D02*
X027737Y013424D01*
X027737Y013326D02*
X028047Y013326D01*
X028109Y013388D02*
X027894Y013172D01*
X027894Y012889D01*
X027876Y012889D01*
X027856Y012869D01*
X027737Y012869D01*
X027737Y015869D01*
X028412Y015869D01*
X028412Y013388D01*
X028109Y013388D01*
X027949Y013227D02*
X027737Y013227D01*
X027737Y013129D02*
X027894Y013129D01*
X027894Y013030D02*
X027737Y013030D01*
X027737Y012932D02*
X027894Y012932D01*
X028262Y013019D02*
X028267Y013014D01*
X028267Y012439D01*
X028017Y012169D02*
X028017Y012009D01*
X028017Y012169D01*
X028017Y012169D01*
X028017Y012144D02*
X028017Y012144D01*
X028017Y012045D02*
X028017Y012045D01*
X027512Y012419D02*
X027227Y012419D01*
X027227Y012790D01*
X027127Y012889D01*
X027117Y012889D01*
X026837Y013169D01*
X022387Y013169D01*
X022237Y013319D01*
X022237Y015619D01*
X022412Y015794D01*
X025587Y015794D01*
X025587Y015269D01*
X025862Y014994D01*
X027262Y014994D01*
X027512Y014744D01*
X027512Y012419D01*
X027512Y012439D02*
X027227Y012439D01*
X027227Y012538D02*
X027512Y012538D01*
X027512Y012636D02*
X027227Y012636D01*
X027227Y012735D02*
X027512Y012735D01*
X027512Y012833D02*
X027184Y012833D01*
X027075Y012932D02*
X027512Y012932D01*
X027512Y013030D02*
X026976Y013030D01*
X026878Y013129D02*
X027512Y013129D01*
X027512Y013227D02*
X022329Y013227D01*
X022237Y013326D02*
X027512Y013326D01*
X027512Y013424D02*
X022237Y013424D01*
X022237Y013523D02*
X027512Y013523D01*
X027507Y013499D02*
X027507Y012439D01*
X026962Y011947D02*
X029142Y011947D01*
X029142Y011848D02*
X026962Y011848D01*
X026962Y011750D02*
X029131Y011750D01*
X029032Y011651D02*
X026962Y011651D01*
X026962Y011553D02*
X028934Y011553D01*
X028835Y011454D02*
X026962Y011454D01*
X026962Y011356D02*
X028737Y011356D01*
X028692Y011257D02*
X026962Y011257D01*
X026962Y011159D02*
X028692Y011159D01*
X028692Y011060D02*
X026962Y011060D01*
X026962Y010962D02*
X028692Y010962D01*
X028692Y010863D02*
X026962Y010863D01*
X026962Y010765D02*
X028692Y010765D01*
X028692Y010666D02*
X026962Y010666D01*
X028017Y010199D02*
X028017Y009764D01*
X028412Y009369D01*
X030012Y009369D01*
X030037Y009394D01*
X030786Y009394D02*
X030786Y010169D01*
X030038Y010169D02*
X030038Y010270D01*
X030687Y010919D01*
X030687Y011094D01*
X030786Y011144D01*
X030786Y011170D01*
X030038Y011919D01*
X030038Y011919D01*
X029937Y012394D02*
X030387Y012844D01*
X030387Y013020D01*
X030337Y013719D02*
X029941Y013719D01*
X029662Y013719D01*
X029662Y013819D01*
X030337Y013819D01*
X030337Y013719D01*
X030337Y013720D02*
X029662Y013720D01*
X029662Y013818D02*
X030337Y013818D01*
X030337Y013917D02*
X030437Y013917D01*
X030437Y014015D02*
X030337Y014015D01*
X030337Y014114D02*
X030437Y014114D01*
X030387Y014311D02*
X031287Y014311D01*
X031287Y014409D02*
X030392Y014409D01*
X030392Y014803D02*
X031287Y014803D01*
X031287Y014902D02*
X030392Y014902D01*
X030380Y015000D02*
X031231Y015000D01*
X031133Y015099D02*
X029575Y015099D01*
X029936Y015000D02*
X030036Y015000D01*
X030036Y014902D02*
X029936Y014902D01*
X029936Y014803D02*
X030036Y014803D01*
X030036Y014705D02*
X029936Y014705D01*
X029667Y014212D02*
X029597Y014212D01*
X029562Y014114D02*
X029662Y014114D01*
X029662Y014015D02*
X029562Y014015D01*
X029562Y013917D02*
X029662Y013917D01*
X029562Y013818D02*
X028857Y013818D01*
X028857Y013720D02*
X029562Y013720D01*
X029166Y013621D02*
X028857Y013621D01*
X028857Y013523D02*
X029166Y013523D01*
X029194Y013424D02*
X028857Y013424D01*
X028857Y013326D02*
X029146Y013326D01*
X029146Y013227D02*
X028857Y013227D01*
X028857Y013129D02*
X029146Y013129D01*
X029166Y013917D02*
X028857Y013917D01*
X028919Y014015D02*
X029166Y014015D01*
X029195Y014114D02*
X029018Y014114D01*
X028812Y014705D02*
X028662Y014705D01*
X028662Y014803D02*
X028812Y014803D01*
X028812Y014902D02*
X028662Y014902D01*
X028662Y015000D02*
X028812Y015000D01*
X028900Y015099D02*
X028662Y015099D01*
X028662Y015197D02*
X031034Y015197D01*
X030936Y015296D02*
X028662Y015296D01*
X028662Y015394D02*
X030837Y015394D01*
X030739Y015493D02*
X028662Y015493D01*
X028662Y015591D02*
X030640Y015591D01*
X030542Y015690D02*
X028662Y015690D01*
X028662Y015788D02*
X030443Y015788D01*
X028412Y015788D02*
X027737Y015788D01*
X027737Y015690D02*
X028412Y015690D01*
X028412Y015591D02*
X027737Y015591D01*
X027737Y015493D02*
X028412Y015493D01*
X028412Y015394D02*
X027737Y015394D01*
X027737Y015296D02*
X028412Y015296D01*
X028412Y015197D02*
X027737Y015197D01*
X027737Y015099D02*
X028412Y015099D01*
X028412Y015000D02*
X027737Y015000D01*
X027737Y014902D02*
X028412Y014902D01*
X028412Y014803D02*
X027737Y014803D01*
X027737Y014705D02*
X028412Y014705D01*
X028412Y014606D02*
X027737Y014606D01*
X027737Y014508D02*
X028412Y014508D01*
X027512Y014508D02*
X022237Y014508D01*
X022237Y014606D02*
X027512Y014606D01*
X027512Y014705D02*
X022237Y014705D01*
X022237Y014803D02*
X027453Y014803D01*
X027355Y014902D02*
X022237Y014902D01*
X022237Y015000D02*
X025856Y015000D01*
X025758Y015099D02*
X022237Y015099D01*
X022237Y015197D02*
X025659Y015197D01*
X025587Y015296D02*
X022237Y015296D01*
X022237Y015394D02*
X025587Y015394D01*
X025587Y015493D02*
X022237Y015493D01*
X022237Y015591D02*
X025587Y015591D01*
X025587Y015690D02*
X022307Y015690D01*
X022405Y015788D02*
X025587Y015788D01*
X027512Y014409D02*
X022237Y014409D01*
X022237Y014311D02*
X027512Y014311D01*
X027512Y014212D02*
X022237Y014212D01*
X022237Y014114D02*
X027512Y014114D01*
X027512Y014015D02*
X022237Y014015D01*
X022237Y013917D02*
X027512Y013917D01*
X027512Y013818D02*
X022237Y013818D01*
X022237Y013720D02*
X027512Y013720D01*
X027512Y013621D02*
X022237Y013621D01*
X021337Y015419D02*
X020463Y015419D01*
X020462Y015420D01*
X019588Y015420D01*
X019587Y015419D01*
X016412Y016294D02*
X016312Y016194D01*
X016412Y016294D02*
X016412Y018719D01*
X015812Y019494D02*
X013637Y017319D01*
X012962Y017319D01*
X015537Y016194D02*
X015563Y016194D01*
X016311Y015445D01*
X016312Y015445D01*
X016312Y014644D01*
X015537Y014644D02*
X015537Y015044D01*
X015537Y015445D01*
X015537Y013895D02*
X016312Y013895D01*
X016312Y013094D01*
X016312Y012345D02*
X016312Y010794D01*
X017837Y009269D01*
X017837Y008419D01*
X019862Y006394D01*
X020112Y006394D01*
X019112Y006394D02*
X017261Y008245D01*
X016287Y008245D01*
X016762Y007669D02*
X013062Y007669D01*
X012417Y008315D01*
X012318Y008315D01*
X011712Y009419D02*
X008662Y009419D01*
X007912Y010169D01*
X007062Y010169D01*
X006562Y010669D01*
X007062Y011169D02*
X008337Y011169D01*
X009287Y010219D01*
X010237Y010219D01*
X010637Y008869D02*
X010635Y008519D01*
X010680Y008315D01*
X009794Y008315D01*
X010237Y007594D02*
X010387Y007444D01*
X015487Y007444D01*
X016512Y006419D01*
X016512Y006394D01*
X017512Y006394D02*
X017512Y006919D01*
X016762Y007669D01*
X015512Y006569D02*
X014862Y007219D01*
X009687Y007219D01*
X009462Y007469D01*
X009487Y006894D02*
X008837Y007544D01*
X008837Y007919D01*
X009487Y006894D02*
X014287Y006894D01*
X014512Y006669D01*
X014512Y006394D01*
X015512Y006394D02*
X015512Y006569D01*
X013737Y008320D02*
X013731Y008315D01*
X013737Y008320D02*
X013737Y008844D01*
X017937Y012394D02*
X017637Y012744D01*
X019237Y012538D02*
X025469Y012538D01*
X025562Y012439D02*
X019237Y012439D01*
X019237Y012341D02*
X025562Y012341D01*
X025562Y012242D02*
X019237Y012242D01*
X019238Y012144D02*
X025562Y012144D01*
X025562Y012045D02*
X019336Y012045D01*
X019435Y011947D02*
X025562Y011947D01*
X025562Y011848D02*
X019533Y011848D01*
X019632Y011750D02*
X025562Y011750D01*
X025562Y011651D02*
X019730Y011651D01*
X019829Y011553D02*
X025562Y011553D01*
X028267Y010199D02*
X028267Y009814D01*
X028512Y009569D01*
X029212Y009569D01*
X029812Y010169D01*
X030038Y010169D01*
X030037Y011044D02*
X029612Y011044D01*
X030037Y011044D02*
X030037Y011144D01*
X030686Y011196D02*
X030786Y011144D01*
X031192Y011750D02*
X031287Y011750D01*
X031287Y011848D02*
X031192Y011848D01*
X031287Y013720D02*
X030437Y013720D01*
X030437Y013818D02*
X031287Y013818D01*
X027813Y008594D02*
X027812Y008293D01*
X026710Y008594D02*
X026552Y008436D01*
X025112Y008470D02*
X025112Y008069D01*
X025137Y008044D01*
X024347Y008044D02*
X024337Y008084D01*
X024337Y008470D01*
X023562Y008470D02*
X023562Y008109D01*
X023572Y008044D01*
X022762Y007644D02*
X022762Y009144D01*
X021362Y010544D01*
X021212Y010544D01*
X021362Y010019D02*
X021037Y009694D01*
X021037Y008995D01*
X021038Y008994D01*
X021037Y008994D02*
X020862Y008819D01*
X020862Y008269D01*
X020862Y007469D02*
X020862Y007194D01*
X022112Y006994D02*
X022112Y006394D01*
X022112Y006994D02*
X022762Y007644D01*
X022187Y008994D02*
X021786Y008994D01*
X022187Y008994D02*
X022212Y009019D01*
X018737Y018140D02*
X018737Y018544D01*
X014387Y022719D02*
X014137Y022469D01*
X010002Y022469D01*
X009762Y022710D01*
X009651Y022820D01*
X008987Y022820D01*
X008212Y022820D01*
X007612Y023069D02*
X008111Y023569D01*
X008212Y023569D01*
X007612Y023069D02*
X007612Y021744D01*
X008062Y021944D02*
X006437Y021944D01*
X006312Y021819D01*
X006312Y020569D01*
X006437Y020444D01*
X006687Y020444D01*
X007312Y019819D01*
X007312Y019694D01*
X007812Y019694D01*
X007812Y020819D01*
X008312Y021319D01*
X008312Y021694D01*
X008062Y021944D01*
X008111Y021895D02*
X006387Y021895D01*
X006312Y021797D02*
X008210Y021797D01*
X008308Y021698D02*
X006312Y021698D01*
X006312Y021600D02*
X008312Y021600D01*
X008312Y021501D02*
X006312Y021501D01*
X006312Y021403D02*
X008312Y021403D01*
X008296Y021304D02*
X006312Y021304D01*
X006312Y021206D02*
X008198Y021206D01*
X008099Y021107D02*
X006312Y021107D01*
X006312Y021009D02*
X008001Y021009D01*
X007902Y020910D02*
X006312Y020910D01*
X006312Y020812D02*
X007812Y020812D01*
X007812Y020713D02*
X006312Y020713D01*
X006312Y020615D02*
X007812Y020615D01*
X007812Y020516D02*
X006365Y020516D01*
X006714Y020418D02*
X007812Y020418D01*
X007812Y020319D02*
X006812Y020319D01*
X006911Y020221D02*
X007812Y020221D01*
X007812Y020122D02*
X007009Y020122D01*
X007108Y020024D02*
X007812Y020024D01*
X007812Y019925D02*
X007206Y019925D01*
X007305Y019827D02*
X007812Y019827D01*
X007812Y019728D02*
X007312Y019728D01*
X006949Y019433D02*
X006312Y019433D01*
X006312Y019531D02*
X006850Y019531D01*
X006812Y019569D02*
X006812Y019694D01*
X006312Y019694D01*
X006312Y017569D01*
X006562Y017319D01*
X007562Y017319D01*
X007812Y017569D01*
X007812Y018819D01*
X007687Y018944D01*
X007437Y018944D01*
X006812Y019569D01*
X006812Y019630D02*
X006312Y019630D01*
X006312Y019334D02*
X007047Y019334D01*
X007146Y019236D02*
X006312Y019236D01*
X006312Y019137D02*
X007244Y019137D01*
X007343Y019039D02*
X006312Y019039D01*
X006312Y018940D02*
X007691Y018940D01*
X007790Y018842D02*
X006312Y018842D01*
X006312Y018743D02*
X007812Y018743D01*
X007812Y018645D02*
X006312Y018645D01*
X006312Y018546D02*
X007812Y018546D01*
X007812Y018448D02*
X006312Y018448D01*
X006312Y018349D02*
X007812Y018349D01*
X007812Y018251D02*
X006312Y018251D01*
X006312Y018152D02*
X007812Y018152D01*
X007812Y018054D02*
X006312Y018054D01*
X006312Y017955D02*
X007812Y017955D01*
X007812Y017857D02*
X006312Y017857D01*
X006312Y017758D02*
X007812Y017758D01*
X007812Y017660D02*
X006312Y017660D01*
X006320Y017561D02*
X007803Y017561D01*
X007705Y017463D02*
X006419Y017463D01*
X006517Y017364D02*
X007606Y017364D01*
X007787Y016169D02*
X008937Y017319D01*
X009937Y017319D01*
X007787Y016169D02*
X007237Y016169D01*
X007087Y016019D01*
X007087Y015269D01*
X006562Y014744D01*
X006562Y014669D01*
X007087Y014194D02*
X008262Y014194D01*
X009462Y015394D01*
X010462Y015394D02*
X010962Y014894D01*
X010962Y014194D01*
X010687Y013919D01*
X010162Y013919D01*
X008412Y012169D01*
X007062Y012169D01*
X006562Y012669D01*
X007337Y013219D02*
X009062Y013219D01*
X010237Y014394D01*
X010462Y014394D01*
X007337Y013219D02*
X006887Y013669D01*
X006562Y013669D01*
X006562Y011669D02*
X007062Y011169D01*
X007062Y022394D02*
X007062Y023569D01*
X008187Y024694D01*
X008912Y024694D01*
X010087Y025869D01*
X021112Y025869D01*
X021512Y025469D01*
X021512Y025394D01*
X023037Y025119D02*
X023037Y026519D01*
X023463Y026944D01*
X023037Y025119D02*
X023512Y024644D01*
X023512Y024219D01*
X026187Y023770D02*
X026188Y023769D01*
X026187Y023770D02*
X026187Y024694D01*
X016412Y024469D02*
X016389Y024446D01*
X015925Y024446D01*
X015925Y023946D02*
X015927Y023944D01*
X016412Y023944D01*
X015925Y023446D02*
X015925Y022946D01*
X015887Y022908D01*
X015887Y022919D02*
X015862Y022894D01*
X015837Y022894D01*
X015812Y022869D01*
X015812Y022594D01*
X015923Y023444D02*
X015925Y023446D01*
X014387Y022719D02*
X014387Y024269D01*
X014210Y024446D01*
X013799Y024446D01*
X013799Y023946D02*
X012960Y023946D01*
X011512Y025394D01*
X011246Y024419D02*
X011246Y024235D01*
X011412Y024069D01*
X011436Y024045D01*
X011436Y023644D01*
X010688Y023644D02*
X010688Y023195D01*
X010687Y023194D01*
X010688Y023644D02*
X010577Y023755D01*
X010577Y024419D01*
X010577Y025329D01*
X010512Y025394D01*
X010112Y026219D02*
X009238Y025345D01*
X008337Y025345D01*
X008987Y023569D02*
X009086Y023469D01*
X009437Y023469D01*
X009671Y023469D01*
X009762Y023379D01*
X012037Y022944D02*
X012402Y022944D01*
X013071Y022944D02*
X013337Y022944D01*
X013797Y022944D01*
X013799Y022946D01*
X013797Y023444D02*
X013799Y023446D01*
X013799Y023946D01*
X008762Y027969D02*
X008362Y027969D01*
X007512Y028019D02*
X007012Y028019D01*
X007512Y028019D02*
X008587Y029094D01*
X008587Y031144D01*
X009437Y031994D01*
X009962Y031994D01*
X010487Y032519D01*
X010487Y033094D01*
X010712Y033319D01*
X013312Y033319D01*
X013812Y033819D01*
X013987Y033819D01*
X013987Y032819D02*
X013362Y032194D01*
X010787Y032194D01*
X009612Y031019D01*
X010012Y030169D02*
X010012Y029694D01*
X010012Y029295D01*
X010011Y029294D01*
X009263Y029294D02*
X009212Y029345D01*
X009212Y030169D01*
X009262Y029269D02*
X009262Y028844D01*
X008987Y032819D02*
X007987Y032819D01*
X007987Y033819D01*
X008987Y032819D02*
X009987Y032819D01*
X010987Y032819D02*
X011987Y032819D01*
D46*
X010012Y029694D03*
X009262Y028844D03*
X008762Y027969D03*
X007412Y026694D03*
X009512Y026119D03*
X011412Y024069D03*
X010687Y023194D03*
X009437Y023469D03*
X007062Y022394D03*
X012037Y022944D03*
X013337Y022944D03*
X015812Y022594D03*
X016412Y023944D03*
X016412Y024469D03*
X014012Y026219D03*
X018737Y022319D03*
X022012Y023244D03*
X023512Y022394D03*
X023512Y024219D03*
X024212Y026369D03*
X026987Y024244D03*
X018737Y018544D03*
X016412Y018719D03*
X015812Y019494D03*
X012962Y017319D03*
X009937Y017319D03*
X007087Y014194D03*
X009787Y011044D03*
X010237Y010219D03*
X011712Y009419D03*
X012387Y009669D03*
X013737Y008844D03*
X016287Y009419D03*
X013737Y011044D03*
X012612Y012544D03*
X015537Y015044D03*
X019412Y012644D03*
X020912Y012419D03*
X021212Y010544D03*
X021362Y010019D03*
X022212Y009019D03*
X020862Y007194D03*
X020612Y005844D03*
X025337Y012394D03*
X028262Y013019D03*
X029612Y011044D03*
X034462Y014744D03*
X021337Y015419D03*
X020912Y016144D03*
X010237Y007594D03*
X009462Y007469D03*
X008837Y007919D03*
D47*
X011937Y015969D02*
X010012Y017894D01*
X008862Y017894D01*
X008187Y018569D01*
X008187Y019444D01*
X007962Y019669D01*
X007562Y019669D01*
X007612Y020069D02*
X007637Y020094D01*
X009013Y020094D01*
X009761Y020094D02*
X009761Y019319D01*
X009013Y019319D02*
X009013Y018520D01*
X010916Y018520D01*
X013492Y015944D01*
X009013Y018520D02*
X008987Y018494D01*
X018737Y016999D02*
X018737Y015819D01*
X019587Y016219D02*
X020412Y016219D01*
X020462Y016169D01*
X020888Y016169D01*
X020912Y016144D01*
X020441Y016999D02*
X021062Y017619D01*
X020441Y016999D02*
X018737Y016999D01*
X019737Y011969D02*
X018637Y010869D01*
X018637Y010132D01*
X018637Y008557D02*
X019324Y007869D01*
X021712Y007869D01*
X026412Y010194D02*
X026912Y010194D01*
X026952Y015569D02*
X026136Y015569D01*
X031412Y023594D02*
X033437Y023594D01*
X033987Y024144D01*
X031412Y023594D02*
X028912Y026094D01*
X027787Y026094D01*
X027837Y026044D01*
X027837Y025265D01*
X027787Y026094D02*
X026337Y026094D01*
X026362Y026119D01*
X026362Y029544D01*
X025723Y030183D01*
X025676Y030183D01*
X024923Y030183D01*
X024266Y030840D01*
X024237Y030840D01*
X024237Y029699D02*
X023937Y029399D01*
X023937Y028719D01*
X024537Y028719D01*
X025676Y027580D01*
X025676Y027206D01*
X024337Y027070D02*
X024211Y026944D01*
X024211Y026495D01*
X024212Y026369D01*
X024337Y027070D02*
X024337Y027869D01*
X023537Y027869D02*
X023537Y027019D01*
X023463Y026944D01*
X027837Y024124D02*
X029266Y024124D01*
X029287Y024144D01*
X018709Y030269D02*
X018634Y030194D01*
X017586Y030194D01*
X016838Y030194D02*
X014887Y030194D01*
X014862Y030169D01*
X014862Y031115D01*
X014866Y031119D01*
X014087Y031869D02*
X012962Y030744D01*
X012962Y030244D01*
X012362Y030244D01*
X010862Y028744D01*
X010862Y027969D01*
X010862Y026969D02*
X011788Y026969D01*
X011813Y026994D01*
X012561Y026994D02*
X012612Y026994D01*
X012612Y027544D01*
X012987Y027919D01*
X012987Y028319D01*
X012962Y028344D01*
X012987Y027919D02*
X013008Y027899D01*
X014862Y027899D01*
X015962Y027919D02*
X015962Y028344D01*
X015262Y029044D01*
X014866Y029044D01*
X014862Y029040D01*
X014862Y030169D01*
X016008Y031119D02*
X016008Y031849D01*
X015987Y031869D01*
X014087Y031869D01*
X015987Y031869D02*
X016758Y031869D01*
X018033Y033144D01*
X019138Y033144D01*
D48*
X026162Y026094D02*
X022387Y022319D01*
X021062Y022319D01*
X018737Y022319D01*
X026162Y026094D02*
X026337Y026094D01*
X031637Y024944D02*
X031987Y025294D01*
X034487Y025294D01*
X035012Y024769D01*
X035957Y024769D01*
X037517Y024769D02*
X037517Y024125D01*
X036436Y023044D01*
X035688Y023044D02*
X035562Y023044D01*
X035237Y022719D01*
X035237Y017919D01*
X035462Y017694D01*
D49*
X025862Y017619D02*
X024762Y017619D01*
X021237Y021144D01*
X018887Y021144D01*
X018287Y021744D01*
X007612Y021744D01*
X007562Y021694D01*
X008987Y020919D02*
X016037Y020919D01*
X017537Y019419D01*
X019712Y019419D01*
X020262Y019969D01*
D50*
X007136Y006819D03*
X007136Y030047D03*
X037058Y006819D03*
D51*
X033249Y009624D02*
X031794Y008169D01*
X029711Y008169D01*
X021862Y027919D02*
X020462Y027919D01*
X018709Y029672D01*
X018709Y030269D01*
X018709Y030569D01*
X020914Y030569D02*
X020914Y032952D01*
X021106Y033144D01*
X023075Y033144D02*
X023075Y033307D01*
X030250Y033331D02*
X030250Y033144D01*
D52*
X027937Y013394D02*
X027757Y013239D01*
X027757Y012439D01*
X027247Y012439D02*
X027247Y013154D01*
X026961Y012645D02*
X026362Y012645D01*
X026961Y012645D02*
X026987Y012619D01*
X026987Y012439D01*
X026987Y010199D02*
X026917Y010199D01*
X026912Y010194D01*
D53*
X037058Y033590D03*
D54*
X035987Y031819D02*
X035487Y031819D01*
X034187Y033119D01*
X034187Y033144D01*
X032912Y031444D02*
X026112Y031444D01*
X025043Y032513D01*
X025043Y033144D01*
X032912Y031444D02*
X033613Y030743D01*
X033613Y030183D01*
X035987Y031819D02*
X037187Y030619D01*
X037187Y028796D01*
X035597Y027206D01*
D55*
X030250Y033331D02*
X028912Y034669D01*
X024437Y034669D01*
X023075Y033307D01*
M02*
