%
M48
M72
T01C0.0236
T02C0.0315
T03C0.0320
T04C0.0354
T05C0.0394
T06C0.0400
T07C0.0512
T08C0.0520
T09C0.0531
T10C0.0787
T11C0.1181
T12C0.1260
%
T01
X8756Y5557
X9381Y5107
X10156Y5232
X10556Y6507
X11631Y7057
X12306Y7307
X13656Y6482
X16206Y7057
X13656Y8682
X12531Y10182
X9706Y8682
X10156Y7857
X7006Y11832
X15456Y12682
X17856Y10682
X17856Y10032
X19331Y10282
X20831Y10057
X21131Y8182
X21281Y7657
X22131Y6657
X23491Y5682
X24266Y5682
X25056Y5682
X26471Y5832
X26846Y5832
X27456Y8457
X27931Y8457
X28406Y8457
X28406Y8957
X27931Y8957
X27456Y8957
X27456Y9457
X27931Y9457
X28406Y9457
X29531Y8682
X28181Y10657
X26331Y8982
X25256Y10032
X21256Y13057
X20831Y13782
X18656Y16182
X16331Y16357
X15731Y17132
X15731Y19407
X13781Y20232
X13106Y19482
X12481Y19907
X9831Y20382
X9806Y21207
X8181Y20782
X6981Y20482
X9431Y23757
X8681Y25607
X9181Y26482
X9931Y27332
X7331Y24332
X13131Y22084
X13931Y23857
X16331Y22107
X16331Y21582
X18656Y19957
X21931Y20882
X23431Y20032
X23431Y21857
X24131Y24007
X26906Y21882
X34381Y12382
X20781Y4832
X20531Y3482
T02
X18556Y6195
X18556Y7770
T03
X14536Y9862
X14536Y10862
X10599Y10862
X10599Y9862
X33040Y12618
X33040Y13618
T04
X24431Y23032
X23431Y23032
X22431Y23032
X21431Y23032
X20431Y23032
X19431Y23032
X18431Y23032
X17431Y23032
X15431Y23032
X14431Y23032
X13431Y23032
X12431Y23032
X11431Y23032
X10431Y23032
X10381Y14032
X10381Y13032
X9381Y13032
X9381Y12032
X10381Y12032
X10431Y4032
X11431Y4032
X12431Y4032
X13431Y4032
X14431Y4032
X15431Y4032
X16431Y4032
X17431Y4032
X19031Y4032
X20031Y4032
X21031Y4032
X22031Y4032
X23031Y4032
X24031Y4032
X25031Y4032
X26031Y4032
X27031Y4032
X28031Y4032
T05
X7481Y7307
X6481Y7307
X6481Y8307
X7481Y8307
X7481Y9307
X6481Y9307
X6481Y10307
X7481Y10307
X7481Y11307
X6481Y11307
X6481Y12307
X7481Y12307
X7481Y13307
X6481Y13307
X6481Y14307
X7481Y14307
X7481Y15307
X6481Y15307
X6481Y16307
X7481Y16307
X7481Y17307
X6481Y17307
X6481Y18307
X7481Y18307
X7481Y19307
X6481Y19307
X7906Y30457
X8906Y30457
X9906Y30457
X10906Y30457
X11906Y30457
X12906Y30457
X13906Y30457
X14906Y30457
X14906Y31457
X13906Y31457
X12906Y31457
X11906Y31457
X10906Y31457
X9906Y31457
X8906Y31457
X7906Y31457
T06
X15881Y25557
X21781Y25557
X17906Y18057
X17906Y15632
X9381Y14032
X8906Y15632
X8906Y18057
T07
X25595Y24844
X25595Y27820
X31548Y27820
X33532Y27820
X35516Y27820
X35516Y24844
X33532Y24844
X31548Y24844
T08
X31556Y22582
X33906Y21782
X29206Y21782
X25781Y19957
X29206Y16982
X25781Y15257
X20981Y15257
X20181Y17607
X20981Y19957
X33906Y16982
T09
X36731Y17676
X36731Y19644
X36731Y15707
X34106Y30782
X32137Y30782
X30169Y30782
X26931Y30782
X24962Y30782
X22994Y30782
X21025Y30782
X19057Y30782
T10
X33168Y10569
X33168Y8916
X33168Y7262
T11
X36042Y7262
X36042Y10569
T12
X7055Y4456
X7055Y27685
X36977Y31228
X36977Y4456
M30
