G75*
G70*
%OFA0B0*%
%FSLAX24Y24*%
%IPPOS*%
%LPD*%
%AMOC8*
5,1,8,0,0,1.08239X$1,22.5*
%
%ADD10C,0.0050*%
%ADD11OC8,0.0594*%
%ADD12OC8,0.0554*%
%ADD13OC8,0.0600*%
%ADD14C,0.0780*%
%ADD15C,0.0700*%
%ADD16OC8,0.0700*%
%ADD17C,0.1181*%
%ADD18C,0.1000*%
%ADD19OC8,0.0520*%
%ADD20C,0.1181*%
%ADD21C,0.0768*%
%ADD22R,0.0594X0.0594*%
%ADD23C,0.0594*%
%ADD24R,0.0591X0.0512*%
%ADD25C,0.0100*%
%ADD26C,0.0010*%
%ADD27R,0.1260X0.0709*%
%ADD28R,0.0396X0.0396*%
%ADD29OC8,0.0396*%
%ADD30C,0.0160*%
%ADD31C,0.0500*%
%ADD32C,0.0240*%
%ADD33C,0.2165*%
%ADD34C,0.0320*%
%ADD35C,0.2362*%
%ADD36C,0.0760*%
D10*
X029583Y007070D02*
X029658Y007070D01*
X029809Y006920D01*
X029809Y007070D02*
X029809Y006769D01*
X029969Y006920D02*
X030269Y006920D01*
X030269Y006995D02*
X030194Y007070D01*
X030044Y007070D01*
X029969Y006995D01*
X029969Y006920D01*
X030044Y006769D02*
X030194Y006769D01*
X030269Y006845D01*
X030269Y006995D01*
X030426Y007070D02*
X030576Y007070D01*
X030501Y007145D02*
X030501Y006845D01*
X030426Y006769D01*
X030736Y006845D02*
X030811Y006920D01*
X030961Y006920D01*
X031036Y006995D01*
X030961Y007070D01*
X030736Y007070D01*
X030736Y006845D02*
X030811Y006769D01*
X031036Y006769D01*
X031196Y006920D02*
X031497Y006920D01*
X031497Y006995D02*
X031422Y007070D01*
X031271Y007070D01*
X031196Y006995D01*
X031196Y006920D01*
X031271Y006769D02*
X031422Y006769D01*
X031497Y006845D01*
X031497Y006995D01*
X031653Y007070D02*
X031804Y007070D01*
X031728Y007145D02*
X031728Y006845D01*
X031653Y006769D01*
X031270Y006345D02*
X031270Y005894D01*
X031420Y005894D02*
X031120Y005894D01*
X030959Y005894D02*
X030959Y006345D01*
X030734Y006345D01*
X030659Y006270D01*
X030659Y006195D01*
X030734Y006120D01*
X030959Y006120D01*
X030734Y006120D02*
X030659Y006045D01*
X030659Y005970D01*
X030734Y005894D01*
X030959Y005894D01*
X030499Y005970D02*
X030424Y005894D01*
X030274Y005894D01*
X030199Y005970D01*
X030199Y006045D01*
X030274Y006120D01*
X030349Y006120D01*
X030274Y006120D02*
X030199Y006195D01*
X030199Y006270D01*
X030274Y006345D01*
X030424Y006345D01*
X030499Y006270D01*
X031270Y006345D02*
X031420Y006195D01*
X031578Y006195D02*
X031653Y006195D01*
X031804Y006045D01*
X031804Y006195D02*
X031804Y005894D01*
X032424Y006270D02*
X032724Y005970D01*
X032724Y005894D01*
X032884Y005894D02*
X033185Y005894D01*
X033035Y005894D02*
X033035Y006345D01*
X033185Y006195D01*
X033345Y006270D02*
X033645Y005970D01*
X033570Y005894D01*
X033420Y005894D01*
X033345Y005970D01*
X033345Y006270D01*
X033420Y006345D01*
X033570Y006345D01*
X033645Y006270D01*
X033645Y005970D01*
X033805Y005894D02*
X034106Y005894D01*
X033805Y006195D01*
X033805Y006270D01*
X033880Y006345D01*
X034030Y006345D01*
X034106Y006270D01*
X034266Y006345D02*
X034566Y005894D01*
X034726Y005894D02*
X035026Y005894D01*
X034726Y006195D01*
X034726Y006270D01*
X034801Y006345D01*
X034951Y006345D01*
X035026Y006270D01*
X035186Y006270D02*
X035487Y005970D01*
X035412Y005894D01*
X035261Y005894D01*
X035186Y005970D01*
X035186Y006270D01*
X035261Y006345D01*
X035412Y006345D01*
X035487Y006270D01*
X035487Y005970D01*
X035487Y006769D02*
X035186Y006769D01*
X035026Y006769D02*
X034726Y006769D01*
X034566Y006769D02*
X034266Y006769D01*
X034566Y006769D02*
X034566Y006845D01*
X034266Y007145D01*
X034266Y007220D01*
X034566Y007220D01*
X034726Y007220D02*
X035026Y007220D01*
X035026Y006769D01*
X035026Y006995D02*
X034876Y006995D01*
X035186Y007220D02*
X035487Y007220D01*
X035487Y006769D01*
X035487Y006995D02*
X035337Y006995D01*
X033645Y006920D02*
X033420Y006920D01*
X033345Y006995D01*
X033345Y007145D01*
X033420Y007220D01*
X033645Y007220D01*
X033645Y006769D01*
X033185Y006845D02*
X033110Y006769D01*
X032960Y006769D01*
X032884Y006845D01*
X032884Y006920D01*
X032960Y006995D01*
X033110Y006995D01*
X033185Y007070D01*
X033185Y007145D01*
X033110Y007220D01*
X032960Y007220D01*
X032884Y007145D01*
X032724Y007220D02*
X032724Y006845D01*
X032649Y006769D01*
X032499Y006769D01*
X032424Y006845D01*
X032424Y007220D01*
X032424Y006345D02*
X032424Y006270D01*
X032424Y006345D02*
X032724Y006345D01*
D11*
X007562Y009669D03*
X006562Y009669D03*
X006562Y010669D03*
X007562Y010669D03*
X007562Y011669D03*
X007562Y012669D03*
X006562Y012669D03*
X006562Y011669D03*
X006562Y013669D03*
X007562Y013669D03*
X007562Y014669D03*
X006562Y014669D03*
X006562Y015669D03*
X007562Y015669D03*
X007562Y016669D03*
X006562Y016669D03*
X006562Y017669D03*
X006562Y018669D03*
X007562Y018669D03*
X007562Y017669D03*
X007562Y019669D03*
X006562Y019669D03*
X006562Y020669D03*
X007562Y020669D03*
X007562Y021669D03*
X006562Y021669D03*
D12*
X010512Y025394D03*
X011512Y025394D03*
X012512Y025394D03*
X013512Y025394D03*
X014512Y025394D03*
X015512Y025394D03*
X017512Y025394D03*
X018512Y025394D03*
X019512Y025394D03*
X020512Y025394D03*
X021512Y025394D03*
X022512Y025394D03*
X023512Y025394D03*
X024512Y025394D03*
X010462Y016394D03*
X010462Y015394D03*
X009462Y015394D03*
X009462Y014394D03*
X010462Y014394D03*
X010512Y006394D03*
X011512Y006394D03*
X012512Y006394D03*
X013512Y006394D03*
X014512Y006394D03*
X015512Y006394D03*
X016512Y006394D03*
X017512Y006394D03*
X019112Y006394D03*
X020112Y006394D03*
X021112Y006394D03*
X022112Y006394D03*
X023112Y006394D03*
X024112Y006394D03*
X025112Y006394D03*
X026112Y006394D03*
X027112Y006394D03*
X028112Y006394D03*
D13*
X017987Y018494D03*
X017987Y020919D03*
X009462Y016394D03*
X008987Y018494D03*
X008987Y020919D03*
X015962Y027919D03*
X021862Y027919D03*
D14*
X021452Y022319D02*
X020672Y022319D01*
X020652Y019969D02*
X019872Y019969D01*
X020672Y017619D02*
X021452Y017619D01*
X025472Y017619D02*
X026252Y017619D01*
X029287Y018954D02*
X029287Y019734D01*
X026252Y022319D02*
X025472Y022319D01*
X029287Y023754D02*
X029287Y024534D01*
X031637Y024554D02*
X031637Y025334D01*
X033987Y024534D02*
X033987Y023754D01*
X033987Y019734D02*
X033987Y018954D01*
D15*
X018637Y008557D03*
D16*
X018637Y010132D03*
D17*
X032659Y009624D02*
X033840Y009624D01*
X033840Y011278D02*
X032659Y011278D01*
X032659Y012931D02*
X033840Y012931D01*
D18*
X031087Y010844D02*
X032307Y009624D01*
X033249Y009624D01*
X031087Y010844D02*
X031087Y024519D01*
X031512Y024944D01*
X036287Y021281D02*
X037287Y021281D01*
X037287Y019313D02*
X036287Y019313D01*
X036287Y017344D02*
X037287Y017344D01*
X034187Y032644D02*
X034187Y033644D01*
X032218Y033644D02*
X032218Y032644D01*
X030250Y032644D02*
X030250Y033644D01*
X027012Y033644D02*
X027012Y032644D01*
X025043Y032644D02*
X025043Y033644D01*
X023075Y033644D02*
X023075Y032644D01*
X021106Y032644D02*
X021106Y033644D01*
X019138Y033644D02*
X019138Y032644D01*
D19*
X033121Y015980D03*
X033121Y014980D03*
X014617Y013224D03*
X014617Y012224D03*
X010680Y012224D03*
X010680Y013224D03*
D20*
X031629Y027206D03*
X033613Y027206D03*
X035597Y027206D03*
X035597Y030183D03*
X033613Y030183D03*
X031629Y030183D03*
D21*
X025676Y030183D03*
X025676Y027206D03*
D22*
X014987Y033819D03*
D23*
X013987Y033819D03*
X012987Y033819D03*
X011987Y033819D03*
X011987Y032819D03*
X012987Y032819D03*
X013987Y032819D03*
X014987Y032819D03*
X010987Y032819D03*
X009987Y032819D03*
X008987Y032819D03*
X007987Y032819D03*
X007987Y033819D03*
X008987Y033819D03*
X009987Y033819D03*
X010987Y033819D03*
D24*
X011962Y027794D03*
X012737Y027794D03*
X012737Y027045D03*
X011962Y027045D03*
D25*
X007620Y005651D02*
X007479Y005613D01*
X020322Y005613D01*
X020244Y005692D01*
X020244Y005947D01*
X019926Y005947D01*
X019665Y006209D01*
X019665Y006580D01*
X019926Y006842D01*
X020297Y006842D01*
X020559Y006580D01*
X020559Y006213D01*
X020665Y006213D01*
X020665Y006580D01*
X020926Y006842D01*
X021297Y006842D01*
X021559Y006580D01*
X021559Y006209D01*
X021414Y006064D01*
X021809Y006064D01*
X021665Y006209D01*
X021665Y006580D01*
X021926Y006842D01*
X022297Y006842D01*
X022559Y006580D01*
X022559Y006209D01*
X022414Y006064D01*
X022809Y006064D01*
X022665Y006209D01*
X022665Y006531D01*
X019157Y010038D01*
X019157Y009916D01*
X018852Y009612D01*
X018421Y009612D01*
X018117Y009916D01*
X018117Y010347D01*
X018219Y010449D01*
X012143Y010449D01*
X010799Y011794D01*
X010502Y011794D01*
X010250Y012046D01*
X010250Y012402D01*
X010502Y012654D01*
X010858Y012654D01*
X011110Y012402D01*
X011110Y012105D01*
X012325Y010889D01*
X015631Y010889D01*
X014726Y011794D01*
X014439Y011794D01*
X014187Y012046D01*
X014187Y012402D01*
X014439Y012654D01*
X014795Y012654D01*
X015047Y012402D01*
X015047Y012095D01*
X016028Y011114D01*
X019028Y011114D01*
X023078Y007064D01*
X023753Y007064D01*
X023976Y006842D01*
X024297Y006842D01*
X024559Y006580D01*
X024559Y006209D01*
X024414Y006064D01*
X024809Y006064D01*
X024665Y006209D01*
X024665Y006580D01*
X024926Y006842D01*
X025297Y006842D01*
X025559Y006580D01*
X025559Y006209D01*
X025414Y006064D01*
X025809Y006064D01*
X025665Y006209D01*
X025665Y006580D01*
X025926Y006842D01*
X026297Y006842D01*
X026559Y006580D01*
X026559Y006209D01*
X026414Y006064D01*
X026471Y006064D01*
X026665Y006258D01*
X026665Y006580D01*
X026926Y006842D01*
X027297Y006842D01*
X027559Y006580D01*
X027559Y006209D01*
X027297Y005947D01*
X026976Y005947D01*
X026782Y005753D01*
X026653Y005624D01*
X020912Y005624D01*
X020901Y005613D01*
X036715Y005613D01*
X036574Y005651D01*
X036289Y005816D01*
X036055Y006049D01*
X035890Y006335D01*
X035805Y006654D01*
X035805Y006983D01*
X035890Y007302D01*
X036055Y007588D01*
X036289Y007821D01*
X036574Y007986D01*
X036893Y008071D01*
X037223Y008071D01*
X037541Y007986D01*
X037827Y007821D01*
X038060Y007588D01*
X038225Y007302D01*
X038263Y007161D01*
X038263Y025669D01*
X032094Y025669D01*
X032111Y025652D01*
X032197Y025446D01*
X032197Y024443D01*
X032111Y024237D01*
X031954Y024080D01*
X031757Y023998D01*
X031757Y019906D01*
X033412Y021561D01*
X033533Y021611D01*
X035698Y021611D01*
X035719Y021661D01*
X035907Y021849D01*
X036153Y021951D01*
X037420Y021951D01*
X037666Y021849D01*
X037855Y021661D01*
X037957Y021415D01*
X037957Y021148D01*
X037855Y020902D01*
X037666Y020713D01*
X037420Y020611D01*
X036153Y020611D01*
X035907Y020713D01*
X035719Y020902D01*
X035698Y020951D01*
X033735Y020951D01*
X032192Y019408D01*
X032192Y014056D01*
X032556Y013692D01*
X033991Y013692D01*
X034270Y013576D01*
X034484Y013362D01*
X034600Y013083D01*
X034600Y012780D01*
X034484Y012500D01*
X034270Y012287D01*
X033991Y012171D01*
X032507Y012171D01*
X032228Y012287D01*
X032014Y012500D01*
X031898Y012780D01*
X031898Y013083D01*
X031996Y013319D01*
X031757Y013558D01*
X031757Y011122D01*
X032498Y010381D01*
X032507Y010385D01*
X033991Y010385D01*
X034270Y010269D01*
X034484Y010055D01*
X034600Y009775D01*
X034600Y009473D01*
X034484Y009193D01*
X034270Y008979D01*
X033991Y008864D01*
X032507Y008864D01*
X032289Y008954D01*
X032174Y008954D01*
X031927Y009056D01*
X030519Y010465D01*
X030417Y010711D01*
X030417Y024653D01*
X029844Y024653D01*
X029847Y024646D02*
X029761Y024852D01*
X029604Y025009D01*
X029398Y025094D01*
X029175Y025094D01*
X028969Y025009D01*
X028812Y024852D01*
X028727Y024646D01*
X028727Y023643D01*
X028812Y023437D01*
X028969Y023280D01*
X029175Y023194D01*
X029398Y023194D01*
X029604Y023280D01*
X029761Y023437D01*
X029847Y023643D01*
X029847Y024646D01*
X029847Y024555D02*
X030417Y024555D01*
X030417Y024653D02*
X030519Y024899D01*
X031085Y025465D01*
X031162Y025652D01*
X031180Y025669D01*
X028587Y025669D01*
X027687Y026569D01*
X015398Y026569D01*
X015732Y026236D01*
X015732Y025807D01*
X015959Y025580D01*
X015959Y025209D01*
X015697Y024947D01*
X015326Y024947D01*
X015065Y025209D01*
X015065Y025580D01*
X015292Y025807D01*
X015292Y026053D01*
X014196Y027149D01*
X014196Y027149D01*
X014067Y027278D01*
X014067Y032074D01*
X013771Y032074D01*
X013396Y032449D01*
X013336Y032509D01*
X013251Y032424D01*
X013080Y032353D01*
X012894Y032353D01*
X012722Y032424D01*
X012591Y032555D01*
X012520Y032727D01*
X012520Y032912D01*
X012591Y033084D01*
X012606Y033099D01*
X012396Y033099D01*
X012124Y033371D01*
X012080Y033353D01*
X011894Y033353D01*
X011722Y033424D01*
X011591Y033555D01*
X011520Y033727D01*
X011520Y033912D01*
X011424Y033912D01*
X011423Y033924D02*
X011401Y033991D01*
X011369Y034054D01*
X011328Y034111D01*
X011278Y034160D01*
X011221Y034202D01*
X011158Y034234D01*
X011091Y034255D01*
X011035Y034264D01*
X011035Y033868D01*
X010938Y033868D01*
X010938Y033771D01*
X010542Y033771D01*
X010551Y033715D01*
X010423Y033715D01*
X010431Y033771D01*
X010035Y033771D01*
X010035Y033375D01*
X010091Y033384D01*
X010158Y033405D01*
X010221Y033437D01*
X010278Y033479D01*
X010328Y033528D01*
X010369Y033585D01*
X010401Y033648D01*
X010423Y033715D01*
X010385Y033617D02*
X010589Y033617D01*
X010573Y033648D02*
X010604Y033585D01*
X010646Y033528D01*
X010696Y033479D01*
X010752Y033437D01*
X010815Y033405D01*
X010882Y033384D01*
X010938Y033375D01*
X010938Y033771D01*
X011035Y033771D01*
X011035Y033375D01*
X011091Y033384D01*
X011158Y033405D01*
X011221Y033437D01*
X011278Y033479D01*
X011328Y033528D01*
X011369Y033585D01*
X011401Y033648D01*
X011423Y033715D01*
X011525Y033715D01*
X011520Y033814D02*
X011035Y033814D01*
X011035Y033771D02*
X011035Y033868D01*
X011431Y033868D01*
X011423Y033924D01*
X011391Y034011D02*
X011561Y034011D01*
X011591Y034084D02*
X011520Y033912D01*
X011431Y033771D02*
X011035Y033771D01*
X011035Y033715D02*
X010938Y033715D01*
X010938Y033617D02*
X011035Y033617D01*
X011035Y033518D02*
X010938Y033518D01*
X010938Y033420D02*
X011035Y033420D01*
X011080Y033286D02*
X010894Y033286D01*
X010722Y033215D01*
X010591Y033084D01*
X010520Y032912D01*
X010520Y032727D01*
X010591Y032555D01*
X010722Y032424D01*
X010894Y032353D01*
X011080Y032353D01*
X011251Y032424D01*
X011382Y032555D01*
X011454Y032727D01*
X011454Y032912D01*
X011382Y033084D01*
X011251Y033215D01*
X011080Y033286D01*
X011233Y033223D02*
X011740Y033223D01*
X011722Y033215D02*
X011591Y033084D01*
X011520Y032912D01*
X011520Y032727D01*
X011591Y032555D01*
X011712Y032434D01*
X011712Y031470D01*
X011742Y031397D01*
X011742Y028219D01*
X011596Y028219D01*
X011496Y028120D01*
X011496Y027467D01*
X011544Y027419D01*
X011496Y027372D01*
X011496Y026719D01*
X011596Y026620D01*
X012327Y026620D01*
X012349Y026641D01*
X012371Y026620D01*
X012517Y026620D01*
X012517Y026078D01*
X013065Y025531D01*
X013065Y025209D01*
X013326Y024947D01*
X013697Y024947D01*
X013792Y025042D01*
X013792Y023711D01*
X013394Y023313D01*
X013184Y023313D01*
X012969Y023097D01*
X012969Y022792D01*
X013047Y022714D01*
X013047Y018662D01*
X013091Y018555D01*
X013172Y018474D01*
X019044Y012602D01*
X019044Y012492D01*
X019259Y012276D01*
X019564Y012276D01*
X019780Y012492D01*
X019780Y012797D01*
X019564Y013013D01*
X019454Y013013D01*
X013627Y018840D01*
X013627Y022714D01*
X013705Y022792D01*
X013705Y023001D01*
X014232Y023528D01*
X014232Y025042D01*
X014326Y024947D01*
X014697Y024947D01*
X014959Y025209D01*
X014959Y025580D01*
X014697Y025842D01*
X014326Y025842D01*
X014232Y025747D01*
X014232Y025919D01*
X014380Y026067D01*
X014380Y026372D01*
X014164Y026588D01*
X013859Y026588D01*
X013644Y026372D01*
X013644Y026067D01*
X013792Y025919D01*
X013792Y025747D01*
X013697Y025842D01*
X013376Y025842D01*
X012957Y026261D01*
X012957Y026620D01*
X013102Y026620D01*
X013202Y026719D01*
X013202Y027372D01*
X013140Y027434D01*
X013152Y027445D01*
X013172Y027480D01*
X013182Y027518D01*
X013182Y027744D01*
X012787Y027744D01*
X012787Y027844D01*
X012687Y027844D01*
X012687Y028199D01*
X012787Y028199D01*
X012787Y027844D01*
X013182Y027844D01*
X013182Y028069D01*
X013172Y028107D01*
X013152Y028142D01*
X013124Y028169D01*
X013090Y028189D01*
X013052Y028199D01*
X012787Y028199D01*
X012787Y028101D02*
X012687Y028101D01*
X012687Y028199D02*
X012422Y028199D01*
X012384Y028189D01*
X012367Y028180D01*
X012327Y028219D01*
X012182Y028219D01*
X012182Y031272D01*
X012387Y031272D01*
X012387Y031097D01*
X012486Y030998D01*
X013887Y030998D01*
X013987Y031097D01*
X013987Y031947D01*
X013887Y032046D01*
X012486Y032046D01*
X012387Y031947D01*
X012387Y031772D01*
X012212Y031772D01*
X012212Y032407D01*
X012251Y032424D01*
X012382Y032555D01*
X012454Y032727D01*
X012454Y032912D01*
X012382Y033084D01*
X012251Y033215D01*
X012080Y033286D01*
X011894Y033286D01*
X011722Y033215D01*
X011631Y033124D02*
X011342Y033124D01*
X011407Y033026D02*
X011567Y033026D01*
X011526Y032927D02*
X011447Y032927D01*
X011454Y032829D02*
X011520Y032829D01*
X011520Y032730D02*
X011454Y032730D01*
X011414Y032632D02*
X011559Y032632D01*
X011613Y032533D02*
X011360Y032533D01*
X011262Y032435D02*
X011711Y032435D01*
X011712Y032336D02*
X005931Y032336D01*
X005931Y032238D02*
X011712Y032238D01*
X011712Y032139D02*
X005931Y032139D01*
X005931Y032041D02*
X011712Y032041D01*
X011712Y031942D02*
X005931Y031942D01*
X005931Y031844D02*
X011712Y031844D01*
X011712Y031745D02*
X005931Y031745D01*
X005931Y031647D02*
X011712Y031647D01*
X011712Y031548D02*
X005931Y031548D01*
X005931Y031450D02*
X011720Y031450D01*
X011742Y031351D02*
X005931Y031351D01*
X005931Y031253D02*
X006796Y031253D01*
X006653Y031214D02*
X006367Y031049D01*
X006134Y030816D01*
X005969Y030530D01*
X005931Y030389D01*
X005931Y034795D01*
X015687Y034795D01*
X015687Y032319D01*
X014812Y031444D01*
X014812Y027156D01*
X014507Y027461D01*
X014507Y032286D01*
X014407Y032386D01*
X014310Y032482D01*
X014382Y032555D01*
X014454Y032727D01*
X014454Y032912D01*
X014382Y033084D01*
X014251Y033215D01*
X014080Y033286D01*
X013894Y033286D01*
X013722Y033215D01*
X013707Y033200D01*
X013707Y033211D01*
X013507Y033411D01*
X013378Y033539D01*
X013367Y033539D01*
X013382Y033555D01*
X013454Y033727D01*
X013454Y033912D01*
X013520Y033912D01*
X013520Y033727D01*
X013591Y033555D01*
X013722Y033424D01*
X013894Y033353D01*
X014080Y033353D01*
X014251Y033424D01*
X014382Y033555D01*
X014454Y033727D01*
X014454Y033912D01*
X014540Y033912D01*
X014540Y033868D02*
X014540Y034136D01*
X014550Y034174D01*
X014570Y034208D01*
X014598Y034236D01*
X014632Y034256D01*
X014670Y034266D01*
X014938Y034266D01*
X014938Y033868D01*
X014938Y033771D01*
X014540Y033771D01*
X014540Y033503D01*
X014550Y033465D01*
X014570Y033431D01*
X014598Y033403D01*
X014632Y033383D01*
X014670Y033373D01*
X014938Y033373D01*
X014938Y033771D01*
X015035Y033771D01*
X015035Y033373D01*
X015303Y033373D01*
X015341Y033383D01*
X015376Y033403D01*
X015404Y033431D01*
X015423Y033465D01*
X015434Y033503D01*
X015434Y033771D01*
X015035Y033771D01*
X015035Y033868D01*
X014938Y033868D01*
X014540Y033868D01*
X014454Y033912D02*
X014382Y034084D01*
X014251Y034215D01*
X014080Y034286D01*
X013894Y034286D01*
X013722Y034215D01*
X013591Y034084D01*
X013520Y033912D01*
X013454Y033912D02*
X013382Y034084D01*
X013251Y034215D01*
X013080Y034286D01*
X012894Y034286D01*
X012722Y034215D01*
X012591Y034084D01*
X012520Y033912D01*
X012454Y033912D01*
X012382Y034084D01*
X012251Y034215D01*
X012080Y034286D01*
X011894Y034286D01*
X011722Y034215D01*
X011591Y034084D01*
X011616Y034109D02*
X011329Y034109D01*
X011209Y034208D02*
X011715Y034208D01*
X011987Y033819D02*
X012487Y033319D01*
X013287Y033319D01*
X013487Y033119D01*
X013487Y032669D01*
X013862Y032294D01*
X014187Y032294D01*
X014287Y032194D01*
X014287Y027369D01*
X015512Y026144D01*
X015512Y025394D01*
X015797Y025047D02*
X017227Y025047D01*
X017325Y024949D02*
X015698Y024949D01*
X015895Y025146D02*
X017128Y025146D01*
X017065Y025209D02*
X017326Y024947D01*
X017697Y024947D01*
X017959Y025209D01*
X017959Y025580D01*
X017697Y025842D01*
X017326Y025842D01*
X017065Y025580D01*
X017065Y025209D01*
X017065Y025244D02*
X015959Y025244D01*
X015959Y025343D02*
X017065Y025343D01*
X017065Y025441D02*
X015959Y025441D01*
X015959Y025540D02*
X017065Y025540D01*
X017123Y025638D02*
X015900Y025638D01*
X015802Y025737D02*
X017221Y025737D01*
X017320Y025835D02*
X015732Y025835D01*
X015732Y025934D02*
X028323Y025934D01*
X028224Y026032D02*
X015732Y026032D01*
X015732Y026131D02*
X028126Y026131D01*
X028027Y026229D02*
X015732Y026229D01*
X015640Y026328D02*
X027929Y026328D01*
X027830Y026426D02*
X015541Y026426D01*
X015443Y026525D02*
X027732Y026525D01*
X028421Y025835D02*
X024703Y025835D01*
X024697Y025842D02*
X024326Y025842D01*
X024065Y025580D01*
X024065Y025209D01*
X024326Y024947D01*
X024697Y024947D01*
X024959Y025209D01*
X024959Y025580D01*
X024697Y025842D01*
X024802Y025737D02*
X028520Y025737D01*
X029061Y025047D02*
X024797Y025047D01*
X024895Y025146D02*
X030765Y025146D01*
X030864Y025244D02*
X024959Y025244D01*
X024959Y025343D02*
X030962Y025343D01*
X031061Y025441D02*
X024959Y025441D01*
X024959Y025540D02*
X031115Y025540D01*
X031156Y025638D02*
X024900Y025638D01*
X024320Y025835D02*
X023703Y025835D01*
X023697Y025842D02*
X023326Y025842D01*
X023065Y025580D01*
X023065Y025209D01*
X023326Y024947D01*
X023697Y024947D01*
X023959Y025209D01*
X023959Y025580D01*
X023697Y025842D01*
X023802Y025737D02*
X024221Y025737D01*
X024123Y025638D02*
X023900Y025638D01*
X023959Y025540D02*
X024065Y025540D01*
X024065Y025441D02*
X023959Y025441D01*
X023959Y025343D02*
X024065Y025343D01*
X024065Y025244D02*
X023959Y025244D01*
X023895Y025146D02*
X024128Y025146D01*
X024227Y025047D02*
X023797Y025047D01*
X023698Y024949D02*
X024325Y024949D01*
X024698Y024949D02*
X028909Y024949D01*
X028811Y024850D02*
X020586Y024850D01*
X020683Y024947D02*
X020697Y024947D01*
X020959Y025209D01*
X020959Y025580D01*
X020697Y025842D01*
X020326Y025842D01*
X020065Y025580D01*
X020065Y025516D01*
X019904Y025356D01*
X019550Y025356D01*
X019550Y025002D01*
X018381Y023832D01*
X018317Y023678D01*
X018317Y021367D01*
X018298Y021386D01*
X018096Y021469D01*
X017877Y021469D01*
X017675Y021386D01*
X017520Y021231D01*
X017437Y021029D01*
X017437Y018385D01*
X017520Y018183D01*
X017675Y018028D01*
X017877Y017944D01*
X018096Y017944D01*
X018298Y018028D01*
X018317Y018047D01*
X018317Y017061D01*
X018381Y016907D01*
X018499Y016788D01*
X020492Y014796D01*
X020492Y012336D01*
X020556Y012182D01*
X020674Y012063D01*
X020828Y011999D01*
X020995Y011999D01*
X021117Y012050D01*
X021117Y010913D01*
X021059Y010913D01*
X020844Y010697D01*
X020844Y010392D01*
X021029Y010207D01*
X020994Y010172D01*
X020994Y009867D01*
X021209Y009651D01*
X021514Y009651D01*
X021730Y009867D01*
X021730Y010076D01*
X021782Y010128D01*
X021782Y015028D01*
X022232Y015478D01*
X022232Y022944D01*
X022380Y023092D01*
X022380Y023397D01*
X022164Y023613D01*
X021859Y023613D01*
X021644Y023397D01*
X021644Y023092D01*
X021792Y022944D01*
X021792Y022771D01*
X021769Y022794D01*
X021563Y022879D01*
X020560Y022879D01*
X020354Y022794D01*
X020197Y022637D01*
X020112Y022431D01*
X020112Y022208D01*
X020197Y022002D01*
X020354Y021845D01*
X020560Y021759D01*
X021563Y021759D01*
X021769Y021845D01*
X021792Y021868D01*
X021792Y018071D01*
X021769Y018094D01*
X021563Y018179D01*
X020560Y018179D01*
X020354Y018094D01*
X020197Y017937D01*
X020112Y017731D01*
X020112Y017508D01*
X020197Y017302D01*
X020354Y017145D01*
X020560Y017059D01*
X021563Y017059D01*
X021769Y017145D01*
X021792Y017168D01*
X021792Y015661D01*
X021704Y015573D01*
X021489Y015788D01*
X021184Y015788D01*
X020969Y015572D01*
X020969Y015507D01*
X019157Y017318D01*
X019157Y023421D01*
X020683Y024947D01*
X020698Y024949D02*
X021325Y024949D01*
X021326Y024947D02*
X021697Y024947D01*
X021959Y025209D01*
X021959Y025580D01*
X021697Y025842D01*
X021326Y025842D01*
X021065Y025580D01*
X021065Y025209D01*
X021326Y024947D01*
X021227Y025047D02*
X020797Y025047D01*
X020895Y025146D02*
X021128Y025146D01*
X021065Y025244D02*
X020959Y025244D01*
X020959Y025343D02*
X021065Y025343D01*
X021065Y025441D02*
X020959Y025441D01*
X020959Y025540D02*
X021065Y025540D01*
X021123Y025638D02*
X020900Y025638D01*
X020802Y025737D02*
X021221Y025737D01*
X021320Y025835D02*
X020703Y025835D01*
X020320Y025835D02*
X017703Y025835D01*
X017802Y025737D02*
X018250Y025737D01*
X018335Y025822D02*
X018085Y025571D01*
X018085Y025433D01*
X018473Y025433D01*
X018473Y025356D01*
X018085Y025356D01*
X018085Y025218D01*
X018335Y024967D01*
X018473Y024967D01*
X018473Y025356D01*
X018550Y025356D01*
X018550Y024967D01*
X018689Y024967D01*
X018939Y025218D01*
X018939Y025356D01*
X018550Y025356D01*
X018550Y025433D01*
X018473Y025433D01*
X018473Y025822D01*
X018335Y025822D01*
X018473Y025737D02*
X018550Y025737D01*
X018550Y025822D02*
X018550Y025433D01*
X018939Y025433D01*
X018939Y025571D01*
X018689Y025822D01*
X018550Y025822D01*
X018550Y025638D02*
X018473Y025638D01*
X018473Y025540D02*
X018550Y025540D01*
X018550Y025441D02*
X018473Y025441D01*
X018473Y025343D02*
X018550Y025343D01*
X018550Y025244D02*
X018473Y025244D01*
X018473Y025146D02*
X018550Y025146D01*
X018550Y025047D02*
X018473Y025047D01*
X018255Y025047D02*
X017797Y025047D01*
X017895Y025146D02*
X018157Y025146D01*
X018085Y025244D02*
X017959Y025244D01*
X017959Y025343D02*
X018085Y025343D01*
X018085Y025441D02*
X017959Y025441D01*
X017959Y025540D02*
X018085Y025540D01*
X018151Y025638D02*
X017900Y025638D01*
X017698Y024949D02*
X019497Y024949D01*
X019473Y024967D02*
X019473Y025356D01*
X019085Y025356D01*
X019085Y025218D01*
X019335Y024967D01*
X019473Y024967D01*
X019473Y025047D02*
X019550Y025047D01*
X019550Y025146D02*
X019473Y025146D01*
X019473Y025244D02*
X019550Y025244D01*
X019550Y025343D02*
X019473Y025343D01*
X019473Y025356D02*
X019550Y025356D01*
X019550Y025433D01*
X019473Y025433D01*
X019473Y025356D01*
X019473Y025433D02*
X019085Y025433D01*
X019085Y025571D01*
X019335Y025822D01*
X019473Y025822D01*
X019473Y025433D01*
X019473Y025441D02*
X019550Y025441D01*
X019550Y025433D02*
X019550Y025822D01*
X019689Y025822D01*
X019939Y025571D01*
X019939Y025433D01*
X019550Y025433D01*
X019550Y025540D02*
X019473Y025540D01*
X019473Y025638D02*
X019550Y025638D01*
X019550Y025737D02*
X019473Y025737D01*
X019250Y025737D02*
X018774Y025737D01*
X018872Y025638D02*
X019151Y025638D01*
X019085Y025540D02*
X018939Y025540D01*
X018939Y025441D02*
X019085Y025441D01*
X019085Y025343D02*
X018939Y025343D01*
X018939Y025244D02*
X019085Y025244D01*
X019157Y025146D02*
X018867Y025146D01*
X018768Y025047D02*
X019255Y025047D01*
X019398Y024850D02*
X014232Y024850D01*
X014232Y024752D02*
X019300Y024752D01*
X019201Y024653D02*
X014232Y024653D01*
X014232Y024555D02*
X019103Y024555D01*
X019004Y024456D02*
X014232Y024456D01*
X014232Y024358D02*
X018906Y024358D01*
X018807Y024259D02*
X016618Y024259D01*
X016564Y024313D02*
X016259Y024313D01*
X016044Y024097D01*
X016044Y023792D01*
X016192Y023644D01*
X016192Y019020D01*
X016044Y018872D01*
X016044Y018567D01*
X016259Y018351D01*
X016564Y018351D01*
X016780Y018567D01*
X016780Y018872D01*
X016632Y019020D01*
X016632Y023644D01*
X016780Y023792D01*
X016780Y024097D01*
X016564Y024313D01*
X016716Y024161D02*
X018709Y024161D01*
X018610Y024062D02*
X016780Y024062D01*
X016780Y023964D02*
X018512Y023964D01*
X018413Y023865D02*
X016780Y023865D01*
X016754Y023767D02*
X018353Y023767D01*
X018317Y023668D02*
X016656Y023668D01*
X016632Y023570D02*
X018317Y023570D01*
X018317Y023471D02*
X016632Y023471D01*
X016632Y023373D02*
X018317Y023373D01*
X018317Y023274D02*
X016632Y023274D01*
X016632Y023176D02*
X018317Y023176D01*
X018317Y023077D02*
X016632Y023077D01*
X016632Y022979D02*
X018317Y022979D01*
X018317Y022880D02*
X016632Y022880D01*
X016632Y022782D02*
X018317Y022782D01*
X018317Y022683D02*
X016632Y022683D01*
X016632Y022585D02*
X018317Y022585D01*
X018317Y022486D02*
X016632Y022486D01*
X016632Y022388D02*
X018317Y022388D01*
X018317Y022289D02*
X016632Y022289D01*
X016632Y022191D02*
X018317Y022191D01*
X018317Y022092D02*
X016632Y022092D01*
X016632Y021994D02*
X018317Y021994D01*
X018317Y021895D02*
X016632Y021895D01*
X016632Y021797D02*
X018317Y021797D01*
X018317Y021698D02*
X016632Y021698D01*
X016632Y021600D02*
X018317Y021600D01*
X018317Y021501D02*
X016632Y021501D01*
X016632Y021403D02*
X017716Y021403D01*
X017593Y021304D02*
X016632Y021304D01*
X016632Y021206D02*
X017510Y021206D01*
X017469Y021107D02*
X016632Y021107D01*
X016632Y021009D02*
X017437Y021009D01*
X017437Y020910D02*
X016632Y020910D01*
X016632Y020812D02*
X017437Y020812D01*
X017437Y020713D02*
X016632Y020713D01*
X016632Y020615D02*
X017437Y020615D01*
X017437Y020516D02*
X016632Y020516D01*
X016632Y020418D02*
X017437Y020418D01*
X017437Y020319D02*
X016632Y020319D01*
X016632Y020221D02*
X017437Y020221D01*
X017437Y020122D02*
X016632Y020122D01*
X016632Y020024D02*
X017437Y020024D01*
X017437Y019925D02*
X016632Y019925D01*
X016632Y019827D02*
X017437Y019827D01*
X017437Y019728D02*
X016632Y019728D01*
X016632Y019630D02*
X017437Y019630D01*
X017437Y019531D02*
X016632Y019531D01*
X016632Y019433D02*
X017437Y019433D01*
X017437Y019334D02*
X016632Y019334D01*
X016632Y019236D02*
X017437Y019236D01*
X017437Y019137D02*
X016632Y019137D01*
X016632Y019039D02*
X017437Y019039D01*
X017437Y018940D02*
X016712Y018940D01*
X016780Y018842D02*
X017437Y018842D01*
X017437Y018743D02*
X016780Y018743D01*
X016780Y018645D02*
X017437Y018645D01*
X017437Y018546D02*
X016759Y018546D01*
X016660Y018448D02*
X017437Y018448D01*
X017452Y018349D02*
X014117Y018349D01*
X014019Y018448D02*
X016163Y018448D01*
X016065Y018546D02*
X013920Y018546D01*
X013822Y018645D02*
X016044Y018645D01*
X016044Y018743D02*
X013723Y018743D01*
X013627Y018842D02*
X016044Y018842D01*
X016112Y018940D02*
X013627Y018940D01*
X013627Y019039D02*
X016192Y019039D01*
X016192Y019137D02*
X015975Y019137D01*
X015964Y019126D02*
X016180Y019342D01*
X016180Y019647D01*
X016032Y019795D01*
X016032Y022294D01*
X016180Y022442D01*
X016180Y022747D01*
X015964Y022963D01*
X015659Y022963D01*
X015444Y022747D01*
X015444Y022442D01*
X015592Y022294D01*
X015592Y019795D01*
X015444Y019647D01*
X015444Y019342D01*
X015659Y019126D01*
X015964Y019126D01*
X016073Y019236D02*
X016192Y019236D01*
X016192Y019334D02*
X016172Y019334D01*
X016180Y019433D02*
X016192Y019433D01*
X016180Y019531D02*
X016192Y019531D01*
X016180Y019630D02*
X016192Y019630D01*
X016192Y019728D02*
X016099Y019728D01*
X016032Y019827D02*
X016192Y019827D01*
X016192Y019925D02*
X016032Y019925D01*
X016032Y020024D02*
X016192Y020024D01*
X016192Y020122D02*
X016032Y020122D01*
X016032Y020221D02*
X016192Y020221D01*
X016192Y020319D02*
X016032Y020319D01*
X016032Y020418D02*
X016192Y020418D01*
X016192Y020516D02*
X016032Y020516D01*
X016032Y020615D02*
X016192Y020615D01*
X016192Y020713D02*
X016032Y020713D01*
X016032Y020812D02*
X016192Y020812D01*
X016192Y020910D02*
X016032Y020910D01*
X016032Y021009D02*
X016192Y021009D01*
X016192Y021107D02*
X016032Y021107D01*
X016032Y021206D02*
X016192Y021206D01*
X016192Y021304D02*
X016032Y021304D01*
X016032Y021403D02*
X016192Y021403D01*
X016192Y021501D02*
X016032Y021501D01*
X016032Y021600D02*
X016192Y021600D01*
X016192Y021698D02*
X016032Y021698D01*
X016032Y021797D02*
X016192Y021797D01*
X016192Y021895D02*
X016032Y021895D01*
X016032Y021994D02*
X016192Y021994D01*
X016192Y022092D02*
X016032Y022092D01*
X016032Y022191D02*
X016192Y022191D01*
X016192Y022289D02*
X016032Y022289D01*
X016125Y022388D02*
X016192Y022388D01*
X016180Y022486D02*
X016192Y022486D01*
X016180Y022585D02*
X016192Y022585D01*
X016180Y022683D02*
X016192Y022683D01*
X016192Y022782D02*
X016145Y022782D01*
X016192Y022880D02*
X016047Y022880D01*
X016192Y022979D02*
X013705Y022979D01*
X013705Y022880D02*
X015577Y022880D01*
X015478Y022782D02*
X013694Y022782D01*
X013627Y022683D02*
X015444Y022683D01*
X015444Y022585D02*
X013627Y022585D01*
X013627Y022486D02*
X015444Y022486D01*
X015498Y022388D02*
X013627Y022388D01*
X013627Y022289D02*
X015592Y022289D01*
X015592Y022191D02*
X013627Y022191D01*
X013627Y022092D02*
X015592Y022092D01*
X015592Y021994D02*
X013627Y021994D01*
X013627Y021895D02*
X015592Y021895D01*
X015592Y021797D02*
X013627Y021797D01*
X013627Y021698D02*
X015592Y021698D01*
X015592Y021600D02*
X013627Y021600D01*
X013627Y021501D02*
X015592Y021501D01*
X015592Y021403D02*
X013627Y021403D01*
X013627Y021304D02*
X015592Y021304D01*
X015592Y021206D02*
X013627Y021206D01*
X013627Y021107D02*
X015592Y021107D01*
X015592Y021009D02*
X013627Y021009D01*
X013627Y020910D02*
X015592Y020910D01*
X015592Y020812D02*
X013627Y020812D01*
X013627Y020713D02*
X015592Y020713D01*
X015592Y020615D02*
X013627Y020615D01*
X013627Y020516D02*
X015592Y020516D01*
X015592Y020418D02*
X013627Y020418D01*
X013627Y020319D02*
X015592Y020319D01*
X015592Y020221D02*
X013627Y020221D01*
X013627Y020122D02*
X015592Y020122D01*
X015592Y020024D02*
X013627Y020024D01*
X013627Y019925D02*
X015592Y019925D01*
X015592Y019827D02*
X013627Y019827D01*
X013627Y019728D02*
X015525Y019728D01*
X015444Y019630D02*
X013627Y019630D01*
X013627Y019531D02*
X015444Y019531D01*
X015444Y019433D02*
X013627Y019433D01*
X013627Y019334D02*
X015452Y019334D01*
X015550Y019236D02*
X013627Y019236D01*
X013627Y019137D02*
X015649Y019137D01*
X015812Y019494D02*
X015812Y022594D01*
X016192Y023077D02*
X013780Y023077D01*
X013879Y023176D02*
X016192Y023176D01*
X016192Y023274D02*
X013977Y023274D01*
X014076Y023373D02*
X016192Y023373D01*
X016192Y023471D02*
X014174Y023471D01*
X014232Y023570D02*
X016192Y023570D01*
X016168Y023668D02*
X014232Y023668D01*
X014232Y023767D02*
X016069Y023767D01*
X016044Y023865D02*
X014232Y023865D01*
X014232Y023964D02*
X016044Y023964D01*
X016044Y024062D02*
X014232Y024062D01*
X014232Y024161D02*
X016107Y024161D01*
X016206Y024259D02*
X014232Y024259D01*
X013792Y024259D02*
X006157Y024259D01*
X006157Y024161D02*
X013792Y024161D01*
X013792Y024062D02*
X006157Y024062D01*
X006157Y023964D02*
X013792Y023964D01*
X013792Y023865D02*
X006157Y023865D01*
X006157Y023767D02*
X013792Y023767D01*
X013749Y023668D02*
X006157Y023668D01*
X006157Y023570D02*
X013651Y023570D01*
X013552Y023471D02*
X010931Y023471D01*
X010839Y023563D02*
X010534Y023563D01*
X010319Y023347D01*
X010319Y023042D01*
X010467Y022894D01*
X010467Y019161D01*
X008029Y016722D01*
X008029Y016863D01*
X007755Y017136D01*
X007368Y017136D01*
X007095Y016863D01*
X007095Y016476D01*
X007181Y016389D01*
X006971Y016389D01*
X006717Y016136D01*
X006368Y016136D01*
X006157Y015925D01*
X006157Y016414D01*
X006368Y016203D01*
X006755Y016203D01*
X007029Y016476D01*
X007029Y016825D01*
X007153Y016949D01*
X007282Y017078D01*
X007282Y017289D01*
X007368Y017203D01*
X007755Y017203D01*
X008029Y017476D01*
X008029Y017863D01*
X007755Y018136D01*
X007368Y018136D01*
X007282Y018050D01*
X007282Y018289D01*
X007368Y018203D01*
X007755Y018203D01*
X007802Y018249D01*
X008567Y018249D01*
X008792Y018024D01*
X009181Y018024D01*
X009457Y018300D01*
X009457Y018689D01*
X009181Y018964D01*
X009111Y018964D01*
X009050Y019026D01*
X008895Y019089D01*
X007802Y019089D01*
X007755Y019136D01*
X007368Y019136D01*
X007282Y019050D01*
X007282Y019289D01*
X007368Y019203D01*
X007755Y019203D01*
X008029Y019476D01*
X008029Y019863D01*
X007755Y020136D01*
X007368Y020136D01*
X007282Y020050D01*
X007282Y020289D01*
X007368Y020203D01*
X007755Y020203D01*
X008029Y020476D01*
X008029Y020863D01*
X007755Y021136D01*
X007368Y021136D01*
X007282Y021050D01*
X007282Y021289D01*
X007368Y021203D01*
X007755Y021203D01*
X008029Y021476D01*
X008029Y021863D01*
X007755Y022136D01*
X007368Y022136D01*
X007282Y022050D01*
X007282Y022094D01*
X007430Y022242D01*
X007430Y022547D01*
X007214Y022763D01*
X006909Y022763D01*
X006694Y022547D01*
X006694Y022242D01*
X006842Y022094D01*
X006842Y022050D01*
X006755Y022136D01*
X006368Y022136D01*
X006157Y021925D01*
X006157Y027453D01*
X006953Y028249D01*
X008978Y028249D01*
X009205Y028476D01*
X009414Y028476D01*
X009630Y028692D01*
X009630Y028997D01*
X009414Y029213D01*
X009109Y029213D01*
X008894Y028997D01*
X008894Y028788D01*
X008796Y028689D01*
X006771Y028689D01*
X006642Y028561D01*
X005931Y027850D01*
X005931Y029704D01*
X005969Y029563D01*
X006134Y029278D01*
X006367Y029044D01*
X006653Y028880D01*
X006972Y028794D01*
X007301Y028794D01*
X007620Y028880D01*
X007906Y029044D01*
X008139Y029278D01*
X008304Y029563D01*
X008389Y029882D01*
X008389Y030212D01*
X008304Y030530D01*
X008139Y030816D01*
X007906Y031049D01*
X007620Y031214D01*
X007301Y031300D01*
X006972Y031300D01*
X006653Y031214D01*
X006549Y031154D02*
X005931Y031154D01*
X005931Y031056D02*
X006378Y031056D01*
X006275Y030957D02*
X005931Y030957D01*
X005931Y030859D02*
X006177Y030859D01*
X006102Y030760D02*
X005931Y030760D01*
X005931Y030662D02*
X006045Y030662D01*
X005988Y030563D02*
X005931Y030563D01*
X005931Y030465D02*
X005952Y030465D01*
X005931Y029677D02*
X005939Y029677D01*
X005931Y029578D02*
X005965Y029578D01*
X005931Y029480D02*
X006018Y029480D01*
X006074Y029381D02*
X005931Y029381D01*
X005931Y029283D02*
X006131Y029283D01*
X006228Y029184D02*
X005931Y029184D01*
X005931Y029086D02*
X006326Y029086D01*
X006467Y028987D02*
X005931Y028987D01*
X005931Y028889D02*
X006637Y028889D01*
X006674Y028593D02*
X005931Y028593D01*
X005931Y028495D02*
X006576Y028495D01*
X006477Y028396D02*
X005931Y028396D01*
X005931Y028298D02*
X006379Y028298D01*
X006280Y028199D02*
X005931Y028199D01*
X005931Y028101D02*
X006182Y028101D01*
X006083Y028002D02*
X005931Y028002D01*
X005931Y027904D02*
X005985Y027904D01*
X005937Y027544D02*
X005937Y009169D01*
X006437Y008669D01*
X007237Y008669D01*
X008587Y007319D01*
X008587Y006444D01*
X009137Y005894D01*
X011012Y005894D01*
X011512Y006394D01*
X011813Y006726D02*
X012094Y006726D01*
X012152Y006668D02*
X012065Y006580D01*
X012065Y006209D01*
X012326Y005947D01*
X012697Y005947D01*
X012959Y006209D01*
X012959Y006580D01*
X012697Y006842D01*
X012601Y006842D01*
X011332Y008111D01*
X011332Y010536D01*
X008978Y012889D01*
X008002Y012889D01*
X007755Y013136D01*
X007368Y013136D01*
X007300Y013068D01*
X007301Y013298D01*
X007377Y013223D01*
X007513Y013223D01*
X007513Y013621D01*
X007610Y013621D01*
X007610Y013223D01*
X007747Y013223D01*
X008009Y013484D01*
X008009Y013621D01*
X010469Y013621D01*
X010502Y013654D02*
X010250Y013402D01*
X010250Y013046D01*
X010502Y012794D01*
X010858Y012794D01*
X011110Y013046D01*
X011110Y013402D01*
X010858Y013654D01*
X010502Y013654D01*
X010370Y013523D02*
X008009Y013523D01*
X008009Y013621D02*
X007610Y013621D01*
X007513Y013621D01*
X007513Y013718D02*
X007513Y014116D01*
X007455Y014116D01*
X007455Y014223D01*
X007513Y014223D01*
X007513Y014621D01*
X007115Y014621D01*
X007115Y014563D01*
X007029Y014563D01*
X007029Y014863D01*
X006755Y015136D01*
X006368Y015136D01*
X006157Y014925D01*
X006157Y015414D01*
X006368Y015203D01*
X006755Y015203D01*
X007029Y015476D01*
X007029Y015825D01*
X007153Y015949D01*
X007210Y015949D01*
X007115Y015855D01*
X007115Y015718D01*
X007513Y015718D01*
X007513Y015621D01*
X007115Y015621D01*
X007115Y015484D01*
X007377Y015223D01*
X007513Y015223D01*
X007513Y015621D01*
X007610Y015621D01*
X007610Y015223D01*
X007747Y015223D01*
X008009Y015484D01*
X008009Y015621D01*
X007610Y015621D01*
X007610Y015718D01*
X008009Y015718D01*
X008009Y015855D01*
X007896Y015967D01*
X010907Y018978D01*
X010907Y022894D01*
X011055Y023042D01*
X011055Y023347D01*
X010839Y023563D01*
X011029Y023373D02*
X013454Y023373D01*
X013146Y023274D02*
X011055Y023274D01*
X011055Y023176D02*
X013047Y023176D01*
X012969Y023077D02*
X011055Y023077D01*
X010991Y022979D02*
X012969Y022979D01*
X012969Y022880D02*
X010907Y022880D01*
X010907Y022782D02*
X012979Y022782D01*
X013047Y022683D02*
X010907Y022683D01*
X010907Y022585D02*
X013047Y022585D01*
X013047Y022486D02*
X010907Y022486D01*
X010907Y022388D02*
X013047Y022388D01*
X013047Y022289D02*
X010907Y022289D01*
X010907Y022191D02*
X013047Y022191D01*
X013047Y022092D02*
X010907Y022092D01*
X010907Y021994D02*
X013047Y021994D01*
X013047Y021895D02*
X010907Y021895D01*
X010907Y021797D02*
X013047Y021797D01*
X013047Y021698D02*
X010907Y021698D01*
X010907Y021600D02*
X013047Y021600D01*
X013047Y021501D02*
X010907Y021501D01*
X010907Y021403D02*
X013047Y021403D01*
X013047Y021304D02*
X010907Y021304D01*
X010907Y021206D02*
X013047Y021206D01*
X013047Y021107D02*
X010907Y021107D01*
X010907Y021009D02*
X013047Y021009D01*
X013047Y020910D02*
X010907Y020910D01*
X010907Y020812D02*
X013047Y020812D01*
X013047Y020713D02*
X010907Y020713D01*
X010907Y020615D02*
X013047Y020615D01*
X013047Y020516D02*
X010907Y020516D01*
X010907Y020418D02*
X013047Y020418D01*
X013047Y020319D02*
X010907Y020319D01*
X010907Y020221D02*
X013047Y020221D01*
X013047Y020122D02*
X010907Y020122D01*
X010907Y020024D02*
X013047Y020024D01*
X013047Y019925D02*
X010907Y019925D01*
X010907Y019827D02*
X013047Y019827D01*
X013047Y019728D02*
X010907Y019728D01*
X010907Y019630D02*
X013047Y019630D01*
X013047Y019531D02*
X010907Y019531D01*
X010907Y019433D02*
X013047Y019433D01*
X013047Y019334D02*
X010907Y019334D01*
X010907Y019236D02*
X013047Y019236D01*
X013047Y019137D02*
X010907Y019137D01*
X010907Y019039D02*
X013047Y019039D01*
X013047Y018940D02*
X010868Y018940D01*
X010770Y018842D02*
X013047Y018842D01*
X013047Y018743D02*
X010671Y018743D01*
X010573Y018645D02*
X013054Y018645D01*
X013100Y018546D02*
X010474Y018546D01*
X010376Y018448D02*
X013199Y018448D01*
X013297Y018349D02*
X010277Y018349D01*
X010179Y018251D02*
X013396Y018251D01*
X013494Y018152D02*
X010080Y018152D01*
X009982Y018054D02*
X013593Y018054D01*
X013691Y017955D02*
X009883Y017955D01*
X009785Y017857D02*
X013790Y017857D01*
X013888Y017758D02*
X009686Y017758D01*
X009784Y017688D02*
X009569Y017472D01*
X009569Y017167D01*
X009784Y016951D01*
X010089Y016951D01*
X010237Y017099D01*
X012661Y017099D01*
X012809Y016951D01*
X013114Y016951D01*
X013330Y017167D01*
X013330Y017472D01*
X013114Y017688D01*
X012809Y017688D01*
X012661Y017539D01*
X010237Y017539D01*
X010089Y017688D01*
X009784Y017688D01*
X009756Y017660D02*
X009588Y017660D01*
X009658Y017561D02*
X009489Y017561D01*
X009569Y017463D02*
X009391Y017463D01*
X009292Y017364D02*
X009569Y017364D01*
X009569Y017266D02*
X009194Y017266D01*
X009095Y017167D02*
X009569Y017167D01*
X009667Y017069D02*
X008997Y017069D01*
X008898Y016970D02*
X009766Y016970D01*
X009648Y016844D02*
X009512Y016844D01*
X009512Y016444D01*
X009912Y016444D01*
X009912Y016581D01*
X009648Y016844D01*
X009720Y016773D02*
X010208Y016773D01*
X010276Y016842D02*
X010015Y016580D01*
X010015Y016209D01*
X010276Y015947D01*
X010647Y015947D01*
X010909Y016209D01*
X010909Y016580D01*
X010647Y016842D01*
X010276Y016842D01*
X010108Y016970D02*
X012791Y016970D01*
X012692Y017069D02*
X010206Y017069D01*
X009937Y017319D02*
X012962Y017319D01*
X013231Y017069D02*
X014578Y017069D01*
X014676Y016970D02*
X013133Y016970D01*
X013330Y017167D02*
X014479Y017167D01*
X014381Y017266D02*
X013330Y017266D01*
X013330Y017364D02*
X014282Y017364D01*
X014184Y017463D02*
X013330Y017463D01*
X013241Y017561D02*
X014085Y017561D01*
X013987Y017660D02*
X013142Y017660D01*
X012781Y017660D02*
X010117Y017660D01*
X010216Y017561D02*
X012683Y017561D01*
X014216Y018251D02*
X017492Y018251D01*
X017551Y018152D02*
X014314Y018152D01*
X014413Y018054D02*
X017650Y018054D01*
X017852Y017955D02*
X014511Y017955D01*
X014610Y017857D02*
X018317Y017857D01*
X018317Y017955D02*
X018122Y017955D01*
X018317Y017758D02*
X014708Y017758D01*
X014807Y017660D02*
X018317Y017660D01*
X018317Y017561D02*
X014905Y017561D01*
X015004Y017463D02*
X018317Y017463D01*
X018317Y017364D02*
X015102Y017364D01*
X015201Y017266D02*
X018317Y017266D01*
X018317Y017167D02*
X015299Y017167D01*
X015398Y017069D02*
X018317Y017069D01*
X018354Y016970D02*
X015496Y016970D01*
X015595Y016872D02*
X018416Y016872D01*
X018514Y016773D02*
X015693Y016773D01*
X015792Y016675D02*
X018613Y016675D01*
X018711Y016576D02*
X015890Y016576D01*
X015989Y016478D02*
X018810Y016478D01*
X018908Y016379D02*
X016087Y016379D01*
X016186Y016281D02*
X019007Y016281D01*
X019105Y016182D02*
X016284Y016182D01*
X016383Y016084D02*
X019204Y016084D01*
X019302Y015985D02*
X016481Y015985D01*
X016580Y015887D02*
X019401Y015887D01*
X019499Y015788D02*
X016678Y015788D01*
X016777Y015690D02*
X019598Y015690D01*
X019696Y015591D02*
X016875Y015591D01*
X016974Y015493D02*
X019795Y015493D01*
X019893Y015394D02*
X017072Y015394D01*
X017171Y015296D02*
X019992Y015296D01*
X020090Y015197D02*
X017269Y015197D01*
X017368Y015099D02*
X020189Y015099D01*
X020287Y015000D02*
X017466Y015000D01*
X017565Y014902D02*
X020386Y014902D01*
X020484Y014803D02*
X017663Y014803D01*
X017762Y014705D02*
X020492Y014705D01*
X020492Y014606D02*
X017860Y014606D01*
X017959Y014508D02*
X020492Y014508D01*
X020492Y014409D02*
X018057Y014409D01*
X018156Y014311D02*
X020492Y014311D01*
X020492Y014212D02*
X018254Y014212D01*
X018353Y014114D02*
X020492Y014114D01*
X020492Y014015D02*
X018451Y014015D01*
X018550Y013917D02*
X020492Y013917D01*
X020492Y013818D02*
X018648Y013818D01*
X018747Y013720D02*
X020492Y013720D01*
X020492Y013621D02*
X018845Y013621D01*
X018944Y013523D02*
X020492Y013523D01*
X020492Y013424D02*
X019042Y013424D01*
X019141Y013326D02*
X020492Y013326D01*
X020492Y013227D02*
X019239Y013227D01*
X019338Y013129D02*
X020492Y013129D01*
X020492Y013030D02*
X019436Y013030D01*
X019645Y012932D02*
X020492Y012932D01*
X020492Y012833D02*
X019744Y012833D01*
X019780Y012735D02*
X020492Y012735D01*
X020492Y012636D02*
X019780Y012636D01*
X019780Y012538D02*
X020492Y012538D01*
X020492Y012439D02*
X019727Y012439D01*
X019628Y012341D02*
X020492Y012341D01*
X020531Y012242D02*
X015047Y012242D01*
X015047Y012144D02*
X020594Y012144D01*
X020718Y012045D02*
X015097Y012045D01*
X015196Y011947D02*
X021117Y011947D01*
X021105Y012045D02*
X021117Y012045D01*
X021117Y011848D02*
X015294Y011848D01*
X015393Y011750D02*
X021117Y011750D01*
X021117Y011651D02*
X015491Y011651D01*
X015590Y011553D02*
X021117Y011553D01*
X021117Y011454D02*
X015688Y011454D01*
X015787Y011356D02*
X021117Y011356D01*
X021117Y011257D02*
X015885Y011257D01*
X015984Y011159D02*
X021117Y011159D01*
X021117Y011060D02*
X019082Y011060D01*
X019181Y010962D02*
X021117Y010962D01*
X021010Y010863D02*
X019279Y010863D01*
X019378Y010765D02*
X020911Y010765D01*
X020844Y010666D02*
X019476Y010666D01*
X019575Y010568D02*
X020844Y010568D01*
X020844Y010469D02*
X019673Y010469D01*
X019772Y010371D02*
X020865Y010371D01*
X020964Y010272D02*
X019870Y010272D01*
X019969Y010174D02*
X020995Y010174D01*
X020994Y010075D02*
X020067Y010075D01*
X020166Y009977D02*
X020994Y009977D01*
X020994Y009878D02*
X020264Y009878D01*
X020363Y009780D02*
X021081Y009780D01*
X021180Y009681D02*
X020461Y009681D01*
X020560Y009583D02*
X031401Y009583D01*
X031303Y009681D02*
X021544Y009681D01*
X021642Y009780D02*
X031204Y009780D01*
X031106Y009878D02*
X021730Y009878D01*
X021730Y009977D02*
X031007Y009977D01*
X030909Y010075D02*
X021730Y010075D01*
X021782Y010174D02*
X030810Y010174D01*
X030712Y010272D02*
X021782Y010272D01*
X021782Y010371D02*
X030613Y010371D01*
X030517Y010469D02*
X021782Y010469D01*
X021782Y010568D02*
X030476Y010568D01*
X030435Y010666D02*
X021782Y010666D01*
X021782Y010765D02*
X029371Y010765D01*
X029459Y010676D02*
X029764Y010676D01*
X029980Y010892D01*
X029980Y011197D01*
X029832Y011345D01*
X029832Y011686D01*
X029703Y011814D01*
X028678Y012839D01*
X028602Y012839D01*
X028630Y012867D01*
X028630Y013172D01*
X028414Y013388D01*
X028109Y013388D01*
X027894Y013172D01*
X027894Y012867D01*
X027921Y012839D01*
X025471Y012839D01*
X025394Y012763D01*
X025184Y012763D01*
X024969Y012547D01*
X024969Y012242D01*
X021782Y012242D01*
X021782Y012144D02*
X025067Y012144D01*
X024969Y012242D02*
X025184Y012026D01*
X025489Y012026D01*
X025705Y012242D01*
X028653Y012242D01*
X028752Y012144D02*
X025606Y012144D01*
X025705Y012242D02*
X025705Y012399D01*
X028496Y012399D01*
X029392Y011503D01*
X029392Y011345D01*
X029244Y011197D01*
X029244Y010892D01*
X029459Y010676D01*
X029273Y010863D02*
X021782Y010863D01*
X021782Y010962D02*
X029244Y010962D01*
X029244Y011060D02*
X021782Y011060D01*
X021782Y011159D02*
X029244Y011159D01*
X029304Y011257D02*
X021782Y011257D01*
X021782Y011356D02*
X029392Y011356D01*
X029392Y011454D02*
X021782Y011454D01*
X021782Y011553D02*
X029343Y011553D01*
X029244Y011651D02*
X021782Y011651D01*
X021782Y011750D02*
X029146Y011750D01*
X029047Y011848D02*
X021782Y011848D01*
X021782Y011947D02*
X028949Y011947D01*
X028850Y012045D02*
X025508Y012045D01*
X025166Y012045D02*
X021782Y012045D01*
X021782Y012341D02*
X024969Y012341D01*
X024969Y012439D02*
X021782Y012439D01*
X021782Y012538D02*
X024969Y012538D01*
X025058Y012636D02*
X021782Y012636D01*
X021782Y012735D02*
X025156Y012735D01*
X025464Y012833D02*
X021782Y012833D01*
X021782Y012932D02*
X027894Y012932D01*
X027894Y013030D02*
X021782Y013030D01*
X021782Y013129D02*
X027894Y013129D01*
X027949Y013227D02*
X021782Y013227D01*
X021782Y013326D02*
X028047Y013326D01*
X028262Y013019D02*
X028262Y012619D01*
X025562Y012619D01*
X025337Y012394D01*
X025705Y012341D02*
X028555Y012341D01*
X028587Y012619D02*
X028262Y012619D01*
X028587Y012619D02*
X029612Y011594D01*
X029612Y011044D01*
X029980Y011060D02*
X030417Y011060D01*
X030417Y010962D02*
X029980Y010962D01*
X029951Y010863D02*
X030417Y010863D01*
X030417Y010765D02*
X029852Y010765D01*
X029980Y011159D02*
X030417Y011159D01*
X030417Y011257D02*
X029920Y011257D01*
X029832Y011356D02*
X030417Y011356D01*
X030417Y011454D02*
X029832Y011454D01*
X029832Y011553D02*
X030417Y011553D01*
X030417Y011651D02*
X029832Y011651D01*
X029768Y011750D02*
X030417Y011750D01*
X030417Y011848D02*
X029669Y011848D01*
X029571Y011947D02*
X030417Y011947D01*
X030417Y012045D02*
X029472Y012045D01*
X029374Y012144D02*
X030417Y012144D01*
X030417Y012242D02*
X029275Y012242D01*
X029177Y012341D02*
X030417Y012341D01*
X030417Y012439D02*
X029078Y012439D01*
X028980Y012538D02*
X030417Y012538D01*
X030417Y012636D02*
X028881Y012636D01*
X028783Y012735D02*
X030417Y012735D01*
X030417Y012833D02*
X028684Y012833D01*
X028630Y012932D02*
X030417Y012932D01*
X030417Y013030D02*
X028630Y013030D01*
X028630Y013129D02*
X030417Y013129D01*
X030417Y013227D02*
X028575Y013227D01*
X028476Y013326D02*
X030417Y013326D01*
X030417Y013424D02*
X021782Y013424D01*
X021782Y013523D02*
X030417Y013523D01*
X030417Y013621D02*
X021782Y013621D01*
X021782Y013720D02*
X030417Y013720D01*
X030417Y013818D02*
X021782Y013818D01*
X021782Y013917D02*
X030417Y013917D01*
X030417Y014015D02*
X021782Y014015D01*
X021782Y014114D02*
X030417Y014114D01*
X030417Y014212D02*
X021782Y014212D01*
X021782Y014311D02*
X030417Y014311D01*
X030417Y014409D02*
X021782Y014409D01*
X021782Y014508D02*
X030417Y014508D01*
X030417Y014606D02*
X021782Y014606D01*
X021782Y014705D02*
X030417Y014705D01*
X030417Y014803D02*
X021782Y014803D01*
X021782Y014902D02*
X030417Y014902D01*
X030417Y015000D02*
X021782Y015000D01*
X021852Y015099D02*
X030417Y015099D01*
X030417Y015197D02*
X021950Y015197D01*
X022049Y015296D02*
X030417Y015296D01*
X030417Y015394D02*
X022147Y015394D01*
X022232Y015493D02*
X030417Y015493D01*
X030417Y015591D02*
X022232Y015591D01*
X022232Y015690D02*
X030417Y015690D01*
X030417Y015788D02*
X022232Y015788D01*
X022232Y015887D02*
X030417Y015887D01*
X030417Y015985D02*
X022232Y015985D01*
X022232Y016084D02*
X030417Y016084D01*
X030417Y016182D02*
X022232Y016182D01*
X022232Y016281D02*
X030417Y016281D01*
X030417Y016379D02*
X022232Y016379D01*
X022232Y016478D02*
X030417Y016478D01*
X030417Y016576D02*
X022232Y016576D01*
X022232Y016675D02*
X030417Y016675D01*
X030417Y016773D02*
X022232Y016773D01*
X022232Y016872D02*
X030417Y016872D01*
X030417Y016970D02*
X022232Y016970D01*
X022232Y017069D02*
X025338Y017069D01*
X025360Y017059D02*
X026363Y017059D01*
X026569Y017145D01*
X026726Y017302D01*
X026812Y017508D01*
X026812Y017731D01*
X026726Y017937D01*
X026569Y018094D01*
X026363Y018179D01*
X025360Y018179D01*
X025154Y018094D01*
X024997Y017937D01*
X024912Y017731D01*
X024912Y017508D01*
X024997Y017302D01*
X025154Y017145D01*
X025360Y017059D01*
X025132Y017167D02*
X022232Y017167D01*
X022232Y017266D02*
X025034Y017266D01*
X024971Y017364D02*
X022232Y017364D01*
X022232Y017463D02*
X024931Y017463D01*
X024912Y017561D02*
X022232Y017561D01*
X022232Y017660D02*
X024912Y017660D01*
X024923Y017758D02*
X022232Y017758D01*
X022232Y017857D02*
X024964Y017857D01*
X025015Y017955D02*
X022232Y017955D01*
X022232Y018054D02*
X025114Y018054D01*
X025294Y018152D02*
X022232Y018152D01*
X022232Y018251D02*
X030417Y018251D01*
X030417Y018349D02*
X022232Y018349D01*
X022232Y018448D02*
X029047Y018448D01*
X028969Y018480D02*
X029175Y018394D01*
X029398Y018394D01*
X029604Y018480D01*
X029761Y018637D01*
X029847Y018843D01*
X029847Y019846D01*
X029761Y020052D01*
X029604Y020209D01*
X029398Y020294D01*
X029175Y020294D01*
X028969Y020209D01*
X028812Y020052D01*
X028727Y019846D01*
X028727Y018843D01*
X028812Y018637D01*
X028969Y018480D01*
X028903Y018546D02*
X022232Y018546D01*
X022232Y018645D02*
X028809Y018645D01*
X028768Y018743D02*
X022232Y018743D01*
X022232Y018842D02*
X028727Y018842D01*
X028727Y018940D02*
X022232Y018940D01*
X022232Y019039D02*
X028727Y019039D01*
X028727Y019137D02*
X022232Y019137D01*
X022232Y019236D02*
X028727Y019236D01*
X028727Y019334D02*
X022232Y019334D01*
X022232Y019433D02*
X028727Y019433D01*
X028727Y019531D02*
X022232Y019531D01*
X022232Y019630D02*
X028727Y019630D01*
X028727Y019728D02*
X022232Y019728D01*
X022232Y019827D02*
X028727Y019827D01*
X028759Y019925D02*
X022232Y019925D01*
X022232Y020024D02*
X028800Y020024D01*
X028882Y020122D02*
X022232Y020122D01*
X022232Y020221D02*
X028997Y020221D01*
X029577Y020221D02*
X030417Y020221D01*
X030417Y020319D02*
X022232Y020319D01*
X022232Y020418D02*
X030417Y020418D01*
X030417Y020516D02*
X022232Y020516D01*
X022232Y020615D02*
X030417Y020615D01*
X030417Y020713D02*
X022232Y020713D01*
X022232Y020812D02*
X030417Y020812D01*
X030417Y020910D02*
X022232Y020910D01*
X022232Y021009D02*
X030417Y021009D01*
X030417Y021107D02*
X022232Y021107D01*
X022232Y021206D02*
X030417Y021206D01*
X030417Y021304D02*
X022232Y021304D01*
X022232Y021403D02*
X030417Y021403D01*
X030417Y021501D02*
X022232Y021501D01*
X022232Y021600D02*
X030417Y021600D01*
X030417Y021698D02*
X022232Y021698D01*
X022232Y021797D02*
X025271Y021797D01*
X025360Y021759D02*
X026363Y021759D01*
X026569Y021845D01*
X026726Y022002D01*
X026812Y022208D01*
X026812Y022431D01*
X026726Y022637D01*
X026569Y022794D01*
X026363Y022879D01*
X025360Y022879D01*
X025154Y022794D01*
X024997Y022637D01*
X024912Y022431D01*
X024912Y022208D01*
X024997Y022002D01*
X025154Y021845D01*
X025360Y021759D01*
X025104Y021895D02*
X022232Y021895D01*
X022232Y021994D02*
X025006Y021994D01*
X024960Y022092D02*
X023730Y022092D01*
X023664Y022026D02*
X023880Y022242D01*
X023880Y022547D01*
X023732Y022695D01*
X023732Y023919D01*
X023880Y024067D01*
X023880Y024372D01*
X023664Y024588D01*
X023359Y024588D01*
X023144Y024372D01*
X023144Y024067D01*
X023292Y023919D01*
X023292Y022695D01*
X023144Y022547D01*
X023144Y022242D01*
X023359Y022026D01*
X023664Y022026D01*
X023828Y022191D02*
X024919Y022191D01*
X024912Y022289D02*
X023880Y022289D01*
X023880Y022388D02*
X024912Y022388D01*
X024935Y022486D02*
X023880Y022486D01*
X023842Y022585D02*
X024975Y022585D01*
X025043Y022683D02*
X023744Y022683D01*
X023732Y022782D02*
X025142Y022782D01*
X025562Y023969D02*
X025537Y023994D01*
X026582Y022782D02*
X030417Y022782D01*
X030417Y022880D02*
X023732Y022880D01*
X023732Y022979D02*
X030417Y022979D01*
X030417Y023077D02*
X023732Y023077D01*
X023732Y023176D02*
X030417Y023176D01*
X030417Y023274D02*
X029590Y023274D01*
X029697Y023373D02*
X030417Y023373D01*
X030417Y023471D02*
X029775Y023471D01*
X029816Y023570D02*
X030417Y023570D01*
X030417Y023668D02*
X029847Y023668D01*
X029847Y023767D02*
X030417Y023767D01*
X030417Y023865D02*
X029847Y023865D01*
X029847Y023964D02*
X030417Y023964D01*
X030417Y024062D02*
X029847Y024062D01*
X029847Y024161D02*
X030417Y024161D01*
X030417Y024259D02*
X029847Y024259D01*
X029847Y024358D02*
X030417Y024358D01*
X030417Y024456D02*
X029847Y024456D01*
X029803Y024752D02*
X030458Y024752D01*
X030498Y024850D02*
X029762Y024850D01*
X029665Y024949D02*
X030568Y024949D01*
X030667Y025047D02*
X029513Y025047D01*
X028770Y024752D02*
X020488Y024752D01*
X020389Y024653D02*
X028730Y024653D01*
X028727Y024555D02*
X023697Y024555D01*
X023796Y024456D02*
X028727Y024456D01*
X028727Y024358D02*
X023880Y024358D01*
X023880Y024259D02*
X028727Y024259D01*
X028727Y024161D02*
X023880Y024161D01*
X023875Y024062D02*
X028727Y024062D01*
X028727Y023964D02*
X023776Y023964D01*
X023732Y023865D02*
X028727Y023865D01*
X028727Y023767D02*
X023732Y023767D01*
X023732Y023668D02*
X028727Y023668D01*
X028757Y023570D02*
X023732Y023570D01*
X023732Y023471D02*
X028798Y023471D01*
X028877Y023373D02*
X023732Y023373D01*
X023732Y023274D02*
X028983Y023274D01*
X030417Y022683D02*
X026680Y022683D01*
X026748Y022585D02*
X030417Y022585D01*
X030417Y022486D02*
X026789Y022486D01*
X026812Y022388D02*
X030417Y022388D01*
X030417Y022289D02*
X026812Y022289D01*
X026804Y022191D02*
X030417Y022191D01*
X030417Y022092D02*
X026764Y022092D01*
X026718Y021994D02*
X030417Y021994D01*
X030417Y021895D02*
X026619Y021895D01*
X026453Y021797D02*
X030417Y021797D01*
X031757Y021797D02*
X035854Y021797D01*
X035756Y021698D02*
X031757Y021698D01*
X031757Y021600D02*
X033504Y021600D01*
X033352Y021501D02*
X031757Y021501D01*
X031757Y021403D02*
X033253Y021403D01*
X033155Y021304D02*
X031757Y021304D01*
X031757Y021206D02*
X033056Y021206D01*
X032958Y021107D02*
X031757Y021107D01*
X031757Y021009D02*
X032859Y021009D01*
X032761Y020910D02*
X031757Y020910D01*
X031757Y020812D02*
X032662Y020812D01*
X032564Y020713D02*
X031757Y020713D01*
X031757Y020615D02*
X032465Y020615D01*
X032367Y020516D02*
X031757Y020516D01*
X031757Y020418D02*
X032268Y020418D01*
X032170Y020319D02*
X031757Y020319D01*
X031757Y020221D02*
X032071Y020221D01*
X031973Y020122D02*
X031757Y020122D01*
X031757Y020024D02*
X031874Y020024D01*
X031776Y019925D02*
X031757Y019925D01*
X032216Y019433D02*
X033427Y019433D01*
X033427Y019531D02*
X032315Y019531D01*
X032413Y019630D02*
X033427Y019630D01*
X033427Y019728D02*
X032512Y019728D01*
X032610Y019827D02*
X033427Y019827D01*
X033427Y019846D02*
X033427Y018843D01*
X033512Y018637D01*
X033669Y018480D01*
X033875Y018394D01*
X034098Y018394D01*
X034304Y018480D01*
X034461Y018637D01*
X034547Y018843D01*
X034547Y019846D01*
X034461Y020052D01*
X034304Y020209D01*
X034098Y020294D01*
X033875Y020294D01*
X033669Y020209D01*
X033512Y020052D01*
X033427Y019846D01*
X033459Y019925D02*
X032709Y019925D01*
X032807Y020024D02*
X033500Y020024D01*
X033582Y020122D02*
X032906Y020122D01*
X033004Y020221D02*
X033697Y020221D01*
X033398Y020615D02*
X036146Y020615D01*
X035908Y020713D02*
X033497Y020713D01*
X033595Y020812D02*
X035809Y020812D01*
X035715Y020910D02*
X033694Y020910D01*
X033300Y020516D02*
X038263Y020516D01*
X038263Y020418D02*
X033201Y020418D01*
X033103Y020319D02*
X038263Y020319D01*
X038263Y020221D02*
X034277Y020221D01*
X034391Y020122D02*
X038263Y020122D01*
X038263Y020024D02*
X034473Y020024D01*
X034514Y019925D02*
X036066Y019925D01*
X036077Y019930D02*
X035999Y019897D01*
X035925Y019855D01*
X035857Y019803D01*
X035797Y019742D01*
X035745Y019675D01*
X035702Y019601D01*
X035670Y019522D01*
X035648Y019440D01*
X035638Y019363D01*
X036737Y019363D01*
X036737Y019963D01*
X036244Y019963D01*
X036160Y019952D01*
X036077Y019930D01*
X035888Y019827D02*
X034547Y019827D01*
X034547Y019728D02*
X035786Y019728D01*
X035719Y019630D02*
X034547Y019630D01*
X034547Y019531D02*
X035673Y019531D01*
X035647Y019433D02*
X034547Y019433D01*
X034547Y019334D02*
X036737Y019334D01*
X036737Y019363D02*
X036737Y019263D01*
X036837Y019263D01*
X036837Y019363D01*
X037936Y019363D01*
X037926Y019440D01*
X037904Y019522D01*
X037871Y019601D01*
X037828Y019675D01*
X037776Y019742D01*
X037716Y019803D01*
X037649Y019855D01*
X037575Y019897D01*
X037496Y019930D01*
X037414Y019952D01*
X037329Y019963D01*
X036837Y019963D01*
X036837Y019363D01*
X036737Y019363D01*
X036737Y019433D02*
X036837Y019433D01*
X036837Y019531D02*
X036737Y019531D01*
X036737Y019630D02*
X036837Y019630D01*
X036837Y019728D02*
X036737Y019728D01*
X036737Y019827D02*
X036837Y019827D01*
X036837Y019925D02*
X036737Y019925D01*
X036837Y019334D02*
X038263Y019334D01*
X038263Y019236D02*
X037932Y019236D01*
X037936Y019263D02*
X036837Y019263D01*
X036837Y018663D01*
X037329Y018663D01*
X037414Y018674D01*
X037496Y018696D01*
X037575Y018729D01*
X037649Y018771D01*
X037716Y018823D01*
X037776Y018883D01*
X037828Y018951D01*
X037871Y019025D01*
X037904Y019104D01*
X037926Y019186D01*
X037936Y019263D01*
X038037Y019236D02*
X035537Y019236D01*
X035537Y019334D02*
X038037Y019334D01*
X038037Y019433D02*
X035537Y019433D01*
X035537Y019531D02*
X038037Y019531D01*
X038037Y019630D02*
X035537Y019630D01*
X035537Y019728D02*
X038037Y019728D01*
X038037Y019827D02*
X035537Y019827D01*
X035537Y019925D02*
X038037Y019925D01*
X038037Y019969D02*
X035537Y019969D01*
X035537Y018644D01*
X038037Y018644D01*
X038037Y019969D01*
X038263Y019925D02*
X037508Y019925D01*
X037685Y019827D02*
X038263Y019827D01*
X038263Y019728D02*
X037788Y019728D01*
X037854Y019630D02*
X038263Y019630D01*
X038263Y019531D02*
X037900Y019531D01*
X037927Y019433D02*
X038263Y019433D01*
X038263Y019137D02*
X037912Y019137D01*
X037877Y019039D02*
X038263Y019039D01*
X038263Y018940D02*
X037820Y018940D01*
X037734Y018842D02*
X038263Y018842D01*
X038263Y018743D02*
X037599Y018743D01*
X038037Y018743D02*
X035537Y018743D01*
X035537Y018645D02*
X038037Y018645D01*
X038037Y018842D02*
X035537Y018842D01*
X035537Y018940D02*
X038037Y018940D01*
X038037Y019039D02*
X035537Y019039D01*
X035537Y019137D02*
X038037Y019137D01*
X038263Y018645D02*
X034464Y018645D01*
X034505Y018743D02*
X035974Y018743D01*
X035999Y018729D02*
X036077Y018696D01*
X036160Y018674D01*
X036244Y018663D01*
X036737Y018663D01*
X036737Y019263D01*
X035638Y019263D01*
X035648Y019186D01*
X035670Y019104D01*
X035702Y019025D01*
X035745Y018951D01*
X035797Y018883D01*
X035857Y018823D01*
X035925Y018771D01*
X035999Y018729D01*
X035839Y018842D02*
X034546Y018842D01*
X034547Y018940D02*
X035754Y018940D01*
X035697Y019039D02*
X034547Y019039D01*
X034547Y019137D02*
X035661Y019137D01*
X035641Y019236D02*
X034547Y019236D01*
X034370Y018546D02*
X038263Y018546D01*
X038263Y018448D02*
X034226Y018448D01*
X033747Y018448D02*
X032192Y018448D01*
X032192Y018546D02*
X033603Y018546D01*
X033509Y018645D02*
X032192Y018645D01*
X032192Y018743D02*
X033468Y018743D01*
X033427Y018842D02*
X032192Y018842D01*
X032192Y018940D02*
X033427Y018940D01*
X033427Y019039D02*
X032192Y019039D01*
X032192Y019137D02*
X033427Y019137D01*
X033427Y019236D02*
X032192Y019236D01*
X032192Y019334D02*
X033427Y019334D01*
X032192Y018349D02*
X038263Y018349D01*
X038263Y018251D02*
X032192Y018251D01*
X032192Y018152D02*
X038263Y018152D01*
X038263Y018054D02*
X032192Y018054D01*
X032192Y017955D02*
X036010Y017955D01*
X035907Y017912D02*
X035719Y017724D01*
X035617Y017478D01*
X035617Y017211D01*
X035719Y016965D01*
X035907Y016776D01*
X036153Y016674D01*
X036153Y016675D02*
X032192Y016675D01*
X032192Y016773D02*
X035915Y016773D01*
X035812Y016872D02*
X032192Y016872D01*
X032192Y016970D02*
X035717Y016970D01*
X035676Y017069D02*
X032192Y017069D01*
X032192Y017167D02*
X035635Y017167D01*
X035617Y017266D02*
X032192Y017266D01*
X032192Y017364D02*
X035617Y017364D01*
X035617Y017463D02*
X032192Y017463D01*
X032192Y017561D02*
X035651Y017561D01*
X035692Y017660D02*
X032192Y017660D01*
X032192Y017758D02*
X035753Y017758D01*
X035851Y017857D02*
X032192Y017857D01*
X032192Y016576D02*
X038263Y016576D01*
X038263Y016478D02*
X032192Y016478D01*
X032192Y016379D02*
X032912Y016379D01*
X032943Y016410D02*
X032691Y016158D01*
X032691Y015802D01*
X032943Y015550D01*
X033299Y015550D01*
X033551Y015802D01*
X033551Y016158D01*
X033299Y016410D01*
X032943Y016410D01*
X032813Y016281D02*
X032192Y016281D01*
X032192Y016182D02*
X032715Y016182D01*
X032691Y016084D02*
X032192Y016084D01*
X032192Y015985D02*
X032691Y015985D01*
X032691Y015887D02*
X032192Y015887D01*
X032192Y015788D02*
X032705Y015788D01*
X032803Y015690D02*
X032192Y015690D01*
X032192Y015591D02*
X032902Y015591D01*
X032943Y015410D02*
X032691Y015158D01*
X032691Y014802D01*
X032943Y014550D01*
X033299Y014550D01*
X033551Y014802D01*
X033551Y015158D01*
X033299Y015410D01*
X032943Y015410D01*
X032927Y015394D02*
X032192Y015394D01*
X032192Y015296D02*
X032828Y015296D01*
X032730Y015197D02*
X032192Y015197D01*
X032192Y015099D02*
X032691Y015099D01*
X032691Y015000D02*
X032192Y015000D01*
X032192Y014902D02*
X032691Y014902D01*
X032691Y014803D02*
X032192Y014803D01*
X032192Y014705D02*
X032788Y014705D01*
X032887Y014606D02*
X032192Y014606D01*
X032192Y014508D02*
X038263Y014508D01*
X038263Y014606D02*
X033355Y014606D01*
X033453Y014705D02*
X038263Y014705D01*
X038263Y014803D02*
X033551Y014803D01*
X033551Y014902D02*
X038263Y014902D01*
X038263Y015000D02*
X033551Y015000D01*
X033551Y015099D02*
X038263Y015099D01*
X038263Y015197D02*
X033512Y015197D01*
X033413Y015296D02*
X038263Y015296D01*
X038263Y015394D02*
X033315Y015394D01*
X033340Y015591D02*
X038263Y015591D01*
X038263Y015493D02*
X032192Y015493D01*
X032192Y014409D02*
X038263Y014409D01*
X038263Y014311D02*
X032192Y014311D01*
X032192Y014212D02*
X038263Y014212D01*
X038263Y014114D02*
X032192Y014114D01*
X032233Y014015D02*
X038263Y014015D01*
X038263Y013917D02*
X032331Y013917D01*
X032430Y013818D02*
X035806Y013818D01*
X035936Y013872D02*
X035590Y013729D01*
X035326Y013464D01*
X035183Y013118D01*
X035183Y012744D01*
X035326Y012399D01*
X035590Y012134D01*
X035936Y011991D01*
X036310Y011991D01*
X036656Y012134D01*
X036920Y012399D01*
X037064Y012744D01*
X037064Y013118D01*
X036920Y013464D01*
X036656Y013729D01*
X036310Y013872D01*
X035936Y013872D01*
X035581Y013720D02*
X032528Y013720D01*
X031989Y013326D02*
X031757Y013326D01*
X031757Y013424D02*
X031890Y013424D01*
X031792Y013523D02*
X031757Y013523D01*
X031757Y013227D02*
X031958Y013227D01*
X031917Y013129D02*
X031757Y013129D01*
X031757Y013030D02*
X031898Y013030D01*
X031898Y012932D02*
X031757Y012932D01*
X031757Y012833D02*
X031898Y012833D01*
X031917Y012735D02*
X031757Y012735D01*
X031757Y012636D02*
X031958Y012636D01*
X031998Y012538D02*
X031757Y012538D01*
X031757Y012439D02*
X032075Y012439D01*
X032174Y012341D02*
X031757Y012341D01*
X031757Y012242D02*
X032335Y012242D01*
X032420Y011981D02*
X032514Y012006D01*
X032610Y012018D01*
X033199Y012018D01*
X033199Y011328D01*
X033299Y011328D01*
X033299Y012018D01*
X033888Y012018D01*
X033984Y012006D01*
X034078Y011981D01*
X034168Y011943D01*
X034252Y011895D01*
X034329Y011836D01*
X034398Y011767D01*
X034457Y011690D01*
X034505Y011606D01*
X034542Y011516D01*
X034568Y011423D01*
X034580Y011328D01*
X033299Y011328D01*
X033299Y011228D01*
X034580Y011228D01*
X034568Y011133D01*
X034542Y011039D01*
X034505Y010950D01*
X034457Y010865D01*
X034398Y010788D01*
X034329Y010720D01*
X034252Y010661D01*
X034168Y010612D01*
X034078Y010575D01*
X033984Y010550D01*
X033888Y010537D01*
X033299Y010537D01*
X033299Y011228D01*
X033199Y011228D01*
X031918Y011228D01*
X031931Y011133D01*
X031956Y011039D01*
X031993Y010950D01*
X032041Y010865D01*
X032101Y010788D01*
X032169Y010720D01*
X032246Y010661D01*
X032330Y010612D01*
X032420Y010575D01*
X032514Y010550D01*
X032610Y010537D01*
X033199Y010537D01*
X033199Y011228D01*
X033199Y011328D01*
X031918Y011328D01*
X031931Y011423D01*
X031956Y011516D01*
X031993Y011606D01*
X032041Y011690D01*
X032101Y011767D01*
X032169Y011836D01*
X032246Y011895D01*
X032330Y011943D01*
X032420Y011981D01*
X032338Y011947D02*
X031757Y011947D01*
X031757Y012045D02*
X035805Y012045D01*
X035581Y012144D02*
X031757Y012144D01*
X031757Y011848D02*
X032185Y011848D01*
X032087Y011750D02*
X031757Y011750D01*
X031757Y011651D02*
X032019Y011651D01*
X032012Y011651D02*
X034512Y011651D01*
X034479Y011651D02*
X038263Y011651D01*
X038263Y011553D02*
X034527Y011553D01*
X034512Y011553D02*
X032012Y011553D01*
X031971Y011553D02*
X031757Y011553D01*
X031757Y011454D02*
X031939Y011454D01*
X032012Y011454D02*
X034512Y011454D01*
X034559Y011454D02*
X038263Y011454D01*
X038263Y011356D02*
X034576Y011356D01*
X034512Y011356D02*
X032012Y011356D01*
X031922Y011356D02*
X031757Y011356D01*
X031757Y011257D02*
X033199Y011257D01*
X033199Y011159D02*
X033299Y011159D01*
X033299Y011257D02*
X038263Y011257D01*
X038263Y011159D02*
X034571Y011159D01*
X034512Y011159D02*
X032012Y011159D01*
X031927Y011159D02*
X031757Y011159D01*
X031819Y011060D02*
X031950Y011060D01*
X032012Y011060D02*
X034512Y011060D01*
X034548Y011060D02*
X038263Y011060D01*
X038263Y010962D02*
X034510Y010962D01*
X034512Y010962D02*
X032012Y010962D01*
X031988Y010962D02*
X031917Y010962D01*
X032012Y010867D02*
X032012Y011969D01*
X034512Y011969D01*
X034512Y010594D01*
X032284Y010594D01*
X032012Y010867D01*
X032016Y010863D02*
X034512Y010863D01*
X034455Y010863D02*
X038263Y010863D01*
X038263Y010765D02*
X034374Y010765D01*
X034512Y010765D02*
X032114Y010765D01*
X032124Y010765D01*
X032043Y010863D02*
X032016Y010863D01*
X032213Y010666D02*
X034512Y010666D01*
X034259Y010666D02*
X038263Y010666D01*
X038263Y010568D02*
X034050Y010568D01*
X034025Y010371D02*
X035539Y010371D01*
X035590Y010422D02*
X035326Y010157D01*
X035183Y009811D01*
X035183Y009437D01*
X035326Y009091D01*
X035590Y008827D01*
X035936Y008684D01*
X036310Y008684D01*
X036656Y008827D01*
X036920Y009091D01*
X037064Y009437D01*
X037064Y009811D01*
X036920Y010157D01*
X036656Y010422D01*
X036310Y010565D01*
X035936Y010565D01*
X035590Y010422D01*
X035705Y010469D02*
X032410Y010469D01*
X032448Y010568D02*
X032311Y010568D01*
X032239Y010666D02*
X032213Y010666D01*
X032012Y011257D02*
X034512Y011257D01*
X034512Y011750D02*
X032012Y011750D01*
X032012Y011848D02*
X034512Y011848D01*
X034512Y011947D02*
X032012Y011947D01*
X033199Y011947D02*
X033299Y011947D01*
X033299Y011848D02*
X033199Y011848D01*
X033199Y011750D02*
X033299Y011750D01*
X033299Y011651D02*
X033199Y011651D01*
X033199Y011553D02*
X033299Y011553D01*
X033299Y011454D02*
X033199Y011454D01*
X033199Y011356D02*
X033299Y011356D01*
X033299Y011060D02*
X033199Y011060D01*
X033199Y010962D02*
X033299Y010962D01*
X033299Y010863D02*
X033199Y010863D01*
X033199Y010765D02*
X033299Y010765D01*
X033299Y010666D02*
X033199Y010666D01*
X033199Y010568D02*
X033299Y010568D01*
X034263Y010272D02*
X035441Y010272D01*
X035342Y010174D02*
X034366Y010174D01*
X034464Y010075D02*
X035292Y010075D01*
X035251Y009977D02*
X034517Y009977D01*
X034558Y009878D02*
X035210Y009878D01*
X035183Y009780D02*
X034599Y009780D01*
X034600Y009681D02*
X035183Y009681D01*
X035183Y009583D02*
X034600Y009583D01*
X034600Y009484D02*
X035183Y009484D01*
X035204Y009386D02*
X034564Y009386D01*
X034523Y009287D02*
X035245Y009287D01*
X035286Y009189D02*
X034480Y009189D01*
X034381Y009090D02*
X035327Y009090D01*
X035426Y008992D02*
X034283Y008992D01*
X034062Y008893D02*
X035524Y008893D01*
X035668Y008795D02*
X021348Y008795D01*
X021249Y008893D02*
X032436Y008893D01*
X032084Y008992D02*
X021151Y008992D01*
X021052Y009090D02*
X031894Y009090D01*
X031795Y009189D02*
X020954Y009189D01*
X020855Y009287D02*
X031697Y009287D01*
X031598Y009386D02*
X020757Y009386D01*
X020658Y009484D02*
X031500Y009484D01*
X032343Y007415D02*
X032229Y007301D01*
X032229Y006764D01*
X032343Y006650D01*
X032418Y006574D01*
X032730Y006574D01*
X032804Y006649D01*
X032879Y006574D01*
X033190Y006574D01*
X033341Y006725D01*
X033450Y006725D01*
X033450Y006689D01*
X033564Y006574D01*
X033726Y006574D01*
X033840Y006689D01*
X033840Y007301D01*
X033726Y007415D01*
X033339Y007415D01*
X033265Y007341D01*
X033190Y007415D01*
X032879Y007415D01*
X032842Y007378D01*
X032805Y007415D01*
X032644Y007415D01*
X032574Y007346D01*
X032505Y007415D01*
X032343Y007415D01*
X032245Y007317D02*
X031832Y007317D01*
X031809Y007340D02*
X031884Y007265D01*
X031999Y007151D01*
X031999Y006989D01*
X031923Y006914D01*
X031923Y006764D01*
X031734Y006574D01*
X031573Y006574D01*
X031537Y006610D01*
X031502Y006574D01*
X031191Y006574D01*
X031154Y006611D01*
X031117Y006574D01*
X030730Y006574D01*
X030655Y006650D01*
X030618Y006686D01*
X030506Y006574D01*
X030345Y006574D01*
X030310Y006610D01*
X030275Y006574D01*
X029963Y006574D01*
X029926Y006611D01*
X029889Y006574D01*
X029728Y006574D01*
X029614Y006689D01*
X029614Y006839D01*
X029578Y006875D01*
X029503Y006875D01*
X029388Y006989D01*
X029388Y007151D01*
X029503Y007265D01*
X029889Y007265D01*
X029926Y007228D01*
X029963Y007265D01*
X030275Y007265D01*
X030310Y007230D01*
X030345Y007265D01*
X030420Y007340D01*
X030582Y007340D01*
X030657Y007265D01*
X031042Y007265D01*
X031116Y007190D01*
X031191Y007265D01*
X031502Y007265D01*
X031537Y007230D01*
X031573Y007265D01*
X031648Y007340D01*
X031809Y007340D01*
X031931Y007219D02*
X032229Y007219D01*
X032229Y007120D02*
X031999Y007120D01*
X031999Y007022D02*
X032229Y007022D01*
X032229Y006923D02*
X031933Y006923D01*
X031923Y006825D02*
X032229Y006825D01*
X032267Y006726D02*
X031886Y006726D01*
X031787Y006628D02*
X032365Y006628D01*
X032343Y006540D02*
X032229Y006426D01*
X032229Y006189D01*
X032529Y005889D01*
X032529Y005814D01*
X032644Y005699D01*
X033265Y005699D01*
X033302Y005736D01*
X033339Y005699D01*
X033651Y005699D01*
X033688Y005736D01*
X033724Y005699D01*
X034186Y005699D01*
X034301Y005814D01*
X034301Y005941D01*
X034448Y005719D01*
X034607Y005687D01*
X034637Y005708D01*
X034645Y005699D01*
X035107Y005699D01*
X035144Y005736D01*
X035181Y005699D01*
X035492Y005699D01*
X035567Y005775D01*
X035682Y005889D01*
X035682Y006050D01*
X035682Y006189D01*
X035682Y006351D01*
X035607Y006426D01*
X035492Y006540D01*
X035181Y006540D01*
X035106Y006466D01*
X035032Y006540D01*
X034720Y006540D01*
X034606Y006426D01*
X034531Y006351D01*
X034531Y006298D01*
X034383Y006520D01*
X034225Y006552D01*
X034149Y006502D01*
X034111Y006540D01*
X033800Y006540D01*
X033725Y006466D01*
X033651Y006540D01*
X033339Y006540D01*
X033264Y006465D01*
X033227Y006428D01*
X033115Y006540D01*
X032954Y006540D01*
X032879Y006466D01*
X032805Y006540D01*
X032343Y006540D01*
X032332Y006529D02*
X031361Y006529D01*
X031351Y006540D02*
X031189Y006540D01*
X031115Y006466D01*
X031040Y006540D01*
X030654Y006540D01*
X030579Y006466D01*
X030505Y006540D01*
X030193Y006540D01*
X030118Y006465D01*
X030004Y006351D01*
X030004Y005889D01*
X030079Y005814D01*
X030193Y005699D01*
X030505Y005699D01*
X030579Y005774D01*
X030654Y005699D01*
X031501Y005699D01*
X031612Y005811D01*
X031723Y005699D01*
X031884Y005699D01*
X031999Y005814D01*
X031999Y006276D01*
X031884Y006390D01*
X031501Y006390D01*
X031465Y006426D01*
X031351Y006540D01*
X031460Y006431D02*
X032234Y006431D01*
X032229Y006332D02*
X031942Y006332D01*
X031999Y006234D02*
X032229Y006234D01*
X032283Y006135D02*
X031999Y006135D01*
X031999Y006037D02*
X032382Y006037D01*
X032480Y005938D02*
X031999Y005938D01*
X031999Y005840D02*
X032529Y005840D01*
X032602Y005741D02*
X031926Y005741D01*
X031681Y005741D02*
X031542Y005741D01*
X031178Y006529D02*
X031051Y006529D01*
X030677Y006628D02*
X030559Y006628D01*
X030516Y006529D02*
X030643Y006529D01*
X030182Y006529D02*
X028559Y006529D01*
X028559Y006580D02*
X028297Y006842D01*
X027926Y006842D01*
X027665Y006580D01*
X027665Y006209D01*
X027926Y005947D01*
X028297Y005947D01*
X028559Y006209D01*
X028559Y006580D01*
X028511Y006628D02*
X029675Y006628D01*
X029614Y006726D02*
X028413Y006726D01*
X028314Y006825D02*
X029614Y006825D01*
X029454Y006923D02*
X023894Y006923D01*
X023796Y007022D02*
X029388Y007022D01*
X029388Y007120D02*
X023022Y007120D01*
X022924Y007219D02*
X029456Y007219D01*
X030397Y007317D02*
X022825Y007317D01*
X022727Y007416D02*
X035956Y007416D01*
X036013Y007514D02*
X022628Y007514D01*
X022530Y007613D02*
X036080Y007613D01*
X036179Y007711D02*
X022431Y007711D01*
X022333Y007810D02*
X036277Y007810D01*
X036439Y007908D02*
X022234Y007908D01*
X022136Y008007D02*
X036651Y008007D01*
X036340Y008696D02*
X038263Y008696D01*
X038263Y008598D02*
X021545Y008598D01*
X021446Y008696D02*
X035906Y008696D01*
X036578Y008795D02*
X038263Y008795D01*
X038263Y008893D02*
X036722Y008893D01*
X036821Y008992D02*
X038263Y008992D01*
X038263Y009090D02*
X036919Y009090D01*
X036961Y009189D02*
X038263Y009189D01*
X038263Y009287D02*
X037001Y009287D01*
X037042Y009386D02*
X038263Y009386D01*
X038263Y009484D02*
X037064Y009484D01*
X037064Y009583D02*
X038263Y009583D01*
X038263Y009681D02*
X037064Y009681D01*
X037064Y009780D02*
X038263Y009780D01*
X038263Y009878D02*
X037036Y009878D01*
X036995Y009977D02*
X038263Y009977D01*
X038263Y010075D02*
X036954Y010075D01*
X036904Y010174D02*
X038263Y010174D01*
X038263Y010272D02*
X036805Y010272D01*
X036707Y010371D02*
X038263Y010371D01*
X038263Y010469D02*
X036541Y010469D01*
X038263Y011750D02*
X034411Y011750D01*
X034313Y011848D02*
X038263Y011848D01*
X038263Y011947D02*
X034160Y011947D01*
X034163Y012242D02*
X035482Y012242D01*
X035384Y012341D02*
X034324Y012341D01*
X034423Y012439D02*
X035309Y012439D01*
X035268Y012538D02*
X034500Y012538D01*
X034541Y012636D02*
X035227Y012636D01*
X035187Y012735D02*
X034581Y012735D01*
X034600Y012833D02*
X035183Y012833D01*
X035183Y012932D02*
X034600Y012932D01*
X034600Y013030D02*
X035183Y013030D01*
X035187Y013129D02*
X034581Y013129D01*
X034540Y013227D02*
X035228Y013227D01*
X035268Y013326D02*
X034500Y013326D01*
X034422Y013424D02*
X035309Y013424D01*
X035384Y013523D02*
X034324Y013523D01*
X034162Y013621D02*
X035483Y013621D01*
X036440Y013818D02*
X038263Y013818D01*
X038263Y013720D02*
X036665Y013720D01*
X036764Y013621D02*
X038263Y013621D01*
X038263Y013523D02*
X036862Y013523D01*
X036937Y013424D02*
X038263Y013424D01*
X038263Y013326D02*
X036978Y013326D01*
X037019Y013227D02*
X038263Y013227D01*
X038263Y013129D02*
X037059Y013129D01*
X037064Y013030D02*
X038263Y013030D01*
X038263Y012932D02*
X037064Y012932D01*
X037064Y012833D02*
X038263Y012833D01*
X038263Y012735D02*
X037060Y012735D01*
X037019Y012636D02*
X038263Y012636D01*
X038263Y012538D02*
X036978Y012538D01*
X036937Y012439D02*
X038263Y012439D01*
X038263Y012341D02*
X036862Y012341D01*
X036764Y012242D02*
X038263Y012242D01*
X038263Y012144D02*
X036665Y012144D01*
X036441Y012045D02*
X038263Y012045D01*
X038263Y008499D02*
X021643Y008499D01*
X021742Y008401D02*
X038263Y008401D01*
X038263Y008302D02*
X021840Y008302D01*
X021939Y008204D02*
X038263Y008204D01*
X038263Y008105D02*
X022037Y008105D01*
X021583Y007613D02*
X012605Y007613D01*
X012506Y007711D02*
X021484Y007711D01*
X021386Y007810D02*
X012408Y007810D01*
X012309Y007908D02*
X021287Y007908D01*
X021189Y008007D02*
X012211Y008007D01*
X012112Y008105D02*
X018369Y008105D01*
X018342Y008116D02*
X018533Y008037D01*
X018740Y008037D01*
X018931Y008116D01*
X019078Y008263D01*
X019157Y008454D01*
X019157Y008661D01*
X019078Y008852D01*
X018931Y008998D01*
X018740Y009077D01*
X018533Y009077D01*
X018342Y008998D01*
X018196Y008852D01*
X018117Y008661D01*
X018117Y008454D01*
X018196Y008263D01*
X018342Y008116D01*
X018255Y008204D02*
X012014Y008204D01*
X011932Y008286D02*
X011932Y009119D01*
X012080Y009267D01*
X012080Y009572D01*
X011864Y009788D01*
X011559Y009788D01*
X011344Y009572D01*
X011344Y009267D01*
X011492Y009119D01*
X011492Y008103D01*
X013065Y006531D01*
X013065Y006209D01*
X013326Y005947D01*
X013697Y005947D01*
X013959Y006209D01*
X013959Y006580D01*
X013697Y006842D01*
X013376Y006842D01*
X011932Y008286D01*
X011932Y008302D02*
X018179Y008302D01*
X018139Y008401D02*
X011932Y008401D01*
X011932Y008499D02*
X018117Y008499D01*
X018117Y008598D02*
X011932Y008598D01*
X011932Y008696D02*
X018131Y008696D01*
X018172Y008795D02*
X011932Y008795D01*
X011932Y008893D02*
X018237Y008893D01*
X018336Y008992D02*
X011932Y008992D01*
X011932Y009090D02*
X020105Y009090D01*
X020007Y009189D02*
X012001Y009189D01*
X012080Y009287D02*
X019908Y009287D01*
X019810Y009386D02*
X012080Y009386D01*
X012080Y009484D02*
X019711Y009484D01*
X019613Y009583D02*
X012069Y009583D01*
X011971Y009681D02*
X018352Y009681D01*
X018254Y009780D02*
X011872Y009780D01*
X011551Y009780D02*
X011332Y009780D01*
X011332Y009878D02*
X018155Y009878D01*
X018117Y009977D02*
X011332Y009977D01*
X011332Y010075D02*
X018117Y010075D01*
X018117Y010174D02*
X011332Y010174D01*
X011332Y010272D02*
X018117Y010272D01*
X018140Y010371D02*
X011332Y010371D01*
X011332Y010469D02*
X012124Y010469D01*
X012025Y010568D02*
X011300Y010568D01*
X011201Y010666D02*
X011927Y010666D01*
X011828Y010765D02*
X011103Y010765D01*
X011004Y010863D02*
X011730Y010863D01*
X011631Y010962D02*
X010906Y010962D01*
X010807Y011060D02*
X011533Y011060D01*
X011434Y011159D02*
X010709Y011159D01*
X010610Y011257D02*
X011336Y011257D01*
X011237Y011356D02*
X010512Y011356D01*
X010413Y011454D02*
X011139Y011454D01*
X011040Y011553D02*
X010315Y011553D01*
X010216Y011651D02*
X010942Y011651D01*
X010843Y011750D02*
X010118Y011750D01*
X010019Y011848D02*
X010448Y011848D01*
X010349Y011947D02*
X009921Y011947D01*
X009822Y012045D02*
X010251Y012045D01*
X010250Y012144D02*
X009724Y012144D01*
X009625Y012242D02*
X010250Y012242D01*
X010250Y012341D02*
X009527Y012341D01*
X009428Y012439D02*
X010287Y012439D01*
X010385Y012538D02*
X009330Y012538D01*
X009231Y012636D02*
X010484Y012636D01*
X010463Y012833D02*
X009034Y012833D01*
X009133Y012735D02*
X018912Y012735D01*
X019010Y012636D02*
X014813Y012636D01*
X014911Y012538D02*
X019044Y012538D01*
X019097Y012439D02*
X015010Y012439D01*
X015047Y012341D02*
X019195Y012341D01*
X018813Y012833D02*
X014834Y012833D01*
X014795Y012794D02*
X015047Y013046D01*
X015047Y013402D01*
X014795Y013654D01*
X014439Y013654D01*
X014187Y013402D01*
X014187Y013046D01*
X014439Y012794D01*
X014795Y012794D01*
X014932Y012932D02*
X018715Y012932D01*
X018616Y013030D02*
X015031Y013030D01*
X015047Y013129D02*
X018518Y013129D01*
X018419Y013227D02*
X015047Y013227D01*
X015047Y013326D02*
X018321Y013326D01*
X018222Y013424D02*
X015025Y013424D01*
X014926Y013523D02*
X018124Y013523D01*
X018025Y013621D02*
X014828Y013621D01*
X014406Y013621D02*
X010891Y013621D01*
X010989Y013523D02*
X014307Y013523D01*
X014209Y013424D02*
X011088Y013424D01*
X011110Y013326D02*
X014187Y013326D01*
X014187Y013227D02*
X011110Y013227D01*
X011110Y013129D02*
X014187Y013129D01*
X014203Y013030D02*
X011094Y013030D01*
X010995Y012932D02*
X014301Y012932D01*
X014400Y012833D02*
X010897Y012833D01*
X010876Y012636D02*
X014421Y012636D01*
X014322Y012538D02*
X010974Y012538D01*
X011073Y012439D02*
X014224Y012439D01*
X014187Y012341D02*
X011110Y012341D01*
X011110Y012242D02*
X014187Y012242D01*
X014187Y012144D02*
X011110Y012144D01*
X011170Y012045D02*
X014188Y012045D01*
X014286Y011947D02*
X011268Y011947D01*
X011367Y011848D02*
X014385Y011848D01*
X014771Y011750D02*
X011465Y011750D01*
X011564Y011651D02*
X014869Y011651D01*
X014968Y011553D02*
X011662Y011553D01*
X011761Y011454D02*
X015066Y011454D01*
X015165Y011356D02*
X011859Y011356D01*
X011958Y011257D02*
X015263Y011257D01*
X015362Y011159D02*
X012056Y011159D01*
X012155Y011060D02*
X015460Y011060D01*
X015559Y010962D02*
X012253Y010962D01*
X012234Y010669D02*
X010680Y012224D01*
X010364Y012932D02*
X007960Y012932D01*
X007861Y013030D02*
X010266Y013030D01*
X010250Y013129D02*
X007763Y013129D01*
X007751Y013227D02*
X010250Y013227D01*
X010250Y013326D02*
X007850Y013326D01*
X007948Y013424D02*
X010272Y013424D01*
X010276Y013947D02*
X010647Y013947D01*
X010909Y014209D01*
X010909Y014580D01*
X010647Y014842D01*
X010276Y014842D01*
X010015Y014580D01*
X010015Y014209D01*
X010276Y013947D01*
X010209Y014015D02*
X009715Y014015D01*
X009647Y013947D02*
X009909Y014209D01*
X009909Y014580D01*
X009647Y014842D01*
X009276Y014842D01*
X009015Y014580D01*
X009015Y014209D01*
X009276Y013947D01*
X009647Y013947D01*
X009813Y014114D02*
X010110Y014114D01*
X010015Y014212D02*
X009909Y014212D01*
X009909Y014311D02*
X010015Y014311D01*
X010015Y014409D02*
X009909Y014409D01*
X009909Y014508D02*
X010015Y014508D01*
X010041Y014606D02*
X009883Y014606D01*
X009784Y014705D02*
X010139Y014705D01*
X010238Y014803D02*
X009686Y014803D01*
X009647Y014947D02*
X009276Y014947D01*
X009015Y015209D01*
X009015Y015580D01*
X009276Y015842D01*
X009647Y015842D01*
X009909Y015580D01*
X009909Y015209D01*
X009647Y014947D01*
X009700Y015000D02*
X010224Y015000D01*
X010276Y014947D02*
X010647Y014947D01*
X010909Y015209D01*
X010909Y015580D01*
X010647Y015842D01*
X010276Y015842D01*
X010015Y015580D01*
X010015Y015209D01*
X010276Y014947D01*
X010125Y015099D02*
X009798Y015099D01*
X009897Y015197D02*
X010027Y015197D01*
X010015Y015296D02*
X009909Y015296D01*
X009909Y015394D02*
X010015Y015394D01*
X010015Y015493D02*
X009909Y015493D01*
X009898Y015591D02*
X010026Y015591D01*
X010124Y015690D02*
X009799Y015690D01*
X009701Y015788D02*
X010223Y015788D01*
X010239Y015985D02*
X009689Y015985D01*
X009648Y015944D02*
X009912Y016208D01*
X009912Y016344D01*
X009512Y016344D01*
X009512Y016444D01*
X009412Y016444D01*
X009412Y016344D01*
X009512Y016344D01*
X009512Y015944D01*
X009648Y015944D01*
X009512Y015985D02*
X009412Y015985D01*
X009412Y015944D02*
X009412Y016344D01*
X009012Y016344D01*
X009012Y016208D01*
X009275Y015944D01*
X009412Y015944D01*
X009412Y016084D02*
X009512Y016084D01*
X009512Y016182D02*
X009412Y016182D01*
X009412Y016281D02*
X009512Y016281D01*
X009512Y016379D02*
X010015Y016379D01*
X010015Y016281D02*
X009912Y016281D01*
X009886Y016182D02*
X010042Y016182D01*
X010140Y016084D02*
X009787Y016084D01*
X009912Y016478D02*
X010015Y016478D01*
X010015Y016576D02*
X009912Y016576D01*
X009818Y016675D02*
X010109Y016675D01*
X009512Y016675D02*
X009412Y016675D01*
X009412Y016773D02*
X009512Y016773D01*
X009412Y016844D02*
X009275Y016844D01*
X009012Y016581D01*
X009012Y016444D01*
X009412Y016444D01*
X009412Y016844D01*
X009204Y016773D02*
X008701Y016773D01*
X008603Y016675D02*
X009105Y016675D01*
X009012Y016576D02*
X008504Y016576D01*
X008406Y016478D02*
X009012Y016478D01*
X009012Y016281D02*
X008209Y016281D01*
X008307Y016379D02*
X009412Y016379D01*
X009412Y016478D02*
X009512Y016478D01*
X009512Y016576D02*
X009412Y016576D01*
X009038Y016182D02*
X008110Y016182D01*
X008012Y016084D02*
X009136Y016084D01*
X009235Y015985D02*
X007913Y015985D01*
X007977Y015887D02*
X015760Y015887D01*
X015858Y015788D02*
X010701Y015788D01*
X010799Y015690D02*
X015957Y015690D01*
X016055Y015591D02*
X010898Y015591D01*
X010909Y015493D02*
X016154Y015493D01*
X016252Y015394D02*
X010909Y015394D01*
X010909Y015296D02*
X016351Y015296D01*
X016449Y015197D02*
X010897Y015197D01*
X010798Y015099D02*
X016548Y015099D01*
X016646Y015000D02*
X010700Y015000D01*
X010686Y014803D02*
X016843Y014803D01*
X016942Y014705D02*
X010784Y014705D01*
X010883Y014606D02*
X017040Y014606D01*
X017139Y014508D02*
X010909Y014508D01*
X010909Y014409D02*
X017237Y014409D01*
X017336Y014311D02*
X010909Y014311D01*
X010909Y014212D02*
X017434Y014212D01*
X017533Y014114D02*
X010813Y014114D01*
X010715Y014015D02*
X017631Y014015D01*
X017730Y013917D02*
X007947Y013917D01*
X008009Y013855D02*
X007747Y014116D01*
X007610Y014116D01*
X007610Y013718D01*
X007513Y013718D01*
X007513Y013720D02*
X007610Y013720D01*
X007610Y013718D02*
X008009Y013718D01*
X008009Y013855D01*
X008009Y013818D02*
X017828Y013818D01*
X017927Y013720D02*
X008009Y013720D01*
X007848Y014015D02*
X009209Y014015D01*
X009110Y014114D02*
X007750Y014114D01*
X007747Y014223D02*
X008009Y014484D01*
X008009Y014621D01*
X007610Y014621D01*
X007610Y014223D01*
X007747Y014223D01*
X007835Y014311D02*
X009015Y014311D01*
X009015Y014409D02*
X007933Y014409D01*
X008009Y014508D02*
X009015Y014508D01*
X009041Y014606D02*
X008009Y014606D01*
X008009Y014718D02*
X008009Y014855D01*
X007747Y015116D01*
X007610Y015116D01*
X007610Y014718D01*
X007513Y014718D01*
X007513Y014621D01*
X007610Y014621D01*
X007610Y014718D01*
X008009Y014718D01*
X008009Y014803D02*
X009238Y014803D01*
X009139Y014705D02*
X007610Y014705D01*
X007513Y014705D02*
X007029Y014705D01*
X007115Y014718D02*
X007115Y014855D01*
X007377Y015116D01*
X007513Y015116D01*
X007513Y014718D01*
X007115Y014718D01*
X007115Y014803D02*
X007029Y014803D01*
X006990Y014902D02*
X007162Y014902D01*
X007260Y015000D02*
X006891Y015000D01*
X006793Y015099D02*
X007359Y015099D01*
X007513Y015099D02*
X007610Y015099D01*
X007610Y015000D02*
X007513Y015000D01*
X007513Y014902D02*
X007610Y014902D01*
X007610Y014803D02*
X007513Y014803D01*
X007513Y014606D02*
X007610Y014606D01*
X007610Y014508D02*
X007513Y014508D01*
X007513Y014409D02*
X007610Y014409D01*
X007610Y014311D02*
X007513Y014311D01*
X007455Y014212D02*
X009015Y014212D01*
X009224Y015000D02*
X007863Y015000D01*
X007765Y015099D02*
X009125Y015099D01*
X009027Y015197D02*
X006157Y015197D01*
X006157Y015099D02*
X006330Y015099D01*
X006232Y015000D02*
X006157Y015000D01*
X006157Y015296D02*
X006275Y015296D01*
X006177Y015394D02*
X006157Y015394D01*
X006562Y015669D02*
X007062Y016169D01*
X007787Y016169D01*
X010687Y019069D01*
X010687Y023194D01*
X010319Y023176D02*
X006157Y023176D01*
X006157Y023274D02*
X010319Y023274D01*
X010344Y023373D02*
X006157Y023373D01*
X006157Y023471D02*
X010443Y023471D01*
X010319Y023077D02*
X006157Y023077D01*
X006157Y022979D02*
X010382Y022979D01*
X010467Y022880D02*
X006157Y022880D01*
X006157Y022782D02*
X010467Y022782D01*
X010467Y022683D02*
X007294Y022683D01*
X007392Y022585D02*
X010467Y022585D01*
X010467Y022486D02*
X007430Y022486D01*
X007430Y022388D02*
X010467Y022388D01*
X010467Y022289D02*
X007430Y022289D01*
X007378Y022191D02*
X010467Y022191D01*
X010467Y022092D02*
X007799Y022092D01*
X007898Y021994D02*
X010467Y021994D01*
X010467Y021895D02*
X007996Y021895D01*
X008029Y021797D02*
X010467Y021797D01*
X010467Y021698D02*
X008029Y021698D01*
X008029Y021600D02*
X010467Y021600D01*
X010467Y021501D02*
X008029Y021501D01*
X007955Y021403D02*
X010467Y021403D01*
X010467Y021304D02*
X009267Y021304D01*
X009181Y021389D02*
X008792Y021389D01*
X008517Y021114D01*
X008517Y020725D01*
X008792Y020449D01*
X009181Y020449D01*
X009457Y020725D01*
X009457Y021114D01*
X009181Y021389D01*
X009365Y021206D02*
X010467Y021206D01*
X010467Y021107D02*
X009457Y021107D01*
X009457Y021009D02*
X010467Y021009D01*
X010467Y020910D02*
X009457Y020910D01*
X009457Y020812D02*
X010467Y020812D01*
X010467Y020713D02*
X009445Y020713D01*
X009346Y020615D02*
X010467Y020615D01*
X010467Y020516D02*
X009248Y020516D01*
X008725Y020516D02*
X008029Y020516D01*
X008029Y020615D02*
X008627Y020615D01*
X008528Y020713D02*
X008029Y020713D01*
X008029Y020812D02*
X008517Y020812D01*
X008517Y020910D02*
X007981Y020910D01*
X007883Y021009D02*
X008517Y021009D01*
X008517Y021107D02*
X007784Y021107D01*
X007758Y021206D02*
X008608Y021206D01*
X008707Y021304D02*
X007856Y021304D01*
X007365Y021206D02*
X007282Y021206D01*
X007282Y021107D02*
X007339Y021107D01*
X007350Y020221D02*
X007282Y020221D01*
X007282Y020122D02*
X007354Y020122D01*
X007769Y020122D02*
X010467Y020122D01*
X010467Y020024D02*
X007868Y020024D01*
X007966Y019925D02*
X010467Y019925D01*
X010467Y019827D02*
X008029Y019827D01*
X008029Y019728D02*
X010467Y019728D01*
X010467Y019630D02*
X008029Y019630D01*
X008029Y019531D02*
X010467Y019531D01*
X010467Y019433D02*
X007985Y019433D01*
X007886Y019334D02*
X010467Y019334D01*
X010467Y019236D02*
X007788Y019236D01*
X007335Y019236D02*
X007282Y019236D01*
X007282Y019137D02*
X010443Y019137D01*
X010345Y019039D02*
X009018Y019039D01*
X009206Y018940D02*
X010246Y018940D01*
X010148Y018842D02*
X009304Y018842D01*
X009403Y018743D02*
X010049Y018743D01*
X009951Y018645D02*
X009457Y018645D01*
X009457Y018546D02*
X009852Y018546D01*
X009754Y018448D02*
X009457Y018448D01*
X009457Y018349D02*
X009655Y018349D01*
X009557Y018251D02*
X009407Y018251D01*
X009458Y018152D02*
X009309Y018152D01*
X009360Y018054D02*
X009210Y018054D01*
X009261Y017955D02*
X007936Y017955D01*
X008029Y017857D02*
X009163Y017857D01*
X009064Y017758D02*
X008029Y017758D01*
X008029Y017660D02*
X008966Y017660D01*
X008867Y017561D02*
X008029Y017561D01*
X008015Y017463D02*
X008769Y017463D01*
X008670Y017364D02*
X007916Y017364D01*
X007818Y017266D02*
X008572Y017266D01*
X008473Y017167D02*
X007282Y017167D01*
X007282Y017266D02*
X007305Y017266D01*
X007300Y017069D02*
X007272Y017069D01*
X007202Y016970D02*
X007173Y016970D01*
X007103Y016872D02*
X007075Y016872D01*
X007095Y016773D02*
X007029Y016773D01*
X007029Y016675D02*
X007095Y016675D01*
X007095Y016576D02*
X007029Y016576D01*
X007029Y016478D02*
X007095Y016478D01*
X006960Y016379D02*
X006931Y016379D01*
X006862Y016281D02*
X006833Y016281D01*
X006763Y016182D02*
X006157Y016182D01*
X006157Y016084D02*
X006315Y016084D01*
X006217Y015985D02*
X006157Y015985D01*
X006157Y016281D02*
X006290Y016281D01*
X006192Y016379D02*
X006157Y016379D01*
X006562Y016669D02*
X007062Y017169D01*
X007062Y022394D01*
X006694Y022388D02*
X006157Y022388D01*
X006157Y022486D02*
X006694Y022486D01*
X006731Y022585D02*
X006157Y022585D01*
X006157Y022683D02*
X006830Y022683D01*
X006694Y022289D02*
X006157Y022289D01*
X006157Y022191D02*
X006745Y022191D01*
X006799Y022092D02*
X006842Y022092D01*
X007282Y022092D02*
X007324Y022092D01*
X006324Y022092D02*
X006157Y022092D01*
X006157Y021994D02*
X006226Y021994D01*
X007871Y020319D02*
X010467Y020319D01*
X010467Y020221D02*
X007773Y020221D01*
X007970Y020418D02*
X010467Y020418D01*
X008664Y018152D02*
X007282Y018152D01*
X007282Y018054D02*
X007286Y018054D01*
X007282Y018251D02*
X007320Y018251D01*
X007838Y018054D02*
X008763Y018054D01*
X008375Y017069D02*
X007823Y017069D01*
X007921Y016970D02*
X008276Y016970D01*
X008178Y016872D02*
X008020Y016872D01*
X008029Y016773D02*
X008079Y016773D01*
X008800Y016872D02*
X014775Y016872D01*
X014873Y016773D02*
X010716Y016773D01*
X010814Y016675D02*
X014972Y016675D01*
X015070Y016576D02*
X010909Y016576D01*
X010909Y016478D02*
X015169Y016478D01*
X015267Y016379D02*
X010909Y016379D01*
X010909Y016281D02*
X015366Y016281D01*
X015464Y016182D02*
X010882Y016182D01*
X010783Y016084D02*
X015563Y016084D01*
X015661Y015985D02*
X010685Y015985D01*
X009223Y015788D02*
X008009Y015788D01*
X008009Y015591D02*
X009026Y015591D01*
X009015Y015493D02*
X008009Y015493D01*
X007918Y015394D02*
X009015Y015394D01*
X009015Y015296D02*
X007820Y015296D01*
X007610Y015296D02*
X007513Y015296D01*
X007513Y015394D02*
X007610Y015394D01*
X007610Y015493D02*
X007513Y015493D01*
X007513Y015591D02*
X007610Y015591D01*
X007610Y015690D02*
X009124Y015690D01*
X007962Y014902D02*
X016745Y014902D01*
X019210Y017266D02*
X020234Y017266D01*
X020171Y017364D02*
X019157Y017364D01*
X019157Y017463D02*
X020131Y017463D01*
X020112Y017561D02*
X019157Y017561D01*
X019157Y017660D02*
X020112Y017660D01*
X020123Y017758D02*
X019157Y017758D01*
X019157Y017857D02*
X020164Y017857D01*
X020215Y017955D02*
X019157Y017955D01*
X019157Y018054D02*
X020314Y018054D01*
X020494Y018152D02*
X019157Y018152D01*
X019157Y018251D02*
X021792Y018251D01*
X021792Y018349D02*
X019157Y018349D01*
X019157Y018448D02*
X021792Y018448D01*
X021792Y018546D02*
X019157Y018546D01*
X019157Y018645D02*
X021792Y018645D01*
X021792Y018743D02*
X019157Y018743D01*
X019157Y018842D02*
X021792Y018842D01*
X021792Y018940D02*
X019157Y018940D01*
X019157Y019039D02*
X021792Y019039D01*
X021792Y019137D02*
X019157Y019137D01*
X019157Y019236D02*
X021792Y019236D01*
X021792Y019334D02*
X019157Y019334D01*
X019157Y019433D02*
X019705Y019433D01*
X019760Y019409D02*
X019554Y019495D01*
X019397Y019652D01*
X019312Y019858D01*
X019312Y020081D01*
X019397Y020287D01*
X019554Y020444D01*
X019760Y020529D01*
X020763Y020529D01*
X020969Y020444D01*
X021126Y020287D01*
X021212Y020081D01*
X021212Y019858D01*
X021126Y019652D01*
X020969Y019495D01*
X020763Y019409D01*
X019760Y019409D01*
X019518Y019531D02*
X019157Y019531D01*
X019157Y019630D02*
X019420Y019630D01*
X019366Y019728D02*
X019157Y019728D01*
X019157Y019827D02*
X019325Y019827D01*
X019312Y019925D02*
X019157Y019925D01*
X019157Y020024D02*
X019312Y020024D01*
X019329Y020122D02*
X019157Y020122D01*
X019157Y020221D02*
X019370Y020221D01*
X019429Y020319D02*
X019157Y020319D01*
X019157Y020418D02*
X019528Y020418D01*
X019728Y020516D02*
X019157Y020516D01*
X019157Y020615D02*
X021792Y020615D01*
X021792Y020713D02*
X019157Y020713D01*
X019157Y020812D02*
X021792Y020812D01*
X021792Y020910D02*
X019157Y020910D01*
X019157Y021009D02*
X021792Y021009D01*
X021792Y021107D02*
X019157Y021107D01*
X019157Y021206D02*
X021792Y021206D01*
X021792Y021304D02*
X019157Y021304D01*
X019157Y021403D02*
X021792Y021403D01*
X021792Y021501D02*
X019157Y021501D01*
X019157Y021600D02*
X021792Y021600D01*
X021792Y021698D02*
X019157Y021698D01*
X019157Y021797D02*
X020471Y021797D01*
X020304Y021895D02*
X019157Y021895D01*
X019157Y021994D02*
X020206Y021994D01*
X020160Y022092D02*
X019157Y022092D01*
X019157Y022191D02*
X020119Y022191D01*
X020112Y022289D02*
X019157Y022289D01*
X019157Y022388D02*
X020112Y022388D01*
X020135Y022486D02*
X019157Y022486D01*
X019157Y022585D02*
X020175Y022585D01*
X020243Y022683D02*
X019157Y022683D01*
X019157Y022782D02*
X020342Y022782D01*
X019157Y022880D02*
X021792Y022880D01*
X021782Y022782D02*
X021792Y022782D01*
X021757Y022979D02*
X019157Y022979D01*
X019157Y023077D02*
X021659Y023077D01*
X021644Y023176D02*
X019157Y023176D01*
X019157Y023274D02*
X021644Y023274D01*
X021644Y023373D02*
X019157Y023373D01*
X019207Y023471D02*
X021718Y023471D01*
X021816Y023570D02*
X019306Y023570D01*
X019404Y023668D02*
X023292Y023668D01*
X023292Y023570D02*
X022207Y023570D01*
X022306Y023471D02*
X023292Y023471D01*
X023292Y023373D02*
X022380Y023373D01*
X022380Y023274D02*
X023292Y023274D01*
X023292Y023176D02*
X022380Y023176D01*
X022365Y023077D02*
X023292Y023077D01*
X023292Y022979D02*
X022266Y022979D01*
X022232Y022880D02*
X023292Y022880D01*
X023292Y022782D02*
X022232Y022782D01*
X022232Y022683D02*
X023280Y022683D01*
X023181Y022585D02*
X022232Y022585D01*
X022232Y022486D02*
X023144Y022486D01*
X023144Y022388D02*
X022232Y022388D01*
X022232Y022289D02*
X023144Y022289D01*
X023195Y022191D02*
X022232Y022191D01*
X022232Y022092D02*
X023294Y022092D01*
X023512Y022394D02*
X023512Y024219D01*
X023247Y023964D02*
X019700Y023964D01*
X019798Y024062D02*
X023149Y024062D01*
X023144Y024161D02*
X019897Y024161D01*
X019995Y024259D02*
X023144Y024259D01*
X023144Y024358D02*
X020094Y024358D01*
X020192Y024456D02*
X023228Y024456D01*
X023326Y024555D02*
X020291Y024555D01*
X019601Y023865D02*
X023292Y023865D01*
X023292Y023767D02*
X019503Y023767D01*
X019939Y025441D02*
X019989Y025441D01*
X019939Y025540D02*
X020065Y025540D01*
X020123Y025638D02*
X019872Y025638D01*
X019774Y025737D02*
X020221Y025737D01*
X021703Y025835D02*
X022320Y025835D01*
X022326Y025842D02*
X022065Y025580D01*
X022065Y025209D01*
X022326Y024947D01*
X022697Y024947D01*
X022959Y025209D01*
X022959Y025580D01*
X022697Y025842D01*
X022326Y025842D01*
X022221Y025737D02*
X021802Y025737D01*
X021900Y025638D02*
X022123Y025638D01*
X022065Y025540D02*
X021959Y025540D01*
X021959Y025441D02*
X022065Y025441D01*
X022065Y025343D02*
X021959Y025343D01*
X021959Y025244D02*
X022065Y025244D01*
X022128Y025146D02*
X021895Y025146D01*
X021797Y025047D02*
X022227Y025047D01*
X022325Y024949D02*
X021698Y024949D01*
X022698Y024949D02*
X023325Y024949D01*
X023227Y025047D02*
X022797Y025047D01*
X022895Y025146D02*
X023128Y025146D01*
X023065Y025244D02*
X022959Y025244D01*
X022959Y025343D02*
X023065Y025343D01*
X023065Y025441D02*
X022959Y025441D01*
X022959Y025540D02*
X023065Y025540D01*
X023123Y025638D02*
X022900Y025638D01*
X022802Y025737D02*
X023221Y025737D01*
X023320Y025835D02*
X022703Y025835D01*
X022012Y023244D02*
X022012Y015569D01*
X021562Y015119D01*
X021562Y010219D01*
X021362Y010019D01*
X021212Y010544D02*
X021337Y010669D01*
X021337Y015419D01*
X021587Y015690D02*
X021792Y015690D01*
X021792Y015788D02*
X020687Y015788D01*
X020589Y015887D02*
X021792Y015887D01*
X021792Y015985D02*
X020490Y015985D01*
X020392Y016084D02*
X021792Y016084D01*
X021792Y016182D02*
X020293Y016182D01*
X020195Y016281D02*
X021792Y016281D01*
X021792Y016379D02*
X020096Y016379D01*
X019998Y016478D02*
X021792Y016478D01*
X021792Y016576D02*
X019899Y016576D01*
X019801Y016675D02*
X021792Y016675D01*
X021792Y016773D02*
X019702Y016773D01*
X019604Y016872D02*
X021792Y016872D01*
X021792Y016970D02*
X019505Y016970D01*
X019407Y017069D02*
X020538Y017069D01*
X020332Y017167D02*
X019308Y017167D01*
X020786Y015690D02*
X021086Y015690D01*
X020988Y015591D02*
X020884Y015591D01*
X021686Y015591D02*
X021722Y015591D01*
X021792Y017069D02*
X021585Y017069D01*
X021791Y017167D02*
X021792Y017167D01*
X021792Y018152D02*
X021629Y018152D01*
X021792Y019433D02*
X020819Y019433D01*
X021005Y019531D02*
X021792Y019531D01*
X021792Y019630D02*
X021104Y019630D01*
X021158Y019728D02*
X021792Y019728D01*
X021792Y019827D02*
X021199Y019827D01*
X021212Y019925D02*
X021792Y019925D01*
X021792Y020024D02*
X021212Y020024D01*
X021195Y020122D02*
X021792Y020122D01*
X021792Y020221D02*
X021154Y020221D01*
X021094Y020319D02*
X021792Y020319D01*
X021792Y020418D02*
X020996Y020418D01*
X020796Y020516D02*
X021792Y020516D01*
X021792Y021797D02*
X021653Y021797D01*
X018317Y021403D02*
X018258Y021403D01*
X016412Y023944D02*
X016412Y018719D01*
X013337Y022944D02*
X014012Y023619D01*
X014012Y026219D01*
X014380Y026229D02*
X015116Y026229D01*
X015214Y026131D02*
X014380Y026131D01*
X014345Y026032D02*
X015292Y026032D01*
X015292Y025934D02*
X014246Y025934D01*
X014232Y025835D02*
X014320Y025835D01*
X014703Y025835D02*
X015292Y025835D01*
X015221Y025737D02*
X014802Y025737D01*
X014900Y025638D02*
X015123Y025638D01*
X015065Y025540D02*
X014959Y025540D01*
X014959Y025441D02*
X015065Y025441D01*
X015065Y025343D02*
X014959Y025343D01*
X014959Y025244D02*
X015065Y025244D01*
X015128Y025146D02*
X014895Y025146D01*
X014797Y025047D02*
X015227Y025047D01*
X015325Y024949D02*
X014698Y024949D01*
X014325Y024949D02*
X014232Y024949D01*
X013792Y024949D02*
X013698Y024949D01*
X013792Y024850D02*
X006157Y024850D01*
X006157Y024752D02*
X013792Y024752D01*
X013792Y024653D02*
X006157Y024653D01*
X006157Y024555D02*
X013792Y024555D01*
X013792Y024456D02*
X006157Y024456D01*
X006157Y024358D02*
X013792Y024358D01*
X013325Y024949D02*
X012698Y024949D01*
X012697Y024947D02*
X012959Y025209D01*
X012959Y025580D01*
X012697Y025842D01*
X012326Y025842D01*
X012314Y025829D01*
X011932Y026211D01*
X011803Y026339D01*
X009812Y026339D01*
X009664Y026488D01*
X009359Y026488D01*
X009144Y026272D01*
X009144Y025967D01*
X009359Y025751D01*
X009664Y025751D01*
X009812Y025899D01*
X011621Y025899D01*
X011678Y025842D01*
X011326Y025842D01*
X011065Y025580D01*
X011065Y025209D01*
X011326Y024947D01*
X011697Y024947D01*
X011959Y025209D01*
X011959Y025561D01*
X012065Y025456D01*
X012065Y025209D01*
X012326Y024947D01*
X012697Y024947D01*
X012797Y025047D02*
X013227Y025047D01*
X013128Y025146D02*
X012895Y025146D01*
X012959Y025244D02*
X013065Y025244D01*
X013065Y025343D02*
X012959Y025343D01*
X012959Y025441D02*
X013065Y025441D01*
X013055Y025540D02*
X012959Y025540D01*
X012957Y025638D02*
X012900Y025638D01*
X012858Y025737D02*
X012802Y025737D01*
X012760Y025835D02*
X012703Y025835D01*
X012661Y025934D02*
X012209Y025934D01*
X012110Y026032D02*
X012563Y026032D01*
X012517Y026131D02*
X012012Y026131D01*
X011913Y026229D02*
X012517Y026229D01*
X012517Y026328D02*
X011815Y026328D01*
X011712Y026119D02*
X009512Y026119D01*
X009144Y026131D02*
X006157Y026131D01*
X006157Y026229D02*
X009144Y026229D01*
X009199Y026328D02*
X006157Y026328D01*
X006157Y026426D02*
X009298Y026426D01*
X009144Y026032D02*
X006157Y026032D01*
X006157Y025934D02*
X009177Y025934D01*
X009276Y025835D02*
X006157Y025835D01*
X006157Y025737D02*
X010221Y025737D01*
X010320Y025835D02*
X009748Y025835D01*
X010065Y025580D02*
X010065Y025209D01*
X010326Y024947D01*
X010697Y024947D01*
X010959Y025209D01*
X010959Y025580D01*
X010697Y025842D01*
X010326Y025842D01*
X010065Y025580D01*
X010065Y025540D02*
X006157Y025540D01*
X006157Y025638D02*
X010123Y025638D01*
X010065Y025441D02*
X006157Y025441D01*
X006157Y025343D02*
X010065Y025343D01*
X010065Y025244D02*
X006157Y025244D01*
X006157Y025146D02*
X010128Y025146D01*
X010227Y025047D02*
X006157Y025047D01*
X006157Y024949D02*
X010325Y024949D01*
X010698Y024949D02*
X011325Y024949D01*
X011227Y025047D02*
X010797Y025047D01*
X010895Y025146D02*
X011128Y025146D01*
X011065Y025244D02*
X010959Y025244D01*
X010959Y025343D02*
X011065Y025343D01*
X011065Y025441D02*
X010959Y025441D01*
X010959Y025540D02*
X011065Y025540D01*
X011123Y025638D02*
X010900Y025638D01*
X010802Y025737D02*
X011221Y025737D01*
X011320Y025835D02*
X010703Y025835D01*
X011712Y026119D02*
X012437Y025394D01*
X012512Y025394D01*
X012227Y025047D02*
X011797Y025047D01*
X011895Y025146D02*
X012128Y025146D01*
X012065Y025244D02*
X011959Y025244D01*
X011959Y025343D02*
X012065Y025343D01*
X012065Y025441D02*
X011959Y025441D01*
X011959Y025540D02*
X011980Y025540D01*
X012307Y025835D02*
X012320Y025835D01*
X012737Y026169D02*
X013512Y025394D01*
X013703Y025835D02*
X013792Y025835D01*
X013777Y025934D02*
X013284Y025934D01*
X013185Y026032D02*
X013679Y026032D01*
X013644Y026131D02*
X013087Y026131D01*
X012988Y026229D02*
X013644Y026229D01*
X013644Y026328D02*
X012957Y026328D01*
X012957Y026426D02*
X013698Y026426D01*
X013796Y026525D02*
X012957Y026525D01*
X013106Y026623D02*
X014722Y026623D01*
X014820Y026525D02*
X014227Y026525D01*
X014326Y026426D02*
X014919Y026426D01*
X015017Y026328D02*
X014380Y026328D01*
X014623Y026722D02*
X013202Y026722D01*
X013202Y026820D02*
X014525Y026820D01*
X014426Y026919D02*
X013202Y026919D01*
X013202Y027017D02*
X014328Y027017D01*
X014229Y027116D02*
X013202Y027116D01*
X013202Y027214D02*
X014131Y027214D01*
X014067Y027313D02*
X013202Y027313D01*
X013163Y027411D02*
X014067Y027411D01*
X014067Y027510D02*
X013180Y027510D01*
X013182Y027608D02*
X014067Y027608D01*
X014067Y027707D02*
X013182Y027707D01*
X013182Y027904D02*
X014067Y027904D01*
X014067Y028002D02*
X013182Y028002D01*
X013174Y028101D02*
X014067Y028101D01*
X014067Y028199D02*
X013053Y028199D01*
X012787Y028002D02*
X012687Y028002D01*
X012687Y027904D02*
X012787Y027904D01*
X012787Y027805D02*
X014067Y027805D01*
X014507Y027805D02*
X014812Y027805D01*
X014812Y027707D02*
X014507Y027707D01*
X014507Y027608D02*
X014812Y027608D01*
X014812Y027510D02*
X014507Y027510D01*
X014556Y027411D02*
X014812Y027411D01*
X014812Y027313D02*
X014655Y027313D01*
X014753Y027214D02*
X014812Y027214D01*
X014812Y027904D02*
X014507Y027904D01*
X014507Y028002D02*
X014812Y028002D01*
X014812Y028101D02*
X014507Y028101D01*
X014507Y028199D02*
X014812Y028199D01*
X014812Y028298D02*
X014507Y028298D01*
X014507Y028396D02*
X014812Y028396D01*
X014812Y028495D02*
X014507Y028495D01*
X014507Y028593D02*
X014812Y028593D01*
X014812Y028692D02*
X014507Y028692D01*
X014507Y028790D02*
X014812Y028790D01*
X014812Y028889D02*
X014507Y028889D01*
X014507Y028987D02*
X014812Y028987D01*
X014812Y029086D02*
X014507Y029086D01*
X014507Y029184D02*
X014812Y029184D01*
X014812Y029283D02*
X014507Y029283D01*
X014507Y029381D02*
X014812Y029381D01*
X014812Y029480D02*
X014507Y029480D01*
X014507Y029578D02*
X014812Y029578D01*
X014812Y029677D02*
X014507Y029677D01*
X014507Y029775D02*
X014812Y029775D01*
X014812Y029874D02*
X014507Y029874D01*
X014507Y029972D02*
X014812Y029972D01*
X014812Y030071D02*
X014507Y030071D01*
X014507Y030169D02*
X014812Y030169D01*
X014812Y030268D02*
X014507Y030268D01*
X014507Y030366D02*
X014812Y030366D01*
X014812Y030465D02*
X014507Y030465D01*
X014507Y030563D02*
X014812Y030563D01*
X014812Y030662D02*
X014507Y030662D01*
X014507Y030760D02*
X014812Y030760D01*
X014812Y030859D02*
X014507Y030859D01*
X014507Y030957D02*
X014812Y030957D01*
X014812Y031056D02*
X014507Y031056D01*
X014507Y031154D02*
X014812Y031154D01*
X014812Y031253D02*
X014507Y031253D01*
X014507Y031351D02*
X014812Y031351D01*
X014817Y031450D02*
X014507Y031450D01*
X014507Y031548D02*
X014915Y031548D01*
X015014Y031647D02*
X014507Y031647D01*
X014507Y031745D02*
X015112Y031745D01*
X015211Y031844D02*
X014507Y031844D01*
X014507Y031942D02*
X015309Y031942D01*
X015408Y032041D02*
X014507Y032041D01*
X014507Y032139D02*
X015506Y032139D01*
X015605Y032238D02*
X014507Y032238D01*
X014456Y032336D02*
X015687Y032336D01*
X015687Y032435D02*
X015216Y032435D01*
X015221Y032437D02*
X015278Y032479D01*
X015328Y032528D01*
X015369Y032585D01*
X015401Y032648D01*
X015423Y032715D01*
X015431Y032771D01*
X015035Y032771D01*
X015035Y032375D01*
X015091Y032384D01*
X015158Y032405D01*
X015221Y032437D01*
X015331Y032533D02*
X015687Y032533D01*
X015687Y032632D02*
X015392Y032632D01*
X015425Y032730D02*
X015687Y032730D01*
X015687Y032829D02*
X015035Y032829D01*
X015035Y032868D02*
X015431Y032868D01*
X015423Y032924D01*
X015401Y032991D01*
X015369Y033054D01*
X015328Y033111D01*
X015278Y033160D01*
X015221Y033202D01*
X015158Y033234D01*
X015091Y033255D01*
X015035Y033264D01*
X015035Y032868D01*
X014938Y032868D01*
X014938Y032771D01*
X014542Y032771D01*
X014551Y032715D01*
X014573Y032648D01*
X014604Y032585D01*
X014646Y032528D01*
X014696Y032479D01*
X014752Y032437D01*
X014815Y032405D01*
X014882Y032384D01*
X014938Y032375D01*
X014938Y032771D01*
X015035Y032771D01*
X015035Y032868D01*
X015035Y032927D02*
X014938Y032927D01*
X014938Y032868D02*
X014938Y033264D01*
X014882Y033255D01*
X014815Y033234D01*
X014752Y033202D01*
X014696Y033160D01*
X014646Y033111D01*
X014604Y033054D01*
X014573Y032991D01*
X014551Y032924D01*
X014542Y032868D01*
X014938Y032868D01*
X014938Y032829D02*
X014454Y032829D01*
X014447Y032927D02*
X014552Y032927D01*
X014590Y033026D02*
X014407Y033026D01*
X014342Y033124D02*
X014659Y033124D01*
X014794Y033223D02*
X014233Y033223D01*
X014241Y033420D02*
X014581Y033420D01*
X014540Y033518D02*
X014345Y033518D01*
X014408Y033617D02*
X014540Y033617D01*
X014540Y033715D02*
X014449Y033715D01*
X014454Y033814D02*
X014938Y033814D01*
X015035Y033814D02*
X015687Y033814D01*
X015687Y033912D02*
X015434Y033912D01*
X015434Y033868D02*
X015434Y034136D01*
X015423Y034174D01*
X015404Y034208D01*
X015687Y034208D01*
X015687Y034306D02*
X005931Y034306D01*
X005931Y034208D02*
X007715Y034208D01*
X007722Y034215D02*
X007591Y034084D01*
X007520Y033912D01*
X005931Y033912D01*
X005931Y033814D02*
X007520Y033814D01*
X007520Y033727D02*
X007591Y033555D01*
X007722Y033424D01*
X007894Y033353D01*
X008080Y033353D01*
X008251Y033424D01*
X008382Y033555D01*
X008454Y033727D01*
X008454Y033912D01*
X008549Y033912D01*
X008551Y033924D02*
X008542Y033868D01*
X008938Y033868D01*
X008938Y033771D01*
X008542Y033771D01*
X008551Y033715D01*
X008449Y033715D01*
X008454Y033814D02*
X008938Y033814D01*
X008938Y033771D02*
X009035Y033771D01*
X009035Y033375D01*
X009091Y033384D01*
X009158Y033405D01*
X009221Y033437D01*
X009278Y033479D01*
X009328Y033528D01*
X009369Y033585D01*
X009401Y033648D01*
X009423Y033715D01*
X009551Y033715D01*
X009573Y033648D01*
X009604Y033585D01*
X009646Y033528D01*
X009696Y033479D01*
X009752Y033437D01*
X009815Y033405D01*
X009882Y033384D01*
X009938Y033375D01*
X009938Y033771D01*
X009542Y033771D01*
X009551Y033715D01*
X009589Y033617D02*
X009385Y033617D01*
X009423Y033715D02*
X009431Y033771D01*
X009035Y033771D01*
X009035Y033868D01*
X008938Y033868D01*
X008938Y034264D01*
X008882Y034255D01*
X008815Y034234D01*
X008752Y034202D01*
X008696Y034160D01*
X008646Y034111D01*
X008604Y034054D01*
X008573Y033991D01*
X008551Y033924D01*
X008583Y034011D02*
X008413Y034011D01*
X008382Y034084D02*
X008454Y033912D01*
X008382Y034084D02*
X008251Y034215D01*
X008080Y034286D01*
X007894Y034286D01*
X007722Y034215D01*
X007616Y034109D02*
X005931Y034109D01*
X005931Y034011D02*
X007561Y034011D01*
X007520Y033912D02*
X007520Y033727D01*
X007525Y033715D02*
X005931Y033715D01*
X005931Y033617D02*
X007565Y033617D01*
X007628Y033518D02*
X005931Y033518D01*
X005931Y033420D02*
X007732Y033420D01*
X007740Y033223D02*
X005931Y033223D01*
X005931Y033321D02*
X012174Y033321D01*
X012233Y033223D02*
X012272Y033223D01*
X012342Y033124D02*
X012371Y033124D01*
X012407Y033026D02*
X012567Y033026D01*
X012526Y032927D02*
X012447Y032927D01*
X012454Y032829D02*
X012520Y032829D01*
X012520Y032730D02*
X012454Y032730D01*
X012414Y032632D02*
X012559Y032632D01*
X012613Y032533D02*
X012360Y032533D01*
X012262Y032435D02*
X012711Y032435D01*
X012481Y032041D02*
X012212Y032041D01*
X012212Y032139D02*
X013706Y032139D01*
X013607Y032238D02*
X012212Y032238D01*
X012212Y032336D02*
X013509Y032336D01*
X013410Y032435D02*
X013262Y032435D01*
X013893Y032041D02*
X014067Y032041D01*
X014067Y031942D02*
X013987Y031942D01*
X013987Y031844D02*
X014067Y031844D01*
X014067Y031745D02*
X013987Y031745D01*
X013987Y031647D02*
X014067Y031647D01*
X014067Y031548D02*
X013987Y031548D01*
X013987Y031450D02*
X014067Y031450D01*
X014067Y031351D02*
X013987Y031351D01*
X013987Y031253D02*
X014067Y031253D01*
X014067Y031154D02*
X013987Y031154D01*
X013945Y031056D02*
X014067Y031056D01*
X014067Y030957D02*
X012182Y030957D01*
X012182Y030859D02*
X014067Y030859D01*
X014067Y030760D02*
X012182Y030760D01*
X012182Y030662D02*
X014067Y030662D01*
X014067Y030563D02*
X012182Y030563D01*
X012182Y030465D02*
X014067Y030465D01*
X014067Y030366D02*
X012182Y030366D01*
X012182Y030268D02*
X014067Y030268D01*
X014067Y030169D02*
X012182Y030169D01*
X012182Y030071D02*
X014067Y030071D01*
X014067Y029972D02*
X012182Y029972D01*
X012182Y029874D02*
X014067Y029874D01*
X014067Y029775D02*
X013925Y029775D01*
X013937Y029764D02*
X013909Y029791D01*
X013874Y029811D01*
X013836Y029821D01*
X013237Y029821D01*
X013237Y029367D01*
X013967Y029367D01*
X013967Y029691D01*
X013956Y029729D01*
X013937Y029764D01*
X013967Y029677D02*
X014067Y029677D01*
X014067Y029578D02*
X013967Y029578D01*
X013967Y029480D02*
X014067Y029480D01*
X014067Y029381D02*
X013967Y029381D01*
X013967Y029267D02*
X013967Y028943D01*
X013956Y028905D01*
X013937Y028871D01*
X013909Y028843D01*
X013874Y028823D01*
X013836Y028813D01*
X013237Y028813D01*
X013237Y029267D01*
X013237Y029367D01*
X013137Y029367D01*
X013137Y029821D01*
X012537Y029821D01*
X012499Y029811D01*
X012465Y029791D01*
X012437Y029764D01*
X012417Y029729D01*
X012407Y029691D01*
X012407Y029367D01*
X013137Y029367D01*
X013137Y029267D01*
X013237Y029267D01*
X013967Y029267D01*
X013967Y029184D02*
X014067Y029184D01*
X014067Y029086D02*
X013967Y029086D01*
X013967Y028987D02*
X014067Y028987D01*
X014067Y028889D02*
X013947Y028889D01*
X014067Y028790D02*
X012182Y028790D01*
X012182Y028692D02*
X014067Y028692D01*
X014067Y028593D02*
X012182Y028593D01*
X012182Y028495D02*
X014067Y028495D01*
X014067Y028396D02*
X012182Y028396D01*
X012182Y028298D02*
X014067Y028298D01*
X014067Y029283D02*
X013237Y029283D01*
X013237Y029381D02*
X013137Y029381D01*
X013137Y029283D02*
X012182Y029283D01*
X012182Y029381D02*
X012407Y029381D01*
X012407Y029480D02*
X012182Y029480D01*
X012182Y029578D02*
X012407Y029578D01*
X012407Y029677D02*
X012182Y029677D01*
X012182Y029775D02*
X012448Y029775D01*
X013137Y029775D02*
X013237Y029775D01*
X013237Y029677D02*
X013137Y029677D01*
X013137Y029578D02*
X013237Y029578D01*
X013237Y029480D02*
X013137Y029480D01*
X013137Y029267D02*
X012407Y029267D01*
X012407Y028943D01*
X012417Y028905D01*
X012437Y028871D01*
X012465Y028843D01*
X012499Y028823D01*
X012537Y028813D01*
X013137Y028813D01*
X013137Y029267D01*
X013137Y029184D02*
X013237Y029184D01*
X013237Y029086D02*
X013137Y029086D01*
X013137Y028987D02*
X013237Y028987D01*
X013237Y028889D02*
X013137Y028889D01*
X012426Y028889D02*
X012182Y028889D01*
X012182Y028987D02*
X012407Y028987D01*
X012407Y029086D02*
X012182Y029086D01*
X012182Y029184D02*
X012407Y029184D01*
X011742Y029184D02*
X009443Y029184D01*
X009541Y029086D02*
X011742Y029086D01*
X011742Y028987D02*
X009630Y028987D01*
X009630Y028889D02*
X011742Y028889D01*
X011742Y028790D02*
X009630Y028790D01*
X009629Y028692D02*
X011742Y028692D01*
X011742Y028593D02*
X009531Y028593D01*
X009432Y028495D02*
X011742Y028495D01*
X011742Y028396D02*
X009124Y028396D01*
X009026Y028298D02*
X011742Y028298D01*
X011576Y028199D02*
X006902Y028199D01*
X006804Y028101D02*
X011496Y028101D01*
X011496Y028002D02*
X006705Y028002D01*
X006607Y027904D02*
X011496Y027904D01*
X011496Y027805D02*
X006508Y027805D01*
X006410Y027707D02*
X011496Y027707D01*
X011496Y027608D02*
X006311Y027608D01*
X006213Y027510D02*
X011496Y027510D01*
X011536Y027411D02*
X006157Y027411D01*
X006157Y027313D02*
X011496Y027313D01*
X011496Y027214D02*
X006157Y027214D01*
X006157Y027116D02*
X011496Y027116D01*
X011496Y027017D02*
X006157Y027017D01*
X006157Y026919D02*
X011496Y026919D01*
X011496Y026820D02*
X006157Y026820D01*
X006157Y026722D02*
X011496Y026722D01*
X011592Y026623D02*
X006157Y026623D01*
X006157Y026525D02*
X012517Y026525D01*
X012517Y026426D02*
X009726Y026426D01*
X011698Y024949D02*
X012325Y024949D01*
X012737Y026169D02*
X012737Y027045D01*
X011962Y027045D01*
X012331Y026623D02*
X012367Y026623D01*
X011962Y027794D02*
X011962Y031519D01*
X012182Y031253D02*
X012387Y031253D01*
X012387Y031154D02*
X012182Y031154D01*
X012182Y031056D02*
X012428Y031056D01*
X011742Y031056D02*
X007895Y031056D01*
X007998Y030957D02*
X011742Y030957D01*
X011742Y030859D02*
X008096Y030859D01*
X008171Y030760D02*
X011742Y030760D01*
X011742Y030662D02*
X008228Y030662D01*
X008285Y030563D02*
X011742Y030563D01*
X011742Y030465D02*
X008321Y030465D01*
X008348Y030366D02*
X011742Y030366D01*
X011742Y030268D02*
X008374Y030268D01*
X008389Y030169D02*
X011742Y030169D01*
X011742Y030071D02*
X008389Y030071D01*
X008389Y029972D02*
X011742Y029972D01*
X011742Y029874D02*
X008387Y029874D01*
X008361Y029775D02*
X011742Y029775D01*
X011742Y029677D02*
X008334Y029677D01*
X008308Y029578D02*
X011742Y029578D01*
X011742Y029480D02*
X008255Y029480D01*
X008199Y029381D02*
X011742Y029381D01*
X011742Y029283D02*
X008142Y029283D01*
X008045Y029184D02*
X009081Y029184D01*
X008982Y029086D02*
X007947Y029086D01*
X007806Y028987D02*
X008894Y028987D01*
X008894Y028889D02*
X007636Y028889D01*
X006862Y028469D02*
X008887Y028469D01*
X009262Y028844D01*
X008894Y028790D02*
X005931Y028790D01*
X005931Y028692D02*
X008798Y028692D01*
X006862Y028469D02*
X005937Y027544D01*
X007477Y031253D02*
X011742Y031253D01*
X011742Y031154D02*
X007724Y031154D01*
X007894Y032353D02*
X008080Y032353D01*
X008251Y032424D01*
X008382Y032555D01*
X008454Y032727D01*
X008454Y032912D01*
X008382Y033084D01*
X008251Y033215D01*
X008080Y033286D01*
X007894Y033286D01*
X007722Y033215D01*
X007591Y033084D01*
X007520Y032912D01*
X007520Y032727D01*
X007591Y032555D01*
X007722Y032424D01*
X007894Y032353D01*
X007711Y032435D02*
X005931Y032435D01*
X005931Y032533D02*
X007613Y032533D01*
X007559Y032632D02*
X005931Y032632D01*
X005931Y032730D02*
X007520Y032730D01*
X007520Y032829D02*
X005931Y032829D01*
X005931Y032927D02*
X007526Y032927D01*
X007567Y033026D02*
X005931Y033026D01*
X005931Y033124D02*
X007631Y033124D01*
X008233Y033223D02*
X008740Y033223D01*
X008722Y033215D02*
X008591Y033084D01*
X008520Y032912D01*
X008520Y032727D01*
X008591Y032555D01*
X008722Y032424D01*
X008894Y032353D01*
X009080Y032353D01*
X009251Y032424D01*
X009382Y032555D01*
X009454Y032727D01*
X009454Y032912D01*
X009382Y033084D01*
X009251Y033215D01*
X009080Y033286D01*
X008894Y033286D01*
X008722Y033215D01*
X008631Y033124D02*
X008342Y033124D01*
X008407Y033026D02*
X008567Y033026D01*
X008526Y032927D02*
X008447Y032927D01*
X008454Y032829D02*
X008520Y032829D01*
X008520Y032730D02*
X008454Y032730D01*
X008414Y032632D02*
X008559Y032632D01*
X008613Y032533D02*
X008360Y032533D01*
X008262Y032435D02*
X008711Y032435D01*
X009262Y032435D02*
X009711Y032435D01*
X009722Y032424D02*
X009894Y032353D01*
X010080Y032353D01*
X010251Y032424D01*
X010382Y032555D01*
X010454Y032727D01*
X010454Y032912D01*
X010382Y033084D01*
X010251Y033215D01*
X010080Y033286D01*
X009894Y033286D01*
X009722Y033215D01*
X009591Y033084D01*
X009520Y032912D01*
X009520Y032727D01*
X009591Y032555D01*
X009722Y032424D01*
X009613Y032533D02*
X009360Y032533D01*
X009414Y032632D02*
X009559Y032632D01*
X009520Y032730D02*
X009454Y032730D01*
X009454Y032829D02*
X009520Y032829D01*
X009526Y032927D02*
X009447Y032927D01*
X009407Y033026D02*
X009567Y033026D01*
X009631Y033124D02*
X009342Y033124D01*
X009233Y033223D02*
X009740Y033223D01*
X009787Y033420D02*
X009186Y033420D01*
X009035Y033420D02*
X008938Y033420D01*
X008938Y033375D02*
X008938Y033771D01*
X008938Y033715D02*
X009035Y033715D01*
X009035Y033617D02*
X008938Y033617D01*
X008938Y033518D02*
X009035Y033518D01*
X008938Y033375D02*
X008882Y033384D01*
X008815Y033405D01*
X008752Y033437D01*
X008696Y033479D01*
X008646Y033528D01*
X008604Y033585D01*
X008573Y033648D01*
X008551Y033715D01*
X008589Y033617D02*
X008408Y033617D01*
X008345Y033518D02*
X008656Y033518D01*
X008787Y033420D02*
X008241Y033420D01*
X008357Y034109D02*
X008645Y034109D01*
X008764Y034208D02*
X008259Y034208D01*
X008938Y034208D02*
X009035Y034208D01*
X009035Y034264D02*
X009035Y033868D01*
X009431Y033868D01*
X009423Y033924D01*
X009401Y033991D01*
X009369Y034054D01*
X009328Y034111D01*
X009278Y034160D01*
X009221Y034202D01*
X009158Y034234D01*
X009091Y034255D01*
X009035Y034264D01*
X009035Y034109D02*
X008938Y034109D01*
X008938Y034011D02*
X009035Y034011D01*
X009035Y033912D02*
X008938Y033912D01*
X009035Y033814D02*
X009938Y033814D01*
X009938Y033771D02*
X009938Y033868D01*
X009542Y033868D01*
X009551Y033924D01*
X009573Y033991D01*
X009604Y034054D01*
X009646Y034111D01*
X009696Y034160D01*
X009752Y034202D01*
X009815Y034234D01*
X009882Y034255D01*
X009938Y034264D01*
X009938Y033868D01*
X010035Y033868D01*
X010035Y034264D01*
X010091Y034255D01*
X010158Y034234D01*
X010221Y034202D01*
X010278Y034160D01*
X010328Y034111D01*
X010369Y034054D01*
X010401Y033991D01*
X010423Y033924D01*
X010431Y033868D01*
X010035Y033868D01*
X010035Y033771D01*
X009938Y033771D01*
X009938Y033715D02*
X010035Y033715D01*
X010035Y033617D02*
X009938Y033617D01*
X009938Y033518D02*
X010035Y033518D01*
X010035Y033420D02*
X009938Y033420D01*
X010186Y033420D02*
X010787Y033420D01*
X010656Y033518D02*
X010317Y033518D01*
X010573Y033648D02*
X010551Y033715D01*
X010542Y033868D02*
X010938Y033868D01*
X010938Y034264D01*
X010882Y034255D01*
X010815Y034234D01*
X010752Y034202D01*
X010696Y034160D01*
X010646Y034111D01*
X010604Y034054D01*
X010573Y033991D01*
X010551Y033924D01*
X010542Y033868D01*
X010549Y033912D02*
X010424Y033912D01*
X010391Y034011D02*
X010583Y034011D01*
X010645Y034109D02*
X010329Y034109D01*
X010209Y034208D02*
X010764Y034208D01*
X010938Y034208D02*
X011035Y034208D01*
X011035Y034109D02*
X010938Y034109D01*
X010938Y034011D02*
X011035Y034011D01*
X011035Y033912D02*
X010938Y033912D01*
X010938Y033814D02*
X010035Y033814D01*
X010035Y033912D02*
X009938Y033912D01*
X009938Y034011D02*
X010035Y034011D01*
X010035Y034109D02*
X009938Y034109D01*
X009938Y034208D02*
X010035Y034208D01*
X009764Y034208D02*
X009209Y034208D01*
X009329Y034109D02*
X009645Y034109D01*
X009583Y034011D02*
X009391Y034011D01*
X009424Y033912D02*
X009549Y033912D01*
X009656Y033518D02*
X009317Y033518D01*
X010233Y033223D02*
X010740Y033223D01*
X010631Y033124D02*
X010342Y033124D01*
X010407Y033026D02*
X010567Y033026D01*
X010526Y032927D02*
X010447Y032927D01*
X010454Y032829D02*
X010520Y032829D01*
X010520Y032730D02*
X010454Y032730D01*
X010414Y032632D02*
X010559Y032632D01*
X010613Y032533D02*
X010360Y032533D01*
X010262Y032435D02*
X010711Y032435D01*
X011186Y033420D02*
X011732Y033420D01*
X011628Y033518D02*
X011317Y033518D01*
X011385Y033617D02*
X011565Y033617D01*
X011423Y033715D02*
X011431Y033771D01*
X012259Y034208D02*
X012715Y034208D01*
X012616Y034109D02*
X012357Y034109D01*
X012413Y034011D02*
X012561Y034011D01*
X012520Y033912D02*
X012520Y033727D01*
X012591Y033555D01*
X012606Y033539D01*
X012578Y033539D01*
X012435Y033682D01*
X012454Y033727D01*
X012454Y033912D01*
X012454Y033814D02*
X012520Y033814D01*
X012525Y033715D02*
X012449Y033715D01*
X012501Y033617D02*
X012565Y033617D01*
X013259Y034208D02*
X013715Y034208D01*
X013616Y034109D02*
X013357Y034109D01*
X013413Y034011D02*
X013561Y034011D01*
X013520Y033814D02*
X013454Y033814D01*
X013449Y033715D02*
X013525Y033715D01*
X013565Y033617D02*
X013408Y033617D01*
X013399Y033518D02*
X013628Y033518D01*
X013732Y033420D02*
X013498Y033420D01*
X013596Y033321D02*
X015687Y033321D01*
X015687Y033223D02*
X015180Y033223D01*
X015035Y033223D02*
X014938Y033223D01*
X014938Y033124D02*
X015035Y033124D01*
X015035Y033026D02*
X014938Y033026D01*
X014938Y032730D02*
X015035Y032730D01*
X015035Y032632D02*
X014938Y032632D01*
X014938Y032533D02*
X015035Y032533D01*
X015035Y032435D02*
X014938Y032435D01*
X014758Y032435D02*
X014358Y032435D01*
X014360Y032533D02*
X014642Y032533D01*
X014581Y032632D02*
X014414Y032632D01*
X014454Y032730D02*
X014548Y032730D01*
X014938Y033420D02*
X015035Y033420D01*
X015035Y033518D02*
X014938Y033518D01*
X014938Y033617D02*
X015035Y033617D01*
X015035Y033715D02*
X014938Y033715D01*
X015035Y033868D02*
X015434Y033868D01*
X015434Y034011D02*
X015687Y034011D01*
X015687Y034109D02*
X015434Y034109D01*
X015404Y034208D02*
X015376Y034236D01*
X015341Y034256D01*
X015303Y034266D01*
X015035Y034266D01*
X015035Y033868D01*
X015035Y033912D02*
X014938Y033912D01*
X014938Y034011D02*
X015035Y034011D01*
X015035Y034109D02*
X014938Y034109D01*
X014938Y034208D02*
X015035Y034208D01*
X014569Y034208D02*
X014259Y034208D01*
X014357Y034109D02*
X014540Y034109D01*
X014540Y034011D02*
X014413Y034011D01*
X013740Y033223D02*
X013695Y033223D01*
X015314Y033124D02*
X015687Y033124D01*
X015687Y033026D02*
X015383Y033026D01*
X015422Y032927D02*
X015687Y032927D01*
X015687Y033420D02*
X015393Y033420D01*
X015434Y033518D02*
X015687Y033518D01*
X015687Y033617D02*
X015434Y033617D01*
X015434Y033715D02*
X015687Y033715D01*
X015687Y034405D02*
X005931Y034405D01*
X005931Y034503D02*
X015687Y034503D01*
X015687Y034602D02*
X005931Y034602D01*
X005931Y034700D02*
X015687Y034700D01*
X012387Y031942D02*
X012212Y031942D01*
X012212Y031844D02*
X012387Y031844D01*
X012348Y028199D02*
X012420Y028199D01*
X026377Y028673D02*
X027204Y028673D01*
X027204Y028830D02*
X026377Y028830D01*
X025691Y028752D02*
X025693Y028818D01*
X025699Y028883D01*
X025709Y028948D01*
X025722Y029013D01*
X025740Y029076D01*
X025761Y029139D01*
X025786Y029199D01*
X025815Y029259D01*
X025847Y029316D01*
X025882Y029372D01*
X025921Y029425D01*
X025963Y029476D01*
X026007Y029524D01*
X026055Y029569D01*
X026105Y029612D01*
X026158Y029651D01*
X026213Y029688D01*
X026270Y029721D01*
X026329Y029750D01*
X026389Y029776D01*
X026451Y029798D01*
X026514Y029817D01*
X026578Y029831D01*
X026643Y029842D01*
X026709Y029849D01*
X026775Y029852D01*
X026840Y029851D01*
X026906Y029846D01*
X026971Y029837D01*
X027036Y029824D01*
X027099Y029808D01*
X027162Y029788D01*
X027223Y029763D01*
X027283Y029736D01*
X027341Y029705D01*
X027397Y029670D01*
X027451Y029632D01*
X027502Y029591D01*
X027551Y029547D01*
X027597Y029500D01*
X027641Y029451D01*
X027681Y029399D01*
X027718Y029344D01*
X027752Y029288D01*
X027782Y029229D01*
X027809Y029169D01*
X027832Y029108D01*
X027851Y029045D01*
X027867Y028981D01*
X027879Y028916D01*
X027887Y028851D01*
X027891Y028785D01*
X027891Y028719D01*
X027887Y028653D01*
X027879Y028588D01*
X027867Y028523D01*
X027851Y028459D01*
X027832Y028396D01*
X027809Y028335D01*
X027782Y028275D01*
X027752Y028216D01*
X027718Y028160D01*
X027681Y028105D01*
X027641Y028053D01*
X027597Y028004D01*
X027551Y027957D01*
X027502Y027913D01*
X027451Y027872D01*
X027397Y027834D01*
X027341Y027799D01*
X027283Y027768D01*
X027223Y027741D01*
X027162Y027716D01*
X027099Y027696D01*
X027036Y027680D01*
X026971Y027667D01*
X026906Y027658D01*
X026840Y027653D01*
X026775Y027652D01*
X026709Y027655D01*
X026643Y027662D01*
X026578Y027673D01*
X026514Y027687D01*
X026451Y027706D01*
X026389Y027728D01*
X026329Y027754D01*
X026270Y027783D01*
X026213Y027816D01*
X026158Y027853D01*
X026105Y027892D01*
X026055Y027935D01*
X026007Y027980D01*
X025963Y028028D01*
X025921Y028079D01*
X025882Y028132D01*
X025847Y028188D01*
X025815Y028245D01*
X025786Y028305D01*
X025761Y028365D01*
X025740Y028428D01*
X025722Y028491D01*
X025709Y028556D01*
X025699Y028621D01*
X025693Y028686D01*
X025691Y028752D01*
X026692Y028358D02*
X026692Y029145D01*
X026889Y029145D02*
X026889Y028358D01*
X032117Y025638D02*
X038263Y025638D01*
X038263Y025540D02*
X032158Y025540D01*
X032197Y025441D02*
X038263Y025441D01*
X038263Y025343D02*
X032197Y025343D01*
X032197Y025244D02*
X038263Y025244D01*
X038263Y025146D02*
X032197Y025146D01*
X032197Y025047D02*
X033761Y025047D01*
X033669Y025009D02*
X033512Y024852D01*
X033427Y024646D01*
X033427Y023643D01*
X033512Y023437D01*
X033669Y023280D01*
X033875Y023194D01*
X034098Y023194D01*
X034304Y023280D01*
X034461Y023437D01*
X034547Y023643D01*
X034547Y024646D01*
X034461Y024852D01*
X034304Y025009D01*
X034098Y025094D01*
X033875Y025094D01*
X033669Y025009D01*
X033609Y024949D02*
X032197Y024949D01*
X032197Y024850D02*
X033511Y024850D01*
X033470Y024752D02*
X032197Y024752D01*
X032197Y024653D02*
X033430Y024653D01*
X033427Y024555D02*
X032197Y024555D01*
X032197Y024456D02*
X033427Y024456D01*
X033427Y024358D02*
X032161Y024358D01*
X032120Y024259D02*
X033427Y024259D01*
X033427Y024161D02*
X032035Y024161D01*
X031911Y024062D02*
X033427Y024062D01*
X033427Y023964D02*
X031757Y023964D01*
X031757Y023865D02*
X033427Y023865D01*
X033427Y023767D02*
X031757Y023767D01*
X031757Y023668D02*
X033427Y023668D01*
X033457Y023570D02*
X031757Y023570D01*
X031757Y023471D02*
X033498Y023471D01*
X033577Y023373D02*
X031757Y023373D01*
X031757Y023274D02*
X033683Y023274D01*
X034290Y023274D02*
X038263Y023274D01*
X038263Y023176D02*
X031757Y023176D01*
X031757Y023077D02*
X038263Y023077D01*
X038263Y022979D02*
X031757Y022979D01*
X031757Y022880D02*
X038263Y022880D01*
X038263Y022782D02*
X031757Y022782D01*
X031757Y022683D02*
X038263Y022683D01*
X038263Y022585D02*
X031757Y022585D01*
X031757Y022486D02*
X038263Y022486D01*
X038263Y022388D02*
X031757Y022388D01*
X031757Y022289D02*
X038263Y022289D01*
X038263Y022191D02*
X031757Y022191D01*
X031757Y022092D02*
X038263Y022092D01*
X038263Y021994D02*
X031757Y021994D01*
X031757Y021895D02*
X036017Y021895D01*
X037556Y021895D02*
X038263Y021895D01*
X038263Y021797D02*
X037719Y021797D01*
X037818Y021698D02*
X038263Y021698D01*
X038263Y021600D02*
X037880Y021600D01*
X037921Y021501D02*
X038263Y021501D01*
X038263Y021403D02*
X037957Y021403D01*
X037957Y021304D02*
X038263Y021304D01*
X038263Y021206D02*
X037957Y021206D01*
X037940Y021107D02*
X038263Y021107D01*
X038263Y021009D02*
X037899Y021009D01*
X037858Y020910D02*
X038263Y020910D01*
X038263Y020812D02*
X037764Y020812D01*
X037665Y020713D02*
X038263Y020713D01*
X038263Y020615D02*
X037427Y020615D01*
X036837Y019236D02*
X036737Y019236D01*
X036737Y019137D02*
X036837Y019137D01*
X036837Y019039D02*
X036737Y019039D01*
X036737Y018940D02*
X036837Y018940D01*
X036837Y018842D02*
X036737Y018842D01*
X036737Y018743D02*
X036837Y018743D01*
X037420Y018014D02*
X036153Y018014D01*
X035907Y017912D01*
X036153Y016674D02*
X037420Y016674D01*
X037666Y016776D01*
X037855Y016965D01*
X037957Y017211D01*
X037957Y017478D01*
X037855Y017724D01*
X037666Y017912D01*
X037420Y018014D01*
X037563Y017955D02*
X038263Y017955D01*
X038263Y017857D02*
X037722Y017857D01*
X037821Y017758D02*
X038263Y017758D01*
X038263Y017660D02*
X037881Y017660D01*
X037922Y017561D02*
X038263Y017561D01*
X038263Y017463D02*
X037957Y017463D01*
X037957Y017364D02*
X038263Y017364D01*
X038263Y017266D02*
X037957Y017266D01*
X037938Y017167D02*
X038263Y017167D01*
X038263Y017069D02*
X037898Y017069D01*
X037857Y016970D02*
X038263Y016970D01*
X038263Y016872D02*
X037761Y016872D01*
X037658Y016773D02*
X038263Y016773D01*
X038263Y016675D02*
X037420Y016675D01*
X038263Y016379D02*
X033330Y016379D01*
X033428Y016281D02*
X038263Y016281D01*
X038263Y016182D02*
X033527Y016182D01*
X033551Y016084D02*
X038263Y016084D01*
X038263Y015985D02*
X033551Y015985D01*
X033551Y015887D02*
X038263Y015887D01*
X038263Y015788D02*
X033537Y015788D01*
X033438Y015690D02*
X038263Y015690D01*
X030417Y017069D02*
X026385Y017069D01*
X026591Y017167D02*
X030417Y017167D01*
X030417Y017266D02*
X026690Y017266D01*
X026752Y017364D02*
X030417Y017364D01*
X030417Y017463D02*
X026793Y017463D01*
X026812Y017561D02*
X030417Y017561D01*
X030417Y017660D02*
X026812Y017660D01*
X026800Y017758D02*
X030417Y017758D01*
X030417Y017857D02*
X026760Y017857D01*
X026708Y017955D02*
X030417Y017955D01*
X030417Y018054D02*
X026610Y018054D01*
X026429Y018152D02*
X030417Y018152D01*
X030417Y018448D02*
X029526Y018448D01*
X029670Y018546D02*
X030417Y018546D01*
X030417Y018645D02*
X029764Y018645D01*
X029805Y018743D02*
X030417Y018743D01*
X030417Y018842D02*
X029846Y018842D01*
X029847Y018940D02*
X030417Y018940D01*
X030417Y019039D02*
X029847Y019039D01*
X029847Y019137D02*
X030417Y019137D01*
X030417Y019236D02*
X029847Y019236D01*
X029847Y019334D02*
X030417Y019334D01*
X030417Y019433D02*
X029847Y019433D01*
X029847Y019531D02*
X030417Y019531D01*
X030417Y019630D02*
X029847Y019630D01*
X029847Y019728D02*
X030417Y019728D01*
X030417Y019827D02*
X029847Y019827D01*
X029814Y019925D02*
X030417Y019925D01*
X030417Y020024D02*
X029773Y020024D01*
X029691Y020122D02*
X030417Y020122D01*
X034397Y023373D02*
X038263Y023373D01*
X038263Y023471D02*
X034475Y023471D01*
X034516Y023570D02*
X038263Y023570D01*
X038263Y023668D02*
X034547Y023668D01*
X034547Y023767D02*
X038263Y023767D01*
X038263Y023865D02*
X034547Y023865D01*
X034547Y023964D02*
X038263Y023964D01*
X038263Y024062D02*
X034547Y024062D01*
X034547Y024161D02*
X038263Y024161D01*
X038263Y024259D02*
X034547Y024259D01*
X034547Y024358D02*
X038263Y024358D01*
X038263Y024456D02*
X034547Y024456D01*
X034547Y024555D02*
X038263Y024555D01*
X038263Y024653D02*
X034544Y024653D01*
X034503Y024752D02*
X038263Y024752D01*
X038263Y024850D02*
X034462Y024850D01*
X034365Y024949D02*
X038263Y024949D01*
X038263Y025047D02*
X034213Y025047D01*
X018937Y010894D02*
X022987Y006844D01*
X023662Y006844D01*
X024112Y006394D01*
X024413Y006726D02*
X024811Y006726D01*
X024909Y006825D02*
X024314Y006825D01*
X024511Y006628D02*
X024712Y006628D01*
X024665Y006529D02*
X024559Y006529D01*
X024559Y006431D02*
X024665Y006431D01*
X024665Y006332D02*
X024559Y006332D01*
X024559Y006234D02*
X024665Y006234D01*
X024739Y006135D02*
X024485Y006135D01*
X025485Y006135D02*
X025739Y006135D01*
X025665Y006234D02*
X025559Y006234D01*
X025559Y006332D02*
X025665Y006332D01*
X025665Y006431D02*
X025559Y006431D01*
X025559Y006529D02*
X025665Y006529D01*
X025712Y006628D02*
X025511Y006628D01*
X025413Y006726D02*
X025811Y006726D01*
X025909Y006825D02*
X025314Y006825D01*
X026314Y006825D02*
X026909Y006825D01*
X026811Y006726D02*
X026413Y006726D01*
X026511Y006628D02*
X026712Y006628D01*
X026665Y006529D02*
X026559Y006529D01*
X026559Y006431D02*
X026665Y006431D01*
X026665Y006332D02*
X026559Y006332D01*
X026559Y006234D02*
X026640Y006234D01*
X026541Y006135D02*
X026485Y006135D01*
X026562Y005844D02*
X020612Y005844D01*
X020244Y005840D02*
X011268Y005840D01*
X011366Y005938D02*
X020244Y005938D01*
X020244Y005741D02*
X011169Y005741D01*
X011103Y005674D02*
X011376Y005947D01*
X011697Y005947D01*
X011959Y006209D01*
X011959Y006580D01*
X011697Y006842D01*
X011326Y006842D01*
X011065Y006580D01*
X011065Y006258D01*
X010921Y006114D01*
X010864Y006114D01*
X010959Y006209D01*
X010959Y006580D01*
X010697Y006842D01*
X010326Y006842D01*
X010065Y006580D01*
X010065Y006209D01*
X010159Y006114D01*
X009228Y006114D01*
X008807Y006536D01*
X008807Y007411D01*
X007457Y008761D01*
X007328Y008889D01*
X006528Y008889D01*
X006157Y009261D01*
X006157Y009414D01*
X006368Y009203D01*
X006755Y009203D01*
X007029Y009476D01*
X007029Y009825D01*
X007217Y010013D01*
X007281Y010077D01*
X007281Y010078D01*
X007282Y010078D01*
X007282Y010169D01*
X007282Y010289D01*
X007368Y010203D01*
X007717Y010203D01*
X008617Y009303D01*
X008617Y008220D01*
X008469Y008072D01*
X008469Y007767D01*
X008684Y007551D01*
X008989Y007551D01*
X009205Y007767D01*
X009205Y008072D01*
X009057Y008220D01*
X009057Y009486D01*
X008029Y010514D01*
X008029Y010863D01*
X007755Y011136D01*
X007368Y011136D01*
X007287Y011055D01*
X007289Y011282D01*
X007368Y011203D01*
X007717Y011203D01*
X009242Y009678D01*
X009242Y007770D01*
X009094Y007622D01*
X009094Y007317D01*
X008807Y007317D01*
X008807Y007219D02*
X009192Y007219D01*
X009094Y007317D02*
X009309Y007101D01*
X009614Y007101D01*
X009830Y007317D01*
X009830Y007622D01*
X009682Y007770D01*
X009682Y009861D01*
X008029Y011514D01*
X008029Y011863D01*
X007755Y012136D01*
X007368Y012136D01*
X007293Y012061D01*
X007295Y012276D01*
X007368Y012203D01*
X007755Y012203D01*
X008002Y012449D01*
X008796Y012449D01*
X010892Y010353D01*
X010892Y007928D01*
X012152Y006668D01*
X012112Y006628D02*
X011911Y006628D01*
X011959Y006529D02*
X012065Y006529D01*
X012065Y006431D02*
X011959Y006431D01*
X011959Y006332D02*
X012065Y006332D01*
X012065Y006234D02*
X011959Y006234D01*
X011885Y006135D02*
X012139Y006135D01*
X012237Y006037D02*
X011786Y006037D01*
X011103Y005674D02*
X009046Y005674D01*
X008496Y006224D01*
X008367Y006353D01*
X008367Y006570D01*
X008304Y006335D01*
X008139Y006049D01*
X007906Y005816D01*
X007620Y005651D01*
X007588Y005643D02*
X020293Y005643D01*
X019837Y006037D02*
X019386Y006037D01*
X019297Y005947D02*
X018926Y005947D01*
X018665Y006209D01*
X018665Y006580D01*
X018926Y006842D01*
X019297Y006842D01*
X019559Y006580D01*
X019559Y006209D01*
X019297Y005947D01*
X019485Y006135D02*
X019739Y006135D01*
X019665Y006234D02*
X019559Y006234D01*
X019559Y006332D02*
X019665Y006332D01*
X019665Y006431D02*
X019559Y006431D01*
X019559Y006529D02*
X019665Y006529D01*
X019712Y006628D02*
X019511Y006628D01*
X019413Y006726D02*
X019811Y006726D01*
X019909Y006825D02*
X019314Y006825D01*
X018909Y006825D02*
X017714Y006825D01*
X017697Y006842D02*
X017959Y006580D01*
X017959Y006209D01*
X017697Y005947D01*
X017326Y005947D01*
X017065Y006209D01*
X017065Y006580D01*
X017326Y006842D01*
X017697Y006842D01*
X017813Y006726D02*
X018811Y006726D01*
X018712Y006628D02*
X017911Y006628D01*
X017959Y006529D02*
X018665Y006529D01*
X018665Y006431D02*
X017959Y006431D01*
X017959Y006332D02*
X018665Y006332D01*
X018665Y006234D02*
X017959Y006234D01*
X017885Y006135D02*
X018739Y006135D01*
X018837Y006037D02*
X017786Y006037D01*
X017237Y006037D02*
X016786Y006037D01*
X016697Y005947D02*
X016326Y005947D01*
X016065Y006209D01*
X016065Y006580D01*
X016326Y006842D01*
X016697Y006842D01*
X016959Y006580D01*
X016959Y006209D01*
X016697Y005947D01*
X016885Y006135D02*
X017139Y006135D01*
X017065Y006234D02*
X016959Y006234D01*
X016959Y006332D02*
X017065Y006332D01*
X017065Y006431D02*
X016959Y006431D01*
X016959Y006529D02*
X017065Y006529D01*
X017112Y006628D02*
X016911Y006628D01*
X016813Y006726D02*
X017211Y006726D01*
X017309Y006825D02*
X016714Y006825D01*
X016309Y006825D02*
X015714Y006825D01*
X015697Y006842D02*
X015326Y006842D01*
X015065Y006580D01*
X015065Y006209D01*
X015326Y005947D01*
X015697Y005947D01*
X015959Y006209D01*
X015959Y006580D01*
X015697Y006842D01*
X015813Y006726D02*
X016211Y006726D01*
X016112Y006628D02*
X015911Y006628D01*
X015959Y006529D02*
X016065Y006529D01*
X016065Y006431D02*
X015959Y006431D01*
X015959Y006332D02*
X016065Y006332D01*
X016065Y006234D02*
X015959Y006234D01*
X015885Y006135D02*
X016139Y006135D01*
X016237Y006037D02*
X015786Y006037D01*
X015237Y006037D02*
X014786Y006037D01*
X014697Y005947D02*
X014959Y006209D01*
X014959Y006580D01*
X014697Y006842D01*
X014326Y006842D01*
X014065Y006580D01*
X014065Y006209D01*
X014326Y005947D01*
X014697Y005947D01*
X014885Y006135D02*
X015139Y006135D01*
X015065Y006234D02*
X014959Y006234D01*
X014959Y006332D02*
X015065Y006332D01*
X015065Y006431D02*
X014959Y006431D01*
X014959Y006529D02*
X015065Y006529D01*
X015112Y006628D02*
X014911Y006628D01*
X014813Y006726D02*
X015211Y006726D01*
X015309Y006825D02*
X014714Y006825D01*
X014309Y006825D02*
X013714Y006825D01*
X013813Y006726D02*
X014211Y006726D01*
X014112Y006628D02*
X013911Y006628D01*
X013959Y006529D02*
X014065Y006529D01*
X014065Y006431D02*
X013959Y006431D01*
X013959Y006332D02*
X014065Y006332D01*
X014065Y006234D02*
X013959Y006234D01*
X013885Y006135D02*
X014139Y006135D01*
X014237Y006037D02*
X013786Y006037D01*
X013512Y006394D02*
X011712Y008194D01*
X011712Y009419D01*
X011453Y009681D02*
X011332Y009681D01*
X011332Y009583D02*
X011354Y009583D01*
X011344Y009484D02*
X011332Y009484D01*
X011332Y009386D02*
X011344Y009386D01*
X011332Y009287D02*
X011344Y009287D01*
X011332Y009189D02*
X011422Y009189D01*
X011492Y009090D02*
X011332Y009090D01*
X011332Y008992D02*
X011492Y008992D01*
X011492Y008893D02*
X011332Y008893D01*
X011332Y008795D02*
X011492Y008795D01*
X011492Y008696D02*
X011332Y008696D01*
X011332Y008598D02*
X011492Y008598D01*
X011492Y008499D02*
X011332Y008499D01*
X011332Y008401D02*
X011492Y008401D01*
X011492Y008302D02*
X011332Y008302D01*
X011332Y008204D02*
X011492Y008204D01*
X011492Y008105D02*
X011337Y008105D01*
X011436Y008007D02*
X011589Y008007D01*
X011534Y007908D02*
X011687Y007908D01*
X011633Y007810D02*
X011786Y007810D01*
X011731Y007711D02*
X011884Y007711D01*
X011830Y007613D02*
X011983Y007613D01*
X011928Y007514D02*
X012081Y007514D01*
X012027Y007416D02*
X012180Y007416D01*
X012125Y007317D02*
X012278Y007317D01*
X012224Y007219D02*
X012377Y007219D01*
X012322Y007120D02*
X012475Y007120D01*
X012421Y007022D02*
X012574Y007022D01*
X012519Y006923D02*
X012672Y006923D01*
X012714Y006825D02*
X012771Y006825D01*
X012813Y006726D02*
X012869Y006726D01*
X012911Y006628D02*
X012968Y006628D01*
X012959Y006529D02*
X013065Y006529D01*
X013065Y006431D02*
X012959Y006431D01*
X012959Y006332D02*
X013065Y006332D01*
X013065Y006234D02*
X012959Y006234D01*
X012885Y006135D02*
X013139Y006135D01*
X013237Y006037D02*
X012786Y006037D01*
X012512Y006394D02*
X012512Y006619D01*
X011112Y008019D01*
X011112Y010444D01*
X008887Y012669D01*
X007562Y012669D01*
X007893Y012341D02*
X008905Y012341D01*
X009003Y012242D02*
X007794Y012242D01*
X007846Y012045D02*
X009200Y012045D01*
X009299Y011947D02*
X007945Y011947D01*
X008029Y011848D02*
X009397Y011848D01*
X009496Y011750D02*
X008029Y011750D01*
X008029Y011651D02*
X009594Y011651D01*
X009693Y011553D02*
X008029Y011553D01*
X008088Y011454D02*
X009791Y011454D01*
X009890Y011356D02*
X008187Y011356D01*
X008285Y011257D02*
X009988Y011257D01*
X010087Y011159D02*
X008384Y011159D01*
X008482Y011060D02*
X010185Y011060D01*
X010284Y010962D02*
X008581Y010962D01*
X008679Y010863D02*
X010382Y010863D01*
X010481Y010765D02*
X008778Y010765D01*
X008876Y010666D02*
X010579Y010666D01*
X010678Y010568D02*
X010409Y010568D01*
X010389Y010588D02*
X010605Y010372D01*
X010605Y010067D01*
X010457Y009919D01*
X010457Y007895D01*
X010605Y007747D01*
X010605Y007442D01*
X010389Y007226D01*
X010084Y007226D01*
X009869Y007442D01*
X009869Y007747D01*
X010017Y007895D01*
X010017Y009919D01*
X009869Y010067D01*
X009869Y010372D01*
X010084Y010588D01*
X010389Y010588D01*
X010508Y010469D02*
X010776Y010469D01*
X010875Y010371D02*
X010605Y010371D01*
X010605Y010272D02*
X010892Y010272D01*
X010892Y010174D02*
X010605Y010174D01*
X010605Y010075D02*
X010892Y010075D01*
X010892Y009977D02*
X010514Y009977D01*
X010457Y009878D02*
X010892Y009878D01*
X010892Y009780D02*
X010457Y009780D01*
X010457Y009681D02*
X010892Y009681D01*
X010892Y009583D02*
X010457Y009583D01*
X010457Y009484D02*
X010892Y009484D01*
X010892Y009386D02*
X010457Y009386D01*
X010457Y009287D02*
X010892Y009287D01*
X010892Y009189D02*
X010457Y009189D01*
X010457Y009090D02*
X010892Y009090D01*
X010892Y008992D02*
X010457Y008992D01*
X010457Y008893D02*
X010892Y008893D01*
X010892Y008795D02*
X010457Y008795D01*
X010457Y008696D02*
X010892Y008696D01*
X010892Y008598D02*
X010457Y008598D01*
X010457Y008499D02*
X010892Y008499D01*
X010892Y008401D02*
X010457Y008401D01*
X010457Y008302D02*
X010892Y008302D01*
X010892Y008204D02*
X010457Y008204D01*
X010457Y008105D02*
X010892Y008105D01*
X010892Y008007D02*
X010457Y008007D01*
X010457Y007908D02*
X010912Y007908D01*
X011011Y007810D02*
X010542Y007810D01*
X010605Y007711D02*
X011109Y007711D01*
X011208Y007613D02*
X010605Y007613D01*
X010605Y007514D02*
X011306Y007514D01*
X011405Y007416D02*
X010578Y007416D01*
X010480Y007317D02*
X011503Y007317D01*
X011602Y007219D02*
X009731Y007219D01*
X009830Y007317D02*
X009994Y007317D01*
X009895Y007416D02*
X009830Y007416D01*
X009830Y007514D02*
X009869Y007514D01*
X009869Y007613D02*
X009830Y007613D01*
X009869Y007711D02*
X009741Y007711D01*
X009682Y007810D02*
X009931Y007810D01*
X010017Y007908D02*
X009682Y007908D01*
X009682Y008007D02*
X010017Y008007D01*
X010017Y008105D02*
X009682Y008105D01*
X009682Y008204D02*
X010017Y008204D01*
X010017Y008302D02*
X009682Y008302D01*
X009682Y008401D02*
X010017Y008401D01*
X010017Y008499D02*
X009682Y008499D01*
X009682Y008598D02*
X010017Y008598D01*
X010017Y008696D02*
X009682Y008696D01*
X009682Y008795D02*
X010017Y008795D01*
X010017Y008893D02*
X009682Y008893D01*
X009682Y008992D02*
X010017Y008992D01*
X010017Y009090D02*
X009682Y009090D01*
X009682Y009189D02*
X010017Y009189D01*
X010017Y009287D02*
X009682Y009287D01*
X009682Y009386D02*
X010017Y009386D01*
X010017Y009484D02*
X009682Y009484D01*
X009682Y009583D02*
X010017Y009583D01*
X010017Y009681D02*
X009682Y009681D01*
X009682Y009780D02*
X010017Y009780D01*
X010017Y009878D02*
X009664Y009878D01*
X009566Y009977D02*
X009959Y009977D01*
X009869Y010075D02*
X009467Y010075D01*
X009369Y010174D02*
X009869Y010174D01*
X009869Y010272D02*
X009270Y010272D01*
X009172Y010371D02*
X009869Y010371D01*
X009966Y010469D02*
X009073Y010469D01*
X008975Y010568D02*
X010064Y010568D01*
X010237Y010219D02*
X010237Y007594D01*
X009633Y007120D02*
X011700Y007120D01*
X011799Y007022D02*
X008807Y007022D01*
X008807Y007120D02*
X009291Y007120D01*
X009094Y007416D02*
X008802Y007416D01*
X008703Y007514D02*
X009094Y007514D01*
X009094Y007613D02*
X009050Y007613D01*
X009149Y007711D02*
X009183Y007711D01*
X009205Y007810D02*
X009242Y007810D01*
X009242Y007908D02*
X009205Y007908D01*
X009205Y008007D02*
X009242Y008007D01*
X009242Y008105D02*
X009172Y008105D01*
X009242Y008204D02*
X009073Y008204D01*
X009057Y008302D02*
X009242Y008302D01*
X009242Y008401D02*
X009057Y008401D01*
X009057Y008499D02*
X009242Y008499D01*
X009242Y008598D02*
X009057Y008598D01*
X009057Y008696D02*
X009242Y008696D01*
X009242Y008795D02*
X009057Y008795D01*
X009057Y008893D02*
X009242Y008893D01*
X009242Y008992D02*
X009057Y008992D01*
X009057Y009090D02*
X009242Y009090D01*
X009242Y009189D02*
X009057Y009189D01*
X009057Y009287D02*
X009242Y009287D01*
X009242Y009386D02*
X009057Y009386D01*
X009057Y009484D02*
X009242Y009484D01*
X009242Y009583D02*
X008960Y009583D01*
X008861Y009681D02*
X009239Y009681D01*
X009141Y009780D02*
X008763Y009780D01*
X008664Y009878D02*
X009042Y009878D01*
X008944Y009977D02*
X008566Y009977D01*
X008467Y010075D02*
X008845Y010075D01*
X008747Y010174D02*
X008369Y010174D01*
X008270Y010272D02*
X008648Y010272D01*
X008550Y010371D02*
X008172Y010371D01*
X008073Y010469D02*
X008451Y010469D01*
X008353Y010568D02*
X008029Y010568D01*
X008029Y010666D02*
X008254Y010666D01*
X008156Y010765D02*
X008029Y010765D01*
X008028Y010863D02*
X008057Y010863D01*
X007959Y010962D02*
X007930Y010962D01*
X007860Y011060D02*
X007831Y011060D01*
X007762Y011159D02*
X007288Y011159D01*
X007288Y011257D02*
X007314Y011257D01*
X007287Y011060D02*
X007292Y011060D01*
X007562Y010669D02*
X008837Y009394D01*
X008837Y007919D01*
X008469Y007908D02*
X008309Y007908D01*
X008211Y008007D02*
X008469Y008007D01*
X008502Y008105D02*
X008112Y008105D01*
X008014Y008204D02*
X008600Y008204D01*
X008617Y008302D02*
X007915Y008302D01*
X007817Y008401D02*
X008617Y008401D01*
X008617Y008499D02*
X007718Y008499D01*
X007620Y008598D02*
X008617Y008598D01*
X008617Y008696D02*
X007521Y008696D01*
X007423Y008795D02*
X008617Y008795D01*
X008617Y008893D02*
X006524Y008893D01*
X006426Y008992D02*
X008617Y008992D01*
X008617Y009090D02*
X006327Y009090D01*
X006229Y009189D02*
X008617Y009189D01*
X008617Y009287D02*
X007839Y009287D01*
X007755Y009203D02*
X008029Y009476D01*
X008029Y009863D01*
X007755Y010136D01*
X007368Y010136D01*
X007095Y009863D01*
X007095Y009476D01*
X007368Y009203D01*
X007755Y009203D01*
X007938Y009386D02*
X008535Y009386D01*
X008436Y009484D02*
X008029Y009484D01*
X008029Y009583D02*
X008338Y009583D01*
X008239Y009681D02*
X008029Y009681D01*
X008029Y009780D02*
X008141Y009780D01*
X008042Y009878D02*
X008013Y009878D01*
X007944Y009977D02*
X007915Y009977D01*
X007845Y010075D02*
X007816Y010075D01*
X007747Y010174D02*
X007282Y010174D01*
X007282Y010272D02*
X007299Y010272D01*
X007307Y010075D02*
X007279Y010075D01*
X007208Y009977D02*
X007180Y009977D01*
X007110Y009878D02*
X007081Y009878D01*
X007095Y009780D02*
X007029Y009780D01*
X007029Y009681D02*
X007095Y009681D01*
X007095Y009583D02*
X007029Y009583D01*
X007029Y009484D02*
X007095Y009484D01*
X007185Y009386D02*
X006938Y009386D01*
X006839Y009287D02*
X007284Y009287D01*
X006562Y009669D02*
X007062Y010169D01*
X007087Y014194D01*
X007115Y014606D02*
X007029Y014606D01*
X007513Y014114D02*
X007610Y014114D01*
X007610Y014015D02*
X007513Y014015D01*
X007513Y013917D02*
X007610Y013917D01*
X007610Y013818D02*
X007513Y013818D01*
X007610Y013718D02*
X007610Y013621D01*
X007610Y013523D02*
X007513Y013523D01*
X007513Y013424D02*
X007610Y013424D01*
X007610Y013326D02*
X007513Y013326D01*
X007513Y013227D02*
X007610Y013227D01*
X007372Y013227D02*
X007301Y013227D01*
X007300Y013129D02*
X007360Y013129D01*
X007991Y012439D02*
X008806Y012439D01*
X009102Y012144D02*
X007294Y012144D01*
X007295Y012242D02*
X007329Y012242D01*
X007562Y011669D02*
X009462Y009769D01*
X009462Y007469D01*
X008623Y007613D02*
X008605Y007613D01*
X008525Y007711D02*
X008506Y007711D01*
X008469Y007810D02*
X008408Y007810D01*
X008807Y006923D02*
X011897Y006923D01*
X011996Y006825D02*
X011714Y006825D01*
X011309Y006825D02*
X010714Y006825D01*
X010813Y006726D02*
X011211Y006726D01*
X011112Y006628D02*
X010911Y006628D01*
X010959Y006529D02*
X011065Y006529D01*
X011065Y006431D02*
X010959Y006431D01*
X010959Y006332D02*
X011065Y006332D01*
X011040Y006234D02*
X010959Y006234D01*
X010941Y006135D02*
X010885Y006135D01*
X010139Y006135D02*
X009207Y006135D01*
X009109Y006234D02*
X010065Y006234D01*
X010065Y006332D02*
X009010Y006332D01*
X008912Y006431D02*
X010065Y006431D01*
X010065Y006529D02*
X008813Y006529D01*
X008807Y006628D02*
X010112Y006628D01*
X010211Y006726D02*
X008807Y006726D01*
X008807Y006825D02*
X010309Y006825D01*
X008979Y005741D02*
X007776Y005741D01*
X007929Y005840D02*
X008881Y005840D01*
X008782Y005938D02*
X008028Y005938D01*
X008126Y006037D02*
X008684Y006037D01*
X008585Y006135D02*
X008188Y006135D01*
X008245Y006234D02*
X008487Y006234D01*
X008388Y006332D02*
X008302Y006332D01*
X008329Y006431D02*
X008367Y006431D01*
X008356Y006529D02*
X008367Y006529D01*
X006284Y009287D02*
X006157Y009287D01*
X006157Y009386D02*
X006185Y009386D01*
X012234Y010669D02*
X018837Y010669D01*
X023112Y006394D01*
X022665Y006431D02*
X022559Y006431D01*
X022559Y006529D02*
X022665Y006529D01*
X022568Y006628D02*
X022511Y006628D01*
X022469Y006726D02*
X022413Y006726D01*
X022371Y006825D02*
X022314Y006825D01*
X022272Y006923D02*
X013294Y006923D01*
X013196Y007022D02*
X022174Y007022D01*
X022075Y007120D02*
X013097Y007120D01*
X012999Y007219D02*
X021977Y007219D01*
X021878Y007317D02*
X012900Y007317D01*
X012802Y007416D02*
X021780Y007416D01*
X021681Y007514D02*
X012703Y007514D01*
X015937Y010894D02*
X018937Y010894D01*
X019157Y009977D02*
X019219Y009977D01*
X019317Y009878D02*
X019118Y009878D01*
X019020Y009780D02*
X019416Y009780D01*
X019514Y009681D02*
X018921Y009681D01*
X018938Y008992D02*
X020204Y008992D01*
X020302Y008893D02*
X019036Y008893D01*
X019101Y008795D02*
X020401Y008795D01*
X020499Y008696D02*
X019142Y008696D01*
X019157Y008598D02*
X020598Y008598D01*
X020696Y008499D02*
X019157Y008499D01*
X019135Y008401D02*
X020795Y008401D01*
X020893Y008302D02*
X019094Y008302D01*
X019018Y008204D02*
X020992Y008204D01*
X021090Y008105D02*
X018904Y008105D01*
X020314Y006825D02*
X020909Y006825D01*
X020811Y006726D02*
X020413Y006726D01*
X020511Y006628D02*
X020712Y006628D01*
X020665Y006529D02*
X020559Y006529D01*
X020559Y006431D02*
X020665Y006431D01*
X020665Y006332D02*
X020559Y006332D01*
X020559Y006234D02*
X020665Y006234D01*
X021485Y006135D02*
X021739Y006135D01*
X021665Y006234D02*
X021559Y006234D01*
X021559Y006332D02*
X021665Y006332D01*
X021665Y006431D02*
X021559Y006431D01*
X021559Y006529D02*
X021665Y006529D01*
X021712Y006628D02*
X021511Y006628D01*
X021413Y006726D02*
X021811Y006726D01*
X021909Y006825D02*
X021314Y006825D01*
X022559Y006332D02*
X022665Y006332D01*
X022665Y006234D02*
X022559Y006234D01*
X022485Y006135D02*
X022739Y006135D01*
X026562Y005844D02*
X027112Y006394D01*
X027413Y006726D02*
X027811Y006726D01*
X027909Y006825D02*
X027314Y006825D01*
X027511Y006628D02*
X027712Y006628D01*
X027665Y006529D02*
X027559Y006529D01*
X027559Y006431D02*
X027665Y006431D01*
X027665Y006332D02*
X027559Y006332D01*
X027559Y006234D02*
X027665Y006234D01*
X027739Y006135D02*
X027485Y006135D01*
X027386Y006037D02*
X027837Y006037D01*
X028386Y006037D02*
X030004Y006037D01*
X030004Y006135D02*
X028485Y006135D01*
X028559Y006234D02*
X030004Y006234D01*
X030004Y006332D02*
X028559Y006332D01*
X028559Y006431D02*
X030084Y006431D01*
X030004Y005938D02*
X026966Y005938D01*
X026868Y005840D02*
X030053Y005840D01*
X030152Y005741D02*
X026769Y005741D01*
X026671Y005643D02*
X036607Y005643D01*
X036419Y005741D02*
X035534Y005741D01*
X035632Y005840D02*
X036265Y005840D01*
X036167Y005938D02*
X035682Y005938D01*
X035682Y006037D02*
X036068Y006037D01*
X036006Y006135D02*
X035682Y006135D01*
X035682Y006234D02*
X035949Y006234D01*
X035892Y006332D02*
X035682Y006332D01*
X035602Y006431D02*
X035865Y006431D01*
X035838Y006529D02*
X035503Y006529D01*
X035567Y006574D02*
X035682Y006689D01*
X035682Y007301D01*
X035567Y007415D01*
X035406Y007415D01*
X035106Y007415D01*
X034185Y007415D01*
X034071Y007301D01*
X034071Y007064D01*
X034178Y006957D01*
X034071Y006850D01*
X034071Y006689D01*
X034185Y006574D01*
X035567Y006574D01*
X035620Y006628D02*
X035812Y006628D01*
X035805Y006726D02*
X035682Y006726D01*
X035682Y006825D02*
X035805Y006825D01*
X035805Y006923D02*
X035682Y006923D01*
X035682Y007022D02*
X035815Y007022D01*
X035842Y007120D02*
X035682Y007120D01*
X035682Y007219D02*
X035868Y007219D01*
X035899Y007317D02*
X035665Y007317D01*
X035170Y006529D02*
X035043Y006529D01*
X034709Y006529D02*
X034339Y006529D01*
X034443Y006431D02*
X034611Y006431D01*
X034531Y006332D02*
X034509Y006332D01*
X034190Y006529D02*
X034122Y006529D01*
X034132Y006628D02*
X033779Y006628D01*
X033789Y006529D02*
X033662Y006529D01*
X033511Y006628D02*
X033243Y006628D01*
X033328Y006529D02*
X033126Y006529D01*
X033225Y006431D02*
X033230Y006431D01*
X032943Y006529D02*
X032816Y006529D01*
X032826Y006628D02*
X032783Y006628D01*
X033840Y006726D02*
X034071Y006726D01*
X034071Y006825D02*
X033840Y006825D01*
X033840Y006923D02*
X034143Y006923D01*
X034113Y007022D02*
X033840Y007022D01*
X033840Y007120D02*
X034071Y007120D01*
X034071Y007219D02*
X033840Y007219D01*
X033824Y007317D02*
X034087Y007317D01*
X034301Y005938D02*
X034303Y005938D01*
X034301Y005840D02*
X034368Y005840D01*
X034434Y005741D02*
X034228Y005741D01*
X031625Y007317D02*
X030604Y007317D01*
X031088Y007219D02*
X031144Y007219D01*
X030612Y005741D02*
X030546Y005741D01*
X037464Y008007D02*
X038263Y008007D01*
X038263Y007908D02*
X037676Y007908D01*
X037838Y007810D02*
X038263Y007810D01*
X038263Y007711D02*
X037937Y007711D01*
X038035Y007613D02*
X038263Y007613D01*
X038263Y007514D02*
X038103Y007514D01*
X038160Y007416D02*
X038263Y007416D01*
X038263Y007317D02*
X038216Y007317D01*
X038247Y007219D02*
X038263Y007219D01*
X015937Y010894D02*
X014612Y012219D01*
X007513Y015690D02*
X007029Y015690D01*
X007029Y015788D02*
X007115Y015788D01*
X007090Y015887D02*
X007147Y015887D01*
X007115Y015591D02*
X007029Y015591D01*
X007029Y015493D02*
X007115Y015493D01*
X007205Y015394D02*
X006946Y015394D01*
X006848Y015296D02*
X007304Y015296D01*
D26*
X026374Y028717D02*
X026371Y028627D01*
X026371Y028628D02*
X026338Y028626D01*
X026306Y028621D01*
X026274Y028612D01*
X026243Y028599D01*
X026215Y028582D01*
X026188Y028562D01*
X026164Y028540D01*
X026143Y028514D01*
X026125Y028486D01*
X026110Y028457D01*
X026099Y028426D01*
X026092Y028393D01*
X026088Y028360D01*
X026089Y028327D01*
X026093Y028294D01*
X026101Y028262D01*
X026114Y028231D01*
X026129Y028202D01*
X026148Y028175D01*
X026170Y028150D01*
X026195Y028128D01*
X026222Y028109D01*
X026251Y028094D01*
X026282Y028081D01*
X026314Y028073D01*
X026347Y028069D01*
X026380Y028068D01*
X026413Y028072D01*
X026446Y028079D01*
X026477Y028090D01*
X026506Y028105D01*
X026534Y028123D01*
X026560Y028144D01*
X026582Y028168D01*
X026602Y028195D01*
X026619Y028223D01*
X026632Y028254D01*
X026641Y028286D01*
X026646Y028318D01*
X026648Y028351D01*
X026737Y028354D01*
X026738Y028354D01*
X026737Y028317D01*
X026732Y028280D01*
X026723Y028244D01*
X026711Y028208D01*
X026695Y028174D01*
X026676Y028142D01*
X026653Y028112D01*
X026628Y028085D01*
X026600Y028060D01*
X026570Y028038D01*
X026538Y028019D01*
X026504Y028004D01*
X026468Y027992D01*
X026432Y027984D01*
X026395Y027979D01*
X026358Y027978D01*
X026320Y027981D01*
X026284Y027988D01*
X026248Y027998D01*
X026213Y028012D01*
X026180Y028029D01*
X026149Y028050D01*
X026120Y028074D01*
X026094Y028100D01*
X026070Y028129D01*
X026049Y028160D01*
X026032Y028193D01*
X026018Y028228D01*
X026008Y028264D01*
X026001Y028300D01*
X025998Y028338D01*
X025999Y028375D01*
X026004Y028412D01*
X026012Y028448D01*
X026024Y028484D01*
X026039Y028518D01*
X026058Y028550D01*
X026080Y028580D01*
X026105Y028608D01*
X026132Y028633D01*
X026162Y028656D01*
X026194Y028675D01*
X026228Y028691D01*
X026264Y028703D01*
X026300Y028712D01*
X026337Y028717D01*
X026374Y028718D01*
X026374Y028709D01*
X026337Y028708D01*
X026300Y028703D01*
X026264Y028694D01*
X026229Y028681D01*
X026195Y028665D01*
X026163Y028645D01*
X026134Y028623D01*
X026107Y028597D01*
X026083Y028569D01*
X026061Y028538D01*
X026043Y028506D01*
X026029Y028472D01*
X026018Y028436D01*
X026011Y028399D01*
X026007Y028362D01*
X026008Y028325D01*
X026012Y028288D01*
X026020Y028252D01*
X026032Y028217D01*
X026047Y028183D01*
X026066Y028150D01*
X026088Y028120D01*
X026113Y028093D01*
X026140Y028068D01*
X026170Y028046D01*
X026203Y028027D01*
X026237Y028012D01*
X026272Y028000D01*
X026308Y027992D01*
X026345Y027988D01*
X026382Y027987D01*
X026419Y027991D01*
X026456Y027998D01*
X026492Y028009D01*
X026526Y028023D01*
X026558Y028041D01*
X026589Y028063D01*
X026617Y028087D01*
X026643Y028114D01*
X026665Y028143D01*
X026685Y028175D01*
X026701Y028209D01*
X026714Y028244D01*
X026723Y028280D01*
X026728Y028317D01*
X026729Y028354D01*
X026720Y028354D01*
X026719Y028317D01*
X026713Y028280D01*
X026704Y028244D01*
X026691Y028209D01*
X026675Y028176D01*
X026655Y028144D01*
X026632Y028115D01*
X026606Y028089D01*
X026578Y028065D01*
X026547Y028045D01*
X026514Y028028D01*
X026479Y028014D01*
X026444Y028004D01*
X026407Y027998D01*
X026370Y027996D01*
X026333Y027998D01*
X026296Y028003D01*
X026260Y028013D01*
X026226Y028026D01*
X026193Y028043D01*
X026161Y028063D01*
X026133Y028086D01*
X026106Y028113D01*
X026083Y028141D01*
X026063Y028173D01*
X026046Y028206D01*
X026033Y028240D01*
X026023Y028276D01*
X026018Y028313D01*
X026016Y028350D01*
X026018Y028387D01*
X026024Y028424D01*
X026034Y028459D01*
X026048Y028494D01*
X026065Y028527D01*
X026085Y028558D01*
X026109Y028586D01*
X026135Y028612D01*
X026164Y028635D01*
X026196Y028655D01*
X026229Y028671D01*
X026264Y028684D01*
X026300Y028693D01*
X026337Y028699D01*
X026374Y028700D01*
X026373Y028691D01*
X026337Y028690D01*
X026301Y028684D01*
X026266Y028676D01*
X026233Y028663D01*
X026200Y028647D01*
X026170Y028628D01*
X026141Y028605D01*
X026115Y028580D01*
X026092Y028552D01*
X026072Y028522D01*
X026056Y028490D01*
X026043Y028456D01*
X026033Y028422D01*
X026027Y028386D01*
X026025Y028350D01*
X026027Y028314D01*
X026032Y028278D01*
X026041Y028243D01*
X026054Y028209D01*
X026071Y028177D01*
X026090Y028147D01*
X026113Y028119D01*
X026139Y028093D01*
X026167Y028070D01*
X026197Y028051D01*
X026229Y028034D01*
X026263Y028021D01*
X026298Y028012D01*
X026334Y028007D01*
X026370Y028005D01*
X026406Y028007D01*
X026442Y028013D01*
X026476Y028023D01*
X026510Y028036D01*
X026542Y028052D01*
X026572Y028072D01*
X026600Y028095D01*
X026625Y028121D01*
X026648Y028150D01*
X026667Y028180D01*
X026683Y028213D01*
X026696Y028246D01*
X026704Y028281D01*
X026710Y028317D01*
X026711Y028353D01*
X026702Y028353D01*
X026701Y028317D01*
X026695Y028282D01*
X026686Y028247D01*
X026674Y028213D01*
X026657Y028181D01*
X026638Y028151D01*
X026615Y028123D01*
X026589Y028098D01*
X026561Y028075D01*
X026531Y028056D01*
X026498Y028040D01*
X026464Y028028D01*
X026429Y028020D01*
X026394Y028015D01*
X026358Y028014D01*
X026322Y028017D01*
X026287Y028024D01*
X026252Y028035D01*
X026219Y028049D01*
X026188Y028067D01*
X026159Y028088D01*
X026132Y028112D01*
X026108Y028139D01*
X026087Y028168D01*
X026069Y028199D01*
X026055Y028232D01*
X026044Y028267D01*
X026037Y028302D01*
X026034Y028338D01*
X026035Y028374D01*
X026040Y028409D01*
X026048Y028444D01*
X026060Y028478D01*
X026076Y028511D01*
X026095Y028541D01*
X026118Y028569D01*
X026143Y028595D01*
X026171Y028618D01*
X026201Y028637D01*
X026233Y028654D01*
X026267Y028666D01*
X026302Y028675D01*
X026337Y028681D01*
X026373Y028682D01*
X026373Y028673D01*
X026338Y028672D01*
X026303Y028666D01*
X026269Y028658D01*
X026237Y028645D01*
X026205Y028629D01*
X026176Y028610D01*
X026149Y028588D01*
X026124Y028563D01*
X026103Y028536D01*
X026084Y028506D01*
X026069Y028475D01*
X026057Y028442D01*
X026049Y028408D01*
X026044Y028373D01*
X026043Y028338D01*
X026046Y028303D01*
X026053Y028269D01*
X026063Y028235D01*
X026077Y028203D01*
X026094Y028173D01*
X026115Y028144D01*
X026138Y028118D01*
X026164Y028095D01*
X026193Y028074D01*
X026223Y028057D01*
X026255Y028043D01*
X026289Y028033D01*
X026323Y028026D01*
X026358Y028023D01*
X026393Y028024D01*
X026428Y028029D01*
X026462Y028037D01*
X026495Y028049D01*
X026526Y028064D01*
X026556Y028083D01*
X026583Y028104D01*
X026608Y028129D01*
X026630Y028156D01*
X026649Y028185D01*
X026665Y028217D01*
X026678Y028249D01*
X026686Y028283D01*
X026692Y028318D01*
X026693Y028353D01*
X026684Y028353D01*
X026683Y028318D01*
X026677Y028283D01*
X026668Y028250D01*
X026656Y028217D01*
X026640Y028186D01*
X026620Y028157D01*
X026598Y028131D01*
X026572Y028107D01*
X026545Y028086D01*
X026515Y028068D01*
X026483Y028054D01*
X026450Y028043D01*
X026416Y028036D01*
X026381Y028032D01*
X026346Y028033D01*
X026312Y028037D01*
X026278Y028045D01*
X026245Y028057D01*
X026214Y028072D01*
X026184Y028091D01*
X026157Y028113D01*
X026133Y028137D01*
X026111Y028164D01*
X026092Y028194D01*
X026077Y028225D01*
X026065Y028258D01*
X026057Y028292D01*
X026053Y028326D01*
X026052Y028361D01*
X026056Y028396D01*
X026063Y028430D01*
X026074Y028463D01*
X026088Y028495D01*
X026106Y028525D01*
X026127Y028552D01*
X026151Y028578D01*
X026177Y028600D01*
X026206Y028620D01*
X026237Y028636D01*
X026270Y028648D01*
X026303Y028657D01*
X026338Y028663D01*
X026373Y028664D01*
X026372Y028655D01*
X026339Y028654D01*
X026305Y028648D01*
X026272Y028640D01*
X026241Y028627D01*
X026211Y028612D01*
X026183Y028593D01*
X026157Y028571D01*
X026134Y028546D01*
X026113Y028519D01*
X026096Y028490D01*
X026082Y028460D01*
X026071Y028427D01*
X026065Y028394D01*
X026061Y028361D01*
X026062Y028327D01*
X026066Y028293D01*
X026074Y028260D01*
X026085Y028229D01*
X026100Y028198D01*
X026118Y028170D01*
X026139Y028143D01*
X026163Y028119D01*
X026190Y028098D01*
X026218Y028080D01*
X026249Y028065D01*
X026280Y028054D01*
X026313Y028046D01*
X026347Y028042D01*
X026381Y028041D01*
X026414Y028045D01*
X026447Y028051D01*
X026480Y028062D01*
X026510Y028076D01*
X026539Y028093D01*
X026566Y028114D01*
X026591Y028137D01*
X026613Y028163D01*
X026632Y028191D01*
X026647Y028221D01*
X026660Y028252D01*
X026668Y028285D01*
X026674Y028319D01*
X026675Y028352D01*
X026666Y028352D01*
X026665Y028318D01*
X026659Y028285D01*
X026650Y028253D01*
X026638Y028222D01*
X026622Y028192D01*
X026603Y028164D01*
X026581Y028139D01*
X026556Y028117D01*
X026528Y028097D01*
X026499Y028080D01*
X026468Y028067D01*
X026436Y028058D01*
X026403Y028052D01*
X026369Y028050D01*
X026336Y028052D01*
X026303Y028057D01*
X026270Y028066D01*
X026239Y028079D01*
X026210Y028095D01*
X026182Y028115D01*
X026157Y028137D01*
X026135Y028162D01*
X026115Y028190D01*
X026099Y028219D01*
X026086Y028250D01*
X026077Y028283D01*
X026072Y028316D01*
X026070Y028349D01*
X026072Y028383D01*
X026078Y028416D01*
X026087Y028448D01*
X026100Y028479D01*
X026117Y028508D01*
X026137Y028536D01*
X026159Y028561D01*
X026184Y028583D01*
X026212Y028602D01*
X026242Y028618D01*
X026273Y028630D01*
X026305Y028639D01*
X026338Y028645D01*
X026372Y028646D01*
X026372Y028637D01*
X026338Y028635D01*
X026305Y028630D01*
X026273Y028621D01*
X026242Y028608D01*
X026213Y028592D01*
X026186Y028573D01*
X026161Y028550D01*
X026140Y028525D01*
X026121Y028497D01*
X026105Y028468D01*
X026093Y028437D01*
X026085Y028405D01*
X026080Y028371D01*
X026079Y028338D01*
X026082Y028305D01*
X026089Y028272D01*
X026100Y028241D01*
X026114Y028210D01*
X026131Y028182D01*
X026152Y028156D01*
X026176Y028132D01*
X026202Y028111D01*
X026230Y028094D01*
X026261Y028080D01*
X026292Y028069D01*
X026325Y028062D01*
X026358Y028059D01*
X026391Y028060D01*
X026425Y028065D01*
X026457Y028073D01*
X026488Y028085D01*
X026517Y028101D01*
X026545Y028120D01*
X026570Y028141D01*
X026593Y028166D01*
X026612Y028193D01*
X026628Y028222D01*
X026641Y028253D01*
X026650Y028285D01*
X026655Y028318D01*
X026657Y028352D01*
X026845Y028354D02*
X026935Y028351D01*
X026934Y028351D02*
X026936Y028318D01*
X026941Y028286D01*
X026950Y028254D01*
X026963Y028223D01*
X026980Y028195D01*
X027000Y028168D01*
X027022Y028144D01*
X027048Y028123D01*
X027076Y028105D01*
X027105Y028090D01*
X027136Y028079D01*
X027169Y028072D01*
X027202Y028068D01*
X027235Y028069D01*
X027268Y028073D01*
X027300Y028081D01*
X027331Y028094D01*
X027360Y028109D01*
X027387Y028128D01*
X027412Y028150D01*
X027434Y028175D01*
X027453Y028202D01*
X027468Y028231D01*
X027481Y028262D01*
X027489Y028294D01*
X027493Y028327D01*
X027494Y028360D01*
X027490Y028393D01*
X027483Y028426D01*
X027472Y028457D01*
X027457Y028486D01*
X027439Y028514D01*
X027418Y028540D01*
X027394Y028562D01*
X027367Y028582D01*
X027339Y028599D01*
X027308Y028612D01*
X027276Y028621D01*
X027244Y028626D01*
X027211Y028628D01*
X027208Y028717D01*
X027208Y028718D01*
X027245Y028717D01*
X027282Y028712D01*
X027318Y028703D01*
X027354Y028691D01*
X027388Y028675D01*
X027420Y028656D01*
X027450Y028633D01*
X027477Y028608D01*
X027502Y028580D01*
X027524Y028550D01*
X027543Y028518D01*
X027558Y028484D01*
X027570Y028448D01*
X027578Y028412D01*
X027583Y028375D01*
X027584Y028338D01*
X027581Y028300D01*
X027574Y028264D01*
X027564Y028228D01*
X027550Y028193D01*
X027533Y028160D01*
X027512Y028129D01*
X027488Y028100D01*
X027462Y028074D01*
X027433Y028050D01*
X027402Y028029D01*
X027369Y028012D01*
X027334Y027998D01*
X027298Y027988D01*
X027262Y027981D01*
X027224Y027978D01*
X027187Y027979D01*
X027150Y027984D01*
X027114Y027992D01*
X027078Y028004D01*
X027044Y028019D01*
X027012Y028038D01*
X026982Y028060D01*
X026954Y028085D01*
X026929Y028112D01*
X026906Y028142D01*
X026887Y028174D01*
X026871Y028208D01*
X026859Y028244D01*
X026850Y028280D01*
X026845Y028317D01*
X026844Y028354D01*
X026853Y028354D01*
X026854Y028317D01*
X026859Y028280D01*
X026868Y028244D01*
X026881Y028209D01*
X026897Y028175D01*
X026917Y028143D01*
X026939Y028114D01*
X026965Y028087D01*
X026993Y028063D01*
X027024Y028041D01*
X027056Y028023D01*
X027090Y028009D01*
X027126Y027998D01*
X027163Y027991D01*
X027200Y027987D01*
X027237Y027988D01*
X027274Y027992D01*
X027310Y028000D01*
X027345Y028012D01*
X027379Y028027D01*
X027412Y028046D01*
X027442Y028068D01*
X027469Y028093D01*
X027494Y028120D01*
X027516Y028150D01*
X027535Y028183D01*
X027550Y028217D01*
X027562Y028252D01*
X027570Y028288D01*
X027574Y028325D01*
X027575Y028362D01*
X027571Y028399D01*
X027564Y028436D01*
X027553Y028472D01*
X027539Y028506D01*
X027521Y028538D01*
X027499Y028569D01*
X027475Y028597D01*
X027448Y028623D01*
X027419Y028645D01*
X027387Y028665D01*
X027353Y028681D01*
X027318Y028694D01*
X027282Y028703D01*
X027245Y028708D01*
X027208Y028709D01*
X027208Y028700D01*
X027245Y028699D01*
X027282Y028693D01*
X027318Y028684D01*
X027353Y028671D01*
X027386Y028655D01*
X027418Y028635D01*
X027447Y028612D01*
X027473Y028586D01*
X027497Y028558D01*
X027517Y028527D01*
X027534Y028494D01*
X027548Y028459D01*
X027558Y028424D01*
X027564Y028387D01*
X027566Y028350D01*
X027564Y028313D01*
X027559Y028276D01*
X027549Y028240D01*
X027536Y028206D01*
X027519Y028173D01*
X027499Y028141D01*
X027476Y028113D01*
X027449Y028086D01*
X027421Y028063D01*
X027389Y028043D01*
X027356Y028026D01*
X027322Y028013D01*
X027286Y028003D01*
X027249Y027998D01*
X027212Y027996D01*
X027175Y027998D01*
X027138Y028004D01*
X027103Y028014D01*
X027068Y028028D01*
X027035Y028045D01*
X027004Y028065D01*
X026976Y028089D01*
X026950Y028115D01*
X026927Y028144D01*
X026907Y028176D01*
X026891Y028209D01*
X026878Y028244D01*
X026869Y028280D01*
X026863Y028317D01*
X026862Y028354D01*
X026871Y028353D01*
X026872Y028317D01*
X026878Y028281D01*
X026886Y028246D01*
X026899Y028213D01*
X026915Y028180D01*
X026934Y028150D01*
X026957Y028121D01*
X026982Y028095D01*
X027010Y028072D01*
X027040Y028052D01*
X027072Y028036D01*
X027106Y028023D01*
X027140Y028013D01*
X027176Y028007D01*
X027212Y028005D01*
X027248Y028007D01*
X027284Y028012D01*
X027319Y028021D01*
X027353Y028034D01*
X027385Y028051D01*
X027415Y028070D01*
X027443Y028093D01*
X027469Y028119D01*
X027492Y028147D01*
X027511Y028177D01*
X027528Y028209D01*
X027541Y028243D01*
X027550Y028278D01*
X027555Y028314D01*
X027557Y028350D01*
X027555Y028386D01*
X027549Y028422D01*
X027539Y028456D01*
X027526Y028490D01*
X027510Y028522D01*
X027490Y028552D01*
X027467Y028580D01*
X027441Y028605D01*
X027412Y028628D01*
X027382Y028647D01*
X027349Y028663D01*
X027316Y028676D01*
X027281Y028684D01*
X027245Y028690D01*
X027209Y028691D01*
X027209Y028682D01*
X027245Y028681D01*
X027280Y028675D01*
X027315Y028666D01*
X027349Y028654D01*
X027381Y028637D01*
X027411Y028618D01*
X027439Y028595D01*
X027464Y028569D01*
X027487Y028541D01*
X027506Y028511D01*
X027522Y028478D01*
X027534Y028444D01*
X027542Y028409D01*
X027547Y028374D01*
X027548Y028338D01*
X027545Y028302D01*
X027538Y028267D01*
X027527Y028232D01*
X027513Y028199D01*
X027495Y028168D01*
X027474Y028139D01*
X027450Y028112D01*
X027423Y028088D01*
X027394Y028067D01*
X027363Y028049D01*
X027330Y028035D01*
X027295Y028024D01*
X027260Y028017D01*
X027224Y028014D01*
X027188Y028015D01*
X027153Y028020D01*
X027118Y028028D01*
X027084Y028040D01*
X027051Y028056D01*
X027021Y028075D01*
X026993Y028098D01*
X026967Y028123D01*
X026944Y028151D01*
X026925Y028181D01*
X026908Y028213D01*
X026896Y028247D01*
X026887Y028282D01*
X026881Y028317D01*
X026880Y028353D01*
X026889Y028353D01*
X026890Y028318D01*
X026896Y028283D01*
X026904Y028249D01*
X026917Y028217D01*
X026933Y028185D01*
X026952Y028156D01*
X026974Y028129D01*
X026999Y028104D01*
X027026Y028083D01*
X027056Y028064D01*
X027087Y028049D01*
X027120Y028037D01*
X027154Y028029D01*
X027189Y028024D01*
X027224Y028023D01*
X027259Y028026D01*
X027293Y028033D01*
X027327Y028043D01*
X027359Y028057D01*
X027389Y028074D01*
X027418Y028095D01*
X027444Y028118D01*
X027467Y028144D01*
X027488Y028173D01*
X027505Y028203D01*
X027519Y028235D01*
X027529Y028269D01*
X027536Y028303D01*
X027539Y028338D01*
X027538Y028373D01*
X027533Y028408D01*
X027525Y028442D01*
X027513Y028475D01*
X027498Y028506D01*
X027479Y028536D01*
X027458Y028563D01*
X027433Y028588D01*
X027406Y028610D01*
X027377Y028629D01*
X027345Y028645D01*
X027313Y028658D01*
X027279Y028666D01*
X027244Y028672D01*
X027209Y028673D01*
X027209Y028664D01*
X027244Y028663D01*
X027279Y028657D01*
X027312Y028648D01*
X027345Y028636D01*
X027376Y028620D01*
X027405Y028600D01*
X027431Y028578D01*
X027455Y028552D01*
X027476Y028525D01*
X027494Y028495D01*
X027508Y028463D01*
X027519Y028430D01*
X027526Y028396D01*
X027530Y028361D01*
X027529Y028326D01*
X027525Y028292D01*
X027517Y028258D01*
X027505Y028225D01*
X027490Y028194D01*
X027471Y028164D01*
X027449Y028137D01*
X027425Y028113D01*
X027398Y028091D01*
X027368Y028072D01*
X027337Y028057D01*
X027304Y028045D01*
X027270Y028037D01*
X027236Y028033D01*
X027201Y028032D01*
X027166Y028036D01*
X027132Y028043D01*
X027099Y028054D01*
X027067Y028068D01*
X027037Y028086D01*
X027010Y028107D01*
X026984Y028131D01*
X026962Y028157D01*
X026942Y028186D01*
X026926Y028217D01*
X026914Y028250D01*
X026905Y028283D01*
X026899Y028318D01*
X026898Y028353D01*
X026907Y028352D01*
X026908Y028319D01*
X026914Y028285D01*
X026922Y028252D01*
X026935Y028221D01*
X026950Y028191D01*
X026969Y028163D01*
X026991Y028137D01*
X027016Y028114D01*
X027043Y028093D01*
X027072Y028076D01*
X027102Y028062D01*
X027135Y028051D01*
X027168Y028045D01*
X027201Y028041D01*
X027235Y028042D01*
X027269Y028046D01*
X027302Y028054D01*
X027333Y028065D01*
X027364Y028080D01*
X027392Y028098D01*
X027419Y028119D01*
X027443Y028143D01*
X027464Y028170D01*
X027482Y028198D01*
X027497Y028229D01*
X027508Y028260D01*
X027516Y028293D01*
X027520Y028327D01*
X027521Y028361D01*
X027517Y028394D01*
X027511Y028427D01*
X027500Y028460D01*
X027486Y028490D01*
X027469Y028519D01*
X027448Y028546D01*
X027425Y028571D01*
X027399Y028593D01*
X027371Y028612D01*
X027341Y028627D01*
X027310Y028640D01*
X027277Y028648D01*
X027243Y028654D01*
X027210Y028655D01*
X027210Y028646D01*
X027244Y028645D01*
X027277Y028639D01*
X027309Y028630D01*
X027340Y028618D01*
X027370Y028602D01*
X027398Y028583D01*
X027423Y028561D01*
X027445Y028536D01*
X027465Y028508D01*
X027482Y028479D01*
X027495Y028448D01*
X027504Y028416D01*
X027510Y028383D01*
X027512Y028349D01*
X027510Y028316D01*
X027505Y028283D01*
X027496Y028250D01*
X027483Y028219D01*
X027467Y028190D01*
X027447Y028162D01*
X027425Y028137D01*
X027400Y028115D01*
X027372Y028095D01*
X027343Y028079D01*
X027312Y028066D01*
X027279Y028057D01*
X027246Y028052D01*
X027213Y028050D01*
X027179Y028052D01*
X027146Y028058D01*
X027114Y028067D01*
X027083Y028080D01*
X027054Y028097D01*
X027026Y028117D01*
X027001Y028139D01*
X026979Y028164D01*
X026960Y028192D01*
X026944Y028222D01*
X026932Y028253D01*
X026923Y028285D01*
X026917Y028318D01*
X026916Y028352D01*
X026925Y028352D01*
X026927Y028318D01*
X026932Y028285D01*
X026941Y028253D01*
X026954Y028222D01*
X026970Y028193D01*
X026989Y028166D01*
X027012Y028141D01*
X027037Y028120D01*
X027065Y028101D01*
X027094Y028085D01*
X027125Y028073D01*
X027157Y028065D01*
X027191Y028060D01*
X027224Y028059D01*
X027257Y028062D01*
X027290Y028069D01*
X027321Y028080D01*
X027352Y028094D01*
X027380Y028111D01*
X027406Y028132D01*
X027430Y028156D01*
X027451Y028182D01*
X027468Y028210D01*
X027482Y028241D01*
X027493Y028272D01*
X027500Y028305D01*
X027503Y028338D01*
X027502Y028371D01*
X027497Y028405D01*
X027489Y028437D01*
X027477Y028468D01*
X027461Y028497D01*
X027442Y028525D01*
X027421Y028550D01*
X027396Y028573D01*
X027369Y028592D01*
X027340Y028608D01*
X027309Y028621D01*
X027277Y028630D01*
X027244Y028635D01*
X027210Y028637D01*
X027208Y028786D02*
X027211Y028876D01*
X027211Y028875D02*
X027244Y028877D01*
X027276Y028882D01*
X027308Y028891D01*
X027339Y028904D01*
X027367Y028921D01*
X027394Y028941D01*
X027418Y028963D01*
X027439Y028989D01*
X027457Y029017D01*
X027472Y029046D01*
X027483Y029077D01*
X027490Y029110D01*
X027494Y029143D01*
X027493Y029176D01*
X027489Y029209D01*
X027481Y029241D01*
X027468Y029272D01*
X027453Y029301D01*
X027434Y029328D01*
X027412Y029353D01*
X027387Y029375D01*
X027360Y029394D01*
X027331Y029409D01*
X027300Y029422D01*
X027268Y029430D01*
X027235Y029434D01*
X027202Y029435D01*
X027169Y029431D01*
X027136Y029424D01*
X027105Y029413D01*
X027076Y029398D01*
X027048Y029380D01*
X027022Y029359D01*
X027000Y029335D01*
X026980Y029308D01*
X026963Y029280D01*
X026950Y029249D01*
X026941Y029217D01*
X026936Y029185D01*
X026934Y029152D01*
X026845Y029149D01*
X026844Y029149D01*
X026845Y029186D01*
X026850Y029223D01*
X026859Y029259D01*
X026871Y029295D01*
X026887Y029329D01*
X026906Y029361D01*
X026929Y029391D01*
X026954Y029418D01*
X026982Y029443D01*
X027012Y029465D01*
X027044Y029484D01*
X027078Y029499D01*
X027114Y029511D01*
X027150Y029519D01*
X027187Y029524D01*
X027224Y029525D01*
X027262Y029522D01*
X027298Y029515D01*
X027334Y029505D01*
X027369Y029491D01*
X027402Y029474D01*
X027433Y029453D01*
X027462Y029429D01*
X027488Y029403D01*
X027512Y029374D01*
X027533Y029343D01*
X027550Y029310D01*
X027564Y029275D01*
X027574Y029239D01*
X027581Y029203D01*
X027584Y029165D01*
X027583Y029128D01*
X027578Y029091D01*
X027570Y029055D01*
X027558Y029019D01*
X027543Y028985D01*
X027524Y028953D01*
X027502Y028923D01*
X027477Y028895D01*
X027450Y028870D01*
X027420Y028847D01*
X027388Y028828D01*
X027354Y028812D01*
X027318Y028800D01*
X027282Y028791D01*
X027245Y028786D01*
X027208Y028785D01*
X027208Y028794D01*
X027245Y028795D01*
X027282Y028800D01*
X027318Y028809D01*
X027353Y028822D01*
X027387Y028838D01*
X027419Y028858D01*
X027448Y028880D01*
X027475Y028906D01*
X027499Y028934D01*
X027521Y028965D01*
X027539Y028997D01*
X027553Y029031D01*
X027564Y029067D01*
X027571Y029104D01*
X027575Y029141D01*
X027574Y029178D01*
X027570Y029215D01*
X027562Y029251D01*
X027550Y029286D01*
X027535Y029320D01*
X027516Y029353D01*
X027494Y029383D01*
X027469Y029410D01*
X027442Y029435D01*
X027412Y029457D01*
X027379Y029476D01*
X027345Y029491D01*
X027310Y029503D01*
X027274Y029511D01*
X027237Y029515D01*
X027200Y029516D01*
X027163Y029512D01*
X027126Y029505D01*
X027090Y029494D01*
X027056Y029480D01*
X027024Y029462D01*
X026993Y029440D01*
X026965Y029416D01*
X026939Y029389D01*
X026917Y029360D01*
X026897Y029328D01*
X026881Y029294D01*
X026868Y029259D01*
X026859Y029223D01*
X026854Y029186D01*
X026853Y029149D01*
X026862Y029149D01*
X026863Y029186D01*
X026869Y029223D01*
X026878Y029259D01*
X026891Y029294D01*
X026907Y029327D01*
X026927Y029359D01*
X026950Y029388D01*
X026976Y029414D01*
X027004Y029438D01*
X027035Y029458D01*
X027068Y029475D01*
X027103Y029489D01*
X027138Y029499D01*
X027175Y029505D01*
X027212Y029507D01*
X027249Y029505D01*
X027286Y029500D01*
X027322Y029490D01*
X027356Y029477D01*
X027389Y029460D01*
X027421Y029440D01*
X027449Y029417D01*
X027476Y029390D01*
X027499Y029362D01*
X027519Y029330D01*
X027536Y029297D01*
X027549Y029263D01*
X027559Y029227D01*
X027564Y029190D01*
X027566Y029153D01*
X027564Y029116D01*
X027558Y029079D01*
X027548Y029044D01*
X027534Y029009D01*
X027517Y028976D01*
X027497Y028945D01*
X027473Y028917D01*
X027447Y028891D01*
X027418Y028868D01*
X027386Y028848D01*
X027353Y028832D01*
X027318Y028819D01*
X027282Y028810D01*
X027245Y028804D01*
X027208Y028803D01*
X027209Y028812D01*
X027245Y028813D01*
X027281Y028819D01*
X027316Y028827D01*
X027349Y028840D01*
X027382Y028856D01*
X027412Y028875D01*
X027441Y028898D01*
X027467Y028923D01*
X027490Y028951D01*
X027510Y028981D01*
X027526Y029013D01*
X027539Y029047D01*
X027549Y029081D01*
X027555Y029117D01*
X027557Y029153D01*
X027555Y029189D01*
X027550Y029225D01*
X027541Y029260D01*
X027528Y029294D01*
X027511Y029326D01*
X027492Y029356D01*
X027469Y029384D01*
X027443Y029410D01*
X027415Y029433D01*
X027385Y029452D01*
X027353Y029469D01*
X027319Y029482D01*
X027284Y029491D01*
X027248Y029496D01*
X027212Y029498D01*
X027176Y029496D01*
X027140Y029490D01*
X027106Y029480D01*
X027072Y029467D01*
X027040Y029451D01*
X027010Y029431D01*
X026982Y029408D01*
X026957Y029382D01*
X026934Y029353D01*
X026915Y029323D01*
X026899Y029290D01*
X026886Y029257D01*
X026878Y029222D01*
X026872Y029186D01*
X026871Y029150D01*
X026880Y029150D01*
X026881Y029186D01*
X026887Y029221D01*
X026896Y029256D01*
X026908Y029290D01*
X026925Y029322D01*
X026944Y029352D01*
X026967Y029380D01*
X026993Y029405D01*
X027021Y029428D01*
X027051Y029447D01*
X027084Y029463D01*
X027118Y029475D01*
X027153Y029483D01*
X027188Y029488D01*
X027224Y029489D01*
X027260Y029486D01*
X027295Y029479D01*
X027330Y029468D01*
X027363Y029454D01*
X027394Y029436D01*
X027423Y029415D01*
X027450Y029391D01*
X027474Y029364D01*
X027495Y029335D01*
X027513Y029304D01*
X027527Y029271D01*
X027538Y029236D01*
X027545Y029201D01*
X027548Y029165D01*
X027547Y029129D01*
X027542Y029094D01*
X027534Y029059D01*
X027522Y029025D01*
X027506Y028992D01*
X027487Y028962D01*
X027464Y028934D01*
X027439Y028908D01*
X027411Y028885D01*
X027381Y028866D01*
X027349Y028849D01*
X027315Y028837D01*
X027280Y028828D01*
X027245Y028822D01*
X027209Y028821D01*
X027209Y028830D01*
X027244Y028831D01*
X027279Y028837D01*
X027313Y028845D01*
X027345Y028858D01*
X027377Y028874D01*
X027406Y028893D01*
X027433Y028915D01*
X027458Y028940D01*
X027479Y028967D01*
X027498Y028997D01*
X027513Y029028D01*
X027525Y029061D01*
X027533Y029095D01*
X027538Y029130D01*
X027539Y029165D01*
X027536Y029200D01*
X027529Y029234D01*
X027519Y029268D01*
X027505Y029300D01*
X027488Y029330D01*
X027467Y029359D01*
X027444Y029385D01*
X027418Y029408D01*
X027389Y029429D01*
X027359Y029446D01*
X027327Y029460D01*
X027293Y029470D01*
X027259Y029477D01*
X027224Y029480D01*
X027189Y029479D01*
X027154Y029474D01*
X027120Y029466D01*
X027087Y029454D01*
X027056Y029439D01*
X027026Y029420D01*
X026999Y029399D01*
X026974Y029374D01*
X026952Y029347D01*
X026933Y029318D01*
X026917Y029286D01*
X026904Y029254D01*
X026896Y029220D01*
X026890Y029185D01*
X026889Y029150D01*
X026898Y029150D01*
X026899Y029185D01*
X026905Y029220D01*
X026914Y029253D01*
X026926Y029286D01*
X026942Y029317D01*
X026962Y029346D01*
X026984Y029372D01*
X027010Y029396D01*
X027037Y029417D01*
X027067Y029435D01*
X027099Y029449D01*
X027132Y029460D01*
X027166Y029467D01*
X027201Y029471D01*
X027236Y029470D01*
X027270Y029466D01*
X027304Y029458D01*
X027337Y029446D01*
X027368Y029431D01*
X027398Y029412D01*
X027425Y029390D01*
X027449Y029366D01*
X027471Y029339D01*
X027490Y029309D01*
X027505Y029278D01*
X027517Y029245D01*
X027525Y029211D01*
X027529Y029177D01*
X027530Y029142D01*
X027526Y029107D01*
X027519Y029073D01*
X027508Y029040D01*
X027494Y029008D01*
X027476Y028978D01*
X027455Y028951D01*
X027431Y028925D01*
X027405Y028903D01*
X027376Y028883D01*
X027345Y028867D01*
X027312Y028855D01*
X027279Y028846D01*
X027244Y028840D01*
X027209Y028839D01*
X027210Y028848D01*
X027243Y028849D01*
X027277Y028855D01*
X027310Y028863D01*
X027341Y028876D01*
X027371Y028891D01*
X027399Y028910D01*
X027425Y028932D01*
X027448Y028957D01*
X027469Y028984D01*
X027486Y029013D01*
X027500Y029043D01*
X027511Y029076D01*
X027517Y029109D01*
X027521Y029142D01*
X027520Y029176D01*
X027516Y029210D01*
X027508Y029243D01*
X027497Y029274D01*
X027482Y029305D01*
X027464Y029333D01*
X027443Y029360D01*
X027419Y029384D01*
X027392Y029405D01*
X027364Y029423D01*
X027333Y029438D01*
X027302Y029449D01*
X027269Y029457D01*
X027235Y029461D01*
X027201Y029462D01*
X027168Y029458D01*
X027135Y029452D01*
X027102Y029441D01*
X027072Y029427D01*
X027043Y029410D01*
X027016Y029389D01*
X026991Y029366D01*
X026969Y029340D01*
X026950Y029312D01*
X026935Y029282D01*
X026922Y029251D01*
X026914Y029218D01*
X026908Y029184D01*
X026907Y029151D01*
X026916Y029151D01*
X026917Y029185D01*
X026923Y029218D01*
X026932Y029250D01*
X026944Y029281D01*
X026960Y029311D01*
X026979Y029339D01*
X027001Y029364D01*
X027026Y029386D01*
X027054Y029406D01*
X027083Y029423D01*
X027114Y029436D01*
X027146Y029445D01*
X027179Y029451D01*
X027213Y029453D01*
X027246Y029451D01*
X027279Y029446D01*
X027312Y029437D01*
X027343Y029424D01*
X027372Y029408D01*
X027400Y029388D01*
X027425Y029366D01*
X027447Y029341D01*
X027467Y029313D01*
X027483Y029284D01*
X027496Y029253D01*
X027505Y029220D01*
X027510Y029187D01*
X027512Y029154D01*
X027510Y029120D01*
X027504Y029087D01*
X027495Y029055D01*
X027482Y029024D01*
X027465Y028995D01*
X027445Y028967D01*
X027423Y028942D01*
X027398Y028920D01*
X027370Y028901D01*
X027340Y028885D01*
X027309Y028873D01*
X027277Y028864D01*
X027244Y028858D01*
X027210Y028857D01*
X027210Y028866D01*
X027244Y028868D01*
X027277Y028873D01*
X027309Y028882D01*
X027340Y028895D01*
X027369Y028911D01*
X027396Y028930D01*
X027421Y028953D01*
X027442Y028978D01*
X027461Y029006D01*
X027477Y029035D01*
X027489Y029066D01*
X027497Y029098D01*
X027502Y029132D01*
X027503Y029165D01*
X027500Y029198D01*
X027493Y029231D01*
X027482Y029262D01*
X027468Y029293D01*
X027451Y029321D01*
X027430Y029347D01*
X027406Y029371D01*
X027380Y029392D01*
X027352Y029409D01*
X027321Y029423D01*
X027290Y029434D01*
X027257Y029441D01*
X027224Y029444D01*
X027191Y029443D01*
X027157Y029438D01*
X027125Y029430D01*
X027094Y029418D01*
X027065Y029402D01*
X027037Y029383D01*
X027012Y029362D01*
X026989Y029337D01*
X026970Y029310D01*
X026954Y029281D01*
X026941Y029250D01*
X026932Y029218D01*
X026927Y029185D01*
X026925Y029151D01*
X026737Y029149D02*
X026647Y029152D01*
X026648Y029152D02*
X026646Y029185D01*
X026641Y029217D01*
X026632Y029249D01*
X026619Y029280D01*
X026602Y029308D01*
X026582Y029335D01*
X026560Y029359D01*
X026534Y029380D01*
X026506Y029398D01*
X026477Y029413D01*
X026446Y029424D01*
X026413Y029431D01*
X026380Y029435D01*
X026347Y029434D01*
X026314Y029430D01*
X026282Y029422D01*
X026251Y029409D01*
X026222Y029394D01*
X026195Y029375D01*
X026170Y029353D01*
X026148Y029328D01*
X026129Y029301D01*
X026114Y029272D01*
X026101Y029241D01*
X026093Y029209D01*
X026089Y029176D01*
X026088Y029143D01*
X026092Y029110D01*
X026099Y029077D01*
X026110Y029046D01*
X026125Y029017D01*
X026143Y028989D01*
X026164Y028963D01*
X026188Y028941D01*
X026215Y028921D01*
X026243Y028904D01*
X026274Y028891D01*
X026306Y028882D01*
X026338Y028877D01*
X026371Y028875D01*
X026374Y028786D01*
X026374Y028785D01*
X026337Y028786D01*
X026300Y028791D01*
X026264Y028800D01*
X026228Y028812D01*
X026194Y028828D01*
X026162Y028847D01*
X026132Y028870D01*
X026105Y028895D01*
X026080Y028923D01*
X026058Y028953D01*
X026039Y028985D01*
X026024Y029019D01*
X026012Y029055D01*
X026004Y029091D01*
X025999Y029128D01*
X025998Y029165D01*
X026001Y029203D01*
X026008Y029239D01*
X026018Y029275D01*
X026032Y029310D01*
X026049Y029343D01*
X026070Y029374D01*
X026094Y029403D01*
X026120Y029429D01*
X026149Y029453D01*
X026180Y029474D01*
X026213Y029491D01*
X026248Y029505D01*
X026284Y029515D01*
X026320Y029522D01*
X026358Y029525D01*
X026395Y029524D01*
X026432Y029519D01*
X026468Y029511D01*
X026504Y029499D01*
X026538Y029484D01*
X026570Y029465D01*
X026600Y029443D01*
X026628Y029418D01*
X026653Y029391D01*
X026676Y029361D01*
X026695Y029329D01*
X026711Y029295D01*
X026723Y029259D01*
X026732Y029223D01*
X026737Y029186D01*
X026738Y029149D01*
X026729Y029149D01*
X026728Y029186D01*
X026723Y029223D01*
X026714Y029259D01*
X026701Y029294D01*
X026685Y029328D01*
X026665Y029360D01*
X026643Y029389D01*
X026617Y029416D01*
X026589Y029440D01*
X026558Y029462D01*
X026526Y029480D01*
X026492Y029494D01*
X026456Y029505D01*
X026419Y029512D01*
X026382Y029516D01*
X026345Y029515D01*
X026308Y029511D01*
X026272Y029503D01*
X026237Y029491D01*
X026203Y029476D01*
X026170Y029457D01*
X026140Y029435D01*
X026113Y029410D01*
X026088Y029383D01*
X026066Y029353D01*
X026047Y029320D01*
X026032Y029286D01*
X026020Y029251D01*
X026012Y029215D01*
X026008Y029178D01*
X026007Y029141D01*
X026011Y029104D01*
X026018Y029067D01*
X026029Y029031D01*
X026043Y028997D01*
X026061Y028965D01*
X026083Y028934D01*
X026107Y028906D01*
X026134Y028880D01*
X026163Y028858D01*
X026195Y028838D01*
X026229Y028822D01*
X026264Y028809D01*
X026300Y028800D01*
X026337Y028795D01*
X026374Y028794D01*
X026374Y028803D01*
X026337Y028804D01*
X026300Y028810D01*
X026264Y028819D01*
X026229Y028832D01*
X026196Y028848D01*
X026164Y028868D01*
X026135Y028891D01*
X026109Y028917D01*
X026085Y028945D01*
X026065Y028976D01*
X026048Y029009D01*
X026034Y029044D01*
X026024Y029079D01*
X026018Y029116D01*
X026016Y029153D01*
X026018Y029190D01*
X026023Y029227D01*
X026033Y029263D01*
X026046Y029297D01*
X026063Y029330D01*
X026083Y029362D01*
X026106Y029390D01*
X026133Y029417D01*
X026161Y029440D01*
X026193Y029460D01*
X026226Y029477D01*
X026260Y029490D01*
X026296Y029500D01*
X026333Y029505D01*
X026370Y029507D01*
X026407Y029505D01*
X026444Y029499D01*
X026479Y029489D01*
X026514Y029475D01*
X026547Y029458D01*
X026578Y029438D01*
X026606Y029414D01*
X026632Y029388D01*
X026655Y029359D01*
X026675Y029327D01*
X026691Y029294D01*
X026704Y029259D01*
X026713Y029223D01*
X026719Y029186D01*
X026720Y029149D01*
X026711Y029150D01*
X026710Y029186D01*
X026704Y029222D01*
X026696Y029257D01*
X026683Y029290D01*
X026667Y029323D01*
X026648Y029353D01*
X026625Y029382D01*
X026600Y029408D01*
X026572Y029431D01*
X026542Y029451D01*
X026510Y029467D01*
X026476Y029480D01*
X026442Y029490D01*
X026406Y029496D01*
X026370Y029498D01*
X026334Y029496D01*
X026298Y029491D01*
X026263Y029482D01*
X026229Y029469D01*
X026197Y029452D01*
X026167Y029433D01*
X026139Y029410D01*
X026113Y029384D01*
X026090Y029356D01*
X026071Y029326D01*
X026054Y029294D01*
X026041Y029260D01*
X026032Y029225D01*
X026027Y029189D01*
X026025Y029153D01*
X026027Y029117D01*
X026033Y029081D01*
X026043Y029047D01*
X026056Y029013D01*
X026072Y028981D01*
X026092Y028951D01*
X026115Y028923D01*
X026141Y028898D01*
X026170Y028875D01*
X026200Y028856D01*
X026233Y028840D01*
X026266Y028827D01*
X026301Y028819D01*
X026337Y028813D01*
X026373Y028812D01*
X026373Y028821D01*
X026337Y028822D01*
X026302Y028828D01*
X026267Y028837D01*
X026233Y028849D01*
X026201Y028866D01*
X026171Y028885D01*
X026143Y028908D01*
X026118Y028934D01*
X026095Y028962D01*
X026076Y028992D01*
X026060Y029025D01*
X026048Y029059D01*
X026040Y029094D01*
X026035Y029129D01*
X026034Y029165D01*
X026037Y029201D01*
X026044Y029236D01*
X026055Y029271D01*
X026069Y029304D01*
X026087Y029335D01*
X026108Y029364D01*
X026132Y029391D01*
X026159Y029415D01*
X026188Y029436D01*
X026219Y029454D01*
X026252Y029468D01*
X026287Y029479D01*
X026322Y029486D01*
X026358Y029489D01*
X026394Y029488D01*
X026429Y029483D01*
X026464Y029475D01*
X026498Y029463D01*
X026531Y029447D01*
X026561Y029428D01*
X026589Y029405D01*
X026615Y029380D01*
X026638Y029352D01*
X026657Y029322D01*
X026674Y029290D01*
X026686Y029256D01*
X026695Y029221D01*
X026701Y029186D01*
X026702Y029150D01*
X026693Y029150D01*
X026692Y029185D01*
X026686Y029220D01*
X026678Y029254D01*
X026665Y029286D01*
X026649Y029318D01*
X026630Y029347D01*
X026608Y029374D01*
X026583Y029399D01*
X026556Y029420D01*
X026526Y029439D01*
X026495Y029454D01*
X026462Y029466D01*
X026428Y029474D01*
X026393Y029479D01*
X026358Y029480D01*
X026323Y029477D01*
X026289Y029470D01*
X026255Y029460D01*
X026223Y029446D01*
X026193Y029429D01*
X026164Y029408D01*
X026138Y029385D01*
X026115Y029359D01*
X026094Y029330D01*
X026077Y029300D01*
X026063Y029268D01*
X026053Y029234D01*
X026046Y029200D01*
X026043Y029165D01*
X026044Y029130D01*
X026049Y029095D01*
X026057Y029061D01*
X026069Y029028D01*
X026084Y028997D01*
X026103Y028967D01*
X026124Y028940D01*
X026149Y028915D01*
X026176Y028893D01*
X026205Y028874D01*
X026237Y028858D01*
X026269Y028845D01*
X026303Y028837D01*
X026338Y028831D01*
X026373Y028830D01*
X026373Y028839D01*
X026338Y028840D01*
X026303Y028846D01*
X026270Y028855D01*
X026237Y028867D01*
X026206Y028883D01*
X026177Y028903D01*
X026151Y028925D01*
X026127Y028951D01*
X026106Y028978D01*
X026088Y029008D01*
X026074Y029040D01*
X026063Y029073D01*
X026056Y029107D01*
X026052Y029142D01*
X026053Y029177D01*
X026057Y029211D01*
X026065Y029245D01*
X026077Y029278D01*
X026092Y029309D01*
X026111Y029339D01*
X026133Y029366D01*
X026157Y029390D01*
X026184Y029412D01*
X026214Y029431D01*
X026245Y029446D01*
X026278Y029458D01*
X026312Y029466D01*
X026346Y029470D01*
X026381Y029471D01*
X026416Y029467D01*
X026450Y029460D01*
X026483Y029449D01*
X026515Y029435D01*
X026545Y029417D01*
X026572Y029396D01*
X026598Y029372D01*
X026620Y029346D01*
X026640Y029317D01*
X026656Y029286D01*
X026668Y029253D01*
X026677Y029220D01*
X026683Y029185D01*
X026684Y029150D01*
X026675Y029151D01*
X026674Y029184D01*
X026668Y029218D01*
X026660Y029251D01*
X026647Y029282D01*
X026632Y029312D01*
X026613Y029340D01*
X026591Y029366D01*
X026566Y029389D01*
X026539Y029410D01*
X026510Y029427D01*
X026480Y029441D01*
X026447Y029452D01*
X026414Y029458D01*
X026381Y029462D01*
X026347Y029461D01*
X026313Y029457D01*
X026280Y029449D01*
X026249Y029438D01*
X026218Y029423D01*
X026190Y029405D01*
X026163Y029384D01*
X026139Y029360D01*
X026118Y029333D01*
X026100Y029305D01*
X026085Y029274D01*
X026074Y029243D01*
X026066Y029210D01*
X026062Y029176D01*
X026061Y029142D01*
X026065Y029109D01*
X026071Y029076D01*
X026082Y029043D01*
X026096Y029013D01*
X026113Y028984D01*
X026134Y028957D01*
X026157Y028932D01*
X026183Y028910D01*
X026211Y028891D01*
X026241Y028876D01*
X026272Y028863D01*
X026305Y028855D01*
X026339Y028849D01*
X026372Y028848D01*
X026372Y028857D01*
X026338Y028858D01*
X026305Y028864D01*
X026273Y028873D01*
X026242Y028885D01*
X026212Y028901D01*
X026184Y028920D01*
X026159Y028942D01*
X026137Y028967D01*
X026117Y028995D01*
X026100Y029024D01*
X026087Y029055D01*
X026078Y029087D01*
X026072Y029120D01*
X026070Y029154D01*
X026072Y029187D01*
X026077Y029220D01*
X026086Y029253D01*
X026099Y029284D01*
X026115Y029313D01*
X026135Y029341D01*
X026157Y029366D01*
X026182Y029388D01*
X026210Y029408D01*
X026239Y029424D01*
X026270Y029437D01*
X026303Y029446D01*
X026336Y029451D01*
X026369Y029453D01*
X026403Y029451D01*
X026436Y029445D01*
X026468Y029436D01*
X026499Y029423D01*
X026528Y029406D01*
X026556Y029386D01*
X026581Y029364D01*
X026603Y029339D01*
X026622Y029311D01*
X026638Y029281D01*
X026650Y029250D01*
X026659Y029218D01*
X026665Y029185D01*
X026666Y029151D01*
X026657Y029151D01*
X026655Y029185D01*
X026650Y029218D01*
X026641Y029250D01*
X026628Y029281D01*
X026612Y029310D01*
X026593Y029337D01*
X026570Y029362D01*
X026545Y029383D01*
X026517Y029402D01*
X026488Y029418D01*
X026457Y029430D01*
X026425Y029438D01*
X026391Y029443D01*
X026358Y029444D01*
X026325Y029441D01*
X026292Y029434D01*
X026261Y029423D01*
X026230Y029409D01*
X026202Y029392D01*
X026176Y029371D01*
X026152Y029347D01*
X026131Y029321D01*
X026114Y029293D01*
X026100Y029262D01*
X026089Y029231D01*
X026082Y029198D01*
X026079Y029165D01*
X026080Y029132D01*
X026085Y029098D01*
X026093Y029066D01*
X026105Y029035D01*
X026121Y029006D01*
X026140Y028978D01*
X026161Y028953D01*
X026186Y028930D01*
X026213Y028911D01*
X026242Y028895D01*
X026273Y028882D01*
X026305Y028873D01*
X026338Y028868D01*
X026372Y028866D01*
D27*
X013187Y029317D03*
X013187Y031522D03*
D28*
X017937Y013044D03*
X017937Y012394D03*
X023572Y008044D03*
X024347Y008044D03*
X025137Y008044D03*
X026552Y008194D03*
X026927Y008194D03*
X027537Y010819D03*
X028012Y010819D03*
X028487Y010819D03*
X028487Y011319D03*
X028012Y011319D03*
X027537Y011319D03*
X027537Y011819D03*
X028012Y011819D03*
X028487Y011819D03*
X026412Y011344D03*
X010637Y008869D03*
D29*
X011712Y009419D03*
X012387Y009669D03*
X013737Y008844D03*
X016287Y009419D03*
X013737Y011044D03*
X012612Y012544D03*
X009787Y011044D03*
X010237Y010219D03*
X008837Y007919D03*
X009462Y007469D03*
X010237Y007594D03*
X007087Y014194D03*
X009937Y017319D03*
X012962Y017319D03*
X015812Y019494D03*
X016412Y018719D03*
X018737Y018544D03*
X020912Y016144D03*
X021337Y015419D03*
X020912Y012419D03*
X019412Y012644D03*
X021212Y010544D03*
X021362Y010019D03*
X022212Y009019D03*
X020862Y007194D03*
X020612Y005844D03*
X025337Y012394D03*
X028262Y013019D03*
X029612Y011044D03*
X034462Y014744D03*
X023512Y022394D03*
X022012Y023244D03*
X023512Y024219D03*
X024212Y026369D03*
X026987Y024244D03*
X018737Y022319D03*
X016412Y023944D03*
X016412Y024469D03*
X015812Y022594D03*
X013337Y022944D03*
X012037Y022944D03*
X011412Y024069D03*
X010687Y023194D03*
X009437Y023469D03*
X007062Y022394D03*
X009512Y026119D03*
X008762Y027969D03*
X009262Y028844D03*
X010012Y029694D03*
X007412Y026694D03*
X014012Y026219D03*
X015537Y015044D03*
D30*
X024237Y025869D02*
X024212Y025894D01*
X024212Y026369D01*
X013187Y031522D02*
X011962Y031522D01*
X011962Y032794D01*
X011987Y032819D01*
X011962Y031522D02*
X011962Y031519D01*
D31*
X018737Y023594D02*
X020512Y025369D01*
X020512Y025394D01*
X018737Y023594D02*
X018737Y022319D01*
X018737Y018544D01*
X018737Y017144D01*
X020912Y014969D01*
X020912Y012419D01*
X008987Y018494D02*
X008812Y018669D01*
X007562Y018669D01*
X031512Y024944D02*
X031637Y024944D01*
D32*
X019412Y012644D02*
X013337Y018719D01*
X013337Y022944D01*
D33*
X007136Y030047D03*
X007136Y006819D03*
X037058Y006819D03*
D34*
X033249Y012931D02*
X032850Y012931D01*
X031862Y013919D01*
X031862Y019544D01*
X033599Y021281D01*
X036787Y021281D01*
D35*
X037058Y033590D03*
D36*
X034462Y031444D02*
X033112Y031444D01*
X032218Y032338D01*
X032218Y033144D01*
X034462Y031444D02*
X035597Y030309D01*
X035597Y030183D01*
X033613Y027668D02*
X032587Y028694D01*
X030587Y028694D01*
X027012Y032269D01*
X027012Y033144D01*
X033613Y027668D02*
X033613Y027206D01*
X017987Y020919D02*
X017987Y018494D01*
M02*
