G75*
G70*
%OFA0B0*%
%FSLAX24Y24*%
%IPPOS*%
%LPD*%
%AMOC8*
5,1,8,0,0,1.08239X$1,22.5*
%
%ADD10C,0.0120*%
%ADD11C,0.0140*%
%ADD12OC8,0.0674*%
%ADD13R,0.1360X0.0380*%
%ADD14R,0.0671X0.0592*%
%ADD15R,0.0592X0.0671*%
%ADD16R,0.0474X0.0513*%
%ADD17R,0.0631X0.0631*%
%ADD18R,0.0710X0.0789*%
%ADD19R,0.0710X0.0790*%
%ADD20R,0.0220X0.0640*%
%ADD21OC8,0.0634*%
%ADD22OC8,0.0680*%
%ADD23C,0.0860*%
%ADD24R,0.0690X0.0316*%
%ADD25R,0.0680X0.0300*%
%ADD26C,0.0780*%
%ADD27OC8,0.0780*%
%ADD28C,0.1299*%
%ADD29C,0.1299*%
%ADD30C,0.1100*%
%ADD31R,0.0513X0.0474*%
%ADD32C,0.0095*%
%ADD33R,0.0552X0.0671*%
%ADD34R,0.0300X0.0680*%
%ADD35R,0.2362X0.2165*%
%ADD36OC8,0.0600*%
%ADD37C,0.0848*%
%ADD38R,0.0674X0.0674*%
%ADD39C,0.0674*%
%ADD40R,0.0580X0.0430*%
%ADD41R,0.0671X0.0552*%
%ADD42R,0.0789X0.1340*%
%ADD43R,0.0380X0.1360*%
%ADD44C,0.2365*%
%ADD45C,0.2562*%
D10*
X024756Y007007D02*
X024756Y007807D01*
D11*
X024731Y010082D02*
X024731Y011007D01*
X024506Y011007D02*
X024506Y010082D01*
D12*
X004806Y010307D03*
X003806Y010307D03*
X003806Y009307D03*
X003806Y008307D03*
X003806Y007307D03*
X004806Y007307D03*
X004806Y008307D03*
X004806Y009307D03*
X004806Y011307D03*
X003806Y011307D03*
X003806Y012307D03*
X003806Y013307D03*
X003806Y014307D03*
X003806Y015307D03*
X003806Y016307D03*
X003806Y017307D03*
X003806Y018307D03*
X003806Y019307D03*
X004806Y019307D03*
X004806Y018307D03*
X004806Y017307D03*
X004806Y016307D03*
X004806Y015307D03*
X004806Y014307D03*
X004806Y013307D03*
X004806Y012307D03*
D13*
X014881Y010382D03*
X016781Y010382D03*
D14*
X017706Y013058D03*
X017706Y013806D03*
X013556Y013831D03*
X012781Y013831D03*
X012781Y013083D03*
X013556Y013083D03*
X013556Y012281D03*
X013556Y011533D03*
X012781Y011533D03*
X012781Y012281D03*
X013556Y010731D03*
X013556Y009983D03*
X010330Y010168D03*
X009414Y010168D03*
X009414Y010916D03*
X010330Y010916D03*
X009631Y006881D03*
X009631Y006133D03*
X013531Y005883D03*
X013531Y006631D03*
X020806Y006856D03*
X020806Y006108D03*
X021581Y006108D03*
X021581Y006856D03*
X022356Y006856D03*
X022356Y006108D03*
X023131Y006108D03*
X023131Y006856D03*
X023606Y010283D03*
X023606Y011031D03*
X026856Y010658D03*
X026856Y011406D03*
X027631Y011406D03*
X027631Y010658D03*
X031706Y012783D03*
X031706Y013531D03*
X006706Y019633D03*
X006706Y020381D03*
X005906Y019906D03*
X005906Y019158D03*
X006706Y021183D03*
X006706Y021931D03*
X005581Y022983D03*
X005581Y023731D03*
D15*
X004605Y023907D03*
X003857Y023907D03*
X006507Y026932D03*
X007255Y026932D03*
X009057Y024632D03*
X009805Y024632D03*
X014082Y027832D03*
X014830Y027832D03*
X020707Y024582D03*
X021455Y024582D03*
X023432Y021407D03*
X024180Y021407D03*
X023380Y013207D03*
X022632Y013207D03*
X026482Y012282D03*
X027230Y012282D03*
X027282Y009557D03*
X028030Y009557D03*
X028030Y008782D03*
X027282Y008782D03*
X027282Y007807D03*
X028030Y007807D03*
X028030Y007032D03*
X027282Y007032D03*
X026955Y005807D03*
X026207Y005807D03*
X019030Y006632D03*
X018282Y006632D03*
D16*
X023656Y007923D03*
X023656Y008592D03*
X007481Y019623D03*
X007481Y020292D03*
X007481Y021373D03*
X007481Y022042D03*
D17*
X023783Y011907D03*
X025279Y011907D03*
D18*
X025057Y006232D03*
X025057Y005357D03*
X023955Y005357D03*
X023955Y006232D03*
D19*
X024196Y013207D03*
X025316Y013207D03*
D20*
X025261Y010077D03*
X025511Y010077D03*
X025771Y010077D03*
X026031Y010077D03*
X025001Y010077D03*
X024751Y010077D03*
X024491Y010077D03*
X024231Y010077D03*
X024231Y007837D03*
X024491Y007837D03*
X024751Y007837D03*
X025001Y007837D03*
X025261Y007837D03*
X025511Y007837D03*
X025771Y007837D03*
X026031Y007837D03*
D21*
X025356Y004032D03*
X024356Y004032D03*
X023356Y004032D03*
X022356Y004032D03*
X021356Y004032D03*
X020356Y004032D03*
X019356Y004032D03*
X018356Y004032D03*
X017356Y004032D03*
X016356Y004032D03*
X014756Y004032D03*
X013756Y004032D03*
X012756Y004032D03*
X011756Y004032D03*
X010756Y004032D03*
X009756Y004032D03*
X008756Y004032D03*
X007756Y004032D03*
X007706Y012032D03*
X006706Y012032D03*
X006706Y013032D03*
X007706Y013032D03*
X007706Y014032D03*
X007756Y023032D03*
X008756Y023032D03*
X009756Y023032D03*
X010756Y023032D03*
X011756Y023032D03*
X012756Y023032D03*
X014756Y023032D03*
X015756Y023032D03*
X016756Y023032D03*
X017756Y023032D03*
X018756Y023032D03*
X019756Y023032D03*
X020756Y023032D03*
X021756Y023032D03*
D22*
X019106Y025557D03*
X013206Y025557D03*
X015231Y018057D03*
X015231Y015632D03*
X006706Y014032D03*
X006231Y015632D03*
X006231Y018057D03*
D23*
X017116Y017607D02*
X017896Y017607D01*
X017916Y015257D02*
X018696Y015257D01*
X022716Y015257D02*
X023496Y015257D01*
X026531Y016592D02*
X026531Y017372D01*
X023496Y019957D02*
X022716Y019957D01*
X026531Y021392D02*
X026531Y022172D01*
X028881Y022192D02*
X028881Y022972D01*
X031231Y022172D02*
X031231Y021392D01*
X031231Y017372D02*
X031231Y016592D01*
X018696Y019957D02*
X017916Y019957D01*
D24*
X013169Y020584D03*
X013169Y021084D03*
X013169Y021584D03*
X013169Y022084D03*
X011043Y022084D03*
X011043Y021584D03*
X011043Y021084D03*
X011043Y020584D03*
D25*
X016831Y013857D03*
X015981Y013457D03*
X016831Y013057D03*
X018106Y005907D03*
X018106Y005107D03*
X018956Y005507D03*
D26*
X015881Y006195D03*
D27*
X015881Y007770D03*
D28*
X029903Y007262D02*
X031084Y007262D01*
X031084Y008916D02*
X029903Y008916D01*
X029903Y010569D02*
X031084Y010569D01*
D29*
X033368Y010569D03*
X033368Y007262D03*
X032842Y024844D03*
X030858Y024844D03*
X028873Y024844D03*
X028873Y027820D03*
X030858Y027820D03*
X032842Y027820D03*
D30*
X031431Y030282D02*
X031431Y031282D01*
X029463Y031282D02*
X029463Y030282D01*
X027494Y030282D02*
X027494Y031282D01*
X024256Y031282D02*
X024256Y030282D01*
X022288Y030282D02*
X022288Y031282D01*
X020319Y031282D02*
X020319Y030282D01*
X018351Y030282D02*
X018351Y031282D01*
X016382Y031282D02*
X016382Y030282D01*
X033556Y019644D02*
X034556Y019644D01*
X034556Y017676D02*
X033556Y017676D01*
X033556Y015707D02*
X034556Y015707D01*
D31*
X011091Y019857D03*
X010422Y019857D03*
D32*
X011244Y009665D02*
X011244Y008853D01*
X010708Y008853D01*
X010708Y009665D01*
X011244Y009665D01*
X011244Y008947D02*
X010708Y008947D01*
X010708Y009041D02*
X011244Y009041D01*
X011244Y009135D02*
X010708Y009135D01*
X010708Y009229D02*
X011244Y009229D01*
X011244Y009323D02*
X010708Y009323D01*
X010708Y009417D02*
X011244Y009417D01*
X011244Y009511D02*
X010708Y009511D01*
X010708Y009605D02*
X011244Y009605D01*
X013015Y009665D02*
X013015Y008853D01*
X012479Y008853D01*
X012479Y009665D01*
X013015Y009665D01*
X013015Y008947D02*
X012479Y008947D01*
X012479Y009041D02*
X013015Y009041D01*
X013015Y009135D02*
X012479Y009135D01*
X012479Y009229D02*
X013015Y009229D01*
X013015Y009323D02*
X012479Y009323D01*
X012479Y009417D02*
X013015Y009417D01*
X013015Y009511D02*
X012479Y009511D01*
X012479Y009605D02*
X013015Y009605D01*
X013015Y006358D02*
X013015Y005546D01*
X012479Y005546D01*
X012479Y006358D01*
X013015Y006358D01*
X013015Y005640D02*
X012479Y005640D01*
X012479Y005734D02*
X013015Y005734D01*
X013015Y005828D02*
X012479Y005828D01*
X012479Y005922D02*
X013015Y005922D01*
X013015Y006016D02*
X012479Y006016D01*
X012479Y006110D02*
X013015Y006110D01*
X013015Y006204D02*
X012479Y006204D01*
X012479Y006298D02*
X013015Y006298D01*
X012129Y006358D02*
X012129Y005546D01*
X011593Y005546D01*
X011593Y006358D01*
X012129Y006358D01*
X012129Y005640D02*
X011593Y005640D01*
X011593Y005734D02*
X012129Y005734D01*
X012129Y005828D02*
X011593Y005828D01*
X011593Y005922D02*
X012129Y005922D01*
X012129Y006016D02*
X011593Y006016D01*
X011593Y006110D02*
X012129Y006110D01*
X012129Y006204D02*
X011593Y006204D01*
X011593Y006298D02*
X012129Y006298D01*
X011244Y006358D02*
X011244Y005546D01*
X010708Y005546D01*
X010708Y006358D01*
X011244Y006358D01*
X011244Y005640D02*
X010708Y005640D01*
X010708Y005734D02*
X011244Y005734D01*
X011244Y005828D02*
X010708Y005828D01*
X010708Y005922D02*
X011244Y005922D01*
X011244Y006016D02*
X010708Y006016D01*
X010708Y006110D02*
X011244Y006110D01*
X011244Y006204D02*
X010708Y006204D01*
X010708Y006298D02*
X011244Y006298D01*
X009078Y006358D02*
X009078Y005546D01*
X008542Y005546D01*
X008542Y006358D01*
X009078Y006358D01*
X009078Y005640D02*
X008542Y005640D01*
X008542Y005734D02*
X009078Y005734D01*
X009078Y005828D02*
X008542Y005828D01*
X008542Y005922D02*
X009078Y005922D01*
X009078Y006016D02*
X008542Y006016D01*
X008542Y006110D02*
X009078Y006110D01*
X009078Y006204D02*
X008542Y006204D01*
X008542Y006298D02*
X009078Y006298D01*
X008192Y006358D02*
X008192Y005546D01*
X007656Y005546D01*
X007656Y006358D01*
X008192Y006358D01*
X008192Y005640D02*
X007656Y005640D01*
X007656Y005734D02*
X008192Y005734D01*
X008192Y005828D02*
X007656Y005828D01*
X007656Y005922D02*
X008192Y005922D01*
X008192Y006016D02*
X007656Y006016D01*
X007656Y006110D02*
X008192Y006110D01*
X008192Y006204D02*
X007656Y006204D01*
X007656Y006298D02*
X008192Y006298D01*
X007307Y006358D02*
X007307Y005546D01*
X006771Y005546D01*
X006771Y006358D01*
X007307Y006358D01*
X007307Y005640D02*
X006771Y005640D01*
X006771Y005734D02*
X007307Y005734D01*
X007307Y005828D02*
X006771Y005828D01*
X006771Y005922D02*
X007307Y005922D01*
X007307Y006016D02*
X006771Y006016D01*
X006771Y006110D02*
X007307Y006110D01*
X007307Y006204D02*
X006771Y006204D01*
X006771Y006298D02*
X007307Y006298D01*
X007307Y008853D02*
X007307Y009665D01*
X007307Y008853D02*
X006771Y008853D01*
X006771Y009665D01*
X007307Y009665D01*
X007307Y008947D02*
X006771Y008947D01*
X006771Y009041D02*
X007307Y009041D01*
X007307Y009135D02*
X006771Y009135D01*
X006771Y009229D02*
X007307Y009229D01*
X007307Y009323D02*
X006771Y009323D01*
X006771Y009417D02*
X007307Y009417D01*
X007307Y009511D02*
X006771Y009511D01*
X006771Y009605D02*
X007307Y009605D01*
X009078Y009665D02*
X009078Y008853D01*
X008542Y008853D01*
X008542Y009665D01*
X009078Y009665D01*
X009078Y008947D02*
X008542Y008947D01*
X008542Y009041D02*
X009078Y009041D01*
X009078Y009135D02*
X008542Y009135D01*
X008542Y009229D02*
X009078Y009229D01*
X009078Y009323D02*
X008542Y009323D01*
X008542Y009417D02*
X009078Y009417D01*
X009078Y009511D02*
X008542Y009511D01*
X008542Y009605D02*
X009078Y009605D01*
D33*
X015981Y014636D03*
X015981Y015778D03*
X025081Y021761D03*
X025081Y022903D03*
X021481Y027336D03*
X021481Y028478D03*
X012106Y026678D03*
X012106Y025536D03*
D34*
X007256Y027807D03*
X006456Y027807D03*
X006856Y028657D03*
X004256Y025657D03*
X003856Y024807D03*
X004656Y024807D03*
X020781Y025507D03*
X021581Y025507D03*
X021181Y026357D03*
X023831Y023182D03*
X023431Y022332D03*
X024231Y022332D03*
D35*
X020531Y012056D03*
X020531Y008709D03*
D36*
X011861Y009862D03*
X011861Y010862D03*
X007924Y010862D03*
X007924Y009862D03*
X030365Y012618D03*
X030365Y013618D03*
D37*
X022921Y024844D03*
X022921Y027820D03*
D38*
X012231Y031457D03*
D39*
X011231Y031457D03*
X010231Y031457D03*
X009231Y031457D03*
X008231Y031457D03*
X007231Y031457D03*
X006231Y031457D03*
X005231Y031457D03*
X005231Y030457D03*
X006231Y030457D03*
X007231Y030457D03*
X008231Y030457D03*
X009231Y030457D03*
X010231Y030457D03*
X011231Y030457D03*
X012231Y030457D03*
D40*
X008106Y025607D03*
X008106Y024607D03*
X005606Y024607D03*
X005606Y025607D03*
D41*
X012110Y028757D03*
X013252Y028757D03*
D42*
X015954Y028207D03*
X018159Y028207D03*
D43*
X010206Y027882D03*
X010206Y025982D03*
D44*
X004381Y004456D03*
X004381Y027685D03*
X034302Y004456D03*
D45*
X034302Y031228D03*
M02*
