%
M48
M72
T01C0.0236
T02C0.0315
T03C0.0320
T04C0.0354
T05C0.0394
T06C0.0400
T07C0.0512
T08C0.0520
T09C0.0531
T10C0.0787
T11C0.1181
T12C0.1260
%
T01
X6081Y5557
X6706Y5107
X7481Y5232
X7881Y6507
X8956Y7057
X9631Y7307
X10981Y6482
X13531Y7057
X10981Y8682
X9856Y10182
X7481Y7857
X7031Y8682
X4331Y11832
X12781Y12682
X15181Y10682
X15181Y10032
X16656Y10282
X18156Y10057
X18456Y8182
X18606Y7657
X19456Y6657
X20816Y5682
X21591Y5682
X22381Y5682
X23796Y5832
X24171Y5832
X24781Y8457
X25256Y8457
X25731Y8457
X25731Y8957
X25256Y8957
X24781Y8957
X24781Y9457
X25256Y9457
X25731Y9457
X26856Y8682
X25506Y10657
X23656Y8982
X22581Y10032
X18581Y13057
X18156Y13782
X15981Y16182
X13656Y16357
X13056Y17132
X13056Y19407
X11106Y20232
X10431Y19482
X9806Y19907
X10456Y22084
X11256Y23857
X13656Y22107
X13656Y21582
X15981Y19957
X19256Y20882
X20756Y20032
X20756Y21857
X21456Y24007
X24231Y21882
X31706Y12382
X18106Y4832
X17856Y3482
X7156Y20382
X7131Y21207
X5506Y20782
X4306Y20482
X6756Y23757
X6006Y25607
X6506Y26482
X7256Y27332
X4656Y24332
T02
X15881Y7770
X15881Y6195
T03
X11861Y9862
X11861Y10862
X7924Y10862
X7924Y9862
X30365Y12618
X30365Y13618
T04
X21756Y23032
X20756Y23032
X19756Y23032
X18756Y23032
X17756Y23032
X16756Y23032
X15756Y23032
X14756Y23032
X12756Y23032
X11756Y23032
X10756Y23032
X9756Y23032
X8756Y23032
X7756Y23032
X7706Y14032
X7706Y13032
X6706Y13032
X6706Y12032
X7706Y12032
X7756Y4032
X8756Y4032
X9756Y4032
X10756Y4032
X11756Y4032
X12756Y4032
X13756Y4032
X14756Y4032
X16356Y4032
X17356Y4032
X18356Y4032
X19356Y4032
X20356Y4032
X21356Y4032
X22356Y4032
X23356Y4032
X24356Y4032
X25356Y4032
T05
X4806Y7307
X3806Y7307
X3806Y8307
X3806Y9307
X3806Y10307
X3806Y11307
X3806Y12307
X3806Y13307
X3806Y14307
X3806Y15307
X3806Y16307
X3806Y17307
X3806Y18307
X3806Y19307
X4806Y19307
X4806Y18307
X4806Y17307
X4806Y16307
X4806Y15307
X4806Y14307
X4806Y13307
X4806Y12307
X4806Y11307
X4806Y10307
X4806Y9307
X4806Y8307
X5231Y30457
X6231Y30457
X6231Y31457
X5231Y31457
X7231Y31457
X7231Y30457
X8231Y30457
X9231Y30457
X9231Y31457
X8231Y31457
X10231Y31457
X11231Y31457
X11231Y30457
X10231Y30457
X12231Y30457
X12231Y31457
T06
X13206Y25557
X19106Y25557
X15231Y18057
X15231Y15632
X6706Y14032
X6231Y15632
X6231Y18057
T07
X22921Y24844
X22921Y27820
X28873Y27820
X30858Y27820
X32842Y27820
X32842Y24844
X30858Y24844
X28873Y24844
T08
X28881Y22582
X26531Y21782
X23106Y19957
X26531Y16982
X23106Y15257
X18306Y15257
X17506Y17607
X18306Y19957
X31231Y21782
X31231Y16982
T09
X34056Y17676
X34056Y19644
X34056Y15707
X31431Y30782
X29463Y30782
X27494Y30782
X24256Y30782
X22288Y30782
X20319Y30782
X18351Y30782
X16382Y30782
T10
X30494Y10569
X30494Y8916
X30494Y7262
T11
X33368Y7262
X33368Y10569
T12
X4381Y4456
X4381Y27685
X34302Y31228
X34302Y4456
M30
