G75*
G70*
%OFA0B0*%
%FSLAX24Y24*%
%IPPOS*%
%LPD*%
%AMOC8*
5,1,8,0,0,1.08239X$1,22.5*
%
%ADD10C,0.0039*%
%ADD11R,0.0149X0.0001*%
%ADD12R,0.0004X0.0001*%
%ADD13R,0.0010X0.0001*%
%ADD14R,0.0017X0.0001*%
%ADD15R,0.0023X0.0001*%
%ADD16R,0.0029X0.0001*%
%ADD17R,0.0034X0.0001*%
%ADD18R,0.0040X0.0001*%
%ADD19R,0.0043X0.0002*%
%ADD20R,0.0047X0.0001*%
%ADD21R,0.0050X0.0001*%
%ADD22R,0.0054X0.0001*%
%ADD23R,0.0059X0.0001*%
%ADD24R,0.0064X0.0001*%
%ADD25R,0.0015X0.0001*%
%ADD26R,0.0067X0.0001*%
%ADD27R,0.0020X0.0001*%
%ADD28R,0.0070X0.0001*%
%ADD29R,0.0024X0.0001*%
%ADD30R,0.0074X0.0001*%
%ADD31R,0.0027X0.0001*%
%ADD32R,0.0076X0.0001*%
%ADD33R,0.0030X0.0001*%
%ADD34R,0.0081X0.0002*%
%ADD35R,0.0036X0.0002*%
%ADD36R,0.0086X0.0001*%
%ADD37R,0.0044X0.0001*%
%ADD38R,0.0091X0.0001*%
%ADD39R,0.0046X0.0001*%
%ADD40R,0.0094X0.0001*%
%ADD41R,0.0096X0.0001*%
%ADD42R,0.0053X0.0001*%
%ADD43R,0.0099X0.0001*%
%ADD44R,0.0056X0.0001*%
%ADD45R,0.0104X0.0001*%
%ADD46R,0.0060X0.0001*%
%ADD47R,0.0108X0.0001*%
%ADD48R,0.0112X0.0001*%
%ADD49R,0.0117X0.0001*%
%ADD50R,0.0072X0.0001*%
%ADD51R,0.0120X0.0002*%
%ADD52R,0.0075X0.0002*%
%ADD53R,0.0123X0.0001*%
%ADD54R,0.0078X0.0001*%
%ADD55R,0.0126X0.0001*%
%ADD56R,0.0081X0.0001*%
%ADD57R,0.0131X0.0001*%
%ADD58R,0.0136X0.0001*%
%ADD59R,0.0090X0.0001*%
%ADD60R,0.0139X0.0001*%
%ADD61R,0.0144X0.0001*%
%ADD62R,0.0147X0.0001*%
%ADD63R,0.0101X0.0001*%
%ADD64R,0.0150X0.0001*%
%ADD65R,0.0102X0.0001*%
%ADD66R,0.0153X0.0001*%
%ADD67R,0.0106X0.0001*%
%ADD68R,0.0158X0.0002*%
%ADD69R,0.0109X0.0002*%
%ADD70R,0.0164X0.0001*%
%ADD71R,0.0115X0.0001*%
%ADD72R,0.0168X0.0001*%
%ADD73R,0.0120X0.0001*%
%ADD74R,0.0171X0.0001*%
%ADD75R,0.0123X0.0001*%
%ADD76R,0.0172X0.0001*%
%ADD77R,0.0125X0.0001*%
%ADD78R,0.0175X0.0001*%
%ADD79R,0.0128X0.0001*%
%ADD80R,0.0180X0.0001*%
%ADD81R,0.0132X0.0001*%
%ADD82R,0.0186X0.0001*%
%ADD83R,0.0191X0.0001*%
%ADD84R,0.0141X0.0001*%
%ADD85R,0.0194X0.0001*%
%ADD86R,0.0145X0.0001*%
%ADD87R,0.0196X0.0002*%
%ADD88R,0.0149X0.0002*%
%ADD89R,0.0199X0.0001*%
%ADD90R,0.0151X0.0001*%
%ADD91R,0.0204X0.0001*%
%ADD92R,0.0153X0.0001*%
%ADD93R,0.0207X0.0001*%
%ADD94R,0.0158X0.0001*%
%ADD95R,0.0211X0.0001*%
%ADD96R,0.0162X0.0001*%
%ADD97R,0.0216X0.0001*%
%ADD98R,0.0166X0.0001*%
%ADD99R,0.0219X0.0001*%
%ADD100R,0.0007X0.0001*%
%ADD101R,0.0169X0.0001*%
%ADD102R,0.0222X0.0001*%
%ADD103R,0.0011X0.0001*%
%ADD104R,0.0224X0.0001*%
%ADD105R,0.0014X0.0001*%
%ADD106R,0.0176X0.0001*%
%ADD107R,0.0228X0.0001*%
%ADD108R,0.0018X0.0001*%
%ADD109R,0.0179X0.0001*%
%ADD110R,0.0234X0.0002*%
%ADD111R,0.0024X0.0002*%
%ADD112R,0.0183X0.0002*%
%ADD113R,0.0239X0.0001*%
%ADD114R,0.0189X0.0001*%
%ADD115R,0.0241X0.0001*%
%ADD116R,0.0033X0.0001*%
%ADD117R,0.0012X0.0001*%
%ADD118R,0.0192X0.0001*%
%ADD119R,0.0243X0.0001*%
%ADD120R,0.0038X0.0001*%
%ADD121R,0.0246X0.0001*%
%ADD122R,0.0041X0.0001*%
%ADD123R,0.0019X0.0001*%
%ADD124R,0.0196X0.0001*%
%ADD125R,0.0250X0.0001*%
%ADD126R,0.0021X0.0001*%
%ADD127R,0.0201X0.0001*%
%ADD128R,0.0254X0.0001*%
%ADD129R,0.0048X0.0001*%
%ADD130R,0.0258X0.0001*%
%ADD131R,0.0054X0.0001*%
%ADD132R,0.0209X0.0001*%
%ADD133R,0.0263X0.0001*%
%ADD134R,0.0213X0.0001*%
%ADD135R,0.0267X0.0001*%
%ADD136R,0.0063X0.0001*%
%ADD137R,0.0270X0.0002*%
%ADD138R,0.0066X0.0002*%
%ADD139R,0.0045X0.0002*%
%ADD140R,0.0219X0.0002*%
%ADD141R,0.0271X0.0001*%
%ADD142R,0.0220X0.0001*%
%ADD143R,0.0274X0.0001*%
%ADD144R,0.0051X0.0001*%
%ADD145R,0.0223X0.0001*%
%ADD146R,0.0278X0.0001*%
%ADD147R,0.0282X0.0001*%
%ADD148R,0.0231X0.0001*%
%ADD149R,0.0288X0.0001*%
%ADD150R,0.0085X0.0001*%
%ADD151R,0.0236X0.0001*%
%ADD152R,0.0289X0.0001*%
%ADD153R,0.0087X0.0001*%
%ADD154R,0.0066X0.0001*%
%ADD155R,0.0292X0.0001*%
%ADD156R,0.0069X0.0001*%
%ADD157R,0.0297X0.0001*%
%ADD158R,0.0300X0.0001*%
%ADD159R,0.0075X0.0001*%
%ADD160R,0.0305X0.0002*%
%ADD161R,0.0101X0.0002*%
%ADD162R,0.0078X0.0002*%
%ADD163R,0.0251X0.0002*%
%ADD164R,0.0309X0.0001*%
%ADD165R,0.0105X0.0001*%
%ADD166R,0.0083X0.0001*%
%ADD167R,0.0255X0.0001*%
%ADD168R,0.0314X0.0001*%
%ADD169R,0.0110X0.0001*%
%ADD170R,0.0087X0.0001*%
%ADD171R,0.0316X0.0001*%
%ADD172R,0.0113X0.0001*%
%ADD173R,0.0262X0.0001*%
%ADD174R,0.0319X0.0001*%
%ADD175R,0.0114X0.0001*%
%ADD176R,0.0093X0.0001*%
%ADD177R,0.0266X0.0001*%
%ADD178R,0.0321X0.0001*%
%ADD179R,0.0096X0.0001*%
%ADD180R,0.0324X0.0001*%
%ADD181R,0.0270X0.0001*%
%ADD182R,0.0329X0.0001*%
%ADD183R,0.0124X0.0001*%
%ADD184R,0.0275X0.0001*%
%ADD185R,0.0333X0.0001*%
%ADD186R,0.0279X0.0001*%
%ADD187R,0.0336X0.0001*%
%ADD188R,0.0111X0.0001*%
%ADD189R,0.0284X0.0001*%
%ADD190R,0.0339X0.0002*%
%ADD191R,0.0134X0.0002*%
%ADD192R,0.0114X0.0002*%
%ADD193R,0.0286X0.0002*%
%ADD194R,0.0342X0.0001*%
%ADD195R,0.0116X0.0001*%
%ADD196R,0.0491X0.0001*%
%ADD197R,0.0492X0.0001*%
%ADD198R,0.0294X0.0001*%
%ADD199R,0.0495X0.0001*%
%ADD200R,0.0299X0.0001*%
%ADD201R,0.0496X0.0001*%
%ADD202R,0.0127X0.0001*%
%ADD203R,0.0301X0.0001*%
%ADD204R,0.0498X0.0001*%
%ADD205R,0.0304X0.0001*%
%ADD206R,0.0501X0.0001*%
%ADD207R,0.0134X0.0001*%
%ADD208R,0.0308X0.0001*%
%ADD209R,0.0135X0.0001*%
%ADD210R,0.0311X0.0001*%
%ADD211R,0.0504X0.0001*%
%ADD212R,0.0138X0.0001*%
%ADD213R,0.0504X0.0002*%
%ADD214R,0.0141X0.0002*%
%ADD215R,0.0318X0.0002*%
%ADD216R,0.0507X0.0001*%
%ADD217R,0.0323X0.0001*%
%ADD218R,0.0326X0.0001*%
%ADD219R,0.0508X0.0001*%
%ADD220R,0.0152X0.0001*%
%ADD221R,0.0330X0.0001*%
%ADD222R,0.0510X0.0001*%
%ADD223R,0.0494X0.0001*%
%ADD224R,0.0512X0.0001*%
%ADD225R,0.0500X0.0001*%
%ADD226R,0.0513X0.0001*%
%ADD227R,0.0501X0.0001*%
%ADD228R,0.0513X0.0002*%
%ADD229R,0.0501X0.0002*%
%ADD230R,0.0503X0.0001*%
%ADD231R,0.0504X0.0001*%
%ADD232R,0.0506X0.0001*%
%ADD233R,0.0513X0.0001*%
%ADD234R,0.0509X0.0001*%
%ADD235R,0.0511X0.0001*%
%ADD236R,0.0514X0.0001*%
%ADD237R,0.0516X0.0001*%
%ADD238R,0.0513X0.0002*%
%ADD239R,0.0519X0.0002*%
%ADD240R,0.0519X0.0001*%
%ADD241R,0.0520X0.0001*%
%ADD242R,0.0522X0.0001*%
%ADD243R,0.0507X0.0001*%
%ADD244R,0.0509X0.0002*%
%ADD245R,0.0520X0.0002*%
%ADD246R,0.0522X0.0001*%
%ADD247R,0.0505X0.0001*%
%ADD248R,0.0502X0.0001*%
%ADD249R,0.0521X0.0001*%
%ADD250R,0.0503X0.0002*%
%ADD251R,0.0519X0.0002*%
%ADD252R,0.0519X0.0001*%
%ADD253R,0.0499X0.0001*%
%ADD254R,0.0517X0.0001*%
%ADD255R,0.0495X0.0002*%
%ADD256R,0.0514X0.0002*%
%ADD257R,0.0515X0.0001*%
%ADD258R,0.0492X0.0001*%
%ADD259R,0.0490X0.0001*%
%ADD260R,0.0490X0.0002*%
%ADD261R,0.0511X0.0002*%
%ADD262R,0.0489X0.0001*%
%ADD263R,0.0489X0.0001*%
%ADD264R,0.0488X0.0001*%
%ADD265R,0.0485X0.0001*%
%ADD266R,0.0483X0.0001*%
%ADD267R,0.0483X0.0002*%
%ADD268R,0.0507X0.0002*%
%ADD269R,0.0483X0.0001*%
%ADD270R,0.0481X0.0001*%
%ADD271R,0.0480X0.0001*%
%ADD272R,0.0480X0.0002*%
%ADD273R,0.0501X0.0002*%
%ADD274R,0.0479X0.0001*%
%ADD275R,0.0477X0.0001*%
%ADD276R,0.0477X0.0001*%
%ADD277R,0.0475X0.0001*%
%ADD278R,0.0474X0.0001*%
%ADD279R,0.0472X0.0001*%
%ADD280R,0.0472X0.0002*%
%ADD281R,0.0498X0.0002*%
%ADD282R,0.0471X0.0001*%
%ADD283R,0.0473X0.0001*%
%ADD284R,0.0471X0.0001*%
%ADD285R,0.0470X0.0001*%
%ADD286R,0.0468X0.0001*%
%ADD287R,0.0469X0.0001*%
%ADD288R,0.0468X0.0002*%
%ADD289R,0.0491X0.0002*%
%ADD290R,0.0466X0.0001*%
%ADD291R,0.0465X0.0001*%
%ADD292R,0.0464X0.0001*%
%ADD293R,0.0462X0.0001*%
%ADD294R,0.0462X0.0002*%
%ADD295R,0.0489X0.0002*%
%ADD296R,0.0461X0.0001*%
%ADD297R,0.0460X0.0001*%
%ADD298R,0.0459X0.0001*%
%ADD299R,0.0484X0.0001*%
%ADD300R,0.0457X0.0001*%
%ADD301R,0.0459X0.0001*%
%ADD302R,0.0458X0.0002*%
%ADD303R,0.0484X0.0002*%
%ADD304R,0.0456X0.0001*%
%ADD305R,0.0455X0.0001*%
%ADD306R,0.0453X0.0001*%
%ADD307R,0.0451X0.0001*%
%ADD308R,0.0453X0.0001*%
%ADD309R,0.0450X0.0001*%
%ADD310R,0.0451X0.0002*%
%ADD311R,0.0478X0.0001*%
%ADD312R,0.0449X0.0001*%
%ADD313R,0.0476X0.0001*%
%ADD314R,0.0447X0.0001*%
%ADD315R,0.0474X0.0001*%
%ADD316R,0.0449X0.0002*%
%ADD317R,0.0476X0.0002*%
%ADD318R,0.0454X0.0001*%
%ADD319R,0.0469X0.0002*%
%ADD320R,0.0468X0.0001*%
%ADD321R,0.0467X0.0001*%
%ADD322R,0.0473X0.0002*%
%ADD323R,0.0468X0.0002*%
%ADD324R,0.0486X0.0002*%
%ADD325R,0.0474X0.0002*%
%ADD326R,0.0487X0.0001*%
%ADD327R,0.0497X0.0001*%
%ADD328R,0.0486X0.0001*%
%ADD329R,0.0500X0.0002*%
%ADD330R,0.0487X0.0002*%
%ADD331R,0.0498X0.0001*%
%ADD332R,0.0524X0.0002*%
%ADD333R,0.0524X0.0001*%
%ADD334R,0.0525X0.0001*%
%ADD335R,0.0528X0.0001*%
%ADD336R,0.0529X0.0001*%
%ADD337R,0.0533X0.0001*%
%ADD338R,0.0534X0.0001*%
%ADD339R,0.0523X0.0001*%
%ADD340R,0.0536X0.0001*%
%ADD341R,0.0537X0.0002*%
%ADD342R,0.0527X0.0002*%
%ADD343R,0.0537X0.0001*%
%ADD344R,0.0528X0.0001*%
%ADD345R,0.0539X0.0001*%
%ADD346R,0.0530X0.0001*%
%ADD347R,0.0540X0.0001*%
%ADD348R,0.0541X0.0001*%
%ADD349R,0.0531X0.0001*%
%ADD350R,0.0543X0.0001*%
%ADD351R,0.0544X0.0001*%
%ADD352R,0.0546X0.0002*%
%ADD353R,0.0536X0.0002*%
%ADD354R,0.0547X0.0001*%
%ADD355R,0.0551X0.0001*%
%ADD356R,0.0552X0.0001*%
%ADD357R,0.0554X0.0001*%
%ADD358R,0.0555X0.0001*%
%ADD359R,0.0555X0.0002*%
%ADD360R,0.0547X0.0002*%
%ADD361R,0.0549X0.0001*%
%ADD362R,0.0548X0.0001*%
%ADD363R,0.0538X0.0001*%
%ADD364R,0.0537X0.0001*%
%ADD365R,0.0533X0.0002*%
%ADD366R,0.0531X0.0001*%
%ADD367R,0.0526X0.0001*%
%ADD368R,0.0518X0.0001*%
%ADD369R,0.0498X0.0002*%
%ADD370R,0.0496X0.0002*%
%ADD371R,0.0486X0.0001*%
%ADD372R,0.0485X0.0002*%
%ADD373R,0.0482X0.0001*%
%ADD374R,0.0477X0.0002*%
%ADD375R,0.0530X0.0002*%
%ADD376R,0.0464X0.0002*%
%ADD377R,0.0561X0.0001*%
%ADD378R,0.0570X0.0001*%
%ADD379R,0.0576X0.0001*%
%ADD380R,0.0581X0.0001*%
%ADD381R,0.0585X0.0001*%
%ADD382R,0.0589X0.0001*%
%ADD383R,0.0600X0.0002*%
%ADD384R,0.0614X0.0001*%
%ADD385R,0.0623X0.0001*%
%ADD386R,0.0630X0.0001*%
%ADD387R,0.0633X0.0001*%
%ADD388R,0.0638X0.0001*%
%ADD389R,0.0645X0.0001*%
%ADD390R,0.0657X0.0001*%
%ADD391R,0.0556X0.0001*%
%ADD392R,0.0669X0.0001*%
%ADD393R,0.0674X0.0001*%
%ADD394R,0.0579X0.0001*%
%ADD395R,0.0676X0.0002*%
%ADD396R,0.0585X0.0002*%
%ADD397R,0.0678X0.0001*%
%ADD398R,0.0590X0.0001*%
%ADD399R,0.0679X0.0001*%
%ADD400R,0.0596X0.0001*%
%ADD401R,0.0681X0.0001*%
%ADD402R,0.0606X0.0001*%
%ADD403R,0.0620X0.0001*%
%ADD404R,0.0682X0.0001*%
%ADD405R,0.0633X0.0001*%
%ADD406R,0.0684X0.0001*%
%ADD407R,0.0639X0.0001*%
%ADD408R,0.0649X0.0001*%
%ADD409R,0.0684X0.0001*%
%ADD410R,0.0655X0.0001*%
%ADD411R,0.0683X0.0002*%
%ADD412R,0.0664X0.0002*%
%ADD413R,0.0683X0.0001*%
%ADD414R,0.0670X0.0001*%
%ADD415R,0.0671X0.0001*%
%ADD416R,0.0681X0.0001*%
%ADD417R,0.0672X0.0001*%
%ADD418R,0.0680X0.0001*%
%ADD419R,0.0675X0.0001*%
%ADD420R,0.0676X0.0001*%
%ADD421R,0.0680X0.0002*%
%ADD422R,0.0678X0.0002*%
%ADD423R,0.0678X0.0001*%
%ADD424R,0.0675X0.0002*%
%ADD425R,0.0672X0.0002*%
%ADD426R,0.0672X0.0001*%
%ADD427R,0.0671X0.0002*%
%ADD428R,0.0670X0.0002*%
%ADD429R,0.0669X0.0001*%
%ADD430R,0.0667X0.0001*%
%ADD431R,0.0669X0.0002*%
%ADD432R,0.0667X0.0002*%
%ADD433R,0.0668X0.0001*%
%ADD434R,0.0666X0.0001*%
%ADD435R,0.0668X0.0002*%
%ADD436R,0.0666X0.0002*%
%ADD437R,0.0666X0.0001*%
%ADD438R,0.0664X0.0001*%
%ADD439R,0.0663X0.0001*%
%ADD440R,0.0666X0.0002*%
%ADD441R,0.0663X0.0002*%
%ADD442R,0.0665X0.0001*%
%ADD443R,0.0674X0.0002*%
%ADD444R,0.0677X0.0001*%
%ADD445R,0.0678X0.0002*%
%ADD446R,0.0682X0.0002*%
%ADD447R,0.0686X0.0001*%
%ADD448R,0.0686X0.0002*%
%ADD449R,0.0687X0.0001*%
%ADD450R,0.0689X0.0001*%
%ADD451R,0.0653X0.0001*%
%ADD452R,0.0641X0.0001*%
%ADD453R,0.0626X0.0001*%
%ADD454R,0.0616X0.0001*%
%ADD455R,0.0687X0.0001*%
%ADD456R,0.0612X0.0001*%
%ADD457R,0.0688X0.0001*%
%ADD458R,0.0606X0.0001*%
%ADD459R,0.0601X0.0001*%
%ADD460R,0.0591X0.0002*%
%ADD461R,0.0567X0.0001*%
%ADD462R,0.0560X0.0001*%
%ADD463R,0.0659X0.0001*%
%ADD464R,0.0516X0.0001*%
%ADD465R,0.0639X0.0001*%
%ADD466R,0.0502X0.0002*%
%ADD467R,0.0633X0.0002*%
%ADD468R,0.0608X0.0001*%
%ADD469R,0.0582X0.0001*%
%ADD470R,0.0577X0.0001*%
%ADD471R,0.0569X0.0002*%
%ADD472R,0.0546X0.0001*%
%ADD473R,0.0486X0.0002*%
%ADD474R,0.0493X0.0001*%
%ADD475R,0.0516X0.0002*%
%ADD476R,0.0532X0.0001*%
%ADD477R,0.0534X0.0002*%
%ADD478R,0.0535X0.0002*%
%ADD479R,0.0543X0.0001*%
%ADD480R,0.0553X0.0001*%
%ADD481R,0.0559X0.0001*%
%ADD482R,0.0564X0.0001*%
%ADD483R,0.0564X0.0001*%
%ADD484R,0.0567X0.0001*%
%ADD485R,0.0569X0.0001*%
%ADD486R,0.0570X0.0002*%
%ADD487R,0.0571X0.0002*%
%ADD488R,0.0571X0.0001*%
%ADD489R,0.0573X0.0001*%
%ADD490R,0.0574X0.0001*%
%ADD491R,0.0576X0.0001*%
%ADD492R,0.0600X0.0001*%
%ADD493R,0.0611X0.0001*%
%ADD494R,0.0618X0.0001*%
%ADD495R,0.0621X0.0001*%
%ADD496R,0.1269X0.0001*%
%ADD497R,0.1267X0.0001*%
%ADD498R,0.1266X0.0001*%
%ADD499R,0.1266X0.0002*%
%ADD500R,0.1264X0.0001*%
%ADD501R,0.1261X0.0001*%
%ADD502R,0.1260X0.0001*%
%ADD503R,0.1259X0.0001*%
%ADD504R,0.1256X0.0001*%
%ADD505R,0.1254X0.0001*%
%ADD506R,0.1253X0.0001*%
%ADD507R,0.1251X0.0001*%
%ADD508R,0.1251X0.0002*%
%ADD509R,0.1248X0.0001*%
%ADD510R,0.1245X0.0001*%
%ADD511R,0.1244X0.0001*%
%ADD512R,0.1242X0.0001*%
%ADD513R,0.1239X0.0001*%
%ADD514R,0.1237X0.0001*%
%ADD515R,0.1236X0.0002*%
%ADD516R,0.1233X0.0001*%
%ADD517R,0.1230X0.0001*%
%ADD518R,0.1229X0.0001*%
%ADD519R,0.1227X0.0001*%
%ADD520R,0.1226X0.0001*%
%ADD521R,0.1224X0.0001*%
%ADD522R,0.1223X0.0002*%
%ADD523R,0.1219X0.0001*%
%ADD524R,0.1216X0.0001*%
%ADD525R,0.1215X0.0001*%
%ADD526R,0.1214X0.0001*%
%ADD527R,0.1212X0.0001*%
%ADD528R,0.1209X0.0001*%
%ADD529R,0.1207X0.0002*%
%ADD530R,0.1206X0.0001*%
%ADD531R,0.1204X0.0001*%
%ADD532R,0.1201X0.0001*%
%ADD533R,0.1200X0.0001*%
%ADD534R,0.1199X0.0001*%
%ADD535R,0.1196X0.0001*%
%ADD536R,0.1194X0.0001*%
%ADD537R,0.1193X0.0001*%
%ADD538R,0.1191X0.0001*%
%ADD539R,0.1191X0.0002*%
%ADD540R,0.1188X0.0001*%
%ADD541R,0.1185X0.0001*%
%ADD542R,0.1184X0.0001*%
%ADD543R,0.1181X0.0001*%
%ADD544R,0.1177X0.0001*%
%ADD545R,0.1176X0.0001*%
%ADD546R,0.1174X0.0001*%
%ADD547R,0.1173X0.0001*%
%ADD548R,0.1170X0.0002*%
%ADD549R,0.1170X0.0001*%
%ADD550R,0.1169X0.0001*%
%ADD551R,0.1166X0.0001*%
%ADD552R,0.1164X0.0001*%
%ADD553R,0.1163X0.0001*%
%ADD554R,0.1163X0.0002*%
%ADD555R,0.1167X0.0001*%
%ADD556R,0.1171X0.0001*%
%ADD557R,0.1179X0.0001*%
%ADD558R,0.1182X0.0001*%
%ADD559R,0.1182X0.0002*%
%ADD560R,0.1188X0.0001*%
%ADD561R,0.1190X0.0001*%
%ADD562R,0.1197X0.0001*%
%ADD563R,0.1204X0.0002*%
%ADD564R,0.1207X0.0001*%
%ADD565R,0.1210X0.0001*%
%ADD566R,0.1213X0.0001*%
%ADD567R,0.1217X0.0001*%
%ADD568R,0.1218X0.0001*%
%ADD569R,0.1220X0.0001*%
%ADD570R,0.1221X0.0001*%
%ADD571R,0.1223X0.0001*%
%ADD572R,0.1226X0.0002*%
%ADD573R,0.1236X0.0001*%
%ADD574R,0.1239X0.0001*%
%ADD575R,0.1240X0.0001*%
%ADD576R,0.1243X0.0001*%
%ADD577R,0.1248X0.0002*%
%ADD578R,0.1248X0.0001*%
%ADD579R,0.1251X0.0001*%
%ADD580R,0.1257X0.0001*%
%ADD581R,0.1263X0.0001*%
%ADD582R,0.1267X0.0002*%
%ADD583R,0.1270X0.0001*%
%ADD584R,0.1274X0.0001*%
%ADD585R,0.1275X0.0001*%
%ADD586R,0.1278X0.0001*%
%ADD587R,0.1280X0.0001*%
%ADD588R,0.1281X0.0001*%
%ADD589R,0.1284X0.0001*%
%ADD590R,0.1286X0.0001*%
%ADD591R,0.1289X0.0001*%
%ADD592R,0.1290X0.0002*%
%ADD593R,0.1291X0.0001*%
%ADD594R,0.1294X0.0001*%
%ADD595R,0.1296X0.0001*%
%ADD596R,0.1299X0.0001*%
%ADD597R,0.1300X0.0001*%
%ADD598R,0.1302X0.0001*%
%ADD599R,0.1304X0.0001*%
%ADD600R,0.1306X0.0001*%
%ADD601R,0.1308X0.0001*%
%ADD602R,0.1311X0.0002*%
%ADD603R,0.1313X0.0001*%
%ADD604R,0.1316X0.0001*%
%ADD605R,0.1317X0.0001*%
%ADD606R,0.1320X0.0001*%
%ADD607R,0.1323X0.0001*%
%ADD608R,0.1326X0.0001*%
%ADD609R,0.1329X0.0001*%
%ADD610R,0.1332X0.0002*%
%ADD611R,0.1335X0.0001*%
%ADD612R,0.1336X0.0001*%
%ADD613R,0.1340X0.0001*%
%ADD614R,0.1343X0.0001*%
%ADD615R,0.1346X0.0001*%
%ADD616R,0.1347X0.0001*%
%ADD617R,0.1350X0.0001*%
%ADD618R,0.1353X0.0002*%
%ADD619R,0.1356X0.0001*%
%ADD620R,0.1357X0.0001*%
%ADD621R,0.1360X0.0001*%
%ADD622R,0.1364X0.0001*%
%ADD623R,0.1365X0.0001*%
%ADD624R,0.1368X0.0001*%
%ADD625R,0.1369X0.0001*%
%ADD626R,0.1373X0.0001*%
%ADD627R,0.1374X0.0002*%
%ADD628R,0.1377X0.0001*%
%ADD629R,0.1379X0.0001*%
%ADD630R,0.1380X0.0001*%
%ADD631R,0.1383X0.0001*%
%ADD632R,0.1386X0.0001*%
%ADD633R,0.1387X0.0001*%
%ADD634R,0.1391X0.0001*%
%ADD635R,0.1394X0.0001*%
%ADD636R,0.1395X0.0002*%
%ADD637R,0.1398X0.0001*%
%ADD638R,0.1401X0.0001*%
%ADD639R,0.1403X0.0001*%
%ADD640R,0.1406X0.0001*%
%ADD641R,0.1407X0.0001*%
%ADD642R,0.1409X0.0001*%
%ADD643R,0.1411X0.0001*%
%ADD644R,0.1414X0.0001*%
%ADD645R,0.1416X0.0002*%
%ADD646R,0.1419X0.0001*%
%ADD647R,0.1421X0.0001*%
%ADD648R,0.1422X0.0001*%
%ADD649R,0.1424X0.0001*%
%ADD650R,0.1426X0.0001*%
%ADD651R,0.1428X0.0001*%
%ADD652R,0.1429X0.0002*%
%ADD653R,0.1429X0.0001*%
%ADD654R,0.1425X0.0001*%
%ADD655R,0.1421X0.0002*%
%ADD656R,0.1418X0.0001*%
%ADD657R,0.1416X0.0001*%
%ADD658R,0.1413X0.0001*%
%ADD659R,0.1410X0.0001*%
%ADD660R,0.1404X0.0001*%
%ADD661R,0.1401X0.0001*%
%ADD662R,0.0346X0.0001*%
%ADD663R,0.1044X0.0001*%
%ADD664R,0.0342X0.0002*%
%ADD665R,0.1040X0.0002*%
%ADD666R,0.0337X0.0001*%
%ADD667R,0.1034X0.0001*%
%ADD668R,0.0357X0.0001*%
%ADD669R,0.0660X0.0001*%
%ADD670R,0.0353X0.0001*%
%ADD671R,0.0327X0.0001*%
%ADD672R,0.0349X0.0001*%
%ADD673R,0.0321X0.0001*%
%ADD674R,0.0648X0.0001*%
%ADD675R,0.0344X0.0001*%
%ADD676R,0.0317X0.0001*%
%ADD677R,0.0339X0.0001*%
%ADD678R,0.0312X0.0001*%
%ADD679R,0.0631X0.0001*%
%ADD680R,0.0334X0.0001*%
%ADD681R,0.0309X0.0001*%
%ADD682R,0.0307X0.0002*%
%ADD683R,0.0623X0.0002*%
%ADD684R,0.0327X0.0002*%
%ADD685R,0.0618X0.0001*%
%ADD686R,0.0297X0.0001*%
%ADD687R,0.0607X0.0001*%
%ADD688R,0.0320X0.0001*%
%ADD689R,0.0293X0.0001*%
%ADD690R,0.0599X0.0001*%
%ADD691R,0.0313X0.0001*%
%ADD692R,0.0285X0.0001*%
%ADD693R,0.0584X0.0001*%
%ADD694R,0.0303X0.0001*%
%ADD695R,0.0281X0.0001*%
%ADD696R,0.0273X0.0002*%
%ADD697R,0.0563X0.0002*%
%ADD698R,0.0293X0.0002*%
%ADD699R,0.0264X0.0001*%
%ADD700R,0.0259X0.0001*%
%ADD701R,0.0256X0.0001*%
%ADD702R,0.0276X0.0001*%
%ADD703R,0.0252X0.0001*%
%ADD704R,0.0273X0.0001*%
%ADD705R,0.0248X0.0001*%
%ADD706R,0.0269X0.0001*%
%ADD707R,0.0245X0.0001*%
%ADD708R,0.0240X0.0001*%
%ADD709R,0.0237X0.0002*%
%ADD710R,0.0256X0.0002*%
%ADD711R,0.0234X0.0001*%
%ADD712R,0.0232X0.0001*%
%ADD713R,0.0251X0.0001*%
%ADD714R,0.0228X0.0001*%
%ADD715R,0.0246X0.0001*%
%ADD716R,0.0456X0.0001*%
%ADD717R,0.0219X0.0001*%
%ADD718R,0.0444X0.0001*%
%ADD719R,0.0237X0.0001*%
%ADD720R,0.0214X0.0001*%
%ADD721R,0.0436X0.0001*%
%ADD722R,0.0432X0.0001*%
%ADD723R,0.0231X0.0001*%
%ADD724R,0.0210X0.0001*%
%ADD725R,0.0426X0.0001*%
%ADD726R,0.0420X0.0001*%
%ADD727R,0.0226X0.0001*%
%ADD728R,0.0204X0.0002*%
%ADD729R,0.0409X0.0002*%
%ADD730R,0.0222X0.0002*%
%ADD731R,0.0391X0.0001*%
%ADD732R,0.0217X0.0001*%
%ADD733R,0.0376X0.0001*%
%ADD734R,0.0368X0.0001*%
%ADD735R,0.0189X0.0001*%
%ADD736R,0.0361X0.0001*%
%ADD737R,0.0206X0.0001*%
%ADD738R,0.0186X0.0001*%
%ADD739R,0.0356X0.0001*%
%ADD740R,0.0181X0.0001*%
%ADD741R,0.0345X0.0001*%
%ADD742R,0.0173X0.0001*%
%ADD743R,0.0331X0.0001*%
%ADD744R,0.0190X0.0001*%
%ADD745R,0.0168X0.0001*%
%ADD746R,0.0165X0.0002*%
%ADD747R,0.0162X0.0001*%
%ADD748R,0.0159X0.0001*%
%ADD749R,0.0177X0.0001*%
%ADD750R,0.0156X0.0001*%
%ADD751R,0.0324X0.0001*%
%ADD752R,0.0174X0.0001*%
%ADD753R,0.0167X0.0001*%
%ADD754R,0.0146X0.0001*%
%ADD755R,0.0163X0.0001*%
%ADD756R,0.0141X0.0001*%
%ADD757R,0.0140X0.0001*%
%ADD758R,0.0137X0.0001*%
%ADD759R,0.0133X0.0001*%
%ADD760R,0.0129X0.0002*%
%ADD761R,0.0321X0.0002*%
%ADD762R,0.0146X0.0002*%
%ADD763R,0.0119X0.0001*%
%ADD764R,0.0129X0.0001*%
%ADD765R,0.0111X0.0001*%
%ADD766R,0.0126X0.0001*%
%ADD767R,0.0318X0.0001*%
%ADD768R,0.0097X0.0001*%
%ADD769R,0.0315X0.0001*%
%ADD770R,0.0089X0.0002*%
%ADD771R,0.0315X0.0002*%
%ADD772R,0.0105X0.0002*%
%ADD773R,0.0079X0.0001*%
%ADD774R,0.0089X0.0001*%
%ADD775R,0.0069X0.0001*%
%ADD776R,0.0084X0.0001*%
%ADD777R,0.0057X0.0001*%
%ADD778R,0.0052X0.0002*%
%ADD779R,0.0311X0.0002*%
%ADD780R,0.0066X0.0002*%
%ADD781R,0.0061X0.0001*%
%ADD782R,0.0042X0.0001*%
%ADD783R,0.0055X0.0001*%
%ADD784R,0.0039X0.0001*%
%ADD785R,0.0052X0.0001*%
%ADD786R,0.0036X0.0001*%
%ADD787R,0.0049X0.0001*%
%ADD788R,0.0307X0.0001*%
%ADD789R,0.0045X0.0001*%
%ADD790R,0.0022X0.0001*%
%ADD791R,0.0035X0.0001*%
%ADD792R,0.0025X0.0002*%
%ADD793R,0.0306X0.0001*%
%ADD794R,0.0018X0.0001*%
%ADD795R,0.0008X0.0001*%
%ADD796R,0.0300X0.0002*%
%ADD797R,0.0296X0.0001*%
%ADD798R,0.0294X0.0002*%
%ADD799R,0.0294X0.0001*%
%ADD800R,0.0291X0.0001*%
%ADD801R,0.0291X0.0002*%
%ADD802R,0.0286X0.0001*%
%ADD803R,0.0281X0.0002*%
%ADD804R,0.0277X0.0001*%
%ADD805R,0.0276X0.0001*%
%ADD806R,0.0266X0.0002*%
%ADD807R,0.0264X0.0001*%
%ADD808R,0.0261X0.0001*%
%ADD809R,0.0259X0.0002*%
%ADD810R,0.0254X0.0002*%
%ADD811R,0.0248X0.0002*%
%ADD812R,0.0218X0.0002*%
%ADD813R,0.0157X0.0001*%
%ADD814C,0.0050*%
%ADD815C,0.0040*%
%ADD816C,0.0060*%
%ADD817C,0.0080*%
%ADD818C,0.0030*%
%ADD819R,0.2303X0.0200*%
%ADD820C,0.0020*%
%ADD821R,0.0079X0.0551*%
%ADD822R,0.0760X0.0320*%
%ADD823C,0.0100*%
%ADD824C,0.0000*%
%ADD825R,0.0551X0.0079*%
%ADD826C,0.0160*%
D10*
X005481Y002881D02*
X005481Y032803D01*
X038551Y032803D01*
X038551Y002881D01*
X005481Y002881D01*
D11*
X012589Y012764D03*
X036319Y021767D03*
D12*
X036030Y021196D03*
X036850Y021283D03*
X037168Y021213D03*
X013438Y012210D03*
X013120Y012280D03*
X012300Y012193D03*
D13*
X012300Y012195D03*
X036030Y021198D03*
D14*
X036030Y021199D03*
X012300Y012196D03*
D15*
X012300Y012198D03*
X036030Y021201D03*
D16*
X036030Y021202D03*
X036039Y022641D03*
X012309Y013638D03*
X012300Y012199D03*
D17*
X012300Y012201D03*
X013125Y012289D03*
X036030Y021204D03*
X036855Y021292D03*
D18*
X036856Y021294D03*
X036030Y021205D03*
X013126Y012291D03*
X012300Y012202D03*
D19*
X012300Y012204D03*
X036030Y021207D03*
D20*
X036030Y021208D03*
X012300Y012205D03*
D21*
X012300Y012207D03*
X013438Y012223D03*
X036030Y021210D03*
X037168Y021226D03*
D22*
X036031Y021211D03*
X012300Y012208D03*
D23*
X012301Y012210D03*
X012603Y012291D03*
X013134Y012300D03*
X036031Y021213D03*
X036333Y021294D03*
X036864Y021303D03*
D24*
X036865Y021304D03*
X037167Y021232D03*
X036031Y021214D03*
X013437Y012229D03*
X013135Y012301D03*
X012301Y012211D03*
D25*
X013119Y012283D03*
X013439Y012211D03*
X036850Y021286D03*
X037169Y021214D03*
D26*
X037167Y021234D03*
X036330Y021298D03*
X036031Y021216D03*
X013437Y012231D03*
X012600Y012295D03*
X012301Y012213D03*
D27*
X013438Y012213D03*
X037168Y021216D03*
D28*
X036868Y021309D03*
X036328Y021300D03*
X036031Y021217D03*
X013138Y012306D03*
X012598Y012297D03*
X012301Y012214D03*
D29*
X013439Y012214D03*
X037169Y021217D03*
D30*
X036031Y021219D03*
X012301Y012216D03*
D31*
X013122Y012288D03*
X013439Y012216D03*
X036853Y021291D03*
X037169Y021219D03*
D32*
X036327Y021301D03*
X036031Y021220D03*
X012597Y012298D03*
X012301Y012217D03*
D33*
X012612Y012280D03*
X013439Y012217D03*
X013401Y013642D03*
X036343Y021283D03*
X037169Y021220D03*
X037132Y022645D03*
D34*
X036032Y021222D03*
X012302Y012219D03*
D35*
X013439Y012219D03*
X037169Y021222D03*
D36*
X037165Y021241D03*
X036033Y021223D03*
X013435Y012238D03*
X012303Y012220D03*
D37*
X012609Y012286D03*
X013128Y012292D03*
X013438Y012220D03*
X036339Y021289D03*
X036858Y021295D03*
D38*
X036874Y021316D03*
X036321Y021309D03*
X036033Y021225D03*
X036042Y022615D03*
X013144Y012313D03*
X012591Y012306D03*
X012303Y012222D03*
X012312Y013612D03*
D39*
X012310Y013630D03*
X013438Y012222D03*
X036040Y022633D03*
X037168Y021225D03*
D40*
X037165Y021244D03*
X036319Y021310D03*
X036033Y021226D03*
X037129Y022621D03*
X036571Y022833D03*
X013399Y013618D03*
X012841Y013830D03*
X012589Y012307D03*
X012303Y012223D03*
X013435Y012241D03*
D41*
X012303Y012225D03*
X036034Y021228D03*
D42*
X037168Y021228D03*
X013438Y012225D03*
D43*
X013434Y012243D03*
X013146Y012318D03*
X012303Y012226D03*
X013398Y013617D03*
X036034Y021229D03*
X036877Y021321D03*
X037165Y021246D03*
X037129Y022620D03*
D44*
X037168Y021229D03*
X013438Y012226D03*
D45*
X012304Y012228D03*
X036034Y021231D03*
D46*
X037168Y021231D03*
X036041Y022629D03*
X013437Y012228D03*
X012311Y013626D03*
D47*
X013398Y013612D03*
X013149Y012321D03*
X012303Y012229D03*
X036034Y021232D03*
X036880Y021324D03*
X037129Y022615D03*
D48*
X036034Y021234D03*
X012304Y012231D03*
D49*
X012305Y012232D03*
X012582Y012316D03*
X013152Y012327D03*
X013397Y013609D03*
X036035Y021235D03*
X036313Y021319D03*
X036883Y021330D03*
X037127Y022612D03*
D50*
X037130Y022630D03*
X037166Y021235D03*
X013400Y013627D03*
X013436Y012232D03*
D51*
X012305Y012234D03*
X036035Y021237D03*
D52*
X037166Y021237D03*
X013436Y012234D03*
D53*
X012305Y012235D03*
X012314Y013600D03*
X013397Y013608D03*
X036035Y021238D03*
X036044Y022603D03*
X037127Y022611D03*
D54*
X037130Y022627D03*
X037166Y021238D03*
X013400Y013624D03*
X013436Y012235D03*
D55*
X012305Y012237D03*
X036035Y021240D03*
D56*
X036325Y021303D03*
X037166Y021240D03*
X037130Y022626D03*
X013400Y013623D03*
X013436Y012237D03*
X012594Y012300D03*
D57*
X012306Y012238D03*
X013158Y012333D03*
X036036Y021241D03*
X036888Y021336D03*
D58*
X037162Y021262D03*
X036306Y021328D03*
X036036Y021243D03*
X013432Y012259D03*
X012576Y012325D03*
X012306Y012240D03*
D59*
X012591Y012304D03*
X013434Y012240D03*
X036322Y021307D03*
X037165Y021243D03*
D60*
X036036Y021244D03*
X012306Y012241D03*
D61*
X012306Y012243D03*
X036037Y021246D03*
D62*
X036037Y021247D03*
X036892Y021345D03*
X013161Y012342D03*
X012306Y012244D03*
D63*
X013434Y012244D03*
X037164Y021247D03*
D64*
X036037Y021249D03*
X036046Y022593D03*
X037126Y022600D03*
X013395Y013597D03*
X012315Y013590D03*
X012306Y012246D03*
D65*
X013434Y012246D03*
X013398Y013615D03*
X012312Y013609D03*
X036043Y022612D03*
X037129Y022618D03*
X037165Y021249D03*
D66*
X036037Y021250D03*
X012306Y012247D03*
D67*
X013434Y012247D03*
X037164Y021250D03*
D68*
X036037Y021252D03*
X012307Y012249D03*
D69*
X013434Y012249D03*
X037164Y021252D03*
D70*
X036037Y021253D03*
X012307Y012250D03*
D71*
X013434Y012250D03*
X037164Y021253D03*
D72*
X036038Y021255D03*
X012308Y012252D03*
D73*
X012582Y012318D03*
X013154Y012328D03*
X013433Y012252D03*
X036313Y021321D03*
X036884Y021331D03*
X037163Y021255D03*
D74*
X036038Y021256D03*
X012308Y012253D03*
D75*
X013433Y012253D03*
X037163Y021256D03*
D76*
X037159Y021277D03*
X036039Y021258D03*
X013429Y012274D03*
X012309Y012255D03*
D77*
X013432Y012255D03*
X037162Y021258D03*
D78*
X036039Y021259D03*
X012309Y012256D03*
D79*
X012579Y012321D03*
X013432Y012256D03*
X036309Y021324D03*
X037162Y021259D03*
D80*
X036038Y021261D03*
X037124Y022588D03*
X013394Y013585D03*
X012308Y012258D03*
D81*
X012578Y012322D03*
X013431Y012258D03*
X013397Y013603D03*
X036308Y021325D03*
X037162Y021261D03*
X037127Y022606D03*
D82*
X036040Y021262D03*
X012309Y012259D03*
D83*
X012310Y012261D03*
X012318Y013573D03*
X036040Y021264D03*
X036048Y022576D03*
D84*
X037162Y021264D03*
X013431Y012261D03*
D85*
X013428Y012283D03*
X012310Y012262D03*
X012318Y013572D03*
X012859Y013827D03*
X036040Y021265D03*
X037158Y021286D03*
X036048Y022575D03*
X036589Y022830D03*
D86*
X036891Y021343D03*
X037161Y021265D03*
X013431Y012262D03*
X013161Y012340D03*
D87*
X012310Y012264D03*
X036040Y021267D03*
D88*
X037161Y021267D03*
X013431Y012264D03*
D89*
X012310Y012265D03*
X012318Y013570D03*
X036040Y021268D03*
X036048Y022573D03*
D90*
X037161Y021268D03*
X013431Y012265D03*
D91*
X013427Y012288D03*
X012311Y012267D03*
X013392Y013576D03*
X036041Y021270D03*
X037157Y021291D03*
X037123Y022579D03*
D92*
X037126Y022599D03*
X037160Y021270D03*
X013395Y013596D03*
X013430Y012267D03*
D93*
X012311Y012268D03*
X012318Y013567D03*
X036041Y021271D03*
X036049Y022570D03*
D94*
X037161Y021271D03*
X013431Y012268D03*
D95*
X012312Y012270D03*
X036042Y021273D03*
D96*
X037160Y021273D03*
X013430Y012270D03*
D97*
X013425Y012292D03*
X012312Y012271D03*
X036043Y021274D03*
X037156Y021295D03*
D98*
X037159Y021274D03*
X013429Y012271D03*
D99*
X012312Y012273D03*
X036043Y021276D03*
D100*
X036348Y021276D03*
X012618Y012273D03*
D101*
X013429Y012273D03*
X037159Y021276D03*
D102*
X036043Y021277D03*
X012312Y012274D03*
D103*
X012618Y012274D03*
X036348Y021277D03*
D104*
X036043Y021279D03*
X036049Y022563D03*
X036591Y022825D03*
X012861Y013822D03*
X012319Y013560D03*
X012313Y012276D03*
D105*
X012618Y012276D03*
X036348Y021279D03*
D106*
X037159Y021279D03*
X013429Y012276D03*
D107*
X013424Y012298D03*
X012314Y012277D03*
X036044Y021280D03*
X037154Y021301D03*
D108*
X036346Y021280D03*
X012615Y012277D03*
D109*
X013429Y012277D03*
X012316Y013579D03*
X036046Y022582D03*
X037159Y021280D03*
D110*
X036044Y021282D03*
X012314Y012279D03*
D111*
X012614Y012279D03*
X036344Y021282D03*
D112*
X037159Y021282D03*
X037124Y022587D03*
X013394Y013584D03*
X013428Y012279D03*
D113*
X013423Y012303D03*
X012315Y012280D03*
X036045Y021283D03*
X037153Y021306D03*
D114*
X037159Y021283D03*
X013428Y012280D03*
D115*
X013423Y012304D03*
X012315Y012282D03*
X013389Y013560D03*
X036045Y021285D03*
X037153Y021307D03*
X037119Y022563D03*
D116*
X036040Y022639D03*
X036341Y021285D03*
X012611Y012282D03*
X012309Y013636D03*
D117*
X012309Y013641D03*
X013119Y012282D03*
X036040Y022644D03*
X036850Y021285D03*
D118*
X037159Y021285D03*
X013428Y012282D03*
D119*
X013422Y012306D03*
X012315Y012283D03*
X012860Y013815D03*
X036046Y021286D03*
X037153Y021309D03*
X036590Y022818D03*
D120*
X036340Y021286D03*
X012610Y012283D03*
D121*
X012315Y012285D03*
X013422Y012307D03*
X036046Y021288D03*
X037153Y021310D03*
D122*
X036340Y021288D03*
X012610Y012285D03*
D123*
X013120Y012285D03*
X036850Y021288D03*
D124*
X037158Y021288D03*
X037123Y022582D03*
X013393Y013579D03*
X013428Y012285D03*
D125*
X012316Y012286D03*
X036046Y021289D03*
D126*
X036851Y021289D03*
X013121Y012286D03*
D127*
X013427Y012286D03*
X013392Y013578D03*
X037157Y021289D03*
X037123Y022581D03*
D128*
X037117Y022558D03*
X036589Y022792D03*
X036589Y022794D03*
X036589Y022795D03*
X036589Y022798D03*
X036046Y021291D03*
X013387Y013555D03*
X012859Y013789D03*
X012859Y013791D03*
X012859Y013792D03*
X012859Y013795D03*
X012316Y012288D03*
D129*
X012608Y012288D03*
X013128Y012295D03*
X013401Y013636D03*
X036338Y021291D03*
X036859Y021298D03*
X037132Y022639D03*
D130*
X037117Y022555D03*
X036590Y022785D03*
X037151Y021315D03*
X036047Y021292D03*
X013386Y013552D03*
X012860Y013782D03*
X013421Y012312D03*
X012317Y012289D03*
D131*
X012605Y012289D03*
X013131Y012298D03*
X036335Y021292D03*
X036862Y021301D03*
D132*
X037156Y021292D03*
X037122Y022576D03*
X013392Y013573D03*
X013426Y012289D03*
D133*
X012318Y012291D03*
X036048Y021294D03*
D134*
X037156Y021294D03*
X037121Y022575D03*
X036049Y022567D03*
X013391Y013572D03*
X012318Y013564D03*
X013425Y012291D03*
D135*
X013419Y012316D03*
X012318Y012292D03*
X012324Y013540D03*
X012858Y013761D03*
X012858Y013762D03*
X036049Y021295D03*
X037150Y021319D03*
X036055Y022543D03*
X036589Y022764D03*
X036589Y022765D03*
D136*
X036041Y022627D03*
X036332Y021295D03*
X012602Y012292D03*
X012311Y013624D03*
D137*
X012858Y013749D03*
X012318Y012294D03*
X036049Y021297D03*
X036589Y022752D03*
D138*
X036331Y021297D03*
X012600Y012294D03*
D139*
X013128Y012294D03*
X036859Y021297D03*
D140*
X037156Y021297D03*
X013425Y012294D03*
D141*
X012319Y012295D03*
X012859Y013738D03*
X012859Y013740D03*
X012859Y013741D03*
X012859Y013743D03*
X012859Y013744D03*
X036049Y021298D03*
X036589Y022741D03*
X036589Y022743D03*
X036589Y022744D03*
X036589Y022746D03*
X036589Y022747D03*
D142*
X037155Y021298D03*
X013425Y012295D03*
D143*
X012319Y012297D03*
X012859Y013731D03*
X036049Y021300D03*
X036589Y022734D03*
D144*
X036860Y021300D03*
X013130Y012297D03*
D145*
X013425Y012297D03*
X037155Y021300D03*
D146*
X036049Y021301D03*
X036055Y022540D03*
X037114Y022548D03*
X013384Y013545D03*
X012325Y013537D03*
X012319Y012298D03*
D147*
X012320Y012300D03*
X012326Y013534D03*
X012858Y013714D03*
X012858Y013716D03*
X036050Y021303D03*
X036056Y022537D03*
X036589Y022717D03*
X036589Y022719D03*
D148*
X037154Y021303D03*
X013424Y012300D03*
D149*
X013418Y012325D03*
X012320Y012301D03*
X012326Y013531D03*
X012858Y013693D03*
X012858Y013695D03*
X012858Y013696D03*
X012858Y013698D03*
X012858Y013699D03*
X012858Y013701D03*
X012858Y013702D03*
X013383Y013540D03*
X036050Y021304D03*
X037148Y021328D03*
X037114Y022543D03*
X036589Y022696D03*
X036589Y022698D03*
X036589Y022699D03*
X036589Y022701D03*
X036589Y022702D03*
X036589Y022704D03*
X036589Y022705D03*
X036056Y022534D03*
D150*
X036322Y021304D03*
X012592Y012301D03*
D151*
X013423Y012301D03*
X037153Y021304D03*
D152*
X037147Y021330D03*
X036051Y021306D03*
X013417Y012327D03*
X012321Y012303D03*
D153*
X012591Y012303D03*
X036322Y021306D03*
D154*
X036866Y021306D03*
X036041Y022626D03*
X013136Y012303D03*
X012311Y013623D03*
D155*
X012321Y012304D03*
X036051Y021307D03*
D156*
X036868Y021307D03*
X013137Y012304D03*
D157*
X012321Y012306D03*
X036052Y021309D03*
D158*
X036052Y021310D03*
X036587Y022660D03*
X036587Y022663D03*
X036587Y022665D03*
X037112Y022539D03*
X013382Y013536D03*
X012857Y013657D03*
X012857Y013660D03*
X012857Y013662D03*
X012321Y012307D03*
D159*
X013139Y012307D03*
X013400Y013626D03*
X012311Y013620D03*
X036041Y022623D03*
X037130Y022629D03*
X036869Y021310D03*
D160*
X036052Y021312D03*
X012322Y012309D03*
D161*
X012588Y012309D03*
X036318Y021312D03*
D162*
X036871Y021312D03*
X013140Y012309D03*
D163*
X013422Y012309D03*
X037152Y021312D03*
D164*
X036053Y021313D03*
X036589Y022636D03*
X036589Y022638D03*
X036589Y022639D03*
X012858Y013636D03*
X012858Y013635D03*
X012858Y013633D03*
X012323Y012310D03*
D165*
X012585Y012310D03*
X013148Y012319D03*
X012312Y013608D03*
X036316Y021313D03*
X036878Y021322D03*
X036043Y022611D03*
D166*
X036042Y022620D03*
X036873Y021313D03*
X013143Y012310D03*
X012312Y013617D03*
D167*
X012860Y013788D03*
X013421Y012310D03*
X036590Y022791D03*
X037151Y021313D03*
D168*
X037144Y021340D03*
X036054Y021315D03*
X036588Y022620D03*
X036588Y022621D03*
X036588Y022623D03*
X036588Y022624D03*
X036588Y022626D03*
X013414Y012337D03*
X012324Y012312D03*
X012858Y013617D03*
X012858Y013618D03*
X012858Y013620D03*
X012858Y013621D03*
X012858Y013623D03*
D169*
X012585Y012312D03*
X036315Y021315D03*
D170*
X036874Y021315D03*
X036041Y022618D03*
X013143Y012312D03*
X012311Y013615D03*
D171*
X012856Y013611D03*
X012856Y013609D03*
X012324Y012313D03*
X036054Y021316D03*
X036586Y022612D03*
X036586Y022614D03*
D172*
X037128Y022614D03*
X036043Y022608D03*
X036315Y021316D03*
X013398Y013611D03*
X012313Y013605D03*
X012585Y012313D03*
D173*
X013420Y012313D03*
X013386Y013551D03*
X012859Y013771D03*
X012859Y013773D03*
X012859Y013774D03*
X012324Y013543D03*
X036054Y022546D03*
X036589Y022774D03*
X036589Y022776D03*
X036589Y022777D03*
X037116Y022554D03*
X037150Y021316D03*
D174*
X036054Y021318D03*
X012324Y012315D03*
D175*
X012584Y012315D03*
X036314Y021318D03*
D176*
X036875Y021318D03*
X013145Y012315D03*
D177*
X013420Y012315D03*
X012859Y013765D03*
X012859Y013767D03*
X012859Y013768D03*
X036589Y022768D03*
X036589Y022770D03*
X036589Y022771D03*
X037150Y021318D03*
D178*
X036055Y021319D03*
X012324Y012316D03*
D179*
X013145Y012316D03*
X036875Y021319D03*
D180*
X036055Y021321D03*
X012324Y012318D03*
D181*
X013419Y012318D03*
X012858Y013746D03*
X012858Y013747D03*
X012858Y013750D03*
X012858Y013752D03*
X036589Y022749D03*
X036589Y022750D03*
X036589Y022753D03*
X036589Y022755D03*
X037150Y021321D03*
D182*
X036055Y021322D03*
X036588Y022585D03*
X012858Y013582D03*
X012325Y012319D03*
D183*
X012580Y012319D03*
X013155Y012330D03*
X036310Y021322D03*
X036885Y021333D03*
D184*
X037149Y021322D03*
X013419Y012319D03*
D185*
X012326Y012321D03*
X012330Y013512D03*
X036056Y021324D03*
X036061Y022515D03*
D186*
X036589Y022723D03*
X036589Y022725D03*
X037148Y021324D03*
X013418Y012321D03*
X012858Y013720D03*
X012858Y013722D03*
D187*
X012858Y013579D03*
X012326Y012322D03*
X036056Y021325D03*
X036589Y022582D03*
D188*
X036881Y021325D03*
X013151Y012322D03*
D189*
X013417Y012322D03*
X013384Y013542D03*
X012858Y013711D03*
X012858Y013713D03*
X036588Y022714D03*
X036588Y022716D03*
X037114Y022545D03*
X037147Y021325D03*
D190*
X036056Y021327D03*
X012326Y012324D03*
D191*
X012577Y012324D03*
X036307Y021327D03*
D192*
X036881Y021327D03*
X013151Y012324D03*
D193*
X013417Y012324D03*
X012858Y013704D03*
X036588Y022707D03*
X037147Y021327D03*
D194*
X036056Y021328D03*
X012326Y012325D03*
D195*
X013152Y012325D03*
X012313Y013603D03*
X036043Y022606D03*
X036882Y021328D03*
D196*
X037062Y021348D03*
X037002Y021501D03*
X037000Y021504D03*
X036168Y021435D03*
X036129Y021330D03*
X036171Y021742D03*
X036147Y021769D03*
X013272Y012498D03*
X013270Y012501D03*
X013332Y012345D03*
X012438Y012432D03*
X012399Y012327D03*
X012441Y012739D03*
X012417Y012766D03*
D197*
X012441Y012738D03*
X012443Y012736D03*
X012432Y012424D03*
X012431Y012421D03*
X012429Y012418D03*
X012398Y012328D03*
X012416Y013077D03*
X013268Y013113D03*
X013269Y013111D03*
X013271Y013110D03*
X013272Y012733D03*
X013277Y012490D03*
X013278Y012487D03*
X013278Y012486D03*
X013280Y012483D03*
X036128Y021331D03*
X036160Y021421D03*
X036161Y021424D03*
X036163Y021427D03*
X036173Y021739D03*
X036172Y021741D03*
X036146Y022080D03*
X036998Y022116D03*
X037000Y022114D03*
X037001Y022113D03*
X037003Y021736D03*
X037007Y021493D03*
X037009Y021490D03*
X037009Y021489D03*
X037010Y021486D03*
D198*
X037147Y021331D03*
X013416Y012328D03*
D199*
X013332Y012348D03*
X013281Y012480D03*
X013229Y012619D03*
X013266Y013116D03*
X012450Y013114D03*
X012444Y012733D03*
X012446Y012732D03*
X012495Y012603D03*
X012495Y012601D03*
X012428Y012415D03*
X012398Y012330D03*
X036128Y021333D03*
X036158Y021418D03*
X036226Y021604D03*
X036226Y021606D03*
X036176Y021735D03*
X036175Y021736D03*
X036181Y022117D03*
X036997Y022119D03*
X036959Y021622D03*
X037012Y021483D03*
X037063Y021351D03*
D200*
X037146Y021333D03*
X036588Y022666D03*
X013416Y012330D03*
X012858Y013663D03*
D201*
X012453Y013117D03*
X012451Y013116D03*
X012412Y012768D03*
X012426Y012412D03*
X012426Y012411D03*
X012397Y012331D03*
X013228Y012621D03*
X013282Y012478D03*
X013284Y012477D03*
X013333Y012349D03*
X013264Y013117D03*
X036127Y021334D03*
X036156Y021414D03*
X036156Y021415D03*
X036142Y021771D03*
X036181Y022119D03*
X036183Y022120D03*
X036994Y022120D03*
X036958Y021624D03*
X037012Y021481D03*
X037014Y021480D03*
X037063Y021352D03*
D202*
X036886Y021334D03*
X013156Y012331D03*
D203*
X013414Y012331D03*
X012328Y013527D03*
X036058Y022530D03*
X037144Y021334D03*
D204*
X037018Y021472D03*
X037016Y021474D03*
X037016Y021475D03*
X037015Y021478D03*
X036155Y021412D03*
X036154Y021409D03*
X036127Y021336D03*
X036178Y021733D03*
X036143Y022078D03*
X013287Y012469D03*
X013286Y012471D03*
X013286Y012472D03*
X013284Y012475D03*
X012425Y012409D03*
X012423Y012406D03*
X012396Y012333D03*
X012447Y012730D03*
X012413Y013075D03*
D205*
X012328Y013525D03*
X012858Y013648D03*
X012858Y013650D03*
X012858Y013651D03*
X013381Y013533D03*
X013414Y012333D03*
X036058Y022528D03*
X036588Y022651D03*
X036588Y022653D03*
X036588Y022654D03*
X037111Y022536D03*
X037144Y021336D03*
D206*
X037025Y021459D03*
X036995Y021727D03*
X036185Y022125D03*
X036127Y021339D03*
X036127Y021337D03*
X013265Y012724D03*
X013295Y012456D03*
X012396Y012336D03*
X012396Y012334D03*
X012455Y013122D03*
D207*
X013158Y012334D03*
X036888Y021337D03*
D208*
X037144Y021337D03*
X013414Y012334D03*
D209*
X013158Y012336D03*
X013397Y013602D03*
X036889Y021339D03*
X037127Y022605D03*
D210*
X036588Y022627D03*
X036588Y022629D03*
X036588Y022630D03*
X036588Y022633D03*
X036588Y022635D03*
X037144Y021339D03*
X013414Y012336D03*
X012858Y013624D03*
X012858Y013626D03*
X012858Y013627D03*
X012858Y013630D03*
X012858Y013632D03*
D211*
X012458Y013125D03*
X012456Y013123D03*
X012414Y012391D03*
X012414Y012390D03*
X012413Y012388D03*
X012396Y012337D03*
X013296Y012451D03*
X013298Y012450D03*
X036127Y021340D03*
X036143Y021391D03*
X036145Y021393D03*
X036145Y021394D03*
X037027Y021454D03*
X037028Y021453D03*
X036188Y022128D03*
X036187Y022126D03*
D212*
X036889Y021340D03*
X013158Y012337D03*
D213*
X012396Y012339D03*
X036127Y021342D03*
D214*
X036890Y021342D03*
X013160Y012339D03*
D215*
X013413Y012339D03*
X037144Y021342D03*
D216*
X036142Y021388D03*
X036127Y021345D03*
X036127Y021343D03*
X012411Y012385D03*
X012396Y012342D03*
X012396Y012340D03*
D217*
X013413Y012340D03*
X013380Y013527D03*
X012856Y013593D03*
X012856Y013594D03*
X012856Y013596D03*
X012856Y013597D03*
X036586Y022596D03*
X036586Y022597D03*
X036586Y022599D03*
X036586Y022600D03*
X037110Y022530D03*
X037143Y021343D03*
D218*
X037141Y021345D03*
X036586Y022590D03*
X036060Y022519D03*
X013411Y012342D03*
X012856Y013587D03*
X012330Y013516D03*
D219*
X012457Y012718D03*
X012397Y012343D03*
X036127Y021346D03*
X036187Y021721D03*
D220*
X036892Y021346D03*
X013162Y012343D03*
D221*
X013410Y012343D03*
X013379Y013522D03*
X012330Y013513D03*
X036061Y022516D03*
X037109Y022525D03*
X037141Y021346D03*
D222*
X037040Y021430D03*
X037039Y021433D03*
X037039Y021435D03*
X036959Y021636D03*
X036959Y021637D03*
X036959Y021639D03*
X036959Y021640D03*
X036989Y021718D03*
X036983Y022134D03*
X036188Y021720D03*
X036224Y021625D03*
X036139Y021382D03*
X036139Y021381D03*
X036137Y021379D03*
X036137Y021378D03*
X036127Y021349D03*
X036127Y021348D03*
X013253Y013131D03*
X013259Y012715D03*
X013229Y012637D03*
X013229Y012636D03*
X013229Y012634D03*
X013229Y012633D03*
X013308Y012432D03*
X013308Y012430D03*
X013310Y012427D03*
X012494Y012622D03*
X012458Y012717D03*
X012408Y012379D03*
X012408Y012378D03*
X012407Y012376D03*
X012407Y012375D03*
X012396Y012346D03*
X012396Y012345D03*
D223*
X012429Y012417D03*
X012430Y012420D03*
X012432Y012423D03*
X012444Y012735D03*
X013228Y012618D03*
X013270Y012730D03*
X013272Y012732D03*
X013279Y012484D03*
X013281Y012481D03*
X013332Y012346D03*
X013278Y013105D03*
X013267Y013114D03*
X012858Y013552D03*
X036159Y021420D03*
X036160Y021423D03*
X036162Y021426D03*
X036174Y021738D03*
X036958Y021621D03*
X037000Y021733D03*
X037002Y021735D03*
X037009Y021487D03*
X037011Y021484D03*
X037062Y021349D03*
X037008Y022108D03*
X036997Y022117D03*
X036588Y022555D03*
D224*
X036127Y021354D03*
X036127Y021352D03*
X036127Y021351D03*
X012397Y012351D03*
X012397Y012349D03*
X012397Y012348D03*
D225*
X012495Y012607D03*
X012495Y012610D03*
X013288Y012468D03*
X013290Y012466D03*
X013291Y012465D03*
X013291Y012463D03*
X013333Y012351D03*
X036225Y021610D03*
X036225Y021613D03*
X037018Y021471D03*
X037020Y021469D03*
X037021Y021468D03*
X037021Y021466D03*
X037063Y021354D03*
D226*
X037043Y021424D03*
X037042Y021426D03*
X036982Y022135D03*
X036128Y021361D03*
X036128Y021360D03*
X036128Y021358D03*
X036128Y021355D03*
X013251Y013132D03*
X013311Y012423D03*
X013313Y012421D03*
X012398Y012358D03*
X012398Y012357D03*
X012398Y012355D03*
X012398Y012352D03*
D227*
X012420Y012400D03*
X012422Y012402D03*
X012494Y012612D03*
X012494Y012613D03*
X012450Y012727D03*
X013292Y012462D03*
X013334Y012352D03*
X036151Y021403D03*
X036152Y021405D03*
X036224Y021615D03*
X036224Y021616D03*
X036181Y021730D03*
X037022Y021465D03*
X037064Y021355D03*
D228*
X036128Y021357D03*
X012398Y012354D03*
D229*
X013229Y012624D03*
X013334Y012354D03*
X036959Y021627D03*
X037064Y021357D03*
D230*
X037065Y021358D03*
X036225Y021618D03*
X036183Y021726D03*
X036183Y021727D03*
X036181Y021729D03*
X036148Y021400D03*
X036990Y022126D03*
X036991Y022125D03*
X036588Y022554D03*
X013261Y013122D03*
X013260Y013123D03*
X012858Y013551D03*
X012451Y012726D03*
X012453Y012724D03*
X012453Y012723D03*
X012495Y012615D03*
X012418Y012397D03*
X013335Y012355D03*
D231*
X013334Y012357D03*
X013229Y012625D03*
X013229Y012627D03*
X013262Y012720D03*
X013263Y012721D03*
X013259Y013125D03*
X012494Y012618D03*
X012494Y012616D03*
X012417Y012396D03*
X012416Y012394D03*
X036146Y021397D03*
X036148Y021399D03*
X036224Y021619D03*
X036224Y021621D03*
X036959Y021628D03*
X036959Y021630D03*
X036992Y021723D03*
X036994Y021724D03*
X037064Y021360D03*
X036989Y022128D03*
D232*
X036988Y022129D03*
X036987Y022131D03*
X037018Y022104D03*
X037030Y021448D03*
X037032Y021445D03*
X037033Y021444D03*
X037065Y021361D03*
X036184Y021724D03*
X013288Y013101D03*
X013258Y013126D03*
X013257Y013128D03*
X013300Y012445D03*
X013302Y012442D03*
X013303Y012441D03*
X013335Y012358D03*
X012454Y012721D03*
D233*
X012461Y012712D03*
X012494Y012625D03*
X012404Y012370D03*
X012401Y012366D03*
X012399Y012363D03*
X012399Y012361D03*
X012399Y012360D03*
X012464Y013131D03*
X013229Y012642D03*
X013229Y012640D03*
X036130Y021363D03*
X036130Y021364D03*
X036130Y021366D03*
X036131Y021369D03*
X036134Y021373D03*
X036224Y021628D03*
X036191Y021715D03*
X036194Y022134D03*
X036959Y021645D03*
X036959Y021643D03*
D234*
X036990Y021720D03*
X037059Y021793D03*
X036985Y022132D03*
X037036Y021439D03*
X037036Y021438D03*
X037038Y021436D03*
X037066Y021363D03*
X036139Y021384D03*
X036135Y022075D03*
X036192Y022132D03*
X013255Y013129D03*
X013329Y012790D03*
X013260Y012717D03*
X013306Y012436D03*
X013306Y012435D03*
X013308Y012433D03*
X013336Y012360D03*
X012409Y012381D03*
X012405Y013072D03*
X012462Y013129D03*
D235*
X012459Y012715D03*
X012406Y012373D03*
X012405Y012372D03*
X013311Y012424D03*
X013311Y012426D03*
X013336Y012363D03*
X013336Y012361D03*
X013257Y012712D03*
X036135Y021375D03*
X036136Y021376D03*
X036189Y021718D03*
X036987Y021715D03*
X037041Y021429D03*
X037041Y021427D03*
X037066Y021366D03*
X037066Y021364D03*
D236*
X037066Y021367D03*
X037050Y021414D03*
X037048Y021415D03*
X037047Y021418D03*
X037045Y021421D03*
X036960Y021646D03*
X036985Y021714D03*
X036979Y022138D03*
X036978Y022140D03*
X036588Y022552D03*
X036196Y022135D03*
X036192Y021714D03*
X036132Y021370D03*
X036130Y021367D03*
X013249Y013135D03*
X013248Y013137D03*
X013255Y012711D03*
X013230Y012643D03*
X013315Y012418D03*
X013317Y012415D03*
X013318Y012412D03*
X013320Y012411D03*
X013336Y012364D03*
X012402Y012367D03*
X012400Y012364D03*
X012462Y012711D03*
X012466Y013132D03*
X012858Y013549D03*
D237*
X012468Y013135D03*
X012494Y012628D03*
X012494Y012627D03*
X013229Y012645D03*
X013316Y012417D03*
X013320Y012409D03*
X013335Y012367D03*
X013335Y012366D03*
X036224Y021630D03*
X036224Y021631D03*
X036199Y022138D03*
X036959Y021648D03*
X037046Y021420D03*
X037051Y021412D03*
X037066Y021370D03*
X037066Y021369D03*
D238*
X036224Y021627D03*
X036190Y021717D03*
X036133Y021372D03*
X036980Y022137D03*
X013250Y013134D03*
X012459Y012714D03*
X012494Y012624D03*
X012402Y012369D03*
D239*
X013335Y012369D03*
X037066Y021372D03*
D240*
X037066Y021373D03*
X037066Y021375D03*
X036224Y021634D03*
X036224Y021636D03*
X036194Y021712D03*
X013335Y012372D03*
X013335Y012370D03*
X012494Y012631D03*
X012494Y012633D03*
X012464Y012709D03*
D241*
X012493Y012636D03*
X012493Y012634D03*
X013230Y012648D03*
X013335Y012792D03*
X013335Y012378D03*
X013335Y012376D03*
X013335Y012375D03*
X013335Y012373D03*
X036223Y021637D03*
X036223Y021639D03*
X036960Y021651D03*
X037065Y021795D03*
X037065Y021381D03*
X037065Y021379D03*
X037065Y021378D03*
X037065Y021376D03*
D242*
X037064Y021382D03*
X037064Y021384D03*
X037064Y021385D03*
X036959Y021652D03*
X036974Y022143D03*
X036196Y021711D03*
X036224Y021640D03*
X013244Y013140D03*
X013229Y012649D03*
X013334Y012382D03*
X013334Y012381D03*
X013334Y012379D03*
X012494Y012637D03*
X012465Y012708D03*
D243*
X012405Y012769D03*
X012494Y012621D03*
X012494Y012619D03*
X012410Y012382D03*
X012459Y013128D03*
X013260Y012718D03*
X013229Y012631D03*
X013229Y012630D03*
X013229Y012628D03*
X013299Y012447D03*
X013304Y012439D03*
X013305Y012438D03*
X036140Y021385D03*
X036224Y021622D03*
X036224Y021624D03*
X036136Y021772D03*
X036190Y022131D03*
X036991Y021721D03*
X036959Y021634D03*
X036959Y021633D03*
X036959Y021631D03*
X037030Y021450D03*
X037034Y021442D03*
X037036Y021441D03*
D244*
X036141Y021387D03*
X012411Y012384D03*
D245*
X013333Y012384D03*
X037063Y021387D03*
D246*
X037063Y021388D03*
X037063Y021390D03*
X037061Y021391D03*
X037061Y021393D03*
X037060Y021394D03*
X037058Y021396D03*
X037057Y021399D03*
X036980Y021709D03*
X036982Y021711D03*
X036203Y022143D03*
X013251Y012708D03*
X013250Y012706D03*
X013326Y012396D03*
X013328Y012393D03*
X013329Y012391D03*
X013331Y012390D03*
X013331Y012388D03*
X013332Y012387D03*
X013332Y012385D03*
X012473Y013140D03*
D247*
X012459Y013126D03*
X012456Y012720D03*
X012412Y012387D03*
X013299Y012448D03*
X036142Y021390D03*
X036186Y021723D03*
X036189Y022129D03*
X037029Y021451D03*
D248*
X037026Y021456D03*
X037026Y021457D03*
X037024Y021460D03*
X036994Y021726D03*
X036145Y021396D03*
X013264Y012723D03*
X013294Y012457D03*
X013296Y012454D03*
X013296Y012453D03*
X012415Y012393D03*
D249*
X013324Y012400D03*
X013326Y012397D03*
X013327Y012394D03*
X037054Y021403D03*
X037056Y021400D03*
X037057Y021397D03*
D250*
X036150Y021402D03*
X012420Y012399D03*
D251*
X013325Y012399D03*
X037055Y021402D03*
D252*
X037054Y021405D03*
X037054Y021406D03*
X037027Y022102D03*
X036202Y022141D03*
X036128Y021774D03*
X013296Y013099D03*
X013323Y012403D03*
X013323Y012402D03*
X012398Y012771D03*
X012471Y013138D03*
D253*
X012454Y013120D03*
X012424Y012408D03*
X012423Y012405D03*
X012423Y012403D03*
X013293Y012460D03*
X013266Y012726D03*
X013267Y012727D03*
X013284Y013102D03*
X013263Y013120D03*
X036153Y021406D03*
X036153Y021408D03*
X036154Y021411D03*
X036184Y022123D03*
X036993Y022123D03*
X037014Y022105D03*
X036997Y021730D03*
X036996Y021729D03*
X037023Y021463D03*
D254*
X037051Y021411D03*
X037053Y021409D03*
X037053Y021408D03*
X036960Y021649D03*
X036976Y022141D03*
X036223Y021633D03*
X013246Y013138D03*
X013230Y012646D03*
X013321Y012408D03*
X013323Y012406D03*
X013323Y012405D03*
X012493Y012630D03*
D255*
X012428Y012414D03*
X013320Y012789D03*
X013280Y013104D03*
X036158Y021417D03*
X037051Y021792D03*
X037010Y022107D03*
D256*
X037048Y021417D03*
X013318Y012414D03*
D257*
X013314Y012420D03*
X037044Y021423D03*
D258*
X036959Y021618D03*
X036959Y021619D03*
X037004Y021738D03*
X036226Y021603D03*
X036164Y021429D03*
X036179Y022114D03*
X013274Y012735D03*
X013229Y012616D03*
X013229Y012615D03*
X012495Y012600D03*
X012434Y012426D03*
X012449Y013111D03*
D259*
X012448Y013110D03*
X012496Y012598D03*
X012435Y012427D03*
X013228Y012612D03*
X013228Y012613D03*
X013273Y012496D03*
X013273Y012495D03*
X013275Y012493D03*
X013276Y012492D03*
X013275Y012736D03*
X013276Y012738D03*
X013275Y013107D03*
X013273Y013108D03*
X036165Y021430D03*
X036226Y021601D03*
X036178Y022113D03*
X037003Y022111D03*
X037005Y022110D03*
X037006Y021741D03*
X037005Y021739D03*
X036958Y021616D03*
X036958Y021615D03*
X037003Y021499D03*
X037003Y021498D03*
X037005Y021496D03*
X037006Y021495D03*
D260*
X036166Y021432D03*
X012436Y012429D03*
D261*
X013230Y012639D03*
X013258Y012714D03*
X013309Y012429D03*
X037039Y021432D03*
X036960Y021642D03*
X036988Y021717D03*
D262*
X037007Y021742D03*
X036959Y021613D03*
X036167Y021433D03*
X013277Y012739D03*
X013229Y012610D03*
X012437Y012430D03*
D263*
X012438Y012433D03*
X012438Y012435D03*
X012440Y012438D03*
X012440Y012741D03*
X012446Y013108D03*
X013268Y012505D03*
X013269Y012502D03*
X013271Y012499D03*
X036169Y021436D03*
X036169Y021438D03*
X036170Y021441D03*
X036170Y021744D03*
X036176Y022111D03*
X036998Y021508D03*
X037000Y021505D03*
X037001Y021502D03*
D264*
X036997Y021510D03*
X036997Y021511D03*
X036171Y021442D03*
X036169Y021439D03*
X036169Y021745D03*
X036175Y022110D03*
X013267Y012508D03*
X013267Y012507D03*
X012441Y012439D03*
X012439Y012436D03*
X012439Y012742D03*
X012445Y013107D03*
D265*
X012442Y013102D03*
X012442Y012441D03*
X013266Y012510D03*
X036172Y021444D03*
X036172Y022105D03*
X036996Y021513D03*
D266*
X037012Y021748D03*
X036173Y021445D03*
X036172Y022104D03*
X013281Y012745D03*
X012443Y012442D03*
X012441Y013101D03*
D267*
X012443Y012444D03*
X036173Y021447D03*
D268*
X037031Y021447D03*
X013301Y012444D03*
D269*
X013265Y012511D03*
X013263Y012514D03*
X013262Y012517D03*
X013260Y012520D03*
X013259Y012522D03*
X013227Y012604D03*
X013314Y012787D03*
X012495Y012591D03*
X012495Y012589D03*
X012446Y012450D03*
X012444Y012447D03*
X012444Y012445D03*
X012435Y012748D03*
X012422Y012763D03*
X012440Y013099D03*
X012858Y013555D03*
X036175Y021448D03*
X036175Y021450D03*
X036176Y021453D03*
X036226Y021592D03*
X036226Y021594D03*
X036166Y021751D03*
X036152Y021766D03*
X036170Y022102D03*
X036589Y022558D03*
X037045Y021790D03*
X036958Y021607D03*
X036989Y021525D03*
X036991Y021523D03*
X036992Y021520D03*
X036994Y021517D03*
X036995Y021514D03*
D270*
X036988Y021526D03*
X036987Y021528D03*
X036987Y021529D03*
X036985Y021531D03*
X036957Y021604D03*
X036957Y021606D03*
X036180Y021457D03*
X036178Y021456D03*
X036177Y021454D03*
X036175Y021451D03*
X036165Y021753D03*
X013227Y012603D03*
X013227Y012601D03*
X013255Y012528D03*
X013257Y012526D03*
X013257Y012525D03*
X013258Y012523D03*
X012450Y012454D03*
X012448Y012453D03*
X012447Y012451D03*
X012445Y012448D03*
X012435Y012750D03*
D271*
X012434Y012751D03*
X012432Y012754D03*
X012425Y012762D03*
X012495Y012588D03*
X012495Y012586D03*
X012453Y012462D03*
X012452Y012457D03*
X012450Y012456D03*
X012437Y013096D03*
X012438Y013098D03*
X013283Y012750D03*
X013283Y012748D03*
X013254Y012531D03*
X013254Y012529D03*
X036181Y021459D03*
X036182Y021460D03*
X036184Y021465D03*
X036226Y021589D03*
X036226Y021591D03*
X036164Y021754D03*
X036163Y021757D03*
X036155Y021765D03*
X036167Y022099D03*
X036169Y022101D03*
X037013Y021753D03*
X037013Y021751D03*
X036985Y021534D03*
X036985Y021532D03*
D272*
X036983Y021537D03*
X036182Y021462D03*
X013253Y012534D03*
X012452Y012459D03*
D273*
X013293Y012459D03*
X037024Y021462D03*
D274*
X036984Y021535D03*
X036957Y021603D03*
X037014Y021754D03*
X037015Y021756D03*
X037015Y021757D03*
X036226Y021588D03*
X036184Y021468D03*
X036184Y021466D03*
X036183Y021463D03*
X036163Y021756D03*
X036162Y021759D03*
X036165Y022095D03*
X036166Y022096D03*
X036166Y022098D03*
X013285Y012754D03*
X013285Y012753D03*
X013284Y012751D03*
X013227Y012600D03*
X013254Y012532D03*
X012496Y012585D03*
X012454Y012465D03*
X012454Y012463D03*
X012453Y012460D03*
X012433Y012753D03*
X012432Y012756D03*
X012435Y013092D03*
X012436Y013093D03*
X012436Y013095D03*
D275*
X012434Y013090D03*
X012431Y012757D03*
X012497Y012583D03*
X012455Y012466D03*
X013227Y012598D03*
X013286Y012756D03*
X012858Y013557D03*
X036185Y021469D03*
X036227Y021586D03*
X036161Y021760D03*
X036164Y022093D03*
X036589Y022560D03*
X037016Y021759D03*
X036958Y021601D03*
D276*
X036982Y021541D03*
X036187Y021471D03*
X013251Y012538D03*
X012456Y012468D03*
D277*
X012457Y012469D03*
X012427Y013080D03*
X013311Y012786D03*
X036187Y021472D03*
X036157Y022083D03*
X037041Y021789D03*
D278*
X036188Y021474D03*
X012458Y012471D03*
D279*
X012459Y012472D03*
X012460Y012475D03*
X012429Y013081D03*
X012430Y013083D03*
X013240Y012556D03*
X013240Y012555D03*
X036189Y021475D03*
X036190Y021478D03*
X036159Y022084D03*
X036160Y022086D03*
X036970Y021559D03*
X036970Y021558D03*
D280*
X036190Y021477D03*
X012460Y012474D03*
D281*
X012453Y013119D03*
X013263Y013119D03*
X013284Y012474D03*
X036184Y022122D03*
X036994Y022122D03*
X037015Y021477D03*
D282*
X036970Y021561D03*
X036970Y021562D03*
X036968Y021565D03*
X036229Y021580D03*
X036191Y021480D03*
X013239Y012559D03*
X013239Y012558D03*
X013238Y012562D03*
X012498Y012577D03*
X012461Y012477D03*
D283*
X012462Y012478D03*
X013242Y012553D03*
X013288Y012760D03*
X036192Y021481D03*
X036972Y021556D03*
X037018Y021763D03*
D284*
X037019Y021765D03*
X037021Y021766D03*
X037021Y021768D03*
X037037Y021787D03*
X036958Y021595D03*
X036958Y021594D03*
X036194Y021484D03*
X036193Y021483D03*
X013307Y012784D03*
X013290Y012765D03*
X013290Y012763D03*
X013289Y012762D03*
X013227Y012592D03*
X013227Y012591D03*
X012464Y012481D03*
X012462Y012480D03*
D285*
X012465Y012483D03*
X012466Y012484D03*
X013291Y012766D03*
X036195Y021486D03*
X036196Y021487D03*
X037021Y021769D03*
D286*
X037022Y021771D03*
X036958Y021591D03*
X036958Y021589D03*
X036958Y021586D03*
X036964Y021573D03*
X036967Y021568D03*
X036229Y021574D03*
X036229Y021576D03*
X036229Y021577D03*
X036200Y021495D03*
X036199Y021493D03*
X036197Y021489D03*
X013292Y012768D03*
X013227Y012588D03*
X013227Y012586D03*
X013227Y012583D03*
X013233Y012570D03*
X013236Y012565D03*
X012498Y012571D03*
X012498Y012573D03*
X012498Y012574D03*
X012470Y012492D03*
X012468Y012490D03*
X012467Y012486D03*
D287*
X012468Y012487D03*
X012498Y012576D03*
X013227Y012589D03*
X013236Y012567D03*
X013239Y012561D03*
X012859Y013558D03*
X036198Y021490D03*
X036228Y021579D03*
X036957Y021592D03*
X036966Y021570D03*
X036969Y021564D03*
X036589Y022561D03*
D288*
X036199Y021492D03*
X012468Y012489D03*
D289*
X013278Y012489D03*
X037008Y021492D03*
D290*
X036964Y021571D03*
X036963Y021574D03*
X036961Y021576D03*
X036958Y021583D03*
X036958Y021585D03*
X036957Y021588D03*
X037023Y021772D03*
X037024Y021774D03*
X036201Y021498D03*
X036201Y021496D03*
X013294Y012771D03*
X013293Y012769D03*
X013227Y012585D03*
X013228Y012582D03*
X013228Y012580D03*
X013231Y012573D03*
X013233Y012571D03*
X013234Y012568D03*
X012471Y012495D03*
X012471Y012493D03*
D291*
X012471Y012496D03*
X012498Y012568D03*
X012498Y012570D03*
X013295Y012772D03*
X013296Y012775D03*
X013298Y012777D03*
X013299Y012778D03*
X013301Y012780D03*
X013302Y012781D03*
X036202Y021499D03*
X036229Y021571D03*
X036229Y021573D03*
X037025Y021775D03*
X037027Y021778D03*
X037028Y021780D03*
X037030Y021781D03*
X037031Y021783D03*
X037033Y021784D03*
D292*
X036204Y021502D03*
X036202Y021501D03*
X012474Y012499D03*
X012472Y012498D03*
D293*
X012474Y012501D03*
X012474Y012502D03*
X012476Y012505D03*
X012498Y012567D03*
X036205Y021504D03*
X036205Y021505D03*
X036206Y021508D03*
X036229Y021570D03*
D294*
X036206Y021507D03*
X012476Y012504D03*
D295*
X013269Y012504D03*
X037000Y021507D03*
D296*
X036207Y021510D03*
X012477Y012507D03*
D297*
X012478Y012508D03*
X012480Y012510D03*
X036208Y021511D03*
X036210Y021513D03*
D298*
X036211Y021514D03*
X036212Y021516D03*
X036212Y021517D03*
X012482Y012514D03*
X012482Y012513D03*
X012480Y012511D03*
D299*
X012496Y012592D03*
X012436Y012747D03*
X012421Y013078D03*
X013263Y012516D03*
X013264Y012513D03*
X036226Y021595D03*
X036166Y021750D03*
X036151Y022081D03*
X036993Y021519D03*
X036994Y021516D03*
D300*
X036213Y021519D03*
X012483Y012516D03*
D301*
X012483Y012517D03*
X012498Y012565D03*
X036214Y021520D03*
X036229Y021568D03*
D302*
X036229Y021567D03*
X036214Y021522D03*
X012499Y012564D03*
X012484Y012519D03*
D303*
X013261Y012519D03*
X036991Y021522D03*
D304*
X036217Y021525D03*
X036215Y021523D03*
X012486Y012522D03*
X012485Y012520D03*
D305*
X012487Y012523D03*
X036217Y021526D03*
D306*
X036218Y021528D03*
X036218Y021529D03*
X012488Y012526D03*
X012488Y012525D03*
D307*
X012489Y012528D03*
X012490Y012531D03*
X012499Y012556D03*
X012499Y012558D03*
X036219Y021531D03*
X036220Y021534D03*
X036229Y021559D03*
X036229Y021561D03*
D308*
X036230Y021562D03*
X036220Y021532D03*
X012500Y012559D03*
X012489Y012529D03*
D309*
X012491Y012532D03*
X012492Y012535D03*
X012494Y012537D03*
X012500Y012553D03*
X012500Y012555D03*
X036221Y021535D03*
X036223Y021538D03*
X036224Y021540D03*
X036230Y021556D03*
X036230Y021558D03*
D310*
X036222Y021537D03*
X012492Y012534D03*
D311*
X012427Y012760D03*
X013252Y012537D03*
X013252Y012535D03*
X036157Y021763D03*
X036982Y021540D03*
X036982Y021538D03*
D312*
X036229Y021550D03*
X036228Y021547D03*
X036228Y021546D03*
X036226Y021543D03*
X036225Y021541D03*
X036229Y021553D03*
X036229Y021555D03*
X012499Y012552D03*
X012499Y012550D03*
X012499Y012547D03*
X012498Y012544D03*
X012498Y012543D03*
X012496Y012540D03*
X012495Y012538D03*
D313*
X012432Y013086D03*
X012433Y013087D03*
X013287Y012757D03*
X013227Y012597D03*
X013243Y012550D03*
X013246Y012546D03*
X013248Y012543D03*
X013249Y012541D03*
X013249Y012540D03*
X036162Y022089D03*
X036163Y022090D03*
X037017Y021760D03*
X036957Y021600D03*
X036973Y021553D03*
X036976Y021549D03*
X036978Y021546D03*
X036979Y021544D03*
X036979Y021543D03*
D314*
X036229Y021549D03*
X036227Y021544D03*
X012498Y012546D03*
X012497Y012541D03*
D315*
X012497Y012580D03*
X012497Y012582D03*
X012431Y013084D03*
X013227Y012595D03*
X013242Y012552D03*
X013245Y012547D03*
X013247Y012544D03*
X036227Y021583D03*
X036227Y021585D03*
X036161Y022087D03*
X036958Y021598D03*
X036973Y021555D03*
X036976Y021550D03*
X036977Y021547D03*
D316*
X036229Y021552D03*
X012499Y012549D03*
D317*
X013245Y012549D03*
X036975Y021552D03*
D318*
X036229Y021564D03*
X036229Y021565D03*
X012499Y012562D03*
X012499Y012561D03*
D319*
X013237Y012564D03*
X036967Y021567D03*
D320*
X036961Y021577D03*
X013230Y012574D03*
D321*
X013230Y012576D03*
X013230Y012577D03*
X013305Y012783D03*
X036960Y021579D03*
X036960Y021580D03*
X037035Y021786D03*
D322*
X036228Y021582D03*
X012498Y012579D03*
D323*
X013229Y012579D03*
X036959Y021582D03*
D324*
X036226Y021597D03*
X036169Y021747D03*
X012438Y012744D03*
X012495Y012594D03*
D325*
X013227Y012594D03*
X013287Y012759D03*
X036958Y021597D03*
X037018Y021762D03*
D326*
X036958Y021610D03*
X036226Y021600D03*
X036226Y021598D03*
X013228Y012607D03*
X012496Y012597D03*
X012496Y012595D03*
D327*
X012495Y012604D03*
X012495Y012606D03*
X036225Y021607D03*
X036225Y021609D03*
D328*
X036167Y021748D03*
X036151Y021768D03*
X036958Y021609D03*
X037009Y021744D03*
X013278Y012741D03*
X013227Y012606D03*
X012437Y012745D03*
X012420Y012765D03*
D329*
X012495Y012609D03*
X036225Y021612D03*
D330*
X036958Y021612D03*
X036588Y022557D03*
X013228Y012609D03*
X012858Y013554D03*
D331*
X013229Y012622D03*
X036959Y021625D03*
D332*
X036223Y021642D03*
X012493Y012639D03*
D333*
X012493Y012640D03*
X012858Y013548D03*
X036223Y021643D03*
X036588Y022551D03*
D334*
X036124Y021775D03*
X036197Y021709D03*
X036223Y021645D03*
X036959Y021655D03*
X036979Y021708D03*
X013248Y012705D03*
X013229Y012652D03*
X012492Y012642D03*
X012467Y012706D03*
X012393Y012772D03*
D335*
X012470Y012703D03*
X012492Y012645D03*
X012492Y012643D03*
X012477Y013143D03*
X013241Y013143D03*
X036200Y021706D03*
X036223Y021648D03*
X036223Y021646D03*
X036208Y022146D03*
X036971Y022146D03*
D336*
X036969Y022147D03*
X036588Y022549D03*
X036201Y021705D03*
X036222Y021649D03*
X013239Y013144D03*
X012858Y013546D03*
X012471Y012702D03*
X012492Y012646D03*
D337*
X012492Y012648D03*
X012492Y012649D03*
X012480Y013147D03*
X013308Y013096D03*
X013230Y012666D03*
X013230Y012664D03*
X036222Y021651D03*
X036222Y021652D03*
X036210Y022150D03*
X037038Y022099D03*
X036960Y021669D03*
X036960Y021667D03*
D338*
X036959Y021670D03*
X036223Y021654D03*
X013229Y012667D03*
X012492Y012651D03*
D339*
X013230Y012651D03*
X036960Y021654D03*
D340*
X036960Y021673D03*
X037075Y021799D03*
X036222Y021655D03*
X036117Y021778D03*
X036588Y022548D03*
X013345Y012796D03*
X013230Y012670D03*
X012492Y012652D03*
X012387Y012775D03*
X012858Y013545D03*
D341*
X012492Y012654D03*
X036223Y021657D03*
D342*
X036960Y021657D03*
X013230Y012654D03*
D343*
X013239Y012697D03*
X012492Y012655D03*
X012477Y012697D03*
X036223Y021658D03*
X036208Y021700D03*
X036970Y021700D03*
D344*
X036959Y021660D03*
X036959Y021658D03*
X013229Y012657D03*
X013229Y012655D03*
D345*
X013230Y012672D03*
X013233Y013150D03*
X012858Y013543D03*
X012384Y012777D03*
X012493Y012658D03*
X012493Y012657D03*
X036114Y021780D03*
X036223Y021661D03*
X036223Y021660D03*
X036960Y021675D03*
X036963Y022153D03*
X036588Y022546D03*
D346*
X036208Y022147D03*
X036975Y021703D03*
X036960Y021663D03*
X036960Y021661D03*
X013245Y012700D03*
X013230Y012660D03*
X013230Y012658D03*
X012478Y013144D03*
D347*
X012485Y013150D03*
X012479Y012696D03*
X012480Y012694D03*
X012482Y012693D03*
X012492Y012660D03*
X013230Y012673D03*
X013235Y012693D03*
X036223Y021663D03*
X036212Y021696D03*
X036211Y021697D03*
X036209Y021699D03*
X036215Y022153D03*
X036965Y021696D03*
X036961Y021676D03*
D348*
X036960Y021678D03*
X036964Y021694D03*
X037044Y022096D03*
X036961Y022155D03*
X036114Y022071D03*
X036223Y021666D03*
X036223Y021664D03*
X013314Y013093D03*
X013231Y013152D03*
X013234Y012691D03*
X013230Y012675D03*
X012493Y012663D03*
X012493Y012661D03*
X012384Y013068D03*
D349*
X012390Y013069D03*
X012479Y013146D03*
X013229Y012663D03*
X013229Y012661D03*
X036121Y022072D03*
X036209Y022149D03*
X036959Y021666D03*
X036959Y021664D03*
D350*
X036223Y021667D03*
X036223Y021669D03*
X036214Y021694D03*
X012483Y012691D03*
X012492Y012666D03*
X012492Y012664D03*
D351*
X012492Y012667D03*
X013230Y012676D03*
X013230Y012678D03*
X013233Y012690D03*
X013350Y012798D03*
X013230Y013153D03*
X012858Y013542D03*
X036222Y021670D03*
X036960Y021679D03*
X036960Y021681D03*
X036963Y021693D03*
X037080Y021801D03*
X036960Y022156D03*
X036588Y022545D03*
D352*
X036223Y021672D03*
X012492Y012669D03*
D353*
X012475Y012699D03*
X013230Y012669D03*
X036205Y021702D03*
X036960Y021672D03*
D354*
X036960Y021682D03*
X036960Y021684D03*
X036960Y021685D03*
X036960Y021688D03*
X036961Y021691D03*
X036222Y021675D03*
X036222Y021673D03*
X013231Y012688D03*
X013230Y012685D03*
X013230Y012682D03*
X013230Y012681D03*
X013230Y012679D03*
X012492Y012672D03*
X012492Y012670D03*
D355*
X012492Y012673D03*
X012492Y012675D03*
X012489Y012688D03*
X012379Y013066D03*
X012492Y013156D03*
X036222Y021676D03*
X036222Y021678D03*
X036219Y021691D03*
X036109Y022069D03*
X036222Y022159D03*
D356*
X036589Y022543D03*
X036953Y022161D03*
X036220Y021690D03*
X036221Y021681D03*
X036221Y021679D03*
X013223Y013158D03*
X012858Y013540D03*
X012489Y012687D03*
X012491Y012678D03*
X012491Y012676D03*
D357*
X012492Y012679D03*
X012492Y012681D03*
X012490Y012685D03*
X036222Y021682D03*
X036222Y021684D03*
X036220Y021688D03*
D358*
X036221Y021685D03*
X036106Y022068D03*
X012375Y013065D03*
X012491Y012682D03*
D359*
X012491Y012684D03*
X036221Y021687D03*
D360*
X036960Y021687D03*
X013230Y012684D03*
D361*
X013230Y012687D03*
X036961Y021690D03*
D362*
X036955Y022159D03*
X036220Y022158D03*
X036219Y022156D03*
X036109Y021781D03*
X036216Y021693D03*
X013225Y013156D03*
X012490Y013155D03*
X012489Y013153D03*
X012379Y012778D03*
X012486Y012690D03*
D363*
X013237Y012694D03*
X036967Y021697D03*
D364*
X036968Y021699D03*
X037042Y022098D03*
X013311Y013095D03*
X013238Y012696D03*
D365*
X013242Y012699D03*
X036972Y021702D03*
D366*
X037072Y021798D03*
X036968Y022149D03*
X036203Y021703D03*
X013238Y013146D03*
X013341Y012795D03*
X012473Y012700D03*
D367*
X012469Y012705D03*
X012475Y013141D03*
X013242Y013141D03*
X013303Y013098D03*
X013339Y012793D03*
X013248Y012703D03*
X013246Y012702D03*
X036199Y021708D03*
X036205Y022144D03*
X036972Y022144D03*
X037033Y022101D03*
X037069Y021796D03*
X036978Y021706D03*
X036976Y021705D03*
D368*
X036984Y021712D03*
X036199Y022140D03*
X013254Y012709D03*
X012469Y013137D03*
D369*
X012449Y012729D03*
X036179Y021732D03*
D370*
X036999Y021732D03*
X013269Y012729D03*
D371*
X013280Y012742D03*
X012444Y013105D03*
X036175Y022108D03*
X037010Y021745D03*
D372*
X037011Y021747D03*
X013281Y012744D03*
D373*
X013282Y012747D03*
X037012Y021750D03*
D374*
X036160Y021762D03*
X036164Y022092D03*
X012434Y013089D03*
X012429Y012759D03*
D375*
X012390Y012774D03*
X036120Y021777D03*
D376*
X037026Y021777D03*
X013296Y012774D03*
D377*
X012371Y012780D03*
X036101Y021783D03*
D378*
X036095Y021784D03*
X037096Y021804D03*
X013365Y012801D03*
X012365Y012781D03*
D379*
X012360Y012783D03*
X012362Y013060D03*
X012858Y013536D03*
X036091Y021786D03*
X036092Y022063D03*
X036589Y022539D03*
D380*
X036588Y022537D03*
X036087Y021787D03*
X012858Y013534D03*
X012357Y012784D03*
D381*
X012354Y012786D03*
X013343Y013084D03*
X036085Y021789D03*
X037073Y022087D03*
D382*
X037077Y022086D03*
X036588Y022534D03*
X036081Y021790D03*
X013347Y013083D03*
X012858Y013531D03*
X012351Y012787D03*
D383*
X012345Y012789D03*
X036076Y021792D03*
D384*
X036067Y021793D03*
X036588Y022530D03*
X012858Y013527D03*
X012337Y012790D03*
D385*
X012333Y012792D03*
X036063Y021795D03*
D386*
X036059Y021796D03*
X036908Y022176D03*
X037103Y022078D03*
X013373Y013075D03*
X013178Y013173D03*
X012329Y012793D03*
D387*
X012326Y012795D03*
X036056Y021798D03*
D388*
X036054Y021799D03*
X012324Y012796D03*
D389*
X012318Y012798D03*
X013383Y013071D03*
X013409Y012814D03*
X036049Y021801D03*
X037139Y021817D03*
X037114Y022074D03*
D390*
X036587Y022518D03*
X036041Y021802D03*
X012857Y013515D03*
X012311Y012799D03*
D391*
X013219Y013159D03*
X013323Y013090D03*
X013357Y012799D03*
X037087Y021802D03*
X037053Y022093D03*
X036949Y022162D03*
D392*
X036589Y022515D03*
X036010Y021982D03*
X036010Y021981D03*
X036010Y021979D03*
X036010Y021978D03*
X036010Y021976D03*
X036010Y021975D03*
X036008Y021966D03*
X036008Y021964D03*
X036008Y021963D03*
X036008Y021888D03*
X036008Y021886D03*
X036008Y021885D03*
X036008Y021883D03*
X036008Y021880D03*
X036008Y021879D03*
X036008Y021877D03*
X036008Y021876D03*
X036008Y021874D03*
X036035Y021804D03*
X012858Y013512D03*
X012279Y012979D03*
X012279Y012978D03*
X012279Y012976D03*
X012279Y012975D03*
X012279Y012973D03*
X012279Y012972D03*
X012278Y012963D03*
X012278Y012961D03*
X012278Y012960D03*
X012278Y012885D03*
X012278Y012883D03*
X012278Y012882D03*
X012278Y012880D03*
X012278Y012877D03*
X012278Y012876D03*
X012278Y012874D03*
X012278Y012873D03*
X012278Y012871D03*
X012305Y012801D03*
D393*
X012301Y012802D03*
X012280Y012852D03*
X012280Y012853D03*
X012280Y012855D03*
X012282Y012991D03*
X012282Y012993D03*
X012303Y013042D03*
X013434Y013002D03*
X013435Y012997D03*
X013437Y012847D03*
X013437Y012846D03*
X013431Y012826D03*
X013429Y012825D03*
X036010Y021855D03*
X036010Y021856D03*
X036010Y021858D03*
X036031Y021805D03*
X036012Y021994D03*
X036012Y021996D03*
X036033Y022045D03*
X037164Y022005D03*
X037165Y022000D03*
X037167Y021850D03*
X037167Y021849D03*
X037161Y021829D03*
X037159Y021828D03*
D394*
X037102Y021805D03*
X013371Y012802D03*
D395*
X012298Y012804D03*
X012283Y012999D03*
X036028Y021807D03*
X036013Y022002D03*
D396*
X037105Y021807D03*
X013374Y012804D03*
D397*
X013433Y012831D03*
X013433Y012832D03*
X013434Y012835D03*
X013434Y012837D03*
X013434Y012838D03*
X013427Y013026D03*
X013404Y013065D03*
X012297Y013039D03*
X012297Y012805D03*
X036028Y021808D03*
X036028Y022042D03*
X037135Y022068D03*
X037157Y022029D03*
X037165Y021841D03*
X037165Y021840D03*
X037165Y021838D03*
X037163Y021835D03*
X037163Y021834D03*
D398*
X037108Y021808D03*
X013378Y012805D03*
D399*
X012295Y012807D03*
X012288Y013021D03*
X036025Y021810D03*
X036018Y022024D03*
D400*
X037081Y022084D03*
X037111Y021810D03*
X013351Y013081D03*
X013381Y012807D03*
D401*
X012294Y012808D03*
X012293Y012810D03*
X012288Y013023D03*
X012293Y013032D03*
X012294Y013036D03*
X012296Y013038D03*
X036023Y021813D03*
X036025Y021811D03*
X036019Y022026D03*
X036023Y022035D03*
X036025Y022039D03*
X036026Y022041D03*
D402*
X037117Y021811D03*
X013386Y012808D03*
D403*
X013395Y012810D03*
X013365Y013078D03*
X037125Y021813D03*
X037095Y022081D03*
D404*
X036024Y022038D03*
X036024Y022036D03*
X036022Y022033D03*
X036021Y022030D03*
X036021Y022029D03*
X036019Y022027D03*
X036022Y021814D03*
X012294Y013035D03*
X012294Y013033D03*
X012292Y013030D03*
X012291Y013027D03*
X012291Y013026D03*
X012289Y013024D03*
X012292Y012811D03*
D405*
X013401Y012811D03*
X037132Y021814D03*
D406*
X036022Y021816D03*
X036020Y021817D03*
X036020Y021819D03*
X012291Y012813D03*
X012290Y012814D03*
X012290Y012816D03*
D407*
X013406Y012813D03*
X037136Y021816D03*
D408*
X037143Y021819D03*
X013413Y012816D03*
D409*
X013422Y013041D03*
X013409Y013062D03*
X012288Y012817D03*
X036019Y021820D03*
X037139Y022065D03*
X037153Y022044D03*
D410*
X037147Y021820D03*
X013417Y012817D03*
D411*
X012288Y012819D03*
X036018Y021822D03*
D412*
X037153Y021822D03*
X037173Y021942D03*
X037171Y021957D03*
X013441Y012954D03*
X013443Y012939D03*
X013423Y012819D03*
D413*
X013425Y013033D03*
X013425Y013035D03*
X013423Y013038D03*
X013423Y013039D03*
X012288Y012820D03*
X012286Y012822D03*
X036016Y021825D03*
X036018Y021823D03*
X037153Y022041D03*
X037153Y022042D03*
X037155Y022038D03*
X037155Y022036D03*
D414*
X037168Y021990D03*
X037168Y021988D03*
X037168Y021985D03*
X037170Y021871D03*
X037170Y021870D03*
X037170Y021868D03*
X037170Y021865D03*
X037170Y021864D03*
X037168Y021859D03*
X037168Y021858D03*
X037168Y021856D03*
X037156Y021823D03*
X013438Y012987D03*
X013438Y012985D03*
X013438Y012982D03*
X013440Y012868D03*
X013440Y012867D03*
X013440Y012865D03*
X013440Y012862D03*
X013440Y012861D03*
X013438Y012856D03*
X013438Y012855D03*
X013438Y012853D03*
X013426Y012820D03*
D415*
X013428Y012822D03*
X013437Y012990D03*
X013437Y012991D03*
X013437Y012993D03*
X012280Y012987D03*
X012280Y012985D03*
X012280Y012982D03*
X012280Y012981D03*
X012279Y012870D03*
X012279Y012868D03*
X012279Y012867D03*
X012279Y012865D03*
X012279Y012862D03*
X036009Y021865D03*
X036009Y021868D03*
X036009Y021870D03*
X036009Y021871D03*
X036009Y021873D03*
X036010Y021984D03*
X036010Y021985D03*
X036010Y021988D03*
X036010Y021990D03*
X037167Y021993D03*
X037167Y021994D03*
X037167Y021996D03*
X037158Y021825D03*
D416*
X037156Y022033D03*
X037156Y022035D03*
X037154Y022039D03*
X037138Y022066D03*
X036017Y022023D03*
X036016Y021829D03*
X036016Y021828D03*
X036016Y021826D03*
X013424Y013036D03*
X013425Y013032D03*
X013425Y013030D03*
X013407Y013063D03*
X012287Y013020D03*
X012285Y012826D03*
X012285Y012825D03*
X012285Y012823D03*
D417*
X012279Y012856D03*
X012279Y012858D03*
X012279Y012859D03*
X012279Y012861D03*
X012281Y012988D03*
X012281Y012990D03*
X013436Y012994D03*
X013436Y012996D03*
X013437Y012852D03*
X013437Y012850D03*
X013428Y012823D03*
X036010Y021859D03*
X036010Y021861D03*
X036010Y021862D03*
X036010Y021864D03*
X036011Y021991D03*
X036011Y021993D03*
X037166Y021997D03*
X037166Y021999D03*
X037168Y021855D03*
X037168Y021853D03*
X037159Y021826D03*
D418*
X037156Y022030D03*
X036016Y022021D03*
X036016Y022020D03*
X036015Y021835D03*
X036015Y021834D03*
X036015Y021832D03*
X036015Y021831D03*
X013426Y013027D03*
X012286Y013018D03*
X012286Y013017D03*
X012285Y012832D03*
X012285Y012831D03*
X012285Y012829D03*
X012285Y012828D03*
D419*
X012282Y012846D03*
X012281Y012850D03*
X012282Y012994D03*
X012282Y012996D03*
X012284Y013000D03*
X012300Y013041D03*
X013401Y013066D03*
X013430Y013020D03*
X013430Y013018D03*
X013430Y013017D03*
X013431Y013015D03*
X013431Y013012D03*
X013431Y013011D03*
X013431Y013009D03*
X013433Y013008D03*
X013433Y013006D03*
X013433Y013005D03*
X013433Y013003D03*
X013434Y013000D03*
X013436Y012844D03*
X013436Y012843D03*
X013431Y012828D03*
X036013Y021849D03*
X036011Y021853D03*
X036013Y021997D03*
X036013Y021999D03*
X036014Y022003D03*
X036031Y022044D03*
X037132Y022069D03*
X037160Y022023D03*
X037160Y022021D03*
X037160Y022020D03*
X037162Y022018D03*
X037162Y022015D03*
X037162Y022014D03*
X037162Y022012D03*
X037163Y022011D03*
X037163Y022009D03*
X037163Y022008D03*
X037163Y022006D03*
X037165Y022003D03*
X037166Y021847D03*
X037166Y021846D03*
X037162Y021831D03*
D420*
X037162Y021832D03*
X037165Y021843D03*
X037165Y021844D03*
X037159Y022024D03*
X037159Y022026D03*
X037158Y022027D03*
X036013Y022000D03*
X036012Y021850D03*
X036013Y021847D03*
X036013Y021846D03*
X036013Y021844D03*
X013429Y013023D03*
X013429Y013021D03*
X013428Y013024D03*
X013435Y012841D03*
X013435Y012840D03*
X013432Y012829D03*
X012283Y012841D03*
X012283Y012843D03*
X012283Y012844D03*
X012282Y012847D03*
X012283Y012997D03*
D421*
X012285Y012834D03*
X013426Y013029D03*
X036015Y021837D03*
X037156Y022032D03*
D422*
X037165Y021837D03*
X013434Y012834D03*
D423*
X012284Y012835D03*
X012284Y012837D03*
X012284Y012838D03*
X012284Y012840D03*
X012285Y013009D03*
X012285Y013011D03*
X012285Y013012D03*
X012285Y013015D03*
X036014Y021838D03*
X036014Y021840D03*
X036014Y021841D03*
X036014Y021843D03*
X036016Y022012D03*
X036016Y022014D03*
X036016Y022015D03*
X036016Y022018D03*
D424*
X036011Y021852D03*
X037162Y022017D03*
X013431Y013014D03*
X012281Y012849D03*
D425*
X012305Y013044D03*
X013437Y012849D03*
X036035Y022047D03*
X037168Y021852D03*
D426*
X037169Y021861D03*
X037169Y021862D03*
X013439Y012859D03*
X013439Y012858D03*
D427*
X012279Y012864D03*
X012280Y012984D03*
X036009Y021867D03*
X036010Y021987D03*
D428*
X037168Y021987D03*
X037170Y021867D03*
X013438Y012984D03*
X013440Y012864D03*
D429*
X013440Y012870D03*
X013440Y012871D03*
X013440Y012873D03*
X013440Y012874D03*
X013440Y012876D03*
X013439Y012975D03*
X013439Y012976D03*
X013439Y012978D03*
X013439Y012979D03*
X013439Y012981D03*
X013437Y012988D03*
X037171Y021873D03*
X037171Y021874D03*
X037171Y021876D03*
X037171Y021877D03*
X037171Y021879D03*
X037169Y021978D03*
X037169Y021979D03*
X037169Y021981D03*
X037169Y021982D03*
X037169Y021984D03*
X037168Y021991D03*
D430*
X037170Y021976D03*
X037170Y021975D03*
X037170Y021973D03*
X037170Y021970D03*
X037170Y021969D03*
X037171Y021889D03*
X037171Y021888D03*
X037171Y021886D03*
X037171Y021885D03*
X037171Y021883D03*
X037171Y021880D03*
X037128Y022071D03*
X013440Y012973D03*
X013440Y012972D03*
X013440Y012970D03*
X013440Y012967D03*
X013440Y012966D03*
X013441Y012886D03*
X013441Y012885D03*
X013441Y012883D03*
X013441Y012882D03*
X013441Y012880D03*
X013441Y012877D03*
X013398Y013068D03*
D431*
X012278Y012879D03*
X036008Y021882D03*
D432*
X037171Y021882D03*
X037170Y021972D03*
X013440Y012969D03*
X013441Y012879D03*
D433*
X012307Y013045D03*
X012279Y012970D03*
X012279Y012967D03*
X012279Y012966D03*
X012279Y012964D03*
X012277Y012958D03*
X012277Y012957D03*
X012277Y012955D03*
X012277Y012952D03*
X012277Y012951D03*
X012277Y012949D03*
X012277Y012948D03*
X012277Y012895D03*
X012277Y012892D03*
X012277Y012891D03*
X012277Y012889D03*
X012277Y012888D03*
X012277Y012886D03*
X036007Y021889D03*
X036007Y021891D03*
X036007Y021892D03*
X036007Y021894D03*
X036007Y021895D03*
X036007Y021898D03*
X036007Y021951D03*
X036007Y021952D03*
X036007Y021954D03*
X036007Y021955D03*
X036007Y021958D03*
X036007Y021960D03*
X036007Y021961D03*
X036009Y021967D03*
X036009Y021969D03*
X036009Y021970D03*
X036009Y021973D03*
X036037Y022048D03*
D434*
X037171Y021967D03*
X037171Y021966D03*
X037171Y021964D03*
X037171Y021963D03*
X037171Y021961D03*
X037171Y021960D03*
X037171Y021958D03*
X037172Y021952D03*
X037172Y021951D03*
X037172Y021949D03*
X037172Y021898D03*
X037172Y021895D03*
X037172Y021894D03*
X037172Y021892D03*
X037172Y021891D03*
X013440Y012964D03*
X013440Y012963D03*
X013440Y012961D03*
X013440Y012960D03*
X013440Y012958D03*
X013440Y012957D03*
X013440Y012955D03*
X013442Y012949D03*
X013442Y012948D03*
X013442Y012946D03*
X013442Y012895D03*
X013442Y012892D03*
X013442Y012891D03*
X013442Y012889D03*
X013442Y012888D03*
D435*
X012277Y012894D03*
X012277Y012954D03*
X012279Y012969D03*
X036007Y021897D03*
X036007Y021957D03*
X036009Y021972D03*
D436*
X037172Y021897D03*
X013442Y012894D03*
D437*
X012276Y012897D03*
X012276Y012898D03*
X012276Y012900D03*
X012276Y012901D03*
X012276Y012903D03*
X012276Y012904D03*
X012275Y012906D03*
X012275Y012907D03*
X012275Y012910D03*
X012275Y012912D03*
X012275Y012913D03*
X012275Y012915D03*
X012276Y012937D03*
X012276Y012940D03*
X012276Y012942D03*
X012276Y012943D03*
X012276Y012945D03*
X012276Y012946D03*
X036007Y021900D03*
X036007Y021901D03*
X036007Y021903D03*
X036007Y021904D03*
X036007Y021906D03*
X036007Y021907D03*
X036005Y021909D03*
X036005Y021910D03*
X036005Y021913D03*
X036005Y021915D03*
X036005Y021916D03*
X036005Y021918D03*
X036007Y021940D03*
X036007Y021943D03*
X036007Y021945D03*
X036007Y021946D03*
X036007Y021948D03*
X036007Y021949D03*
D438*
X036004Y021922D03*
X036004Y021921D03*
X036004Y021919D03*
X037171Y021954D03*
X037171Y021955D03*
X037173Y021948D03*
X037173Y021946D03*
X037173Y021945D03*
X037173Y021943D03*
X037173Y021940D03*
X037173Y021939D03*
X037173Y021909D03*
X037173Y021907D03*
X037173Y021906D03*
X037173Y021904D03*
X037173Y021903D03*
X037173Y021901D03*
X037173Y021900D03*
X013441Y012952D03*
X013441Y012951D03*
X013443Y012945D03*
X013443Y012943D03*
X013443Y012942D03*
X013443Y012940D03*
X013443Y012937D03*
X013443Y012936D03*
X013443Y012906D03*
X013443Y012904D03*
X013443Y012903D03*
X013443Y012901D03*
X013443Y012900D03*
X013443Y012898D03*
X013443Y012897D03*
X012274Y012916D03*
X012274Y012918D03*
X012274Y012919D03*
D439*
X012275Y012921D03*
X012275Y012922D03*
X012275Y012925D03*
X012275Y012927D03*
X012311Y013047D03*
X013443Y012934D03*
X013443Y012933D03*
X013443Y012931D03*
X013443Y012930D03*
X013443Y012928D03*
X013443Y012927D03*
X013443Y012925D03*
X013443Y012922D03*
X013443Y012921D03*
X013443Y012919D03*
X013443Y012918D03*
X013443Y012916D03*
X013443Y012915D03*
X013443Y012913D03*
X013443Y012912D03*
X013443Y012910D03*
X013443Y012907D03*
X036005Y021924D03*
X036005Y021925D03*
X036005Y021928D03*
X036005Y021930D03*
X036041Y022050D03*
X037174Y021937D03*
X037174Y021936D03*
X037174Y021934D03*
X037174Y021933D03*
X037174Y021931D03*
X037174Y021930D03*
X037174Y021928D03*
X037174Y021925D03*
X037174Y021924D03*
X037174Y021922D03*
X037174Y021921D03*
X037174Y021919D03*
X037174Y021918D03*
X037174Y021916D03*
X037174Y021915D03*
X037174Y021913D03*
X037174Y021910D03*
D440*
X036007Y021942D03*
X036005Y021912D03*
X012276Y012939D03*
X012275Y012909D03*
D441*
X012275Y012924D03*
X013443Y012924D03*
X013443Y012909D03*
X036005Y021927D03*
X037174Y021927D03*
X037174Y021912D03*
D442*
X036006Y021931D03*
X036006Y021933D03*
X036006Y021934D03*
X036006Y021936D03*
X036006Y021937D03*
X036006Y021939D03*
X012276Y012936D03*
X012276Y012934D03*
X012276Y012933D03*
X012276Y012931D03*
X012276Y012930D03*
X012276Y012928D03*
D443*
X013435Y012999D03*
X037165Y022002D03*
D444*
X036015Y022005D03*
X036015Y022006D03*
X036015Y022008D03*
X036015Y022009D03*
X036015Y022011D03*
X012285Y013008D03*
X012285Y013006D03*
X012285Y013005D03*
X012285Y013003D03*
X012285Y013002D03*
D445*
X012285Y013014D03*
X036016Y022017D03*
D446*
X036022Y022032D03*
X012292Y013029D03*
D447*
X013411Y013060D03*
X013422Y013042D03*
X037141Y022063D03*
X037152Y022045D03*
D448*
X037152Y022047D03*
X037143Y022062D03*
X013422Y013044D03*
X013413Y013059D03*
D449*
X013415Y013057D03*
X013419Y013048D03*
X013421Y013045D03*
X037145Y022060D03*
X037150Y022051D03*
X037151Y022048D03*
D450*
X037150Y022050D03*
X037149Y022053D03*
X037149Y022054D03*
X013419Y013051D03*
X013419Y013050D03*
X013420Y013047D03*
D451*
X012858Y013516D03*
X012316Y013048D03*
X036046Y022051D03*
X036588Y022519D03*
D452*
X036588Y022522D03*
X036054Y022053D03*
X012858Y013519D03*
X012324Y013050D03*
D453*
X012331Y013051D03*
X012858Y013522D03*
X013369Y013077D03*
X036061Y022054D03*
X036588Y022525D03*
X037099Y022080D03*
D454*
X036066Y022056D03*
X012336Y013053D03*
D455*
X013416Y013056D03*
X013418Y013053D03*
X037147Y022059D03*
X037148Y022056D03*
D456*
X036070Y022057D03*
X012339Y013054D03*
D457*
X013417Y013054D03*
X037147Y022057D03*
D458*
X036073Y022059D03*
X012342Y013056D03*
D459*
X012346Y013057D03*
X036076Y022060D03*
D460*
X036083Y022062D03*
X012353Y013059D03*
D461*
X012368Y013062D03*
X036098Y022065D03*
D462*
X036103Y022066D03*
X012373Y013063D03*
D463*
X013392Y013069D03*
X037122Y022072D03*
D464*
X036130Y022074D03*
X012399Y013071D03*
D465*
X013379Y013072D03*
X037109Y022075D03*
D466*
X036139Y022077D03*
X012409Y013074D03*
D467*
X013376Y013074D03*
X037106Y022077D03*
D468*
X037087Y022083D03*
X013357Y013080D03*
D469*
X013340Y013086D03*
X013203Y013168D03*
X012513Y013168D03*
X036244Y022171D03*
X036934Y022171D03*
X037070Y022089D03*
D470*
X037066Y022090D03*
X013336Y013087D03*
D471*
X013330Y013089D03*
X037060Y022092D03*
D472*
X037048Y022095D03*
X036958Y022158D03*
X013317Y013092D03*
X013227Y013155D03*
D473*
X012443Y013104D03*
X036173Y022107D03*
D474*
X036180Y022116D03*
X012450Y013113D03*
D475*
X012467Y013134D03*
X036197Y022137D03*
D476*
X036967Y022150D03*
X013237Y013147D03*
D477*
X012482Y013149D03*
X036212Y022152D03*
D478*
X036966Y022152D03*
X013236Y013149D03*
D479*
X012486Y013152D03*
X036217Y022155D03*
D480*
X036225Y022161D03*
X012495Y013158D03*
D481*
X012498Y013159D03*
X036228Y022162D03*
D482*
X036232Y022164D03*
X012501Y013161D03*
D483*
X013214Y013161D03*
X036944Y022164D03*
D484*
X036235Y022165D03*
X012504Y013162D03*
D485*
X013212Y013162D03*
X036942Y022165D03*
D486*
X036236Y022167D03*
X012506Y013164D03*
D487*
X013210Y013164D03*
X036940Y022167D03*
D488*
X036588Y022540D03*
X036238Y022168D03*
X012858Y013537D03*
X012508Y013165D03*
D489*
X013208Y013165D03*
X036938Y022168D03*
D490*
X036240Y022170D03*
X012510Y013167D03*
D491*
X013206Y013167D03*
X036937Y022170D03*
D492*
X036925Y022173D03*
X036253Y022173D03*
X013194Y013170D03*
X012522Y013170D03*
D493*
X012529Y013171D03*
X036259Y022174D03*
D494*
X036914Y022174D03*
X013184Y013171D03*
D495*
X012534Y013173D03*
X036265Y022176D03*
D496*
X036589Y022177D03*
X012858Y013174D03*
D497*
X012858Y013176D03*
X036588Y022179D03*
D498*
X036589Y022180D03*
X036586Y022360D03*
X012855Y013357D03*
X012858Y013177D03*
D499*
X012858Y013179D03*
X036589Y022182D03*
D500*
X036588Y022183D03*
X012858Y013180D03*
D501*
X012858Y013182D03*
X012855Y013354D03*
X036588Y022185D03*
X036585Y022357D03*
D502*
X036586Y022356D03*
X036587Y022186D03*
X012855Y013353D03*
X012857Y013183D03*
D503*
X012858Y013185D03*
X012855Y013351D03*
X036588Y022188D03*
X036585Y022354D03*
D504*
X036588Y022191D03*
X036588Y022189D03*
X012858Y013188D03*
X012858Y013186D03*
D505*
X012858Y013189D03*
X012855Y013348D03*
X036589Y022192D03*
X036586Y022351D03*
D506*
X036588Y022194D03*
X012858Y013191D03*
D507*
X012858Y013192D03*
X012858Y013195D03*
X036589Y022195D03*
X036589Y022198D03*
D508*
X036589Y022197D03*
X012858Y013194D03*
D509*
X012858Y013197D03*
X012858Y013198D03*
X012858Y013200D03*
X036589Y022200D03*
X036589Y022201D03*
X036589Y022203D03*
D510*
X036589Y022204D03*
X036586Y022345D03*
X012855Y013342D03*
X012858Y013201D03*
D511*
X012858Y013203D03*
X036588Y022206D03*
D512*
X036589Y022207D03*
X012858Y013204D03*
D513*
X012858Y013206D03*
X036589Y022209D03*
D514*
X036588Y022210D03*
X036585Y022339D03*
X012855Y013336D03*
X012858Y013207D03*
D515*
X012858Y013209D03*
X036589Y022212D03*
D516*
X036589Y022213D03*
X036589Y022215D03*
X036586Y022336D03*
X012855Y013333D03*
X012858Y013212D03*
X012858Y013210D03*
D517*
X012858Y013213D03*
X012858Y013215D03*
X012858Y013216D03*
X012855Y013332D03*
X036589Y022216D03*
X036589Y022218D03*
X036589Y022219D03*
X036586Y022335D03*
D518*
X036585Y022333D03*
X036588Y022221D03*
X012855Y013330D03*
X012858Y013218D03*
D519*
X012858Y013219D03*
X036589Y022222D03*
D520*
X036588Y022224D03*
X012858Y013221D03*
D521*
X012858Y013222D03*
X036589Y022225D03*
D522*
X036588Y022227D03*
X012858Y013224D03*
D523*
X012858Y013225D03*
X012858Y013227D03*
X036588Y022228D03*
X036588Y022230D03*
D524*
X036588Y022231D03*
X012858Y013228D03*
D525*
X012858Y013230D03*
X036589Y022233D03*
D526*
X036588Y022234D03*
X012858Y013231D03*
D527*
X012858Y013233D03*
X012858Y013234D03*
X036589Y022236D03*
X036589Y022237D03*
D528*
X036589Y022239D03*
X036589Y022240D03*
X012858Y013237D03*
X012858Y013236D03*
D529*
X012858Y013239D03*
X036588Y022242D03*
D530*
X036589Y022243D03*
X012858Y013240D03*
D531*
X012858Y013242D03*
X012855Y013315D03*
X036588Y022245D03*
X036585Y022318D03*
D532*
X036585Y022315D03*
X036588Y022246D03*
X012855Y013312D03*
X012858Y013243D03*
D533*
X012857Y013245D03*
X012854Y013311D03*
X036587Y022248D03*
X036584Y022314D03*
D534*
X036585Y022312D03*
X036588Y022249D03*
X012855Y013309D03*
X012858Y013246D03*
D535*
X012858Y013248D03*
X012855Y013306D03*
X036588Y022251D03*
X036585Y022309D03*
D536*
X036589Y022252D03*
X012858Y013249D03*
D537*
X012858Y013251D03*
X012855Y013305D03*
X036588Y022254D03*
X036585Y022308D03*
D538*
X036589Y022255D03*
X012858Y013252D03*
D539*
X012858Y013254D03*
X036589Y022257D03*
D540*
X036589Y022258D03*
X036589Y022260D03*
X012858Y013257D03*
X012858Y013255D03*
D541*
X012858Y013258D03*
X012854Y013300D03*
X036589Y022261D03*
X036584Y022303D03*
D542*
X036588Y022263D03*
X012858Y013260D03*
D543*
X012858Y013261D03*
X036588Y022264D03*
D544*
X036588Y022266D03*
X012858Y013263D03*
D545*
X012858Y013264D03*
X012854Y013293D03*
X036589Y022267D03*
X036584Y022296D03*
D546*
X036585Y022294D03*
X036588Y022269D03*
X012855Y013291D03*
X012858Y013266D03*
D547*
X012858Y013267D03*
X036589Y022270D03*
D548*
X036589Y022272D03*
X012858Y013269D03*
D549*
X012858Y013270D03*
X036589Y022273D03*
D550*
X036588Y022275D03*
X036588Y022276D03*
X012858Y013273D03*
X012858Y013272D03*
D551*
X012858Y013275D03*
X012858Y013276D03*
X012855Y013287D03*
X036588Y022278D03*
X036588Y022279D03*
X036585Y022290D03*
D552*
X036584Y022288D03*
X036586Y022284D03*
X036586Y022282D03*
X036587Y022281D03*
X012857Y013278D03*
X012855Y013279D03*
X012855Y013281D03*
X012854Y013285D03*
D553*
X012855Y013282D03*
X036585Y022285D03*
D554*
X036585Y022287D03*
X012855Y013284D03*
D555*
X012854Y013288D03*
X036584Y022291D03*
D556*
X036585Y022293D03*
X012855Y013290D03*
D557*
X012854Y013294D03*
X012854Y013296D03*
X036584Y022297D03*
X036584Y022299D03*
D558*
X036584Y022300D03*
X012854Y013297D03*
D559*
X012854Y013299D03*
X036584Y022302D03*
D560*
X036584Y022305D03*
X012854Y013302D03*
D561*
X012855Y013303D03*
X036585Y022306D03*
D562*
X036584Y022311D03*
X012854Y013308D03*
D563*
X012855Y013314D03*
X036585Y022317D03*
D564*
X036585Y022320D03*
X012855Y013317D03*
D565*
X012855Y013318D03*
X036585Y022321D03*
D566*
X036585Y022323D03*
X012855Y013320D03*
D567*
X012855Y013321D03*
X036585Y022324D03*
D568*
X036584Y022326D03*
X012854Y013323D03*
D569*
X012855Y013324D03*
X036585Y022327D03*
D570*
X036584Y022329D03*
X012854Y013326D03*
D571*
X012855Y013327D03*
X036585Y022330D03*
D572*
X036585Y022332D03*
X012855Y013329D03*
D573*
X012855Y013335D03*
X036586Y022338D03*
D574*
X036586Y022341D03*
X012855Y013338D03*
D575*
X012855Y013339D03*
X036585Y022342D03*
D576*
X036585Y022344D03*
X012855Y013341D03*
D577*
X012855Y013344D03*
X036586Y022347D03*
D578*
X036586Y022348D03*
X012855Y013345D03*
D579*
X012855Y013347D03*
X036586Y022350D03*
D580*
X036586Y022353D03*
X012855Y013350D03*
D581*
X012855Y013356D03*
X036586Y022359D03*
D582*
X036586Y022362D03*
X012856Y013359D03*
D583*
X012856Y013360D03*
X036586Y022363D03*
D584*
X036586Y022365D03*
X012856Y013362D03*
D585*
X012855Y013363D03*
X036586Y022366D03*
D586*
X036586Y022368D03*
X012855Y013365D03*
D587*
X012855Y013366D03*
X036585Y022369D03*
D588*
X036586Y022371D03*
X012855Y013368D03*
D589*
X012855Y013369D03*
X036586Y022372D03*
D590*
X036586Y022374D03*
X012856Y013371D03*
D591*
X012856Y013372D03*
X036586Y022375D03*
D592*
X036587Y022377D03*
X012857Y013374D03*
D593*
X012856Y013375D03*
X036586Y022378D03*
D594*
X036586Y022380D03*
X012856Y013377D03*
D595*
X012855Y013378D03*
X036586Y022381D03*
D596*
X036586Y022383D03*
X012855Y013380D03*
D597*
X012856Y013381D03*
X036586Y022384D03*
D598*
X036586Y022386D03*
X012855Y013383D03*
D599*
X012856Y013384D03*
X036586Y022387D03*
D600*
X036586Y022389D03*
X012856Y013386D03*
D601*
X012857Y013387D03*
X036587Y022390D03*
D602*
X036587Y022392D03*
X012857Y013389D03*
D603*
X012856Y013390D03*
X036586Y022393D03*
D604*
X036586Y022395D03*
X012856Y013392D03*
D605*
X012855Y013393D03*
X036586Y022396D03*
D606*
X036586Y022398D03*
X036586Y022399D03*
X012855Y013396D03*
X012855Y013395D03*
D607*
X012855Y013398D03*
X036586Y022401D03*
D608*
X036587Y022402D03*
X012857Y013399D03*
D609*
X012857Y013401D03*
X012857Y013402D03*
X036587Y022404D03*
X036587Y022405D03*
D610*
X036587Y022407D03*
X012857Y013404D03*
D611*
X012857Y013405D03*
X036587Y022408D03*
D612*
X036586Y022410D03*
X012856Y013407D03*
D613*
X012856Y013408D03*
X012856Y013410D03*
X036586Y022411D03*
X036586Y022413D03*
D614*
X036586Y022414D03*
X012856Y013411D03*
D615*
X012856Y013413D03*
X036586Y022416D03*
D616*
X036587Y022417D03*
X012857Y013414D03*
D617*
X012857Y013416D03*
X012857Y013417D03*
X036587Y022419D03*
X036587Y022420D03*
D618*
X036587Y022422D03*
X012857Y013419D03*
D619*
X012857Y013420D03*
X036587Y022423D03*
D620*
X036586Y022425D03*
X012856Y013422D03*
D621*
X012856Y013423D03*
X012856Y013425D03*
X036586Y022426D03*
X036586Y022428D03*
D622*
X036586Y022429D03*
X012856Y013426D03*
D623*
X012857Y013428D03*
X036587Y022431D03*
D624*
X036587Y022432D03*
X012857Y013429D03*
D625*
X012858Y013431D03*
X036588Y022434D03*
D626*
X036588Y022435D03*
X012858Y013432D03*
D627*
X012857Y013434D03*
X036587Y022437D03*
D628*
X036587Y022438D03*
X012857Y013435D03*
D629*
X012856Y013437D03*
X036586Y022440D03*
D630*
X036587Y022441D03*
X012857Y013438D03*
D631*
X012857Y013440D03*
X036587Y022443D03*
D632*
X036587Y022444D03*
X012857Y013441D03*
D633*
X012858Y013443D03*
X036588Y022446D03*
D634*
X036588Y022447D03*
X036588Y022449D03*
X012858Y013446D03*
X012858Y013444D03*
D635*
X012858Y013447D03*
X036588Y022450D03*
D636*
X036587Y022452D03*
X012857Y013449D03*
D637*
X012857Y013450D03*
X036587Y022453D03*
D638*
X036587Y022455D03*
X012857Y013452D03*
D639*
X012858Y013453D03*
X036588Y022456D03*
D640*
X036588Y022458D03*
X036589Y022506D03*
X012859Y013503D03*
X012858Y013455D03*
D641*
X012858Y013456D03*
X036589Y022459D03*
D642*
X036588Y022461D03*
X036589Y022504D03*
X012859Y013501D03*
X012858Y013458D03*
D643*
X012858Y013459D03*
X012858Y013461D03*
X036588Y022462D03*
X036588Y022464D03*
D644*
X036588Y022465D03*
X012858Y013462D03*
D645*
X012857Y013464D03*
X036587Y022467D03*
D646*
X036587Y022468D03*
X012857Y013465D03*
D647*
X012858Y013467D03*
X036588Y022470D03*
D648*
X036587Y022471D03*
X036589Y022495D03*
X012858Y013492D03*
X012857Y013468D03*
D649*
X012858Y013470D03*
X036588Y022473D03*
D650*
X036588Y022474D03*
X036589Y022492D03*
X012859Y013489D03*
X012858Y013471D03*
D651*
X012858Y013473D03*
X012858Y013474D03*
X012858Y013476D03*
X012858Y013477D03*
X012858Y013486D03*
X012858Y013488D03*
X036589Y022476D03*
X036589Y022477D03*
X036589Y022479D03*
X036589Y022480D03*
X036589Y022489D03*
X036589Y022491D03*
D652*
X036589Y022482D03*
X012859Y013479D03*
D653*
X012859Y013480D03*
X012859Y013482D03*
X012859Y013483D03*
X012859Y013485D03*
X036589Y022483D03*
X036589Y022485D03*
X036589Y022486D03*
X036589Y022488D03*
D654*
X036589Y022494D03*
X012858Y013491D03*
D655*
X012859Y013494D03*
X036589Y022497D03*
D656*
X036589Y022498D03*
X012859Y013495D03*
D657*
X012858Y013497D03*
X036589Y022500D03*
D658*
X036589Y022501D03*
X012858Y013498D03*
D659*
X012858Y013500D03*
X036589Y022503D03*
D660*
X036589Y022507D03*
X012858Y013504D03*
D661*
X012858Y013506D03*
X036589Y022509D03*
D662*
X037107Y022519D03*
X036063Y022510D03*
X013377Y013516D03*
X012333Y013507D03*
D663*
X013035Y013507D03*
X036766Y022510D03*
D664*
X036062Y022512D03*
X012332Y013509D03*
D665*
X013036Y013509D03*
X036766Y022512D03*
D666*
X036061Y022513D03*
X012331Y013510D03*
D667*
X013038Y013510D03*
X036768Y022513D03*
D668*
X037105Y022515D03*
X013374Y013512D03*
D669*
X012857Y013513D03*
X036587Y022516D03*
D670*
X037107Y022516D03*
X013377Y013513D03*
D671*
X013379Y013525D03*
X012857Y013585D03*
X012330Y013515D03*
X036061Y022518D03*
X036587Y022588D03*
X037109Y022528D03*
D672*
X037107Y022518D03*
X013377Y013515D03*
D673*
X012330Y013518D03*
X036061Y022521D03*
D674*
X036587Y022521D03*
X012857Y013518D03*
D675*
X013377Y013518D03*
X037107Y022521D03*
D676*
X036060Y022522D03*
X012330Y013519D03*
D677*
X013377Y013519D03*
X037108Y022522D03*
D678*
X036059Y022524D03*
X012329Y013521D03*
D679*
X012858Y013521D03*
X036588Y022524D03*
D680*
X037108Y022524D03*
X013378Y013521D03*
D681*
X013380Y013531D03*
X012329Y013522D03*
X036059Y022525D03*
X037111Y022534D03*
D682*
X036588Y022647D03*
X036058Y022527D03*
X012858Y013644D03*
X012328Y013524D03*
D683*
X012858Y013524D03*
X036588Y022527D03*
D684*
X036587Y022587D03*
X037109Y022527D03*
X013379Y013524D03*
X012857Y013584D03*
D685*
X012857Y013525D03*
X036587Y022528D03*
D686*
X036587Y022668D03*
X036587Y022669D03*
X036587Y022671D03*
X037112Y022540D03*
X036058Y022531D03*
X013382Y013537D03*
X012857Y013665D03*
X012857Y013666D03*
X012857Y013668D03*
X012327Y013528D03*
D687*
X012858Y013528D03*
X036588Y022531D03*
D688*
X036586Y022603D03*
X036586Y022605D03*
X036586Y022606D03*
X036586Y022608D03*
X036586Y022609D03*
X037110Y022531D03*
X013380Y013528D03*
X012856Y013600D03*
X012856Y013602D03*
X012856Y013603D03*
X012856Y013605D03*
X012856Y013606D03*
D689*
X012858Y013677D03*
X012858Y013678D03*
X012858Y013680D03*
X012327Y013530D03*
X036057Y022533D03*
X036588Y022680D03*
X036588Y022681D03*
X036588Y022683D03*
D690*
X036588Y022533D03*
X012858Y013530D03*
D691*
X013380Y013530D03*
X037110Y022533D03*
D692*
X036589Y022710D03*
X036589Y022711D03*
X036589Y022713D03*
X036056Y022536D03*
X012858Y013710D03*
X012858Y013708D03*
X012858Y013707D03*
X012326Y013533D03*
D693*
X012858Y013533D03*
X036588Y022536D03*
D694*
X036587Y022656D03*
X036587Y022657D03*
X036587Y022659D03*
X037112Y022537D03*
X013382Y013534D03*
X012857Y013653D03*
X012857Y013654D03*
X012857Y013656D03*
D695*
X012858Y013717D03*
X013384Y013543D03*
X012325Y013536D03*
X036055Y022539D03*
X036588Y022720D03*
X037114Y022546D03*
D696*
X036589Y022737D03*
X036055Y022542D03*
X012858Y013734D03*
X012324Y013539D03*
D697*
X012858Y013539D03*
X036588Y022542D03*
D698*
X037113Y022542D03*
X013383Y013539D03*
D699*
X012324Y013542D03*
X036055Y022545D03*
D700*
X036054Y022548D03*
X036589Y022780D03*
X036589Y022783D03*
X012859Y013780D03*
X012859Y013777D03*
X012324Y013545D03*
D701*
X012324Y013546D03*
X012859Y013783D03*
X012859Y013785D03*
X012859Y013786D03*
X036054Y022549D03*
X036589Y022786D03*
X036589Y022788D03*
X036589Y022789D03*
D702*
X037115Y022549D03*
X013385Y013546D03*
D703*
X012860Y013797D03*
X012323Y013548D03*
X036053Y022551D03*
X036590Y022800D03*
D704*
X036589Y022740D03*
X036589Y022738D03*
X036589Y022735D03*
X037115Y022551D03*
X013385Y013548D03*
X012858Y013732D03*
X012858Y013735D03*
X012858Y013737D03*
D705*
X012859Y013810D03*
X012322Y013549D03*
X036052Y022552D03*
X036589Y022813D03*
D706*
X036589Y022762D03*
X036589Y022761D03*
X036589Y022759D03*
X036589Y022758D03*
X036589Y022756D03*
X037116Y022552D03*
X013386Y013549D03*
X012859Y013753D03*
X012859Y013755D03*
X012859Y013756D03*
X012859Y013758D03*
X012859Y013759D03*
D707*
X012322Y013551D03*
X036052Y022554D03*
D708*
X036052Y022555D03*
X036590Y022819D03*
X012860Y013816D03*
X012321Y013552D03*
D709*
X012321Y013554D03*
X036052Y022557D03*
D710*
X037117Y022557D03*
X013387Y013554D03*
D711*
X013389Y013563D03*
X012321Y013555D03*
X036052Y022558D03*
X037120Y022566D03*
D712*
X036589Y022822D03*
X036051Y022560D03*
X012859Y013819D03*
X012321Y013557D03*
D713*
X012859Y013798D03*
X012859Y013800D03*
X012859Y013801D03*
X012859Y013803D03*
X012859Y013804D03*
X012859Y013806D03*
X012859Y013807D03*
X013387Y013557D03*
X036589Y022801D03*
X036589Y022803D03*
X036589Y022804D03*
X036589Y022806D03*
X036589Y022807D03*
X036589Y022809D03*
X036589Y022810D03*
X037117Y022560D03*
D714*
X037120Y022569D03*
X036590Y022824D03*
X036050Y022561D03*
X013389Y013566D03*
X012860Y013821D03*
X012320Y013558D03*
D715*
X012860Y013812D03*
X012860Y013813D03*
X013388Y013558D03*
X036590Y022815D03*
X036590Y022816D03*
X037118Y022561D03*
D716*
X036589Y022563D03*
X012858Y013560D03*
D717*
X012320Y013561D03*
X036050Y022564D03*
D718*
X036589Y022564D03*
X012858Y013561D03*
D719*
X012860Y013818D03*
X013389Y013561D03*
X036590Y022821D03*
X037120Y022564D03*
D720*
X036049Y022566D03*
X012319Y013563D03*
D721*
X012858Y013563D03*
X036588Y022566D03*
D722*
X036589Y022567D03*
X012858Y013564D03*
D723*
X013389Y013564D03*
X037120Y022567D03*
D724*
X036592Y022828D03*
X036049Y022569D03*
X012861Y013825D03*
X012318Y013566D03*
D725*
X012858Y013566D03*
X036589Y022569D03*
D726*
X036589Y022570D03*
X012858Y013567D03*
D727*
X013390Y013567D03*
X037120Y022570D03*
D728*
X036049Y022572D03*
X012318Y013569D03*
D729*
X012858Y013569D03*
X036588Y022572D03*
D730*
X037121Y022572D03*
X013391Y013569D03*
D731*
X012859Y013570D03*
X036589Y022573D03*
D732*
X037122Y022573D03*
X013392Y013570D03*
D733*
X012859Y013572D03*
X036589Y022575D03*
D734*
X036589Y022576D03*
X012859Y013573D03*
D735*
X012317Y013575D03*
X036047Y022578D03*
D736*
X036589Y022578D03*
X012859Y013575D03*
D737*
X013392Y013575D03*
X037122Y022578D03*
D738*
X037124Y022585D03*
X036047Y022579D03*
X013394Y013582D03*
X012317Y013576D03*
D739*
X012859Y013576D03*
X036589Y022579D03*
D740*
X036046Y022581D03*
X012316Y013578D03*
D741*
X012858Y013578D03*
X036589Y022581D03*
D742*
X036046Y022584D03*
X012316Y013581D03*
D743*
X012858Y013581D03*
X036588Y022584D03*
D744*
X037123Y022584D03*
X013393Y013581D03*
D745*
X012315Y013582D03*
X036046Y022585D03*
D746*
X036046Y022587D03*
X012315Y013584D03*
D747*
X012315Y013585D03*
X036046Y022588D03*
D748*
X036046Y022590D03*
X037126Y022596D03*
X013395Y013593D03*
X012315Y013587D03*
D749*
X013394Y013587D03*
X037124Y022590D03*
D750*
X037126Y022597D03*
X036046Y022591D03*
X013395Y013594D03*
X012315Y013588D03*
D751*
X012857Y013588D03*
X012857Y013590D03*
X012857Y013591D03*
X036587Y022591D03*
X036587Y022593D03*
X036587Y022594D03*
D752*
X037124Y022591D03*
X013394Y013588D03*
D753*
X013395Y013590D03*
X037125Y022593D03*
D754*
X036045Y022594D03*
X012315Y013591D03*
D755*
X013395Y013591D03*
X037125Y022594D03*
D756*
X036044Y022596D03*
X012314Y013593D03*
D757*
X012315Y013594D03*
X013396Y013600D03*
X036045Y022597D03*
X037126Y022603D03*
D758*
X036045Y022599D03*
X012315Y013596D03*
D759*
X012315Y013597D03*
X036045Y022600D03*
D760*
X036044Y022602D03*
X012314Y013599D03*
D761*
X012855Y013599D03*
X036586Y022602D03*
D762*
X037126Y022602D03*
X013396Y013599D03*
D763*
X012313Y013602D03*
X036043Y022605D03*
D764*
X037127Y022608D03*
X013397Y013605D03*
D765*
X012312Y013606D03*
X036043Y022609D03*
D766*
X037127Y022609D03*
X013397Y013606D03*
D767*
X012857Y013608D03*
X036587Y022611D03*
D768*
X036042Y022614D03*
X012312Y013611D03*
D769*
X012857Y013612D03*
X012857Y013615D03*
X036587Y022615D03*
X036587Y022618D03*
D770*
X036042Y022617D03*
X012312Y013614D03*
D771*
X012857Y013614D03*
X036587Y022617D03*
D772*
X037129Y022617D03*
X013398Y013614D03*
D773*
X012312Y013618D03*
X036042Y022621D03*
D774*
X037129Y022623D03*
X013399Y013620D03*
D775*
X012311Y013621D03*
X036041Y022624D03*
D776*
X037130Y022624D03*
X013400Y013621D03*
D777*
X012311Y013627D03*
X036041Y022630D03*
D778*
X036040Y022632D03*
X012310Y013629D03*
D779*
X012858Y013629D03*
X036588Y022632D03*
D780*
X037130Y022632D03*
X013400Y013629D03*
D781*
X013401Y013630D03*
X037131Y022633D03*
D782*
X036040Y022635D03*
X012309Y013632D03*
D783*
X013401Y013632D03*
X037131Y022635D03*
D784*
X037132Y022642D03*
X036040Y022636D03*
X013401Y013639D03*
X012309Y013633D03*
D785*
X013401Y013633D03*
X037131Y022636D03*
D786*
X036040Y022638D03*
X012309Y013635D03*
D787*
X013401Y013635D03*
X037131Y022638D03*
D788*
X036588Y022641D03*
X036588Y022642D03*
X036588Y022644D03*
X036588Y022645D03*
X036588Y022648D03*
X012858Y013645D03*
X012858Y013642D03*
X012858Y013641D03*
X012858Y013639D03*
X012858Y013638D03*
D789*
X013401Y013638D03*
X037132Y022641D03*
D790*
X037132Y022648D03*
X036039Y022642D03*
X013402Y013645D03*
X012309Y013639D03*
D791*
X013402Y013641D03*
X037132Y022644D03*
D792*
X037132Y022647D03*
X013402Y013644D03*
D793*
X012857Y013647D03*
X036587Y022650D03*
D794*
X037133Y022650D03*
X013403Y013647D03*
D795*
X013405Y013648D03*
X037135Y022651D03*
D796*
X036587Y022662D03*
X012857Y013659D03*
D797*
X012858Y013669D03*
X012858Y013671D03*
X012858Y013672D03*
X036588Y022672D03*
X036588Y022674D03*
X036588Y022675D03*
D798*
X036589Y022677D03*
X012858Y013674D03*
D799*
X012858Y013675D03*
X036589Y022678D03*
D800*
X036589Y022684D03*
X036589Y022686D03*
X036589Y022687D03*
X036589Y022689D03*
X036589Y022690D03*
X036589Y022693D03*
X036589Y022695D03*
X012858Y013692D03*
X012858Y013690D03*
X012858Y013687D03*
X012858Y013686D03*
X012858Y013684D03*
X012858Y013683D03*
X012858Y013681D03*
D801*
X012858Y013689D03*
X036589Y022692D03*
D802*
X036588Y022708D03*
X012858Y013705D03*
D803*
X012858Y013719D03*
X036588Y022722D03*
D804*
X036588Y022726D03*
X012858Y013723D03*
D805*
X012858Y013725D03*
X012858Y013726D03*
X012858Y013728D03*
X012858Y013729D03*
X036589Y022728D03*
X036589Y022729D03*
X036589Y022731D03*
X036589Y022732D03*
D806*
X036589Y022767D03*
X012859Y013764D03*
D807*
X012858Y013770D03*
X036589Y022773D03*
D808*
X036590Y022779D03*
X012860Y013776D03*
D809*
X012859Y013779D03*
X036589Y022782D03*
D810*
X036589Y022797D03*
X012859Y013794D03*
D811*
X012859Y013809D03*
X036589Y022812D03*
D812*
X036591Y022827D03*
X012861Y013824D03*
D813*
X012852Y013828D03*
X036582Y022831D03*
D814*
X037965Y020825D02*
X035156Y020825D01*
X035156Y018660D01*
X038502Y018660D01*
X038502Y016692D01*
X035156Y016692D01*
X035156Y018660D01*
X035156Y016692D02*
X035156Y014526D01*
X037965Y014526D01*
X037965Y020825D01*
X038502Y020825D01*
X038502Y018660D01*
X038502Y016692D02*
X038502Y014526D01*
X037965Y014526D01*
X038081Y014294D02*
X038081Y013994D01*
X037931Y014144D02*
X038231Y014144D01*
X037119Y014251D02*
X036819Y013951D01*
X037119Y013951D01*
X037119Y014251D02*
X037119Y014326D01*
X037044Y014401D01*
X036894Y014401D01*
X036819Y014326D01*
X036659Y014401D02*
X036359Y013951D01*
X036659Y013951D02*
X036359Y014401D01*
X036266Y012969D02*
X036116Y012969D01*
X036041Y012894D01*
X036041Y012594D01*
X036116Y012519D01*
X036266Y012519D01*
X036341Y012594D01*
X036341Y012894D02*
X036266Y012969D01*
X035881Y012894D02*
X035881Y012594D01*
X035806Y012519D01*
X035581Y012519D01*
X035581Y012969D01*
X035806Y012969D01*
X035881Y012894D01*
X035206Y012294D02*
X035206Y011844D01*
X035366Y011919D02*
X035441Y011844D01*
X035666Y011844D01*
X035666Y012069D01*
X035591Y012144D01*
X035441Y012144D01*
X035441Y011994D02*
X035666Y011994D01*
X035826Y012144D02*
X036127Y011844D01*
X036287Y011844D02*
X036362Y011844D01*
X036362Y011919D01*
X036287Y011919D01*
X036287Y011844D01*
X036127Y012144D02*
X035826Y011844D01*
X035441Y011994D02*
X035366Y011919D01*
X035056Y012144D02*
X034906Y012294D01*
X034906Y011844D01*
X035056Y012144D02*
X035206Y012294D01*
X036962Y012519D02*
X037112Y012519D01*
X037037Y012519D02*
X037037Y012819D01*
X036962Y012819D01*
X037037Y012969D02*
X037037Y013044D01*
X037269Y012819D02*
X037494Y012819D01*
X037569Y012744D01*
X037569Y012519D01*
X037438Y012294D02*
X037438Y012069D01*
X037588Y012144D01*
X037663Y012144D01*
X037738Y012069D01*
X037738Y011919D01*
X037663Y011844D01*
X037513Y011844D01*
X037438Y011919D01*
X037278Y011919D02*
X037203Y011844D01*
X037052Y011844D01*
X036977Y011919D01*
X036977Y012069D02*
X037127Y012144D01*
X037203Y012144D01*
X037278Y012069D01*
X037278Y011919D01*
X036977Y012069D02*
X036977Y012294D01*
X037278Y012294D01*
X037438Y012294D02*
X037738Y012294D01*
X037898Y012294D02*
X037898Y011994D01*
X038048Y011844D01*
X038198Y011994D01*
X038198Y012294D01*
X038562Y011632D02*
X033562Y011632D01*
X033562Y011199D01*
X037269Y012519D02*
X037269Y012819D01*
X038562Y011632D02*
X038562Y009506D01*
X038562Y008325D01*
X037892Y008325D01*
X037696Y008325D01*
X037696Y009506D01*
X037892Y009506D01*
X037892Y008325D01*
X038562Y008325D02*
X038562Y006199D01*
X033562Y006199D01*
X033562Y006632D01*
X033609Y006050D02*
X033909Y005599D01*
X034070Y005599D02*
X034370Y005599D01*
X034220Y005599D02*
X034220Y006050D01*
X034070Y005900D01*
X033909Y006050D02*
X033609Y005599D01*
X033464Y004633D02*
X033464Y004332D01*
X033539Y004257D01*
X033696Y004332D02*
X033771Y004257D01*
X033921Y004257D01*
X033996Y004407D02*
X033696Y004407D01*
X033696Y004332D02*
X033696Y004482D01*
X033771Y004558D01*
X033921Y004558D01*
X033996Y004482D01*
X033996Y004407D01*
X034156Y004482D02*
X034231Y004558D01*
X034456Y004558D01*
X034616Y004558D02*
X034767Y004558D01*
X034691Y004633D02*
X034691Y004332D01*
X034767Y004257D01*
X034923Y004332D02*
X034998Y004257D01*
X035149Y004257D01*
X035224Y004407D02*
X034923Y004407D01*
X034923Y004332D02*
X034923Y004482D01*
X034998Y004558D01*
X035149Y004558D01*
X035224Y004482D01*
X035224Y004407D01*
X035384Y004407D02*
X035534Y004558D01*
X035609Y004558D01*
X035384Y004558D02*
X035384Y004257D01*
X035460Y004058D02*
X035611Y003908D01*
X035611Y003757D01*
X035460Y003607D01*
X035300Y003607D02*
X035000Y003607D01*
X035300Y003908D01*
X035300Y003983D01*
X035225Y004058D01*
X035075Y004058D01*
X035000Y003983D01*
X034840Y003983D02*
X034840Y003908D01*
X034765Y003832D01*
X034540Y003832D01*
X034540Y003607D02*
X034765Y003607D01*
X034840Y003682D01*
X034840Y003757D01*
X034765Y003832D01*
X034840Y003983D02*
X034765Y004058D01*
X034540Y004058D01*
X034540Y003607D01*
X034380Y003607D02*
X034079Y003607D01*
X034229Y003607D02*
X034229Y004058D01*
X034079Y003908D01*
X033921Y003908D02*
X033846Y003908D01*
X033696Y003757D01*
X033696Y003607D02*
X033696Y003908D01*
X034156Y004257D02*
X034381Y004257D01*
X034456Y004332D01*
X034381Y004407D01*
X034231Y004407D01*
X034156Y004482D01*
X033539Y004558D02*
X033389Y004558D01*
X033075Y004058D02*
X032925Y003983D01*
X032775Y003832D01*
X033000Y003832D01*
X033075Y003757D01*
X033075Y003682D01*
X033000Y003607D01*
X032850Y003607D01*
X032775Y003682D01*
X032775Y003832D01*
X032615Y003607D02*
X032314Y003607D01*
X032465Y003607D02*
X032465Y004058D01*
X032314Y003908D01*
X032154Y003983D02*
X031854Y003682D01*
X031929Y003607D01*
X032079Y003607D01*
X032154Y003682D01*
X032154Y003983D01*
X032079Y004058D01*
X031929Y004058D01*
X031854Y003983D01*
X031854Y003682D01*
X031694Y003607D02*
X031394Y003607D01*
X031694Y003908D01*
X031694Y003983D01*
X031619Y004058D01*
X031469Y004058D01*
X031394Y003983D01*
X031234Y004058D02*
X030933Y003607D01*
X030773Y003607D02*
X030473Y003607D01*
X030773Y003908D01*
X030773Y003983D01*
X030698Y004058D01*
X030548Y004058D01*
X030473Y003983D01*
X030466Y004257D02*
X030166Y004257D01*
X030166Y004708D01*
X030466Y004708D01*
X030626Y004708D02*
X030927Y004708D01*
X030927Y004633D01*
X030626Y004332D01*
X030626Y004257D01*
X030927Y004257D01*
X030316Y004482D02*
X030166Y004482D01*
X030006Y004257D02*
X029706Y004257D01*
X029706Y004708D01*
X030006Y004708D01*
X029856Y004482D02*
X029706Y004482D01*
X029856Y004058D02*
X029706Y003908D01*
X029706Y003757D01*
X029856Y003607D01*
X030013Y003607D02*
X030313Y003607D01*
X030163Y003607D02*
X030163Y004058D01*
X030013Y003908D01*
X031547Y004257D02*
X031547Y004708D01*
X031772Y004708D01*
X031847Y004633D01*
X031847Y004482D01*
X031772Y004407D01*
X031547Y004407D01*
X032008Y004332D02*
X032083Y004257D01*
X032233Y004257D01*
X032308Y004332D01*
X032308Y004407D01*
X032233Y004482D01*
X032083Y004482D01*
X032008Y004558D01*
X032008Y004633D01*
X032083Y004708D01*
X032233Y004708D01*
X032308Y004633D01*
X032468Y004708D02*
X032468Y004332D01*
X032543Y004257D01*
X032693Y004257D01*
X032768Y004332D01*
X032768Y004708D01*
X030916Y005632D02*
X030616Y005632D01*
X030766Y005632D02*
X030766Y006083D01*
X030616Y005933D01*
X030456Y005632D02*
X030156Y005632D01*
X030156Y006083D01*
X028758Y006992D02*
X028458Y006992D01*
X028758Y007293D01*
X028758Y007368D01*
X028683Y007443D01*
X028533Y007443D01*
X028458Y007368D01*
X028298Y007368D02*
X028223Y007443D01*
X028073Y007443D01*
X027998Y007368D01*
X027998Y007067D01*
X028073Y006992D01*
X028223Y006992D01*
X028298Y007067D01*
X027841Y006992D02*
X027691Y006992D01*
X027766Y006992D02*
X027766Y007443D01*
X027691Y007443D02*
X027841Y007443D01*
X027520Y012307D02*
X027370Y012307D01*
X027295Y012382D01*
X027135Y012382D02*
X027135Y012683D01*
X027060Y012758D01*
X026835Y012758D01*
X026835Y012307D01*
X027060Y012307D01*
X027135Y012382D01*
X027295Y012683D02*
X027370Y012758D01*
X027520Y012758D01*
X027595Y012683D01*
X027595Y012608D01*
X027520Y012532D01*
X027595Y012457D01*
X027595Y012382D01*
X027520Y012307D01*
X027520Y012532D02*
X027445Y012532D01*
X023604Y013312D02*
X023304Y013312D01*
X023604Y013612D01*
X023604Y013687D01*
X023529Y013762D01*
X023379Y013762D01*
X023304Y013687D01*
X023144Y013312D02*
X022843Y013312D01*
X022843Y013762D01*
X021616Y013757D02*
X021541Y013682D01*
X021391Y013682D01*
X021316Y013757D01*
X021316Y013832D01*
X021391Y013907D01*
X021541Y013907D01*
X021616Y013832D01*
X021616Y013757D01*
X021541Y013907D02*
X021616Y013983D01*
X021616Y014058D01*
X021541Y014133D01*
X021391Y014133D01*
X021316Y014058D01*
X021316Y013983D01*
X021391Y013907D01*
X021156Y013907D02*
X021081Y013832D01*
X020856Y013832D01*
X021006Y013832D02*
X021156Y013682D01*
X021156Y013907D02*
X021156Y014058D01*
X021081Y014133D01*
X020856Y014133D01*
X020856Y013682D01*
X019437Y012223D02*
X019136Y011922D01*
X019211Y011847D01*
X019362Y011847D01*
X019437Y011922D01*
X019437Y012223D01*
X019362Y012298D01*
X019211Y012298D01*
X019136Y012223D01*
X019136Y011922D01*
X018976Y011847D02*
X018676Y011847D01*
X018826Y011847D02*
X018826Y012298D01*
X018676Y012148D01*
X018516Y012223D02*
X018441Y012298D01*
X018291Y012298D01*
X018216Y012223D01*
X018216Y011922D01*
X018291Y011847D01*
X018441Y011847D01*
X018516Y011922D01*
X018406Y012732D02*
X018706Y013033D01*
X018706Y013108D01*
X018631Y013183D01*
X018481Y013183D01*
X018406Y013108D01*
X018246Y013108D02*
X018246Y012807D01*
X018171Y012732D01*
X018021Y012732D01*
X017946Y012807D01*
X017946Y013108D01*
X018021Y013183D01*
X018171Y013183D01*
X018246Y013108D01*
X018096Y012882D02*
X018246Y012732D01*
X018406Y012732D02*
X018706Y012732D01*
X017241Y015992D02*
X017241Y016067D01*
X017541Y016368D01*
X017541Y016443D01*
X017241Y016443D01*
X017081Y016368D02*
X017081Y016217D01*
X017006Y016142D01*
X016781Y016142D01*
X016931Y016142D02*
X017081Y015992D01*
X016781Y015992D02*
X016781Y016443D01*
X017006Y016443D01*
X017081Y016368D01*
X018323Y016326D02*
X018548Y016326D01*
X018623Y016401D01*
X018623Y016701D01*
X018548Y016776D01*
X018323Y016776D01*
X018323Y016326D01*
X018783Y016326D02*
X019083Y016326D01*
X018933Y016326D02*
X018933Y016776D01*
X018783Y016626D01*
X017466Y018342D02*
X017466Y018793D01*
X017241Y018567D01*
X017541Y018567D01*
X017081Y018567D02*
X017006Y018492D01*
X016781Y018492D01*
X016931Y018492D02*
X017081Y018342D01*
X017081Y018567D02*
X017081Y018718D01*
X017006Y018793D01*
X016781Y018793D01*
X016781Y018342D01*
X016791Y019632D02*
X017091Y019632D01*
X016941Y019632D02*
X016941Y020083D01*
X016791Y019933D01*
X016631Y020008D02*
X016631Y019857D01*
X016556Y019782D01*
X016331Y019782D01*
X016481Y019782D02*
X016631Y019632D01*
X016331Y019632D02*
X016331Y020083D01*
X016556Y020083D01*
X016631Y020008D01*
X016728Y020332D02*
X016878Y020332D01*
X016953Y020407D01*
X017113Y020332D02*
X017413Y020332D01*
X017263Y020332D02*
X017263Y020783D01*
X017113Y020633D01*
X016953Y020708D02*
X016878Y020783D01*
X016728Y020783D01*
X016653Y020708D01*
X016653Y020407D01*
X016728Y020332D01*
X016496Y020332D02*
X016346Y020332D01*
X016421Y020332D02*
X016421Y020783D01*
X016346Y020783D02*
X016496Y020783D01*
X017406Y021432D02*
X017406Y021883D01*
X017631Y021883D01*
X017706Y021808D01*
X017706Y021657D01*
X017631Y021582D01*
X017406Y021582D01*
X017556Y021582D02*
X017706Y021432D01*
X017866Y021432D02*
X018166Y021432D01*
X018016Y021432D02*
X018016Y021883D01*
X017866Y021733D01*
X018326Y021733D02*
X018326Y021808D01*
X018401Y021883D01*
X018552Y021883D01*
X018627Y021808D01*
X018627Y021733D01*
X018552Y021657D01*
X018401Y021657D01*
X018326Y021733D01*
X018401Y021657D02*
X018326Y021582D01*
X018326Y021507D01*
X018401Y021432D01*
X018552Y021432D01*
X018627Y021507D01*
X018627Y021582D01*
X018552Y021657D01*
X017552Y020083D02*
X017552Y020008D01*
X017251Y019707D01*
X017251Y019632D01*
X017251Y020083D02*
X017552Y020083D01*
X010631Y014532D02*
X009131Y014532D01*
X009131Y013532D02*
X010631Y013532D01*
X010631Y012532D02*
X009131Y012532D01*
X009131Y011532D02*
X010631Y011532D01*
X011636Y008728D02*
X009561Y008728D01*
X009561Y008000D01*
X009483Y008000D01*
X009483Y007212D01*
X009561Y007212D01*
X009561Y006584D01*
X010402Y006584D01*
X010402Y006485D01*
X010796Y006485D01*
X010796Y006584D01*
X011636Y006584D01*
X011636Y007212D01*
X011715Y007212D01*
X011715Y008000D01*
X011636Y008000D01*
X011636Y008728D01*
X011636Y008000D02*
X011557Y008000D01*
X011557Y007212D01*
X011636Y007212D01*
X011831Y007457D02*
X011906Y007382D01*
X012056Y007382D01*
X012131Y007457D01*
X012291Y007382D02*
X012591Y007382D01*
X012441Y007382D02*
X012441Y007833D01*
X012291Y007683D01*
X012131Y007758D02*
X012056Y007833D01*
X011906Y007833D01*
X011831Y007758D01*
X011831Y007457D01*
X012751Y007457D02*
X012826Y007382D01*
X012977Y007382D01*
X013052Y007457D01*
X013052Y007607D01*
X012977Y007683D01*
X012901Y007683D01*
X012751Y007607D01*
X012751Y007833D01*
X013052Y007833D01*
X013420Y008000D02*
X013420Y007212D01*
X013498Y007212D01*
X013498Y006584D01*
X014339Y006584D01*
X014339Y006485D01*
X014733Y006485D01*
X014733Y006584D01*
X015573Y006584D01*
X015573Y007212D01*
X015652Y007212D01*
X015652Y008000D01*
X015573Y008000D01*
X015573Y008728D01*
X013498Y008728D01*
X013498Y008000D01*
X013420Y008000D01*
X013498Y008000D02*
X013577Y008000D01*
X013577Y007212D01*
X013498Y007212D01*
X014064Y007606D02*
X014066Y007649D01*
X014072Y007691D01*
X014082Y007733D01*
X014095Y007774D01*
X014112Y007814D01*
X014133Y007851D01*
X014157Y007887D01*
X014184Y007920D01*
X014214Y007951D01*
X014247Y007979D01*
X014282Y008004D01*
X014319Y008025D01*
X014358Y008043D01*
X014398Y008057D01*
X014440Y008068D01*
X014482Y008075D01*
X014525Y008078D01*
X014568Y008077D01*
X014611Y008072D01*
X014653Y008063D01*
X014694Y008051D01*
X014734Y008035D01*
X014772Y008015D01*
X014808Y007992D01*
X014842Y007965D01*
X014874Y007936D01*
X014902Y007904D01*
X014928Y007869D01*
X014950Y007833D01*
X014969Y007794D01*
X014984Y007754D01*
X014996Y007713D01*
X015004Y007670D01*
X015008Y007627D01*
X015008Y007585D01*
X015004Y007542D01*
X014996Y007499D01*
X014984Y007458D01*
X014969Y007418D01*
X014950Y007379D01*
X014928Y007343D01*
X014902Y007308D01*
X014874Y007276D01*
X014842Y007247D01*
X014808Y007220D01*
X014772Y007197D01*
X014734Y007177D01*
X014694Y007161D01*
X014653Y007149D01*
X014611Y007140D01*
X014568Y007135D01*
X014525Y007134D01*
X014482Y007137D01*
X014440Y007144D01*
X014398Y007155D01*
X014358Y007169D01*
X014319Y007187D01*
X014282Y007208D01*
X014247Y007233D01*
X014214Y007261D01*
X014184Y007292D01*
X014157Y007325D01*
X014133Y007361D01*
X014112Y007398D01*
X014095Y007438D01*
X014082Y007479D01*
X014072Y007521D01*
X014066Y007563D01*
X014064Y007606D01*
X013945Y007606D02*
X013947Y007654D01*
X013953Y007702D01*
X013963Y007749D01*
X013976Y007795D01*
X013994Y007840D01*
X014014Y007884D01*
X014039Y007926D01*
X014067Y007965D01*
X014097Y008002D01*
X014131Y008036D01*
X014168Y008068D01*
X014206Y008097D01*
X014247Y008122D01*
X014290Y008144D01*
X014335Y008162D01*
X014381Y008176D01*
X014428Y008187D01*
X014476Y008194D01*
X014524Y008197D01*
X014572Y008196D01*
X014620Y008191D01*
X014668Y008182D01*
X014714Y008170D01*
X014759Y008153D01*
X014803Y008133D01*
X014845Y008110D01*
X014885Y008083D01*
X014923Y008053D01*
X014958Y008020D01*
X014990Y007984D01*
X015020Y007946D01*
X015046Y007905D01*
X015068Y007862D01*
X015088Y007818D01*
X015103Y007773D01*
X015115Y007726D01*
X015123Y007678D01*
X015127Y007630D01*
X015127Y007582D01*
X015123Y007534D01*
X015115Y007486D01*
X015103Y007439D01*
X015088Y007394D01*
X015068Y007350D01*
X015046Y007307D01*
X015020Y007266D01*
X014990Y007228D01*
X014958Y007192D01*
X014923Y007159D01*
X014885Y007129D01*
X014845Y007102D01*
X014803Y007079D01*
X014759Y007059D01*
X014714Y007042D01*
X014668Y007030D01*
X014620Y007021D01*
X014572Y007016D01*
X014524Y007015D01*
X014476Y007018D01*
X014428Y007025D01*
X014381Y007036D01*
X014335Y007050D01*
X014290Y007068D01*
X014247Y007090D01*
X014206Y007115D01*
X014168Y007144D01*
X014131Y007176D01*
X014097Y007210D01*
X014067Y007247D01*
X014039Y007286D01*
X014014Y007328D01*
X013994Y007372D01*
X013976Y007417D01*
X013963Y007463D01*
X013953Y007510D01*
X013947Y007558D01*
X013945Y007606D01*
X015494Y008000D02*
X015494Y007212D01*
X015573Y007212D01*
X015573Y008000D02*
X015494Y008000D01*
X016056Y008407D02*
X016131Y008332D01*
X016281Y008332D01*
X016356Y008407D01*
X016356Y008482D01*
X016281Y008557D01*
X016131Y008557D01*
X016056Y008633D01*
X016056Y008708D01*
X016131Y008783D01*
X016281Y008783D01*
X016356Y008708D01*
X016516Y008783D02*
X016741Y008783D01*
X016816Y008708D01*
X016816Y008557D01*
X016741Y008482D01*
X016516Y008482D01*
X016516Y008332D02*
X016516Y008783D01*
X016976Y008633D02*
X017126Y008783D01*
X017126Y008332D01*
X016976Y008332D02*
X017277Y008332D01*
X016877Y005358D02*
X016726Y005283D01*
X016576Y005132D01*
X016802Y005132D01*
X016877Y005057D01*
X016877Y004982D01*
X016802Y004907D01*
X016651Y004907D01*
X016576Y004982D01*
X016576Y005132D01*
X016416Y004907D02*
X016116Y004907D01*
X016266Y004907D02*
X016266Y005358D01*
X016116Y005208D01*
X015956Y005283D02*
X015881Y005358D01*
X015731Y005358D01*
X015656Y005283D01*
X015656Y004982D01*
X015731Y004907D01*
X015881Y004907D01*
X015956Y004982D01*
X019696Y004907D02*
X019771Y004832D01*
X019921Y004832D01*
X019996Y004907D01*
X019996Y005208D01*
X019921Y005283D01*
X019771Y005283D01*
X019696Y005208D01*
X019696Y004907D01*
X019846Y004982D02*
X019996Y004832D01*
X020156Y004832D02*
X020456Y004832D01*
X020306Y004832D02*
X020306Y005283D01*
X020156Y005133D01*
X020956Y007082D02*
X020956Y007533D01*
X021181Y007533D01*
X021256Y007458D01*
X021256Y007307D01*
X021181Y007232D01*
X020956Y007232D01*
X021106Y007232D02*
X021256Y007082D01*
X021416Y007082D02*
X021716Y007383D01*
X021716Y007458D01*
X021641Y007533D01*
X021491Y007533D01*
X021416Y007458D01*
X021416Y007082D02*
X021716Y007082D01*
X010127Y007606D02*
X010129Y007649D01*
X010135Y007691D01*
X010145Y007733D01*
X010158Y007774D01*
X010175Y007814D01*
X010196Y007851D01*
X010220Y007887D01*
X010247Y007920D01*
X010277Y007951D01*
X010310Y007979D01*
X010345Y008004D01*
X010382Y008025D01*
X010421Y008043D01*
X010461Y008057D01*
X010503Y008068D01*
X010545Y008075D01*
X010588Y008078D01*
X010631Y008077D01*
X010674Y008072D01*
X010716Y008063D01*
X010757Y008051D01*
X010797Y008035D01*
X010835Y008015D01*
X010871Y007992D01*
X010905Y007965D01*
X010937Y007936D01*
X010965Y007904D01*
X010991Y007869D01*
X011013Y007833D01*
X011032Y007794D01*
X011047Y007754D01*
X011059Y007713D01*
X011067Y007670D01*
X011071Y007627D01*
X011071Y007585D01*
X011067Y007542D01*
X011059Y007499D01*
X011047Y007458D01*
X011032Y007418D01*
X011013Y007379D01*
X010991Y007343D01*
X010965Y007308D01*
X010937Y007276D01*
X010905Y007247D01*
X010871Y007220D01*
X010835Y007197D01*
X010797Y007177D01*
X010757Y007161D01*
X010716Y007149D01*
X010674Y007140D01*
X010631Y007135D01*
X010588Y007134D01*
X010545Y007137D01*
X010503Y007144D01*
X010461Y007155D01*
X010421Y007169D01*
X010382Y007187D01*
X010345Y007208D01*
X010310Y007233D01*
X010277Y007261D01*
X010247Y007292D01*
X010220Y007325D01*
X010196Y007361D01*
X010175Y007398D01*
X010158Y007438D01*
X010145Y007479D01*
X010135Y007521D01*
X010129Y007563D01*
X010127Y007606D01*
X010008Y007606D02*
X010010Y007654D01*
X010016Y007702D01*
X010026Y007749D01*
X010039Y007795D01*
X010057Y007840D01*
X010077Y007884D01*
X010102Y007926D01*
X010130Y007965D01*
X010160Y008002D01*
X010194Y008036D01*
X010231Y008068D01*
X010269Y008097D01*
X010310Y008122D01*
X010353Y008144D01*
X010398Y008162D01*
X010444Y008176D01*
X010491Y008187D01*
X010539Y008194D01*
X010587Y008197D01*
X010635Y008196D01*
X010683Y008191D01*
X010731Y008182D01*
X010777Y008170D01*
X010822Y008153D01*
X010866Y008133D01*
X010908Y008110D01*
X010948Y008083D01*
X010986Y008053D01*
X011021Y008020D01*
X011053Y007984D01*
X011083Y007946D01*
X011109Y007905D01*
X011131Y007862D01*
X011151Y007818D01*
X011166Y007773D01*
X011178Y007726D01*
X011186Y007678D01*
X011190Y007630D01*
X011190Y007582D01*
X011186Y007534D01*
X011178Y007486D01*
X011166Y007439D01*
X011151Y007394D01*
X011131Y007350D01*
X011109Y007307D01*
X011083Y007266D01*
X011053Y007228D01*
X011021Y007192D01*
X010986Y007159D01*
X010948Y007129D01*
X010908Y007102D01*
X010866Y007079D01*
X010822Y007059D01*
X010777Y007042D01*
X010731Y007030D01*
X010683Y007021D01*
X010635Y007016D01*
X010587Y007015D01*
X010539Y007018D01*
X010491Y007025D01*
X010444Y007036D01*
X010398Y007050D01*
X010353Y007068D01*
X010310Y007090D01*
X010269Y007115D01*
X010231Y007144D01*
X010194Y007176D01*
X010160Y007210D01*
X010130Y007247D01*
X010102Y007286D01*
X010077Y007328D01*
X010057Y007372D01*
X010039Y007417D01*
X010026Y007463D01*
X010016Y007510D01*
X010010Y007558D01*
X010008Y007606D01*
X009640Y008000D02*
X009561Y008000D01*
X009640Y008000D02*
X009640Y007212D01*
X009561Y007212D01*
X024860Y021132D02*
X024860Y021583D01*
X025085Y021583D01*
X025160Y021508D01*
X025160Y021357D01*
X025085Y021282D01*
X024860Y021282D01*
X025010Y021282D02*
X025160Y021132D01*
X025320Y021207D02*
X025395Y021132D01*
X025545Y021132D01*
X025620Y021207D01*
X025620Y021508D01*
X025545Y021583D01*
X025395Y021583D01*
X025320Y021508D01*
X025320Y021433D01*
X025395Y021357D01*
X025620Y021357D01*
X025546Y023182D02*
X025471Y023257D01*
X025471Y023558D01*
X025546Y023633D01*
X025696Y023633D01*
X025771Y023558D01*
X025771Y023257D01*
X025696Y023182D01*
X025546Y023182D01*
X025621Y023332D02*
X025771Y023182D01*
X025931Y023257D02*
X026006Y023182D01*
X026156Y023182D01*
X026231Y023257D01*
X026231Y023332D01*
X026156Y023407D01*
X026081Y023407D01*
X026156Y023407D02*
X026231Y023483D01*
X026231Y023558D01*
X026156Y023633D01*
X026006Y023633D01*
X025931Y023558D01*
X027373Y023776D02*
X027373Y023326D01*
X027598Y023326D01*
X027673Y023401D01*
X027673Y023701D01*
X027598Y023776D01*
X027373Y023776D01*
X027833Y023701D02*
X027908Y023776D01*
X028058Y023776D01*
X028133Y023701D01*
X028133Y023626D01*
X027833Y023326D01*
X028133Y023326D01*
X028112Y029207D02*
X025946Y029207D01*
X025946Y032554D01*
X028112Y032554D01*
X028112Y031992D01*
X017875Y031992D01*
X017875Y032554D01*
X020041Y032554D01*
X020041Y029207D01*
X022009Y029207D02*
X017875Y029207D01*
X017875Y031992D01*
X017712Y031196D02*
X017261Y031196D01*
X017487Y030971D01*
X017487Y031271D01*
X017712Y030811D02*
X017261Y030510D01*
X017261Y030811D02*
X017712Y030510D01*
X015156Y032207D02*
X014656Y032207D01*
X014906Y031957D01*
X015156Y032207D01*
X015130Y032181D02*
X014681Y032181D01*
X014730Y032133D02*
X015081Y032133D01*
X015033Y032084D02*
X014778Y032084D01*
X014827Y032036D02*
X014984Y032036D01*
X014936Y031987D02*
X014875Y031987D01*
X011891Y029183D02*
X011741Y029108D01*
X011591Y028957D01*
X011816Y028957D01*
X011891Y028882D01*
X011891Y028807D01*
X011816Y028732D01*
X011666Y028732D01*
X011591Y028807D01*
X011591Y028957D01*
X011431Y028732D02*
X011131Y029183D01*
X011431Y029183D02*
X011131Y028732D01*
X010381Y025957D02*
X008681Y025957D01*
X008681Y024257D01*
X010381Y024257D01*
X010381Y025957D01*
X010114Y024754D02*
X010081Y024757D01*
X010047Y024754D01*
X010015Y024742D01*
X009987Y024725D01*
X009963Y024701D01*
X009945Y024672D01*
X009934Y024641D01*
X009931Y024607D01*
X009934Y024574D01*
X009945Y024542D01*
X009963Y024514D01*
X009987Y024490D01*
X010015Y024472D01*
X010047Y024461D01*
X010081Y024457D01*
X010114Y024461D01*
X010146Y024472D01*
X010174Y024490D01*
X010198Y024514D01*
X010216Y024542D01*
X010227Y024574D01*
X010231Y024607D01*
X010227Y024641D01*
X010216Y024672D01*
X010198Y024701D01*
X010174Y024725D01*
X010146Y024742D01*
X010114Y024754D01*
X010186Y024712D02*
X009975Y024712D01*
X009942Y024664D02*
X010219Y024664D01*
X010230Y024615D02*
X009931Y024615D01*
X009937Y024567D02*
X010224Y024567D01*
X010201Y024518D02*
X009960Y024518D01*
X010022Y024470D02*
X010139Y024470D01*
X020041Y032554D02*
X022009Y032554D01*
X022009Y029207D01*
X023978Y029207D01*
X023978Y032554D01*
X025946Y032554D01*
X023978Y032554D02*
X022009Y032554D01*
X023978Y029207D02*
X025946Y029207D01*
X028112Y029207D02*
X028112Y031992D01*
X028987Y032017D02*
X035287Y032017D01*
X035287Y029207D01*
X033121Y029207D01*
X033121Y032554D01*
X035287Y032554D01*
X035287Y032017D01*
X033121Y032554D02*
X031153Y032554D01*
X031153Y029207D01*
X028987Y029207D01*
X028987Y032017D01*
X028987Y032554D01*
X031153Y032554D01*
X031153Y029207D02*
X033121Y029207D01*
X035459Y029251D02*
X035759Y029701D01*
X035919Y029701D02*
X035919Y029476D01*
X036069Y029551D01*
X036144Y029551D01*
X036219Y029476D01*
X036219Y029326D01*
X036144Y029251D01*
X035994Y029251D01*
X035919Y029326D01*
X035759Y029251D02*
X035459Y029701D01*
X035919Y029701D02*
X036219Y029701D01*
X037892Y009506D02*
X038562Y009506D01*
D815*
X035002Y014027D02*
X034762Y014027D01*
X034882Y014027D02*
X034882Y014388D01*
X034762Y014267D01*
X034634Y014027D02*
X034394Y014027D01*
X034514Y014027D02*
X034514Y014388D01*
X034394Y014267D01*
X034266Y014207D02*
X034206Y014147D01*
X034026Y014147D01*
X034146Y014147D02*
X034266Y014027D01*
X034266Y014207D02*
X034266Y014328D01*
X034206Y014388D01*
X034026Y014388D01*
X034026Y014027D01*
X033706Y014078D02*
X033646Y014018D01*
X033526Y014018D01*
X033466Y014078D01*
X033338Y014078D02*
X033338Y014318D01*
X033278Y014379D01*
X033098Y014379D01*
X033098Y014018D01*
X033278Y014018D01*
X033338Y014078D01*
X033466Y014318D02*
X033526Y014379D01*
X033646Y014379D01*
X033706Y014318D01*
X033706Y014258D01*
X033646Y014198D01*
X033706Y014138D01*
X033706Y014078D01*
X033646Y014198D02*
X033586Y014198D01*
X032970Y014018D02*
X032729Y014018D01*
X032729Y014379D01*
X032970Y014379D01*
X032849Y014198D02*
X032729Y014198D01*
X032601Y014018D02*
X032361Y014018D01*
X032361Y014379D01*
X029809Y013028D02*
X029809Y012787D01*
X029749Y012727D01*
X029629Y012727D01*
X029569Y012787D01*
X029441Y012787D02*
X029381Y012727D01*
X029261Y012727D01*
X029201Y012787D01*
X029201Y013028D01*
X029261Y013088D01*
X029381Y013088D01*
X029441Y013028D01*
X029569Y013028D02*
X029569Y012967D01*
X029629Y012907D01*
X029809Y012907D01*
X029809Y013028D02*
X029749Y013088D01*
X029629Y013088D01*
X029569Y013028D01*
X027902Y013737D02*
X027902Y013978D01*
X027842Y014038D01*
X027722Y014038D01*
X027662Y013978D01*
X027662Y013917D01*
X027722Y013857D01*
X027902Y013857D01*
X027902Y013737D02*
X027842Y013677D01*
X027722Y013677D01*
X027662Y013737D01*
X027534Y013677D02*
X027294Y013677D01*
X027414Y013677D02*
X027414Y014038D01*
X027294Y013917D01*
X027166Y013857D02*
X027106Y013797D01*
X026926Y013797D01*
X027046Y013797D02*
X027166Y013677D01*
X027166Y013857D02*
X027166Y013978D01*
X027106Y014038D01*
X026926Y014038D01*
X026926Y013677D01*
X026059Y013737D02*
X025999Y013677D01*
X025879Y013677D01*
X025819Y013737D01*
X025819Y013797D01*
X025879Y013857D01*
X025999Y013857D01*
X026059Y013797D01*
X026059Y013737D01*
X025999Y013857D02*
X026059Y013917D01*
X026059Y013978D01*
X025999Y014038D01*
X025879Y014038D01*
X025819Y013978D01*
X025819Y013917D01*
X025879Y013857D01*
X025691Y013737D02*
X025631Y013677D01*
X025511Y013677D01*
X025451Y013737D01*
X025451Y013978D01*
X025511Y014038D01*
X025631Y014038D01*
X025691Y013978D01*
X026786Y011463D02*
X026726Y011403D01*
X026726Y011162D01*
X026786Y011102D01*
X026906Y011102D01*
X026966Y011162D01*
X027094Y011162D02*
X027154Y011102D01*
X027274Y011102D01*
X027334Y011162D01*
X027334Y011222D01*
X027274Y011282D01*
X027094Y011282D01*
X027094Y011162D01*
X027094Y011282D02*
X027214Y011403D01*
X027334Y011463D01*
X026966Y011403D02*
X026906Y011463D01*
X026786Y011463D01*
X028775Y011335D02*
X028930Y011180D01*
X028930Y011387D01*
X028775Y011335D02*
X029086Y011335D01*
X029086Y011065D02*
X029086Y010858D01*
X029086Y010961D02*
X028775Y010961D01*
X028879Y010858D01*
X028827Y010742D02*
X028775Y010691D01*
X028775Y010587D01*
X028827Y010535D01*
X029034Y010535D01*
X029086Y010587D01*
X029086Y010691D01*
X029034Y010742D01*
X029170Y009964D02*
X029230Y009964D01*
X029290Y009904D01*
X029350Y009964D01*
X029411Y009964D01*
X029471Y009904D01*
X029471Y009784D01*
X029411Y009724D01*
X029471Y009596D02*
X029471Y009356D01*
X029230Y009596D01*
X029170Y009596D01*
X029110Y009536D01*
X029110Y009416D01*
X029170Y009356D01*
X029170Y009228D02*
X029290Y009228D01*
X029350Y009167D01*
X029350Y008987D01*
X029350Y009107D02*
X029471Y009228D01*
X029471Y008987D02*
X029110Y008987D01*
X029110Y009167D01*
X029170Y009228D01*
X029170Y009724D02*
X029110Y009784D01*
X029110Y009904D01*
X029170Y009964D01*
X029290Y009904D02*
X029290Y009844D01*
X030750Y010552D02*
X030750Y010732D01*
X030810Y010792D01*
X030930Y010792D01*
X030990Y010732D01*
X030990Y010552D01*
X030990Y010672D02*
X031111Y010792D01*
X031111Y010921D02*
X030870Y011161D01*
X030810Y011161D01*
X030750Y011101D01*
X030750Y010981D01*
X030810Y010921D01*
X031111Y010921D02*
X031111Y011161D01*
X031111Y011289D02*
X031111Y011529D01*
X031111Y011409D02*
X030750Y011409D01*
X030870Y011289D01*
X030750Y010552D02*
X031111Y010552D01*
X031259Y009264D02*
X031492Y009030D01*
X031551Y009089D01*
X031551Y009206D01*
X031492Y009264D01*
X031259Y009264D01*
X031200Y009206D01*
X031200Y009089D01*
X031259Y009030D01*
X031492Y009030D01*
X031551Y008905D02*
X031551Y008671D01*
X031317Y008905D01*
X031259Y008905D01*
X031200Y008847D01*
X031200Y008730D01*
X031259Y008671D01*
X031259Y008546D02*
X031375Y008546D01*
X031434Y008487D01*
X031434Y008312D01*
X031551Y008312D02*
X031200Y008312D01*
X031200Y008487D01*
X031259Y008546D01*
X031434Y008429D02*
X031551Y008546D01*
X031551Y007514D02*
X031551Y007274D01*
X031310Y007514D01*
X031250Y007514D01*
X031190Y007454D01*
X031190Y007334D01*
X031250Y007274D01*
X031250Y007146D02*
X031190Y007086D01*
X031190Y006966D01*
X031250Y006906D01*
X031250Y006777D02*
X031370Y006777D01*
X031430Y006717D01*
X031430Y006537D01*
X031430Y006657D02*
X031551Y006777D01*
X031551Y006906D02*
X031310Y007146D01*
X031250Y007146D01*
X031551Y007146D02*
X031551Y006906D01*
X031250Y006777D02*
X031190Y006717D01*
X031190Y006537D01*
X031551Y006537D01*
X029486Y007387D02*
X029486Y007507D01*
X029426Y007567D01*
X029486Y007696D02*
X029486Y007936D01*
X029486Y007816D02*
X029125Y007816D01*
X029245Y007696D01*
X029185Y007567D02*
X029125Y007507D01*
X029125Y007387D01*
X029185Y007327D01*
X029426Y007327D01*
X029486Y007387D01*
X029486Y008064D02*
X029426Y008064D01*
X029185Y008304D01*
X029125Y008304D01*
X029125Y008064D01*
X027309Y007088D02*
X027309Y007028D01*
X027069Y006787D01*
X027069Y006727D01*
X026941Y006787D02*
X026881Y006727D01*
X026761Y006727D01*
X026701Y006787D01*
X026701Y007028D01*
X026761Y007088D01*
X026881Y007088D01*
X026941Y007028D01*
X027069Y007088D02*
X027309Y007088D01*
X025926Y005624D02*
X025986Y005564D01*
X025986Y005444D01*
X025926Y005384D01*
X025805Y005384D02*
X025745Y005504D01*
X025745Y005564D01*
X025805Y005624D01*
X025926Y005624D01*
X025805Y005384D02*
X025625Y005384D01*
X025625Y005624D01*
X025261Y005539D02*
X025201Y005599D01*
X025140Y005599D01*
X025080Y005539D01*
X025080Y005359D01*
X025201Y005359D01*
X025261Y005419D01*
X025261Y005539D01*
X025080Y005359D02*
X024960Y005479D01*
X024900Y005599D01*
X024461Y005539D02*
X024461Y005419D01*
X024401Y005359D01*
X024461Y005231D02*
X024461Y004991D01*
X024461Y005111D02*
X024100Y005111D01*
X024220Y004991D01*
X024160Y004863D02*
X024100Y004802D01*
X024100Y004682D01*
X024160Y004622D01*
X024401Y004622D01*
X024461Y004682D01*
X024461Y004802D01*
X024401Y004863D01*
X024900Y004802D02*
X024960Y004863D01*
X025080Y004863D01*
X025140Y004802D01*
X025140Y004622D01*
X025140Y004742D02*
X025261Y004863D01*
X025261Y004991D02*
X025261Y005231D01*
X025261Y005111D02*
X024900Y005111D01*
X025020Y004991D01*
X024900Y004802D02*
X024900Y004622D01*
X025261Y004622D01*
X025625Y004647D02*
X025625Y004827D01*
X025685Y004888D01*
X025805Y004888D01*
X025865Y004827D01*
X025865Y004647D01*
X025865Y004767D02*
X025986Y004888D01*
X025986Y005016D02*
X025986Y005256D01*
X025986Y005136D02*
X025625Y005136D01*
X025745Y005016D01*
X025625Y004647D02*
X025986Y004647D01*
X024461Y005539D02*
X024401Y005599D01*
X024340Y005599D01*
X024280Y005539D01*
X024280Y005479D01*
X024280Y005539D02*
X024220Y005599D01*
X024160Y005599D01*
X024100Y005539D01*
X024100Y005419D01*
X024160Y005359D01*
X023686Y005334D02*
X023445Y005574D01*
X023385Y005574D01*
X023325Y005514D01*
X023325Y005394D01*
X023385Y005334D01*
X023325Y005086D02*
X023686Y005086D01*
X023686Y004966D02*
X023686Y005206D01*
X023686Y005334D02*
X023686Y005574D01*
X023325Y005086D02*
X023445Y004966D01*
X023385Y004838D02*
X023325Y004777D01*
X023325Y004657D01*
X023385Y004597D01*
X023626Y004597D01*
X023686Y004657D01*
X023686Y004777D01*
X023626Y004838D01*
X028226Y005012D02*
X028286Y004952D01*
X028406Y004952D01*
X028466Y005012D01*
X028594Y005012D02*
X028654Y004952D01*
X028774Y004952D01*
X028834Y005012D01*
X028834Y005132D01*
X028774Y005192D01*
X028714Y005192D01*
X028594Y005132D01*
X028594Y005313D01*
X028834Y005313D01*
X028466Y005253D02*
X028406Y005313D01*
X028286Y005313D01*
X028226Y005253D01*
X028226Y005012D01*
X026777Y009102D02*
X026537Y009102D01*
X026657Y009102D02*
X026657Y009463D01*
X026537Y009342D01*
X026409Y009102D02*
X026169Y009102D01*
X026289Y009102D02*
X026289Y009463D01*
X026169Y009342D01*
X026041Y009403D02*
X025981Y009463D01*
X025861Y009463D01*
X025801Y009403D01*
X025801Y009162D01*
X025861Y009102D01*
X025981Y009102D01*
X026041Y009162D01*
X017702Y011962D02*
X017642Y011902D01*
X017522Y011902D01*
X017462Y011962D01*
X017334Y011902D02*
X017094Y011902D01*
X017214Y011902D02*
X017214Y012263D01*
X017094Y012142D01*
X016966Y012082D02*
X016906Y012022D01*
X016726Y012022D01*
X016846Y012022D02*
X016966Y011902D01*
X016966Y012082D02*
X016966Y012203D01*
X016906Y012263D01*
X016726Y012263D01*
X016726Y011902D01*
X017462Y012203D02*
X017522Y012263D01*
X017642Y012263D01*
X017702Y012203D01*
X017702Y012142D01*
X017642Y012082D01*
X017702Y012022D01*
X017702Y011962D01*
X017642Y012082D02*
X017582Y012082D01*
X017642Y013277D02*
X017642Y013638D01*
X017462Y013457D01*
X017702Y013457D01*
X017334Y013277D02*
X017094Y013277D01*
X017214Y013277D02*
X017214Y013638D01*
X017094Y013517D01*
X016966Y013578D02*
X016966Y013457D01*
X016906Y013397D01*
X016726Y013397D01*
X016846Y013397D02*
X016966Y013277D01*
X016726Y013277D02*
X016726Y013638D01*
X016906Y013638D01*
X016966Y013578D01*
X015034Y013457D02*
X014794Y013457D01*
X014974Y013638D01*
X014974Y013277D01*
X014666Y013337D02*
X014606Y013277D01*
X014486Y013277D01*
X014426Y013337D01*
X014426Y013578D01*
X014486Y013638D01*
X014606Y013638D01*
X014666Y013578D01*
X014544Y012288D02*
X014424Y012288D01*
X014364Y012228D01*
X014364Y011987D01*
X014424Y011927D01*
X014544Y011927D01*
X014604Y011987D01*
X014732Y011987D02*
X014792Y011927D01*
X014912Y011927D01*
X014972Y011987D01*
X014972Y012047D01*
X014912Y012107D01*
X014852Y012107D01*
X014912Y012107D02*
X014972Y012167D01*
X014972Y012228D01*
X014912Y012288D01*
X014792Y012288D01*
X014732Y012228D01*
X014604Y012228D02*
X014544Y012288D01*
X014540Y011643D02*
X014360Y011643D01*
X014360Y011283D01*
X014540Y011283D01*
X014600Y011343D01*
X014600Y011583D01*
X014540Y011643D01*
X014728Y011523D02*
X014848Y011643D01*
X014848Y011283D01*
X014728Y011283D02*
X014969Y011283D01*
X014232Y011283D02*
X013992Y011283D01*
X013992Y011643D01*
X014232Y011643D01*
X014112Y011463D02*
X013992Y011463D01*
X013864Y011283D02*
X013623Y011283D01*
X013623Y011643D01*
X013258Y009689D02*
X013017Y009689D01*
X013017Y009509D01*
X013137Y009569D01*
X013197Y009569D01*
X013258Y009509D01*
X013258Y009389D01*
X013197Y009329D01*
X013077Y009329D01*
X013017Y009389D01*
X012889Y009329D02*
X012769Y009449D01*
X012829Y009449D02*
X012649Y009449D01*
X012649Y009329D02*
X012649Y009689D01*
X012829Y009689D01*
X012889Y009629D01*
X012889Y009509D01*
X012829Y009449D01*
X012508Y009440D02*
X012447Y009500D01*
X012267Y009500D01*
X012267Y009380D01*
X012327Y009320D01*
X012447Y009320D01*
X012508Y009380D01*
X012508Y009440D01*
X012387Y009620D02*
X012267Y009500D01*
X012139Y009500D02*
X012079Y009440D01*
X011899Y009440D01*
X012019Y009440D02*
X012139Y009320D01*
X012139Y009500D02*
X012139Y009620D01*
X012079Y009680D01*
X011899Y009680D01*
X011899Y009320D01*
X012387Y009620D02*
X012508Y009680D01*
X011076Y009006D02*
X010836Y009006D01*
X010956Y009006D02*
X010956Y009367D01*
X010836Y009247D01*
X010708Y009367D02*
X010708Y009006D01*
X010588Y009127D01*
X010468Y009006D01*
X010468Y009367D01*
X010340Y009307D02*
X010280Y009367D01*
X010160Y009367D01*
X010100Y009307D01*
X010100Y009247D01*
X010160Y009187D01*
X010280Y009187D01*
X010340Y009127D01*
X010340Y009066D01*
X010280Y009006D01*
X010160Y009006D01*
X010100Y009066D01*
X009680Y009856D02*
X009320Y009856D01*
X009680Y009856D02*
X009680Y010096D01*
X009680Y010225D02*
X009320Y010225D01*
X009320Y010465D01*
X009320Y010593D02*
X009320Y010773D01*
X009380Y010833D01*
X009620Y010833D01*
X009680Y010773D01*
X009680Y010593D01*
X009320Y010593D01*
X009500Y010345D02*
X009500Y010225D01*
X009680Y010225D02*
X009680Y010465D01*
X009680Y010961D02*
X009440Y011201D01*
X009380Y011201D01*
X009320Y011141D01*
X009320Y011021D01*
X009380Y010961D01*
X009680Y010961D02*
X009680Y011201D01*
X014050Y009320D02*
X014050Y009260D01*
X014110Y009200D01*
X014230Y009200D01*
X014290Y009140D01*
X014290Y009079D01*
X014230Y009019D01*
X014110Y009019D01*
X014050Y009079D01*
X014050Y009320D02*
X014110Y009380D01*
X014230Y009380D01*
X014290Y009320D01*
X014418Y009380D02*
X014418Y009019D01*
X014538Y009140D01*
X014658Y009019D01*
X014658Y009380D01*
X014786Y009320D02*
X014846Y009380D01*
X014966Y009380D01*
X015026Y009320D01*
X015026Y009260D01*
X014786Y009019D01*
X015026Y009019D01*
X016675Y009822D02*
X016675Y010002D01*
X016735Y010063D01*
X016855Y010063D01*
X016915Y010002D01*
X016915Y009822D01*
X016915Y009942D02*
X017036Y010063D01*
X017036Y010191D02*
X017036Y010431D01*
X017036Y010311D02*
X016675Y010311D01*
X016795Y010191D01*
X016675Y009822D02*
X017036Y009822D01*
X017036Y010559D02*
X016795Y010799D01*
X016735Y010799D01*
X016675Y010739D01*
X016675Y010619D01*
X016735Y010559D01*
X017036Y010559D02*
X017036Y010799D01*
X009536Y018552D02*
X009175Y018552D01*
X009175Y018732D01*
X009235Y018792D01*
X009355Y018792D01*
X009415Y018732D01*
X009415Y018552D01*
X009415Y018672D02*
X009536Y018792D01*
X009476Y018921D02*
X009536Y018981D01*
X009536Y019101D01*
X009476Y019161D01*
X009415Y019161D01*
X009355Y019101D01*
X009355Y019041D01*
X009355Y019101D02*
X009295Y019161D01*
X009235Y019161D01*
X009175Y019101D01*
X009175Y018981D01*
X009235Y018921D01*
X010625Y019401D02*
X010685Y019341D01*
X010926Y019341D01*
X010986Y019401D01*
X010986Y019521D01*
X010926Y019581D01*
X010986Y019709D02*
X010986Y019949D01*
X010986Y019829D02*
X010625Y019829D01*
X010745Y019709D01*
X010685Y019581D02*
X010625Y019521D01*
X010625Y019401D01*
X011746Y019487D02*
X011806Y019427D01*
X011926Y019427D01*
X011986Y019487D01*
X012114Y019427D02*
X012354Y019427D01*
X012234Y019427D02*
X012234Y019788D01*
X012114Y019667D01*
X011986Y019728D02*
X011926Y019788D01*
X011806Y019788D01*
X011746Y019728D01*
X011746Y019487D01*
X012482Y019487D02*
X012542Y019427D01*
X012662Y019427D01*
X012722Y019487D01*
X012722Y019547D01*
X012662Y019607D01*
X012542Y019607D01*
X012482Y019667D01*
X012482Y019728D01*
X012542Y019788D01*
X012662Y019788D01*
X012722Y019728D01*
X012722Y019667D01*
X012662Y019607D01*
X012542Y019607D02*
X012482Y019547D01*
X012482Y019487D01*
X010484Y020652D02*
X010244Y020652D01*
X010484Y020892D01*
X010484Y020953D01*
X010424Y021013D01*
X010304Y021013D01*
X010244Y020953D01*
X010116Y020953D02*
X010056Y021013D01*
X009936Y021013D01*
X009876Y020953D01*
X009876Y020712D01*
X009936Y020652D01*
X010056Y020652D01*
X010116Y020712D01*
X011226Y021207D02*
X011286Y021147D01*
X011346Y021147D01*
X011406Y021207D01*
X011406Y021507D01*
X011346Y021507D02*
X011466Y021507D01*
X011594Y021507D02*
X011774Y021507D01*
X011834Y021447D01*
X011834Y021327D01*
X011774Y021267D01*
X011594Y021267D01*
X011594Y021147D02*
X011594Y021507D01*
X011962Y021387D02*
X012082Y021507D01*
X012082Y021147D01*
X011962Y021147D02*
X012202Y021147D01*
X009852Y022487D02*
X009792Y022427D01*
X009672Y022427D01*
X009612Y022487D01*
X009852Y022728D01*
X009852Y022487D01*
X009612Y022487D02*
X009612Y022728D01*
X009672Y022788D01*
X009792Y022788D01*
X009852Y022728D01*
X009484Y022427D02*
X009244Y022427D01*
X009364Y022427D02*
X009364Y022788D01*
X009244Y022667D01*
X009116Y022728D02*
X009116Y022607D01*
X009056Y022547D01*
X008876Y022547D01*
X008996Y022547D02*
X009116Y022427D01*
X008876Y022427D02*
X008876Y022788D01*
X009056Y022788D01*
X009116Y022728D01*
X009094Y023202D02*
X009334Y023442D01*
X009334Y023503D01*
X009274Y023563D01*
X009154Y023563D01*
X009094Y023503D01*
X008966Y023503D02*
X008966Y023382D01*
X008906Y023322D01*
X008726Y023322D01*
X008846Y023322D02*
X008966Y023202D01*
X009094Y023202D02*
X009334Y023202D01*
X009462Y023262D02*
X009522Y023202D01*
X009642Y023202D01*
X009702Y023262D01*
X009702Y023382D01*
X009642Y023442D01*
X009582Y023442D01*
X009462Y023382D01*
X009462Y023563D01*
X009702Y023563D01*
X008966Y023503D02*
X008906Y023563D01*
X008726Y023563D01*
X008726Y023202D01*
X007452Y023257D02*
X007272Y023257D01*
X007212Y023317D01*
X007212Y023378D01*
X007272Y023438D01*
X007392Y023438D01*
X007452Y023378D01*
X007452Y023137D01*
X007392Y023077D01*
X007272Y023077D01*
X007212Y023137D01*
X007084Y023077D02*
X006844Y023077D01*
X007084Y023317D01*
X007084Y023378D01*
X007024Y023438D01*
X006904Y023438D01*
X006844Y023378D01*
X006716Y023378D02*
X006716Y023257D01*
X006656Y023197D01*
X006476Y023197D01*
X006596Y023197D02*
X006716Y023077D01*
X006476Y023077D02*
X006476Y023438D01*
X006656Y023438D01*
X006716Y023378D01*
X007226Y025652D02*
X007166Y025712D01*
X007166Y025953D01*
X007226Y026013D01*
X007346Y026013D01*
X007406Y025953D01*
X007406Y025712D01*
X007346Y025652D01*
X007226Y025652D01*
X007286Y025772D02*
X007406Y025652D01*
X007534Y025712D02*
X007594Y025652D01*
X007714Y025652D01*
X007774Y025712D01*
X007774Y025832D01*
X007714Y025892D01*
X007654Y025892D01*
X007534Y025832D01*
X007534Y026013D01*
X007774Y026013D01*
X009076Y026162D02*
X009136Y026102D01*
X009256Y026102D01*
X009316Y026162D01*
X009316Y026403D01*
X009256Y026463D01*
X009136Y026463D01*
X009076Y026403D01*
X009076Y026162D01*
X009444Y026102D02*
X009444Y026463D01*
X009504Y026282D02*
X009684Y026102D01*
X009812Y026102D02*
X010052Y026102D01*
X009932Y026102D02*
X009932Y026463D01*
X009812Y026342D01*
X009684Y026463D02*
X009444Y026222D01*
X010401Y026752D02*
X010401Y027113D01*
X010581Y027113D01*
X010641Y027053D01*
X010641Y026932D01*
X010581Y026872D01*
X010401Y026872D01*
X010521Y026872D02*
X010641Y026752D01*
X010769Y026812D02*
X010829Y026752D01*
X010949Y026752D01*
X011009Y026812D01*
X011009Y026872D01*
X010949Y026932D01*
X010889Y026932D01*
X010949Y026932D02*
X011009Y026992D01*
X011009Y027053D01*
X010949Y027113D01*
X010829Y027113D01*
X010769Y027053D01*
X011137Y027053D02*
X011137Y026812D01*
X011377Y027053D01*
X011377Y026812D01*
X011317Y026752D01*
X011197Y026752D01*
X011137Y026812D01*
X011137Y027053D02*
X011197Y027113D01*
X011317Y027113D01*
X011377Y027053D01*
X010764Y028102D02*
X010824Y028162D01*
X010824Y028222D01*
X010764Y028282D01*
X010584Y028282D01*
X010584Y028162D01*
X010644Y028102D01*
X010764Y028102D01*
X010584Y028282D02*
X010704Y028403D01*
X010824Y028463D01*
X010456Y028403D02*
X010456Y028162D01*
X010396Y028102D01*
X010276Y028102D01*
X010216Y028162D01*
X010216Y028403D01*
X010276Y028463D01*
X010396Y028463D01*
X010456Y028403D01*
X010336Y028222D02*
X010456Y028102D01*
X012436Y028802D02*
X012496Y028742D01*
X012616Y028742D01*
X012676Y028802D01*
X012804Y028742D02*
X013044Y028982D01*
X013044Y029043D01*
X012984Y029103D01*
X012864Y029103D01*
X012804Y029043D01*
X012676Y029043D02*
X012616Y029103D01*
X012496Y029103D01*
X012436Y029043D01*
X012436Y028802D01*
X012804Y028742D02*
X013044Y028742D01*
X013172Y028802D02*
X013412Y029043D01*
X013412Y028802D01*
X013352Y028742D01*
X013232Y028742D01*
X013172Y028802D01*
X013172Y029043D01*
X013232Y029103D01*
X013352Y029103D01*
X013412Y029043D01*
X014893Y028331D02*
X015133Y028331D01*
X015133Y028271D01*
X014893Y028031D01*
X014893Y027971D01*
X015133Y027971D01*
X015261Y027971D02*
X015441Y027971D01*
X015501Y028031D01*
X015501Y028271D01*
X015441Y028331D01*
X015261Y028331D01*
X015261Y027971D01*
X015629Y027971D02*
X015869Y028211D01*
X015869Y028271D01*
X015809Y028331D01*
X015689Y028331D01*
X015629Y028271D01*
X015629Y027971D02*
X015869Y027971D01*
X015256Y027494D02*
X015015Y027494D01*
X015015Y027314D01*
X015135Y027374D01*
X015195Y027374D01*
X015256Y027314D01*
X015256Y027194D01*
X015195Y027134D01*
X015075Y027134D01*
X015015Y027194D01*
X014887Y027194D02*
X014887Y027434D01*
X014827Y027494D01*
X014647Y027494D01*
X014647Y027134D01*
X014827Y027134D01*
X014887Y027194D01*
X016701Y028302D02*
X016701Y028663D01*
X016881Y028663D01*
X016941Y028603D01*
X016941Y028482D01*
X016881Y028422D01*
X016701Y028422D01*
X016821Y028422D02*
X016941Y028302D01*
X017069Y028302D02*
X017309Y028542D01*
X017309Y028603D01*
X017249Y028663D01*
X017129Y028663D01*
X017069Y028603D01*
X017069Y028302D02*
X017309Y028302D01*
X017437Y028362D02*
X017497Y028302D01*
X017617Y028302D01*
X017677Y028362D01*
X017677Y028422D01*
X017617Y028482D01*
X017497Y028482D01*
X017437Y028542D01*
X017437Y028603D01*
X017497Y028663D01*
X017617Y028663D01*
X017677Y028603D01*
X017677Y028542D01*
X017617Y028482D01*
X017497Y028482D02*
X017437Y028422D01*
X017437Y028362D01*
X021426Y028413D02*
X021426Y028052D01*
X021426Y028172D02*
X021606Y028172D01*
X021666Y028232D01*
X021666Y028353D01*
X021606Y028413D01*
X021426Y028413D01*
X021546Y028172D02*
X021666Y028052D01*
X021794Y028052D02*
X022034Y028292D01*
X022034Y028353D01*
X021974Y028413D01*
X021854Y028413D01*
X021794Y028353D01*
X021794Y028052D02*
X022034Y028052D01*
X022162Y028052D02*
X022162Y028112D01*
X022402Y028353D01*
X022402Y028413D01*
X022162Y028413D01*
X023122Y028019D02*
X023122Y027659D01*
X023302Y027659D01*
X023362Y027719D01*
X023362Y027959D01*
X023302Y028019D01*
X023122Y028019D01*
X023490Y027839D02*
X023731Y027839D01*
X023670Y028019D02*
X023490Y027839D01*
X023670Y027659D02*
X023670Y028019D01*
X023539Y026813D02*
X023359Y026632D01*
X023599Y026632D01*
X023539Y026452D02*
X023539Y026813D01*
X023231Y026753D02*
X023231Y026512D01*
X023171Y026452D01*
X023051Y026452D01*
X022991Y026512D01*
X022991Y026753D01*
X023051Y026813D01*
X023171Y026813D01*
X023231Y026753D01*
X023111Y026572D02*
X023231Y026452D01*
X023181Y024113D02*
X023001Y024113D01*
X023001Y023752D01*
X023001Y023872D02*
X023181Y023872D01*
X023241Y023932D01*
X023241Y024053D01*
X023181Y024113D01*
X023369Y024053D02*
X023429Y024113D01*
X023549Y024113D01*
X023609Y024053D01*
X023609Y023992D01*
X023369Y023752D01*
X023609Y023752D01*
X023737Y023932D02*
X023977Y023932D01*
X023917Y023752D02*
X023917Y024113D01*
X023737Y023932D01*
X023241Y023752D02*
X023121Y023872D01*
X015111Y024037D02*
X015111Y024157D01*
X015051Y024217D01*
X015111Y024346D02*
X015111Y024586D01*
X015111Y024466D02*
X014750Y024466D01*
X014870Y024346D01*
X014810Y024217D02*
X014750Y024157D01*
X014750Y024037D01*
X014810Y023977D01*
X015051Y023977D01*
X015111Y024037D01*
X015051Y024714D02*
X015111Y024774D01*
X015111Y024894D01*
X015051Y024954D01*
X014810Y024954D01*
X014750Y024894D01*
X014750Y024774D01*
X014810Y024714D01*
X014870Y024714D01*
X014930Y024774D01*
X014930Y024954D01*
X012627Y024138D02*
X012507Y024078D01*
X012387Y023957D01*
X012567Y023957D01*
X012627Y023897D01*
X012627Y023837D01*
X012567Y023777D01*
X012447Y023777D01*
X012387Y023837D01*
X012387Y023957D01*
X012259Y024017D02*
X012259Y024078D01*
X012199Y024138D01*
X012079Y024138D01*
X012019Y024078D01*
X011891Y024078D02*
X011891Y023957D01*
X011831Y023897D01*
X011651Y023897D01*
X011771Y023897D02*
X011891Y023777D01*
X012019Y023777D02*
X012259Y024017D01*
X012259Y023777D02*
X012019Y023777D01*
X011891Y024078D02*
X011831Y024138D01*
X011651Y024138D01*
X011651Y023777D01*
X008814Y020738D02*
X008694Y020617D01*
X008566Y020557D02*
X008506Y020497D01*
X008326Y020497D01*
X008446Y020497D02*
X008566Y020377D01*
X008694Y020377D02*
X008934Y020377D01*
X008814Y020377D02*
X008814Y020738D01*
X008566Y020678D02*
X008566Y020557D01*
X008566Y020678D02*
X008506Y020738D01*
X008326Y020738D01*
X008326Y020377D01*
X036251Y026427D02*
X036251Y026788D01*
X036311Y026607D02*
X036491Y026427D01*
X036619Y026427D02*
X036859Y026427D01*
X036739Y026427D02*
X036739Y026788D01*
X036619Y026667D01*
X036491Y026788D02*
X036251Y026547D01*
D816*
X034806Y023582D02*
X028306Y023582D01*
X028306Y014682D01*
X034806Y014682D01*
X034806Y023582D01*
X031806Y021082D02*
X031306Y021082D01*
X031806Y020082D01*
X031556Y019832D02*
X031556Y017232D01*
X031806Y016982D02*
X033026Y016982D01*
X031306Y016982D02*
X030076Y016982D01*
X030158Y014538D02*
X029991Y014538D01*
X029907Y014454D01*
X029907Y014121D01*
X029991Y014037D01*
X030158Y014037D01*
X030241Y014121D01*
X030241Y014454D02*
X030158Y014538D01*
X029725Y014454D02*
X029642Y014538D01*
X029392Y014538D01*
X029392Y014037D01*
X029642Y014037D01*
X029725Y014121D01*
X029725Y014454D01*
X029210Y013954D02*
X028876Y013954D01*
X028694Y014037D02*
X028444Y014287D01*
X028361Y014204D02*
X028694Y014538D01*
X028361Y014538D02*
X028361Y014037D01*
X028081Y014357D02*
X019181Y014357D01*
X019181Y020857D01*
X028081Y020857D01*
X028081Y014357D01*
X025781Y016127D02*
X025781Y017357D01*
X025531Y017607D02*
X022931Y017607D01*
X022681Y017857D02*
X021681Y017357D01*
X021681Y017857D01*
X021431Y017607D02*
X021031Y017607D01*
X022181Y017357D02*
X022181Y015257D01*
X021931Y015257D01*
X019361Y013617D02*
X019361Y013297D01*
X019121Y012867D02*
X018961Y012867D01*
X018801Y012867D01*
X018801Y013217D01*
X019091Y012988D02*
X019071Y012988D01*
X019052Y012984D01*
X019033Y012978D01*
X019015Y012968D01*
X019000Y012956D01*
X018986Y012942D01*
X018975Y012925D01*
X018967Y012907D01*
X018963Y012887D01*
X018961Y012868D01*
X018801Y013697D02*
X018801Y014047D01*
X019121Y014047D01*
X018806Y015057D02*
X018506Y015057D01*
X018656Y015282D01*
X018806Y015057D01*
X018798Y015068D02*
X018513Y015068D01*
X018552Y015127D02*
X018759Y015127D01*
X018720Y015185D02*
X018591Y015185D01*
X018630Y015244D02*
X018681Y015244D01*
X016656Y014582D02*
X016656Y016682D01*
X016654Y016705D01*
X016649Y016728D01*
X016640Y016750D01*
X016627Y016770D01*
X016612Y016788D01*
X016594Y016803D01*
X016574Y016816D01*
X016552Y016825D01*
X016529Y016830D01*
X016506Y016832D01*
X016156Y016832D01*
X016056Y016732D01*
X010756Y016732D01*
X010656Y016832D01*
X010306Y016832D01*
X010306Y016857D02*
X010656Y016857D01*
X010756Y016957D01*
X016056Y016957D01*
X016156Y016857D01*
X016506Y016857D01*
X016529Y016859D01*
X016552Y016864D01*
X016574Y016873D01*
X016594Y016886D01*
X016612Y016901D01*
X016627Y016919D01*
X016640Y016939D01*
X016649Y016961D01*
X016654Y016984D01*
X016656Y017007D01*
X016656Y019107D01*
X016654Y019130D01*
X016649Y019153D01*
X016640Y019175D01*
X016627Y019195D01*
X016612Y019213D01*
X016594Y019228D01*
X016574Y019241D01*
X016552Y019250D01*
X016529Y019255D01*
X016506Y019257D01*
X016156Y019257D01*
X016056Y019157D01*
X010756Y019157D01*
X010656Y019257D01*
X010306Y019257D01*
X010283Y019255D01*
X010260Y019250D01*
X010238Y019241D01*
X010218Y019228D01*
X010200Y019213D01*
X010185Y019195D01*
X010172Y019175D01*
X010163Y019153D01*
X010158Y019130D01*
X010156Y019107D01*
X010156Y017007D01*
X010158Y016984D01*
X010163Y016961D01*
X010172Y016939D01*
X010185Y016919D01*
X010200Y016901D01*
X010218Y016886D01*
X010238Y016873D01*
X010260Y016864D01*
X010283Y016859D01*
X010306Y016857D01*
X010306Y016832D02*
X010283Y016830D01*
X010260Y016825D01*
X010238Y016816D01*
X010218Y016803D01*
X010200Y016788D01*
X010185Y016770D01*
X010172Y016750D01*
X010163Y016728D01*
X010158Y016705D01*
X010156Y016682D01*
X010156Y014582D01*
X010158Y014559D01*
X010163Y014536D01*
X010172Y014514D01*
X010185Y014494D01*
X010200Y014476D01*
X010218Y014461D01*
X010238Y014448D01*
X010260Y014439D01*
X010283Y014434D01*
X010306Y014432D01*
X010656Y014432D01*
X010756Y014532D01*
X016056Y014532D01*
X016156Y014432D01*
X016506Y014432D01*
X016529Y014434D01*
X016552Y014439D01*
X016574Y014448D01*
X016594Y014461D01*
X016612Y014476D01*
X016627Y014494D01*
X016640Y014514D01*
X016649Y014536D01*
X016654Y014559D01*
X016656Y014582D01*
X017106Y011757D02*
X017106Y008957D01*
X020506Y008957D01*
X020506Y011757D01*
X017106Y011757D01*
X017506Y011657D02*
X017506Y010637D01*
X017506Y010077D02*
X017506Y009057D01*
X020106Y009057D01*
X020106Y010077D01*
X020196Y009857D02*
X020496Y009857D01*
X020346Y009707D02*
X020346Y010007D01*
X020106Y009707D02*
X019456Y009057D01*
X017906Y007785D02*
X017606Y007785D01*
X017456Y007785D02*
X017458Y007819D01*
X017464Y007853D01*
X017473Y007886D01*
X017487Y007917D01*
X017504Y007947D01*
X017524Y007975D01*
X017547Y008000D01*
X017573Y008023D01*
X017601Y008042D01*
X017631Y008058D01*
X017663Y008070D01*
X017696Y008079D01*
X017730Y008084D01*
X017765Y008085D01*
X017799Y008082D01*
X017832Y008075D01*
X017865Y008065D01*
X017896Y008050D01*
X017925Y008033D01*
X017952Y008012D01*
X017977Y007988D01*
X017999Y007961D01*
X018017Y007933D01*
X018032Y007902D01*
X018044Y007870D01*
X018052Y007836D01*
X018056Y007802D01*
X018056Y007768D01*
X018052Y007734D01*
X018044Y007700D01*
X018032Y007668D01*
X018017Y007637D01*
X017999Y007609D01*
X017977Y007582D01*
X017952Y007558D01*
X017925Y007537D01*
X017896Y007520D01*
X017865Y007505D01*
X017832Y007495D01*
X017799Y007488D01*
X017765Y007485D01*
X017730Y007486D01*
X017696Y007491D01*
X017663Y007500D01*
X017631Y007512D01*
X017601Y007528D01*
X017573Y007547D01*
X017547Y007570D01*
X017524Y007595D01*
X017504Y007623D01*
X017487Y007653D01*
X017473Y007684D01*
X017464Y007717D01*
X017458Y007751D01*
X017456Y007785D01*
X017756Y007635D02*
X017756Y007935D01*
X016863Y006982D02*
X016865Y007065D01*
X016871Y007148D01*
X016881Y007230D01*
X016896Y007312D01*
X016914Y007393D01*
X016936Y007473D01*
X016962Y007552D01*
X016992Y007630D01*
X017026Y007706D01*
X017063Y007780D01*
X017104Y007852D01*
X017148Y007923D01*
X017196Y007991D01*
X017247Y008056D01*
X017302Y008119D01*
X017359Y008179D01*
X017419Y008236D01*
X017482Y008291D01*
X017547Y008342D01*
X017615Y008390D01*
X017686Y008434D01*
X017758Y008475D01*
X017832Y008512D01*
X017908Y008546D01*
X017986Y008576D01*
X018065Y008602D01*
X018145Y008624D01*
X018226Y008642D01*
X018308Y008657D01*
X018390Y008667D01*
X018473Y008673D01*
X018556Y008675D01*
X018639Y008673D01*
X018722Y008667D01*
X018804Y008657D01*
X018886Y008642D01*
X018967Y008624D01*
X019047Y008602D01*
X019126Y008576D01*
X019204Y008546D01*
X019280Y008512D01*
X019354Y008475D01*
X019426Y008434D01*
X019497Y008390D01*
X019565Y008342D01*
X019630Y008291D01*
X019693Y008236D01*
X019753Y008179D01*
X019810Y008119D01*
X019865Y008056D01*
X019916Y007991D01*
X019964Y007923D01*
X020008Y007852D01*
X020049Y007780D01*
X020086Y007706D01*
X020120Y007630D01*
X020150Y007552D01*
X020176Y007473D01*
X020198Y007393D01*
X020216Y007312D01*
X020231Y007230D01*
X020241Y007148D01*
X020247Y007065D01*
X020249Y006982D01*
X020247Y006899D01*
X020241Y006816D01*
X020231Y006734D01*
X020216Y006652D01*
X020198Y006571D01*
X020176Y006491D01*
X020150Y006412D01*
X020120Y006334D01*
X020086Y006258D01*
X020049Y006184D01*
X020008Y006112D01*
X019964Y006041D01*
X019916Y005973D01*
X019865Y005908D01*
X019810Y005845D01*
X019753Y005785D01*
X019693Y005728D01*
X019630Y005673D01*
X019565Y005622D01*
X019497Y005574D01*
X019426Y005530D01*
X019354Y005489D01*
X019280Y005452D01*
X019204Y005418D01*
X019126Y005388D01*
X019047Y005362D01*
X018967Y005340D01*
X018886Y005322D01*
X018804Y005307D01*
X018722Y005297D01*
X018639Y005291D01*
X018556Y005289D01*
X018473Y005291D01*
X018390Y005297D01*
X018308Y005307D01*
X018226Y005322D01*
X018145Y005340D01*
X018065Y005362D01*
X017986Y005388D01*
X017908Y005418D01*
X017832Y005452D01*
X017758Y005489D01*
X017686Y005530D01*
X017615Y005574D01*
X017547Y005622D01*
X017482Y005673D01*
X017419Y005728D01*
X017359Y005785D01*
X017302Y005845D01*
X017247Y005908D01*
X017196Y005973D01*
X017148Y006041D01*
X017104Y006112D01*
X017063Y006184D01*
X017026Y006258D01*
X016992Y006334D01*
X016962Y006412D01*
X016936Y006491D01*
X016914Y006571D01*
X016896Y006652D01*
X016881Y006734D01*
X016871Y006816D01*
X016865Y006899D01*
X016863Y006982D01*
X016706Y006982D02*
X016708Y007073D01*
X016715Y007163D01*
X016726Y007253D01*
X016742Y007343D01*
X016761Y007432D01*
X016786Y007519D01*
X016814Y007605D01*
X016847Y007690D01*
X016884Y007773D01*
X016924Y007854D01*
X016969Y007933D01*
X017018Y008010D01*
X017070Y008084D01*
X017126Y008156D01*
X017185Y008224D01*
X017248Y008290D01*
X017314Y008353D01*
X017382Y008412D01*
X017454Y008468D01*
X017528Y008520D01*
X017605Y008569D01*
X017684Y008614D01*
X017765Y008654D01*
X017848Y008691D01*
X017933Y008724D01*
X018019Y008752D01*
X018106Y008777D01*
X018195Y008796D01*
X018285Y008812D01*
X018375Y008823D01*
X018465Y008830D01*
X018556Y008832D01*
X018647Y008830D01*
X018737Y008823D01*
X018827Y008812D01*
X018917Y008796D01*
X019006Y008777D01*
X019093Y008752D01*
X019179Y008724D01*
X019264Y008691D01*
X019347Y008654D01*
X019428Y008614D01*
X019507Y008569D01*
X019584Y008520D01*
X019658Y008468D01*
X019730Y008412D01*
X019798Y008353D01*
X019864Y008290D01*
X019927Y008224D01*
X019986Y008156D01*
X020042Y008084D01*
X020094Y008010D01*
X020143Y007933D01*
X020188Y007854D01*
X020228Y007773D01*
X020265Y007690D01*
X020298Y007605D01*
X020326Y007519D01*
X020351Y007432D01*
X020370Y007343D01*
X020386Y007253D01*
X020397Y007163D01*
X020404Y007073D01*
X020406Y006982D01*
X020404Y006891D01*
X020397Y006801D01*
X020386Y006711D01*
X020370Y006621D01*
X020351Y006532D01*
X020326Y006445D01*
X020298Y006359D01*
X020265Y006274D01*
X020228Y006191D01*
X020188Y006110D01*
X020143Y006031D01*
X020094Y005954D01*
X020042Y005880D01*
X019986Y005808D01*
X019927Y005740D01*
X019864Y005674D01*
X019798Y005611D01*
X019730Y005552D01*
X019658Y005496D01*
X019584Y005444D01*
X019507Y005395D01*
X019428Y005350D01*
X019347Y005310D01*
X019264Y005273D01*
X019179Y005240D01*
X019093Y005212D01*
X019006Y005187D01*
X018917Y005168D01*
X018827Y005152D01*
X018737Y005141D01*
X018647Y005134D01*
X018556Y005132D01*
X018465Y005134D01*
X018375Y005141D01*
X018285Y005152D01*
X018195Y005168D01*
X018106Y005187D01*
X018019Y005212D01*
X017933Y005240D01*
X017848Y005273D01*
X017765Y005310D01*
X017684Y005350D01*
X017605Y005395D01*
X017528Y005444D01*
X017454Y005496D01*
X017382Y005552D01*
X017314Y005611D01*
X017248Y005674D01*
X017185Y005740D01*
X017126Y005808D01*
X017070Y005880D01*
X017018Y005954D01*
X016969Y006031D01*
X016924Y006110D01*
X016884Y006191D01*
X016847Y006274D01*
X016814Y006359D01*
X016786Y006445D01*
X016761Y006532D01*
X016742Y006621D01*
X016726Y006711D01*
X016715Y006801D01*
X016708Y006891D01*
X016706Y006982D01*
X013936Y010362D02*
X013938Y010409D01*
X013944Y010457D01*
X013953Y010503D01*
X013966Y010549D01*
X013982Y010593D01*
X014003Y010637D01*
X014026Y010678D01*
X014052Y010717D01*
X014082Y010754D01*
X014115Y010789D01*
X014150Y010821D01*
X014187Y010850D01*
X015136Y010362D02*
X015134Y010317D01*
X015129Y010271D01*
X015121Y010227D01*
X015109Y010183D01*
X015093Y010140D01*
X015075Y010098D01*
X015053Y010058D01*
X015029Y010020D01*
X015002Y009984D01*
X014972Y009949D01*
X014939Y009918D01*
X014904Y009888D01*
X015136Y010362D02*
X015134Y010407D01*
X015129Y010453D01*
X015121Y010497D01*
X015109Y010541D01*
X015093Y010584D01*
X015075Y010626D01*
X015053Y010666D01*
X015029Y010704D01*
X015002Y010740D01*
X014972Y010775D01*
X014939Y010806D01*
X014904Y010836D01*
X013936Y010362D02*
X013938Y010316D01*
X013943Y010270D01*
X013952Y010224D01*
X013964Y010179D01*
X013980Y010136D01*
X013999Y010094D01*
X014022Y010053D01*
X014047Y010014D01*
X014075Y009978D01*
X014106Y009943D01*
X014140Y009911D01*
X014176Y009882D01*
X010881Y011782D02*
X010881Y012282D01*
X010631Y012532D01*
X010881Y012782D01*
X010881Y013282D01*
X010631Y013532D01*
X010881Y013782D01*
X010881Y014282D01*
X010631Y014532D01*
X009131Y014532D02*
X008881Y014282D01*
X008881Y013782D01*
X009131Y013532D01*
X008881Y013282D01*
X008881Y012782D01*
X009131Y012532D01*
X008881Y012282D01*
X008881Y011782D01*
X009131Y011532D01*
X010631Y011532D02*
X010881Y011782D01*
X011199Y010362D02*
X011197Y010317D01*
X011192Y010271D01*
X011184Y010227D01*
X011172Y010183D01*
X011156Y010140D01*
X011138Y010098D01*
X011116Y010058D01*
X011092Y010020D01*
X011065Y009984D01*
X011035Y009949D01*
X011002Y009918D01*
X010967Y009888D01*
X009999Y010362D02*
X010001Y010409D01*
X010007Y010457D01*
X010016Y010503D01*
X010029Y010549D01*
X010045Y010593D01*
X010066Y010637D01*
X010089Y010678D01*
X010115Y010717D01*
X010145Y010754D01*
X010178Y010789D01*
X010213Y010821D01*
X010250Y010850D01*
X009999Y010362D02*
X010001Y010316D01*
X010006Y010270D01*
X010015Y010224D01*
X010027Y010179D01*
X010043Y010136D01*
X010062Y010094D01*
X010085Y010053D01*
X010110Y010014D01*
X010138Y009978D01*
X010169Y009943D01*
X010203Y009911D01*
X010239Y009882D01*
X011199Y010362D02*
X011197Y010407D01*
X011192Y010453D01*
X011184Y010497D01*
X011172Y010541D01*
X011156Y010584D01*
X011138Y010626D01*
X011116Y010666D01*
X011092Y010704D01*
X011065Y010740D01*
X011035Y010775D01*
X011002Y010806D01*
X010967Y010836D01*
X017506Y011657D02*
X020106Y011657D01*
X020106Y011007D01*
X019456Y011657D01*
X020106Y011007D02*
X020106Y010637D01*
X021166Y006097D02*
X021326Y006097D01*
X021486Y006097D01*
X021486Y005747D01*
X021196Y005977D02*
X021216Y005977D01*
X021235Y005981D01*
X021254Y005987D01*
X021272Y005997D01*
X021287Y006009D01*
X021301Y006023D01*
X021312Y006040D01*
X021320Y006058D01*
X021324Y006078D01*
X021326Y006097D01*
X020926Y005667D02*
X020926Y005347D01*
X021486Y005267D02*
X021486Y004917D01*
X021166Y004917D01*
X026826Y008247D02*
X026826Y008837D01*
X026847Y008839D01*
X026867Y008844D01*
X026886Y008853D01*
X026903Y008865D01*
X026918Y008880D01*
X026930Y008897D01*
X026939Y008916D01*
X026944Y008936D01*
X026946Y008957D01*
X026944Y008978D01*
X026939Y008998D01*
X026930Y009017D01*
X026918Y009034D01*
X026903Y009049D01*
X026886Y009061D01*
X026867Y009070D01*
X026847Y009075D01*
X026826Y009077D01*
X026826Y009667D01*
X026956Y008657D02*
X027206Y008657D01*
X026956Y008307D01*
X026956Y008657D01*
X026956Y008633D02*
X027188Y008633D01*
X027147Y008575D02*
X026956Y008575D01*
X026956Y008516D02*
X027105Y008516D01*
X027063Y008458D02*
X026956Y008458D01*
X026956Y008399D02*
X027021Y008399D01*
X026980Y008341D02*
X026956Y008341D01*
X028786Y008247D02*
X028786Y009667D01*
X027456Y011657D02*
X027131Y011907D01*
X027456Y012132D01*
X027456Y011657D01*
X027456Y011675D02*
X027432Y011675D01*
X027456Y011734D02*
X027356Y011734D01*
X027280Y011792D02*
X027456Y011792D01*
X027456Y011851D02*
X027204Y011851D01*
X027134Y011909D02*
X027456Y011909D01*
X027456Y011968D02*
X027218Y011968D01*
X027303Y012026D02*
X027456Y012026D01*
X027456Y012085D02*
X027387Y012085D01*
X032440Y013118D02*
X032442Y013165D01*
X032448Y013213D01*
X032457Y013259D01*
X032470Y013305D01*
X032486Y013349D01*
X032507Y013393D01*
X032530Y013434D01*
X032556Y013473D01*
X032586Y013510D01*
X032619Y013545D01*
X032654Y013577D01*
X032691Y013606D01*
X033640Y013118D02*
X033638Y013073D01*
X033633Y013027D01*
X033625Y012983D01*
X033613Y012939D01*
X033597Y012896D01*
X033579Y012854D01*
X033557Y012814D01*
X033533Y012776D01*
X033506Y012740D01*
X033476Y012705D01*
X033443Y012674D01*
X033408Y012644D01*
X033640Y013118D02*
X033638Y013163D01*
X033633Y013209D01*
X033625Y013253D01*
X033613Y013297D01*
X033597Y013340D01*
X033579Y013382D01*
X033557Y013422D01*
X033533Y013460D01*
X033506Y013496D01*
X033476Y013531D01*
X033443Y013562D01*
X033408Y013592D01*
X032440Y013118D02*
X032442Y013072D01*
X032447Y013026D01*
X032456Y012980D01*
X032468Y012935D01*
X032484Y012892D01*
X032503Y012850D01*
X032526Y012809D01*
X032551Y012770D01*
X032579Y012734D01*
X032610Y012699D01*
X032644Y012667D01*
X032680Y012638D01*
X025781Y017857D02*
X025781Y019077D01*
X022181Y019957D02*
X022181Y017857D01*
X022181Y019957D02*
X021931Y019957D01*
X022039Y021087D02*
X022122Y021171D01*
X022122Y021504D01*
X022039Y021588D01*
X021789Y021588D01*
X021789Y021087D01*
X022039Y021087D01*
X021607Y021087D02*
X021607Y021421D01*
X021440Y021588D01*
X021273Y021421D01*
X021273Y021087D01*
X021091Y021171D02*
X021091Y021504D01*
X021008Y021588D01*
X020841Y021588D01*
X020757Y021504D01*
X020757Y021171D01*
X020841Y021087D01*
X021008Y021087D01*
X021091Y021171D01*
X021273Y021337D02*
X021607Y021337D01*
X020575Y021087D02*
X020242Y021087D01*
X020242Y021588D01*
X020060Y021004D02*
X019726Y021004D01*
X019544Y021087D02*
X019294Y021337D01*
X019211Y021254D02*
X019544Y021588D01*
X019211Y021588D02*
X019211Y021087D01*
X015517Y020352D02*
X014901Y020352D01*
X014899Y020373D01*
X014894Y020393D01*
X014885Y020412D01*
X014873Y020429D01*
X014858Y020444D01*
X014841Y020456D01*
X014822Y020465D01*
X014802Y020470D01*
X014781Y020472D01*
X014760Y020470D01*
X014740Y020465D01*
X014721Y020456D01*
X014704Y020444D01*
X014689Y020429D01*
X014677Y020412D01*
X014668Y020393D01*
X014663Y020373D01*
X014661Y020352D01*
X014044Y020352D01*
X015056Y020607D02*
X015056Y020857D01*
X015406Y020607D01*
X015056Y020607D01*
X015056Y020626D02*
X015380Y020626D01*
X015298Y020684D02*
X015056Y020684D01*
X015056Y020743D02*
X015216Y020743D01*
X015134Y020801D02*
X015056Y020801D01*
X015517Y022312D02*
X014044Y022312D01*
X015481Y023957D02*
X022181Y023957D01*
X022207Y023959D01*
X022233Y023964D01*
X022258Y023972D01*
X022281Y023984D01*
X022303Y023998D01*
X022322Y024016D01*
X022340Y024035D01*
X022354Y024057D01*
X022366Y024080D01*
X022374Y024105D01*
X022379Y024131D01*
X022381Y024157D01*
X022381Y026957D01*
X022379Y026983D01*
X022374Y027009D01*
X022366Y027034D01*
X022354Y027057D01*
X022340Y027079D01*
X022322Y027098D01*
X022303Y027116D01*
X022281Y027130D01*
X022258Y027142D01*
X022233Y027150D01*
X022207Y027155D01*
X022181Y027157D01*
X015481Y027157D01*
X015455Y027155D01*
X015429Y027150D01*
X015404Y027142D01*
X015381Y027130D01*
X015359Y027116D01*
X015340Y027098D01*
X015322Y027079D01*
X015308Y027057D01*
X015296Y027034D01*
X015288Y027009D01*
X015283Y026983D01*
X015281Y026957D01*
X015281Y024157D01*
X015283Y024131D01*
X015288Y024105D01*
X015296Y024080D01*
X015308Y024057D01*
X015322Y024035D01*
X015340Y024016D01*
X015359Y023998D01*
X015381Y023984D01*
X015404Y023972D01*
X015429Y023964D01*
X015455Y023959D01*
X015481Y023957D01*
X014281Y025232D02*
X011481Y025232D01*
X011481Y028632D01*
X014281Y028632D01*
X014281Y025232D01*
X014181Y025632D02*
X014181Y028232D01*
X013161Y028232D01*
X012601Y028232D02*
X011581Y028232D01*
X011581Y025632D01*
X012601Y025632D01*
X012381Y025542D02*
X012381Y025242D01*
X012231Y025392D02*
X012531Y025392D01*
X012231Y025632D02*
X011581Y026282D01*
X013161Y025632D02*
X013531Y025632D01*
X014181Y026282D01*
X014631Y026257D02*
X014931Y026257D01*
X014781Y026032D01*
X014631Y026257D01*
X014641Y026242D02*
X014920Y026242D01*
X014881Y026183D02*
X014680Y026183D01*
X014719Y026125D02*
X014842Y026125D01*
X014803Y026066D02*
X014758Y026066D01*
X014181Y025632D02*
X013531Y025632D01*
X016431Y025557D02*
X016831Y025557D01*
X017181Y025557D02*
X021231Y025557D01*
X023266Y025892D02*
X023266Y026052D01*
X023266Y026212D01*
X023616Y026212D01*
X023386Y025922D02*
X023386Y025942D01*
X023382Y025961D01*
X023376Y025980D01*
X023366Y025998D01*
X023354Y026013D01*
X023340Y026027D01*
X023323Y026038D01*
X023305Y026046D01*
X023285Y026050D01*
X023266Y026052D01*
X023696Y025652D02*
X024016Y025652D01*
X024446Y025892D02*
X024446Y026212D01*
X024096Y026212D01*
X024006Y027757D02*
X024156Y027982D01*
X024306Y027757D01*
X024006Y027757D01*
X024009Y027763D02*
X024302Y027763D01*
X024263Y027821D02*
X024048Y027821D01*
X024087Y027880D02*
X024224Y027880D01*
X024185Y027938D02*
X024126Y027938D01*
X025916Y023037D02*
X025916Y022877D01*
X025916Y022717D01*
X026036Y022747D02*
X026036Y022767D01*
X026032Y022786D01*
X026026Y022805D01*
X026016Y022823D01*
X026004Y022838D01*
X025990Y022852D01*
X025973Y022863D01*
X025955Y022871D01*
X025935Y022875D01*
X025916Y022877D01*
X025916Y023037D02*
X026266Y023037D01*
X026746Y023037D02*
X027096Y023037D01*
X027096Y022717D01*
X026666Y022477D02*
X026346Y022477D01*
X027606Y022182D02*
X027756Y022407D01*
X027906Y022182D01*
X027606Y022182D01*
X027621Y022205D02*
X027890Y022205D01*
X027851Y022264D02*
X027660Y022264D01*
X027699Y022322D02*
X027812Y022322D01*
X027773Y022381D02*
X027738Y022381D01*
X029206Y020832D02*
X029206Y020582D01*
X031306Y020582D01*
X031806Y020582D02*
X033906Y020582D01*
X033906Y020832D01*
X031556Y021332D02*
X031556Y021732D01*
X015506Y028607D02*
X015281Y028757D01*
X015506Y028757D01*
X015506Y028699D02*
X015368Y028699D01*
X015281Y028757D02*
X015506Y028907D01*
X015506Y028607D01*
X015506Y028640D02*
X015456Y028640D01*
X015506Y028816D02*
X015369Y028816D01*
X015456Y028874D02*
X015506Y028874D01*
X010121Y028512D02*
X010121Y028192D01*
X010121Y028512D02*
X009771Y028512D01*
X009291Y028512D02*
X008941Y028512D01*
X008941Y028352D01*
X008941Y028192D01*
X009061Y028222D02*
X009061Y028242D01*
X009057Y028261D01*
X009051Y028280D01*
X009041Y028298D01*
X009029Y028313D01*
X009015Y028327D01*
X008998Y028338D01*
X008980Y028346D01*
X008960Y028350D01*
X008941Y028352D01*
X009371Y027952D02*
X009691Y027952D01*
X007521Y025512D02*
X007171Y025512D01*
X007521Y025512D02*
X007521Y025192D01*
X007091Y024952D02*
X006771Y024952D01*
X006341Y025192D02*
X006341Y025352D01*
X006341Y025512D01*
X006691Y025512D01*
X006461Y025222D02*
X006461Y025242D01*
X006457Y025261D01*
X006451Y025280D01*
X006441Y025298D01*
X006429Y025313D01*
X006415Y025327D01*
X006398Y025338D01*
X006380Y025346D01*
X006360Y025350D01*
X006341Y025352D01*
D817*
X009931Y023282D02*
X009931Y022782D01*
X010181Y022532D01*
X010681Y022532D01*
X010931Y022782D01*
X011181Y022532D01*
X011681Y022532D01*
X011931Y022782D01*
X012181Y022532D01*
X012681Y022532D01*
X012931Y022782D01*
X013181Y022532D01*
X013681Y022532D01*
X013931Y022782D01*
X014181Y022532D01*
X014681Y022532D01*
X014931Y022782D01*
X015181Y022532D01*
X015681Y022532D01*
X015931Y022782D01*
X015931Y023282D01*
X015681Y023532D01*
X015181Y023532D01*
X014931Y023282D01*
X014681Y023532D01*
X014181Y023532D01*
X013931Y023282D01*
X013681Y023532D01*
X013181Y023532D01*
X012931Y023282D01*
X012681Y023532D01*
X012181Y023532D01*
X011931Y023282D01*
X011681Y023532D01*
X011181Y023532D01*
X010931Y023282D01*
X010681Y023532D01*
X010181Y023532D01*
X009931Y023282D01*
X005839Y019858D02*
X005075Y019858D01*
X005075Y006756D01*
X005839Y006756D01*
X005839Y019858D01*
X016931Y022782D02*
X016931Y023282D01*
X017181Y023532D01*
X017681Y023532D01*
X017931Y023282D01*
X018181Y023532D01*
X018681Y023532D01*
X018931Y023282D01*
X019181Y023532D01*
X019681Y023532D01*
X019931Y023282D01*
X020181Y023532D01*
X020681Y023532D01*
X020931Y023282D01*
X021181Y023532D01*
X021681Y023532D01*
X021931Y023282D01*
X022181Y023532D01*
X022681Y023532D01*
X022931Y023282D01*
X023181Y023532D01*
X023681Y023532D01*
X023931Y023282D01*
X024181Y023532D01*
X024681Y023532D01*
X024931Y023282D01*
X024931Y022782D01*
X024681Y022532D01*
X024181Y022532D01*
X023931Y022782D01*
X023681Y022532D01*
X023181Y022532D01*
X022931Y022782D01*
X022681Y022532D01*
X022181Y022532D01*
X021931Y022782D01*
X021681Y022532D01*
X021181Y022532D01*
X020931Y022782D01*
X020681Y022532D01*
X020181Y022532D01*
X019931Y022782D01*
X019681Y022532D01*
X019181Y022532D01*
X018931Y022782D01*
X018681Y022532D01*
X018181Y022532D01*
X017931Y022782D01*
X017681Y022532D01*
X017181Y022532D01*
X016931Y022782D01*
X016843Y029304D02*
X016843Y032611D01*
X012147Y032611D01*
X010664Y032611D01*
X010664Y032001D01*
X012147Y032001D01*
X012147Y032611D01*
X012147Y032247D02*
X016400Y032247D01*
X016400Y029668D01*
X006411Y029668D01*
X006411Y032247D01*
X010664Y032247D01*
X010664Y032611D02*
X008150Y032611D01*
X008150Y032493D01*
X007568Y032493D01*
X007568Y032611D01*
X005969Y032611D01*
X005969Y029304D01*
X016843Y029304D01*
X024736Y028792D02*
X024736Y023872D01*
X036066Y023872D01*
X036066Y024322D01*
X036066Y025342D02*
X036066Y027322D01*
X036066Y028342D02*
X036066Y028792D01*
X024736Y028792D01*
X024781Y004532D02*
X024531Y004282D01*
X024281Y004532D01*
X023781Y004532D01*
X023531Y004282D01*
X023281Y004532D01*
X022781Y004532D01*
X022531Y004282D01*
X022281Y004532D01*
X021781Y004532D01*
X021531Y004282D01*
X021281Y004532D01*
X020781Y004532D01*
X020531Y004282D01*
X020281Y004532D01*
X019781Y004532D01*
X019531Y004282D01*
X019281Y004532D01*
X018781Y004532D01*
X018531Y004282D01*
X018531Y003782D01*
X018781Y003532D01*
X019281Y003532D01*
X019531Y003782D01*
X019781Y003532D01*
X020281Y003532D01*
X020531Y003782D01*
X020781Y003532D01*
X021281Y003532D01*
X021531Y003782D01*
X021781Y003532D01*
X022281Y003532D01*
X022531Y003782D01*
X022781Y003532D01*
X023281Y003532D01*
X023531Y003782D01*
X023781Y003532D01*
X024281Y003532D01*
X024531Y003782D01*
X024781Y003532D01*
X025281Y003532D01*
X025531Y003782D01*
X025781Y003532D01*
X026281Y003532D01*
X026531Y003782D01*
X026781Y003532D01*
X027281Y003532D01*
X027531Y003782D01*
X027781Y003532D01*
X028281Y003532D01*
X028531Y003782D01*
X028531Y004282D01*
X028281Y004532D01*
X027781Y004532D01*
X027531Y004282D01*
X027281Y004532D01*
X026781Y004532D01*
X026531Y004282D01*
X026281Y004532D01*
X025781Y004532D01*
X025531Y004282D01*
X025281Y004532D01*
X024781Y004532D01*
X017931Y004282D02*
X017931Y003782D01*
X017681Y003532D01*
X017181Y003532D01*
X016931Y003782D01*
X016681Y003532D01*
X016181Y003532D01*
X015931Y003782D01*
X015681Y003532D01*
X015181Y003532D01*
X014931Y003782D01*
X014681Y003532D01*
X014181Y003532D01*
X013931Y003782D01*
X013681Y003532D01*
X013181Y003532D01*
X012931Y003782D01*
X012681Y003532D01*
X012181Y003532D01*
X011931Y003782D01*
X011681Y003532D01*
X011181Y003532D01*
X010931Y003782D01*
X010681Y003532D01*
X010181Y003532D01*
X009931Y003782D01*
X009931Y004282D01*
X010181Y004532D01*
X010681Y004532D01*
X010931Y004282D01*
X011181Y004532D01*
X011681Y004532D01*
X011931Y004282D01*
X012181Y004532D01*
X012681Y004532D01*
X012931Y004282D01*
X013181Y004532D01*
X013681Y004532D01*
X013931Y004282D01*
X014181Y004532D01*
X014681Y004532D01*
X014931Y004282D01*
X015181Y004532D01*
X015681Y004532D01*
X015931Y004282D01*
X016181Y004532D01*
X016681Y004532D01*
X016931Y004282D01*
X017181Y004532D01*
X017681Y004532D01*
X017931Y004282D01*
D818*
X007594Y006598D02*
X007594Y006733D01*
X007527Y006800D01*
X007594Y006598D02*
X007527Y006531D01*
X007460Y006531D01*
X007191Y006800D01*
X007191Y006531D01*
X006604Y006652D02*
X006201Y006652D01*
X006201Y006786D02*
X006201Y006517D01*
X006470Y006786D02*
X006604Y006652D01*
D819*
X003926Y007307D03*
X003926Y008307D03*
X003926Y009307D03*
X003926Y010307D03*
X003926Y011307D03*
X003926Y012307D03*
X003926Y013307D03*
X003926Y014307D03*
X003926Y015307D03*
X003926Y016307D03*
X003926Y017307D03*
X003926Y018307D03*
X003926Y019307D03*
D820*
X008194Y018756D02*
X008968Y018756D01*
X008968Y020309D01*
X008194Y020309D01*
X008194Y018756D01*
X008994Y019231D02*
X009768Y019231D01*
X009768Y020784D01*
X008994Y020784D01*
X008994Y019231D01*
X009769Y019327D02*
X009769Y020587D01*
X010543Y020587D01*
X010543Y019327D01*
X009769Y019327D01*
X009768Y020781D02*
X008994Y020781D01*
X008994Y022334D01*
X009768Y022334D01*
X009768Y020781D01*
X009769Y021077D02*
X010543Y021077D01*
X010543Y022337D01*
X009769Y022337D01*
X009769Y021077D01*
X008643Y022581D02*
X007869Y022581D01*
X007869Y024134D01*
X008643Y024134D01*
X008643Y022581D01*
X007682Y023520D02*
X007682Y024294D01*
X006129Y024294D01*
X006129Y023520D01*
X007682Y023520D01*
X008779Y026545D02*
X008779Y027319D01*
X010332Y027319D01*
X010332Y026545D01*
X008779Y026545D01*
X011329Y025019D02*
X011329Y024245D01*
X012882Y024245D01*
X012882Y025019D01*
X011329Y025019D01*
X016354Y027445D02*
X016354Y028219D01*
X017907Y028219D01*
X017907Y027445D01*
X016354Y027445D01*
X018166Y027427D02*
X018166Y028988D01*
X021295Y028988D01*
X021295Y027427D01*
X018166Y027427D01*
X022979Y024969D02*
X022979Y024195D01*
X024532Y024195D01*
X024532Y024969D01*
X022979Y024969D01*
X025704Y021794D02*
X027257Y021794D01*
X027257Y021020D01*
X025704Y021020D01*
X025704Y021794D01*
X017343Y022409D02*
X017343Y020856D01*
X016569Y020856D01*
X016569Y022409D01*
X017343Y022409D01*
X016207Y020244D02*
X014654Y020244D01*
X014654Y019470D01*
X016207Y019470D01*
X016207Y020244D01*
X014060Y020244D02*
X014060Y019470D01*
X012801Y019470D01*
X012801Y020244D01*
X014060Y020244D01*
X015069Y014234D02*
X015843Y014234D01*
X015843Y012681D01*
X015069Y012681D01*
X015069Y014234D01*
X015844Y014234D02*
X016618Y014234D01*
X016618Y012681D01*
X015844Y012681D01*
X015844Y014234D01*
X015843Y012684D02*
X015069Y012684D01*
X015069Y011131D01*
X015843Y011131D01*
X015843Y012684D01*
X015844Y012684D02*
X016618Y012684D01*
X016618Y011131D01*
X015844Y011131D01*
X015844Y012684D01*
X015844Y011134D02*
X016618Y011134D01*
X016618Y009581D01*
X015844Y009581D01*
X015844Y011134D01*
X013391Y011319D02*
X013391Y009766D01*
X012617Y009766D01*
X012617Y011319D01*
X013391Y011319D01*
X012475Y011319D02*
X011701Y011319D01*
X011701Y009766D01*
X012475Y009766D01*
X012475Y011319D01*
X012693Y007284D02*
X011919Y007284D01*
X011919Y005731D01*
X012693Y005731D01*
X012693Y007284D01*
X015819Y007034D02*
X015819Y005481D01*
X016593Y005481D01*
X016593Y007034D01*
X015819Y007034D01*
X020554Y007019D02*
X020554Y006245D01*
X022107Y006245D01*
X022107Y007019D01*
X020554Y007019D01*
X023094Y007259D02*
X023094Y005706D01*
X023868Y005706D01*
X023868Y007259D01*
X023094Y007259D01*
X023869Y007259D02*
X024643Y007259D01*
X024643Y005706D01*
X023869Y005706D01*
X023869Y007259D01*
X024644Y007259D02*
X025418Y007259D01*
X025418Y005706D01*
X024644Y005706D01*
X024644Y007259D01*
X025419Y007259D02*
X026193Y007259D01*
X026193Y005706D01*
X025419Y005706D01*
X025419Y007259D01*
X025944Y007627D02*
X025944Y008887D01*
X026718Y008887D01*
X026718Y007627D01*
X025944Y007627D01*
X026207Y006669D02*
X026207Y005795D01*
X028154Y005795D01*
X028154Y006669D01*
X026207Y006669D01*
X026207Y005794D02*
X026207Y004920D01*
X028154Y004920D01*
X028154Y005794D01*
X026207Y005794D01*
X028479Y005420D02*
X028479Y006194D01*
X030032Y006194D01*
X030032Y005420D01*
X028479Y005420D01*
X029554Y006645D02*
X029554Y007419D01*
X031107Y007419D01*
X031107Y006645D01*
X029554Y006645D01*
X029554Y007420D02*
X029554Y008194D01*
X031107Y008194D01*
X031107Y007420D01*
X029554Y007420D01*
X029554Y008395D02*
X029554Y009169D01*
X031107Y009169D01*
X031107Y008395D01*
X029554Y008395D01*
X029554Y009170D02*
X029554Y009944D01*
X031107Y009944D01*
X031107Y009170D01*
X029554Y009170D01*
X029918Y010256D02*
X029144Y010256D01*
X029144Y011809D01*
X029918Y011809D01*
X029918Y010256D01*
X029919Y010256D02*
X030693Y010256D01*
X030693Y011809D01*
X029919Y011809D01*
X029919Y010256D01*
X030307Y011895D02*
X028754Y011895D01*
X028754Y012669D01*
X030307Y012669D01*
X030307Y011895D01*
X028404Y012820D02*
X028404Y013594D01*
X026457Y013594D01*
X026457Y012820D01*
X028404Y012820D01*
X026457Y012820D02*
X026457Y013594D01*
X024904Y013594D01*
X024904Y012820D01*
X026457Y012820D01*
X026668Y011434D02*
X025894Y011434D01*
X025894Y009881D01*
X026668Y009881D01*
X026668Y011434D01*
X020768Y012656D02*
X019994Y012656D01*
X019994Y014209D01*
X020768Y014209D01*
X020768Y012656D01*
X033994Y012381D02*
X034768Y012381D01*
X034768Y013934D01*
X033994Y013934D01*
X033994Y012381D01*
D821*
X027069Y011907D03*
X015219Y028757D03*
D822*
X017036Y018057D03*
X017036Y015632D03*
X009776Y015632D03*
X009776Y018057D03*
D823*
X009799Y010362D02*
X009801Y010308D01*
X009806Y010254D01*
X009815Y010201D01*
X009828Y010148D01*
X009844Y010097D01*
X009864Y010047D01*
X009887Y009998D01*
X009913Y009950D01*
X009942Y009905D01*
X009975Y009862D01*
X010010Y009821D01*
X010048Y009782D01*
X010088Y009746D01*
X010131Y009713D01*
X010176Y009683D01*
X010223Y009656D01*
X010996Y009667D02*
X011044Y009697D01*
X011089Y009730D01*
X011132Y009766D01*
X011173Y009804D01*
X011210Y009846D01*
X011245Y009890D01*
X011276Y009936D01*
X011305Y009985D01*
X011329Y010035D01*
X011350Y010087D01*
X011368Y010141D01*
X011381Y010195D01*
X011391Y010250D01*
X011397Y010306D01*
X011399Y010362D01*
X011397Y010415D01*
X011392Y010469D01*
X011383Y010521D01*
X011371Y010573D01*
X011355Y010624D01*
X011336Y010674D01*
X011313Y010723D01*
X011287Y010770D01*
X011259Y010815D01*
X011227Y010858D01*
X011193Y010898D01*
X011155Y010937D01*
X011116Y010973D01*
X010087Y010977D02*
X010047Y010941D01*
X010009Y010902D01*
X009974Y010861D01*
X009942Y010818D01*
X009912Y010773D01*
X009886Y010726D01*
X009864Y010677D01*
X009844Y010626D01*
X009828Y010575D01*
X009815Y010523D01*
X009806Y010469D01*
X009801Y010416D01*
X009799Y010362D01*
X014933Y009667D02*
X014981Y009697D01*
X015026Y009730D01*
X015069Y009766D01*
X015110Y009804D01*
X015147Y009846D01*
X015182Y009890D01*
X015213Y009936D01*
X015242Y009985D01*
X015266Y010035D01*
X015287Y010087D01*
X015305Y010141D01*
X015318Y010195D01*
X015328Y010250D01*
X015334Y010306D01*
X015336Y010362D01*
X014160Y009656D02*
X014113Y009683D01*
X014068Y009713D01*
X014025Y009746D01*
X013985Y009782D01*
X013947Y009821D01*
X013912Y009862D01*
X013879Y009905D01*
X013850Y009950D01*
X013824Y009998D01*
X013801Y010047D01*
X013781Y010097D01*
X013765Y010148D01*
X013752Y010201D01*
X013743Y010254D01*
X013738Y010308D01*
X013736Y010362D01*
X015053Y010973D02*
X015092Y010937D01*
X015130Y010898D01*
X015164Y010858D01*
X015196Y010815D01*
X015224Y010770D01*
X015250Y010723D01*
X015273Y010674D01*
X015292Y010624D01*
X015308Y010573D01*
X015320Y010521D01*
X015329Y010469D01*
X015334Y010415D01*
X015336Y010362D01*
X014024Y010977D02*
X013984Y010941D01*
X013946Y010902D01*
X013911Y010861D01*
X013879Y010818D01*
X013849Y010773D01*
X013823Y010726D01*
X013801Y010677D01*
X013781Y010626D01*
X013765Y010575D01*
X013752Y010523D01*
X013743Y010469D01*
X013738Y010416D01*
X013736Y010362D01*
X020745Y008512D02*
X020745Y012252D01*
X020747Y012291D01*
X020753Y012329D01*
X020762Y012366D01*
X020775Y012403D01*
X020792Y012438D01*
X020811Y012471D01*
X020834Y012502D01*
X020860Y012531D01*
X020889Y012557D01*
X020920Y012580D01*
X020953Y012599D01*
X020988Y012616D01*
X021025Y012629D01*
X021062Y012638D01*
X021100Y012644D01*
X021139Y012646D01*
X021899Y012646D01*
X024512Y012646D02*
X025273Y012646D01*
X025312Y012644D01*
X025350Y012638D01*
X025387Y012629D01*
X025424Y012616D01*
X025459Y012599D01*
X025492Y012580D01*
X025523Y012557D01*
X025552Y012531D01*
X025578Y012502D01*
X025601Y012471D01*
X025620Y012438D01*
X025637Y012403D01*
X025650Y012366D01*
X025659Y012329D01*
X025665Y012291D01*
X025667Y012252D01*
X025666Y012252D02*
X025666Y008512D01*
X025667Y008512D02*
X025665Y008473D01*
X025659Y008435D01*
X025650Y008398D01*
X025637Y008361D01*
X025620Y008326D01*
X025601Y008293D01*
X025578Y008262D01*
X025552Y008233D01*
X025523Y008207D01*
X025492Y008184D01*
X025459Y008165D01*
X025424Y008148D01*
X025387Y008135D01*
X025350Y008126D01*
X025312Y008120D01*
X025273Y008118D01*
X025273Y008119D02*
X024512Y008119D01*
X021899Y008119D02*
X021139Y008119D01*
X021139Y008118D02*
X021100Y008120D01*
X021062Y008126D01*
X021025Y008135D01*
X020988Y008148D01*
X020953Y008165D01*
X020920Y008184D01*
X020889Y008207D01*
X020860Y008233D01*
X020834Y008262D01*
X020811Y008293D01*
X020792Y008326D01*
X020775Y008361D01*
X020762Y008398D01*
X020753Y008435D01*
X020747Y008473D01*
X020745Y008512D01*
X021681Y017357D02*
X022181Y017357D01*
X022681Y017357D01*
X022681Y017857D01*
X022181Y017857D01*
X021681Y017857D01*
X025531Y017607D02*
X025781Y017857D01*
X025911Y017977D01*
X031306Y020082D02*
X031306Y020582D01*
X031306Y021082D01*
X031806Y021082D02*
X031806Y020582D01*
X031806Y020082D01*
X031306Y020082D01*
X031556Y017232D02*
X031806Y016982D01*
X031926Y016852D01*
X032240Y013118D02*
X032242Y013064D01*
X032247Y013010D01*
X032256Y012957D01*
X032269Y012904D01*
X032285Y012853D01*
X032305Y012803D01*
X032328Y012754D01*
X032354Y012706D01*
X032383Y012661D01*
X032416Y012618D01*
X032451Y012577D01*
X032489Y012538D01*
X032529Y012502D01*
X032572Y012469D01*
X032617Y012439D01*
X032664Y012412D01*
X033437Y012423D02*
X033485Y012453D01*
X033530Y012486D01*
X033573Y012522D01*
X033614Y012560D01*
X033651Y012602D01*
X033686Y012646D01*
X033717Y012692D01*
X033746Y012741D01*
X033770Y012791D01*
X033791Y012843D01*
X033809Y012897D01*
X033822Y012951D01*
X033832Y013006D01*
X033838Y013062D01*
X033840Y013118D01*
X033838Y013171D01*
X033833Y013225D01*
X033824Y013277D01*
X033812Y013329D01*
X033796Y013380D01*
X033777Y013430D01*
X033754Y013479D01*
X033728Y013526D01*
X033700Y013571D01*
X033668Y013614D01*
X033634Y013654D01*
X033596Y013693D01*
X033557Y013729D01*
X032528Y013733D02*
X032488Y013697D01*
X032450Y013658D01*
X032415Y013617D01*
X032383Y013574D01*
X032353Y013529D01*
X032327Y013482D01*
X032305Y013433D01*
X032285Y013382D01*
X032269Y013331D01*
X032256Y013279D01*
X032247Y013225D01*
X032242Y013172D01*
X032240Y013118D01*
D824*
X035451Y010569D02*
X035453Y010617D01*
X035459Y010665D01*
X035469Y010712D01*
X035482Y010758D01*
X035500Y010803D01*
X035520Y010847D01*
X035545Y010889D01*
X035573Y010928D01*
X035603Y010965D01*
X035637Y010999D01*
X035674Y011031D01*
X035712Y011060D01*
X035753Y011085D01*
X035796Y011107D01*
X035841Y011125D01*
X035887Y011139D01*
X035934Y011150D01*
X035982Y011157D01*
X036030Y011160D01*
X036078Y011159D01*
X036126Y011154D01*
X036174Y011145D01*
X036220Y011133D01*
X036265Y011116D01*
X036309Y011096D01*
X036351Y011073D01*
X036391Y011046D01*
X036429Y011016D01*
X036464Y010983D01*
X036496Y010947D01*
X036526Y010909D01*
X036552Y010868D01*
X036574Y010825D01*
X036594Y010781D01*
X036609Y010736D01*
X036621Y010689D01*
X036629Y010641D01*
X036633Y010593D01*
X036633Y010545D01*
X036629Y010497D01*
X036621Y010449D01*
X036609Y010402D01*
X036594Y010357D01*
X036574Y010313D01*
X036552Y010270D01*
X036526Y010229D01*
X036496Y010191D01*
X036464Y010155D01*
X036429Y010122D01*
X036391Y010092D01*
X036351Y010065D01*
X036309Y010042D01*
X036265Y010022D01*
X036220Y010005D01*
X036174Y009993D01*
X036126Y009984D01*
X036078Y009979D01*
X036030Y009978D01*
X035982Y009981D01*
X035934Y009988D01*
X035887Y009999D01*
X035841Y010013D01*
X035796Y010031D01*
X035753Y010053D01*
X035712Y010078D01*
X035674Y010107D01*
X035637Y010139D01*
X035603Y010173D01*
X035573Y010210D01*
X035545Y010249D01*
X035520Y010291D01*
X035500Y010335D01*
X035482Y010380D01*
X035469Y010426D01*
X035459Y010473D01*
X035453Y010521D01*
X035451Y010569D01*
X035451Y007262D02*
X035453Y007310D01*
X035459Y007358D01*
X035469Y007405D01*
X035482Y007451D01*
X035500Y007496D01*
X035520Y007540D01*
X035545Y007582D01*
X035573Y007621D01*
X035603Y007658D01*
X035637Y007692D01*
X035674Y007724D01*
X035712Y007753D01*
X035753Y007778D01*
X035796Y007800D01*
X035841Y007818D01*
X035887Y007832D01*
X035934Y007843D01*
X035982Y007850D01*
X036030Y007853D01*
X036078Y007852D01*
X036126Y007847D01*
X036174Y007838D01*
X036220Y007826D01*
X036265Y007809D01*
X036309Y007789D01*
X036351Y007766D01*
X036391Y007739D01*
X036429Y007709D01*
X036464Y007676D01*
X036496Y007640D01*
X036526Y007602D01*
X036552Y007561D01*
X036574Y007518D01*
X036594Y007474D01*
X036609Y007429D01*
X036621Y007382D01*
X036629Y007334D01*
X036633Y007286D01*
X036633Y007238D01*
X036629Y007190D01*
X036621Y007142D01*
X036609Y007095D01*
X036594Y007050D01*
X036574Y007006D01*
X036552Y006963D01*
X036526Y006922D01*
X036496Y006884D01*
X036464Y006848D01*
X036429Y006815D01*
X036391Y006785D01*
X036351Y006758D01*
X036309Y006735D01*
X036265Y006715D01*
X036220Y006698D01*
X036174Y006686D01*
X036126Y006677D01*
X036078Y006672D01*
X036030Y006671D01*
X035982Y006674D01*
X035934Y006681D01*
X035887Y006692D01*
X035841Y006706D01*
X035796Y006724D01*
X035753Y006746D01*
X035712Y006771D01*
X035674Y006800D01*
X035637Y006832D01*
X035603Y006866D01*
X035573Y006903D01*
X035545Y006942D01*
X035520Y006984D01*
X035500Y007028D01*
X035482Y007073D01*
X035469Y007119D01*
X035459Y007166D01*
X035453Y007214D01*
X035451Y007262D01*
D825*
X018656Y015344D03*
X027756Y022469D03*
X024156Y028044D03*
X014781Y025971D03*
D826*
X016831Y026057D02*
X016831Y025557D01*
X016831Y025057D01*
X017181Y025057D02*
X017181Y025557D01*
X017181Y026057D01*
M02*
