G75*
G70*
%OFA0B0*%
%FSLAX24Y24*%
%IPPOS*%
%LPD*%
%AMOC8*
5,1,8,0,0,1.08239X$1,22.5*
%
%ADD10C,0.0040*%
%ADD11C,0.0050*%
%ADD12C,0.0020*%
D10*
X012245Y026164D02*
X012485Y026164D01*
X012245Y026405D01*
X012245Y026465D01*
X012305Y026525D01*
X012425Y026525D01*
X012485Y026465D01*
X012613Y026465D02*
X012613Y026405D01*
X012673Y026345D01*
X012613Y026285D01*
X012613Y026225D01*
X012673Y026164D01*
X012793Y026164D01*
X012853Y026225D01*
X012981Y026164D02*
X013102Y026285D01*
X013041Y026285D02*
X013222Y026285D01*
X013222Y026164D02*
X013222Y026525D01*
X013041Y026525D01*
X012981Y026465D01*
X012981Y026345D01*
X013041Y026285D01*
X012853Y026465D02*
X012793Y026525D01*
X012673Y026525D01*
X012613Y026465D01*
X012673Y026345D02*
X012733Y026345D01*
X011492Y026914D02*
X011492Y027095D01*
X011432Y027155D01*
X011312Y027155D01*
X011252Y027095D01*
X011252Y026914D01*
X011132Y026914D02*
X011492Y026914D01*
X011252Y027035D02*
X011132Y027155D01*
X011132Y027283D02*
X011372Y027523D01*
X011432Y027523D01*
X011492Y027463D01*
X011492Y027343D01*
X011432Y027283D01*
X011132Y027283D02*
X011132Y027523D01*
X011132Y027651D02*
X011192Y027651D01*
X011432Y027891D01*
X011492Y027891D01*
X011492Y027651D01*
X018529Y034439D02*
X018589Y034500D01*
X018589Y034740D01*
X018649Y034680D02*
X018529Y034680D01*
X018777Y034680D02*
X018777Y034439D01*
X018957Y034439D01*
X019017Y034500D01*
X019017Y034680D01*
X019145Y034620D02*
X019145Y034500D01*
X019205Y034439D01*
X019386Y034439D01*
X019386Y034319D02*
X019386Y034680D01*
X019205Y034680D01*
X019145Y034620D01*
X019511Y034680D02*
X019631Y034680D01*
X019571Y034740D02*
X019571Y034500D01*
X019511Y034439D01*
X019759Y034439D02*
X019759Y034680D01*
X019999Y034680D02*
X019999Y034500D01*
X019939Y034439D01*
X019759Y034439D01*
X020127Y034500D02*
X020127Y034620D01*
X020188Y034680D01*
X020308Y034680D01*
X020368Y034620D01*
X020368Y034500D01*
X020308Y034439D01*
X020188Y034439D01*
X020127Y034500D01*
X020864Y034500D02*
X020924Y034439D01*
X021044Y034439D01*
X021104Y034500D01*
X021104Y034740D01*
X021044Y034800D01*
X020924Y034800D01*
X020864Y034740D01*
X021232Y034680D02*
X021232Y034439D01*
X021232Y034620D02*
X021473Y034620D01*
X021473Y034680D02*
X021353Y034800D01*
X021232Y034680D01*
X021473Y034680D02*
X021473Y034439D01*
X022337Y034439D02*
X022337Y034620D01*
X022397Y034680D01*
X022518Y034680D01*
X022578Y034620D01*
X022703Y034680D02*
X022823Y034680D01*
X022763Y034740D02*
X022763Y034500D01*
X022703Y034439D01*
X022578Y034439D02*
X022578Y034800D01*
X022950Y034680D02*
X023010Y034680D01*
X023130Y034560D01*
X023130Y034680D02*
X023130Y034439D01*
X023258Y034439D02*
X023438Y034439D01*
X023498Y034500D01*
X023438Y034560D01*
X023258Y034560D01*
X023258Y034620D02*
X023258Y034439D01*
X023258Y034620D02*
X023318Y034680D01*
X023438Y034680D01*
X023626Y034800D02*
X023867Y034800D01*
X023867Y034439D01*
X023626Y034439D01*
X023747Y034620D02*
X023867Y034620D01*
X024578Y034620D02*
X024578Y034439D01*
X024578Y034620D02*
X024638Y034680D01*
X024818Y034680D01*
X024818Y034439D01*
X024943Y034439D02*
X025063Y034439D01*
X025003Y034439D02*
X025003Y034680D01*
X025063Y034680D01*
X025003Y034800D02*
X025003Y034860D01*
X025560Y034740D02*
X025620Y034800D01*
X025740Y034800D01*
X025800Y034740D01*
X025800Y034500D01*
X025740Y034439D01*
X025620Y034439D01*
X025560Y034500D01*
X025928Y034439D02*
X025928Y034680D01*
X026048Y034800D01*
X026168Y034680D01*
X026168Y034439D01*
X026168Y034620D02*
X025928Y034620D01*
X026665Y034800D02*
X026905Y034439D01*
X027033Y034500D02*
X027033Y034800D01*
X026905Y034800D02*
X026665Y034439D01*
X027033Y034500D02*
X027093Y034439D01*
X027213Y034439D01*
X027273Y034500D01*
X027273Y034800D01*
X027401Y034680D02*
X027401Y034439D01*
X027401Y034620D02*
X027642Y034620D01*
X027642Y034680D02*
X027522Y034800D01*
X027401Y034680D01*
X027642Y034680D02*
X027642Y034439D01*
X029306Y034439D02*
X029306Y034620D01*
X029367Y034680D01*
X029487Y034680D01*
X029547Y034620D01*
X029672Y034680D02*
X029792Y034680D01*
X029732Y034740D02*
X029732Y034500D01*
X029672Y034439D01*
X029547Y034439D02*
X029547Y034800D01*
X029919Y034680D02*
X029979Y034680D01*
X030099Y034560D01*
X030099Y034680D02*
X030099Y034439D01*
X030227Y034439D02*
X030227Y034620D01*
X030287Y034680D01*
X030407Y034680D01*
X030407Y034560D02*
X030227Y034560D01*
X030227Y034439D02*
X030407Y034439D01*
X030467Y034500D01*
X030407Y034560D01*
X030596Y034439D02*
X030836Y034439D01*
X030836Y034800D01*
X030596Y034800D01*
X030716Y034620D02*
X030836Y034620D01*
X032066Y034680D02*
X032186Y034680D01*
X032126Y034740D02*
X032126Y034500D01*
X032066Y034439D01*
X032314Y034439D02*
X032314Y034680D01*
X032314Y034439D02*
X032495Y034439D01*
X032555Y034500D01*
X032555Y034680D01*
X032683Y034620D02*
X032683Y034500D01*
X032743Y034439D01*
X032923Y034439D01*
X032923Y034319D02*
X032923Y034680D01*
X032743Y034680D01*
X032683Y034620D01*
X033051Y034620D02*
X033051Y034439D01*
X033051Y034620D02*
X033111Y034680D01*
X033291Y034680D01*
X033291Y034439D01*
X033417Y034439D02*
X033537Y034439D01*
X033477Y034439D02*
X033477Y034680D01*
X033537Y034680D01*
X033477Y034800D02*
X033477Y034860D01*
X034033Y034740D02*
X034093Y034800D01*
X034213Y034800D01*
X034273Y034740D01*
X034273Y034500D01*
X034213Y034439D01*
X034093Y034439D01*
X034033Y034500D01*
X034401Y034439D02*
X034401Y034680D01*
X034522Y034800D01*
X034642Y034680D01*
X034642Y034439D01*
X034642Y034620D02*
X034401Y034620D01*
X035132Y021809D02*
X035312Y021809D01*
X035372Y021749D01*
X035372Y021628D01*
X035312Y021568D01*
X035372Y021443D02*
X035372Y021323D01*
X035432Y021383D02*
X035192Y021383D01*
X035132Y021443D01*
X035132Y021568D02*
X035492Y021568D01*
X035372Y021196D02*
X035372Y021136D01*
X035252Y021016D01*
X035132Y021016D02*
X035372Y021016D01*
X035312Y020888D02*
X035132Y020888D01*
X035132Y020708D01*
X035192Y020648D01*
X035252Y020708D01*
X035252Y020888D01*
X035312Y020888D02*
X035372Y020828D01*
X035372Y020708D01*
X035492Y020520D02*
X035492Y020279D01*
X035132Y020279D01*
X035132Y020520D01*
X035312Y020399D02*
X035312Y020279D01*
X035312Y019046D02*
X035312Y018806D01*
X035312Y017205D02*
X035312Y016964D01*
X035432Y017085D02*
X035192Y017085D01*
X034962Y013697D02*
X034782Y013697D01*
X034962Y013697D02*
X035022Y013637D01*
X035022Y013517D01*
X034962Y013457D01*
X035022Y013331D02*
X035022Y013211D01*
X035082Y013271D02*
X034842Y013271D01*
X034782Y013331D01*
X034782Y013457D02*
X035142Y013457D01*
X035022Y013084D02*
X035022Y013024D01*
X034902Y012904D01*
X034782Y012904D02*
X035022Y012904D01*
X034962Y012776D02*
X035022Y012716D01*
X035022Y012596D01*
X034902Y012596D02*
X034902Y012776D01*
X034962Y012776D02*
X034782Y012776D01*
X034782Y012596D01*
X034842Y012536D01*
X034902Y012596D01*
X034782Y012408D02*
X034782Y012168D01*
X035142Y012168D01*
X035142Y012408D01*
X034962Y012288D02*
X034962Y012168D01*
X034962Y011303D02*
X034962Y011063D01*
X034962Y009830D02*
X034962Y009589D01*
X035082Y009710D02*
X034842Y009710D01*
D11*
X012262Y029638D02*
X011812Y029638D01*
X011962Y029638D02*
X011962Y029864D01*
X012037Y029939D01*
X012187Y029939D01*
X012262Y029864D01*
X012262Y029638D01*
X011962Y029788D02*
X011812Y029939D01*
X011887Y030099D02*
X011812Y030174D01*
X011812Y030324D01*
X011887Y030399D01*
X011962Y030399D01*
X012037Y030324D01*
X012037Y030249D01*
X012037Y030324D02*
X012112Y030399D01*
X012187Y030399D01*
X012262Y030324D01*
X012262Y030174D01*
X012187Y030099D01*
X012112Y030559D02*
X012262Y030709D01*
X011812Y030709D01*
X011812Y030559D02*
X011812Y030859D01*
D12*
X012406Y031984D02*
X013967Y031984D01*
X013967Y028855D01*
X012406Y028855D01*
X012406Y031984D01*
X012350Y028196D02*
X013124Y028196D01*
X013124Y026643D01*
X012350Y026643D01*
X012350Y028196D01*
X012349Y028196D02*
X011575Y028196D01*
X011575Y026643D01*
X012349Y026643D01*
X012349Y028196D01*
M02*
