G75*
G70*
%OFA0B0*%
%FSLAX24Y24*%
%IPPOS*%
%LPD*%
%AMOC8*
5,1,8,0,0,1.08239X$1,22.5*
%
%ADD10OC8,0.0674*%
%ADD11OC8,0.0634*%
%ADD12OC8,0.0680*%
%ADD13C,0.0860*%
%ADD14C,0.0780*%
%ADD15OC8,0.0780*%
%ADD16C,0.1299*%
%ADD17C,0.1299*%
%ADD18C,0.1100*%
%ADD19OC8,0.0600*%
%ADD20C,0.0848*%
%ADD21R,0.0674X0.0674*%
%ADD22C,0.0674*%
%ADD23R,0.0671X0.0592*%
%ADD24R,0.1340X0.0789*%
%ADD25C,0.2365*%
%ADD26C,0.2562*%
D10*
X006562Y009669D03*
X007562Y009669D03*
X007562Y010669D03*
X006562Y010669D03*
X006562Y011669D03*
X006562Y012669D03*
X007562Y012669D03*
X007562Y011669D03*
X007562Y013669D03*
X006562Y013669D03*
X006562Y014669D03*
X007562Y014669D03*
X007562Y015669D03*
X006562Y015669D03*
X006562Y016669D03*
X007562Y016669D03*
X007562Y017669D03*
X007562Y018669D03*
X006562Y018669D03*
X006562Y017669D03*
X006562Y019669D03*
X007562Y019669D03*
X007562Y020669D03*
X006562Y020669D03*
X006562Y021669D03*
X007562Y021669D03*
D11*
X010512Y025394D03*
X011512Y025394D03*
X012512Y025394D03*
X013512Y025394D03*
X014512Y025394D03*
X015512Y025394D03*
X017512Y025394D03*
X018512Y025394D03*
X019512Y025394D03*
X020512Y025394D03*
X021512Y025394D03*
X022512Y025394D03*
X023512Y025394D03*
X024512Y025394D03*
X010462Y016394D03*
X010462Y015394D03*
X009462Y015394D03*
X009462Y014394D03*
X010462Y014394D03*
X010512Y006394D03*
X011512Y006394D03*
X012512Y006394D03*
X013512Y006394D03*
X014512Y006394D03*
X015512Y006394D03*
X016512Y006394D03*
X017512Y006394D03*
X019112Y006394D03*
X020112Y006394D03*
X021112Y006394D03*
X022112Y006394D03*
X023112Y006394D03*
X024112Y006394D03*
X025112Y006394D03*
X026112Y006394D03*
X027112Y006394D03*
X028112Y006394D03*
D12*
X017987Y018494D03*
X017987Y020919D03*
X009462Y016394D03*
X008987Y018494D03*
X008987Y020919D03*
X015962Y027919D03*
X021862Y027919D03*
D13*
X021452Y022319D02*
X020672Y022319D01*
X020652Y019969D02*
X019872Y019969D01*
X020672Y017619D02*
X021452Y017619D01*
X025472Y017619D02*
X026252Y017619D01*
X029287Y018954D02*
X029287Y019734D01*
X026252Y022319D02*
X025472Y022319D01*
X029287Y023754D02*
X029287Y024534D01*
X031637Y024554D02*
X031637Y025334D01*
X033987Y024534D02*
X033987Y023754D01*
X033987Y019734D02*
X033987Y018954D01*
D14*
X018637Y008557D03*
D15*
X018637Y010132D03*
D16*
X032659Y009624D02*
X033840Y009624D01*
X033840Y011278D02*
X032659Y011278D01*
X032659Y012931D02*
X033840Y012931D01*
D17*
X036123Y012931D03*
X036123Y009624D03*
X035597Y027206D03*
X033613Y027206D03*
X031629Y027206D03*
X031629Y030183D03*
X033613Y030183D03*
X035597Y030183D03*
D18*
X034187Y032644D02*
X034187Y033644D01*
X032218Y033644D02*
X032218Y032644D01*
X030250Y032644D02*
X030250Y033644D01*
X027012Y033644D02*
X027012Y032644D01*
X025043Y032644D02*
X025043Y033644D01*
X023075Y033644D02*
X023075Y032644D01*
X021106Y032644D02*
X021106Y033644D01*
X019138Y033644D02*
X019138Y032644D01*
X036287Y021281D02*
X037287Y021281D01*
X037287Y019313D02*
X036287Y019313D01*
X036287Y017344D02*
X037287Y017344D01*
D19*
X033121Y015980D03*
X033121Y014980D03*
X014617Y013224D03*
X014617Y012224D03*
X010680Y012224D03*
X010680Y013224D03*
D20*
X025676Y027206D03*
X025676Y030183D03*
D21*
X014987Y033819D03*
D22*
X013987Y033819D03*
X012987Y033819D03*
X011987Y033819D03*
X011987Y032819D03*
X012987Y032819D03*
X013987Y032819D03*
X014987Y032819D03*
X010987Y032819D03*
X009987Y032819D03*
X008987Y032819D03*
X007987Y032819D03*
X007987Y033819D03*
X008987Y033819D03*
X009987Y033819D03*
X010987Y033819D03*
D23*
X011962Y027794D03*
X012737Y027794D03*
X012737Y027045D03*
X011962Y027045D03*
D24*
X013187Y029317D03*
X013187Y031522D03*
D25*
X007136Y006819D03*
X007136Y030047D03*
X037058Y006819D03*
D26*
X037058Y033590D03*
M02*
