G75*
G70*
%OFA0B0*%
%FSLAX24Y24*%
%IPPOS*%
%LPD*%
%AMOC8*
5,1,8,0,0,1.08239X$1,22.5*
%
%ADD10OC8,0.0594*%
%ADD11R,0.1280X0.0300*%
%ADD12R,0.0591X0.0512*%
%ADD13R,0.0512X0.0591*%
%ADD14R,0.0394X0.0433*%
%ADD15R,0.0551X0.0551*%
%ADD16R,0.0630X0.0709*%
%ADD17R,0.0630X0.0710*%
%ADD18R,0.0140X0.0560*%
%ADD19OC8,0.0554*%
%ADD20OC8,0.0600*%
%ADD21C,0.0780*%
%ADD22R,0.0610X0.0236*%
%ADD23R,0.0600X0.0220*%
%ADD24C,0.0700*%
%ADD25OC8,0.0700*%
%ADD26C,0.1181*%
%ADD27C,0.1000*%
%ADD28R,0.0433X0.0394*%
%ADD29C,0.0083*%
%ADD30R,0.0472X0.0591*%
%ADD31R,0.0220X0.0600*%
%ADD32R,0.2165X0.1969*%
%ADD33OC8,0.0520*%
%ADD34C,0.1181*%
%ADD35C,0.0768*%
%ADD36R,0.0594X0.0594*%
%ADD37C,0.0594*%
%ADD38R,0.0500X0.0350*%
%ADD39R,0.0591X0.0472*%
%ADD40R,0.0709X0.1260*%
%ADD41R,0.0300X0.1280*%
%ADD42R,0.0396X0.0396*%
%ADD43C,0.0120*%
%ADD44C,0.0100*%
%ADD45OC8,0.0396*%
%ADD46C,0.0160*%
%ADD47C,0.0240*%
%ADD48C,0.0500*%
%ADD49C,0.2165*%
%ADD50C,0.0400*%
%ADD51C,0.0140*%
%ADD52C,0.2362*%
%ADD53C,0.0760*%
%ADD54C,0.0320*%
D10*
X003806Y007307D03*
X003806Y008307D03*
X003806Y009307D03*
X003806Y010307D03*
X003806Y011307D03*
X003806Y012307D03*
X003806Y013307D03*
X003806Y014307D03*
X003806Y015307D03*
X003806Y016307D03*
X003806Y017307D03*
X003806Y018307D03*
X003806Y019307D03*
X004806Y019307D03*
X004806Y018307D03*
X004806Y017307D03*
X004806Y016307D03*
X004806Y015307D03*
X004806Y014307D03*
X004806Y013307D03*
X004806Y012307D03*
X004806Y011307D03*
X004806Y010307D03*
X004806Y009307D03*
X004806Y008307D03*
X004806Y007307D03*
D11*
X014881Y010382D03*
X016781Y010382D03*
D12*
X017706Y013058D03*
X017706Y013806D03*
X013556Y013831D03*
X012781Y013831D03*
X012781Y013083D03*
X013556Y013083D03*
X013556Y012281D03*
X013556Y011533D03*
X012781Y011533D03*
X012781Y012281D03*
X013556Y010731D03*
X013556Y009983D03*
X010330Y010168D03*
X009414Y010168D03*
X009414Y010916D03*
X010330Y010916D03*
X009631Y006881D03*
X009631Y006133D03*
X013531Y005883D03*
X013531Y006631D03*
X020806Y006856D03*
X020806Y006108D03*
X021581Y006108D03*
X021581Y006856D03*
X022356Y006856D03*
X022356Y006108D03*
X023131Y006108D03*
X023131Y006856D03*
X023606Y010283D03*
X023606Y011031D03*
X026856Y010658D03*
X026856Y011406D03*
X027631Y011406D03*
X027631Y010658D03*
X031706Y012783D03*
X031706Y013531D03*
X006706Y019633D03*
X006706Y020381D03*
X005906Y019906D03*
X005906Y019158D03*
X006706Y021183D03*
X006706Y021931D03*
X005581Y022983D03*
X005581Y023731D03*
D13*
X004605Y023907D03*
X003857Y023907D03*
X006507Y026932D03*
X007255Y026932D03*
X009057Y024632D03*
X009805Y024632D03*
X014082Y027832D03*
X014830Y027832D03*
X020707Y024582D03*
X021455Y024582D03*
X023432Y021407D03*
X024180Y021407D03*
X023380Y013207D03*
X022632Y013207D03*
X026482Y012282D03*
X027230Y012282D03*
X027282Y009557D03*
X028030Y009557D03*
X028030Y008782D03*
X027282Y008782D03*
X027282Y007807D03*
X028030Y007807D03*
X028030Y007032D03*
X027282Y007032D03*
X026955Y005807D03*
X026207Y005807D03*
X019030Y006632D03*
X018282Y006632D03*
D14*
X023656Y007923D03*
X023656Y008592D03*
X007481Y019623D03*
X007481Y020292D03*
X007481Y021373D03*
X007481Y022042D03*
D15*
X023783Y011907D03*
X025279Y011907D03*
D16*
X025057Y006232D03*
X025057Y005357D03*
X023955Y005357D03*
X023955Y006232D03*
D17*
X024196Y013207D03*
X025316Y013207D03*
D18*
X025261Y010077D03*
X025511Y010077D03*
X025771Y010077D03*
X026031Y010077D03*
X025001Y010077D03*
X024751Y010077D03*
X024491Y010077D03*
X024231Y010077D03*
X024231Y007837D03*
X024491Y007837D03*
X024751Y007837D03*
X025001Y007837D03*
X025261Y007837D03*
X025511Y007837D03*
X025771Y007837D03*
X026031Y007837D03*
D19*
X025356Y004032D03*
X024356Y004032D03*
X023356Y004032D03*
X022356Y004032D03*
X021356Y004032D03*
X020356Y004032D03*
X019356Y004032D03*
X018356Y004032D03*
X017356Y004032D03*
X016356Y004032D03*
X014756Y004032D03*
X013756Y004032D03*
X012756Y004032D03*
X011756Y004032D03*
X010756Y004032D03*
X009756Y004032D03*
X008756Y004032D03*
X007756Y004032D03*
X007706Y012032D03*
X006706Y012032D03*
X006706Y013032D03*
X007706Y013032D03*
X007706Y014032D03*
X007756Y023032D03*
X008756Y023032D03*
X009756Y023032D03*
X010756Y023032D03*
X011756Y023032D03*
X012756Y023032D03*
X014756Y023032D03*
X015756Y023032D03*
X016756Y023032D03*
X017756Y023032D03*
X018756Y023032D03*
X019756Y023032D03*
X020756Y023032D03*
X021756Y023032D03*
D20*
X019106Y025557D03*
X013206Y025557D03*
X015231Y018057D03*
X015231Y015632D03*
X006706Y014032D03*
X006231Y015632D03*
X006231Y018057D03*
D21*
X017116Y017607D02*
X017896Y017607D01*
X017916Y015257D02*
X018696Y015257D01*
X022716Y015257D02*
X023496Y015257D01*
X026531Y016592D02*
X026531Y017372D01*
X023496Y019957D02*
X022716Y019957D01*
X026531Y021392D02*
X026531Y022172D01*
X028881Y022192D02*
X028881Y022972D01*
X031231Y022172D02*
X031231Y021392D01*
X031231Y017372D02*
X031231Y016592D01*
X018696Y019957D02*
X017916Y019957D01*
D22*
X013169Y020584D03*
X013169Y021084D03*
X013169Y021584D03*
X013169Y022084D03*
X011043Y022084D03*
X011043Y021584D03*
X011043Y021084D03*
X011043Y020584D03*
D23*
X016831Y013857D03*
X015981Y013457D03*
X016831Y013057D03*
X018106Y005907D03*
X018106Y005107D03*
X018956Y005507D03*
D24*
X015881Y006195D03*
D25*
X015881Y007770D03*
D26*
X029903Y007262D02*
X031084Y007262D01*
X031084Y008916D02*
X029903Y008916D01*
X029903Y010569D02*
X031084Y010569D01*
D27*
X033681Y015332D02*
X027731Y015332D01*
X026531Y016532D01*
X026531Y016982D01*
X033556Y017676D02*
X034556Y017676D01*
X034556Y019644D02*
X033556Y019644D01*
X033556Y015707D02*
X034556Y015707D01*
X034056Y015707D02*
X033681Y015332D01*
X031431Y030282D02*
X031431Y031282D01*
X029463Y031282D02*
X029463Y030282D01*
X027494Y030282D02*
X027494Y031282D01*
X024256Y031282D02*
X024256Y030282D01*
X022288Y030282D02*
X022288Y031282D01*
X020319Y031282D02*
X020319Y030282D01*
X018351Y030282D02*
X018351Y031282D01*
X016382Y031282D02*
X016382Y030282D01*
D28*
X011091Y019857D03*
X010422Y019857D03*
D29*
X011210Y009631D02*
X011210Y008887D01*
X010742Y008887D01*
X010742Y009631D01*
X011210Y009631D01*
X011210Y008969D02*
X010742Y008969D01*
X010742Y009051D02*
X011210Y009051D01*
X011210Y009133D02*
X010742Y009133D01*
X010742Y009215D02*
X011210Y009215D01*
X011210Y009297D02*
X010742Y009297D01*
X010742Y009379D02*
X011210Y009379D01*
X011210Y009461D02*
X010742Y009461D01*
X010742Y009543D02*
X011210Y009543D01*
X011210Y009625D02*
X010742Y009625D01*
X009044Y009631D02*
X009044Y008887D01*
X008576Y008887D01*
X008576Y009631D01*
X009044Y009631D01*
X009044Y008969D02*
X008576Y008969D01*
X008576Y009051D02*
X009044Y009051D01*
X009044Y009133D02*
X008576Y009133D01*
X008576Y009215D02*
X009044Y009215D01*
X009044Y009297D02*
X008576Y009297D01*
X008576Y009379D02*
X009044Y009379D01*
X009044Y009461D02*
X008576Y009461D01*
X008576Y009543D02*
X009044Y009543D01*
X009044Y009625D02*
X008576Y009625D01*
X007273Y009631D02*
X007273Y008887D01*
X006805Y008887D01*
X006805Y009631D01*
X007273Y009631D01*
X007273Y008969D02*
X006805Y008969D01*
X006805Y009051D02*
X007273Y009051D01*
X007273Y009133D02*
X006805Y009133D01*
X006805Y009215D02*
X007273Y009215D01*
X007273Y009297D02*
X006805Y009297D01*
X006805Y009379D02*
X007273Y009379D01*
X007273Y009461D02*
X006805Y009461D01*
X006805Y009543D02*
X007273Y009543D01*
X007273Y009625D02*
X006805Y009625D01*
X007273Y006324D02*
X007273Y005580D01*
X006805Y005580D01*
X006805Y006324D01*
X007273Y006324D01*
X007273Y005662D02*
X006805Y005662D01*
X006805Y005744D02*
X007273Y005744D01*
X007273Y005826D02*
X006805Y005826D01*
X006805Y005908D02*
X007273Y005908D01*
X007273Y005990D02*
X006805Y005990D01*
X006805Y006072D02*
X007273Y006072D01*
X007273Y006154D02*
X006805Y006154D01*
X006805Y006236D02*
X007273Y006236D01*
X007273Y006318D02*
X006805Y006318D01*
X008158Y006324D02*
X008158Y005580D01*
X007690Y005580D01*
X007690Y006324D01*
X008158Y006324D01*
X008158Y005662D02*
X007690Y005662D01*
X007690Y005744D02*
X008158Y005744D01*
X008158Y005826D02*
X007690Y005826D01*
X007690Y005908D02*
X008158Y005908D01*
X008158Y005990D02*
X007690Y005990D01*
X007690Y006072D02*
X008158Y006072D01*
X008158Y006154D02*
X007690Y006154D01*
X007690Y006236D02*
X008158Y006236D01*
X008158Y006318D02*
X007690Y006318D01*
X009044Y006324D02*
X009044Y005580D01*
X008576Y005580D01*
X008576Y006324D01*
X009044Y006324D01*
X009044Y005662D02*
X008576Y005662D01*
X008576Y005744D02*
X009044Y005744D01*
X009044Y005826D02*
X008576Y005826D01*
X008576Y005908D02*
X009044Y005908D01*
X009044Y005990D02*
X008576Y005990D01*
X008576Y006072D02*
X009044Y006072D01*
X009044Y006154D02*
X008576Y006154D01*
X008576Y006236D02*
X009044Y006236D01*
X009044Y006318D02*
X008576Y006318D01*
X011210Y006324D02*
X011210Y005580D01*
X010742Y005580D01*
X010742Y006324D01*
X011210Y006324D01*
X011210Y005662D02*
X010742Y005662D01*
X010742Y005744D02*
X011210Y005744D01*
X011210Y005826D02*
X010742Y005826D01*
X010742Y005908D02*
X011210Y005908D01*
X011210Y005990D02*
X010742Y005990D01*
X010742Y006072D02*
X011210Y006072D01*
X011210Y006154D02*
X010742Y006154D01*
X010742Y006236D02*
X011210Y006236D01*
X011210Y006318D02*
X010742Y006318D01*
X012095Y006324D02*
X012095Y005580D01*
X011627Y005580D01*
X011627Y006324D01*
X012095Y006324D01*
X012095Y005662D02*
X011627Y005662D01*
X011627Y005744D02*
X012095Y005744D01*
X012095Y005826D02*
X011627Y005826D01*
X011627Y005908D02*
X012095Y005908D01*
X012095Y005990D02*
X011627Y005990D01*
X011627Y006072D02*
X012095Y006072D01*
X012095Y006154D02*
X011627Y006154D01*
X011627Y006236D02*
X012095Y006236D01*
X012095Y006318D02*
X011627Y006318D01*
X012981Y006324D02*
X012981Y005580D01*
X012513Y005580D01*
X012513Y006324D01*
X012981Y006324D01*
X012981Y005662D02*
X012513Y005662D01*
X012513Y005744D02*
X012981Y005744D01*
X012981Y005826D02*
X012513Y005826D01*
X012513Y005908D02*
X012981Y005908D01*
X012981Y005990D02*
X012513Y005990D01*
X012513Y006072D02*
X012981Y006072D01*
X012981Y006154D02*
X012513Y006154D01*
X012513Y006236D02*
X012981Y006236D01*
X012981Y006318D02*
X012513Y006318D01*
X012981Y008887D02*
X012981Y009631D01*
X012981Y008887D02*
X012513Y008887D01*
X012513Y009631D01*
X012981Y009631D01*
X012981Y008969D02*
X012513Y008969D01*
X012513Y009051D02*
X012981Y009051D01*
X012981Y009133D02*
X012513Y009133D01*
X012513Y009215D02*
X012981Y009215D01*
X012981Y009297D02*
X012513Y009297D01*
X012513Y009379D02*
X012981Y009379D01*
X012981Y009461D02*
X012513Y009461D01*
X012513Y009543D02*
X012981Y009543D01*
X012981Y009625D02*
X012513Y009625D01*
D30*
X015981Y014636D03*
X015981Y015778D03*
X025081Y021761D03*
X025081Y022903D03*
X021481Y027336D03*
X021481Y028478D03*
X012106Y026678D03*
X012106Y025536D03*
D31*
X007256Y027807D03*
X006456Y027807D03*
X006856Y028657D03*
X004256Y025657D03*
X003856Y024807D03*
X004656Y024807D03*
X020781Y025507D03*
X021581Y025507D03*
X021181Y026357D03*
X023831Y023182D03*
X023431Y022332D03*
X024231Y022332D03*
D32*
X020531Y012056D03*
X020531Y008709D03*
D33*
X011861Y009862D03*
X011861Y010862D03*
X007924Y010862D03*
X007924Y009862D03*
X030365Y012618D03*
X030365Y013618D03*
D34*
X030858Y024844D03*
X032842Y024844D03*
X032842Y027820D03*
X030858Y027820D03*
X028873Y027820D03*
X028873Y024844D03*
D35*
X022921Y024844D03*
X022921Y027820D03*
D36*
X012231Y031457D03*
D37*
X011231Y031457D03*
X010231Y031457D03*
X009231Y031457D03*
X008231Y031457D03*
X007231Y031457D03*
X006231Y031457D03*
X005231Y031457D03*
X005231Y030457D03*
X006231Y030457D03*
X007231Y030457D03*
X008231Y030457D03*
X009231Y030457D03*
X010231Y030457D03*
X011231Y030457D03*
X012231Y030457D03*
D38*
X008106Y025607D03*
X008106Y024607D03*
X005606Y024607D03*
X005606Y025607D03*
D39*
X012110Y028757D03*
X013252Y028757D03*
D40*
X015954Y028207D03*
X018159Y028207D03*
D41*
X010206Y027882D03*
X010206Y025982D03*
D42*
X015181Y010682D03*
X015181Y010032D03*
X020816Y005682D03*
X021591Y005682D03*
X022381Y005682D03*
X023796Y005832D03*
X024171Y005832D03*
X024781Y008457D03*
X025256Y008457D03*
X025731Y008457D03*
X025731Y008957D03*
X025256Y008957D03*
X024781Y008957D03*
X024781Y009457D03*
X025256Y009457D03*
X025731Y009457D03*
X023656Y008982D03*
X007881Y006507D03*
D43*
X008810Y005952D02*
X009562Y005952D01*
X009631Y006133D01*
X009631Y006881D02*
X009631Y007307D01*
X010976Y005952D02*
X011861Y005952D01*
X012747Y005952D02*
X013462Y005952D01*
X013531Y005883D01*
X013531Y006631D02*
X013531Y007057D01*
X010981Y008682D02*
X010981Y009254D01*
X010976Y009259D01*
X010330Y010168D02*
X010316Y010182D01*
X009856Y010182D01*
X009428Y010182D01*
X009414Y010168D01*
X009414Y010916D02*
X007979Y010916D01*
X007924Y010862D01*
X007039Y009259D02*
X007031Y009252D01*
X007031Y008682D01*
X010330Y010916D02*
X011807Y010916D01*
X011861Y010862D01*
X023656Y008982D02*
X023656Y008592D01*
X026856Y010582D02*
X027080Y010582D01*
X026856Y010658D01*
X025081Y021761D02*
X024606Y022236D01*
X024606Y023057D01*
X024481Y023182D01*
X023831Y023182D01*
D44*
X023431Y022332D02*
X023431Y021408D01*
X023432Y021407D01*
X023432Y021131D01*
X024581Y019982D01*
X024581Y016532D01*
X026656Y014457D01*
X032131Y014457D01*
X032606Y013982D01*
X032606Y012082D01*
X032231Y011707D01*
X032231Y006307D01*
X029406Y003482D01*
X018906Y003482D01*
X018356Y004032D01*
X017856Y003482D02*
X007331Y003482D01*
X004231Y006582D01*
X003531Y006582D01*
X003181Y006932D01*
X003181Y023231D01*
X003857Y023907D01*
X003856Y023908D01*
X003856Y024807D01*
X004656Y024782D02*
X004656Y024807D01*
X004656Y024782D02*
X004681Y024807D01*
X004656Y024782D02*
X004656Y024332D01*
X004656Y023958D01*
X004605Y023907D01*
X005581Y023731D02*
X005581Y024582D01*
X005606Y024607D01*
X005607Y023757D02*
X005581Y023731D01*
X005607Y023757D02*
X006756Y023757D01*
X007356Y023857D02*
X011256Y023857D01*
X011756Y023032D02*
X012281Y022507D01*
X017631Y022507D01*
X019256Y020882D01*
X020756Y020032D02*
X026556Y014232D01*
X032031Y014232D01*
X032381Y013882D01*
X032381Y012182D01*
X032006Y011807D01*
X032006Y006407D01*
X029631Y004032D01*
X025356Y004032D01*
X024456Y004832D02*
X024981Y005357D01*
X025057Y005357D01*
X024556Y005349D02*
X026431Y005349D01*
X026431Y005447D02*
X024556Y005447D01*
X024556Y005546D02*
X026431Y005546D01*
X026431Y005644D02*
X024556Y005644D01*
X024556Y005743D02*
X026431Y005743D01*
X026431Y005841D02*
X024556Y005841D01*
X024556Y005940D02*
X026431Y005940D01*
X026431Y006038D02*
X024556Y006038D01*
X024556Y006137D02*
X026431Y006137D01*
X026431Y006235D02*
X024556Y006235D01*
X024556Y006334D02*
X026431Y006334D01*
X026431Y006432D02*
X024556Y006432D01*
X024556Y006531D02*
X026408Y006531D01*
X026431Y006507D02*
X026431Y005007D01*
X024556Y005007D01*
X024556Y007296D01*
X024692Y007432D01*
X024706Y007432D01*
X024706Y007446D01*
X024711Y007451D01*
X024711Y007467D01*
X024731Y007487D01*
X024731Y007832D01*
X024761Y007832D01*
X024761Y007487D01*
X024781Y007467D01*
X024781Y007432D01*
X025606Y006607D01*
X026331Y006607D01*
X026431Y006507D01*
X026456Y007207D02*
X025756Y007207D01*
X025511Y007452D01*
X025511Y007837D01*
X025261Y007837D02*
X025261Y007402D01*
X025656Y007007D01*
X027256Y007007D01*
X027281Y007032D01*
X028030Y007032D02*
X028030Y007807D01*
X027282Y007807D02*
X027282Y007908D01*
X027931Y008557D01*
X027931Y008731D01*
X028030Y008782D01*
X028030Y008808D01*
X027282Y009556D01*
X027282Y009557D01*
X027181Y010032D02*
X026956Y010032D01*
X026831Y009907D01*
X026831Y009232D01*
X026381Y008782D01*
X026381Y007607D01*
X026181Y007407D01*
X025856Y007407D01*
X025771Y007492D01*
X025771Y007837D01*
X026031Y007837D02*
X026031Y008032D01*
X026081Y008032D01*
X026156Y008107D01*
X026156Y008857D01*
X026606Y009307D01*
X026606Y010433D01*
X026856Y010658D01*
X026391Y010668D02*
X026101Y010668D01*
X026101Y010766D02*
X026391Y010766D01*
X026391Y010865D02*
X026101Y010865D01*
X026101Y010963D02*
X026391Y010963D01*
X026391Y010985D02*
X026391Y010529D01*
X026386Y010524D01*
X026386Y010439D01*
X026382Y010354D01*
X026386Y010349D01*
X026386Y009398D01*
X025936Y008948D01*
X025936Y008287D01*
X024206Y008287D01*
X024206Y009627D01*
X025142Y009627D01*
X025164Y009649D01*
X025172Y009647D01*
X025261Y009647D01*
X025261Y009807D01*
X025261Y009807D01*
X025261Y009647D01*
X025351Y009647D01*
X025371Y009627D01*
X025912Y009627D01*
X025934Y009649D01*
X025942Y009647D01*
X026031Y009647D01*
X026031Y010077D01*
X026031Y010077D01*
X026031Y010077D01*
X026031Y009647D01*
X026121Y009647D01*
X026159Y009658D01*
X026193Y009677D01*
X026221Y009705D01*
X026241Y009739D01*
X026251Y009778D01*
X026251Y010077D01*
X026386Y010077D01*
X026386Y010175D02*
X026251Y010175D01*
X026251Y010077D02*
X026251Y010377D01*
X026241Y010415D01*
X026221Y010449D01*
X026193Y010477D01*
X026159Y010497D01*
X026121Y010507D01*
X026101Y010507D01*
X026101Y011590D01*
X026328Y011817D01*
X026809Y011817D01*
X026870Y011879D01*
X026882Y011867D01*
X026917Y011847D01*
X026955Y011837D01*
X027180Y011837D01*
X027180Y012232D01*
X027280Y012232D01*
X027280Y011837D01*
X027506Y011837D01*
X027544Y011847D01*
X027578Y011867D01*
X027606Y011895D01*
X027626Y011929D01*
X027636Y011967D01*
X027636Y012232D01*
X027280Y012232D01*
X027280Y012332D01*
X027180Y012332D01*
X027180Y012728D01*
X026955Y012728D01*
X026917Y012717D01*
X026882Y012698D01*
X026870Y012686D01*
X026809Y012748D01*
X026156Y012748D01*
X026056Y012648D01*
X026056Y012168D01*
X025906Y012017D01*
X025906Y013507D01*
X027606Y013507D01*
X028531Y012582D01*
X028531Y009307D01*
X028436Y009307D01*
X028436Y009507D01*
X028080Y009507D01*
X028080Y009607D01*
X027980Y009607D01*
X027980Y010003D01*
X027755Y010003D01*
X027717Y009992D01*
X027682Y009973D01*
X027670Y009961D01*
X027609Y010023D01*
X027483Y010023D01*
X027693Y010232D01*
X027997Y010232D01*
X028097Y010332D01*
X028097Y010985D01*
X028035Y011046D01*
X028047Y011058D01*
X028066Y011092D01*
X028077Y011131D01*
X028077Y011356D01*
X027681Y011356D01*
X027681Y011456D01*
X028531Y011456D01*
X028531Y011554D02*
X028077Y011554D01*
X028077Y011456D02*
X028077Y011682D01*
X028066Y011720D01*
X028047Y011754D01*
X028019Y011782D01*
X027984Y011802D01*
X027946Y011812D01*
X027681Y011812D01*
X027681Y011456D01*
X027581Y011456D01*
X026906Y011456D01*
X026806Y011456D01*
X026101Y011456D01*
X026101Y011554D02*
X026411Y011554D01*
X026411Y011456D02*
X026411Y011682D01*
X026421Y011720D01*
X026441Y011754D01*
X026469Y011782D01*
X026503Y011802D01*
X026541Y011812D01*
X026806Y011812D01*
X026806Y011456D01*
X026806Y011356D01*
X026411Y011356D01*
X026411Y011131D01*
X026421Y011092D01*
X026441Y011058D01*
X026453Y011046D01*
X026391Y010985D01*
X026439Y011062D02*
X026101Y011062D01*
X026101Y011160D02*
X026411Y011160D01*
X026411Y011259D02*
X026101Y011259D01*
X026101Y011357D02*
X026806Y011357D01*
X026806Y011456D02*
X026411Y011456D01*
X026411Y011653D02*
X026164Y011653D01*
X026262Y011751D02*
X026439Y011751D01*
X026806Y011751D02*
X026906Y011751D01*
X026906Y011812D02*
X026906Y011456D01*
X027581Y011456D01*
X027581Y011356D01*
X027186Y011356D01*
X026906Y011356D01*
X026906Y011456D01*
X026906Y011554D02*
X026806Y011554D01*
X026806Y011653D02*
X026906Y011653D01*
X026906Y011812D02*
X027171Y011812D01*
X027209Y011802D01*
X027244Y011782D01*
X027244Y011782D01*
X027244Y011782D01*
X027278Y011802D01*
X027316Y011812D01*
X027581Y011812D01*
X027581Y011456D01*
X027581Y011554D02*
X027681Y011554D01*
X027681Y011456D02*
X028077Y011456D01*
X028077Y011653D02*
X028531Y011653D01*
X028531Y011751D02*
X028048Y011751D01*
X027681Y011751D02*
X027581Y011751D01*
X027581Y011653D02*
X027681Y011653D01*
X027549Y011850D02*
X028531Y011850D01*
X028531Y011948D02*
X027631Y011948D01*
X027636Y012047D02*
X028531Y012047D01*
X028531Y012145D02*
X027636Y012145D01*
X027636Y012332D02*
X027280Y012332D01*
X027280Y012728D01*
X027506Y012728D01*
X027544Y012717D01*
X027578Y012698D01*
X027606Y012670D01*
X027626Y012635D01*
X027636Y012597D01*
X027636Y012332D01*
X027636Y012342D02*
X028531Y012342D01*
X028531Y012244D02*
X027280Y012244D01*
X027280Y012342D02*
X027180Y012342D01*
X027180Y012441D02*
X027280Y012441D01*
X027280Y012539D02*
X027180Y012539D01*
X027180Y012638D02*
X027280Y012638D01*
X027625Y012638D02*
X028476Y012638D01*
X028531Y012539D02*
X027636Y012539D01*
X027636Y012441D02*
X028531Y012441D01*
X028377Y012736D02*
X026820Y012736D01*
X026482Y012282D02*
X025881Y011681D01*
X025881Y010507D01*
X025771Y010397D01*
X025771Y010077D01*
X025511Y010077D02*
X025511Y010652D01*
X025506Y010657D01*
X025138Y010668D02*
X024981Y010668D01*
X024981Y010766D02*
X025138Y010766D01*
X025138Y010810D02*
X025138Y010527D01*
X025121Y010527D01*
X025101Y010507D01*
X024981Y010507D01*
X024981Y013507D01*
X025656Y013507D01*
X025656Y011025D01*
X025354Y011025D01*
X025138Y010810D01*
X025193Y010865D02*
X024981Y010865D01*
X024981Y010963D02*
X025292Y010963D01*
X024981Y011062D02*
X025656Y011062D01*
X025656Y011160D02*
X024981Y011160D01*
X024981Y011259D02*
X025656Y011259D01*
X025656Y011357D02*
X024981Y011357D01*
X024981Y011456D02*
X025656Y011456D01*
X025656Y011554D02*
X024981Y011554D01*
X024981Y011653D02*
X025656Y011653D01*
X025656Y011751D02*
X024981Y011751D01*
X024981Y011850D02*
X025656Y011850D01*
X025656Y011948D02*
X024981Y011948D01*
X024981Y012047D02*
X025656Y012047D01*
X025656Y012145D02*
X024981Y012145D01*
X024981Y012244D02*
X025656Y012244D01*
X025656Y012342D02*
X024981Y012342D01*
X024981Y012441D02*
X025656Y012441D01*
X025656Y012539D02*
X024981Y012539D01*
X024981Y012638D02*
X025656Y012638D01*
X025656Y012736D02*
X024981Y012736D01*
X024981Y012835D02*
X025656Y012835D01*
X025656Y012933D02*
X024981Y012933D01*
X024981Y013032D02*
X025656Y013032D01*
X025656Y013130D02*
X024981Y013130D01*
X024981Y013229D02*
X025656Y013229D01*
X025656Y013327D02*
X024981Y013327D01*
X024981Y013426D02*
X025656Y013426D01*
X025906Y013426D02*
X027688Y013426D01*
X027786Y013327D02*
X025906Y013327D01*
X025906Y013229D02*
X027885Y013229D01*
X027983Y013130D02*
X025906Y013130D01*
X025906Y013032D02*
X028082Y013032D01*
X028180Y012933D02*
X025906Y012933D01*
X025906Y012835D02*
X028279Y012835D01*
X028081Y013957D02*
X029421Y012618D01*
X030365Y012618D01*
X030365Y013618D02*
X031620Y013618D01*
X031706Y013531D01*
X031706Y012782D02*
X031706Y012382D01*
X028531Y011357D02*
X027681Y011357D01*
X027581Y011357D02*
X026906Y011357D01*
X026912Y011850D02*
X026841Y011850D01*
X027180Y011850D02*
X027280Y011850D01*
X027280Y011948D02*
X027180Y011948D01*
X027180Y012047D02*
X027280Y012047D01*
X027280Y012145D02*
X027180Y012145D01*
X028077Y011259D02*
X028531Y011259D01*
X028531Y011160D02*
X028077Y011160D01*
X028049Y011062D02*
X028531Y011062D01*
X028531Y010963D02*
X028097Y010963D01*
X028097Y010865D02*
X028531Y010865D01*
X028531Y010766D02*
X028097Y010766D01*
X028097Y010668D02*
X028531Y010668D01*
X028531Y010569D02*
X028097Y010569D01*
X028097Y010471D02*
X028531Y010471D01*
X028531Y010372D02*
X028097Y010372D01*
X028038Y010274D02*
X028531Y010274D01*
X028531Y010175D02*
X027635Y010175D01*
X027537Y010077D02*
X028531Y010077D01*
X028531Y009978D02*
X028368Y009978D01*
X028378Y009973D02*
X028344Y009992D01*
X028306Y010003D01*
X028080Y010003D01*
X028080Y009607D01*
X028436Y009607D01*
X028436Y009872D01*
X028426Y009910D01*
X028406Y009945D01*
X028378Y009973D01*
X028434Y009880D02*
X028531Y009880D01*
X028531Y009781D02*
X028436Y009781D01*
X028436Y009683D02*
X028531Y009683D01*
X028531Y009584D02*
X028080Y009584D01*
X028080Y009683D02*
X027980Y009683D01*
X027980Y009781D02*
X028080Y009781D01*
X028080Y009880D02*
X027980Y009880D01*
X027980Y009978D02*
X028080Y009978D01*
X027692Y009978D02*
X027653Y009978D01*
X027181Y010032D02*
X027631Y010482D01*
X027631Y010658D01*
X026391Y010569D02*
X026101Y010569D01*
X026200Y010471D02*
X026386Y010471D01*
X026383Y010372D02*
X026251Y010372D01*
X026251Y010274D02*
X026386Y010274D01*
X026251Y010077D02*
X026031Y010077D01*
X026036Y010077D01*
X026031Y010077D02*
X026031Y010077D01*
X026251Y010077D01*
X026251Y009978D02*
X026386Y009978D01*
X026386Y009880D02*
X026251Y009880D01*
X026251Y009781D02*
X026386Y009781D01*
X026386Y009683D02*
X026199Y009683D01*
X026031Y009683D02*
X026031Y009683D01*
X026031Y009781D02*
X026031Y009781D01*
X026031Y009880D02*
X026031Y009880D01*
X026031Y009978D02*
X026031Y009978D01*
X026386Y009584D02*
X024206Y009584D01*
X024206Y009486D02*
X026386Y009486D01*
X026375Y009387D02*
X024206Y009387D01*
X024206Y009289D02*
X026277Y009289D01*
X026178Y009190D02*
X024206Y009190D01*
X024206Y009092D02*
X026080Y009092D01*
X025981Y008993D02*
X024206Y008993D01*
X024206Y008895D02*
X025936Y008895D01*
X025936Y008796D02*
X024206Y008796D01*
X024206Y008698D02*
X025936Y008698D01*
X025936Y008599D02*
X024206Y008599D01*
X024206Y008501D02*
X025936Y008501D01*
X025936Y008402D02*
X024206Y008402D01*
X024206Y008304D02*
X025936Y008304D01*
X026856Y008682D02*
X027281Y008682D01*
X027281Y008782D01*
X027930Y008834D02*
X028030Y008782D01*
X028436Y009387D02*
X028531Y009387D01*
X028531Y009486D02*
X028436Y009486D01*
X027282Y007807D02*
X027056Y007807D01*
X026456Y007207D01*
X025584Y006629D02*
X024556Y006629D01*
X024556Y006728D02*
X025486Y006728D01*
X025387Y006826D02*
X024556Y006826D01*
X024556Y006925D02*
X025289Y006925D01*
X025190Y007023D02*
X024556Y007023D01*
X024556Y007122D02*
X025092Y007122D01*
X024993Y007220D02*
X024556Y007220D01*
X024579Y007319D02*
X024895Y007319D01*
X024796Y007417D02*
X024677Y007417D01*
X024731Y007516D02*
X024761Y007516D01*
X024761Y007614D02*
X024731Y007614D01*
X024731Y007713D02*
X024761Y007713D01*
X024761Y007811D02*
X024731Y007811D01*
X024491Y007837D02*
X024491Y007542D01*
X024056Y007107D01*
X023382Y007107D01*
X023131Y006856D01*
X022356Y006856D01*
X021806Y006832D02*
X020431Y006832D01*
X018106Y009157D01*
X017106Y009157D01*
X016481Y009782D01*
X016481Y010207D01*
X022681Y010207D01*
X022806Y010082D01*
X022806Y008207D01*
X021806Y007207D01*
X021806Y006832D01*
X021806Y006925D02*
X020339Y006925D01*
X020240Y007023D02*
X021806Y007023D01*
X021806Y007122D02*
X020142Y007122D01*
X020043Y007220D02*
X021819Y007220D01*
X021918Y007319D02*
X019945Y007319D01*
X019846Y007417D02*
X022016Y007417D01*
X022115Y007516D02*
X019748Y007516D01*
X019649Y007614D02*
X022213Y007614D01*
X022312Y007713D02*
X019551Y007713D01*
X019452Y007811D02*
X022410Y007811D01*
X022509Y007910D02*
X019354Y007910D01*
X019255Y008008D02*
X022607Y008008D01*
X022706Y008107D02*
X019157Y008107D01*
X019058Y008205D02*
X022804Y008205D01*
X022806Y008304D02*
X018960Y008304D01*
X018861Y008402D02*
X022806Y008402D01*
X022806Y008501D02*
X018763Y008501D01*
X018664Y008599D02*
X022806Y008599D01*
X022806Y008698D02*
X018566Y008698D01*
X018467Y008796D02*
X022806Y008796D01*
X022806Y008895D02*
X018369Y008895D01*
X018270Y008993D02*
X022806Y008993D01*
X022806Y009092D02*
X018172Y009092D01*
X018931Y009782D02*
X019106Y009957D01*
X019106Y013482D01*
X019581Y013957D01*
X028081Y013957D01*
X026145Y012736D02*
X025906Y012736D01*
X025906Y012638D02*
X026056Y012638D01*
X026056Y012539D02*
X025906Y012539D01*
X025906Y012441D02*
X026056Y012441D01*
X026056Y012342D02*
X025906Y012342D01*
X025906Y012244D02*
X026056Y012244D01*
X026034Y012145D02*
X025906Y012145D01*
X025906Y012047D02*
X025936Y012047D01*
X024756Y012047D02*
X019481Y012047D01*
X019481Y012145D02*
X024756Y012145D01*
X024756Y012244D02*
X019481Y012244D01*
X019481Y012342D02*
X024756Y012342D01*
X024756Y012382D02*
X024506Y012632D01*
X023106Y012632D01*
X022831Y012907D01*
X022831Y013432D01*
X019656Y013432D01*
X019481Y013257D01*
X019481Y010957D01*
X019631Y010807D01*
X024081Y010807D01*
X024361Y010527D01*
X024372Y010527D01*
X024471Y010428D01*
X024471Y010057D01*
X024756Y010057D01*
X024756Y012382D01*
X024698Y012441D02*
X019481Y012441D01*
X019481Y012539D02*
X024599Y012539D01*
X024756Y011948D02*
X019481Y011948D01*
X019481Y011850D02*
X024756Y011850D01*
X024756Y011751D02*
X019481Y011751D01*
X019481Y011653D02*
X024756Y011653D01*
X024756Y011554D02*
X019481Y011554D01*
X019481Y011456D02*
X024756Y011456D01*
X024756Y011357D02*
X019481Y011357D01*
X019481Y011259D02*
X024756Y011259D01*
X024756Y011160D02*
X019481Y011160D01*
X019481Y011062D02*
X024756Y011062D01*
X024751Y011137D02*
X024751Y010077D01*
X024756Y010077D02*
X024471Y010077D01*
X024471Y010175D02*
X024756Y010175D01*
X024756Y010274D02*
X024471Y010274D01*
X024471Y010372D02*
X024756Y010372D01*
X024756Y010471D02*
X024428Y010471D01*
X024319Y010569D02*
X024756Y010569D01*
X024756Y010668D02*
X024221Y010668D01*
X024122Y010766D02*
X024756Y010766D01*
X024756Y010865D02*
X019574Y010865D01*
X019481Y010963D02*
X024756Y010963D01*
X024981Y010569D02*
X025138Y010569D01*
X025261Y009781D02*
X025261Y009781D01*
X025261Y009683D02*
X025261Y009683D01*
X022806Y009683D02*
X016581Y009683D01*
X016679Y009584D02*
X022806Y009584D01*
X022806Y009486D02*
X016778Y009486D01*
X016876Y009387D02*
X022806Y009387D01*
X022806Y009289D02*
X016975Y009289D01*
X017073Y009190D02*
X022806Y009190D01*
X022806Y009781D02*
X016482Y009781D01*
X016481Y009880D02*
X022806Y009880D01*
X022806Y009978D02*
X016481Y009978D01*
X016481Y010077D02*
X022806Y010077D01*
X022713Y010175D02*
X016481Y010175D01*
X015181Y010032D02*
X014881Y010382D01*
X013556Y010731D02*
X013556Y011533D01*
X012781Y011533D01*
X012781Y012281D02*
X012781Y012682D01*
X012781Y013083D01*
X012807Y013831D02*
X013555Y013083D01*
X013556Y013083D01*
X013556Y012281D01*
X013556Y013831D02*
X013656Y013931D01*
X013656Y016357D01*
X013056Y017132D02*
X010881Y014957D01*
X006181Y014957D01*
X005031Y013807D01*
X004481Y013807D01*
X004331Y013657D01*
X004331Y012907D01*
X003806Y012382D01*
X003806Y012307D01*
X004331Y011832D02*
X005506Y011832D01*
X006706Y013032D01*
X007706Y013032D02*
X008206Y012532D01*
X008206Y011832D01*
X007931Y011557D01*
X007406Y011557D01*
X005656Y009807D01*
X004306Y009807D01*
X003806Y010307D01*
X004581Y010857D02*
X006306Y010857D01*
X007481Y012032D01*
X007706Y012032D01*
X004581Y010857D02*
X004131Y011307D01*
X003806Y011307D01*
X003806Y009307D02*
X004306Y008807D01*
X005581Y008807D01*
X006531Y007857D01*
X007481Y007857D01*
X008956Y007057D02*
X005906Y007057D01*
X005156Y007807D01*
X004306Y007807D01*
X003806Y008307D01*
X006081Y005557D02*
X006081Y005182D01*
X006731Y004532D01*
X011531Y004532D01*
X011756Y004307D01*
X011756Y004032D01*
X012106Y004857D02*
X006931Y004857D01*
X006706Y005107D01*
X007481Y005232D02*
X007631Y005082D01*
X012731Y005082D01*
X013756Y004057D01*
X013756Y004032D01*
X014756Y004032D02*
X014756Y004557D01*
X014006Y005307D01*
X010306Y005307D01*
X009661Y005952D01*
X009562Y005952D01*
X010976Y005952D02*
X010981Y005958D01*
X010981Y006482D01*
X012106Y004857D02*
X012756Y004207D01*
X012756Y004032D01*
X013531Y005883D02*
X014505Y005883D01*
X016356Y004032D01*
X017106Y004032D02*
X017356Y004032D01*
X017106Y004032D02*
X015081Y006057D01*
X015081Y006907D01*
X013556Y008432D01*
X013556Y009983D01*
X016831Y013057D02*
X016832Y013058D01*
X017706Y013058D01*
X017707Y013057D01*
X018581Y013057D01*
X019481Y013032D02*
X022831Y013032D01*
X022831Y013130D02*
X019481Y013130D01*
X019481Y013229D02*
X022831Y013229D01*
X022831Y013327D02*
X019551Y013327D01*
X019650Y013426D02*
X022831Y013426D01*
X022831Y012933D02*
X019481Y012933D01*
X019481Y012835D02*
X022904Y012835D01*
X023002Y012736D02*
X019481Y012736D01*
X019481Y012638D02*
X023101Y012638D01*
X018606Y008182D02*
X018456Y008182D01*
X018606Y008182D02*
X020006Y006782D01*
X020006Y005282D01*
X019356Y004632D01*
X019356Y004032D01*
X018106Y004832D02*
X018106Y005107D01*
X018106Y005907D02*
X018106Y006457D01*
X018281Y006632D01*
X018281Y006633D02*
X018282Y006632D01*
X018281Y006633D02*
X018281Y007332D01*
X018606Y007657D01*
X019030Y006632D02*
X019431Y006632D01*
X019456Y006657D01*
X020806Y006108D02*
X020806Y005747D01*
X020816Y005682D01*
X021581Y005722D02*
X021591Y005682D01*
X021581Y005722D02*
X021581Y006108D01*
X022356Y006108D02*
X022356Y005707D01*
X022381Y005682D01*
X023131Y006108D02*
X023131Y005207D01*
X023506Y004832D01*
X024456Y004832D01*
X024556Y005053D02*
X026431Y005053D01*
X026431Y005152D02*
X024556Y005152D01*
X024556Y005250D02*
X026431Y005250D01*
X025056Y005931D02*
X025057Y006232D01*
X023955Y006232D02*
X023796Y006073D01*
X023796Y005832D01*
X023796Y005516D01*
X023955Y005357D01*
X012807Y013831D02*
X012781Y013831D01*
X015981Y015778D02*
X015981Y016182D01*
X013056Y019407D02*
X013056Y020507D01*
X013081Y020532D01*
X013106Y020532D01*
X013131Y020557D01*
X013131Y020546D02*
X013169Y020584D01*
X013169Y021084D01*
X013167Y021082D01*
X013171Y021582D02*
X013169Y021584D01*
X013171Y021582D02*
X013656Y021582D01*
X013633Y022084D02*
X013169Y022084D01*
X013633Y022084D02*
X013656Y022107D01*
X011031Y022082D02*
X011029Y022084D01*
X010456Y022084D01*
X010204Y021584D02*
X008756Y023032D01*
X007756Y023032D02*
X007481Y022757D01*
X007481Y022042D01*
X006817Y022042D01*
X006706Y021931D01*
X006130Y021931D01*
X005506Y021307D01*
X005506Y020782D01*
X005906Y019906D02*
X005906Y019882D01*
X006056Y019732D01*
X006607Y019732D01*
X006706Y019633D01*
X007471Y019633D01*
X007481Y019623D01*
X009522Y019623D01*
X009806Y019907D01*
X010422Y019857D02*
X010422Y019492D01*
X010431Y019482D01*
X011041Y021082D02*
X011043Y021084D01*
X011043Y021584D01*
X010204Y021584D01*
X007481Y021373D02*
X007297Y021373D01*
X007131Y021207D01*
X007107Y021183D01*
X006706Y021183D01*
X006706Y020381D02*
X007155Y020381D01*
X007156Y020382D01*
X007391Y020382D01*
X007481Y020292D01*
X006056Y019332D02*
X006056Y018957D01*
X005556Y018957D01*
X005056Y018457D01*
X005056Y017332D01*
X004556Y017332D01*
X004556Y017457D01*
X003931Y018082D01*
X003681Y018082D01*
X003556Y018207D01*
X003556Y019457D01*
X003681Y019582D01*
X005306Y019582D01*
X005556Y019332D01*
X006056Y019332D01*
X006056Y019237D02*
X003556Y019237D01*
X003556Y019139D02*
X006056Y019139D01*
X006056Y019040D02*
X003556Y019040D01*
X003556Y018942D02*
X005541Y018942D01*
X005442Y018843D02*
X003556Y018843D01*
X003556Y018745D02*
X005344Y018745D01*
X005245Y018646D02*
X003556Y018646D01*
X003556Y018548D02*
X005147Y018548D01*
X005056Y018449D02*
X003556Y018449D01*
X003556Y018351D02*
X005056Y018351D01*
X005056Y018252D02*
X003556Y018252D01*
X003610Y018154D02*
X005056Y018154D01*
X005056Y018055D02*
X003958Y018055D01*
X004057Y017957D02*
X005056Y017957D01*
X005056Y017858D02*
X004155Y017858D01*
X004254Y017760D02*
X005056Y017760D01*
X005056Y017661D02*
X004352Y017661D01*
X004451Y017563D02*
X005056Y017563D01*
X005056Y017464D02*
X004549Y017464D01*
X004556Y017366D02*
X005056Y017366D01*
X004390Y016873D02*
X003556Y016873D01*
X003556Y016775D02*
X004489Y016775D01*
X004587Y016676D02*
X003556Y016676D01*
X003556Y016578D02*
X004936Y016578D01*
X004931Y016582D02*
X005056Y016457D01*
X005056Y015207D01*
X004806Y014957D01*
X003806Y014957D01*
X003556Y015207D01*
X003556Y017332D01*
X004056Y017332D01*
X004056Y017207D01*
X004681Y016582D01*
X004931Y016582D01*
X005034Y016479D02*
X003556Y016479D01*
X003556Y016381D02*
X005056Y016381D01*
X005056Y016282D02*
X003556Y016282D01*
X003556Y016184D02*
X005056Y016184D01*
X005056Y016085D02*
X003556Y016085D01*
X003556Y015987D02*
X005056Y015987D01*
X005056Y015888D02*
X003556Y015888D01*
X003556Y015790D02*
X005056Y015790D01*
X005056Y015691D02*
X003556Y015691D01*
X003556Y015593D02*
X005056Y015593D01*
X005056Y015494D02*
X003556Y015494D01*
X003556Y015396D02*
X005056Y015396D01*
X005056Y015297D02*
X003556Y015297D01*
X003565Y015199D02*
X005048Y015199D01*
X004949Y015100D02*
X003663Y015100D01*
X003762Y015002D02*
X004851Y015002D01*
X004292Y016972D02*
X003556Y016972D01*
X003556Y017070D02*
X004193Y017070D01*
X004095Y017169D02*
X003556Y017169D01*
X003556Y017267D02*
X004056Y017267D01*
X003556Y019336D02*
X005553Y019336D01*
X005454Y019434D02*
X003556Y019434D01*
X003632Y019533D02*
X005356Y019533D01*
X004306Y020482D02*
X007331Y023507D01*
X018356Y023507D01*
X018756Y023107D01*
X018756Y023032D01*
X020281Y022757D02*
X020281Y024156D01*
X020707Y024582D01*
X020281Y022757D02*
X020756Y022282D01*
X020756Y021857D01*
X024180Y021407D02*
X024231Y021458D01*
X024231Y021882D01*
X024231Y022332D01*
X011231Y030457D02*
X010606Y029832D01*
X008031Y029832D01*
X006856Y028657D01*
X006681Y029632D02*
X005831Y028782D01*
X005831Y026732D01*
X004756Y025657D01*
X004256Y025657D01*
X005606Y025607D02*
X006006Y025607D01*
X006506Y026482D02*
X006506Y026907D01*
X006507Y026932D02*
X006456Y026983D01*
X006456Y027807D01*
X007256Y027807D02*
X007256Y027332D01*
X007256Y026933D01*
X007255Y026932D01*
X007206Y029632D02*
X006681Y029632D01*
X007206Y029632D02*
X007731Y030157D01*
X007731Y030732D01*
X007956Y030957D01*
X010556Y030957D01*
X011056Y031457D01*
X011231Y031457D01*
X009231Y030457D02*
X008231Y030457D01*
X007231Y030457D02*
X006231Y030457D01*
X005231Y030457D01*
X005231Y031457D01*
X007356Y023857D02*
X006482Y022983D01*
X005581Y022983D01*
X007881Y006507D02*
X007879Y006157D01*
X007924Y005952D01*
D45*
X007481Y005232D03*
X006706Y005107D03*
X006081Y005557D03*
X007481Y007857D03*
X007031Y008682D03*
X008956Y007057D03*
X009631Y007307D03*
X010981Y006482D03*
X013531Y007057D03*
X010981Y008682D03*
X009856Y010182D03*
X012781Y012682D03*
X016656Y010282D03*
X018156Y010057D03*
X018456Y008182D03*
X018606Y007657D03*
X019456Y006657D03*
X018106Y004832D03*
X017856Y003482D03*
X022581Y010032D03*
X025506Y010657D03*
X026856Y008682D03*
X031706Y012382D03*
X020756Y020032D03*
X019256Y020882D03*
X020756Y021857D03*
X021456Y024007D03*
X024231Y021882D03*
X015981Y019957D03*
X013656Y021582D03*
X013656Y022107D03*
X011256Y023857D03*
X010456Y022084D03*
X011106Y020232D03*
X010431Y019482D03*
X009806Y019907D03*
X007156Y020382D03*
X007131Y021207D03*
X005506Y020782D03*
X004306Y020482D03*
X006756Y023757D03*
X006006Y025607D03*
X006506Y026482D03*
X007256Y027332D03*
X004656Y024332D03*
X013056Y019407D03*
X013056Y017132D03*
X013656Y016357D03*
X015981Y016182D03*
X018156Y013782D03*
X018581Y013057D03*
X004331Y011832D03*
D46*
X011091Y019857D02*
X011106Y019873D01*
X011106Y020232D01*
X011106Y020521D01*
X011043Y020584D01*
X009856Y024632D02*
X009856Y025182D01*
X010231Y025557D01*
X010231Y025957D01*
X010206Y025982D01*
X010231Y025557D02*
X010252Y025536D01*
X012106Y025536D01*
X013206Y025557D02*
X013206Y025982D01*
X012506Y026682D01*
X012110Y026682D01*
X012106Y026678D01*
X012106Y027807D01*
X012131Y027832D01*
X014082Y027832D01*
X014830Y027832D02*
X015879Y027832D01*
X015954Y027907D01*
X014002Y029507D02*
X013231Y029507D01*
X011331Y029507D01*
X010206Y028382D01*
X010206Y027882D01*
X009606Y027882D01*
X008106Y026382D01*
X008106Y025607D01*
X008106Y024607D02*
X009032Y024607D01*
X009057Y024632D01*
X009805Y024632D02*
X009856Y024632D01*
X012106Y027807D02*
X012106Y028753D01*
X012110Y028757D01*
X013252Y028757D02*
X013252Y029486D01*
X013231Y029507D01*
X014002Y029507D02*
X015277Y030782D01*
X016382Y030782D01*
X021481Y028478D02*
X021510Y028478D01*
X022168Y027820D01*
X022921Y027820D01*
X022968Y027820D01*
X023606Y027182D01*
X023606Y023757D01*
X023581Y023732D01*
X025031Y023732D01*
X026156Y023732D01*
X028656Y021232D01*
X030681Y021232D01*
X031231Y021782D01*
X026531Y021782D02*
X026510Y021761D01*
X025081Y021761D01*
X025081Y022903D02*
X025081Y023682D01*
X025031Y023732D01*
X022921Y024844D02*
X022921Y025218D01*
X021781Y026357D01*
X021181Y026357D01*
X021181Y027036D01*
X021481Y027336D01*
X021581Y025507D02*
X021581Y024708D01*
X021455Y024582D01*
X021455Y024133D01*
X021456Y024007D01*
X020781Y024656D02*
X020707Y024582D01*
X020781Y024656D02*
X020781Y025507D01*
X018306Y015257D02*
X017685Y014636D01*
X015981Y014636D01*
X015981Y013457D01*
X016831Y013857D02*
X017656Y013857D01*
X017706Y013807D01*
X017706Y013806D02*
X018132Y013806D01*
X018156Y013782D01*
X016981Y009607D02*
X015881Y008507D01*
X015881Y007770D01*
X015881Y006195D02*
X016569Y005507D01*
X018956Y005507D01*
X023656Y007832D02*
X024156Y007832D01*
X024196Y013207D02*
X023380Y013207D01*
D47*
X019631Y019957D02*
X018306Y019957D01*
X015981Y019957D01*
X019631Y019957D02*
X023406Y023732D01*
X023581Y023732D01*
D48*
X018481Y018782D02*
X004806Y018782D01*
X006231Y018057D02*
X013781Y018057D01*
X014781Y017057D01*
X016956Y017057D01*
X017506Y017607D01*
X018481Y018782D02*
X022006Y015257D01*
X023106Y015257D01*
X006231Y015632D02*
X004806Y015632D01*
D49*
X004381Y004456D03*
X004381Y027685D03*
X034302Y004456D03*
D50*
X030494Y007262D02*
X029039Y005807D01*
X026955Y005807D01*
X019106Y025557D02*
X017706Y025557D01*
X015954Y027310D01*
X015954Y027907D01*
X015954Y028207D01*
X018159Y028207D02*
X018159Y030590D01*
X018351Y030782D01*
X020319Y030782D02*
X020319Y030945D01*
X027494Y030969D02*
X027494Y030782D01*
D51*
X025181Y011032D02*
X025001Y010877D01*
X025001Y010077D01*
X024491Y010077D02*
X024491Y010792D01*
X024205Y010283D02*
X024231Y010257D01*
X024231Y010077D01*
X024205Y010283D02*
X023606Y010283D01*
X024161Y007837D02*
X024156Y007832D01*
X024161Y007837D02*
X024231Y007837D01*
D52*
X034302Y031228D03*
D53*
X033231Y029457D02*
X032731Y029457D01*
X031431Y030757D01*
X031431Y030782D01*
X033231Y029457D02*
X034431Y028257D01*
X034431Y026433D01*
X032842Y024844D01*
X030858Y027820D02*
X030858Y028381D01*
X030156Y029082D01*
X023356Y029082D01*
X022288Y030151D01*
X022288Y030782D01*
D54*
X021681Y032307D02*
X020319Y030945D01*
X021681Y032307D02*
X026156Y032307D01*
X027494Y030969D01*
M02*
