%
M48
M72
T01C0.0236
T02C0.0315
T03C0.0320
T04C0.0354
T05C0.0394
T06C0.0400
T07C0.0512
T08C0.0520
T09C0.0531
T10C0.0787
T11C0.1181
T12C0.1260
%
T01
X9462Y7469
X8837Y7919
X10237Y7594
X10637Y8869
X11712Y9419
X12387Y9669
X13737Y8844
X16287Y9419
X13737Y11044
X12612Y12544
X9787Y11044
X10237Y10219
X7087Y14194
X9937Y17319
X12962Y17319
X15812Y19494
X16412Y18719
X18737Y18544
X20912Y16144
X21337Y15419
X20912Y12419
X19412Y12644
X17937Y12394
X17937Y13044
X15537Y15044
X21212Y10544
X21362Y10019
X22212Y9019
X23572Y8044
X24347Y8044
X25137Y8044
X26552Y8194
X26927Y8194
X27537Y10819
X28012Y10819
X28487Y10819
X28487Y11319
X28012Y11319
X27537Y11319
X27537Y11819
X28012Y11819
X28487Y11819
X29612Y11044
X28262Y13019
X26412Y11344
X25337Y12394
X20862Y7194
X20612Y5844
X34462Y14744
X23512Y22394
X22012Y23244
X23512Y24219
X24212Y26369
X26987Y24244
X18737Y22319
X16412Y23944
X16412Y24469
X15812Y22594
X13337Y22944
X12037Y22944
X11412Y24069
X10687Y23194
X9437Y23469
X7062Y22394
X9512Y26119
X8762Y27969
X9262Y28844
X10012Y29694
X7412Y26694
X14012Y26219
T02
X18637Y10132
X18637Y8557
T03
X14617Y12224
X14617Y13224
X10680Y13224
X10680Y12224
X33121Y14980
X33121Y15980
T04
X24512Y25394
X23512Y25394
X22512Y25394
X21512Y25394
X20512Y25394
X19512Y25394
X18512Y25394
X17512Y25394
X15512Y25394
X14512Y25394
X13512Y25394
X12512Y25394
X11512Y25394
X10512Y25394
X10462Y16394
X10462Y15394
X9462Y15394
X9462Y14394
X10462Y14394
X10512Y6394
X11512Y6394
X12512Y6394
X13512Y6394
X14512Y6394
X15512Y6394
X16512Y6394
X17512Y6394
X19112Y6394
X20112Y6394
X21112Y6394
X22112Y6394
X23112Y6394
X24112Y6394
X25112Y6394
X26112Y6394
X27112Y6394
X28112Y6394
T05
X7562Y9669
X6562Y9669
X6562Y10669
X7562Y10669
X7562Y11669
X7562Y12669
X6562Y12669
X6562Y11669
X6562Y13669
X7562Y13669
X7562Y14669
X6562Y14669
X6562Y15669
X7562Y15669
X7562Y16669
X6562Y16669
X6562Y17669
X6562Y18669
X7562Y18669
X7562Y17669
X7562Y19669
X6562Y19669
X6562Y20669
X7562Y20669
X7562Y21669
X6562Y21669
X7987Y32819
X8987Y32819
X9987Y32819
X10987Y32819
X11987Y32819
X12987Y32819
X13987Y32819
X14987Y32819
X14987Y33819
X13987Y33819
X12987Y33819
X11987Y33819
X10987Y33819
X9987Y33819
X8987Y33819
X7987Y33819
T06
X15962Y27919
X21862Y27919
X17987Y20919
X17987Y18494
X9462Y16394
X8987Y18494
X8987Y20919
T07
X25676Y27206
X25676Y30183
X31629Y30183
X33613Y30183
X35597Y30183
X35597Y27206
X33613Y27206
X31629Y27206
T08
X31637Y24944
X33987Y24144
X29287Y24144
X25862Y22319
X29287Y19344
X25862Y17619
X21062Y17619
X20262Y19969
X21062Y22319
X33987Y19344
T09
X36787Y19313
X36787Y17344
X36787Y21281
X34187Y33144
X32218Y33144
X30250Y33144
X27012Y33144
X25043Y33144
X23075Y33144
X21106Y33144
X19138Y33144
T10
X33249Y12931
X33249Y11278
X33249Y9624
T11
X36123Y9624
X36123Y12931
T12
X7136Y6819
X7136Y30047
X37058Y33590
X37058Y6819
M30
