G75*
G70*
%OFA0B0*%
%FSLAX24Y24*%
%IPPOS*%
%LPD*%
%AMOC8*
5,1,8,0,0,1.08239X$1,22.5*
%
%ADD10C,0.0039*%
%ADD11C,0.0050*%
%ADD12R,0.0149X0.0001*%
%ADD13R,0.0004X0.0001*%
%ADD14R,0.0010X0.0001*%
%ADD15R,0.0017X0.0001*%
%ADD16R,0.0023X0.0001*%
%ADD17R,0.0029X0.0001*%
%ADD18R,0.0034X0.0001*%
%ADD19R,0.0040X0.0001*%
%ADD20R,0.0043X0.0002*%
%ADD21R,0.0047X0.0001*%
%ADD22R,0.0050X0.0001*%
%ADD23R,0.0054X0.0001*%
%ADD24R,0.0059X0.0001*%
%ADD25R,0.0064X0.0001*%
%ADD26R,0.0015X0.0001*%
%ADD27R,0.0067X0.0001*%
%ADD28R,0.0020X0.0001*%
%ADD29R,0.0070X0.0001*%
%ADD30R,0.0024X0.0001*%
%ADD31R,0.0074X0.0001*%
%ADD32R,0.0027X0.0001*%
%ADD33R,0.0076X0.0001*%
%ADD34R,0.0030X0.0001*%
%ADD35R,0.0081X0.0002*%
%ADD36R,0.0036X0.0002*%
%ADD37R,0.0086X0.0001*%
%ADD38R,0.0091X0.0001*%
%ADD39R,0.0046X0.0001*%
%ADD40R,0.0094X0.0001*%
%ADD41R,0.0096X0.0001*%
%ADD42R,0.0053X0.0001*%
%ADD43R,0.0099X0.0001*%
%ADD44R,0.0056X0.0001*%
%ADD45R,0.0104X0.0001*%
%ADD46R,0.0060X0.0001*%
%ADD47R,0.0108X0.0001*%
%ADD48R,0.0112X0.0001*%
%ADD49R,0.0117X0.0001*%
%ADD50R,0.0072X0.0001*%
%ADD51R,0.0120X0.0002*%
%ADD52R,0.0075X0.0002*%
%ADD53R,0.0123X0.0001*%
%ADD54R,0.0078X0.0001*%
%ADD55R,0.0126X0.0001*%
%ADD56R,0.0081X0.0001*%
%ADD57R,0.0131X0.0001*%
%ADD58R,0.0136X0.0001*%
%ADD59R,0.0090X0.0001*%
%ADD60R,0.0139X0.0001*%
%ADD61R,0.0144X0.0001*%
%ADD62R,0.0147X0.0001*%
%ADD63R,0.0101X0.0001*%
%ADD64R,0.0150X0.0001*%
%ADD65R,0.0102X0.0001*%
%ADD66R,0.0153X0.0001*%
%ADD67R,0.0106X0.0001*%
%ADD68R,0.0158X0.0002*%
%ADD69R,0.0109X0.0002*%
%ADD70R,0.0164X0.0001*%
%ADD71R,0.0115X0.0001*%
%ADD72R,0.0168X0.0001*%
%ADD73R,0.0120X0.0001*%
%ADD74R,0.0171X0.0001*%
%ADD75R,0.0123X0.0001*%
%ADD76R,0.0172X0.0001*%
%ADD77R,0.0125X0.0001*%
%ADD78R,0.0175X0.0001*%
%ADD79R,0.0128X0.0001*%
%ADD80R,0.0180X0.0001*%
%ADD81R,0.0132X0.0001*%
%ADD82R,0.0186X0.0001*%
%ADD83R,0.0191X0.0001*%
%ADD84R,0.0141X0.0001*%
%ADD85R,0.0194X0.0001*%
%ADD86R,0.0145X0.0001*%
%ADD87R,0.0196X0.0002*%
%ADD88R,0.0149X0.0002*%
%ADD89R,0.0199X0.0001*%
%ADD90R,0.0151X0.0001*%
%ADD91R,0.0204X0.0001*%
%ADD92R,0.0153X0.0001*%
%ADD93R,0.0207X0.0001*%
%ADD94R,0.0158X0.0001*%
%ADD95R,0.0211X0.0001*%
%ADD96R,0.0162X0.0001*%
%ADD97R,0.0216X0.0001*%
%ADD98R,0.0166X0.0001*%
%ADD99R,0.0219X0.0001*%
%ADD100R,0.0007X0.0001*%
%ADD101R,0.0169X0.0001*%
%ADD102R,0.0222X0.0001*%
%ADD103R,0.0011X0.0001*%
%ADD104R,0.0224X0.0001*%
%ADD105R,0.0014X0.0001*%
%ADD106R,0.0176X0.0001*%
%ADD107R,0.0228X0.0001*%
%ADD108R,0.0018X0.0001*%
%ADD109R,0.0179X0.0001*%
%ADD110R,0.0234X0.0002*%
%ADD111R,0.0024X0.0002*%
%ADD112R,0.0183X0.0002*%
%ADD113R,0.0239X0.0001*%
%ADD114R,0.0189X0.0001*%
%ADD115R,0.0241X0.0001*%
%ADD116R,0.0033X0.0001*%
%ADD117R,0.0012X0.0001*%
%ADD118R,0.0192X0.0001*%
%ADD119R,0.0243X0.0001*%
%ADD120R,0.0038X0.0001*%
%ADD121R,0.0246X0.0001*%
%ADD122R,0.0041X0.0001*%
%ADD123R,0.0019X0.0001*%
%ADD124R,0.0196X0.0001*%
%ADD125R,0.0250X0.0001*%
%ADD126R,0.0044X0.0001*%
%ADD127R,0.0021X0.0001*%
%ADD128R,0.0201X0.0001*%
%ADD129R,0.0254X0.0001*%
%ADD130R,0.0048X0.0001*%
%ADD131R,0.0258X0.0001*%
%ADD132R,0.0054X0.0001*%
%ADD133R,0.0209X0.0001*%
%ADD134R,0.0263X0.0001*%
%ADD135R,0.0213X0.0001*%
%ADD136R,0.0267X0.0001*%
%ADD137R,0.0063X0.0001*%
%ADD138R,0.0270X0.0002*%
%ADD139R,0.0066X0.0002*%
%ADD140R,0.0045X0.0002*%
%ADD141R,0.0219X0.0002*%
%ADD142R,0.0271X0.0001*%
%ADD143R,0.0220X0.0001*%
%ADD144R,0.0274X0.0001*%
%ADD145R,0.0051X0.0001*%
%ADD146R,0.0223X0.0001*%
%ADD147R,0.0278X0.0001*%
%ADD148R,0.0282X0.0001*%
%ADD149R,0.0231X0.0001*%
%ADD150R,0.0288X0.0001*%
%ADD151R,0.0085X0.0001*%
%ADD152R,0.0236X0.0001*%
%ADD153R,0.0289X0.0001*%
%ADD154R,0.0087X0.0001*%
%ADD155R,0.0066X0.0001*%
%ADD156R,0.0292X0.0001*%
%ADD157R,0.0069X0.0001*%
%ADD158R,0.0297X0.0001*%
%ADD159R,0.0300X0.0001*%
%ADD160R,0.0075X0.0001*%
%ADD161R,0.0305X0.0002*%
%ADD162R,0.0101X0.0002*%
%ADD163R,0.0078X0.0002*%
%ADD164R,0.0251X0.0002*%
%ADD165R,0.0309X0.0001*%
%ADD166R,0.0105X0.0001*%
%ADD167R,0.0083X0.0001*%
%ADD168R,0.0255X0.0001*%
%ADD169R,0.0314X0.0001*%
%ADD170R,0.0110X0.0001*%
%ADD171R,0.0087X0.0001*%
%ADD172R,0.0316X0.0001*%
%ADD173R,0.0113X0.0001*%
%ADD174R,0.0262X0.0001*%
%ADD175R,0.0319X0.0001*%
%ADD176R,0.0114X0.0001*%
%ADD177R,0.0093X0.0001*%
%ADD178R,0.0266X0.0001*%
%ADD179R,0.0321X0.0001*%
%ADD180R,0.0096X0.0001*%
%ADD181R,0.0324X0.0001*%
%ADD182R,0.0270X0.0001*%
%ADD183R,0.0329X0.0001*%
%ADD184R,0.0124X0.0001*%
%ADD185R,0.0275X0.0001*%
%ADD186R,0.0333X0.0001*%
%ADD187R,0.0279X0.0001*%
%ADD188R,0.0336X0.0001*%
%ADD189R,0.0111X0.0001*%
%ADD190R,0.0284X0.0001*%
%ADD191R,0.0339X0.0002*%
%ADD192R,0.0134X0.0002*%
%ADD193R,0.0114X0.0002*%
%ADD194R,0.0286X0.0002*%
%ADD195R,0.0342X0.0001*%
%ADD196R,0.0116X0.0001*%
%ADD197R,0.0491X0.0001*%
%ADD198R,0.0492X0.0001*%
%ADD199R,0.0294X0.0001*%
%ADD200R,0.0495X0.0001*%
%ADD201R,0.0299X0.0001*%
%ADD202R,0.0496X0.0001*%
%ADD203R,0.0127X0.0001*%
%ADD204R,0.0301X0.0001*%
%ADD205R,0.0498X0.0001*%
%ADD206R,0.0304X0.0001*%
%ADD207R,0.0501X0.0001*%
%ADD208R,0.0134X0.0001*%
%ADD209R,0.0308X0.0001*%
%ADD210R,0.0135X0.0001*%
%ADD211R,0.0311X0.0001*%
%ADD212R,0.0504X0.0001*%
%ADD213R,0.0138X0.0001*%
%ADD214R,0.0504X0.0002*%
%ADD215R,0.0141X0.0002*%
%ADD216R,0.0318X0.0002*%
%ADD217R,0.0507X0.0001*%
%ADD218R,0.0323X0.0001*%
%ADD219R,0.0326X0.0001*%
%ADD220R,0.0508X0.0001*%
%ADD221R,0.0152X0.0001*%
%ADD222R,0.0330X0.0001*%
%ADD223R,0.0510X0.0001*%
%ADD224R,0.0494X0.0001*%
%ADD225R,0.0512X0.0001*%
%ADD226R,0.0500X0.0001*%
%ADD227R,0.0513X0.0001*%
%ADD228R,0.0501X0.0001*%
%ADD229R,0.0513X0.0002*%
%ADD230R,0.0501X0.0002*%
%ADD231R,0.0503X0.0001*%
%ADD232R,0.0504X0.0001*%
%ADD233R,0.0506X0.0001*%
%ADD234R,0.0513X0.0001*%
%ADD235R,0.0509X0.0001*%
%ADD236R,0.0511X0.0001*%
%ADD237R,0.0514X0.0001*%
%ADD238R,0.0516X0.0001*%
%ADD239R,0.0513X0.0002*%
%ADD240R,0.0519X0.0002*%
%ADD241R,0.0519X0.0001*%
%ADD242R,0.0520X0.0001*%
%ADD243R,0.0522X0.0001*%
%ADD244R,0.0507X0.0001*%
%ADD245R,0.0509X0.0002*%
%ADD246R,0.0520X0.0002*%
%ADD247R,0.0522X0.0001*%
%ADD248R,0.0505X0.0001*%
%ADD249R,0.0502X0.0001*%
%ADD250R,0.0521X0.0001*%
%ADD251R,0.0503X0.0002*%
%ADD252R,0.0519X0.0002*%
%ADD253R,0.0519X0.0001*%
%ADD254R,0.0499X0.0001*%
%ADD255R,0.0517X0.0001*%
%ADD256R,0.0495X0.0002*%
%ADD257R,0.0514X0.0002*%
%ADD258R,0.0515X0.0001*%
%ADD259R,0.0492X0.0001*%
%ADD260R,0.0490X0.0001*%
%ADD261R,0.0490X0.0002*%
%ADD262R,0.0511X0.0002*%
%ADD263R,0.0489X0.0001*%
%ADD264R,0.0489X0.0001*%
%ADD265R,0.0488X0.0001*%
%ADD266R,0.0485X0.0001*%
%ADD267R,0.0483X0.0001*%
%ADD268R,0.0483X0.0002*%
%ADD269R,0.0507X0.0002*%
%ADD270R,0.0483X0.0001*%
%ADD271R,0.0481X0.0001*%
%ADD272R,0.0480X0.0001*%
%ADD273R,0.0480X0.0002*%
%ADD274R,0.0501X0.0002*%
%ADD275R,0.0479X0.0001*%
%ADD276R,0.0477X0.0001*%
%ADD277R,0.0477X0.0001*%
%ADD278R,0.0475X0.0001*%
%ADD279R,0.0474X0.0001*%
%ADD280R,0.0472X0.0001*%
%ADD281R,0.0472X0.0002*%
%ADD282R,0.0498X0.0002*%
%ADD283R,0.0471X0.0001*%
%ADD284R,0.0473X0.0001*%
%ADD285R,0.0471X0.0001*%
%ADD286R,0.0470X0.0001*%
%ADD287R,0.0468X0.0001*%
%ADD288R,0.0469X0.0001*%
%ADD289R,0.0468X0.0002*%
%ADD290R,0.0491X0.0002*%
%ADD291R,0.0466X0.0001*%
%ADD292R,0.0465X0.0001*%
%ADD293R,0.0464X0.0001*%
%ADD294R,0.0462X0.0001*%
%ADD295R,0.0462X0.0002*%
%ADD296R,0.0489X0.0002*%
%ADD297R,0.0461X0.0001*%
%ADD298R,0.0460X0.0001*%
%ADD299R,0.0459X0.0001*%
%ADD300R,0.0484X0.0001*%
%ADD301R,0.0457X0.0001*%
%ADD302R,0.0459X0.0001*%
%ADD303R,0.0458X0.0002*%
%ADD304R,0.0484X0.0002*%
%ADD305R,0.0456X0.0001*%
%ADD306R,0.0455X0.0001*%
%ADD307R,0.0453X0.0001*%
%ADD308R,0.0451X0.0001*%
%ADD309R,0.0453X0.0001*%
%ADD310R,0.0450X0.0001*%
%ADD311R,0.0451X0.0002*%
%ADD312R,0.0478X0.0001*%
%ADD313R,0.0449X0.0001*%
%ADD314R,0.0476X0.0001*%
%ADD315R,0.0447X0.0001*%
%ADD316R,0.0474X0.0001*%
%ADD317R,0.0449X0.0002*%
%ADD318R,0.0476X0.0002*%
%ADD319R,0.0454X0.0001*%
%ADD320R,0.0469X0.0002*%
%ADD321R,0.0468X0.0001*%
%ADD322R,0.0467X0.0001*%
%ADD323R,0.0473X0.0002*%
%ADD324R,0.0468X0.0002*%
%ADD325R,0.0486X0.0002*%
%ADD326R,0.0474X0.0002*%
%ADD327R,0.0487X0.0001*%
%ADD328R,0.0497X0.0001*%
%ADD329R,0.0486X0.0001*%
%ADD330R,0.0500X0.0002*%
%ADD331R,0.0487X0.0002*%
%ADD332R,0.0498X0.0001*%
%ADD333R,0.0524X0.0002*%
%ADD334R,0.0524X0.0001*%
%ADD335R,0.0525X0.0001*%
%ADD336R,0.0528X0.0001*%
%ADD337R,0.0529X0.0001*%
%ADD338R,0.0533X0.0001*%
%ADD339R,0.0534X0.0001*%
%ADD340R,0.0523X0.0001*%
%ADD341R,0.0536X0.0001*%
%ADD342R,0.0537X0.0002*%
%ADD343R,0.0527X0.0002*%
%ADD344R,0.0537X0.0001*%
%ADD345R,0.0528X0.0001*%
%ADD346R,0.0539X0.0001*%
%ADD347R,0.0530X0.0001*%
%ADD348R,0.0540X0.0001*%
%ADD349R,0.0541X0.0001*%
%ADD350R,0.0531X0.0001*%
%ADD351R,0.0543X0.0001*%
%ADD352R,0.0544X0.0001*%
%ADD353R,0.0546X0.0002*%
%ADD354R,0.0536X0.0002*%
%ADD355R,0.0547X0.0001*%
%ADD356R,0.0551X0.0001*%
%ADD357R,0.0552X0.0001*%
%ADD358R,0.0554X0.0001*%
%ADD359R,0.0555X0.0001*%
%ADD360R,0.0555X0.0002*%
%ADD361R,0.0547X0.0002*%
%ADD362R,0.0549X0.0001*%
%ADD363R,0.0548X0.0001*%
%ADD364R,0.0538X0.0001*%
%ADD365R,0.0537X0.0001*%
%ADD366R,0.0533X0.0002*%
%ADD367R,0.0531X0.0001*%
%ADD368R,0.0526X0.0001*%
%ADD369R,0.0518X0.0001*%
%ADD370R,0.0498X0.0002*%
%ADD371R,0.0496X0.0002*%
%ADD372R,0.0486X0.0001*%
%ADD373R,0.0485X0.0002*%
%ADD374R,0.0482X0.0001*%
%ADD375R,0.0477X0.0002*%
%ADD376R,0.0530X0.0002*%
%ADD377R,0.0464X0.0002*%
%ADD378R,0.0561X0.0001*%
%ADD379R,0.0570X0.0001*%
%ADD380R,0.0576X0.0001*%
%ADD381R,0.0581X0.0001*%
%ADD382R,0.0585X0.0001*%
%ADD383R,0.0589X0.0001*%
%ADD384R,0.0600X0.0002*%
%ADD385R,0.0614X0.0001*%
%ADD386R,0.0623X0.0001*%
%ADD387R,0.0630X0.0001*%
%ADD388R,0.0633X0.0001*%
%ADD389R,0.0638X0.0001*%
%ADD390R,0.0645X0.0001*%
%ADD391R,0.0657X0.0001*%
%ADD392R,0.0556X0.0001*%
%ADD393R,0.0669X0.0001*%
%ADD394R,0.0674X0.0001*%
%ADD395R,0.0579X0.0001*%
%ADD396R,0.0676X0.0002*%
%ADD397R,0.0585X0.0002*%
%ADD398R,0.0678X0.0001*%
%ADD399R,0.0590X0.0001*%
%ADD400R,0.0679X0.0001*%
%ADD401R,0.0596X0.0001*%
%ADD402R,0.0681X0.0001*%
%ADD403R,0.0606X0.0001*%
%ADD404R,0.0620X0.0001*%
%ADD405R,0.0682X0.0001*%
%ADD406R,0.0633X0.0001*%
%ADD407R,0.0684X0.0001*%
%ADD408R,0.0639X0.0001*%
%ADD409R,0.0649X0.0001*%
%ADD410R,0.0684X0.0001*%
%ADD411R,0.0655X0.0001*%
%ADD412R,0.0683X0.0002*%
%ADD413R,0.0664X0.0002*%
%ADD414R,0.0683X0.0001*%
%ADD415R,0.0670X0.0001*%
%ADD416R,0.0671X0.0001*%
%ADD417R,0.0681X0.0001*%
%ADD418R,0.0672X0.0001*%
%ADD419R,0.0680X0.0001*%
%ADD420R,0.0675X0.0001*%
%ADD421R,0.0676X0.0001*%
%ADD422R,0.0680X0.0002*%
%ADD423R,0.0678X0.0002*%
%ADD424R,0.0678X0.0001*%
%ADD425R,0.0675X0.0002*%
%ADD426R,0.0672X0.0002*%
%ADD427R,0.0672X0.0001*%
%ADD428R,0.0671X0.0002*%
%ADD429R,0.0670X0.0002*%
%ADD430R,0.0669X0.0001*%
%ADD431R,0.0667X0.0001*%
%ADD432R,0.0669X0.0002*%
%ADD433R,0.0667X0.0002*%
%ADD434R,0.0668X0.0001*%
%ADD435R,0.0666X0.0001*%
%ADD436R,0.0668X0.0002*%
%ADD437R,0.0666X0.0002*%
%ADD438R,0.0666X0.0001*%
%ADD439R,0.0664X0.0001*%
%ADD440R,0.0663X0.0001*%
%ADD441R,0.0666X0.0002*%
%ADD442R,0.0663X0.0002*%
%ADD443R,0.0665X0.0001*%
%ADD444R,0.0674X0.0002*%
%ADD445R,0.0677X0.0001*%
%ADD446R,0.0678X0.0002*%
%ADD447R,0.0682X0.0002*%
%ADD448R,0.0686X0.0001*%
%ADD449R,0.0686X0.0002*%
%ADD450R,0.0687X0.0001*%
%ADD451R,0.0689X0.0001*%
%ADD452R,0.0653X0.0001*%
%ADD453R,0.0641X0.0001*%
%ADD454R,0.0626X0.0001*%
%ADD455R,0.0616X0.0001*%
%ADD456R,0.0687X0.0001*%
%ADD457R,0.0612X0.0001*%
%ADD458R,0.0688X0.0001*%
%ADD459R,0.0606X0.0001*%
%ADD460R,0.0601X0.0001*%
%ADD461R,0.0591X0.0002*%
%ADD462R,0.0567X0.0001*%
%ADD463R,0.0560X0.0001*%
%ADD464R,0.0659X0.0001*%
%ADD465R,0.0516X0.0001*%
%ADD466R,0.0639X0.0001*%
%ADD467R,0.0502X0.0002*%
%ADD468R,0.0633X0.0002*%
%ADD469R,0.0608X0.0001*%
%ADD470R,0.0582X0.0001*%
%ADD471R,0.0577X0.0001*%
%ADD472R,0.0569X0.0002*%
%ADD473R,0.0546X0.0001*%
%ADD474R,0.0486X0.0002*%
%ADD475R,0.0493X0.0001*%
%ADD476R,0.0516X0.0002*%
%ADD477R,0.0532X0.0001*%
%ADD478R,0.0534X0.0002*%
%ADD479R,0.0535X0.0002*%
%ADD480R,0.0543X0.0001*%
%ADD481R,0.0553X0.0001*%
%ADD482R,0.0559X0.0001*%
%ADD483R,0.0564X0.0001*%
%ADD484R,0.0564X0.0001*%
%ADD485R,0.0567X0.0001*%
%ADD486R,0.0569X0.0001*%
%ADD487R,0.0570X0.0002*%
%ADD488R,0.0571X0.0002*%
%ADD489R,0.0571X0.0001*%
%ADD490R,0.0573X0.0001*%
%ADD491R,0.0574X0.0001*%
%ADD492R,0.0576X0.0001*%
%ADD493R,0.0600X0.0001*%
%ADD494R,0.0611X0.0001*%
%ADD495R,0.0618X0.0001*%
%ADD496R,0.0621X0.0001*%
%ADD497R,0.1269X0.0001*%
%ADD498R,0.1267X0.0001*%
%ADD499R,0.1266X0.0001*%
%ADD500R,0.1266X0.0002*%
%ADD501R,0.1264X0.0001*%
%ADD502R,0.1261X0.0001*%
%ADD503R,0.1260X0.0001*%
%ADD504R,0.1259X0.0001*%
%ADD505R,0.1256X0.0001*%
%ADD506R,0.1254X0.0001*%
%ADD507R,0.1253X0.0001*%
%ADD508R,0.1251X0.0001*%
%ADD509R,0.1251X0.0002*%
%ADD510R,0.1248X0.0001*%
%ADD511R,0.1245X0.0001*%
%ADD512R,0.1244X0.0001*%
%ADD513R,0.1242X0.0001*%
%ADD514R,0.1239X0.0001*%
%ADD515R,0.1237X0.0001*%
%ADD516R,0.1236X0.0002*%
%ADD517R,0.1233X0.0001*%
%ADD518R,0.1230X0.0001*%
%ADD519R,0.1229X0.0001*%
%ADD520R,0.1227X0.0001*%
%ADD521R,0.1226X0.0001*%
%ADD522R,0.1224X0.0001*%
%ADD523R,0.1223X0.0002*%
%ADD524R,0.1219X0.0001*%
%ADD525R,0.1216X0.0001*%
%ADD526R,0.1215X0.0001*%
%ADD527R,0.1214X0.0001*%
%ADD528R,0.1212X0.0001*%
%ADD529R,0.1209X0.0001*%
%ADD530R,0.1207X0.0002*%
%ADD531R,0.1206X0.0001*%
%ADD532R,0.1204X0.0001*%
%ADD533R,0.1201X0.0001*%
%ADD534R,0.1200X0.0001*%
%ADD535R,0.1199X0.0001*%
%ADD536R,0.1196X0.0001*%
%ADD537R,0.1194X0.0001*%
%ADD538R,0.1193X0.0001*%
%ADD539R,0.1191X0.0001*%
%ADD540R,0.1191X0.0002*%
%ADD541R,0.1188X0.0001*%
%ADD542R,0.1185X0.0001*%
%ADD543R,0.1184X0.0001*%
%ADD544R,0.1181X0.0001*%
%ADD545R,0.1177X0.0001*%
%ADD546R,0.1176X0.0001*%
%ADD547R,0.1174X0.0001*%
%ADD548R,0.1173X0.0001*%
%ADD549R,0.1170X0.0002*%
%ADD550R,0.1170X0.0001*%
%ADD551R,0.1169X0.0001*%
%ADD552R,0.1166X0.0001*%
%ADD553R,0.1164X0.0001*%
%ADD554R,0.1163X0.0001*%
%ADD555R,0.1163X0.0002*%
%ADD556R,0.1167X0.0001*%
%ADD557R,0.1171X0.0001*%
%ADD558R,0.1179X0.0001*%
%ADD559R,0.1182X0.0001*%
%ADD560R,0.1182X0.0002*%
%ADD561R,0.1188X0.0001*%
%ADD562R,0.1190X0.0001*%
%ADD563R,0.1197X0.0001*%
%ADD564R,0.1204X0.0002*%
%ADD565R,0.1207X0.0001*%
%ADD566R,0.1210X0.0001*%
%ADD567R,0.1213X0.0001*%
%ADD568R,0.1217X0.0001*%
%ADD569R,0.1218X0.0001*%
%ADD570R,0.1220X0.0001*%
%ADD571R,0.1221X0.0001*%
%ADD572R,0.1223X0.0001*%
%ADD573R,0.1226X0.0002*%
%ADD574R,0.1236X0.0001*%
%ADD575R,0.1239X0.0001*%
%ADD576R,0.1240X0.0001*%
%ADD577R,0.1243X0.0001*%
%ADD578R,0.1248X0.0002*%
%ADD579R,0.1248X0.0001*%
%ADD580R,0.1251X0.0001*%
%ADD581R,0.1257X0.0001*%
%ADD582R,0.1263X0.0001*%
%ADD583R,0.1267X0.0002*%
%ADD584R,0.1270X0.0001*%
%ADD585R,0.1274X0.0001*%
%ADD586R,0.1275X0.0001*%
%ADD587R,0.1278X0.0001*%
%ADD588R,0.1280X0.0001*%
%ADD589R,0.1281X0.0001*%
%ADD590R,0.1284X0.0001*%
%ADD591R,0.1286X0.0001*%
%ADD592R,0.1289X0.0001*%
%ADD593R,0.1290X0.0002*%
%ADD594R,0.1291X0.0001*%
%ADD595R,0.1294X0.0001*%
%ADD596R,0.1296X0.0001*%
%ADD597R,0.1299X0.0001*%
%ADD598R,0.1300X0.0001*%
%ADD599R,0.1302X0.0001*%
%ADD600R,0.1304X0.0001*%
%ADD601R,0.1306X0.0001*%
%ADD602R,0.1308X0.0001*%
%ADD603R,0.1311X0.0002*%
%ADD604R,0.1313X0.0001*%
%ADD605R,0.1316X0.0001*%
%ADD606R,0.1317X0.0001*%
%ADD607R,0.1320X0.0001*%
%ADD608R,0.1323X0.0001*%
%ADD609R,0.1326X0.0001*%
%ADD610R,0.1329X0.0001*%
%ADD611R,0.1332X0.0002*%
%ADD612R,0.1335X0.0001*%
%ADD613R,0.1336X0.0001*%
%ADD614R,0.1340X0.0001*%
%ADD615R,0.1343X0.0001*%
%ADD616R,0.1346X0.0001*%
%ADD617R,0.1347X0.0001*%
%ADD618R,0.1350X0.0001*%
%ADD619R,0.1353X0.0002*%
%ADD620R,0.1356X0.0001*%
%ADD621R,0.1357X0.0001*%
%ADD622R,0.1360X0.0001*%
%ADD623R,0.1364X0.0001*%
%ADD624R,0.1365X0.0001*%
%ADD625R,0.1368X0.0001*%
%ADD626R,0.1369X0.0001*%
%ADD627R,0.1373X0.0001*%
%ADD628R,0.1374X0.0002*%
%ADD629R,0.1377X0.0001*%
%ADD630R,0.1379X0.0001*%
%ADD631R,0.1380X0.0001*%
%ADD632R,0.1383X0.0001*%
%ADD633R,0.1386X0.0001*%
%ADD634R,0.1387X0.0001*%
%ADD635R,0.1391X0.0001*%
%ADD636R,0.1394X0.0001*%
%ADD637R,0.1395X0.0002*%
%ADD638R,0.1398X0.0001*%
%ADD639R,0.1401X0.0001*%
%ADD640R,0.1403X0.0001*%
%ADD641R,0.1406X0.0001*%
%ADD642R,0.1407X0.0001*%
%ADD643R,0.1409X0.0001*%
%ADD644R,0.1411X0.0001*%
%ADD645R,0.1414X0.0001*%
%ADD646R,0.1416X0.0002*%
%ADD647R,0.1419X0.0001*%
%ADD648R,0.1421X0.0001*%
%ADD649R,0.1422X0.0001*%
%ADD650R,0.1424X0.0001*%
%ADD651R,0.1426X0.0001*%
%ADD652R,0.1428X0.0001*%
%ADD653R,0.1429X0.0002*%
%ADD654R,0.1429X0.0001*%
%ADD655R,0.1425X0.0001*%
%ADD656R,0.1421X0.0002*%
%ADD657R,0.1418X0.0001*%
%ADD658R,0.1416X0.0001*%
%ADD659R,0.1413X0.0001*%
%ADD660R,0.1410X0.0001*%
%ADD661R,0.1404X0.0001*%
%ADD662R,0.1401X0.0001*%
%ADD663R,0.0346X0.0001*%
%ADD664R,0.1044X0.0001*%
%ADD665R,0.0342X0.0002*%
%ADD666R,0.1040X0.0002*%
%ADD667R,0.0337X0.0001*%
%ADD668R,0.1034X0.0001*%
%ADD669R,0.0357X0.0001*%
%ADD670R,0.0660X0.0001*%
%ADD671R,0.0353X0.0001*%
%ADD672R,0.0327X0.0001*%
%ADD673R,0.0349X0.0001*%
%ADD674R,0.0321X0.0001*%
%ADD675R,0.0648X0.0001*%
%ADD676R,0.0344X0.0001*%
%ADD677R,0.0317X0.0001*%
%ADD678R,0.0339X0.0001*%
%ADD679R,0.0312X0.0001*%
%ADD680R,0.0631X0.0001*%
%ADD681R,0.0334X0.0001*%
%ADD682R,0.0309X0.0001*%
%ADD683R,0.0307X0.0002*%
%ADD684R,0.0623X0.0002*%
%ADD685R,0.0327X0.0002*%
%ADD686R,0.0618X0.0001*%
%ADD687R,0.0297X0.0001*%
%ADD688R,0.0607X0.0001*%
%ADD689R,0.0320X0.0001*%
%ADD690R,0.0293X0.0001*%
%ADD691R,0.0599X0.0001*%
%ADD692R,0.0313X0.0001*%
%ADD693R,0.0285X0.0001*%
%ADD694R,0.0584X0.0001*%
%ADD695R,0.0303X0.0001*%
%ADD696R,0.0281X0.0001*%
%ADD697R,0.0273X0.0002*%
%ADD698R,0.0563X0.0002*%
%ADD699R,0.0293X0.0002*%
%ADD700R,0.0264X0.0001*%
%ADD701R,0.0259X0.0001*%
%ADD702R,0.0256X0.0001*%
%ADD703R,0.0276X0.0001*%
%ADD704R,0.0252X0.0001*%
%ADD705R,0.0273X0.0001*%
%ADD706R,0.0248X0.0001*%
%ADD707R,0.0269X0.0001*%
%ADD708R,0.0245X0.0001*%
%ADD709R,0.0240X0.0001*%
%ADD710R,0.0237X0.0002*%
%ADD711R,0.0256X0.0002*%
%ADD712R,0.0234X0.0001*%
%ADD713R,0.0232X0.0001*%
%ADD714R,0.0251X0.0001*%
%ADD715R,0.0228X0.0001*%
%ADD716R,0.0246X0.0001*%
%ADD717R,0.0456X0.0001*%
%ADD718R,0.0219X0.0001*%
%ADD719R,0.0444X0.0001*%
%ADD720R,0.0237X0.0001*%
%ADD721R,0.0214X0.0001*%
%ADD722R,0.0436X0.0001*%
%ADD723R,0.0432X0.0001*%
%ADD724R,0.0231X0.0001*%
%ADD725R,0.0210X0.0001*%
%ADD726R,0.0426X0.0001*%
%ADD727R,0.0420X0.0001*%
%ADD728R,0.0226X0.0001*%
%ADD729R,0.0204X0.0002*%
%ADD730R,0.0409X0.0002*%
%ADD731R,0.0222X0.0002*%
%ADD732R,0.0391X0.0001*%
%ADD733R,0.0217X0.0001*%
%ADD734R,0.0376X0.0001*%
%ADD735R,0.0368X0.0001*%
%ADD736R,0.0189X0.0001*%
%ADD737R,0.0361X0.0001*%
%ADD738R,0.0206X0.0001*%
%ADD739R,0.0186X0.0001*%
%ADD740R,0.0356X0.0001*%
%ADD741R,0.0181X0.0001*%
%ADD742R,0.0345X0.0001*%
%ADD743R,0.0173X0.0001*%
%ADD744R,0.0331X0.0001*%
%ADD745R,0.0190X0.0001*%
%ADD746R,0.0168X0.0001*%
%ADD747R,0.0165X0.0002*%
%ADD748R,0.0162X0.0001*%
%ADD749R,0.0159X0.0001*%
%ADD750R,0.0177X0.0001*%
%ADD751R,0.0156X0.0001*%
%ADD752R,0.0324X0.0001*%
%ADD753R,0.0174X0.0001*%
%ADD754R,0.0167X0.0001*%
%ADD755R,0.0146X0.0001*%
%ADD756R,0.0163X0.0001*%
%ADD757R,0.0141X0.0001*%
%ADD758R,0.0140X0.0001*%
%ADD759R,0.0137X0.0001*%
%ADD760R,0.0133X0.0001*%
%ADD761R,0.0129X0.0002*%
%ADD762R,0.0321X0.0002*%
%ADD763R,0.0146X0.0002*%
%ADD764R,0.0119X0.0001*%
%ADD765R,0.0129X0.0001*%
%ADD766R,0.0111X0.0001*%
%ADD767R,0.0126X0.0001*%
%ADD768R,0.0318X0.0001*%
%ADD769R,0.0097X0.0001*%
%ADD770R,0.0315X0.0001*%
%ADD771R,0.0089X0.0002*%
%ADD772R,0.0315X0.0002*%
%ADD773R,0.0105X0.0002*%
%ADD774R,0.0079X0.0001*%
%ADD775R,0.0089X0.0001*%
%ADD776R,0.0069X0.0001*%
%ADD777R,0.0084X0.0001*%
%ADD778R,0.0057X0.0001*%
%ADD779R,0.0052X0.0002*%
%ADD780R,0.0311X0.0002*%
%ADD781R,0.0066X0.0002*%
%ADD782R,0.0061X0.0001*%
%ADD783R,0.0042X0.0001*%
%ADD784R,0.0055X0.0001*%
%ADD785R,0.0039X0.0001*%
%ADD786R,0.0052X0.0001*%
%ADD787R,0.0036X0.0001*%
%ADD788R,0.0049X0.0001*%
%ADD789R,0.0307X0.0001*%
%ADD790R,0.0045X0.0001*%
%ADD791R,0.0022X0.0001*%
%ADD792R,0.0035X0.0001*%
%ADD793R,0.0025X0.0002*%
%ADD794R,0.0306X0.0001*%
%ADD795R,0.0018X0.0001*%
%ADD796R,0.0008X0.0001*%
%ADD797R,0.0300X0.0002*%
%ADD798R,0.0296X0.0001*%
%ADD799R,0.0294X0.0002*%
%ADD800R,0.0294X0.0001*%
%ADD801R,0.0291X0.0001*%
%ADD802R,0.0291X0.0002*%
%ADD803R,0.0286X0.0001*%
%ADD804R,0.0281X0.0002*%
%ADD805R,0.0277X0.0001*%
%ADD806R,0.0276X0.0001*%
%ADD807R,0.0266X0.0002*%
%ADD808R,0.0264X0.0001*%
%ADD809R,0.0261X0.0001*%
%ADD810R,0.0259X0.0002*%
%ADD811R,0.0254X0.0002*%
%ADD812R,0.0248X0.0002*%
%ADD813R,0.0218X0.0002*%
%ADD814R,0.0157X0.0001*%
%ADD815C,0.0040*%
%ADD816C,0.0060*%
%ADD817C,0.0080*%
%ADD818C,0.0030*%
%ADD819R,0.2303X0.0200*%
%ADD820C,0.0020*%
%ADD821R,0.0079X0.0551*%
%ADD822R,0.0760X0.0320*%
%ADD823C,0.0100*%
%ADD824C,0.0000*%
%ADD825R,0.0551X0.0079*%
%ADD826C,0.0160*%
D10*
X002806Y002881D02*
X002806Y032803D01*
X035877Y032803D01*
X035877Y002881D01*
X002806Y002881D01*
D11*
X006887Y006584D02*
X006887Y007212D01*
X006966Y007212D01*
X006966Y008000D01*
X006887Y008000D01*
X006887Y008728D01*
X008962Y008728D01*
X008962Y008000D01*
X008883Y008000D01*
X008883Y007212D01*
X008962Y007212D01*
X008962Y006584D01*
X008121Y006584D01*
X008121Y006485D01*
X007728Y006485D01*
X007728Y006584D01*
X006887Y006584D01*
X006887Y007212D02*
X006808Y007212D01*
X006808Y008000D01*
X006887Y008000D01*
X007452Y007606D02*
X007454Y007649D01*
X007460Y007691D01*
X007470Y007733D01*
X007483Y007774D01*
X007500Y007814D01*
X007521Y007851D01*
X007545Y007887D01*
X007572Y007920D01*
X007602Y007951D01*
X007635Y007979D01*
X007670Y008004D01*
X007707Y008025D01*
X007746Y008043D01*
X007786Y008057D01*
X007828Y008068D01*
X007870Y008075D01*
X007913Y008078D01*
X007956Y008077D01*
X007999Y008072D01*
X008041Y008063D01*
X008082Y008051D01*
X008122Y008035D01*
X008160Y008015D01*
X008196Y007992D01*
X008230Y007965D01*
X008262Y007936D01*
X008290Y007904D01*
X008316Y007869D01*
X008338Y007833D01*
X008357Y007794D01*
X008372Y007754D01*
X008384Y007713D01*
X008392Y007670D01*
X008396Y007627D01*
X008396Y007585D01*
X008392Y007542D01*
X008384Y007499D01*
X008372Y007458D01*
X008357Y007418D01*
X008338Y007379D01*
X008316Y007343D01*
X008290Y007308D01*
X008262Y007276D01*
X008230Y007247D01*
X008196Y007220D01*
X008160Y007197D01*
X008122Y007177D01*
X008082Y007161D01*
X008041Y007149D01*
X007999Y007140D01*
X007956Y007135D01*
X007913Y007134D01*
X007870Y007137D01*
X007828Y007144D01*
X007786Y007155D01*
X007746Y007169D01*
X007707Y007187D01*
X007670Y007208D01*
X007635Y007233D01*
X007602Y007261D01*
X007572Y007292D01*
X007545Y007325D01*
X007521Y007361D01*
X007500Y007398D01*
X007483Y007438D01*
X007470Y007479D01*
X007460Y007521D01*
X007454Y007563D01*
X007452Y007606D01*
X007333Y007606D02*
X007335Y007654D01*
X007341Y007702D01*
X007351Y007749D01*
X007364Y007795D01*
X007382Y007840D01*
X007402Y007884D01*
X007427Y007926D01*
X007455Y007965D01*
X007485Y008002D01*
X007519Y008036D01*
X007556Y008068D01*
X007594Y008097D01*
X007635Y008122D01*
X007678Y008144D01*
X007723Y008162D01*
X007769Y008176D01*
X007816Y008187D01*
X007864Y008194D01*
X007912Y008197D01*
X007960Y008196D01*
X008008Y008191D01*
X008056Y008182D01*
X008102Y008170D01*
X008147Y008153D01*
X008191Y008133D01*
X008233Y008110D01*
X008273Y008083D01*
X008311Y008053D01*
X008346Y008020D01*
X008378Y007984D01*
X008408Y007946D01*
X008434Y007905D01*
X008456Y007862D01*
X008476Y007818D01*
X008491Y007773D01*
X008503Y007726D01*
X008511Y007678D01*
X008515Y007630D01*
X008515Y007582D01*
X008511Y007534D01*
X008503Y007486D01*
X008491Y007439D01*
X008476Y007394D01*
X008456Y007350D01*
X008434Y007307D01*
X008408Y007266D01*
X008378Y007228D01*
X008346Y007192D01*
X008311Y007159D01*
X008273Y007129D01*
X008233Y007102D01*
X008191Y007079D01*
X008147Y007059D01*
X008102Y007042D01*
X008056Y007030D01*
X008008Y007021D01*
X007960Y007016D01*
X007912Y007015D01*
X007864Y007018D01*
X007816Y007025D01*
X007769Y007036D01*
X007723Y007050D01*
X007678Y007068D01*
X007635Y007090D01*
X007594Y007115D01*
X007556Y007144D01*
X007519Y007176D01*
X007485Y007210D01*
X007455Y007247D01*
X007427Y007286D01*
X007402Y007328D01*
X007382Y007372D01*
X007364Y007417D01*
X007351Y007463D01*
X007341Y007510D01*
X007335Y007558D01*
X007333Y007606D01*
X008962Y008000D02*
X009041Y008000D01*
X009041Y007212D01*
X008962Y007212D01*
X009156Y007457D02*
X009231Y007382D01*
X009381Y007382D01*
X009457Y007457D01*
X009617Y007382D02*
X009917Y007382D01*
X009767Y007382D02*
X009767Y007833D01*
X009617Y007683D01*
X009457Y007758D02*
X009381Y007833D01*
X009231Y007833D01*
X009156Y007758D01*
X009156Y007457D01*
X010077Y007457D02*
X010152Y007382D01*
X010302Y007382D01*
X010377Y007457D01*
X010377Y007607D01*
X010302Y007683D01*
X010227Y007683D01*
X010077Y007607D01*
X010077Y007833D01*
X010377Y007833D01*
X010745Y008000D02*
X010745Y007212D01*
X010824Y007212D01*
X010824Y006584D01*
X011665Y006584D01*
X011665Y006485D01*
X012058Y006485D01*
X012058Y006584D01*
X012899Y006584D01*
X012899Y007212D01*
X012978Y007212D01*
X012978Y008000D01*
X012899Y008000D01*
X012899Y008728D01*
X010824Y008728D01*
X010824Y008000D01*
X010745Y008000D01*
X010824Y008000D02*
X010903Y008000D01*
X010903Y007212D01*
X010824Y007212D01*
X011389Y007606D02*
X011391Y007649D01*
X011397Y007691D01*
X011407Y007733D01*
X011420Y007774D01*
X011437Y007814D01*
X011458Y007851D01*
X011482Y007887D01*
X011509Y007920D01*
X011539Y007951D01*
X011572Y007979D01*
X011607Y008004D01*
X011644Y008025D01*
X011683Y008043D01*
X011723Y008057D01*
X011765Y008068D01*
X011807Y008075D01*
X011850Y008078D01*
X011893Y008077D01*
X011936Y008072D01*
X011978Y008063D01*
X012019Y008051D01*
X012059Y008035D01*
X012097Y008015D01*
X012133Y007992D01*
X012167Y007965D01*
X012199Y007936D01*
X012227Y007904D01*
X012253Y007869D01*
X012275Y007833D01*
X012294Y007794D01*
X012309Y007754D01*
X012321Y007713D01*
X012329Y007670D01*
X012333Y007627D01*
X012333Y007585D01*
X012329Y007542D01*
X012321Y007499D01*
X012309Y007458D01*
X012294Y007418D01*
X012275Y007379D01*
X012253Y007343D01*
X012227Y007308D01*
X012199Y007276D01*
X012167Y007247D01*
X012133Y007220D01*
X012097Y007197D01*
X012059Y007177D01*
X012019Y007161D01*
X011978Y007149D01*
X011936Y007140D01*
X011893Y007135D01*
X011850Y007134D01*
X011807Y007137D01*
X011765Y007144D01*
X011723Y007155D01*
X011683Y007169D01*
X011644Y007187D01*
X011607Y007208D01*
X011572Y007233D01*
X011539Y007261D01*
X011509Y007292D01*
X011482Y007325D01*
X011458Y007361D01*
X011437Y007398D01*
X011420Y007438D01*
X011407Y007479D01*
X011397Y007521D01*
X011391Y007563D01*
X011389Y007606D01*
X011270Y007606D02*
X011272Y007654D01*
X011278Y007702D01*
X011288Y007749D01*
X011301Y007795D01*
X011319Y007840D01*
X011339Y007884D01*
X011364Y007926D01*
X011392Y007965D01*
X011422Y008002D01*
X011456Y008036D01*
X011493Y008068D01*
X011531Y008097D01*
X011572Y008122D01*
X011615Y008144D01*
X011660Y008162D01*
X011706Y008176D01*
X011753Y008187D01*
X011801Y008194D01*
X011849Y008197D01*
X011897Y008196D01*
X011945Y008191D01*
X011993Y008182D01*
X012039Y008170D01*
X012084Y008153D01*
X012128Y008133D01*
X012170Y008110D01*
X012210Y008083D01*
X012248Y008053D01*
X012283Y008020D01*
X012315Y007984D01*
X012345Y007946D01*
X012371Y007905D01*
X012393Y007862D01*
X012413Y007818D01*
X012428Y007773D01*
X012440Y007726D01*
X012448Y007678D01*
X012452Y007630D01*
X012452Y007582D01*
X012448Y007534D01*
X012440Y007486D01*
X012428Y007439D01*
X012413Y007394D01*
X012393Y007350D01*
X012371Y007307D01*
X012345Y007266D01*
X012315Y007228D01*
X012283Y007192D01*
X012248Y007159D01*
X012210Y007129D01*
X012170Y007102D01*
X012128Y007079D01*
X012084Y007059D01*
X012039Y007042D01*
X011993Y007030D01*
X011945Y007021D01*
X011897Y007016D01*
X011849Y007015D01*
X011801Y007018D01*
X011753Y007025D01*
X011706Y007036D01*
X011660Y007050D01*
X011615Y007068D01*
X011572Y007090D01*
X011531Y007115D01*
X011493Y007144D01*
X011456Y007176D01*
X011422Y007210D01*
X011392Y007247D01*
X011364Y007286D01*
X011339Y007328D01*
X011319Y007372D01*
X011301Y007417D01*
X011288Y007463D01*
X011278Y007510D01*
X011272Y007558D01*
X011270Y007606D01*
X012820Y008000D02*
X012820Y007212D01*
X012899Y007212D01*
X012899Y008000D02*
X012820Y008000D01*
X013381Y008407D02*
X013456Y008332D01*
X013606Y008332D01*
X013682Y008407D01*
X013682Y008482D01*
X013606Y008557D01*
X013456Y008557D01*
X013381Y008633D01*
X013381Y008708D01*
X013456Y008783D01*
X013606Y008783D01*
X013682Y008708D01*
X013842Y008783D02*
X013842Y008332D01*
X013842Y008482D02*
X014067Y008482D01*
X014142Y008557D01*
X014142Y008708D01*
X014067Y008783D01*
X013842Y008783D01*
X014302Y008633D02*
X014452Y008783D01*
X014452Y008332D01*
X014302Y008332D02*
X014602Y008332D01*
X014202Y005358D02*
X014052Y005283D01*
X013902Y005132D01*
X014127Y005132D01*
X014202Y005057D01*
X014202Y004982D01*
X014127Y004907D01*
X013977Y004907D01*
X013902Y004982D01*
X013902Y005132D01*
X013742Y004907D02*
X013442Y004907D01*
X013592Y004907D02*
X013592Y005358D01*
X013442Y005208D01*
X013282Y005283D02*
X013206Y005358D01*
X013056Y005358D01*
X012981Y005283D01*
X012981Y004982D01*
X013056Y004907D01*
X013206Y004907D01*
X013282Y004982D01*
X017021Y004907D02*
X017096Y004832D01*
X017246Y004832D01*
X017322Y004907D01*
X017322Y005208D01*
X017246Y005283D01*
X017096Y005283D01*
X017021Y005208D01*
X017021Y004907D01*
X017171Y004982D02*
X017322Y004832D01*
X017482Y004832D02*
X017782Y004832D01*
X017632Y004832D02*
X017632Y005283D01*
X017482Y005133D01*
X018531Y007582D02*
X018531Y008033D01*
X018756Y008033D01*
X018832Y007958D01*
X018832Y007807D01*
X018756Y007732D01*
X018531Y007732D01*
X018681Y007732D02*
X018832Y007582D01*
X018992Y007582D02*
X019292Y007883D01*
X019292Y007958D01*
X019217Y008033D01*
X019067Y008033D01*
X018992Y007958D01*
X018992Y007582D02*
X019292Y007582D01*
X016387Y011872D02*
X016237Y011872D01*
X016162Y011947D01*
X016462Y012248D01*
X016462Y011947D01*
X016387Y011872D01*
X016162Y011947D02*
X016162Y012248D01*
X016237Y012323D01*
X016387Y012323D01*
X016462Y012248D01*
X016002Y011872D02*
X015702Y011872D01*
X015852Y011872D02*
X015852Y012323D01*
X015702Y012173D01*
X015542Y012248D02*
X015466Y012323D01*
X015316Y012323D01*
X015241Y012248D01*
X015241Y011947D01*
X015316Y011872D01*
X015466Y011872D01*
X015542Y011947D01*
X015572Y012732D02*
X015421Y012882D01*
X015271Y012807D02*
X015271Y013108D01*
X015346Y013183D01*
X015496Y013183D01*
X015572Y013108D01*
X015572Y012807D01*
X015496Y012732D01*
X015346Y012732D01*
X015271Y012807D01*
X015732Y012732D02*
X016032Y013033D01*
X016032Y013108D01*
X015957Y013183D01*
X015807Y013183D01*
X015732Y013108D01*
X015732Y012732D02*
X016032Y012732D01*
X018181Y013682D02*
X018181Y014133D01*
X018406Y014133D01*
X018482Y014058D01*
X018482Y013907D01*
X018406Y013832D01*
X018181Y013832D01*
X018331Y013832D02*
X018482Y013682D01*
X018642Y013757D02*
X018642Y013832D01*
X018717Y013907D01*
X018867Y013907D01*
X018942Y013832D01*
X018942Y013757D01*
X018867Y013682D01*
X018717Y013682D01*
X018642Y013757D01*
X018717Y013907D02*
X018642Y013983D01*
X018642Y014058D01*
X018717Y014133D01*
X018867Y014133D01*
X018942Y014058D01*
X018942Y013983D01*
X018867Y013907D01*
X020169Y013762D02*
X020169Y013312D01*
X020469Y013312D01*
X020629Y013312D02*
X020930Y013612D01*
X020930Y013687D01*
X020855Y013762D01*
X020705Y013762D01*
X020629Y013687D01*
X020629Y013312D02*
X020930Y013312D01*
X024161Y012758D02*
X024161Y012307D01*
X024386Y012307D01*
X024461Y012382D01*
X024461Y012683D01*
X024386Y012758D01*
X024161Y012758D01*
X024621Y012683D02*
X024696Y012758D01*
X024846Y012758D01*
X024921Y012683D01*
X024921Y012608D01*
X024846Y012532D01*
X024921Y012457D01*
X024921Y012382D01*
X024846Y012307D01*
X024696Y012307D01*
X024621Y012382D01*
X024771Y012532D02*
X024846Y012532D01*
X030887Y011632D02*
X030887Y011199D01*
X030887Y011632D02*
X035887Y011632D01*
X035887Y009506D01*
X035887Y008325D01*
X035218Y008325D01*
X035021Y008325D01*
X035021Y009506D01*
X035218Y009506D01*
X035218Y008325D01*
X035887Y008325D02*
X035887Y006199D01*
X030887Y006199D01*
X030887Y006632D01*
X030935Y006050D02*
X031235Y005599D01*
X031395Y005599D02*
X031695Y005599D01*
X031545Y005599D02*
X031545Y006050D01*
X031395Y005900D01*
X031235Y006050D02*
X030935Y005599D01*
X030790Y004633D02*
X030790Y004332D01*
X030865Y004257D01*
X031021Y004332D02*
X031021Y004482D01*
X031096Y004558D01*
X031247Y004558D01*
X031322Y004482D01*
X031322Y004407D01*
X031021Y004407D01*
X031021Y004332D02*
X031096Y004257D01*
X031247Y004257D01*
X031482Y004257D02*
X031707Y004257D01*
X031782Y004332D01*
X031707Y004407D01*
X031557Y004407D01*
X031482Y004482D01*
X031557Y004558D01*
X031782Y004558D01*
X031942Y004558D02*
X032092Y004558D01*
X032017Y004633D02*
X032017Y004332D01*
X032092Y004257D01*
X032249Y004332D02*
X032249Y004482D01*
X032324Y004558D01*
X032474Y004558D01*
X032549Y004482D01*
X032549Y004407D01*
X032249Y004407D01*
X032249Y004332D02*
X032324Y004257D01*
X032474Y004257D01*
X032401Y004058D02*
X032551Y004058D01*
X032626Y003983D01*
X032626Y003908D01*
X032551Y003832D01*
X032626Y003757D01*
X032626Y003682D01*
X032551Y003607D01*
X032401Y003607D01*
X032326Y003682D01*
X032166Y003682D02*
X032091Y003607D01*
X031865Y003607D01*
X031865Y004058D01*
X032091Y004058D01*
X032166Y003983D01*
X032166Y003908D01*
X032091Y003832D01*
X031865Y003832D01*
X032091Y003832D02*
X032166Y003757D01*
X032166Y003682D01*
X032326Y003983D02*
X032401Y004058D01*
X032476Y003832D02*
X032551Y003832D01*
X032786Y003607D02*
X032936Y003757D01*
X032936Y003908D01*
X032786Y004058D01*
X032709Y004257D02*
X032709Y004558D01*
X032709Y004407D02*
X032860Y004558D01*
X032935Y004558D01*
X031555Y004058D02*
X031555Y003607D01*
X031405Y003607D02*
X031705Y003607D01*
X031405Y003908D02*
X031555Y004058D01*
X031247Y003908D02*
X031171Y003908D01*
X031021Y003757D01*
X031021Y003607D02*
X031021Y003908D01*
X030401Y003983D02*
X030101Y003682D01*
X030101Y003607D01*
X029940Y003607D02*
X029640Y003607D01*
X029790Y003607D02*
X029790Y004058D01*
X029640Y003908D01*
X029480Y003983D02*
X029480Y003682D01*
X029405Y003607D01*
X029255Y003607D01*
X029180Y003682D01*
X029480Y003983D01*
X029405Y004058D01*
X029255Y004058D01*
X029180Y003983D01*
X029180Y003682D01*
X029020Y003607D02*
X028719Y003607D01*
X029020Y003908D01*
X029020Y003983D01*
X028945Y004058D01*
X028794Y004058D01*
X028719Y003983D01*
X028559Y004058D02*
X028259Y003607D01*
X028099Y003607D02*
X027799Y003607D01*
X027949Y003607D02*
X027949Y004058D01*
X027799Y003908D01*
X027638Y003983D02*
X027338Y003682D01*
X027413Y003607D01*
X027563Y003607D01*
X027638Y003682D01*
X027638Y003983D01*
X027563Y004058D01*
X027413Y004058D01*
X027338Y003983D01*
X027338Y003682D01*
X027181Y003607D02*
X027031Y003757D01*
X027031Y003908D01*
X027181Y004058D01*
X027031Y004257D02*
X027332Y004257D01*
X027492Y004257D02*
X027792Y004257D01*
X027952Y004257D02*
X027952Y004332D01*
X028252Y004633D01*
X028252Y004708D01*
X027952Y004708D01*
X027792Y004708D02*
X027492Y004708D01*
X027492Y004257D01*
X027492Y004482D02*
X027642Y004482D01*
X027952Y004257D02*
X028252Y004257D01*
X028873Y004257D02*
X028873Y004708D01*
X029098Y004708D01*
X029173Y004633D01*
X029173Y004482D01*
X029098Y004407D01*
X028873Y004407D01*
X029333Y004332D02*
X029408Y004257D01*
X029558Y004257D01*
X029634Y004332D01*
X029634Y004407D01*
X029558Y004482D01*
X029408Y004482D01*
X029333Y004558D01*
X029333Y004633D01*
X029408Y004708D01*
X029558Y004708D01*
X029634Y004633D01*
X029794Y004708D02*
X029794Y004332D01*
X029869Y004257D01*
X030019Y004257D01*
X030094Y004332D01*
X030094Y004708D01*
X030714Y004558D02*
X030865Y004558D01*
X030401Y004058D02*
X030401Y003983D01*
X030401Y004058D02*
X030101Y004058D01*
X028242Y005632D02*
X027942Y005632D01*
X028092Y005632D02*
X028092Y006083D01*
X027942Y005933D01*
X027782Y005632D02*
X027481Y005632D01*
X027481Y006083D01*
X027332Y004708D02*
X027031Y004708D01*
X027031Y004257D01*
X027031Y004482D02*
X027181Y004482D01*
X026084Y006992D02*
X025784Y006992D01*
X026084Y007293D01*
X026084Y007368D01*
X026009Y007443D01*
X025859Y007443D01*
X025784Y007368D01*
X025623Y007368D02*
X025548Y007443D01*
X025398Y007443D01*
X025323Y007368D01*
X025323Y007067D01*
X025398Y006992D01*
X025548Y006992D01*
X025623Y007067D01*
X025166Y006992D02*
X025016Y006992D01*
X025091Y006992D02*
X025091Y007443D01*
X025016Y007443D02*
X025166Y007443D01*
X032231Y011844D02*
X032231Y012294D01*
X032381Y012144D01*
X032532Y012294D01*
X032532Y011844D01*
X032692Y011919D02*
X032767Y011844D01*
X032992Y011844D01*
X032992Y012069D01*
X032917Y012144D01*
X032767Y012144D01*
X032767Y011994D02*
X032992Y011994D01*
X033152Y012144D02*
X033452Y011844D01*
X033612Y011844D02*
X033688Y011844D01*
X033688Y011919D01*
X033612Y011919D01*
X033612Y011844D01*
X033452Y012144D02*
X033152Y011844D01*
X032767Y011994D02*
X032692Y011919D01*
X032906Y012519D02*
X033131Y012519D01*
X033207Y012594D01*
X033207Y012894D01*
X033131Y012969D01*
X032906Y012969D01*
X032906Y012519D01*
X033367Y012594D02*
X033367Y012894D01*
X033442Y012969D01*
X033592Y012969D01*
X033667Y012894D01*
X033667Y012594D02*
X033592Y012519D01*
X033442Y012519D01*
X033367Y012594D01*
X034287Y012519D02*
X034438Y012519D01*
X034363Y012519D02*
X034363Y012819D01*
X034287Y012819D01*
X034363Y012969D02*
X034363Y013044D01*
X034594Y012819D02*
X034820Y012819D01*
X034895Y012744D01*
X034895Y012519D01*
X034763Y012294D02*
X034763Y012069D01*
X034914Y012144D01*
X034989Y012144D01*
X035064Y012069D01*
X035064Y011919D01*
X034989Y011844D01*
X034839Y011844D01*
X034763Y011919D01*
X034603Y011919D02*
X034528Y011844D01*
X034378Y011844D01*
X034303Y011919D01*
X034303Y012069D02*
X034453Y012144D01*
X034528Y012144D01*
X034603Y012069D01*
X034603Y011919D01*
X034303Y012069D02*
X034303Y012294D01*
X034603Y012294D01*
X034763Y012294D02*
X035064Y012294D01*
X035224Y012294D02*
X035224Y011994D01*
X035374Y011844D01*
X035524Y011994D01*
X035524Y012294D01*
X034594Y012519D02*
X034594Y012819D01*
X034445Y013951D02*
X034145Y013951D01*
X034445Y014251D01*
X034445Y014326D01*
X034370Y014401D01*
X034220Y014401D01*
X034145Y014326D01*
X033985Y014401D02*
X033684Y013951D01*
X033985Y013951D02*
X033684Y014401D01*
X032481Y014526D02*
X032481Y016692D01*
X035828Y016692D01*
X035828Y014526D01*
X035291Y014526D01*
X035291Y020825D01*
X035828Y020825D01*
X035828Y018660D01*
X032481Y018660D01*
X032481Y020825D01*
X035291Y020825D01*
X035828Y018660D02*
X035828Y016692D01*
X035291Y014526D02*
X032481Y014526D01*
X032481Y016692D02*
X032481Y018660D01*
X035406Y014294D02*
X035406Y013994D01*
X035256Y014144D02*
X035557Y014144D01*
X035887Y009506D02*
X035218Y009506D01*
X022946Y021207D02*
X022946Y021508D01*
X022871Y021583D01*
X022721Y021583D01*
X022646Y021508D01*
X022646Y021433D01*
X022721Y021357D01*
X022946Y021357D01*
X022946Y021207D02*
X022871Y021132D01*
X022721Y021132D01*
X022646Y021207D01*
X022486Y021132D02*
X022336Y021282D01*
X022411Y021282D02*
X022186Y021282D01*
X022186Y021132D02*
X022186Y021583D01*
X022411Y021583D01*
X022486Y021508D01*
X022486Y021357D01*
X022411Y021282D01*
X022871Y023182D02*
X022796Y023257D01*
X022796Y023558D01*
X022871Y023633D01*
X023021Y023633D01*
X023097Y023558D01*
X023097Y023257D01*
X023021Y023182D01*
X022871Y023182D01*
X022946Y023332D02*
X023097Y023182D01*
X023257Y023257D02*
X023332Y023182D01*
X023482Y023182D01*
X023557Y023257D01*
X023557Y023332D01*
X023482Y023407D01*
X023407Y023407D01*
X023482Y023407D02*
X023557Y023483D01*
X023557Y023558D01*
X023482Y023633D01*
X023332Y023633D01*
X023257Y023558D01*
X024698Y023776D02*
X024698Y023326D01*
X024923Y023326D01*
X024998Y023401D01*
X024998Y023701D01*
X024923Y023776D01*
X024698Y023776D01*
X025159Y023701D02*
X025234Y023776D01*
X025384Y023776D01*
X025459Y023701D01*
X025459Y023626D01*
X025159Y023326D01*
X025459Y023326D01*
X025437Y029207D02*
X023272Y029207D01*
X023272Y032554D01*
X025437Y032554D01*
X025437Y031992D01*
X015201Y031992D01*
X015201Y032554D01*
X017367Y032554D01*
X017367Y029207D01*
X019335Y029207D02*
X019335Y032554D01*
X021304Y032554D01*
X021304Y029207D01*
X019335Y029207D01*
X015201Y029207D01*
X015201Y031992D01*
X015038Y031196D02*
X014587Y031196D01*
X014812Y030971D01*
X014812Y031271D01*
X014587Y030811D02*
X015038Y030510D01*
X015038Y030811D02*
X014587Y030510D01*
X012481Y032207D02*
X011981Y032207D01*
X012231Y031957D01*
X012481Y032207D01*
X012455Y032181D02*
X012007Y032181D01*
X012056Y032133D02*
X012407Y032133D01*
X012358Y032084D02*
X012104Y032084D01*
X012153Y032036D02*
X012310Y032036D01*
X012261Y031987D02*
X012201Y031987D01*
X009217Y029183D02*
X009067Y029108D01*
X008917Y028957D01*
X009142Y028957D01*
X009217Y028882D01*
X009217Y028807D01*
X009142Y028732D01*
X008992Y028732D01*
X008917Y028807D01*
X008917Y028957D01*
X008757Y028732D02*
X008456Y029183D01*
X008757Y029183D02*
X008456Y028732D01*
X007706Y025957D02*
X006006Y025957D01*
X006006Y024257D01*
X007706Y024257D01*
X007706Y025957D01*
X007440Y024754D02*
X007406Y024757D01*
X007373Y024754D01*
X007341Y024742D01*
X007313Y024725D01*
X007289Y024701D01*
X007271Y024672D01*
X007260Y024641D01*
X007256Y024607D01*
X007260Y024574D01*
X007271Y024542D01*
X007289Y024514D01*
X007313Y024490D01*
X007341Y024472D01*
X007373Y024461D01*
X007406Y024457D01*
X007440Y024461D01*
X007471Y024472D01*
X007500Y024490D01*
X007524Y024514D01*
X007541Y024542D01*
X007553Y024574D01*
X007556Y024607D01*
X007553Y024641D01*
X007541Y024672D01*
X007524Y024701D01*
X007500Y024725D01*
X007471Y024742D01*
X007440Y024754D01*
X007512Y024712D02*
X007301Y024712D01*
X007268Y024664D02*
X007544Y024664D01*
X007555Y024615D02*
X007257Y024615D01*
X007263Y024567D02*
X007550Y024567D01*
X007527Y024518D02*
X007286Y024518D01*
X007348Y024470D02*
X007465Y024470D01*
X013671Y020783D02*
X013821Y020783D01*
X013746Y020783D02*
X013746Y020332D01*
X013671Y020332D02*
X013821Y020332D01*
X013978Y020407D02*
X014053Y020332D01*
X014203Y020332D01*
X014278Y020407D01*
X014439Y020332D02*
X014739Y020332D01*
X014589Y020332D02*
X014589Y020783D01*
X014439Y020633D01*
X014278Y020708D02*
X014203Y020783D01*
X014053Y020783D01*
X013978Y020708D01*
X013978Y020407D01*
X014106Y018793D02*
X014331Y018793D01*
X014407Y018718D01*
X014407Y018567D01*
X014331Y018492D01*
X014106Y018492D01*
X014106Y018342D02*
X014106Y018793D01*
X014256Y018492D02*
X014407Y018342D01*
X014567Y018567D02*
X014867Y018567D01*
X014792Y018342D02*
X014792Y018793D01*
X014567Y018567D01*
X015648Y016776D02*
X015873Y016776D01*
X015948Y016701D01*
X015948Y016401D01*
X015873Y016326D01*
X015648Y016326D01*
X015648Y016776D01*
X016109Y016626D02*
X016259Y016776D01*
X016259Y016326D01*
X016109Y016326D02*
X016409Y016326D01*
X014867Y016368D02*
X014567Y016067D01*
X014567Y015992D01*
X014407Y015992D02*
X014256Y016142D01*
X014331Y016142D02*
X014106Y016142D01*
X014106Y015992D02*
X014106Y016443D01*
X014331Y016443D01*
X014407Y016368D01*
X014407Y016217D01*
X014331Y016142D01*
X014567Y016443D02*
X014867Y016443D01*
X014867Y016368D01*
X007956Y014532D02*
X006456Y014532D01*
X006456Y013532D02*
X007956Y013532D01*
X007956Y012532D02*
X006456Y012532D01*
X006456Y011532D02*
X007956Y011532D01*
X021304Y029207D02*
X023272Y029207D01*
X025437Y029207D02*
X025437Y031992D01*
X026313Y032017D02*
X032612Y032017D01*
X032612Y029207D01*
X030447Y029207D01*
X030447Y032554D01*
X032612Y032554D01*
X032612Y032017D01*
X030447Y032554D02*
X028479Y032554D01*
X028479Y029207D01*
X026313Y029207D01*
X026313Y032017D01*
X026313Y032554D01*
X028479Y032554D01*
X028479Y029207D02*
X030447Y029207D01*
X032784Y029251D02*
X033085Y029701D01*
X033245Y029701D02*
X033245Y029476D01*
X033395Y029551D01*
X033470Y029551D01*
X033545Y029476D01*
X033545Y029326D01*
X033470Y029251D01*
X033320Y029251D01*
X033245Y029326D01*
X033085Y029251D02*
X032784Y029701D01*
X033245Y029701D02*
X033545Y029701D01*
X023272Y032554D02*
X021304Y032554D01*
X019335Y032554D02*
X017367Y032554D01*
D12*
X033645Y021767D03*
D13*
X033356Y021196D03*
X034176Y021283D03*
X034494Y021213D03*
D14*
X033356Y021198D03*
D15*
X033356Y021199D03*
D16*
X033356Y021201D03*
D17*
X033356Y021202D03*
X033365Y022641D03*
D18*
X033356Y021204D03*
X034181Y021292D03*
D19*
X034182Y021294D03*
X033356Y021205D03*
D20*
X033356Y021207D03*
D21*
X033356Y021208D03*
D22*
X033356Y021210D03*
X034494Y021226D03*
D23*
X033356Y021211D03*
D24*
X033357Y021213D03*
X033659Y021294D03*
X034190Y021303D03*
D25*
X034191Y021304D03*
X034493Y021232D03*
X033357Y021214D03*
D26*
X034175Y021286D03*
X034495Y021214D03*
D27*
X034493Y021234D03*
X033656Y021298D03*
X033357Y021216D03*
D28*
X034494Y021216D03*
D29*
X034194Y021309D03*
X033654Y021300D03*
X033357Y021217D03*
D30*
X034495Y021217D03*
D31*
X033357Y021219D03*
D32*
X034178Y021291D03*
X034495Y021219D03*
D33*
X033653Y021301D03*
X033357Y021220D03*
D34*
X033668Y021283D03*
X034495Y021220D03*
X034457Y022645D03*
D35*
X033358Y021222D03*
D36*
X034495Y021222D03*
D37*
X034491Y021241D03*
X033359Y021223D03*
D38*
X033359Y021225D03*
X033647Y021309D03*
X034200Y021316D03*
X033368Y022615D03*
D39*
X033366Y022633D03*
X034494Y021225D03*
D40*
X034491Y021244D03*
X033645Y021310D03*
X033359Y021226D03*
X034455Y022621D03*
X033897Y022833D03*
D41*
X033359Y021228D03*
D42*
X034494Y021228D03*
D43*
X034490Y021246D03*
X034202Y021321D03*
X033359Y021229D03*
X034454Y022620D03*
D44*
X034494Y021229D03*
D45*
X033360Y021231D03*
D46*
X034493Y021231D03*
X033367Y022629D03*
D47*
X034454Y022615D03*
X034205Y021324D03*
X033359Y021232D03*
D48*
X033360Y021234D03*
D49*
X033361Y021235D03*
X033638Y021319D03*
X034208Y021330D03*
X034453Y022612D03*
D50*
X034456Y022630D03*
X034492Y021235D03*
D51*
X033361Y021237D03*
D52*
X034492Y021237D03*
D53*
X033361Y021238D03*
X033370Y022603D03*
X034453Y022611D03*
D54*
X034456Y022627D03*
X034492Y021238D03*
D55*
X033361Y021240D03*
D56*
X033650Y021303D03*
X034492Y021240D03*
X034456Y022626D03*
D57*
X034214Y021336D03*
X033362Y021241D03*
D58*
X033362Y021243D03*
X033632Y021328D03*
X034488Y021262D03*
D59*
X034490Y021243D03*
X033647Y021307D03*
D60*
X033362Y021244D03*
D61*
X033362Y021246D03*
D62*
X033362Y021247D03*
X034217Y021345D03*
D63*
X034490Y021247D03*
D64*
X033362Y021249D03*
X033371Y022593D03*
X034451Y022600D03*
D65*
X034454Y022618D03*
X033368Y022612D03*
X034490Y021249D03*
D66*
X033362Y021250D03*
D67*
X034490Y021250D03*
D68*
X033363Y021252D03*
D69*
X034490Y021252D03*
D70*
X033363Y021253D03*
D71*
X034490Y021253D03*
D72*
X033364Y021255D03*
D73*
X033638Y021321D03*
X034210Y021331D03*
X034489Y021255D03*
D74*
X033364Y021256D03*
D75*
X034489Y021256D03*
D76*
X034485Y021277D03*
X033365Y021258D03*
D77*
X034488Y021258D03*
D78*
X033365Y021259D03*
D79*
X033635Y021324D03*
X034488Y021259D03*
D80*
X033364Y021261D03*
X034450Y022588D03*
D81*
X034453Y022606D03*
X034487Y021261D03*
X033634Y021325D03*
D82*
X033365Y021262D03*
D83*
X033366Y021264D03*
X033374Y022576D03*
D84*
X034487Y021264D03*
D85*
X034484Y021286D03*
X033366Y021265D03*
X033374Y022575D03*
X033915Y022830D03*
D86*
X034217Y021343D03*
X034487Y021265D03*
D87*
X033366Y021267D03*
D88*
X034487Y021267D03*
D89*
X033366Y021268D03*
X033374Y022573D03*
D90*
X034487Y021268D03*
D91*
X034483Y021291D03*
X033367Y021270D03*
X034448Y022579D03*
D92*
X034451Y022599D03*
X034486Y021270D03*
D93*
X033367Y021271D03*
X033374Y022570D03*
D94*
X034487Y021271D03*
D95*
X033368Y021273D03*
D96*
X034486Y021273D03*
D97*
X034481Y021295D03*
X033368Y021274D03*
D98*
X034485Y021274D03*
D99*
X033368Y021276D03*
D100*
X033674Y021276D03*
D101*
X034485Y021276D03*
D102*
X033368Y021277D03*
D103*
X033674Y021277D03*
D104*
X033369Y021279D03*
X033375Y022563D03*
X033917Y022825D03*
D105*
X033674Y021279D03*
D106*
X034485Y021279D03*
D107*
X034480Y021301D03*
X033370Y021280D03*
D108*
X033671Y021280D03*
D109*
X034485Y021280D03*
X033372Y022582D03*
D110*
X033370Y021282D03*
D111*
X033670Y021282D03*
D112*
X034484Y021282D03*
X034450Y022587D03*
D113*
X034479Y021306D03*
X033371Y021283D03*
D114*
X034484Y021283D03*
D115*
X034479Y021307D03*
X033371Y021285D03*
X034445Y022563D03*
D116*
X033365Y022639D03*
X033667Y021285D03*
D117*
X034175Y021285D03*
X033365Y022644D03*
D118*
X034484Y021285D03*
D119*
X034478Y021309D03*
X033371Y021286D03*
X033916Y022818D03*
D120*
X033666Y021286D03*
D121*
X033371Y021288D03*
X034478Y021310D03*
D122*
X033666Y021288D03*
D123*
X034176Y021288D03*
D124*
X034484Y021288D03*
X034449Y022582D03*
D125*
X033372Y021289D03*
D126*
X033665Y021289D03*
X034184Y021295D03*
D127*
X034177Y021289D03*
D128*
X034483Y021289D03*
X034448Y022581D03*
D129*
X034443Y022558D03*
X033915Y022792D03*
X033915Y022794D03*
X033915Y022795D03*
X033915Y022798D03*
X033372Y021291D03*
D130*
X033664Y021291D03*
X034184Y021298D03*
X034457Y022639D03*
D131*
X034442Y022555D03*
X033916Y022785D03*
X034477Y021315D03*
X033373Y021292D03*
D132*
X033661Y021292D03*
X034187Y021301D03*
D133*
X034482Y021292D03*
X034448Y022576D03*
D134*
X033374Y021294D03*
D135*
X034481Y021294D03*
X034447Y022575D03*
X033374Y022567D03*
D136*
X033380Y022543D03*
X033914Y022764D03*
X033914Y022765D03*
X034475Y021319D03*
X033374Y021295D03*
D137*
X033658Y021295D03*
X033367Y022627D03*
D138*
X033914Y022752D03*
X033374Y021297D03*
D139*
X033656Y021297D03*
D140*
X034184Y021297D03*
D141*
X034481Y021297D03*
D142*
X033375Y021298D03*
X033915Y022741D03*
X033915Y022743D03*
X033915Y022744D03*
X033915Y022746D03*
X033915Y022747D03*
D143*
X034481Y021298D03*
D144*
X033375Y021300D03*
X033915Y022734D03*
D145*
X034186Y021300D03*
D146*
X034481Y021300D03*
D147*
X033375Y021301D03*
X033381Y022540D03*
X034440Y022548D03*
D148*
X033914Y022717D03*
X033914Y022719D03*
X033382Y022537D03*
X033376Y021303D03*
D149*
X034480Y021303D03*
D150*
X034474Y021328D03*
X033376Y021304D03*
X033382Y022534D03*
X033914Y022696D03*
X033914Y022698D03*
X033914Y022699D03*
X033914Y022701D03*
X033914Y022702D03*
X033914Y022704D03*
X033914Y022705D03*
X034439Y022543D03*
D151*
X033648Y021304D03*
D152*
X034479Y021304D03*
D153*
X034473Y021330D03*
X033377Y021306D03*
D154*
X033647Y021306D03*
D155*
X034192Y021306D03*
X033367Y022626D03*
D156*
X033377Y021307D03*
D157*
X034193Y021307D03*
D158*
X033377Y021309D03*
D159*
X033377Y021310D03*
X033913Y022660D03*
X033913Y022663D03*
X033913Y022665D03*
X034438Y022539D03*
D160*
X034456Y022629D03*
X033367Y022623D03*
X034195Y021310D03*
D161*
X033378Y021312D03*
D162*
X033644Y021312D03*
D163*
X034196Y021312D03*
D164*
X034478Y021312D03*
D165*
X033379Y021313D03*
X033914Y022636D03*
X033914Y022638D03*
X033914Y022639D03*
D166*
X033368Y022611D03*
X033641Y021313D03*
X034204Y021322D03*
D167*
X034199Y021313D03*
X033368Y022620D03*
D168*
X033916Y022791D03*
X034477Y021313D03*
D169*
X034470Y021340D03*
X033380Y021315D03*
X033914Y022620D03*
X033914Y022621D03*
X033914Y022623D03*
X033914Y022624D03*
X033914Y022626D03*
D170*
X033641Y021315D03*
D171*
X034199Y021315D03*
X033367Y022618D03*
D172*
X033912Y022614D03*
X033912Y022612D03*
X033380Y021316D03*
D173*
X033641Y021316D03*
X033369Y022608D03*
X034454Y022614D03*
D174*
X034442Y022554D03*
X033915Y022774D03*
X033915Y022776D03*
X033915Y022777D03*
X033380Y022546D03*
X034476Y021316D03*
D175*
X033380Y021318D03*
D176*
X033640Y021318D03*
D177*
X034201Y021318D03*
D178*
X034476Y021318D03*
X033915Y022768D03*
X033915Y022770D03*
X033915Y022771D03*
D179*
X033380Y021319D03*
D180*
X034201Y021319D03*
D181*
X033380Y021321D03*
D182*
X034475Y021321D03*
X033914Y022749D03*
X033914Y022750D03*
X033914Y022753D03*
X033914Y022755D03*
D183*
X033914Y022585D03*
X033381Y021322D03*
D184*
X033636Y021322D03*
X034211Y021333D03*
D185*
X034475Y021322D03*
D186*
X033382Y021324D03*
X033386Y022515D03*
D187*
X033914Y022723D03*
X033914Y022725D03*
X034474Y021324D03*
D188*
X033382Y021325D03*
X033914Y022582D03*
D189*
X034207Y021325D03*
D190*
X034473Y021325D03*
X034440Y022545D03*
X033914Y022714D03*
X033914Y022716D03*
D191*
X033382Y021327D03*
D192*
X033633Y021327D03*
D193*
X034207Y021327D03*
D194*
X034473Y021327D03*
X033914Y022707D03*
D195*
X033382Y021328D03*
D196*
X034208Y021328D03*
X033369Y022606D03*
D197*
X033473Y021769D03*
X033497Y021742D03*
X033494Y021435D03*
X033455Y021330D03*
X034326Y021504D03*
X034328Y021501D03*
X034388Y021348D03*
D198*
X034336Y021486D03*
X034334Y021489D03*
X034334Y021490D03*
X034333Y021493D03*
X034328Y021736D03*
X034327Y022113D03*
X034325Y022114D03*
X034324Y022116D03*
X033472Y022080D03*
X033497Y021741D03*
X033499Y021739D03*
X033488Y021427D03*
X033487Y021424D03*
X033485Y021421D03*
X033454Y021331D03*
D199*
X034472Y021331D03*
D200*
X034388Y021351D03*
X034337Y021483D03*
X034285Y021622D03*
X034322Y022119D03*
X033506Y022117D03*
X033500Y021736D03*
X033502Y021735D03*
X033551Y021606D03*
X033551Y021604D03*
X033484Y021418D03*
X033454Y021333D03*
D201*
X034472Y021333D03*
X033914Y022666D03*
D202*
X033509Y022120D03*
X033507Y022119D03*
X033468Y021771D03*
X033482Y021415D03*
X033482Y021414D03*
X033453Y021334D03*
X034284Y021624D03*
X034338Y021481D03*
X034340Y021480D03*
X034389Y021352D03*
X034320Y022120D03*
D203*
X034212Y021334D03*
D204*
X034470Y021334D03*
X033384Y022530D03*
D205*
X033469Y022078D03*
X033503Y021733D03*
X033481Y021412D03*
X033479Y021409D03*
X033452Y021336D03*
X034340Y021478D03*
X034342Y021475D03*
X034342Y021474D03*
X034343Y021472D03*
D206*
X034470Y021336D03*
X034437Y022536D03*
X033914Y022651D03*
X033914Y022653D03*
X033914Y022654D03*
X033384Y022528D03*
D207*
X033511Y022125D03*
X034321Y021727D03*
X034351Y021459D03*
X033452Y021339D03*
X033452Y021337D03*
D208*
X034214Y021337D03*
D209*
X034470Y021337D03*
D210*
X034214Y021339D03*
X034453Y022605D03*
D211*
X033914Y022627D03*
X033914Y022629D03*
X033914Y022630D03*
X033914Y022633D03*
X033914Y022635D03*
X034470Y021339D03*
D212*
X034354Y021453D03*
X034352Y021454D03*
X033470Y021394D03*
X033470Y021393D03*
X033469Y021391D03*
X033452Y021340D03*
X033512Y022126D03*
X033514Y022128D03*
D213*
X034214Y021340D03*
D214*
X033452Y021342D03*
D215*
X034216Y021342D03*
D216*
X034469Y021342D03*
D217*
X033467Y021388D03*
X033452Y021345D03*
X033452Y021343D03*
D218*
X034469Y021343D03*
X034436Y022530D03*
X033912Y022596D03*
X033912Y022597D03*
X033912Y022599D03*
X033912Y022600D03*
D219*
X033912Y022590D03*
X033386Y022519D03*
X034467Y021345D03*
D220*
X033453Y021346D03*
X033513Y021721D03*
D221*
X034218Y021346D03*
D222*
X034466Y021346D03*
X034435Y022525D03*
X033386Y022516D03*
D223*
X034309Y022134D03*
X034315Y021718D03*
X034285Y021640D03*
X034285Y021639D03*
X034285Y021637D03*
X034285Y021636D03*
X034364Y021435D03*
X034364Y021433D03*
X034366Y021430D03*
X033550Y021625D03*
X033514Y021720D03*
X033464Y021382D03*
X033464Y021381D03*
X033463Y021379D03*
X033463Y021378D03*
X033452Y021349D03*
X033452Y021348D03*
D224*
X033485Y021420D03*
X033486Y021423D03*
X033488Y021426D03*
X033500Y021738D03*
X034284Y021621D03*
X034326Y021733D03*
X034328Y021735D03*
X034335Y021487D03*
X034337Y021484D03*
X034388Y021349D03*
X034334Y022108D03*
X034323Y022117D03*
X033914Y022555D03*
D225*
X033453Y021354D03*
X033453Y021352D03*
X033453Y021351D03*
D226*
X033551Y021610D03*
X033551Y021613D03*
X034344Y021471D03*
X034346Y021469D03*
X034347Y021468D03*
X034347Y021466D03*
X034389Y021354D03*
D227*
X034369Y021424D03*
X034367Y021426D03*
X034307Y022135D03*
X033454Y021361D03*
X033454Y021360D03*
X033454Y021358D03*
X033454Y021355D03*
D228*
X033476Y021403D03*
X033478Y021405D03*
X033550Y021615D03*
X033550Y021616D03*
X033506Y021730D03*
X034348Y021465D03*
X034390Y021355D03*
D229*
X033454Y021357D03*
D230*
X034285Y021627D03*
X034390Y021357D03*
D231*
X034391Y021358D03*
X033551Y021618D03*
X033509Y021726D03*
X033509Y021727D03*
X033507Y021729D03*
X033474Y021400D03*
X034316Y022126D03*
X034317Y022125D03*
X033914Y022554D03*
D232*
X034315Y022128D03*
X034319Y021724D03*
X034318Y021723D03*
X034285Y021630D03*
X034285Y021628D03*
X034390Y021360D03*
X033550Y021619D03*
X033550Y021621D03*
X033473Y021399D03*
X033472Y021397D03*
D233*
X033510Y021724D03*
X034356Y021448D03*
X034358Y021445D03*
X034359Y021444D03*
X034391Y021361D03*
X034344Y022104D03*
X034314Y022129D03*
X034313Y022131D03*
D234*
X034285Y021645D03*
X034285Y021643D03*
X033550Y021628D03*
X033517Y021715D03*
X033460Y021373D03*
X033457Y021369D03*
X033455Y021366D03*
X033455Y021364D03*
X033455Y021363D03*
X033520Y022134D03*
D235*
X033518Y022132D03*
X033461Y022075D03*
X034311Y022132D03*
X034385Y021793D03*
X034316Y021720D03*
X034362Y021439D03*
X034362Y021438D03*
X034364Y021436D03*
X034392Y021363D03*
X033465Y021384D03*
D236*
X033462Y021376D03*
X033461Y021375D03*
X033515Y021718D03*
X034313Y021715D03*
X034367Y021429D03*
X034367Y021427D03*
X034392Y021366D03*
X034392Y021364D03*
D237*
X034392Y021367D03*
X034376Y021414D03*
X034374Y021415D03*
X034373Y021418D03*
X034371Y021421D03*
X034286Y021646D03*
X034311Y021714D03*
X034305Y022138D03*
X034304Y022140D03*
X033914Y022552D03*
X033522Y022135D03*
X033518Y021714D03*
X033458Y021370D03*
X033456Y021367D03*
D238*
X033550Y021630D03*
X033550Y021631D03*
X033524Y022138D03*
X034285Y021648D03*
X034372Y021420D03*
X034376Y021412D03*
X034391Y021370D03*
X034391Y021369D03*
D239*
X033550Y021627D03*
X033515Y021717D03*
X033458Y021372D03*
X034306Y022137D03*
D240*
X034391Y021372D03*
D241*
X034391Y021373D03*
X034391Y021375D03*
X033550Y021634D03*
X033550Y021636D03*
X033520Y021712D03*
D242*
X033549Y021639D03*
X033549Y021637D03*
X034286Y021651D03*
X034391Y021795D03*
X034391Y021381D03*
X034391Y021379D03*
X034391Y021378D03*
X034391Y021376D03*
D243*
X034390Y021382D03*
X034390Y021384D03*
X034390Y021385D03*
X034285Y021652D03*
X034300Y022143D03*
X033521Y021711D03*
X033550Y021640D03*
D244*
X033550Y021624D03*
X033550Y021622D03*
X033461Y021772D03*
X033515Y022131D03*
X034316Y021721D03*
X034285Y021634D03*
X034285Y021633D03*
X034285Y021631D03*
X034355Y021450D03*
X034360Y021442D03*
X034361Y021441D03*
X033466Y021385D03*
D245*
X033467Y021387D03*
D246*
X034389Y021387D03*
D247*
X034388Y021388D03*
X034388Y021390D03*
X034387Y021391D03*
X034387Y021393D03*
X034385Y021394D03*
X034384Y021396D03*
X034382Y021399D03*
X034306Y021709D03*
X034307Y021711D03*
X033529Y022143D03*
D248*
X033515Y022129D03*
X033512Y021723D03*
X033468Y021390D03*
X034355Y021451D03*
D249*
X034352Y021456D03*
X034352Y021457D03*
X034350Y021460D03*
X034320Y021726D03*
X033471Y021396D03*
D250*
X034380Y021403D03*
X034382Y021400D03*
X034383Y021397D03*
D251*
X033476Y021402D03*
D252*
X034381Y021402D03*
D253*
X034379Y021405D03*
X034379Y021406D03*
X034352Y022102D03*
X033527Y022141D03*
X033454Y021774D03*
D254*
X033510Y022123D03*
X033480Y021411D03*
X033479Y021408D03*
X033479Y021406D03*
X034349Y021463D03*
X034322Y021729D03*
X034323Y021730D03*
X034340Y022105D03*
X034319Y022123D03*
D255*
X034302Y022141D03*
X034286Y021649D03*
X034377Y021411D03*
X034379Y021409D03*
X034379Y021408D03*
X033549Y021633D03*
D256*
X033484Y021417D03*
X034376Y021792D03*
X034336Y022107D03*
D257*
X034374Y021417D03*
D258*
X034370Y021423D03*
D259*
X034285Y021618D03*
X034285Y021619D03*
X034330Y021738D03*
X033551Y021603D03*
X033490Y021429D03*
X033505Y022114D03*
D260*
X033504Y022113D03*
X033552Y021601D03*
X033491Y021430D03*
X034284Y021615D03*
X034284Y021616D03*
X034329Y021499D03*
X034329Y021498D03*
X034331Y021496D03*
X034332Y021495D03*
X034331Y021739D03*
X034332Y021741D03*
X034331Y022110D03*
X034329Y022111D03*
D261*
X033492Y021432D03*
D262*
X034286Y021642D03*
X034314Y021717D03*
X034365Y021432D03*
D263*
X034285Y021613D03*
X034333Y021742D03*
X033493Y021433D03*
D264*
X033494Y021436D03*
X033494Y021438D03*
X033496Y021441D03*
X033496Y021744D03*
X033502Y022111D03*
X034324Y021508D03*
X034325Y021505D03*
X034327Y021502D03*
D265*
X034323Y021510D03*
X034323Y021511D03*
X033497Y021442D03*
X033495Y021439D03*
X033495Y021745D03*
X033501Y022110D03*
D266*
X033498Y022105D03*
X033498Y021444D03*
X034322Y021513D03*
D267*
X034337Y021748D03*
X033499Y021445D03*
X033497Y022104D03*
D268*
X033499Y021447D03*
D269*
X034357Y021447D03*
D270*
X034321Y021514D03*
X034319Y021517D03*
X034318Y021520D03*
X034316Y021523D03*
X034315Y021525D03*
X034283Y021607D03*
X034370Y021790D03*
X033551Y021594D03*
X033551Y021592D03*
X033502Y021453D03*
X033500Y021450D03*
X033500Y021448D03*
X033491Y021751D03*
X033478Y021766D03*
X033496Y022102D03*
X033914Y022558D03*
D271*
X033491Y021753D03*
X033506Y021457D03*
X033504Y021456D03*
X033503Y021454D03*
X033501Y021451D03*
X034283Y021604D03*
X034283Y021606D03*
X034311Y021531D03*
X034313Y021529D03*
X034313Y021528D03*
X034314Y021526D03*
D272*
X034310Y021532D03*
X034310Y021534D03*
X034339Y021751D03*
X034339Y021753D03*
X033551Y021591D03*
X033551Y021589D03*
X033509Y021465D03*
X033508Y021460D03*
X033506Y021459D03*
X033490Y021754D03*
X033488Y021757D03*
X033481Y021765D03*
X033493Y022099D03*
X033494Y022101D03*
D273*
X033508Y021462D03*
X034309Y021537D03*
D274*
X034349Y021462D03*
D275*
X034310Y021535D03*
X034283Y021603D03*
X034340Y021754D03*
X034341Y021756D03*
X034341Y021757D03*
X033552Y021588D03*
X033510Y021468D03*
X033510Y021466D03*
X033509Y021463D03*
X033489Y021756D03*
X033488Y021759D03*
X033491Y022095D03*
X033492Y022096D03*
X033492Y022098D03*
D276*
X033490Y022093D03*
X033487Y021760D03*
X033553Y021586D03*
X033511Y021469D03*
X034283Y021601D03*
X034342Y021759D03*
X033914Y022560D03*
D277*
X034307Y021541D03*
X033512Y021471D03*
D278*
X033513Y021472D03*
X033483Y022083D03*
X034367Y021789D03*
D279*
X033514Y021474D03*
D280*
X033515Y021475D03*
X033516Y021478D03*
X033485Y022084D03*
X033486Y022086D03*
X034296Y021559D03*
X034296Y021558D03*
D281*
X033516Y021477D03*
D282*
X033509Y022122D03*
X034319Y022122D03*
X034340Y021477D03*
D283*
X034295Y021561D03*
X034295Y021562D03*
X034294Y021565D03*
X033554Y021580D03*
X033517Y021480D03*
D284*
X033518Y021481D03*
X034298Y021556D03*
X034344Y021763D03*
D285*
X034345Y021765D03*
X034346Y021766D03*
X034346Y021768D03*
X034363Y021787D03*
X034283Y021595D03*
X034283Y021594D03*
X033520Y021484D03*
X033518Y021483D03*
D286*
X033521Y021486D03*
X033522Y021487D03*
X034347Y021769D03*
D287*
X034348Y021771D03*
X034283Y021591D03*
X034283Y021589D03*
X034283Y021586D03*
X034289Y021573D03*
X034292Y021568D03*
X033554Y021574D03*
X033554Y021576D03*
X033554Y021577D03*
X033526Y021495D03*
X033524Y021493D03*
X033523Y021489D03*
D288*
X033524Y021490D03*
X033554Y021579D03*
X034283Y021592D03*
X034292Y021570D03*
X034295Y021564D03*
X033915Y022561D03*
D289*
X033524Y021492D03*
D290*
X034334Y021492D03*
D291*
X034290Y021571D03*
X034289Y021574D03*
X034287Y021576D03*
X034284Y021583D03*
X034284Y021585D03*
X034283Y021588D03*
X034349Y021772D03*
X034350Y021774D03*
X033527Y021498D03*
X033527Y021496D03*
D292*
X033527Y021499D03*
X033554Y021571D03*
X033554Y021573D03*
X034351Y021775D03*
X034352Y021778D03*
X034354Y021780D03*
X034355Y021781D03*
X034357Y021783D03*
X034358Y021784D03*
D293*
X033530Y021502D03*
X033528Y021501D03*
D294*
X033530Y021504D03*
X033530Y021505D03*
X033532Y021508D03*
X033554Y021570D03*
D295*
X033532Y021507D03*
D296*
X034325Y021507D03*
D297*
X033533Y021510D03*
D298*
X033534Y021511D03*
X033536Y021513D03*
D299*
X033536Y021514D03*
X033538Y021516D03*
X033538Y021517D03*
D300*
X033552Y021595D03*
X033492Y021750D03*
X033477Y022081D03*
X034319Y021519D03*
X034320Y021516D03*
D301*
X033539Y021519D03*
D302*
X033539Y021520D03*
X033554Y021568D03*
D303*
X033555Y021567D03*
X033540Y021522D03*
D304*
X034317Y021522D03*
D305*
X033542Y021525D03*
X033541Y021523D03*
D306*
X033543Y021526D03*
D307*
X033544Y021528D03*
X033544Y021529D03*
D308*
X033545Y021531D03*
X033546Y021534D03*
X033555Y021559D03*
X033555Y021561D03*
D309*
X033556Y021562D03*
X033545Y021532D03*
D310*
X033547Y021535D03*
X033548Y021538D03*
X033550Y021540D03*
X033556Y021556D03*
X033556Y021558D03*
D311*
X033548Y021537D03*
D312*
X033483Y021763D03*
X034308Y021540D03*
X034308Y021538D03*
D313*
X033555Y021550D03*
X033554Y021547D03*
X033554Y021546D03*
X033552Y021543D03*
X033551Y021541D03*
X033555Y021553D03*
X033555Y021555D03*
D314*
X033488Y022089D03*
X033489Y022090D03*
X034343Y021760D03*
X034283Y021600D03*
X034299Y021553D03*
X034302Y021549D03*
X034304Y021546D03*
X034305Y021544D03*
X034305Y021543D03*
D315*
X033554Y021549D03*
X033553Y021544D03*
D316*
X033553Y021583D03*
X033553Y021585D03*
X033487Y022087D03*
X034283Y021598D03*
X034298Y021555D03*
X034301Y021550D03*
X034303Y021547D03*
D317*
X033555Y021552D03*
D318*
X034301Y021552D03*
D319*
X033555Y021564D03*
X033555Y021565D03*
D320*
X034293Y021567D03*
D321*
X034286Y021577D03*
D322*
X034286Y021579D03*
X034286Y021580D03*
X034361Y021786D03*
D323*
X033554Y021582D03*
D324*
X034285Y021582D03*
D325*
X033551Y021597D03*
X033494Y021747D03*
D326*
X034283Y021597D03*
X034343Y021762D03*
D327*
X034284Y021610D03*
X033552Y021600D03*
X033552Y021598D03*
D328*
X033551Y021607D03*
X033551Y021609D03*
D329*
X033493Y021748D03*
X033476Y021768D03*
X034283Y021609D03*
X034334Y021744D03*
D330*
X033551Y021612D03*
D331*
X034284Y021612D03*
X033914Y022557D03*
D332*
X034285Y021625D03*
D333*
X033549Y021642D03*
D334*
X033549Y021643D03*
X033914Y022551D03*
D335*
X033449Y021775D03*
X033523Y021709D03*
X033548Y021645D03*
X034285Y021655D03*
X034304Y021708D03*
D336*
X034297Y022146D03*
X033533Y022146D03*
X033526Y021706D03*
X033548Y021648D03*
X033548Y021646D03*
D337*
X033548Y021649D03*
X033527Y021705D03*
X034295Y022147D03*
X033914Y022549D03*
D338*
X033536Y022150D03*
X033548Y021652D03*
X033548Y021651D03*
X034286Y021667D03*
X034286Y021669D03*
X034364Y022099D03*
D339*
X034285Y021670D03*
X033548Y021654D03*
D340*
X034286Y021654D03*
D341*
X034286Y021673D03*
X034401Y021799D03*
X033548Y021655D03*
X033443Y021778D03*
X033914Y022548D03*
D342*
X033548Y021657D03*
D343*
X034286Y021657D03*
D344*
X034295Y021700D03*
X033548Y021658D03*
X033533Y021700D03*
D345*
X034285Y021660D03*
X034285Y021658D03*
D346*
X034286Y021675D03*
X034289Y022153D03*
X033914Y022546D03*
X033440Y021780D03*
X033549Y021661D03*
X033549Y021660D03*
D347*
X033534Y022147D03*
X034301Y021703D03*
X034286Y021663D03*
X034286Y021661D03*
D348*
X034286Y021676D03*
X034291Y021696D03*
X033548Y021663D03*
X033538Y021696D03*
X033536Y021697D03*
X033535Y021699D03*
X033541Y022153D03*
D349*
X033440Y022071D03*
X033549Y021666D03*
X033549Y021664D03*
X034286Y021678D03*
X034290Y021694D03*
X034370Y022096D03*
X034287Y022155D03*
D350*
X034285Y021666D03*
X034285Y021664D03*
X033535Y022149D03*
X033446Y022072D03*
D351*
X033539Y021694D03*
X033548Y021669D03*
X033548Y021667D03*
D352*
X033548Y021670D03*
X034286Y021679D03*
X034286Y021681D03*
X034289Y021693D03*
X034406Y021801D03*
X034286Y022156D03*
X033914Y022545D03*
D353*
X033548Y021672D03*
D354*
X033531Y021702D03*
X034286Y021672D03*
D355*
X034286Y021682D03*
X034286Y021684D03*
X034286Y021685D03*
X034286Y021688D03*
X034287Y021691D03*
X033548Y021675D03*
X033548Y021673D03*
D356*
X033548Y021676D03*
X033548Y021678D03*
X033545Y021691D03*
X033435Y022069D03*
X033548Y022159D03*
D357*
X033914Y022543D03*
X034279Y022161D03*
X033545Y021690D03*
X033547Y021681D03*
X033547Y021679D03*
D358*
X033548Y021682D03*
X033548Y021684D03*
X033546Y021688D03*
D359*
X033547Y021685D03*
X033431Y022068D03*
D360*
X033547Y021687D03*
D361*
X034286Y021687D03*
D362*
X034286Y021690D03*
D363*
X034281Y022159D03*
X033546Y022158D03*
X033545Y022156D03*
X033435Y021781D03*
X033542Y021693D03*
D364*
X034293Y021697D03*
D365*
X034294Y021699D03*
X034367Y022098D03*
D366*
X034298Y021702D03*
D367*
X034397Y021798D03*
X034294Y022149D03*
X033529Y021703D03*
D368*
X033525Y021708D03*
X033531Y022144D03*
X034298Y022144D03*
X034359Y022101D03*
X034395Y021796D03*
X034304Y021706D03*
X034302Y021705D03*
D369*
X034310Y021712D03*
X033525Y022140D03*
D370*
X033505Y021732D03*
D371*
X034325Y021732D03*
D372*
X034336Y021745D03*
X033500Y022108D03*
D373*
X034337Y021747D03*
D374*
X034338Y021750D03*
D375*
X033485Y021762D03*
X033490Y022092D03*
D376*
X033446Y021777D03*
D377*
X034352Y021777D03*
D378*
X033427Y021783D03*
D379*
X033421Y021784D03*
X034421Y021804D03*
D380*
X033914Y022539D03*
X033418Y022063D03*
X033416Y021786D03*
D381*
X033413Y021787D03*
X033914Y022537D03*
D382*
X034399Y022087D03*
X033410Y021789D03*
D383*
X033407Y021790D03*
X033914Y022534D03*
X034403Y022086D03*
D384*
X033401Y021792D03*
D385*
X033393Y021793D03*
X033914Y022530D03*
D386*
X033389Y021795D03*
D387*
X033385Y021796D03*
X034234Y022176D03*
X034429Y022078D03*
D388*
X033382Y021798D03*
D389*
X033380Y021799D03*
D390*
X033374Y021801D03*
X034439Y022074D03*
X034465Y021817D03*
D391*
X033913Y022518D03*
X033367Y021802D03*
D392*
X034275Y022162D03*
X034379Y022093D03*
X034413Y021802D03*
D393*
X033914Y022515D03*
X033335Y021982D03*
X033335Y021981D03*
X033335Y021979D03*
X033335Y021978D03*
X033335Y021976D03*
X033335Y021975D03*
X033334Y021966D03*
X033334Y021964D03*
X033334Y021963D03*
X033334Y021888D03*
X033334Y021886D03*
X033334Y021885D03*
X033334Y021883D03*
X033334Y021880D03*
X033334Y021879D03*
X033334Y021877D03*
X033334Y021876D03*
X033334Y021874D03*
X033361Y021804D03*
D394*
X033357Y021805D03*
X033336Y021855D03*
X033336Y021856D03*
X033336Y021858D03*
X033338Y021994D03*
X033338Y021996D03*
X033359Y022045D03*
X034490Y022005D03*
X034491Y022000D03*
X034493Y021850D03*
X034493Y021849D03*
X034487Y021829D03*
X034485Y021828D03*
D395*
X034427Y021805D03*
D396*
X033354Y021807D03*
X033339Y022002D03*
D397*
X034430Y021807D03*
D398*
X034489Y021834D03*
X034489Y021835D03*
X034490Y021838D03*
X034490Y021840D03*
X034490Y021841D03*
X034483Y022029D03*
X034460Y022068D03*
X033353Y022042D03*
X033353Y021808D03*
D399*
X034434Y021808D03*
D400*
X033351Y021810D03*
X033344Y022024D03*
D401*
X034407Y022084D03*
X034437Y021810D03*
D402*
X033350Y021811D03*
X033349Y021813D03*
X033344Y022026D03*
X033349Y022035D03*
X033350Y022039D03*
X033352Y022041D03*
D403*
X034442Y021811D03*
D404*
X034451Y021813D03*
X034421Y022081D03*
D405*
X033350Y022038D03*
X033350Y022036D03*
X033348Y022033D03*
X033347Y022030D03*
X033347Y022029D03*
X033345Y022027D03*
X033348Y021814D03*
D406*
X034457Y021814D03*
D407*
X033347Y021816D03*
X033346Y021817D03*
X033346Y021819D03*
D408*
X034462Y021816D03*
D409*
X034469Y021819D03*
D410*
X034478Y022044D03*
X034465Y022065D03*
X033344Y021820D03*
D411*
X034473Y021820D03*
D412*
X033344Y021822D03*
D413*
X034479Y021822D03*
X034499Y021942D03*
X034497Y021957D03*
D414*
X034481Y022036D03*
X034481Y022038D03*
X034479Y022041D03*
X034479Y022042D03*
X033344Y021823D03*
X033342Y021825D03*
D415*
X034482Y021823D03*
X034494Y021856D03*
X034494Y021858D03*
X034494Y021859D03*
X034496Y021864D03*
X034496Y021865D03*
X034496Y021868D03*
X034496Y021870D03*
X034496Y021871D03*
X034494Y021985D03*
X034494Y021988D03*
X034494Y021990D03*
D416*
X034493Y021993D03*
X034493Y021994D03*
X034493Y021996D03*
X034484Y021825D03*
X033335Y021865D03*
X033335Y021868D03*
X033335Y021870D03*
X033335Y021871D03*
X033335Y021873D03*
X033336Y021984D03*
X033336Y021985D03*
X033336Y021988D03*
X033336Y021990D03*
D417*
X033343Y022023D03*
X033341Y021829D03*
X033341Y021828D03*
X033341Y021826D03*
X034463Y022066D03*
X034480Y022039D03*
X034481Y022035D03*
X034481Y022033D03*
D418*
X034492Y021999D03*
X034492Y021997D03*
X034493Y021855D03*
X034493Y021853D03*
X034484Y021826D03*
X033335Y021859D03*
X033335Y021861D03*
X033335Y021862D03*
X033335Y021864D03*
X033337Y021991D03*
X033337Y021993D03*
D419*
X033342Y022020D03*
X033342Y022021D03*
X033341Y021835D03*
X033341Y021834D03*
X033341Y021832D03*
X033341Y021831D03*
X034482Y022030D03*
D420*
X034486Y022023D03*
X034486Y022021D03*
X034486Y022020D03*
X034487Y022018D03*
X034487Y022015D03*
X034487Y022014D03*
X034487Y022012D03*
X034489Y022011D03*
X034489Y022009D03*
X034489Y022008D03*
X034489Y022006D03*
X034490Y022003D03*
X034457Y022069D03*
X034492Y021847D03*
X034492Y021846D03*
X034487Y021831D03*
X033338Y021849D03*
X033337Y021853D03*
X033338Y021997D03*
X033338Y021999D03*
X033340Y022003D03*
X033356Y022044D03*
D421*
X033339Y022000D03*
X033338Y021850D03*
X033339Y021847D03*
X033339Y021846D03*
X033339Y021844D03*
X034488Y021832D03*
X034491Y021843D03*
X034491Y021844D03*
X034485Y022024D03*
X034485Y022026D03*
X034484Y022027D03*
D422*
X034482Y022032D03*
X033341Y021837D03*
D423*
X034490Y021837D03*
D424*
X033340Y021838D03*
X033340Y021840D03*
X033340Y021841D03*
X033340Y021843D03*
X033341Y022012D03*
X033341Y022014D03*
X033341Y022015D03*
X033341Y022018D03*
D425*
X033337Y021852D03*
X034487Y022017D03*
D426*
X034493Y021852D03*
X033361Y022047D03*
D427*
X034495Y021862D03*
X034495Y021861D03*
D428*
X033335Y021867D03*
X033336Y021987D03*
D429*
X034494Y021987D03*
X034496Y021867D03*
D430*
X034496Y021873D03*
X034496Y021874D03*
X034496Y021876D03*
X034496Y021877D03*
X034496Y021879D03*
X034495Y021978D03*
X034495Y021979D03*
X034495Y021981D03*
X034495Y021982D03*
X034495Y021984D03*
X034493Y021991D03*
D431*
X034496Y021976D03*
X034496Y021975D03*
X034496Y021973D03*
X034496Y021970D03*
X034496Y021969D03*
X034497Y021889D03*
X034497Y021888D03*
X034497Y021886D03*
X034497Y021885D03*
X034497Y021883D03*
X034497Y021880D03*
X034454Y022071D03*
D432*
X033334Y021882D03*
D433*
X034497Y021882D03*
X034496Y021972D03*
D434*
X033363Y022048D03*
X033335Y021973D03*
X033335Y021970D03*
X033335Y021969D03*
X033335Y021967D03*
X033333Y021961D03*
X033333Y021960D03*
X033333Y021958D03*
X033333Y021955D03*
X033333Y021954D03*
X033333Y021952D03*
X033333Y021951D03*
X033333Y021898D03*
X033333Y021895D03*
X033333Y021894D03*
X033333Y021892D03*
X033333Y021891D03*
X033333Y021889D03*
D435*
X034498Y021891D03*
X034498Y021892D03*
X034498Y021894D03*
X034498Y021895D03*
X034498Y021898D03*
X034498Y021949D03*
X034498Y021951D03*
X034498Y021952D03*
X034496Y021958D03*
X034496Y021960D03*
X034496Y021961D03*
X034496Y021963D03*
X034496Y021964D03*
X034496Y021966D03*
X034496Y021967D03*
D436*
X033335Y021972D03*
X033333Y021957D03*
X033333Y021897D03*
D437*
X034498Y021897D03*
D438*
X033332Y021900D03*
X033332Y021901D03*
X033332Y021903D03*
X033332Y021904D03*
X033332Y021906D03*
X033332Y021907D03*
X033331Y021909D03*
X033331Y021910D03*
X033331Y021913D03*
X033331Y021915D03*
X033331Y021916D03*
X033331Y021918D03*
X033332Y021940D03*
X033332Y021943D03*
X033332Y021945D03*
X033332Y021946D03*
X033332Y021948D03*
X033332Y021949D03*
D439*
X033330Y021922D03*
X033330Y021921D03*
X033330Y021919D03*
X034497Y021954D03*
X034497Y021955D03*
X034499Y021948D03*
X034499Y021946D03*
X034499Y021945D03*
X034499Y021943D03*
X034499Y021940D03*
X034499Y021939D03*
X034499Y021909D03*
X034499Y021907D03*
X034499Y021906D03*
X034499Y021904D03*
X034499Y021903D03*
X034499Y021901D03*
X034499Y021900D03*
D440*
X034499Y021910D03*
X034499Y021913D03*
X034499Y021915D03*
X034499Y021916D03*
X034499Y021918D03*
X034499Y021919D03*
X034499Y021921D03*
X034499Y021922D03*
X034499Y021924D03*
X034499Y021925D03*
X034499Y021928D03*
X034499Y021930D03*
X034499Y021931D03*
X034499Y021933D03*
X034499Y021934D03*
X034499Y021936D03*
X034499Y021937D03*
X033367Y022050D03*
X033331Y021930D03*
X033331Y021928D03*
X033331Y021925D03*
X033331Y021924D03*
D441*
X033331Y021912D03*
X033332Y021942D03*
D442*
X033331Y021927D03*
X034499Y021927D03*
X034499Y021912D03*
D443*
X033332Y021931D03*
X033332Y021933D03*
X033332Y021934D03*
X033332Y021936D03*
X033332Y021937D03*
X033332Y021939D03*
D444*
X034491Y022002D03*
D445*
X033341Y022005D03*
X033341Y022006D03*
X033341Y022008D03*
X033341Y022009D03*
X033341Y022011D03*
D446*
X033341Y022017D03*
D447*
X033348Y022032D03*
D448*
X034467Y022063D03*
X034478Y022045D03*
D449*
X034478Y022047D03*
X034469Y022062D03*
D450*
X034471Y022060D03*
X034475Y022051D03*
X034477Y022048D03*
D451*
X034476Y022050D03*
X034475Y022053D03*
X034475Y022054D03*
D452*
X033914Y022519D03*
X033372Y022051D03*
D453*
X033380Y022053D03*
X033914Y022522D03*
D454*
X033914Y022525D03*
X034425Y022080D03*
X033387Y022054D03*
D455*
X033392Y022056D03*
D456*
X034472Y022059D03*
X034474Y022056D03*
D457*
X033395Y022057D03*
D458*
X034473Y022057D03*
D459*
X033398Y022059D03*
D460*
X033402Y022060D03*
D461*
X033409Y022062D03*
D462*
X033424Y022065D03*
D463*
X033429Y022066D03*
D464*
X034448Y022072D03*
D465*
X033455Y022074D03*
D466*
X034435Y022075D03*
D467*
X033465Y022077D03*
D468*
X034432Y022077D03*
D469*
X034413Y022083D03*
D470*
X034396Y022089D03*
X034259Y022171D03*
X033569Y022171D03*
D471*
X034392Y022090D03*
D472*
X034386Y022092D03*
D473*
X034373Y022095D03*
X034283Y022158D03*
D474*
X033499Y022107D03*
D475*
X033506Y022116D03*
D476*
X033523Y022137D03*
D477*
X034293Y022150D03*
D478*
X033538Y022152D03*
D479*
X034292Y022152D03*
D480*
X033542Y022155D03*
D481*
X033551Y022161D03*
D482*
X033554Y022162D03*
D483*
X033557Y022164D03*
D484*
X034270Y022164D03*
D485*
X033560Y022165D03*
D486*
X034268Y022165D03*
D487*
X033562Y022167D03*
D488*
X034266Y022167D03*
D489*
X033914Y022540D03*
X033564Y022168D03*
D490*
X034264Y022168D03*
D491*
X033566Y022170D03*
D492*
X034262Y022170D03*
D493*
X034250Y022173D03*
X033578Y022173D03*
D494*
X033585Y022174D03*
D495*
X034240Y022174D03*
D496*
X033590Y022176D03*
D497*
X033914Y022177D03*
D498*
X033914Y022179D03*
D499*
X033914Y022180D03*
X033911Y022360D03*
D500*
X033914Y022182D03*
D501*
X033914Y022183D03*
D502*
X033914Y022185D03*
X033911Y022357D03*
D503*
X033911Y022356D03*
X033913Y022186D03*
D504*
X033914Y022188D03*
X033911Y022354D03*
D505*
X033914Y022191D03*
X033914Y022189D03*
D506*
X033914Y022192D03*
X033911Y022351D03*
D507*
X033914Y022194D03*
D508*
X033914Y022195D03*
X033914Y022198D03*
D509*
X033914Y022197D03*
D510*
X033914Y022200D03*
X033914Y022201D03*
X033914Y022203D03*
D511*
X033914Y022204D03*
X033911Y022345D03*
D512*
X033914Y022206D03*
D513*
X033914Y022207D03*
D514*
X033914Y022209D03*
D515*
X033914Y022210D03*
X033911Y022339D03*
D516*
X033914Y022212D03*
D517*
X033914Y022213D03*
X033914Y022215D03*
X033911Y022336D03*
D518*
X033911Y022335D03*
X033914Y022219D03*
X033914Y022218D03*
X033914Y022216D03*
D519*
X033914Y022221D03*
X033911Y022333D03*
D520*
X033914Y022222D03*
D521*
X033914Y022224D03*
D522*
X033914Y022225D03*
D523*
X033914Y022227D03*
D524*
X033914Y022228D03*
X033914Y022230D03*
D525*
X033914Y022231D03*
D526*
X033914Y022233D03*
D527*
X033914Y022234D03*
D528*
X033914Y022236D03*
X033914Y022237D03*
D529*
X033914Y022239D03*
X033914Y022240D03*
D530*
X033914Y022242D03*
D531*
X033914Y022243D03*
D532*
X033914Y022245D03*
X033911Y022318D03*
D533*
X033911Y022315D03*
X033914Y022246D03*
D534*
X033913Y022248D03*
X033910Y022314D03*
D535*
X033911Y022312D03*
X033914Y022249D03*
D536*
X033914Y022251D03*
X033911Y022309D03*
D537*
X033914Y022252D03*
D538*
X033914Y022254D03*
X033911Y022308D03*
D539*
X033914Y022255D03*
D540*
X033914Y022257D03*
D541*
X033914Y022258D03*
X033914Y022260D03*
D542*
X033914Y022261D03*
X033910Y022303D03*
D543*
X033914Y022263D03*
D544*
X033914Y022264D03*
D545*
X033914Y022266D03*
D546*
X033914Y022267D03*
X033910Y022296D03*
D547*
X033911Y022294D03*
X033914Y022269D03*
D548*
X033914Y022270D03*
D549*
X033914Y022272D03*
D550*
X033914Y022273D03*
D551*
X033914Y022275D03*
X033914Y022276D03*
D552*
X033914Y022278D03*
X033914Y022279D03*
X033911Y022290D03*
D553*
X033910Y022288D03*
X033911Y022284D03*
X033911Y022282D03*
X033913Y022281D03*
D554*
X033911Y022285D03*
D555*
X033911Y022287D03*
D556*
X033910Y022291D03*
D557*
X033911Y022293D03*
D558*
X033910Y022297D03*
X033910Y022299D03*
D559*
X033910Y022300D03*
D560*
X033910Y022302D03*
D561*
X033910Y022305D03*
D562*
X033911Y022306D03*
D563*
X033910Y022311D03*
D564*
X033911Y022317D03*
D565*
X033911Y022320D03*
D566*
X033911Y022321D03*
D567*
X033911Y022323D03*
D568*
X033911Y022324D03*
D569*
X033910Y022326D03*
D570*
X033911Y022327D03*
D571*
X033910Y022329D03*
D572*
X033911Y022330D03*
D573*
X033911Y022332D03*
D574*
X033911Y022338D03*
D575*
X033911Y022341D03*
D576*
X033911Y022342D03*
D577*
X033911Y022344D03*
D578*
X033911Y022347D03*
D579*
X033911Y022348D03*
D580*
X033911Y022350D03*
D581*
X033911Y022353D03*
D582*
X033911Y022359D03*
D583*
X033912Y022362D03*
D584*
X033912Y022363D03*
D585*
X033912Y022365D03*
D586*
X033911Y022366D03*
D587*
X033911Y022368D03*
D588*
X033911Y022369D03*
D589*
X033911Y022371D03*
D590*
X033911Y022372D03*
D591*
X033912Y022374D03*
D592*
X033912Y022375D03*
D593*
X033913Y022377D03*
D594*
X033912Y022378D03*
D595*
X033912Y022380D03*
D596*
X033911Y022381D03*
D597*
X033911Y022383D03*
D598*
X033912Y022384D03*
D599*
X033911Y022386D03*
D600*
X033912Y022387D03*
D601*
X033912Y022389D03*
D602*
X033913Y022390D03*
D603*
X033913Y022392D03*
D604*
X033912Y022393D03*
D605*
X033912Y022395D03*
D606*
X033911Y022396D03*
D607*
X033911Y022398D03*
X033911Y022399D03*
D608*
X033911Y022401D03*
D609*
X033913Y022402D03*
D610*
X033913Y022404D03*
X033913Y022405D03*
D611*
X033913Y022407D03*
D612*
X033913Y022408D03*
D613*
X033912Y022410D03*
D614*
X033912Y022411D03*
X033912Y022413D03*
D615*
X033912Y022414D03*
D616*
X033912Y022416D03*
D617*
X033913Y022417D03*
D618*
X033913Y022419D03*
X033913Y022420D03*
D619*
X033913Y022422D03*
D620*
X033913Y022423D03*
D621*
X033912Y022425D03*
D622*
X033912Y022426D03*
X033912Y022428D03*
D623*
X033912Y022429D03*
D624*
X033913Y022431D03*
D625*
X033913Y022432D03*
D626*
X033914Y022434D03*
D627*
X033914Y022435D03*
D628*
X033913Y022437D03*
D629*
X033913Y022438D03*
D630*
X033912Y022440D03*
D631*
X033913Y022441D03*
D632*
X033913Y022443D03*
D633*
X033913Y022444D03*
D634*
X033914Y022446D03*
D635*
X033914Y022447D03*
X033914Y022449D03*
D636*
X033914Y022450D03*
D637*
X033913Y022452D03*
D638*
X033913Y022453D03*
D639*
X033913Y022455D03*
D640*
X033914Y022456D03*
D641*
X033914Y022458D03*
X033915Y022506D03*
D642*
X033914Y022459D03*
D643*
X033914Y022461D03*
X033915Y022504D03*
D644*
X033914Y022464D03*
X033914Y022462D03*
D645*
X033914Y022465D03*
D646*
X033913Y022467D03*
D647*
X033913Y022468D03*
D648*
X033914Y022470D03*
D649*
X033913Y022471D03*
X033914Y022495D03*
D650*
X033914Y022473D03*
D651*
X033914Y022474D03*
X033915Y022492D03*
D652*
X033914Y022491D03*
X033914Y022489D03*
X033914Y022480D03*
X033914Y022479D03*
X033914Y022477D03*
X033914Y022476D03*
D653*
X033915Y022482D03*
D654*
X033915Y022483D03*
X033915Y022485D03*
X033915Y022486D03*
X033915Y022488D03*
D655*
X033914Y022494D03*
D656*
X033915Y022497D03*
D657*
X033915Y022498D03*
D658*
X033914Y022500D03*
D659*
X033914Y022501D03*
D660*
X033914Y022503D03*
D661*
X033914Y022507D03*
D662*
X033914Y022509D03*
D663*
X034433Y022519D03*
X033389Y022510D03*
D664*
X034091Y022510D03*
D665*
X033388Y022512D03*
D666*
X034092Y022512D03*
D667*
X033387Y022513D03*
D668*
X034094Y022513D03*
D669*
X034430Y022515D03*
D670*
X033913Y022516D03*
D671*
X034433Y022516D03*
D672*
X034435Y022528D03*
X033913Y022588D03*
X033386Y022518D03*
D673*
X034433Y022518D03*
D674*
X033386Y022521D03*
D675*
X033913Y022521D03*
D676*
X034433Y022521D03*
D677*
X033386Y022522D03*
D678*
X034433Y022522D03*
D679*
X033385Y022524D03*
D680*
X033914Y022524D03*
D681*
X034434Y022524D03*
D682*
X034436Y022534D03*
X033385Y022525D03*
D683*
X033384Y022527D03*
X033914Y022647D03*
D684*
X033914Y022527D03*
D685*
X033913Y022587D03*
X034435Y022527D03*
D686*
X033913Y022528D03*
D687*
X033913Y022668D03*
X033913Y022669D03*
X033913Y022671D03*
X034438Y022540D03*
X033383Y022531D03*
D688*
X033914Y022531D03*
D689*
X033912Y022603D03*
X033912Y022605D03*
X033912Y022606D03*
X033912Y022608D03*
X033912Y022609D03*
X034436Y022531D03*
D690*
X033914Y022680D03*
X033914Y022681D03*
X033914Y022683D03*
X033383Y022533D03*
D691*
X033914Y022533D03*
D692*
X034436Y022533D03*
D693*
X033914Y022710D03*
X033914Y022711D03*
X033914Y022713D03*
X033382Y022536D03*
D694*
X033914Y022536D03*
D695*
X033913Y022656D03*
X033913Y022657D03*
X033913Y022659D03*
X034438Y022537D03*
D696*
X034440Y022546D03*
X033914Y022720D03*
X033381Y022539D03*
D697*
X033380Y022542D03*
X033914Y022737D03*
D698*
X033914Y022542D03*
D699*
X034439Y022542D03*
D700*
X033380Y022545D03*
D701*
X033380Y022548D03*
X033915Y022780D03*
X033915Y022783D03*
D702*
X033915Y022786D03*
X033915Y022788D03*
X033915Y022789D03*
X033380Y022549D03*
D703*
X034441Y022549D03*
D704*
X033916Y022800D03*
X033379Y022551D03*
D705*
X033914Y022735D03*
X033914Y022738D03*
X033914Y022740D03*
X034441Y022551D03*
D706*
X033915Y022813D03*
X033378Y022552D03*
D707*
X033915Y022756D03*
X033915Y022758D03*
X033915Y022759D03*
X033915Y022761D03*
X033915Y022762D03*
X034442Y022552D03*
D708*
X033378Y022554D03*
D709*
X033377Y022555D03*
X033916Y022819D03*
D710*
X033377Y022557D03*
D711*
X034443Y022557D03*
D712*
X034445Y022566D03*
X033377Y022558D03*
D713*
X033377Y022560D03*
X033915Y022822D03*
D714*
X033915Y022810D03*
X033915Y022809D03*
X033915Y022807D03*
X033915Y022806D03*
X033915Y022804D03*
X033915Y022803D03*
X033915Y022801D03*
X034443Y022560D03*
D715*
X034445Y022569D03*
X033916Y022824D03*
X033376Y022561D03*
D716*
X033916Y022815D03*
X033916Y022816D03*
X034444Y022561D03*
D717*
X033914Y022563D03*
D718*
X033376Y022564D03*
D719*
X033914Y022564D03*
D720*
X033916Y022821D03*
X034445Y022564D03*
D721*
X033375Y022566D03*
D722*
X033914Y022566D03*
D723*
X033914Y022567D03*
D724*
X034445Y022567D03*
D725*
X033917Y022828D03*
X033374Y022569D03*
D726*
X033914Y022569D03*
D727*
X033914Y022570D03*
D728*
X034446Y022570D03*
D729*
X033374Y022572D03*
D730*
X033914Y022572D03*
D731*
X034447Y022572D03*
D732*
X033915Y022573D03*
D733*
X034448Y022573D03*
D734*
X033915Y022575D03*
D735*
X033915Y022576D03*
D736*
X033373Y022578D03*
D737*
X033915Y022578D03*
D738*
X034448Y022578D03*
D739*
X034450Y022585D03*
X033373Y022579D03*
D740*
X033915Y022579D03*
D741*
X033372Y022581D03*
D742*
X033914Y022581D03*
D743*
X033372Y022584D03*
D744*
X033914Y022584D03*
D745*
X034449Y022584D03*
D746*
X033371Y022585D03*
D747*
X033371Y022587D03*
D748*
X033371Y022588D03*
D749*
X033371Y022590D03*
X034451Y022596D03*
D750*
X034450Y022590D03*
D751*
X034451Y022597D03*
X033371Y022591D03*
D752*
X033913Y022591D03*
X033913Y022593D03*
X033913Y022594D03*
D753*
X034450Y022591D03*
D754*
X034451Y022593D03*
D755*
X033371Y022594D03*
D756*
X034451Y022594D03*
D757*
X033370Y022596D03*
D758*
X033371Y022597D03*
X034452Y022603D03*
D759*
X033371Y022599D03*
D760*
X033371Y022600D03*
D761*
X033370Y022602D03*
D762*
X033911Y022602D03*
D763*
X034452Y022602D03*
D764*
X033369Y022605D03*
D765*
X034453Y022608D03*
D766*
X033368Y022609D03*
D767*
X034453Y022609D03*
D768*
X033913Y022611D03*
D769*
X033368Y022614D03*
D770*
X033913Y022615D03*
X033913Y022618D03*
D771*
X033368Y022617D03*
D772*
X033913Y022617D03*
D773*
X034454Y022617D03*
D774*
X033368Y022621D03*
D775*
X034455Y022623D03*
D776*
X033367Y022624D03*
D777*
X034456Y022624D03*
D778*
X033367Y022630D03*
D779*
X033366Y022632D03*
D780*
X033914Y022632D03*
D781*
X034456Y022632D03*
D782*
X034457Y022633D03*
D783*
X033365Y022635D03*
D784*
X034457Y022635D03*
D785*
X034457Y022642D03*
X033365Y022636D03*
D786*
X034457Y022636D03*
D787*
X033365Y022638D03*
D788*
X034457Y022638D03*
D789*
X033914Y022641D03*
X033914Y022642D03*
X033914Y022644D03*
X033914Y022645D03*
X033914Y022648D03*
D790*
X034457Y022641D03*
D791*
X034458Y022648D03*
X033365Y022642D03*
D792*
X034458Y022644D03*
D793*
X034458Y022647D03*
D794*
X033913Y022650D03*
D795*
X034459Y022650D03*
D796*
X034461Y022651D03*
D797*
X033913Y022662D03*
D798*
X033914Y022672D03*
X033914Y022674D03*
X033914Y022675D03*
D799*
X033914Y022677D03*
D800*
X033914Y022678D03*
D801*
X033914Y022684D03*
X033914Y022686D03*
X033914Y022687D03*
X033914Y022689D03*
X033914Y022690D03*
X033914Y022693D03*
X033914Y022695D03*
D802*
X033914Y022692D03*
D803*
X033914Y022708D03*
D804*
X033914Y022722D03*
D805*
X033914Y022726D03*
D806*
X033914Y022728D03*
X033914Y022729D03*
X033914Y022731D03*
X033914Y022732D03*
D807*
X033915Y022767D03*
D808*
X033914Y022773D03*
D809*
X033916Y022779D03*
D810*
X033915Y022782D03*
D811*
X033915Y022797D03*
D812*
X033915Y022812D03*
D813*
X033917Y022827D03*
D814*
X033908Y022831D03*
D815*
X033945Y026427D02*
X034185Y026427D01*
X034065Y026427D02*
X034065Y026788D01*
X033945Y026667D01*
X033817Y026788D02*
X033576Y026547D01*
X033636Y026607D02*
X033817Y026427D01*
X033576Y026427D02*
X033576Y026788D01*
X021303Y023932D02*
X021063Y023932D01*
X021243Y024113D01*
X021243Y023752D01*
X020935Y023752D02*
X020695Y023752D01*
X020935Y023992D01*
X020935Y024053D01*
X020875Y024113D01*
X020755Y024113D01*
X020695Y024053D01*
X020567Y024053D02*
X020567Y023932D01*
X020506Y023872D01*
X020326Y023872D01*
X020326Y023752D02*
X020326Y024113D01*
X020506Y024113D01*
X020567Y024053D01*
X020446Y023872D02*
X020567Y023752D01*
X020557Y026452D02*
X020436Y026572D01*
X020376Y026452D02*
X020316Y026512D01*
X020316Y026753D01*
X020376Y026813D01*
X020496Y026813D01*
X020557Y026753D01*
X020557Y026512D01*
X020496Y026452D01*
X020376Y026452D01*
X020685Y026632D02*
X020925Y026632D01*
X020865Y026452D02*
X020865Y026813D01*
X020685Y026632D01*
X020628Y027659D02*
X020688Y027719D01*
X020688Y027959D01*
X020628Y028019D01*
X020448Y028019D01*
X020448Y027659D01*
X020628Y027659D01*
X020816Y027839D02*
X021056Y027839D01*
X020996Y028019D02*
X020816Y027839D01*
X020996Y027659D02*
X020996Y028019D01*
X019728Y028353D02*
X019488Y028112D01*
X019488Y028052D01*
X019360Y028052D02*
X019120Y028052D01*
X019360Y028292D01*
X019360Y028353D01*
X019300Y028413D01*
X019180Y028413D01*
X019120Y028353D01*
X018992Y028353D02*
X018992Y028232D01*
X018931Y028172D01*
X018751Y028172D01*
X018751Y028052D02*
X018751Y028413D01*
X018931Y028413D01*
X018992Y028353D01*
X018871Y028172D02*
X018992Y028052D01*
X019488Y028413D02*
X019728Y028413D01*
X019728Y028353D01*
X015003Y028362D02*
X014943Y028302D01*
X014823Y028302D01*
X014763Y028362D01*
X014763Y028422D01*
X014823Y028482D01*
X014943Y028482D01*
X015003Y028422D01*
X015003Y028362D01*
X014943Y028482D02*
X015003Y028542D01*
X015003Y028603D01*
X014943Y028663D01*
X014823Y028663D01*
X014763Y028603D01*
X014763Y028542D01*
X014823Y028482D01*
X014635Y028542D02*
X014635Y028603D01*
X014575Y028663D01*
X014455Y028663D01*
X014395Y028603D01*
X014267Y028603D02*
X014267Y028482D01*
X014206Y028422D01*
X014026Y028422D01*
X014026Y028302D02*
X014026Y028663D01*
X014206Y028663D01*
X014267Y028603D01*
X014146Y028422D02*
X014267Y028302D01*
X014395Y028302D02*
X014635Y028542D01*
X014635Y028302D02*
X014395Y028302D01*
X013195Y028271D02*
X013135Y028331D01*
X013015Y028331D01*
X012955Y028271D01*
X012827Y028271D02*
X012767Y028331D01*
X012587Y028331D01*
X012587Y027971D01*
X012767Y027971D01*
X012827Y028031D01*
X012827Y028271D01*
X012955Y027971D02*
X013195Y028211D01*
X013195Y028271D01*
X013195Y027971D02*
X012955Y027971D01*
X012581Y027494D02*
X012341Y027494D01*
X012341Y027314D01*
X012461Y027374D01*
X012521Y027374D01*
X012581Y027314D01*
X012581Y027194D01*
X012521Y027134D01*
X012401Y027134D01*
X012341Y027194D01*
X012213Y027194D02*
X012213Y027434D01*
X012153Y027494D01*
X011973Y027494D01*
X011973Y027134D01*
X012153Y027134D01*
X012213Y027194D01*
X012218Y027971D02*
X012458Y027971D01*
X012218Y027971D02*
X012218Y028031D01*
X012458Y028271D01*
X012458Y028331D01*
X012218Y028331D01*
X010738Y028802D02*
X010678Y028742D01*
X010558Y028742D01*
X010498Y028802D01*
X010738Y029043D01*
X010738Y028802D01*
X010498Y028802D02*
X010498Y029043D01*
X010558Y029103D01*
X010678Y029103D01*
X010738Y029043D01*
X010370Y029043D02*
X010310Y029103D01*
X010190Y029103D01*
X010130Y029043D01*
X010002Y029043D02*
X009941Y029103D01*
X009821Y029103D01*
X009761Y029043D01*
X009761Y028802D01*
X009821Y028742D01*
X009941Y028742D01*
X010002Y028802D01*
X010130Y028742D02*
X010370Y028982D01*
X010370Y029043D01*
X010370Y028742D02*
X010130Y028742D01*
X008150Y028463D02*
X008030Y028403D01*
X007910Y028282D01*
X008090Y028282D01*
X008150Y028222D01*
X008150Y028162D01*
X008090Y028102D01*
X007970Y028102D01*
X007910Y028162D01*
X007910Y028282D01*
X007782Y028162D02*
X007782Y028403D01*
X007721Y028463D01*
X007601Y028463D01*
X007541Y028403D01*
X007541Y028162D01*
X007601Y028102D01*
X007721Y028102D01*
X007782Y028162D01*
X007782Y028102D02*
X007661Y028222D01*
X007726Y027113D02*
X007906Y027113D01*
X007967Y027053D01*
X007967Y026932D01*
X007906Y026872D01*
X007726Y026872D01*
X007726Y026752D02*
X007726Y027113D01*
X007846Y026872D02*
X007967Y026752D01*
X008095Y026812D02*
X008155Y026752D01*
X008275Y026752D01*
X008335Y026812D01*
X008335Y026872D01*
X008275Y026932D01*
X008215Y026932D01*
X008275Y026932D02*
X008335Y026992D01*
X008335Y027053D01*
X008275Y027113D01*
X008155Y027113D01*
X008095Y027053D01*
X008463Y027053D02*
X008463Y026812D01*
X008703Y027053D01*
X008703Y026812D01*
X008643Y026752D01*
X008523Y026752D01*
X008463Y026812D01*
X008463Y027053D02*
X008523Y027113D01*
X008643Y027113D01*
X008703Y027053D01*
X007258Y026463D02*
X007258Y026102D01*
X007138Y026102D02*
X007378Y026102D01*
X007138Y026342D02*
X007258Y026463D01*
X007010Y026463D02*
X006770Y026222D01*
X006830Y026282D02*
X007010Y026102D01*
X006770Y026102D02*
X006770Y026463D01*
X006642Y026403D02*
X006642Y026162D01*
X006581Y026102D01*
X006461Y026102D01*
X006401Y026162D01*
X006401Y026403D01*
X006461Y026463D01*
X006581Y026463D01*
X006642Y026403D01*
X005100Y026013D02*
X004860Y026013D01*
X004860Y025832D01*
X004980Y025892D01*
X005040Y025892D01*
X005100Y025832D01*
X005100Y025712D01*
X005040Y025652D01*
X004920Y025652D01*
X004860Y025712D01*
X004732Y025712D02*
X004671Y025652D01*
X004551Y025652D01*
X004491Y025712D01*
X004491Y025953D01*
X004551Y026013D01*
X004671Y026013D01*
X004732Y025953D01*
X004732Y025712D01*
X004732Y025652D02*
X004611Y025772D01*
X004598Y023438D02*
X004538Y023378D01*
X004538Y023317D01*
X004598Y023257D01*
X004778Y023257D01*
X004778Y023137D02*
X004778Y023378D01*
X004718Y023438D01*
X004598Y023438D01*
X004410Y023378D02*
X004350Y023438D01*
X004230Y023438D01*
X004170Y023378D01*
X004042Y023378D02*
X004042Y023257D01*
X003981Y023197D01*
X003801Y023197D01*
X003801Y023077D02*
X003801Y023438D01*
X003981Y023438D01*
X004042Y023378D01*
X003921Y023197D02*
X004042Y023077D01*
X004170Y023077D02*
X004410Y023317D01*
X004410Y023378D01*
X004538Y023137D02*
X004598Y023077D01*
X004718Y023077D01*
X004778Y023137D01*
X004410Y023077D02*
X004170Y023077D01*
X006051Y023202D02*
X006051Y023563D01*
X006231Y023563D01*
X006292Y023503D01*
X006292Y023382D01*
X006231Y023322D01*
X006051Y023322D01*
X006171Y023322D02*
X006292Y023202D01*
X006420Y023202D02*
X006660Y023442D01*
X006660Y023503D01*
X006600Y023563D01*
X006480Y023563D01*
X006420Y023503D01*
X006420Y023202D02*
X006660Y023202D01*
X006788Y023262D02*
X006848Y023202D01*
X006968Y023202D01*
X007028Y023262D01*
X007028Y023382D01*
X006968Y023442D01*
X006908Y023442D01*
X006788Y023382D01*
X006788Y023563D01*
X007028Y023563D01*
X006998Y022788D02*
X007118Y022788D01*
X007178Y022728D01*
X006938Y022487D01*
X006998Y022427D01*
X007118Y022427D01*
X007178Y022487D01*
X007178Y022728D01*
X006998Y022788D02*
X006938Y022728D01*
X006938Y022487D01*
X006810Y022427D02*
X006570Y022427D01*
X006690Y022427D02*
X006690Y022788D01*
X006570Y022667D01*
X006442Y022607D02*
X006381Y022547D01*
X006201Y022547D01*
X006201Y022427D02*
X006201Y022788D01*
X006381Y022788D01*
X006442Y022728D01*
X006442Y022607D01*
X006321Y022547D02*
X006442Y022427D01*
X007261Y021013D02*
X007201Y020953D01*
X007201Y020712D01*
X007261Y020652D01*
X007381Y020652D01*
X007442Y020712D01*
X007570Y020652D02*
X007810Y020892D01*
X007810Y020953D01*
X007750Y021013D01*
X007630Y021013D01*
X007570Y020953D01*
X007442Y020953D02*
X007381Y021013D01*
X007261Y021013D01*
X007570Y020652D02*
X007810Y020652D01*
X007951Y019829D02*
X008311Y019829D01*
X008311Y019709D02*
X008311Y019949D01*
X008071Y019709D02*
X007951Y019829D01*
X008011Y019581D02*
X007951Y019521D01*
X007951Y019401D01*
X008011Y019341D01*
X008251Y019341D01*
X008311Y019401D01*
X008311Y019521D01*
X008251Y019581D01*
X009071Y019487D02*
X009131Y019427D01*
X009252Y019427D01*
X009312Y019487D01*
X009440Y019427D02*
X009680Y019427D01*
X009560Y019427D02*
X009560Y019788D01*
X009440Y019667D01*
X009312Y019728D02*
X009252Y019788D01*
X009131Y019788D01*
X009071Y019728D01*
X009071Y019487D01*
X009808Y019487D02*
X009868Y019427D01*
X009988Y019427D01*
X010048Y019487D01*
X010048Y019547D01*
X009988Y019607D01*
X009868Y019607D01*
X009808Y019667D01*
X009808Y019728D01*
X009868Y019788D01*
X009988Y019788D01*
X010048Y019728D01*
X010048Y019667D01*
X009988Y019607D01*
X009868Y019607D02*
X009808Y019547D01*
X009808Y019487D01*
X006861Y019101D02*
X006861Y018981D01*
X006801Y018921D01*
X006861Y018792D02*
X006741Y018672D01*
X006741Y018732D02*
X006741Y018552D01*
X006861Y018552D02*
X006501Y018552D01*
X006501Y018732D01*
X006561Y018792D01*
X006681Y018792D01*
X006741Y018732D01*
X006561Y018921D02*
X006501Y018981D01*
X006501Y019101D01*
X006561Y019161D01*
X006621Y019161D01*
X006681Y019101D01*
X006741Y019161D01*
X006801Y019161D01*
X006861Y019101D01*
X006681Y019101D02*
X006681Y019041D01*
X006260Y020377D02*
X006020Y020377D01*
X006140Y020377D02*
X006140Y020738D01*
X006020Y020617D01*
X005892Y020557D02*
X005831Y020497D01*
X005651Y020497D01*
X005651Y020377D02*
X005651Y020738D01*
X005831Y020738D01*
X005892Y020678D01*
X005892Y020557D01*
X005771Y020497D02*
X005892Y020377D01*
X008976Y023777D02*
X008976Y024138D01*
X009156Y024138D01*
X009217Y024078D01*
X009217Y023957D01*
X009156Y023897D01*
X008976Y023897D01*
X009096Y023897D02*
X009217Y023777D01*
X009345Y023777D02*
X009585Y024017D01*
X009585Y024078D01*
X009525Y024138D01*
X009405Y024138D01*
X009345Y024078D01*
X009345Y023777D02*
X009585Y023777D01*
X009713Y023837D02*
X009773Y023777D01*
X009893Y023777D01*
X009953Y023837D01*
X009953Y023897D01*
X009893Y023957D01*
X009713Y023957D01*
X009713Y023837D01*
X009713Y023957D02*
X009833Y024078D01*
X009953Y024138D01*
X012076Y024157D02*
X012076Y024037D01*
X012136Y023977D01*
X012376Y023977D01*
X012436Y024037D01*
X012436Y024157D01*
X012376Y024217D01*
X012436Y024346D02*
X012436Y024586D01*
X012436Y024466D02*
X012076Y024466D01*
X012196Y024346D01*
X012136Y024217D02*
X012076Y024157D01*
X012136Y024714D02*
X012196Y024714D01*
X012256Y024774D01*
X012256Y024954D01*
X012376Y024954D02*
X012136Y024954D01*
X012076Y024894D01*
X012076Y024774D01*
X012136Y024714D01*
X012376Y024714D02*
X012436Y024774D01*
X012436Y024894D01*
X012376Y024954D01*
X022836Y014038D02*
X022776Y013978D01*
X022776Y013737D01*
X022836Y013677D01*
X022956Y013677D01*
X023017Y013737D01*
X023145Y013737D02*
X023145Y013797D01*
X023205Y013857D01*
X023325Y013857D01*
X023385Y013797D01*
X023385Y013737D01*
X023325Y013677D01*
X023205Y013677D01*
X023145Y013737D01*
X023205Y013857D02*
X023145Y013917D01*
X023145Y013978D01*
X023205Y014038D01*
X023325Y014038D01*
X023385Y013978D01*
X023385Y013917D01*
X023325Y013857D01*
X023017Y013978D02*
X022956Y014038D01*
X022836Y014038D01*
X024251Y014038D02*
X024251Y013677D01*
X024251Y013797D02*
X024431Y013797D01*
X024492Y013857D01*
X024492Y013978D01*
X024431Y014038D01*
X024251Y014038D01*
X024371Y013797D02*
X024492Y013677D01*
X024620Y013677D02*
X024860Y013677D01*
X024740Y013677D02*
X024740Y014038D01*
X024620Y013917D01*
X024988Y013917D02*
X025048Y013857D01*
X025228Y013857D01*
X025228Y013737D02*
X025228Y013978D01*
X025168Y014038D01*
X025048Y014038D01*
X024988Y013978D01*
X024988Y013917D01*
X024988Y013737D02*
X025048Y013677D01*
X025168Y013677D01*
X025228Y013737D01*
X026526Y013028D02*
X026526Y012787D01*
X026586Y012727D01*
X026706Y012727D01*
X026767Y012787D01*
X026895Y012787D02*
X026955Y012727D01*
X027075Y012727D01*
X027135Y012787D01*
X027135Y013028D01*
X027075Y013088D01*
X026955Y013088D01*
X026895Y013028D01*
X026895Y012967D01*
X026955Y012907D01*
X027135Y012907D01*
X026767Y013028D02*
X026706Y013088D01*
X026586Y013088D01*
X026526Y013028D01*
X026256Y011387D02*
X026256Y011180D01*
X026101Y011335D01*
X026411Y011335D01*
X026411Y011065D02*
X026411Y010858D01*
X026411Y010961D02*
X026101Y010961D01*
X026204Y010858D01*
X026153Y010742D02*
X026101Y010691D01*
X026101Y010587D01*
X026153Y010535D01*
X026360Y010535D01*
X026411Y010587D01*
X026411Y010691D01*
X026360Y010742D01*
X026496Y009964D02*
X026556Y009964D01*
X026616Y009904D01*
X026676Y009964D01*
X026736Y009964D01*
X026796Y009904D01*
X026796Y009784D01*
X026736Y009724D01*
X026796Y009596D02*
X026796Y009356D01*
X026556Y009596D01*
X026496Y009596D01*
X026436Y009536D01*
X026436Y009416D01*
X026496Y009356D01*
X026496Y009228D02*
X026616Y009228D01*
X026676Y009167D01*
X026676Y008987D01*
X026796Y008987D02*
X026436Y008987D01*
X026436Y009167D01*
X026496Y009228D01*
X026676Y009107D02*
X026796Y009228D01*
X026496Y009724D02*
X026436Y009784D01*
X026436Y009904D01*
X026496Y009964D01*
X026616Y009904D02*
X026616Y009844D01*
X026511Y008304D02*
X026751Y008064D01*
X026811Y008064D01*
X026811Y007936D02*
X026811Y007696D01*
X026811Y007816D02*
X026451Y007816D01*
X026571Y007696D01*
X026511Y007567D02*
X026451Y007507D01*
X026451Y007387D01*
X026511Y007327D01*
X026751Y007327D01*
X026811Y007387D01*
X026811Y007507D01*
X026751Y007567D01*
X026451Y008064D02*
X026451Y008304D01*
X026511Y008304D01*
X028526Y008312D02*
X028526Y008487D01*
X028584Y008546D01*
X028701Y008546D01*
X028760Y008487D01*
X028760Y008312D01*
X028876Y008312D02*
X028526Y008312D01*
X028760Y008429D02*
X028876Y008546D01*
X028876Y008671D02*
X028643Y008905D01*
X028584Y008905D01*
X028526Y008847D01*
X028526Y008730D01*
X028584Y008671D01*
X028876Y008671D02*
X028876Y008905D01*
X028818Y009030D02*
X028584Y009264D01*
X028818Y009264D01*
X028876Y009206D01*
X028876Y009089D01*
X028818Y009030D01*
X028584Y009030D01*
X028526Y009089D01*
X028526Y009206D01*
X028584Y009264D01*
X028436Y010552D02*
X028076Y010552D01*
X028076Y010732D01*
X028136Y010792D01*
X028256Y010792D01*
X028316Y010732D01*
X028316Y010552D01*
X028316Y010672D02*
X028436Y010792D01*
X028436Y010921D02*
X028196Y011161D01*
X028136Y011161D01*
X028076Y011101D01*
X028076Y010981D01*
X028136Y010921D01*
X028436Y010921D02*
X028436Y011161D01*
X028436Y011289D02*
X028436Y011529D01*
X028436Y011409D02*
X028076Y011409D01*
X028196Y011289D01*
X029687Y014018D02*
X029927Y014018D01*
X030055Y014018D02*
X030295Y014018D01*
X030423Y014018D02*
X030604Y014018D01*
X030664Y014078D01*
X030664Y014318D01*
X030604Y014379D01*
X030423Y014379D01*
X030423Y014018D01*
X030175Y014198D02*
X030055Y014198D01*
X030055Y014018D02*
X030055Y014379D01*
X030295Y014379D01*
X030792Y014318D02*
X030852Y014379D01*
X030972Y014379D01*
X031032Y014318D01*
X031032Y014258D01*
X030972Y014198D01*
X031032Y014138D01*
X031032Y014078D01*
X030972Y014018D01*
X030852Y014018D01*
X030792Y014078D01*
X030912Y014198D02*
X030972Y014198D01*
X031351Y014147D02*
X031531Y014147D01*
X031592Y014207D01*
X031592Y014328D01*
X031531Y014388D01*
X031351Y014388D01*
X031351Y014027D01*
X031471Y014147D02*
X031592Y014027D01*
X031720Y014027D02*
X031960Y014027D01*
X031840Y014027D02*
X031840Y014388D01*
X031720Y014267D01*
X032088Y014267D02*
X032208Y014388D01*
X032208Y014027D01*
X032088Y014027D02*
X032328Y014027D01*
X029687Y014018D02*
X029687Y014379D01*
X024660Y011463D02*
X024540Y011403D01*
X024420Y011282D01*
X024600Y011282D01*
X024660Y011222D01*
X024660Y011162D01*
X024600Y011102D01*
X024480Y011102D01*
X024420Y011162D01*
X024420Y011282D01*
X024292Y011162D02*
X024231Y011102D01*
X024111Y011102D01*
X024051Y011162D01*
X024051Y011403D01*
X024111Y011463D01*
X024231Y011463D01*
X024292Y011403D01*
X023983Y009463D02*
X023863Y009342D01*
X023983Y009463D02*
X023983Y009102D01*
X023863Y009102D02*
X024103Y009102D01*
X023735Y009102D02*
X023495Y009102D01*
X023615Y009102D02*
X023615Y009463D01*
X023495Y009342D01*
X023367Y009403D02*
X023306Y009463D01*
X023186Y009463D01*
X023126Y009403D01*
X023126Y009162D01*
X023186Y009102D01*
X023306Y009102D01*
X023367Y009162D01*
X024086Y007088D02*
X024026Y007028D01*
X024026Y006787D01*
X024086Y006727D01*
X024206Y006727D01*
X024267Y006787D01*
X024395Y006787D02*
X024635Y007028D01*
X024635Y007088D01*
X024395Y007088D01*
X024267Y007028D02*
X024206Y007088D01*
X024086Y007088D01*
X024395Y006787D02*
X024395Y006727D01*
X023251Y005624D02*
X023311Y005564D01*
X023311Y005444D01*
X023251Y005384D01*
X023131Y005384D02*
X023071Y005504D01*
X023071Y005564D01*
X023131Y005624D01*
X023251Y005624D01*
X023131Y005384D02*
X022951Y005384D01*
X022951Y005624D01*
X022586Y005539D02*
X022526Y005599D01*
X022466Y005599D01*
X022406Y005539D01*
X022406Y005359D01*
X022526Y005359D01*
X022586Y005419D01*
X022586Y005539D01*
X022406Y005359D02*
X022286Y005479D01*
X022226Y005599D01*
X021786Y005539D02*
X021786Y005419D01*
X021726Y005359D01*
X021786Y005231D02*
X021786Y004991D01*
X021786Y005111D02*
X021426Y005111D01*
X021546Y004991D01*
X021486Y004863D02*
X021426Y004802D01*
X021426Y004682D01*
X021486Y004622D01*
X021726Y004622D01*
X021786Y004682D01*
X021786Y004802D01*
X021726Y004863D01*
X022226Y004802D02*
X022286Y004863D01*
X022406Y004863D01*
X022466Y004802D01*
X022466Y004622D01*
X022586Y004622D02*
X022226Y004622D01*
X022226Y004802D01*
X022346Y004991D02*
X022226Y005111D01*
X022586Y005111D01*
X022586Y004991D02*
X022586Y005231D01*
X022586Y004863D02*
X022466Y004742D01*
X022951Y004827D02*
X023011Y004888D01*
X023131Y004888D01*
X023191Y004827D01*
X023191Y004647D01*
X023311Y004647D02*
X022951Y004647D01*
X022951Y004827D01*
X023071Y005016D02*
X022951Y005136D01*
X023311Y005136D01*
X023311Y005016D02*
X023311Y005256D01*
X023311Y004888D02*
X023191Y004767D01*
X021786Y005539D02*
X021726Y005599D01*
X021666Y005599D01*
X021606Y005539D01*
X021606Y005479D01*
X021606Y005539D02*
X021546Y005599D01*
X021486Y005599D01*
X021426Y005539D01*
X021426Y005419D01*
X021486Y005359D01*
X021011Y005334D02*
X020771Y005574D01*
X020711Y005574D01*
X020651Y005514D01*
X020651Y005394D01*
X020711Y005334D01*
X020651Y005086D02*
X021011Y005086D01*
X021011Y004966D02*
X021011Y005206D01*
X021011Y005334D02*
X021011Y005574D01*
X020651Y005086D02*
X020771Y004966D01*
X020711Y004838D02*
X020651Y004777D01*
X020651Y004657D01*
X020711Y004597D01*
X020951Y004597D01*
X021011Y004657D01*
X021011Y004777D01*
X020951Y004838D01*
X025551Y005012D02*
X025611Y004952D01*
X025731Y004952D01*
X025792Y005012D01*
X025920Y005012D02*
X025980Y004952D01*
X026100Y004952D01*
X026160Y005012D01*
X026160Y005132D01*
X026100Y005192D01*
X026040Y005192D01*
X025920Y005132D01*
X025920Y005313D01*
X026160Y005313D01*
X025792Y005253D02*
X025731Y005313D01*
X025611Y005313D01*
X025551Y005253D01*
X025551Y005012D01*
X028516Y006537D02*
X028516Y006717D01*
X028576Y006777D01*
X028696Y006777D01*
X028756Y006717D01*
X028756Y006537D01*
X028876Y006537D02*
X028516Y006537D01*
X028756Y006657D02*
X028876Y006777D01*
X028876Y006906D02*
X028636Y007146D01*
X028576Y007146D01*
X028516Y007086D01*
X028516Y006966D01*
X028576Y006906D01*
X028876Y006906D02*
X028876Y007146D01*
X028876Y007274D02*
X028636Y007514D01*
X028576Y007514D01*
X028516Y007454D01*
X028516Y007334D01*
X028576Y007274D01*
X028876Y007274D02*
X028876Y007514D01*
X015028Y011962D02*
X014968Y011902D01*
X014848Y011902D01*
X014788Y011962D01*
X014660Y011902D02*
X014420Y011902D01*
X014540Y011902D02*
X014540Y012263D01*
X014420Y012142D01*
X014292Y012082D02*
X014231Y012022D01*
X014051Y012022D01*
X014051Y011902D02*
X014051Y012263D01*
X014231Y012263D01*
X014292Y012203D01*
X014292Y012082D01*
X014171Y012022D02*
X014292Y011902D01*
X014788Y012203D02*
X014848Y012263D01*
X014968Y012263D01*
X015028Y012203D01*
X015028Y012142D01*
X014968Y012082D01*
X015028Y012022D01*
X015028Y011962D01*
X014968Y012082D02*
X014908Y012082D01*
X014968Y013277D02*
X014968Y013638D01*
X014788Y013457D01*
X015028Y013457D01*
X014660Y013277D02*
X014420Y013277D01*
X014540Y013277D02*
X014540Y013638D01*
X014420Y013517D01*
X014292Y013578D02*
X014292Y013457D01*
X014231Y013397D01*
X014051Y013397D01*
X014051Y013277D02*
X014051Y013638D01*
X014231Y013638D01*
X014292Y013578D01*
X014171Y013397D02*
X014292Y013277D01*
X012360Y013457D02*
X012120Y013457D01*
X012300Y013638D01*
X012300Y013277D01*
X011992Y013337D02*
X011931Y013277D01*
X011811Y013277D01*
X011751Y013337D01*
X011751Y013578D01*
X011811Y013638D01*
X011931Y013638D01*
X011992Y013578D01*
X011870Y012288D02*
X011750Y012288D01*
X011690Y012228D01*
X011690Y011987D01*
X011750Y011927D01*
X011870Y011927D01*
X011930Y011987D01*
X012058Y011987D02*
X012118Y011927D01*
X012238Y011927D01*
X012298Y011987D01*
X012298Y012047D01*
X012238Y012107D01*
X012178Y012107D01*
X012238Y012107D02*
X012298Y012167D01*
X012298Y012228D01*
X012238Y012288D01*
X012118Y012288D01*
X012058Y012228D01*
X011930Y012228D02*
X011870Y012288D01*
X011866Y011643D02*
X011686Y011643D01*
X011686Y011283D01*
X011866Y011283D01*
X011926Y011343D01*
X011926Y011583D01*
X011866Y011643D01*
X012054Y011523D02*
X012174Y011643D01*
X012174Y011283D01*
X012054Y011283D02*
X012294Y011283D01*
X012751Y010844D02*
X012811Y010904D01*
X012871Y010904D01*
X013111Y010664D01*
X013111Y010904D01*
X012751Y010844D02*
X012751Y010724D01*
X012811Y010664D01*
X012751Y010416D02*
X013111Y010416D01*
X013111Y010296D02*
X013111Y010536D01*
X012871Y010296D02*
X012751Y010416D01*
X012811Y010167D02*
X012931Y010167D01*
X012991Y010107D01*
X012991Y009927D01*
X013111Y009927D02*
X012751Y009927D01*
X012751Y010107D01*
X012811Y010167D01*
X012991Y010047D02*
X013111Y010167D01*
X012292Y009380D02*
X012172Y009380D01*
X012112Y009320D01*
X011984Y009380D02*
X011984Y009019D01*
X011864Y009140D01*
X011744Y009019D01*
X011744Y009380D01*
X011616Y009320D02*
X011555Y009380D01*
X011435Y009380D01*
X011375Y009320D01*
X011375Y009260D01*
X011435Y009200D01*
X011555Y009200D01*
X011616Y009140D01*
X011616Y009079D01*
X011555Y009019D01*
X011435Y009019D01*
X011375Y009079D01*
X012112Y009019D02*
X012352Y009260D01*
X012352Y009320D01*
X012292Y009380D01*
X012352Y009019D02*
X012112Y009019D01*
X010583Y009389D02*
X010523Y009329D01*
X010403Y009329D01*
X010343Y009389D01*
X010343Y009509D02*
X010463Y009569D01*
X010523Y009569D01*
X010583Y009509D01*
X010583Y009389D01*
X010343Y009509D02*
X010343Y009689D01*
X010583Y009689D01*
X010215Y009629D02*
X010215Y009509D01*
X010155Y009449D01*
X009975Y009449D01*
X010095Y009449D02*
X010215Y009329D01*
X009975Y009329D02*
X009975Y009689D01*
X010155Y009689D01*
X010215Y009629D01*
X009833Y009680D02*
X009713Y009620D01*
X009593Y009500D01*
X009773Y009500D01*
X009833Y009440D01*
X009833Y009380D01*
X009773Y009320D01*
X009653Y009320D01*
X009593Y009380D01*
X009593Y009500D01*
X009465Y009500D02*
X009405Y009440D01*
X009225Y009440D01*
X009345Y009440D02*
X009465Y009320D01*
X009465Y009500D02*
X009465Y009620D01*
X009405Y009680D01*
X009225Y009680D01*
X009225Y009320D01*
X008402Y009006D02*
X008162Y009006D01*
X008282Y009006D02*
X008282Y009367D01*
X008162Y009247D01*
X008034Y009367D02*
X008034Y009006D01*
X007914Y009127D01*
X007794Y009006D01*
X007794Y009367D01*
X007666Y009307D02*
X007605Y009367D01*
X007485Y009367D01*
X007425Y009307D01*
X007425Y009247D01*
X007485Y009187D01*
X007605Y009187D01*
X007666Y009127D01*
X007666Y009066D01*
X007605Y009006D01*
X007485Y009006D01*
X007425Y009066D01*
X007006Y009856D02*
X006646Y009856D01*
X007006Y009856D02*
X007006Y010096D01*
X007006Y010225D02*
X006646Y010225D01*
X006646Y010465D01*
X006646Y010593D02*
X006646Y010773D01*
X006706Y010833D01*
X006946Y010833D01*
X007006Y010773D01*
X007006Y010593D01*
X006646Y010593D01*
X006826Y010345D02*
X006826Y010225D01*
X007006Y010225D02*
X007006Y010465D01*
X007006Y010961D02*
X006766Y011201D01*
X006706Y011201D01*
X006646Y011141D01*
X006646Y011021D01*
X006706Y010961D01*
X007006Y010961D02*
X007006Y011201D01*
X010949Y011283D02*
X011189Y011283D01*
X011317Y011283D02*
X011558Y011283D01*
X011438Y011463D02*
X011317Y011463D01*
X011317Y011643D02*
X011317Y011283D01*
X011317Y011643D02*
X011558Y011643D01*
X010949Y011643D02*
X010949Y011283D01*
D816*
X012461Y010362D02*
X012459Y010317D01*
X012454Y010271D01*
X012446Y010227D01*
X012434Y010183D01*
X012418Y010140D01*
X012400Y010098D01*
X012378Y010058D01*
X012354Y010020D01*
X012327Y009984D01*
X012297Y009949D01*
X012264Y009918D01*
X012229Y009888D01*
X011261Y010362D02*
X011263Y010409D01*
X011269Y010457D01*
X011278Y010503D01*
X011291Y010549D01*
X011307Y010593D01*
X011328Y010637D01*
X011351Y010678D01*
X011377Y010717D01*
X011407Y010754D01*
X011440Y010789D01*
X011475Y010821D01*
X011512Y010850D01*
X011261Y010362D02*
X011263Y010316D01*
X011268Y010270D01*
X011277Y010224D01*
X011289Y010179D01*
X011305Y010136D01*
X011324Y010094D01*
X011347Y010053D01*
X011372Y010014D01*
X011400Y009978D01*
X011431Y009943D01*
X011465Y009911D01*
X011501Y009882D01*
X012461Y010362D02*
X012459Y010407D01*
X012454Y010453D01*
X012446Y010497D01*
X012434Y010541D01*
X012418Y010584D01*
X012400Y010626D01*
X012378Y010666D01*
X012354Y010704D01*
X012327Y010740D01*
X012297Y010775D01*
X012264Y010806D01*
X012229Y010836D01*
X014131Y011782D02*
X014131Y008982D01*
X017531Y008982D01*
X017531Y011782D01*
X014131Y011782D01*
X014531Y011682D02*
X014531Y010662D01*
X014531Y010102D02*
X014531Y009082D01*
X017131Y009082D01*
X017131Y010102D01*
X017221Y009882D02*
X017521Y009882D01*
X017371Y009732D02*
X017371Y010032D01*
X017131Y009732D02*
X016481Y009082D01*
X015231Y007785D02*
X014931Y007785D01*
X014781Y007785D02*
X014783Y007819D01*
X014789Y007853D01*
X014798Y007886D01*
X014812Y007917D01*
X014829Y007947D01*
X014849Y007975D01*
X014872Y008000D01*
X014898Y008023D01*
X014926Y008042D01*
X014956Y008058D01*
X014988Y008070D01*
X015021Y008079D01*
X015055Y008084D01*
X015090Y008085D01*
X015124Y008082D01*
X015157Y008075D01*
X015190Y008065D01*
X015221Y008050D01*
X015250Y008033D01*
X015277Y008012D01*
X015302Y007988D01*
X015324Y007961D01*
X015342Y007933D01*
X015357Y007902D01*
X015369Y007870D01*
X015377Y007836D01*
X015381Y007802D01*
X015381Y007768D01*
X015377Y007734D01*
X015369Y007700D01*
X015357Y007668D01*
X015342Y007637D01*
X015324Y007609D01*
X015302Y007582D01*
X015277Y007558D01*
X015250Y007537D01*
X015221Y007520D01*
X015190Y007505D01*
X015157Y007495D01*
X015124Y007488D01*
X015090Y007485D01*
X015055Y007486D01*
X015021Y007491D01*
X014988Y007500D01*
X014956Y007512D01*
X014926Y007528D01*
X014898Y007547D01*
X014872Y007570D01*
X014849Y007595D01*
X014829Y007623D01*
X014812Y007653D01*
X014798Y007684D01*
X014789Y007717D01*
X014783Y007751D01*
X014781Y007785D01*
X015081Y007635D02*
X015081Y007935D01*
X014188Y006982D02*
X014190Y007065D01*
X014196Y007148D01*
X014206Y007230D01*
X014221Y007312D01*
X014239Y007393D01*
X014261Y007473D01*
X014287Y007552D01*
X014317Y007630D01*
X014351Y007706D01*
X014388Y007780D01*
X014429Y007852D01*
X014473Y007923D01*
X014521Y007991D01*
X014572Y008056D01*
X014627Y008119D01*
X014684Y008179D01*
X014744Y008236D01*
X014807Y008291D01*
X014872Y008342D01*
X014940Y008390D01*
X015011Y008434D01*
X015083Y008475D01*
X015157Y008512D01*
X015233Y008546D01*
X015311Y008576D01*
X015390Y008602D01*
X015470Y008624D01*
X015551Y008642D01*
X015633Y008657D01*
X015715Y008667D01*
X015798Y008673D01*
X015881Y008675D01*
X015964Y008673D01*
X016047Y008667D01*
X016129Y008657D01*
X016211Y008642D01*
X016292Y008624D01*
X016372Y008602D01*
X016451Y008576D01*
X016529Y008546D01*
X016605Y008512D01*
X016679Y008475D01*
X016751Y008434D01*
X016822Y008390D01*
X016890Y008342D01*
X016955Y008291D01*
X017018Y008236D01*
X017078Y008179D01*
X017135Y008119D01*
X017190Y008056D01*
X017241Y007991D01*
X017289Y007923D01*
X017333Y007852D01*
X017374Y007780D01*
X017411Y007706D01*
X017445Y007630D01*
X017475Y007552D01*
X017501Y007473D01*
X017523Y007393D01*
X017541Y007312D01*
X017556Y007230D01*
X017566Y007148D01*
X017572Y007065D01*
X017574Y006982D01*
X017572Y006899D01*
X017566Y006816D01*
X017556Y006734D01*
X017541Y006652D01*
X017523Y006571D01*
X017501Y006491D01*
X017475Y006412D01*
X017445Y006334D01*
X017411Y006258D01*
X017374Y006184D01*
X017333Y006112D01*
X017289Y006041D01*
X017241Y005973D01*
X017190Y005908D01*
X017135Y005845D01*
X017078Y005785D01*
X017018Y005728D01*
X016955Y005673D01*
X016890Y005622D01*
X016822Y005574D01*
X016751Y005530D01*
X016679Y005489D01*
X016605Y005452D01*
X016529Y005418D01*
X016451Y005388D01*
X016372Y005362D01*
X016292Y005340D01*
X016211Y005322D01*
X016129Y005307D01*
X016047Y005297D01*
X015964Y005291D01*
X015881Y005289D01*
X015798Y005291D01*
X015715Y005297D01*
X015633Y005307D01*
X015551Y005322D01*
X015470Y005340D01*
X015390Y005362D01*
X015311Y005388D01*
X015233Y005418D01*
X015157Y005452D01*
X015083Y005489D01*
X015011Y005530D01*
X014940Y005574D01*
X014872Y005622D01*
X014807Y005673D01*
X014744Y005728D01*
X014684Y005785D01*
X014627Y005845D01*
X014572Y005908D01*
X014521Y005973D01*
X014473Y006041D01*
X014429Y006112D01*
X014388Y006184D01*
X014351Y006258D01*
X014317Y006334D01*
X014287Y006412D01*
X014261Y006491D01*
X014239Y006571D01*
X014221Y006652D01*
X014206Y006734D01*
X014196Y006816D01*
X014190Y006899D01*
X014188Y006982D01*
X014031Y006982D02*
X014033Y007073D01*
X014040Y007163D01*
X014051Y007253D01*
X014067Y007343D01*
X014086Y007432D01*
X014111Y007519D01*
X014139Y007605D01*
X014172Y007690D01*
X014209Y007773D01*
X014249Y007854D01*
X014294Y007933D01*
X014343Y008010D01*
X014395Y008084D01*
X014451Y008156D01*
X014510Y008224D01*
X014573Y008290D01*
X014639Y008353D01*
X014707Y008412D01*
X014779Y008468D01*
X014853Y008520D01*
X014930Y008569D01*
X015009Y008614D01*
X015090Y008654D01*
X015173Y008691D01*
X015258Y008724D01*
X015344Y008752D01*
X015431Y008777D01*
X015520Y008796D01*
X015610Y008812D01*
X015700Y008823D01*
X015790Y008830D01*
X015881Y008832D01*
X015972Y008830D01*
X016062Y008823D01*
X016152Y008812D01*
X016242Y008796D01*
X016331Y008777D01*
X016418Y008752D01*
X016504Y008724D01*
X016589Y008691D01*
X016672Y008654D01*
X016753Y008614D01*
X016832Y008569D01*
X016909Y008520D01*
X016983Y008468D01*
X017055Y008412D01*
X017123Y008353D01*
X017189Y008290D01*
X017252Y008224D01*
X017311Y008156D01*
X017367Y008084D01*
X017419Y008010D01*
X017468Y007933D01*
X017513Y007854D01*
X017553Y007773D01*
X017590Y007690D01*
X017623Y007605D01*
X017651Y007519D01*
X017676Y007432D01*
X017695Y007343D01*
X017711Y007253D01*
X017722Y007163D01*
X017729Y007073D01*
X017731Y006982D01*
X017729Y006891D01*
X017722Y006801D01*
X017711Y006711D01*
X017695Y006621D01*
X017676Y006532D01*
X017651Y006445D01*
X017623Y006359D01*
X017590Y006274D01*
X017553Y006191D01*
X017513Y006110D01*
X017468Y006031D01*
X017419Y005954D01*
X017367Y005880D01*
X017311Y005808D01*
X017252Y005740D01*
X017189Y005674D01*
X017123Y005611D01*
X017055Y005552D01*
X016983Y005496D01*
X016909Y005444D01*
X016832Y005395D01*
X016753Y005350D01*
X016672Y005310D01*
X016589Y005273D01*
X016504Y005240D01*
X016418Y005212D01*
X016331Y005187D01*
X016242Y005168D01*
X016152Y005152D01*
X016062Y005141D01*
X015972Y005134D01*
X015881Y005132D01*
X015790Y005134D01*
X015700Y005141D01*
X015610Y005152D01*
X015520Y005168D01*
X015431Y005187D01*
X015344Y005212D01*
X015258Y005240D01*
X015173Y005273D01*
X015090Y005310D01*
X015009Y005350D01*
X014930Y005395D01*
X014853Y005444D01*
X014779Y005496D01*
X014707Y005552D01*
X014639Y005611D01*
X014573Y005674D01*
X014510Y005740D01*
X014451Y005808D01*
X014395Y005880D01*
X014343Y005954D01*
X014294Y006031D01*
X014249Y006110D01*
X014209Y006191D01*
X014172Y006274D01*
X014139Y006359D01*
X014111Y006445D01*
X014086Y006532D01*
X014067Y006621D01*
X014051Y006711D01*
X014040Y006801D01*
X014033Y006891D01*
X014031Y006982D01*
X018251Y005667D02*
X018251Y005347D01*
X018491Y004917D02*
X018811Y004917D01*
X018811Y005267D01*
X018811Y005747D02*
X018811Y006097D01*
X018651Y006097D01*
X018491Y006097D01*
X018521Y005977D02*
X018541Y005977D01*
X018560Y005981D01*
X018579Y005987D01*
X018597Y005997D01*
X018612Y006009D01*
X018626Y006023D01*
X018637Y006040D01*
X018645Y006058D01*
X018649Y006078D01*
X018651Y006097D01*
X017131Y010662D02*
X017131Y011032D01*
X016481Y011682D01*
X017131Y011682D02*
X014531Y011682D01*
X016126Y012867D02*
X016286Y012867D01*
X016446Y012867D01*
X016416Y012988D02*
X016396Y012988D01*
X016377Y012984D01*
X016358Y012978D01*
X016340Y012968D01*
X016325Y012956D01*
X016311Y012942D01*
X016300Y012925D01*
X016292Y012907D01*
X016288Y012887D01*
X016286Y012868D01*
X016126Y012867D02*
X016126Y013217D01*
X016126Y013697D02*
X016126Y014047D01*
X016446Y014047D01*
X016506Y014357D02*
X016506Y020857D01*
X025406Y020857D01*
X025406Y014357D01*
X016506Y014357D01*
X016686Y013617D02*
X016686Y013297D01*
X017131Y011682D02*
X017131Y011032D01*
X013831Y014432D02*
X013481Y014432D01*
X013381Y014532D01*
X008081Y014532D01*
X007981Y014432D01*
X007631Y014432D01*
X007608Y014434D01*
X007585Y014439D01*
X007563Y014448D01*
X007543Y014461D01*
X007525Y014476D01*
X007510Y014494D01*
X007497Y014514D01*
X007488Y014536D01*
X007483Y014559D01*
X007481Y014582D01*
X007481Y016682D01*
X007483Y016705D01*
X007488Y016728D01*
X007497Y016750D01*
X007510Y016770D01*
X007525Y016788D01*
X007543Y016803D01*
X007563Y016816D01*
X007585Y016825D01*
X007608Y016830D01*
X007631Y016832D01*
X007981Y016832D01*
X008081Y016732D01*
X013381Y016732D01*
X013481Y016832D01*
X013831Y016832D01*
X013831Y016857D02*
X013481Y016857D01*
X013381Y016957D01*
X008081Y016957D01*
X007981Y016857D01*
X007631Y016857D01*
X007608Y016859D01*
X007585Y016864D01*
X007563Y016873D01*
X007543Y016886D01*
X007525Y016901D01*
X007510Y016919D01*
X007497Y016939D01*
X007488Y016961D01*
X007483Y016984D01*
X007481Y017007D01*
X007481Y019107D01*
X007483Y019130D01*
X007488Y019153D01*
X007497Y019175D01*
X007510Y019195D01*
X007525Y019213D01*
X007543Y019228D01*
X007563Y019241D01*
X007585Y019250D01*
X007608Y019255D01*
X007631Y019257D01*
X007981Y019257D01*
X008081Y019157D01*
X013381Y019157D01*
X013481Y019257D01*
X013831Y019257D01*
X013854Y019255D01*
X013877Y019250D01*
X013899Y019241D01*
X013919Y019228D01*
X013937Y019213D01*
X013952Y019195D01*
X013965Y019175D01*
X013974Y019153D01*
X013979Y019130D01*
X013981Y019107D01*
X013981Y017007D01*
X013979Y016984D01*
X013974Y016961D01*
X013965Y016939D01*
X013952Y016919D01*
X013937Y016901D01*
X013919Y016886D01*
X013899Y016873D01*
X013877Y016864D01*
X013854Y016859D01*
X013831Y016857D01*
X013831Y016832D02*
X013854Y016830D01*
X013877Y016825D01*
X013899Y016816D01*
X013919Y016803D01*
X013937Y016788D01*
X013952Y016770D01*
X013965Y016750D01*
X013974Y016728D01*
X013979Y016705D01*
X013981Y016682D01*
X013981Y014582D01*
X013979Y014559D01*
X013974Y014536D01*
X013965Y014514D01*
X013952Y014494D01*
X013937Y014476D01*
X013919Y014461D01*
X013899Y014448D01*
X013877Y014439D01*
X013854Y014434D01*
X013831Y014432D01*
X015831Y015057D02*
X015981Y015282D01*
X016131Y015057D01*
X015831Y015057D01*
X015839Y015068D02*
X016124Y015068D01*
X016085Y015127D02*
X015878Y015127D01*
X015917Y015185D02*
X016046Y015185D01*
X016007Y015244D02*
X015956Y015244D01*
X018356Y017607D02*
X018756Y017607D01*
X019006Y017357D02*
X020006Y017857D01*
X020256Y017607D02*
X022856Y017607D01*
X023106Y017357D02*
X023106Y016127D01*
X023106Y017857D02*
X023106Y019077D01*
X026531Y020582D02*
X026531Y020832D01*
X026531Y020582D02*
X028631Y020582D01*
X029131Y020582D02*
X031231Y020582D01*
X031231Y020832D01*
X029131Y021082D02*
X028631Y021082D01*
X029131Y020082D01*
X028881Y019832D02*
X028881Y017232D01*
X028631Y016982D02*
X027401Y016982D01*
X029131Y016982D02*
X030351Y016982D01*
X032131Y014682D02*
X025631Y014682D01*
X025631Y023582D01*
X032131Y023582D01*
X032131Y014682D01*
X030965Y013118D02*
X030963Y013073D01*
X030958Y013027D01*
X030950Y012983D01*
X030938Y012939D01*
X030922Y012896D01*
X030904Y012854D01*
X030882Y012814D01*
X030858Y012776D01*
X030831Y012740D01*
X030801Y012705D01*
X030768Y012674D01*
X030733Y012644D01*
X029765Y013118D02*
X029767Y013165D01*
X029773Y013213D01*
X029782Y013259D01*
X029795Y013305D01*
X029811Y013349D01*
X029832Y013393D01*
X029855Y013434D01*
X029881Y013473D01*
X029911Y013510D01*
X029944Y013545D01*
X029979Y013577D01*
X030016Y013606D01*
X029765Y013118D02*
X029767Y013072D01*
X029772Y013026D01*
X029781Y012980D01*
X029793Y012935D01*
X029809Y012892D01*
X029828Y012850D01*
X029851Y012809D01*
X029876Y012770D01*
X029904Y012734D01*
X029935Y012699D01*
X029969Y012667D01*
X030005Y012638D01*
X030965Y013118D02*
X030963Y013163D01*
X030958Y013209D01*
X030950Y013253D01*
X030938Y013297D01*
X030922Y013340D01*
X030904Y013382D01*
X030882Y013422D01*
X030858Y013460D01*
X030831Y013496D01*
X030801Y013531D01*
X030768Y013562D01*
X030733Y013592D01*
X027567Y014121D02*
X027483Y014037D01*
X027317Y014037D01*
X027233Y014121D01*
X027233Y014454D01*
X027317Y014538D01*
X027483Y014538D01*
X027567Y014454D01*
X027051Y014454D02*
X027051Y014121D01*
X026968Y014037D01*
X026718Y014037D01*
X026718Y014538D01*
X026968Y014538D01*
X027051Y014454D01*
X026536Y013954D02*
X026202Y013954D01*
X026020Y014037D02*
X025770Y014287D01*
X025686Y014204D02*
X026020Y014538D01*
X025686Y014538D02*
X025686Y014037D01*
X024781Y012132D02*
X024456Y011907D01*
X024781Y011657D01*
X024781Y012132D01*
X024781Y012085D02*
X024713Y012085D01*
X024781Y012026D02*
X024628Y012026D01*
X024544Y011968D02*
X024781Y011968D01*
X024781Y011909D02*
X024459Y011909D01*
X024530Y011851D02*
X024781Y011851D01*
X024781Y011792D02*
X024606Y011792D01*
X024682Y011734D02*
X024781Y011734D01*
X024781Y011675D02*
X024758Y011675D01*
X024151Y009667D02*
X024151Y009077D01*
X024172Y009075D01*
X024192Y009070D01*
X024211Y009061D01*
X024228Y009049D01*
X024243Y009034D01*
X024255Y009017D01*
X024264Y008998D01*
X024269Y008978D01*
X024271Y008957D01*
X024269Y008936D01*
X024264Y008916D01*
X024255Y008897D01*
X024243Y008880D01*
X024228Y008865D01*
X024211Y008853D01*
X024192Y008844D01*
X024172Y008839D01*
X024151Y008837D01*
X024151Y008247D01*
X024281Y008307D02*
X024531Y008657D01*
X024281Y008657D01*
X024281Y008307D01*
X024281Y008341D02*
X024305Y008341D01*
X024281Y008399D02*
X024347Y008399D01*
X024389Y008458D02*
X024281Y008458D01*
X024281Y008516D02*
X024431Y008516D01*
X024472Y008575D02*
X024281Y008575D01*
X024281Y008633D02*
X024514Y008633D01*
X026111Y008247D02*
X026111Y009667D01*
X019506Y015257D02*
X019256Y015257D01*
X019506Y015257D02*
X019506Y017357D01*
X019006Y017357D02*
X019006Y017857D01*
X019506Y017857D02*
X019506Y019957D01*
X019256Y019957D01*
X019365Y021087D02*
X019114Y021087D01*
X019114Y021588D01*
X019365Y021588D01*
X019448Y021504D01*
X019448Y021171D01*
X019365Y021087D01*
X018932Y021087D02*
X018932Y021421D01*
X018766Y021588D01*
X018599Y021421D01*
X018599Y021087D01*
X018417Y021171D02*
X018417Y021504D01*
X018333Y021588D01*
X018167Y021588D01*
X018083Y021504D01*
X018083Y021171D01*
X018167Y021087D01*
X018333Y021087D01*
X018417Y021171D01*
X018599Y021337D02*
X018932Y021337D01*
X017901Y021087D02*
X017568Y021087D01*
X017568Y021588D01*
X016870Y021588D02*
X016536Y021254D01*
X016620Y021337D02*
X016870Y021087D01*
X017052Y021004D02*
X017386Y021004D01*
X016536Y021087D02*
X016536Y021588D01*
X019506Y023957D02*
X012806Y023957D01*
X012780Y023959D01*
X012754Y023964D01*
X012729Y023972D01*
X012706Y023984D01*
X012684Y023998D01*
X012665Y024016D01*
X012647Y024035D01*
X012633Y024057D01*
X012621Y024080D01*
X012613Y024105D01*
X012608Y024131D01*
X012606Y024157D01*
X012606Y026957D01*
X012608Y026983D01*
X012613Y027009D01*
X012621Y027034D01*
X012633Y027057D01*
X012647Y027079D01*
X012665Y027098D01*
X012684Y027116D01*
X012706Y027130D01*
X012729Y027142D01*
X012754Y027150D01*
X012780Y027155D01*
X012806Y027157D01*
X019506Y027157D01*
X019532Y027155D01*
X019558Y027150D01*
X019583Y027142D01*
X019606Y027130D01*
X019628Y027116D01*
X019647Y027098D01*
X019665Y027079D01*
X019679Y027057D01*
X019691Y027034D01*
X019699Y027009D01*
X019704Y026983D01*
X019706Y026957D01*
X019706Y024157D01*
X019704Y024131D01*
X019699Y024105D01*
X019691Y024080D01*
X019679Y024057D01*
X019665Y024035D01*
X019647Y024016D01*
X019628Y023998D01*
X019606Y023984D01*
X019583Y023972D01*
X019558Y023964D01*
X019532Y023959D01*
X019506Y023957D01*
X018556Y025557D02*
X014506Y025557D01*
X014156Y025557D02*
X013756Y025557D01*
X012256Y026257D02*
X012106Y026032D01*
X011956Y026257D01*
X012256Y026257D01*
X012246Y026242D02*
X011967Y026242D01*
X012006Y026183D02*
X012207Y026183D01*
X012168Y026125D02*
X012045Y026125D01*
X012084Y026066D02*
X012129Y026066D01*
X011506Y026282D02*
X010856Y025632D01*
X011506Y025632D01*
X011506Y028232D01*
X010486Y028232D01*
X009926Y028232D02*
X008906Y028232D01*
X008906Y025632D01*
X009926Y025632D01*
X009706Y025542D02*
X009706Y025242D01*
X009556Y025392D02*
X009856Y025392D01*
X009556Y025632D02*
X008906Y026282D01*
X008806Y025232D02*
X008806Y028632D01*
X011606Y028632D01*
X011606Y025232D01*
X008806Y025232D01*
X010486Y025632D02*
X010856Y025632D01*
X007446Y028192D02*
X007446Y028512D01*
X007096Y028512D01*
X006616Y028512D02*
X006266Y028512D01*
X006266Y028352D01*
X006266Y028192D01*
X006387Y028222D02*
X006387Y028242D01*
X006383Y028261D01*
X006377Y028280D01*
X006367Y028298D01*
X006355Y028313D01*
X006341Y028327D01*
X006324Y028338D01*
X006306Y028346D01*
X006286Y028350D01*
X006267Y028352D01*
X006696Y027952D02*
X007016Y027952D01*
X004846Y025512D02*
X004496Y025512D01*
X004846Y025512D02*
X004846Y025192D01*
X004416Y024952D02*
X004096Y024952D01*
X003666Y025192D02*
X003666Y025352D01*
X003666Y025512D01*
X004016Y025512D01*
X003787Y025222D02*
X003787Y025242D01*
X003783Y025261D01*
X003777Y025280D01*
X003767Y025298D01*
X003755Y025313D01*
X003741Y025327D01*
X003724Y025338D01*
X003706Y025346D01*
X003686Y025350D01*
X003667Y025352D01*
X011369Y022312D02*
X012843Y022312D01*
X012381Y020857D02*
X012731Y020607D01*
X012381Y020607D01*
X012381Y020857D01*
X012381Y020801D02*
X012460Y020801D01*
X012381Y020743D02*
X012541Y020743D01*
X012623Y020684D02*
X012381Y020684D01*
X012381Y020626D02*
X012705Y020626D01*
X012843Y020352D02*
X012226Y020352D01*
X012224Y020373D01*
X012219Y020393D01*
X012210Y020412D01*
X012198Y020429D01*
X012183Y020444D01*
X012166Y020456D01*
X012147Y020465D01*
X012127Y020470D01*
X012106Y020472D01*
X012085Y020470D01*
X012065Y020465D01*
X012046Y020456D01*
X012029Y020444D01*
X012014Y020429D01*
X012002Y020412D01*
X011993Y020393D01*
X011988Y020373D01*
X011986Y020352D01*
X011369Y020352D01*
X007956Y014532D02*
X008206Y014282D01*
X008206Y013782D01*
X007956Y013532D01*
X008206Y013282D01*
X008206Y012782D01*
X007956Y012532D01*
X008206Y012282D01*
X008206Y011782D01*
X007956Y011532D01*
X008524Y010362D02*
X008522Y010317D01*
X008517Y010271D01*
X008509Y010227D01*
X008497Y010183D01*
X008481Y010140D01*
X008463Y010098D01*
X008441Y010058D01*
X008417Y010020D01*
X008390Y009984D01*
X008360Y009949D01*
X008327Y009918D01*
X008292Y009888D01*
X007324Y010362D02*
X007326Y010409D01*
X007332Y010457D01*
X007341Y010503D01*
X007354Y010549D01*
X007370Y010593D01*
X007391Y010637D01*
X007414Y010678D01*
X007440Y010717D01*
X007470Y010754D01*
X007503Y010789D01*
X007538Y010821D01*
X007575Y010850D01*
X007324Y010362D02*
X007326Y010316D01*
X007331Y010270D01*
X007340Y010224D01*
X007352Y010179D01*
X007368Y010136D01*
X007387Y010094D01*
X007410Y010053D01*
X007435Y010014D01*
X007463Y009978D01*
X007494Y009943D01*
X007528Y009911D01*
X007564Y009882D01*
X008524Y010362D02*
X008522Y010407D01*
X008517Y010453D01*
X008509Y010497D01*
X008497Y010541D01*
X008481Y010584D01*
X008463Y010626D01*
X008441Y010666D01*
X008417Y010704D01*
X008390Y010740D01*
X008360Y010775D01*
X008327Y010806D01*
X008292Y010836D01*
X006456Y011532D02*
X006206Y011782D01*
X006206Y012282D01*
X006456Y012532D01*
X006206Y012782D01*
X006206Y013282D01*
X006456Y013532D01*
X006206Y013782D01*
X006206Y014282D01*
X006456Y014532D01*
X020591Y025892D02*
X020591Y026052D01*
X020591Y026212D01*
X020941Y026212D01*
X020712Y025922D02*
X020712Y025942D01*
X020708Y025961D01*
X020702Y025980D01*
X020692Y025998D01*
X020680Y026013D01*
X020666Y026027D01*
X020649Y026038D01*
X020631Y026046D01*
X020611Y026050D01*
X020592Y026052D01*
X021021Y025652D02*
X021341Y025652D01*
X021771Y025892D02*
X021771Y026212D01*
X021421Y026212D01*
X021331Y027757D02*
X021481Y027982D01*
X021631Y027757D01*
X021331Y027757D01*
X021335Y027763D02*
X021628Y027763D01*
X021589Y027821D02*
X021374Y027821D01*
X021413Y027880D02*
X021550Y027880D01*
X021511Y027938D02*
X021452Y027938D01*
X023241Y023037D02*
X023241Y022877D01*
X023241Y022717D01*
X023362Y022747D02*
X023362Y022767D01*
X023358Y022786D01*
X023352Y022805D01*
X023342Y022823D01*
X023330Y022838D01*
X023316Y022852D01*
X023299Y022863D01*
X023281Y022871D01*
X023261Y022875D01*
X023242Y022877D01*
X023241Y023037D02*
X023591Y023037D01*
X024071Y023037D02*
X024421Y023037D01*
X024421Y022717D01*
X023991Y022477D02*
X023671Y022477D01*
X024931Y022182D02*
X025081Y022407D01*
X025231Y022182D01*
X024931Y022182D01*
X024947Y022205D02*
X025216Y022205D01*
X025177Y022264D02*
X024986Y022264D01*
X025025Y022322D02*
X025138Y022322D01*
X025099Y022381D02*
X025064Y022381D01*
X028881Y021732D02*
X028881Y021332D01*
X012831Y028607D02*
X012606Y028757D01*
X012831Y028907D01*
X012831Y028607D01*
X012831Y028640D02*
X012782Y028640D01*
X012831Y028699D02*
X012694Y028699D01*
X012607Y028757D02*
X012831Y028757D01*
X012831Y028816D02*
X012694Y028816D01*
X012782Y028874D02*
X012831Y028874D01*
D817*
X013725Y029668D02*
X013725Y032247D01*
X009473Y032247D01*
X009473Y032001D02*
X009473Y032611D01*
X014168Y032611D01*
X014168Y029304D01*
X003294Y029304D01*
X003294Y032611D01*
X004894Y032611D01*
X004894Y032493D01*
X005476Y032493D01*
X005476Y032611D01*
X007990Y032611D01*
X009473Y032611D01*
X009473Y032001D02*
X007990Y032001D01*
X007990Y032611D01*
X007990Y032247D02*
X003737Y032247D01*
X003737Y029668D01*
X013725Y029668D01*
X013006Y023532D02*
X012506Y023532D01*
X012256Y023282D01*
X012006Y023532D01*
X011506Y023532D01*
X011256Y023282D01*
X011006Y023532D01*
X010506Y023532D01*
X010256Y023282D01*
X010006Y023532D01*
X009506Y023532D01*
X009256Y023282D01*
X009006Y023532D01*
X008506Y023532D01*
X008256Y023282D01*
X008006Y023532D01*
X007506Y023532D01*
X007256Y023282D01*
X007256Y022782D01*
X007506Y022532D01*
X008006Y022532D01*
X008256Y022782D01*
X008506Y022532D01*
X009006Y022532D01*
X009256Y022782D01*
X009506Y022532D01*
X010006Y022532D01*
X010256Y022782D01*
X010506Y022532D01*
X011006Y022532D01*
X011256Y022782D01*
X011506Y022532D01*
X012006Y022532D01*
X012256Y022782D01*
X012506Y022532D01*
X013006Y022532D01*
X013256Y022782D01*
X013256Y023282D01*
X013006Y023532D01*
X014256Y023282D02*
X014256Y022782D01*
X014506Y022532D01*
X015006Y022532D01*
X015256Y022782D01*
X015506Y022532D01*
X016006Y022532D01*
X016256Y022782D01*
X016506Y022532D01*
X017006Y022532D01*
X017256Y022782D01*
X017506Y022532D01*
X018006Y022532D01*
X018256Y022782D01*
X018506Y022532D01*
X019006Y022532D01*
X019256Y022782D01*
X019506Y022532D01*
X020006Y022532D01*
X020256Y022782D01*
X020506Y022532D01*
X021006Y022532D01*
X021256Y022782D01*
X021506Y022532D01*
X022006Y022532D01*
X022256Y022782D01*
X022256Y023282D01*
X022006Y023532D01*
X021506Y023532D01*
X021256Y023282D01*
X021006Y023532D01*
X020506Y023532D01*
X020256Y023282D01*
X020006Y023532D01*
X019506Y023532D01*
X019256Y023282D01*
X019006Y023532D01*
X018506Y023532D01*
X018256Y023282D01*
X018006Y023532D01*
X017506Y023532D01*
X017256Y023282D01*
X017006Y023532D01*
X016506Y023532D01*
X016256Y023282D01*
X016006Y023532D01*
X015506Y023532D01*
X015256Y023282D01*
X015006Y023532D01*
X014506Y023532D01*
X014256Y023282D01*
X022061Y023872D02*
X022061Y028792D01*
X033391Y028792D01*
X033391Y028342D01*
X033391Y027322D02*
X033391Y025342D01*
X033391Y024322D02*
X033391Y023872D01*
X022061Y023872D01*
X003165Y019858D02*
X002401Y019858D01*
X002401Y006756D01*
X003165Y006756D01*
X003165Y019858D01*
X007506Y004532D02*
X007256Y004282D01*
X007256Y003782D01*
X007506Y003532D01*
X008006Y003532D01*
X008256Y003782D01*
X008506Y003532D01*
X009006Y003532D01*
X009256Y003782D01*
X009506Y003532D01*
X010006Y003532D01*
X010256Y003782D01*
X010506Y003532D01*
X011006Y003532D01*
X011256Y003782D01*
X011506Y003532D01*
X012006Y003532D01*
X012256Y003782D01*
X012506Y003532D01*
X013006Y003532D01*
X013256Y003782D01*
X013506Y003532D01*
X014006Y003532D01*
X014256Y003782D01*
X014506Y003532D01*
X015006Y003532D01*
X015256Y003782D01*
X015256Y004282D01*
X015006Y004532D01*
X014506Y004532D01*
X014256Y004282D01*
X014006Y004532D01*
X013506Y004532D01*
X013256Y004282D01*
X013006Y004532D01*
X012506Y004532D01*
X012256Y004282D01*
X012006Y004532D01*
X011506Y004532D01*
X011256Y004282D01*
X011006Y004532D01*
X010506Y004532D01*
X010256Y004282D01*
X010006Y004532D01*
X009506Y004532D01*
X009256Y004282D01*
X009006Y004532D01*
X008506Y004532D01*
X008256Y004282D01*
X008006Y004532D01*
X007506Y004532D01*
X015856Y004282D02*
X015856Y003782D01*
X016106Y003532D01*
X016606Y003532D01*
X016856Y003782D01*
X017106Y003532D01*
X017606Y003532D01*
X017856Y003782D01*
X018106Y003532D01*
X018606Y003532D01*
X018856Y003782D01*
X019106Y003532D01*
X019606Y003532D01*
X019856Y003782D01*
X020106Y003532D01*
X020606Y003532D01*
X020856Y003782D01*
X021106Y003532D01*
X021606Y003532D01*
X021856Y003782D01*
X022106Y003532D01*
X022606Y003532D01*
X022856Y003782D01*
X023106Y003532D01*
X023606Y003532D01*
X023856Y003782D01*
X024106Y003532D01*
X024606Y003532D01*
X024856Y003782D01*
X025106Y003532D01*
X025606Y003532D01*
X025856Y003782D01*
X025856Y004282D01*
X025606Y004532D01*
X025106Y004532D01*
X024856Y004282D01*
X024606Y004532D01*
X024106Y004532D01*
X023856Y004282D01*
X023606Y004532D01*
X023106Y004532D01*
X022856Y004282D01*
X022606Y004532D01*
X022106Y004532D01*
X021856Y004282D01*
X021606Y004532D01*
X021106Y004532D01*
X020856Y004282D01*
X020606Y004532D01*
X020106Y004532D01*
X019856Y004282D01*
X019606Y004532D01*
X019106Y004532D01*
X018856Y004282D01*
X018606Y004532D01*
X018106Y004532D01*
X017856Y004282D01*
X017606Y004532D01*
X017106Y004532D01*
X016856Y004282D01*
X016606Y004532D01*
X016106Y004532D01*
X015856Y004282D01*
D818*
X004920Y006598D02*
X004853Y006531D01*
X004786Y006531D01*
X004517Y006800D01*
X004517Y006531D01*
X004920Y006598D02*
X004920Y006733D01*
X004853Y006800D01*
X003930Y006652D02*
X003526Y006652D01*
X003526Y006786D02*
X003526Y006517D01*
X003795Y006786D02*
X003930Y006652D01*
D819*
X001252Y007307D03*
X001252Y008307D03*
X001252Y009307D03*
X001252Y010307D03*
X001252Y011307D03*
X001252Y012307D03*
X001252Y013307D03*
X001252Y014307D03*
X001252Y015307D03*
X001252Y016307D03*
X001252Y017307D03*
X001252Y018307D03*
X001252Y019307D03*
D820*
X005194Y022581D02*
X005194Y024134D01*
X005968Y024134D01*
X005968Y022581D01*
X005194Y022581D01*
X005008Y023520D02*
X005008Y024294D01*
X003455Y024294D01*
X003455Y023520D01*
X005008Y023520D01*
X006319Y022334D02*
X007093Y022334D01*
X007093Y020781D01*
X006319Y020781D01*
X006319Y022334D01*
X007094Y022337D02*
X007868Y022337D01*
X007868Y021077D01*
X007094Y021077D01*
X007094Y022337D01*
X007093Y020784D02*
X006319Y020784D01*
X006319Y019231D01*
X007093Y019231D01*
X007093Y020784D01*
X007094Y020587D02*
X007868Y020587D01*
X007868Y019327D01*
X007094Y019327D01*
X007094Y020587D01*
X006293Y020309D02*
X006293Y018756D01*
X005519Y018756D01*
X005519Y020309D01*
X006293Y020309D01*
X010126Y020244D02*
X010126Y019470D01*
X011386Y019470D01*
X011386Y020244D01*
X010126Y020244D01*
X010208Y024245D02*
X008655Y024245D01*
X008655Y025019D01*
X010208Y025019D01*
X010208Y024245D01*
X007658Y026545D02*
X007658Y027319D01*
X006105Y027319D01*
X006105Y026545D01*
X007658Y026545D01*
X013680Y027445D02*
X013680Y028219D01*
X015233Y028219D01*
X015233Y027445D01*
X013680Y027445D01*
X015492Y027427D02*
X015492Y028988D01*
X018620Y028988D01*
X018620Y027427D01*
X015492Y027427D01*
X020305Y024969D02*
X020305Y024195D01*
X021858Y024195D01*
X021858Y024969D01*
X020305Y024969D01*
X023030Y021794D02*
X024583Y021794D01*
X024583Y021020D01*
X023030Y021020D01*
X023030Y021794D01*
X018093Y014209D02*
X017319Y014209D01*
X017319Y012656D01*
X018093Y012656D01*
X018093Y014209D01*
X022230Y013594D02*
X022230Y012820D01*
X023783Y012820D01*
X023783Y013594D01*
X022230Y013594D01*
X023783Y013594D02*
X023783Y012820D01*
X025730Y012820D01*
X025730Y013594D01*
X023783Y013594D01*
X026080Y012669D02*
X026080Y011895D01*
X027633Y011895D01*
X027633Y012669D01*
X026080Y012669D01*
X026469Y011809D02*
X027243Y011809D01*
X027243Y010256D01*
X026469Y010256D01*
X026469Y011809D01*
X027244Y011809D02*
X028018Y011809D01*
X028018Y010256D01*
X027244Y010256D01*
X027244Y011809D01*
X026880Y009944D02*
X026880Y009170D01*
X028433Y009170D01*
X028433Y009944D01*
X026880Y009944D01*
X026880Y009169D02*
X026880Y008395D01*
X028433Y008395D01*
X028433Y009169D01*
X026880Y009169D01*
X026880Y008194D02*
X026880Y007420D01*
X028433Y007420D01*
X028433Y008194D01*
X026880Y008194D01*
X026880Y007419D02*
X026880Y006645D01*
X028433Y006645D01*
X028433Y007419D01*
X026880Y007419D01*
X025480Y006669D02*
X025480Y005795D01*
X023533Y005795D01*
X023533Y006669D01*
X025480Y006669D01*
X025805Y006194D02*
X025805Y005420D01*
X027358Y005420D01*
X027358Y006194D01*
X025805Y006194D01*
X025480Y005794D02*
X025480Y004920D01*
X023533Y004920D01*
X023533Y005794D01*
X025480Y005794D01*
X023518Y005706D02*
X023518Y007259D01*
X022744Y007259D01*
X022744Y005706D01*
X023518Y005706D01*
X022743Y005706D02*
X021969Y005706D01*
X021969Y007259D01*
X022743Y007259D01*
X022743Y005706D01*
X021968Y005706D02*
X021194Y005706D01*
X021194Y007259D01*
X021968Y007259D01*
X021968Y005706D01*
X021193Y005706D02*
X020419Y005706D01*
X020419Y007259D01*
X021193Y007259D01*
X021193Y005706D01*
X019433Y006245D02*
X019433Y007019D01*
X017880Y007019D01*
X017880Y006245D01*
X019433Y006245D01*
X023269Y007627D02*
X023269Y008887D01*
X024043Y008887D01*
X024043Y007627D01*
X023269Y007627D01*
X023219Y009881D02*
X023993Y009881D01*
X023993Y011434D01*
X023219Y011434D01*
X023219Y009881D01*
X031319Y012381D02*
X032093Y012381D01*
X032093Y013934D01*
X031319Y013934D01*
X031319Y012381D01*
X013943Y012681D02*
X013169Y012681D01*
X013169Y014234D01*
X013943Y014234D01*
X013943Y012681D01*
X013943Y012684D02*
X013169Y012684D01*
X013169Y011131D01*
X013943Y011131D01*
X013943Y012684D01*
X013168Y012684D02*
X012394Y012684D01*
X012394Y011131D01*
X013168Y011131D01*
X013168Y012684D01*
X013168Y012681D02*
X012394Y012681D01*
X012394Y014234D01*
X013168Y014234D01*
X013168Y012681D01*
X013169Y011134D02*
X013943Y011134D01*
X013943Y009581D01*
X013169Y009581D01*
X013169Y011134D01*
X010717Y011319D02*
X010717Y009766D01*
X009943Y009766D01*
X009943Y011319D01*
X010717Y011319D01*
X009801Y011319D02*
X009027Y011319D01*
X009027Y009766D01*
X009801Y009766D01*
X009801Y011319D01*
X010018Y007284D02*
X009244Y007284D01*
X009244Y005731D01*
X010018Y005731D01*
X010018Y007284D01*
X013144Y007034D02*
X013144Y005481D01*
X013918Y005481D01*
X013918Y007034D01*
X013144Y007034D01*
D821*
X024395Y011907D03*
X012545Y028757D03*
D822*
X014361Y018057D03*
X014361Y015632D03*
X007101Y015632D03*
X007101Y018057D03*
D823*
X007124Y010362D02*
X007126Y010308D01*
X007131Y010254D01*
X007140Y010201D01*
X007153Y010148D01*
X007169Y010097D01*
X007189Y010047D01*
X007212Y009998D01*
X007238Y009950D01*
X007267Y009905D01*
X007300Y009862D01*
X007335Y009821D01*
X007373Y009782D01*
X007413Y009746D01*
X007456Y009713D01*
X007501Y009683D01*
X007548Y009656D01*
X008321Y009667D02*
X008369Y009697D01*
X008414Y009730D01*
X008457Y009766D01*
X008498Y009804D01*
X008535Y009846D01*
X008570Y009890D01*
X008601Y009936D01*
X008630Y009985D01*
X008654Y010035D01*
X008675Y010087D01*
X008693Y010141D01*
X008706Y010195D01*
X008716Y010250D01*
X008722Y010306D01*
X008724Y010362D01*
X008722Y010415D01*
X008717Y010469D01*
X008708Y010521D01*
X008696Y010573D01*
X008680Y010624D01*
X008661Y010674D01*
X008638Y010723D01*
X008612Y010770D01*
X008584Y010815D01*
X008552Y010858D01*
X008518Y010898D01*
X008480Y010937D01*
X008441Y010973D01*
X007412Y010977D02*
X007372Y010941D01*
X007334Y010902D01*
X007299Y010861D01*
X007267Y010818D01*
X007237Y010773D01*
X007211Y010726D01*
X007189Y010677D01*
X007169Y010626D01*
X007153Y010575D01*
X007140Y010523D01*
X007131Y010469D01*
X007126Y010416D01*
X007124Y010362D01*
X012258Y009667D02*
X012306Y009697D01*
X012351Y009730D01*
X012394Y009766D01*
X012435Y009804D01*
X012472Y009846D01*
X012507Y009890D01*
X012538Y009936D01*
X012567Y009985D01*
X012591Y010035D01*
X012612Y010087D01*
X012630Y010141D01*
X012643Y010195D01*
X012653Y010250D01*
X012659Y010306D01*
X012661Y010362D01*
X011485Y009656D02*
X011438Y009683D01*
X011393Y009713D01*
X011350Y009746D01*
X011310Y009782D01*
X011272Y009821D01*
X011237Y009862D01*
X011204Y009905D01*
X011175Y009950D01*
X011149Y009998D01*
X011126Y010047D01*
X011106Y010097D01*
X011090Y010148D01*
X011077Y010201D01*
X011068Y010254D01*
X011063Y010308D01*
X011061Y010362D01*
X012378Y010973D02*
X012417Y010937D01*
X012455Y010898D01*
X012489Y010858D01*
X012521Y010815D01*
X012549Y010770D01*
X012575Y010723D01*
X012598Y010674D01*
X012617Y010624D01*
X012633Y010573D01*
X012645Y010521D01*
X012654Y010469D01*
X012659Y010415D01*
X012661Y010362D01*
X011349Y010977D02*
X011309Y010941D01*
X011271Y010902D01*
X011236Y010861D01*
X011204Y010818D01*
X011174Y010773D01*
X011148Y010726D01*
X011126Y010677D01*
X011106Y010626D01*
X011090Y010575D01*
X011077Y010523D01*
X011068Y010469D01*
X011063Y010416D01*
X011061Y010362D01*
X018071Y008512D02*
X018071Y012252D01*
X018070Y012252D02*
X018072Y012291D01*
X018078Y012329D01*
X018087Y012366D01*
X018100Y012403D01*
X018117Y012438D01*
X018136Y012471D01*
X018159Y012502D01*
X018185Y012531D01*
X018214Y012557D01*
X018245Y012580D01*
X018278Y012599D01*
X018313Y012616D01*
X018350Y012629D01*
X018387Y012638D01*
X018425Y012644D01*
X018464Y012646D01*
X019225Y012646D01*
X021837Y012646D02*
X022598Y012646D01*
X022637Y012644D01*
X022675Y012638D01*
X022712Y012629D01*
X022749Y012616D01*
X022784Y012599D01*
X022817Y012580D01*
X022848Y012557D01*
X022877Y012531D01*
X022903Y012502D01*
X022926Y012471D01*
X022945Y012438D01*
X022962Y012403D01*
X022975Y012366D01*
X022984Y012329D01*
X022990Y012291D01*
X022992Y012252D01*
X022992Y008512D01*
X022990Y008473D01*
X022984Y008435D01*
X022975Y008398D01*
X022962Y008361D01*
X022945Y008326D01*
X022926Y008293D01*
X022903Y008262D01*
X022877Y008233D01*
X022848Y008207D01*
X022817Y008184D01*
X022784Y008165D01*
X022749Y008148D01*
X022712Y008135D01*
X022675Y008126D01*
X022637Y008120D01*
X022598Y008118D01*
X022598Y008119D02*
X021837Y008119D01*
X019225Y008119D02*
X018464Y008119D01*
X018464Y008118D02*
X018425Y008120D01*
X018387Y008126D01*
X018350Y008135D01*
X018313Y008148D01*
X018278Y008165D01*
X018245Y008184D01*
X018214Y008207D01*
X018185Y008233D01*
X018159Y008262D01*
X018136Y008293D01*
X018117Y008326D01*
X018100Y008361D01*
X018087Y008398D01*
X018078Y008435D01*
X018072Y008473D01*
X018070Y008512D01*
X019006Y017357D02*
X019506Y017357D01*
X020006Y017357D01*
X020006Y017857D01*
X019506Y017857D01*
X019006Y017857D01*
X022856Y017607D02*
X023106Y017857D01*
X023236Y017977D01*
X028881Y017232D02*
X029131Y016982D01*
X029251Y016852D01*
X029131Y020082D02*
X028631Y020082D01*
X028631Y020582D01*
X028631Y021082D01*
X029131Y021082D02*
X029131Y020582D01*
X029131Y020082D01*
X029565Y013118D02*
X029567Y013064D01*
X029572Y013010D01*
X029581Y012957D01*
X029594Y012904D01*
X029610Y012853D01*
X029630Y012803D01*
X029653Y012754D01*
X029679Y012706D01*
X029708Y012661D01*
X029741Y012618D01*
X029776Y012577D01*
X029814Y012538D01*
X029854Y012502D01*
X029897Y012469D01*
X029942Y012439D01*
X029989Y012412D01*
X030762Y012423D02*
X030810Y012453D01*
X030855Y012486D01*
X030898Y012522D01*
X030939Y012560D01*
X030976Y012602D01*
X031011Y012646D01*
X031042Y012692D01*
X031071Y012741D01*
X031095Y012791D01*
X031116Y012843D01*
X031134Y012897D01*
X031147Y012951D01*
X031157Y013006D01*
X031163Y013062D01*
X031165Y013118D01*
X031163Y013171D01*
X031158Y013225D01*
X031149Y013277D01*
X031137Y013329D01*
X031121Y013380D01*
X031102Y013430D01*
X031079Y013479D01*
X031053Y013526D01*
X031025Y013571D01*
X030993Y013614D01*
X030959Y013654D01*
X030921Y013693D01*
X030882Y013729D01*
X029853Y013733D02*
X029813Y013697D01*
X029775Y013658D01*
X029740Y013617D01*
X029708Y013574D01*
X029678Y013529D01*
X029652Y013482D01*
X029630Y013433D01*
X029610Y013382D01*
X029594Y013331D01*
X029581Y013279D01*
X029572Y013225D01*
X029567Y013172D01*
X029565Y013118D01*
D824*
X032777Y010569D02*
X032779Y010617D01*
X032785Y010665D01*
X032795Y010712D01*
X032808Y010758D01*
X032826Y010803D01*
X032846Y010847D01*
X032871Y010889D01*
X032899Y010928D01*
X032929Y010965D01*
X032963Y010999D01*
X033000Y011031D01*
X033038Y011060D01*
X033079Y011085D01*
X033122Y011107D01*
X033167Y011125D01*
X033213Y011139D01*
X033260Y011150D01*
X033308Y011157D01*
X033356Y011160D01*
X033404Y011159D01*
X033452Y011154D01*
X033500Y011145D01*
X033546Y011133D01*
X033591Y011116D01*
X033635Y011096D01*
X033677Y011073D01*
X033717Y011046D01*
X033755Y011016D01*
X033790Y010983D01*
X033822Y010947D01*
X033852Y010909D01*
X033878Y010868D01*
X033900Y010825D01*
X033920Y010781D01*
X033935Y010736D01*
X033947Y010689D01*
X033955Y010641D01*
X033959Y010593D01*
X033959Y010545D01*
X033955Y010497D01*
X033947Y010449D01*
X033935Y010402D01*
X033920Y010357D01*
X033900Y010313D01*
X033878Y010270D01*
X033852Y010229D01*
X033822Y010191D01*
X033790Y010155D01*
X033755Y010122D01*
X033717Y010092D01*
X033677Y010065D01*
X033635Y010042D01*
X033591Y010022D01*
X033546Y010005D01*
X033500Y009993D01*
X033452Y009984D01*
X033404Y009979D01*
X033356Y009978D01*
X033308Y009981D01*
X033260Y009988D01*
X033213Y009999D01*
X033167Y010013D01*
X033122Y010031D01*
X033079Y010053D01*
X033038Y010078D01*
X033000Y010107D01*
X032963Y010139D01*
X032929Y010173D01*
X032899Y010210D01*
X032871Y010249D01*
X032846Y010291D01*
X032826Y010335D01*
X032808Y010380D01*
X032795Y010426D01*
X032785Y010473D01*
X032779Y010521D01*
X032777Y010569D01*
X032777Y007262D02*
X032779Y007310D01*
X032785Y007358D01*
X032795Y007405D01*
X032808Y007451D01*
X032826Y007496D01*
X032846Y007540D01*
X032871Y007582D01*
X032899Y007621D01*
X032929Y007658D01*
X032963Y007692D01*
X033000Y007724D01*
X033038Y007753D01*
X033079Y007778D01*
X033122Y007800D01*
X033167Y007818D01*
X033213Y007832D01*
X033260Y007843D01*
X033308Y007850D01*
X033356Y007853D01*
X033404Y007852D01*
X033452Y007847D01*
X033500Y007838D01*
X033546Y007826D01*
X033591Y007809D01*
X033635Y007789D01*
X033677Y007766D01*
X033717Y007739D01*
X033755Y007709D01*
X033790Y007676D01*
X033822Y007640D01*
X033852Y007602D01*
X033878Y007561D01*
X033900Y007518D01*
X033920Y007474D01*
X033935Y007429D01*
X033947Y007382D01*
X033955Y007334D01*
X033959Y007286D01*
X033959Y007238D01*
X033955Y007190D01*
X033947Y007142D01*
X033935Y007095D01*
X033920Y007050D01*
X033900Y007006D01*
X033878Y006963D01*
X033852Y006922D01*
X033822Y006884D01*
X033790Y006848D01*
X033755Y006815D01*
X033717Y006785D01*
X033677Y006758D01*
X033635Y006735D01*
X033591Y006715D01*
X033546Y006698D01*
X033500Y006686D01*
X033452Y006677D01*
X033404Y006672D01*
X033356Y006671D01*
X033308Y006674D01*
X033260Y006681D01*
X033213Y006692D01*
X033167Y006706D01*
X033122Y006724D01*
X033079Y006746D01*
X033038Y006771D01*
X033000Y006800D01*
X032963Y006832D01*
X032929Y006866D01*
X032899Y006903D01*
X032871Y006942D01*
X032846Y006984D01*
X032826Y007028D01*
X032808Y007073D01*
X032795Y007119D01*
X032785Y007166D01*
X032779Y007214D01*
X032777Y007262D01*
D825*
X015981Y015344D03*
X025081Y022469D03*
X021481Y028044D03*
X012106Y025971D03*
D826*
X014156Y026057D02*
X014156Y025557D01*
X014156Y025057D01*
X014506Y025057D02*
X014506Y025557D01*
X014506Y026057D01*
M02*
