G75*
G70*
%OFA0B0*%
%FSLAX24Y24*%
%IPPOS*%
%LPD*%
%AMOC8*
5,1,8,0,0,1.08239X$1,22.5*
%
%ADD10C,0.0039*%
%ADD11C,0.0000*%
D10*
X005562Y005244D02*
X005562Y035165D01*
X038633Y035165D01*
X038633Y005244D01*
X005562Y005244D01*
D11*
X035532Y009624D02*
X035534Y009672D01*
X035540Y009720D01*
X035550Y009767D01*
X035563Y009813D01*
X035581Y009858D01*
X035601Y009902D01*
X035626Y009944D01*
X035654Y009983D01*
X035684Y010020D01*
X035718Y010054D01*
X035755Y010086D01*
X035793Y010115D01*
X035834Y010140D01*
X035877Y010162D01*
X035922Y010180D01*
X035968Y010194D01*
X036015Y010205D01*
X036063Y010212D01*
X036111Y010215D01*
X036159Y010214D01*
X036207Y010209D01*
X036255Y010200D01*
X036301Y010188D01*
X036346Y010171D01*
X036390Y010151D01*
X036432Y010128D01*
X036472Y010101D01*
X036510Y010071D01*
X036545Y010038D01*
X036577Y010002D01*
X036607Y009964D01*
X036633Y009923D01*
X036655Y009880D01*
X036675Y009836D01*
X036690Y009791D01*
X036702Y009744D01*
X036710Y009696D01*
X036714Y009648D01*
X036714Y009600D01*
X036710Y009552D01*
X036702Y009504D01*
X036690Y009457D01*
X036675Y009412D01*
X036655Y009368D01*
X036633Y009325D01*
X036607Y009284D01*
X036577Y009246D01*
X036545Y009210D01*
X036510Y009177D01*
X036472Y009147D01*
X036432Y009120D01*
X036390Y009097D01*
X036346Y009077D01*
X036301Y009060D01*
X036255Y009048D01*
X036207Y009039D01*
X036159Y009034D01*
X036111Y009033D01*
X036063Y009036D01*
X036015Y009043D01*
X035968Y009054D01*
X035922Y009068D01*
X035877Y009086D01*
X035834Y009108D01*
X035793Y009133D01*
X035755Y009162D01*
X035718Y009194D01*
X035684Y009228D01*
X035654Y009265D01*
X035626Y009304D01*
X035601Y009346D01*
X035581Y009390D01*
X035563Y009435D01*
X035550Y009481D01*
X035540Y009528D01*
X035534Y009576D01*
X035532Y009624D01*
X035532Y012931D02*
X035534Y012979D01*
X035540Y013027D01*
X035550Y013074D01*
X035563Y013120D01*
X035581Y013165D01*
X035601Y013209D01*
X035626Y013251D01*
X035654Y013290D01*
X035684Y013327D01*
X035718Y013361D01*
X035755Y013393D01*
X035793Y013422D01*
X035834Y013447D01*
X035877Y013469D01*
X035922Y013487D01*
X035968Y013501D01*
X036015Y013512D01*
X036063Y013519D01*
X036111Y013522D01*
X036159Y013521D01*
X036207Y013516D01*
X036255Y013507D01*
X036301Y013495D01*
X036346Y013478D01*
X036390Y013458D01*
X036432Y013435D01*
X036472Y013408D01*
X036510Y013378D01*
X036545Y013345D01*
X036577Y013309D01*
X036607Y013271D01*
X036633Y013230D01*
X036655Y013187D01*
X036675Y013143D01*
X036690Y013098D01*
X036702Y013051D01*
X036710Y013003D01*
X036714Y012955D01*
X036714Y012907D01*
X036710Y012859D01*
X036702Y012811D01*
X036690Y012764D01*
X036675Y012719D01*
X036655Y012675D01*
X036633Y012632D01*
X036607Y012591D01*
X036577Y012553D01*
X036545Y012517D01*
X036510Y012484D01*
X036472Y012454D01*
X036432Y012427D01*
X036390Y012404D01*
X036346Y012384D01*
X036301Y012367D01*
X036255Y012355D01*
X036207Y012346D01*
X036159Y012341D01*
X036111Y012340D01*
X036063Y012343D01*
X036015Y012350D01*
X035968Y012361D01*
X035922Y012375D01*
X035877Y012393D01*
X035834Y012415D01*
X035793Y012440D01*
X035755Y012469D01*
X035718Y012501D01*
X035684Y012535D01*
X035654Y012572D01*
X035626Y012611D01*
X035601Y012653D01*
X035581Y012697D01*
X035563Y012742D01*
X035550Y012788D01*
X035540Y012835D01*
X035534Y012883D01*
X035532Y012931D01*
M02*
